ply
format ascii 1.0
element vertex 288
property float x
property float y
property float z
end_header
0.002913 -0.043328 0.319402
0.003608 -0.042984 0.319255
0.005187 -0.042689 0.318121
0.005637 -0.042335 0.318241
0.006487 -0.042005 0.317913
0.007255 -0.041671 0.317674
0.007943 -0.041333 0.317525
0.008708 -0.041001 0.317285
0.009551 -0.040676 0.316955
0.010393 -0.040353 0.316625
0.011705 -0.040064 0.315753
0.013092 -0.039785 0.314789
0.014552 -0.039516 0.313735
0.016555 -0.039293 0.312047
0.000826 -0.043538 0.320056
0.001687 -0.043200 0.319731
0.002547 -0.042864 0.319405
0.003242 -0.042521 0.319257
0.004018 -0.042183 0.319020
0.004872 -0.041851 0.318693
0.005483 -0.041506 0.318634
0.005934 -0.041151 0.318755
0.006384 -0.040797 0.318876
0.007074 -0.040458 0.318727
0.007683 -0.040115 0.318668
0.008528 -0.039789 0.318338
0.009530 -0.039477 0.317828
0.010687 -0.039179 0.317137
0.012233 -0.038914 0.315993
0.012676 -0.038566 0.316112
0.016796 -0.038520 0.311985
-0.001189 -0.043754 0.320619
-0.000569 -0.043402 0.320563
0.000133 -0.043055 0.320417
0.000914 -0.042713 0.320181
0.001613 -0.042369 0.320035
0.002230 -0.042020 0.319977
0.003088 -0.041686 0.319651
0.003944 -0.041354 0.319324
0.004396 -0.040998 0.319445
0.004849 -0.040643 0.319567
0.005141 -0.040276 0.319868
0.005355 -0.039903 0.320259
0.005808 -0.039546 0.320381
0.006500 -0.039207 0.320233
0.006953 -0.038851 0.320354
0.007010 -0.038463 0.320927
0.008016 -0.038151 0.320417
0.009568 -0.037886 0.319274
0.011899 -0.037691 0.317227
0.014299 -0.037511 0.315087
-0.004170 -0.044311 0.321592
-0.003545 -0.043956 0.321537
-0.002838 -0.043606 0.321392
-0.002215 -0.043253 0.321337
-0.001510 -0.042905 0.321191
-0.000889 -0.042553 0.321135
-0.000024 -0.042216 0.320811
0.000677 -0.041870 0.320664
0.001295 -0.041521 0.320608
0.002155 -0.041187 0.320281
0.002772 -0.040840 0.320224
0.003226 -0.040482 0.320346
0.003680 -0.040125 0.320468
0.003975 -0.039756 0.320770
0.004190 -0.039381 0.321162
0.004326 -0.038999 0.321644
0.004782 -0.038640 0.321767
0.005556 -0.038306 0.321529
0.006644 -0.037999 0.320929
0.007651 -0.037688 0.320420
0.009205 -0.037425 0.319277
0.011540 -0.037236 0.317230
0.013944 -0.037060 0.315090
-0.006505 -0.044902 0.321848
-0.005877 -0.044546 0.321793
-0.005416 -0.044183 0.321917
-0.004955 -0.043821 0.322041
-0.004246 -0.043470 0.321897
-0.003621 -0.043116 0.321842
-0.002996 -0.042762 0.321786
-0.002290 -0.042414 0.321641
-0.001667 -0.042062 0.321586
-0.000964 -0.041715 0.321440
-0.000343 -0.041364 0.321384
0.000115 -0.041004 0.321507
0.000978 -0.040670 0.321181
0.001435 -0.040311 0.321304
0.000923 -0.039885 0.322504
0.001543 -0.039535 0.322448
0.002002 -0.039175 0.322571
0.002301 -0.038802 0.322874
0.002360 -0.038410 0.323447
0.002661 -0.038035 0.323751
0.003281 -0.037686 0.323694
0.003899 -0.037337 0.323637
0.005150 -0.037043 0.322858
0.006397 -0.036751 0.322079
0.007246 -0.036428 0.321749
0.008486 -0.036142 0.320967
0.008939 -0.035786 0.321089
-0.005327 -0.043349 0.322044
-0.004866 -0.042986 0.322167
-0.004405 -0.042623 0.322291
-0.003697 -0.042274 0.322147
-0.003236 -0.041912 0.322270
-0.002776 -0.041549 0.322394
-0.002315 -0.041187 0.322518
-0.000609 -0.040122 0.322530
0.000094 -0.039777 0.322384
0.000553 -0.039415 0.322507
0.000609 -0.039025 0.323079
0.000506 -0.038621 0.323832
0.000566 -0.038227 0.324406
0.000388 -0.037813 0.325250
0.000453 -0.037415 0.325825
0.000679 -0.037029 0.326220
0.001145 -0.036663 0.326345
0.001452 -0.036283 0.326651
0.001285 -0.035860 0.327498
-0.001657 -0.039209 0.323912
-0.001194 -0.038845 0.324036
-0.001136 -0.038451 0.324610
-0.001317 -0.038037 0.325454
-0.001495 -0.037620 0.326298
-0.001429 -0.037220 0.326874
-0.001362 -0.036819 0.327449
-0.001053 -0.036437 0.327755
-0.000823 -0.036047 0.328152
-0.000592 -0.035656 0.328549
-0.000518 -0.035250 0.329126
-0.003080 -0.037044 0.327651
-0.002610 -0.036675 0.327777
-0.002381 -0.036285 0.328173
-0.001911 -0.035915 0.328299
-0.001601 -0.035531 0.328606
-0.001369 -0.035138 0.329003
-0.003459 -0.036563 0.327653
-0.002989 -0.036194 0.327779
-0.002921 -0.035789 0.328356
-0.002451 -0.035419 0.328482
-0.002220 -0.035027 0.328879
-0.062379 -0.048260 0.365547
-0.061815 -0.047816 0.365699
-0.004013 -0.035657 0.328502
-0.003542 -0.035286 0.328629
-0.003232 -0.034900 0.328936
-0.062283 -0.048597 0.363576
-0.062692 -0.048139 0.364695
-0.066106 -0.049323 0.364798
-0.064210 -0.048900 0.363630
-0.063650 -0.048459 0.363781
-0.063443 -0.048011 0.364283
-0.063146 -0.047564 0.364698
-0.069091 -0.049162 0.366582
-0.067185 -0.048736 0.365416
-0.065286 -0.048315 0.364249
-0.064724 -0.047873 0.364400
-0.064161 -0.047431 0.364551
-0.063953 -0.046980 0.365054
-0.079227 -0.050300 0.373159
-0.076841 -0.049860 0.371563
-0.076260 -0.049404 0.371719
-0.070534 -0.048565 0.367551
-0.068356 -0.048145 0.366123
-0.066096 -0.047733 0.364604
-0.065533 -0.047290 0.364755
-0.085821 -0.051054 0.376890
-0.084501 -0.050593 0.376350
-0.083184 -0.050134 0.375808
-0.080784 -0.049690 0.374214
-0.078753 -0.049248 0.372969
-0.078170 -0.048789 0.373126
-0.088813 -0.050900 0.378570
-0.087486 -0.050436 0.378031
-0.086071 -0.049976 0.377403
-0.084750 -0.049517 0.376862
-0.082707 -0.049070 0.375620
-0.082118 -0.048607 0.375778
-0.092790 -0.051216 0.380435
-0.091453 -0.050748 0.379898
-0.090028 -0.050282 0.379273
-0.088698 -0.049819 0.378734
-0.087371 -0.049358 0.378194
-0.086320 -0.048895 0.377917
-0.084636 -0.048444 0.377025
-0.084043 -0.047978 0.377184
-0.096054 -0.051541 0.381598
-0.095079 -0.051067 0.381411
-0.093644 -0.050597 0.380788
-0.092306 -0.050129 0.380251
-0.090879 -0.049665 0.379626
-0.089913 -0.049198 0.379437
-0.088583 -0.048737 0.378898
-0.087621 -0.048273 0.378708
-0.085842 -0.047825 0.377729
-0.085247 -0.047357 0.377889
-0.097984 -0.051394 0.382223
-0.097377 -0.050916 0.382386
-0.096399 -0.050441 0.382200
-0.094962 -0.049971 0.381577
-0.093528 -0.049505 0.380954
-0.092557 -0.049035 0.380766
-0.091221 -0.048572 0.380228
-0.090163 -0.048107 0.379952
-0.089563 -0.047635 0.380113
-0.099689 -0.051728 0.381901
-0.099455 -0.051248 0.382412
-0.098846 -0.050769 0.382575
-0.098238 -0.050291 0.382739
-0.097630 -0.049812 0.382902
-0.096282 -0.049342 0.382367
-0.094845 -0.048876 0.381743
-0.093412 -0.048413 0.381119
-0.092441 -0.047945 0.380931
-0.091472 -0.047478 0.380743
-0.090870 -0.047004 0.380904
-0.100549 -0.052064 0.380796
-0.100787 -0.051584 0.381741
-0.100928 -0.051102 0.382601
-0.100319 -0.050622 0.382764
-0.100176 -0.050139 0.383363
-0.099101 -0.049664 0.383091
-0.098121 -0.049189 0.382906
-0.096772 -0.048721 0.382370
-0.095333 -0.048257 0.381747
-0.094359 -0.047788 0.381560
-0.093295 -0.047321 0.381285
-0.092692 -0.046846 0.381447
-0.101088 -0.053345 0.377981
-0.100866 -0.052873 0.378489
-0.101493 -0.052398 0.379780
-0.100889 -0.051923 0.379942
-0.101038 -0.051444 0.380799
-0.100901 -0.050964 0.381397
-0.100670 -0.050484 0.381908
-0.100436 -0.050003 0.382419
-0.100668 -0.049515 0.383367
-0.100058 -0.049035 0.383531
-0.098983 -0.048561 0.383258
-0.098374 -0.048082 0.383422
-0.101316 -0.053202 0.377043
-0.101097 -0.052730 0.377551
-0.101351 -0.052257 0.378493
-0.101128 -0.051782 0.379002
-0.100904 -0.051307 0.379511
-0.101149 -0.050826 0.380455
-0.101391 -0.050343 0.381401
-0.101160 -0.049862 0.381912
-0.100927 -0.049380 0.382423
-0.101161 -0.048890 0.383371
-0.101799 -0.052589 0.377047
-0.101581 -0.052116 0.377554
-0.101837 -0.051641 0.378496
-0.101614 -0.051166 0.379005
-0.101390 -0.050689 0.379515
-0.101637 -0.050207 0.380459
-0.101881 -0.049722 0.381404
-0.101274 -0.049245 0.381567
-0.102283 -0.051975 0.377050
-0.102542 -0.051500 0.377992
-0.102703 -0.051023 0.378847
-0.102480 -0.050546 0.379356
-0.102730 -0.050064 0.380300
-0.102977 -0.049579 0.381245
-0.102370 -0.049101 0.381408
-0.101764 -0.048624 0.381571
-0.104394 -0.051354 0.378527
-0.104651 -0.050875 0.379470
-0.104810 -0.050393 0.380326
-0.104680 -0.049912 0.380923
-0.104453 -0.049431 0.381433
-0.103846 -0.048953 0.381596
-0.102860 -0.048480 0.381411
-0.102253 -0.048003 0.381574
-0.106990 -0.050723 0.380438
-0.106766 -0.050243 0.380948
-0.106923 -0.049757 0.381805
-0.106790 -0.049272 0.382403
-0.106180 -0.048792 0.382567
-0.104336 -0.048331 0.381600
-0.103728 -0.047853 0.381763
-0.109977 -0.050080 0.382695
-0.109365 -0.049599 0.382859
-0.109519 -0.049108 0.383718
-0.108905 -0.048625 0.383883
-0.107530 -0.048154 0.383352
-0.106918 -0.047673 0.383516
