ply
format ascii 1.0
element vertex 261
property float x
property float y
property float z
end_header
0.069388 -0.064818 -0.093654
0.067489 -0.065663 -0.097262
0.067109 -0.066144 -0.096796
0.066388 -0.066709 -0.097231
0.067471 -0.063572 -0.101672
0.067298 -0.064008 -0.100635
0.067085 -0.064452 -0.099713
0.067211 -0.064815 -0.097887
0.066831 -0.065296 -0.097421
0.066450 -0.065777 -0.096955
0.065728 -0.066341 -0.097391
0.066964 -0.061555 -0.107483
0.066911 -0.061973 -0.106095
0.066735 -0.062416 -0.105051
0.066349 -0.062903 -0.104579
0.065963 -0.063390 -0.104107
0.065747 -0.063840 -0.103180
0.065702 -0.064249 -0.101801
0.065488 -0.064695 -0.100878
0.065104 -0.065180 -0.100408
0.064378 -0.065746 -0.100842
0.063434 -0.066367 -0.101837
0.067082 -0.059786 -0.110101
0.066693 -0.060277 -0.109625
0.066137 -0.060802 -0.109608
0.066126 -0.061216 -0.108102
0.065906 -0.061671 -0.107170
0.065519 -0.062160 -0.106696
0.065132 -0.062650 -0.106222
0.064575 -0.063176 -0.106202
0.064357 -0.063629 -0.105273
0.064141 -0.064080 -0.104345
0.063754 -0.064568 -0.103871
0.063367 -0.065057 -0.103397
0.062635 -0.065627 -0.103828
0.061297 -0.066341 -0.105836
0.066854 -0.058492 -0.112137
0.066465 -0.058984 -0.111660
0.066243 -0.059444 -0.110723
0.065854 -0.059935 -0.110247
0.065465 -0.060427 -0.109771
0.065455 -0.060842 -0.108264
0.065236 -0.061297 -0.107332
0.064849 -0.061787 -0.106858
0.064292 -0.062312 -0.106839
0.063520 -0.062884 -0.107389
0.063687 -0.063255 -0.105435
0.063471 -0.063707 -0.104506
0.063085 -0.064196 -0.104033
0.062698 -0.064684 -0.103559
0.061965 -0.065253 -0.103990
0.060448 -0.066005 -0.106451
0.066439 -0.056796 -0.116277
0.066254 -0.057255 -0.115218
0.066196 -0.057691 -0.113815
0.065972 -0.058154 -0.112876
0.065582 -0.058647 -0.112398
0.065402 -0.059100 -0.111346
0.065012 -0.059593 -0.110869
0.064623 -0.060085 -0.110392
0.064403 -0.060543 -0.109457
0.064014 -0.061035 -0.108980
0.063795 -0.061492 -0.108047
0.063407 -0.061983 -0.107572
0.062847 -0.062509 -0.107552
0.062630 -0.062964 -0.106620
0.062457 -0.063409 -0.105577
0.062069 -0.063899 -0.105102
0.061465 -0.064437 -0.105193
0.060728 -0.065006 -0.105623
0.059771 -0.065628 -0.106614
0.065357 -0.054740 -0.123950
0.065289 -0.055191 -0.122532
0.065263 -0.055633 -0.121001
0.065240 -0.056072 -0.119472
0.065053 -0.056537 -0.118409
0.064826 -0.057006 -0.117464
0.064809 -0.057438 -0.115942
0.064793 -0.057867 -0.114423
0.064402 -0.058362 -0.113943
0.064179 -0.058826 -0.113004
0.063788 -0.059320 -0.112525
0.063015 -0.059887 -0.113078
0.062622 -0.060383 -0.112598
0.062230 -0.060879 -0.112118
0.060124 -0.061718 -0.116208
0.061274 -0.061905 -0.111613
0.060881 -0.062401 -0.111133
0.060488 -0.062898 -0.110652
0.060096 -0.063394 -0.110171
0.059703 -0.063890 -0.109690
0.059092 -0.064434 -0.109776
0.057955 -0.065096 -0.111218
0.056946 -0.065734 -0.112316
0.066058 -0.052371 -0.126653
0.065659 -0.052875 -0.126164
0.065095 -0.053402 -0.126143
0.064861 -0.053883 -0.125187
0.064462 -0.054387 -0.124699
0.064436 -0.054834 -0.123163
0.064204 -0.055310 -0.122212
0.064390 -0.055718 -0.120101
0.063995 -0.056218 -0.119617
0.063977 -0.056655 -0.118091
0.063751 -0.057124 -0.117146
0.063736 -0.057556 -0.115625
0.063344 -0.058052 -0.115144
0.062569 -0.058618 -0.115699
0.060685 -0.059389 -0.119239
0.060287 -0.059892 -0.118751
0.059437 -0.061335 -0.116374
0.059039 -0.061837 -0.115887
0.058296 -0.062409 -0.116313
0.057897 -0.062912 -0.115825
0.057281 -0.063461 -0.115906
0.056489 -0.064048 -0.116439
0.055475 -0.064686 -0.117537
0.054282 -0.065366 -0.119083
0.066532 -0.050931 -0.126739
0.065766 -0.051482 -0.127308
0.065203 -0.052008 -0.127288
0.064598 -0.052541 -0.127384
0.063992 -0.053075 -0.127478
0.063798 -0.053552 -0.126404
0.063398 -0.054057 -0.125914
0.062998 -0.054563 -0.125424
0.063183 -0.054978 -0.123307
0.063120 -0.055429 -0.121891
0.062722 -0.055931 -0.121405
0.062325 -0.056433 -0.120918
0.062308 -0.056872 -0.119391
0.061912 -0.057372 -0.118906
0.059996 -0.059005 -0.119405
0.059598 -0.059508 -0.118918
0.068459 -0.048881 -0.124238
0.067739 -0.049415 -0.124699
0.067141 -0.049938 -0.124804
0.066213 -0.050503 -0.125848
0.065611 -0.051030 -0.125949
0.064677 -0.051601 -0.126986
0.064113 -0.052127 -0.126966
0.063714 -0.052632 -0.126476
0.062898 -0.053195 -0.127155
0.062497 -0.053702 -0.126664
0.062097 -0.054208 -0.126173
0.061906 -0.054683 -0.125101
0.061885 -0.055130 -0.123566
0.061486 -0.055634 -0.123078
0.061087 -0.056138 -0.122589
0.069457 -0.047417 -0.122762
0.068904 -0.047927 -0.122757
0.068145 -0.048461 -0.123340
0.067753 -0.048957 -0.122860
0.066991 -0.049496 -0.123439
0.066062 -0.050056 -0.124485
0.065295 -0.050601 -0.125058
0.064526 -0.051149 -0.125628
0.063963 -0.051672 -0.125610
0.063398 -0.052197 -0.125591
0.062205 -0.052809 -0.127322
0.061804 -0.053315 -0.126831
0.061403 -0.053822 -0.126341
0.061003 -0.054328 -0.125850
0.070317 -0.045528 -0.123291
0.069928 -0.046020 -0.122814
0.069538 -0.046512 -0.122337
0.069149 -0.047004 -0.121860
0.068555 -0.047517 -0.121974
0.068165 -0.048010 -0.121497
0.067610 -0.048521 -0.121491
0.067054 -0.049033 -0.121483
0.066125 -0.049590 -0.122533
0.065524 -0.050111 -0.122640
0.064589 -0.050674 -0.123683
0.063274 -0.051289 -0.125776
0.062709 -0.051813 -0.125757
0.070033 -0.044660 -0.123931
0.069806 -0.045139 -0.122978
0.069417 -0.045630 -0.122502
0.069028 -0.046122 -0.122025
0.068639 -0.046613 -0.121549
0.068250 -0.047105 -0.121073
0.067861 -0.047596 -0.120597
0.067307 -0.048105 -0.120592
0.066917 -0.048597 -0.120115
0.066319 -0.049113 -0.120227
0.065762 -0.049625 -0.120219
0.063906 -0.050293 -0.123848
0.070138 -0.043300 -0.125047
0.069911 -0.043781 -0.124093
0.069522 -0.044272 -0.123617
0.069133 -0.044764 -0.123141
0.068908 -0.045242 -0.122189
0.068520 -0.045732 -0.121713
0.067966 -0.046238 -0.121712
0.067577 -0.046730 -0.121235
0.067188 -0.047221 -0.120759
0.066633 -0.047730 -0.120755
0.066243 -0.048222 -0.120278
0.065645 -0.048737 -0.120390
0.065087 -0.049249 -0.120382
0.069854 -0.042433 -0.125687
0.069627 -0.042914 -0.124732
0.069238 -0.043406 -0.124256
0.068849 -0.043897 -0.123779
0.068625 -0.044376 -0.122827
0.068236 -0.044867 -0.122351
0.067848 -0.045358 -0.121876
0.067459 -0.045849 -0.121400
0.067071 -0.046340 -0.120924
0.069570 -0.041565 -0.126326
0.069180 -0.042057 -0.125849
0.068954 -0.042539 -0.124894
0.068565 -0.043031 -0.124418
0.068176 -0.043522 -0.123942
0.067953 -0.044002 -0.122989
0.067564 -0.044493 -0.122514
0.067176 -0.044983 -0.122038
0.066787 -0.045474 -0.121562
0.066399 -0.045965 -0.121087
0.069285 -0.040697 -0.126966
0.068896 -0.041190 -0.126489
0.068506 -0.041682 -0.126012
0.068117 -0.042174 -0.125535
0.067892 -0.042656 -0.124581
0.067504 -0.043147 -0.124104
0.067115 -0.043639 -0.123628
0.066892 -0.044118 -0.122676
0.066504 -0.044609 -0.122200
0.066115 -0.045100 -0.121725
0.065727 -0.045591 -0.121249
0.069001 -0.039830 -0.127606
0.068612 -0.040322 -0.127129
0.068222 -0.040814 -0.126652
0.067833 -0.041306 -0.126175
0.067443 -0.041798 -0.125698
0.067220 -0.042281 -0.124743
0.066831 -0.042772 -0.124267
0.066442 -0.043264 -0.123791
0.066220 -0.043744 -0.122838
0.065832 -0.044234 -0.122363
0.068717 -0.038962 -0.128245
0.068327 -0.039454 -0.127768
0.067732 -0.039955 -0.127892
0.068043 -0.038587 -0.128408
0.067654 -0.039079 -0.127931
0.067057 -0.039579 -0.128055
-0.062640 -0.044350 -0.474726
-0.062706 -0.045276 -0.471885
-0.063460 -0.046229 -0.470962
-0.064214 -0.047182 -0.470039
-0.064968 -0.048134 -0.469116
-0.066419 -0.049125 -0.470098
-0.067175 -0.050081 -0.469172
-0.063948 -0.043621 -0.475042
-0.064010 -0.044550 -0.472200
-0.064764 -0.045502 -0.471277
-0.065518 -0.046455 -0.470354
-0.066272 -0.047408 -0.469431
-0.067727 -0.048397 -0.470414
-0.068483 -0.049352 -0.469488
