ply
format ascii 1.0
element vertex 2284
property float x
property float y
property float z
end_header
-0.012747 0.026204 0.136800
-0.012335 0.026070 0.136100
-0.011953 0.025994 0.135700
-0.011607 0.025994 0.135700
-0.012747 0.026554 0.136800
-0.012317 0.026379 0.135900
-0.011953 0.026340 0.135700
-0.011581 0.026282 0.135400
-0.011236 0.026282 0.135400
-0.010883 0.026263 0.135300
-0.010538 0.026263 0.135300
-0.012317 0.026726 0.135900
-0.011961 0.026707 0.135800
-0.011581 0.026628 0.135400
-0.011236 0.026628 0.135400
-0.010883 0.026608 0.135300
-0.010538 0.026608 0.135300
-0.010185 0.026589 0.135200
-0.009841 0.026589 0.135200
-0.012344 0.027133 0.136200
-0.011970 0.027074 0.135900
-0.011607 0.027034 0.135700
-0.011244 0.026994 0.135500
-0.010883 0.026954 0.135300
-0.010538 0.026954 0.135300
-0.010185 0.026934 0.135200
-0.009841 0.026934 0.135200
-0.012344 0.027481 0.136200
-0.011979 0.027441 0.136000
-0.011615 0.027401 0.135800
-0.011253 0.027360 0.135600
-0.010883 0.027300 0.135300
-0.010538 0.027300 0.135300
-0.010193 0.027300 0.135300
-0.009848 0.027300 0.135300
-0.012756 0.027972 0.136900
-0.012362 0.027870 0.136400
-0.012006 0.027850 0.136300
-0.011624 0.027768 0.135900
-0.011244 0.027686 0.135500
-0.010883 0.027645 0.135300
-0.010538 0.027645 0.135300
-0.010193 0.027645 0.135300
-0.012756 0.028322 0.136900
-0.012380 0.028260 0.136600
-0.012014 0.028219 0.136400
-0.011624 0.028115 0.135900
-0.011244 0.028033 0.135500
-0.010875 0.027971 0.135200
-0.010507 0.027908 0.134900
-0.010163 0.027908 0.134900
-0.012784 0.028735 0.137200
-0.012407 0.028672 0.136900
-0.012032 0.028609 0.136600
-0.011641 0.028504 0.136100
-0.011244 0.028379 0.135500
-0.010875 0.028316 0.135200
-0.010499 0.028232 0.134800
-0.010155 0.028232 0.134800
-0.012850 0.029234 0.137900
-0.012407 0.029022 0.136900
-0.012041 0.028979 0.136700
-0.011650 0.028873 0.136200
-0.011244 0.028725 0.135500
-0.010867 0.028640 0.135100
-0.010491 0.028555 0.134700
-0.010103 0.028428 0.134100
-0.009761 0.028428 0.134100
-0.012905 0.029715 0.138500
-0.012425 0.029415 0.137100
-0.012050 0.029350 0.136800
-0.011658 0.029243 0.136300
-0.011244 0.029071 0.135500
-0.010851 0.028943 0.134900
-0.010476 0.028857 0.134500
-0.010095 0.028749 0.134000
-0.009732 0.028685 0.133700
-0.009363 0.028599 0.133300
-0.009023 0.028599 0.133300
-0.012831 0.029895 0.137700
-0.012480 0.029895 0.137700
-0.012050 0.029700 0.136800
-0.011658 0.029591 0.136300
-0.011236 0.029396 0.135400
-0.010843 0.029265 0.134800
-0.010468 0.029179 0.134400
-0.010095 0.029092 0.134000
-0.009724 0.029005 0.133600
-0.009356 0.028918 0.133200
-0.008989 0.028831 0.132800
-0.008605 0.028679 0.132100
-0.008268 0.028679 0.132100
-0.012822 0.030225 0.137600
-0.012416 0.030093 0.137000
-0.012032 0.030005 0.136600
-0.011650 0.029917 0.136200
-0.011236 0.029742 0.135400
-0.010843 0.029610 0.134800
-0.010468 0.029522 0.134400
-0.010087 0.029412 0.133900
-0.009717 0.029324 0.133500
-0.009349 0.029237 0.133100
-0.008982 0.029149 0.132700
-0.008605 0.029017 0.132100
-0.008268 0.029017 0.132100
-0.012822 0.030577 0.137600
-0.012398 0.030399 0.136800
-0.012014 0.030310 0.136400
-0.011641 0.030243 0.136100
-0.011236 0.030088 0.135400
-0.010843 0.029954 0.134800
-0.010468 0.029865 0.134400
-0.010080 0.029732 0.133800
-0.009717 0.029665 0.133500
-0.009349 0.029577 0.133100
-0.008975 0.029466 0.132600
-0.008605 0.029354 0.132100
-0.008243 0.029266 0.131700
-0.007907 0.029266 0.131700
-0.012822 0.030928 0.137600
-0.012389 0.030726 0.136700
-0.012006 0.030636 0.136300
-0.011632 0.030569 0.136000
-0.011236 0.030434 0.135400
-0.010843 0.030299 0.134800
-0.010460 0.030186 0.134300
-0.010080 0.030074 0.133800
-0.009702 0.029962 0.133300
-0.009342 0.029894 0.133000
-0.008975 0.029804 0.132600
-0.008598 0.029669 0.132000
-0.008237 0.029580 0.131600
-0.007883 0.029512 0.131300
-0.007549 0.029512 0.131300
-0.012822 0.031280 0.137600
-0.012389 0.031075 0.136700
-0.012006 0.030984 0.136300
-0.011632 0.030916 0.136000
-0.011236 0.030780 0.135400
-0.010843 0.030643 0.134800
-0.010452 0.030507 0.134200
-0.010080 0.030416 0.133800
-0.009702 0.030302 0.133300
-0.009327 0.030189 0.132800
-0.008969 0.030120 0.132500
-0.008598 0.030007 0.132000
-0.008237 0.029916 0.131600
-0.007877 0.029825 0.131200
-0.007543 0.029825 0.131200
-0.012850 0.031700 0.137900
-0.012371 0.031378 0.136500
-0.011988 0.031287 0.136100
-0.011615 0.031218 0.135800
-0.011236 0.031126 0.135400
-0.010843 0.030988 0.134800
-0.010452 0.030850 0.134200
-0.010080 0.030758 0.133800
-0.009702 0.030643 0.133300
-0.009327 0.030528 0.132800
-0.008962 0.030436 0.132400
-0.008598 0.030344 0.132000
-0.008243 0.030275 0.131700
-0.007877 0.030160 0.131200
-0.007531 0.030114 0.131000
-0.007192 0.030091 0.130900
-0.006858 0.030091 0.130900
-0.012850 0.032053 0.137900
-0.012353 0.031681 0.136300
-0.011970 0.031588 0.135900
-0.011615 0.031565 0.135800
-0.011228 0.031448 0.135300
-0.010843 0.031332 0.134800
-0.010468 0.031239 0.134400
-0.010087 0.031123 0.133900
-0.009710 0.031007 0.133400
-0.009342 0.030914 0.133000
-0.008962 0.030774 0.132400
-0.008598 0.030681 0.132000
-0.008243 0.030612 0.131700
-0.007883 0.030519 0.131300
-0.007531 0.030449 0.131000
-0.007192 0.030426 0.130900
-0.006853 0.030402 0.130800
-0.006520 0.030402 0.130800
-0.012840 0.032382 0.137800
-0.012326 0.031959 0.136000
-0.011953 0.031888 0.135700
-0.011590 0.031841 0.135500
-0.011219 0.031771 0.135200
-0.010843 0.031677 0.134800
-0.010468 0.031583 0.134400
-0.010087 0.031465 0.133900
-0.009717 0.031371 0.133500
-0.009342 0.031254 0.133000
-0.008975 0.031160 0.132600
-0.008598 0.031019 0.132000
-0.008243 0.030948 0.131700
-0.007883 0.030854 0.131300
-0.007531 0.030784 0.131000
-0.007192 0.030760 0.130900
-0.006853 0.030737 0.130800
-0.006515 0.030713 0.130700
-0.006181 0.030713 0.130700
-0.012840 0.032734 0.137800
-0.012326 0.032306 0.136000
-0.011953 0.032235 0.135700
-0.011581 0.032164 0.135400
-0.011211 0.032092 0.135100
-0.010843 0.032021 0.134800
-0.010468 0.031926 0.134400
-0.010095 0.031831 0.134000
-0.009717 0.031712 0.133500
-0.009349 0.031617 0.133100
-0.008975 0.031498 0.132600
-0.008611 0.031403 0.132200
-0.008243 0.031285 0.131700
-0.007883 0.031190 0.131300
-0.007531 0.031118 0.131000
-0.007192 0.031095 0.130900
-0.006853 0.031071 0.130800
-0.006515 0.031047 0.130700
-0.006181 0.031047 0.130700
-0.013027 0.033566 0.139800
-0.012308 0.032606 0.135800
-0.011917 0.032485 0.135300
-0.011573 0.032485 0.135300
-0.011194 0.032389 0.134900
-0.010818 0.032293 0.134500
-0.010460 0.032245 0.134300
-0.010087 0.032149 0.133900
-0.009717 0.032053 0.133500
-0.009349 0.031957 0.133100
-0.008982 0.031861 0.132700
-0.008611 0.031741 0.132200
-0.008249 0.031645 0.131800
-0.007883 0.031525 0.131300
-0.007537 0.031477 0.131100
-0.007197 0.031453 0.131000
-0.006858 0.031429 0.130900
-0.006515 0.031381 0.130700
-0.006177 0.031357 0.130600
-0.005844 0.031357 0.130600
-0.012308 0.032953 0.135800
-0.011909 0.032807 0.135200
-0.011555 0.032783 0.135100
-0.011186 0.032710 0.134800
-0.010810 0.032613 0.134400
-0.010452 0.032564 0.134200
-0.010087 0.032491 0.133900
-0.009717 0.032394 0.133500
-0.009349 0.032297 0.133100
-0.008982 0.032200 0.132700
-0.008611 0.032079 0.132200
-0.008249 0.031982 0.131800
-0.007895 0.031909 0.131500
-0.007537 0.031812 0.131100
-0.007197 0.031788 0.131000
-0.006853 0.031739 0.130800
-0.006515 0.031715 0.130700
-0.006177 0.031691 0.130600
-0.005844 0.031691 0.130600
-0.005511 0.031691 0.130600
-0.011891 0.033103 0.135000
-0.011530 0.033054 0.134800
-0.011170 0.033005 0.134600
-0.010810 0.032956 0.134400
-0.010444 0.032883 0.134100
-0.010080 0.032809 0.133800
-0.009717 0.032736 0.133500
-0.009349 0.032637 0.133100
-0.008982 0.032539 0.132700
-0.008618 0.032441 0.132300
-0.008256 0.032343 0.131900
-0.007895 0.032245 0.131500
-0.007549 0.032196 0.131300
-0.007197 0.032123 0.131000
-0.006853 0.032073 0.130800
-0.006515 0.032049 0.130700
-0.006177 0.032024 0.130600
-0.005839 0.032000 0.130500
-0.005502 0.031975 0.130400
-0.005170 0.031975 0.130400
-0.011873 0.033399 0.134800
-0.011513 0.033349 0.134600
-0.011153 0.033300 0.134400
-0.010794 0.033250 0.134200
-0.010437 0.033201 0.134000
-0.010072 0.033126 0.133700
-0.009710 0.033052 0.133400
-0.009349 0.032978 0.133100
-0.008989 0.032903 0.132800
-0.008618 0.032779 0.132300
-0.008262 0.032705 0.132000
-0.007901 0.032606 0.131600
-0.007549 0.032532 0.131300
-0.007208 0.032507 0.131200
-0.006863 0.032457 0.131000
-0.006520 0.032408 0.130800
-0.006181 0.032383 0.130700
-0.005839 0.032333 0.130500
-0.005502 0.032309 0.130400
-0.005162 0.032259 0.130200
-0.004830 0.032259 0.130200
-0.011847 0.033668 0.134500
-0.011496 0.033643 0.134400
-0.011145 0.033618 0.134300
-0.010786 0.033568 0.134100
-0.010437 0.033543 0.134000
-0.010065 0.033443 0.133600
-0.009710 0.033393 0.133400
-0.009349 0.033318 0.133100
-0.008989 0.033243 0.132800
-0.008624 0.033142 0.132400
-0.008262 0.033042 0.132000
-0.007907 0.032967 0.131700
-0.007560 0.032917 0.131500
-0.007214 0.032867 0.131300
-0.006863 0.032792 0.131000
-0.006525 0.032767 0.130900
-0.006181 0.032717 0.130700
-0.005844 0.032692 0.130600
-0.005498 0.032617 0.130300
-0.005158 0.032567 0.130100
-0.004819 0.032517 0.129900
-0.004481 0.032467 0.129700
-0.004144 0.032416 0.129500
-0.003808 0.032366 0.129300
-0.003473 0.032316 0.129100
-0.003141 0.032291 0.129000
-0.002812 0.032291 0.129000
-0.002480 0.032241 0.128800
-0.002151 0.032241 0.128800
-0.011838 0.033986 0.134400
-0.011487 0.033961 0.134300
-0.011128 0.033911 0.134100
-0.010778 0.033885 0.134000
-0.010421 0.033835 0.133800
-0.010065 0.033784 0.133600
-0.009702 0.033708 0.133300
-0.009342 0.033632 0.133000
-0.008989 0.033582 0.132800
-0.008624 0.033481 0.132400
-0.008268 0.033405 0.132100
-0.007919 0.033354 0.131900
-0.007566 0.033278 0.131600
-0.007214 0.033203 0.131300
-0.006869 0.033152 0.131100
-0.006525 0.033101 0.130900
-0.006181 0.033051 0.130700
-0.005844 0.033026 0.130600
-0.005498 0.032950 0.130300
-0.005158 0.032899 0.130100
-0.004819 0.032849 0.129900
-0.004481 0.032798 0.129700
-0.004141 0.032722 0.129400
-0.003808 0.032697 0.129300
-0.003473 0.032646 0.129100
-0.003141 0.032621 0.129000
-0.002810 0.032596 0.128900
-0.002480 0.032570 0.128800
-0.002151 0.032570 0.128800
-0.001822 0.032545 0.128700
-0.001494 0.032545 0.128700
-0.011829 0.034304 0.134300
-0.011470 0.034253 0.134100
-0.011120 0.034228 0.134000
-0.010770 0.034202 0.133900
-0.010413 0.034151 0.133700
-0.010057 0.034100 0.133500
-0.009702 0.034049 0.133300
-0.009342 0.033972 0.133000
-0.008989 0.033921 0.132800
-0.008631 0.033845 0.132500
-0.008274 0.033768 0.132200
-0.007925 0.033717 0.132000
-0.007572 0.033640 0.131700
-0.007225 0.033589 0.131500
-0.006879 0.033538 0.131300
-0.006529 0.033461 0.131000
-0.006186 0.033410 0.130800
-0.005844 0.033359 0.130600
-0.005498 0.033283 0.130300
-0.005158 0.033232 0.130100
-0.004823 0.033206 0.130000
-0.004481 0.033129 0.129700
-0.004141 0.033053 0.129400
-0.003808 0.033027 0.129300
-0.003473 0.032976 0.129100
-0.003144 0.032976 0.129100
-0.002810 0.032925 0.128900
-0.002480 0.032899 0.128800
-0.002150 0.032874 0.128700
-0.001820 0.032848 0.128600
-0.001491 0.032823 0.128500
-0.001164 0.032823 0.128500
-0.000836 0.032823 0.128500
-0.011470 0.034596 0.134100
-0.011120 0.034570 0.134000
-0.010762 0.034519 0.133800
-0.010413 0.034493 0.133700
-0.010057 0.034441 0.133500
-0.009702 0.034390 0.133300
-0.009349 0.034338 0.133100
-0.008989 0.034261 0.132800
-0.008631 0.034183 0.132500
-0.008281 0.034132 0.132300
-0.007925 0.034054 0.132000
-0.007577 0.034003 0.131800
-0.007230 0.033951 0.131600
-0.006879 0.033874 0.131300
-0.006534 0.033822 0.131100
-0.006191 0.033770 0.130900
-0.005844 0.033693 0.130600
-0.005498 0.033616 0.130300
-0.005162 0.033590 0.130200
-0.004823 0.033538 0.130000
-0.004481 0.033461 0.129700
-0.004144 0.033409 0.129500
-0.003811 0.033383 0.129400
-0.003476 0.033332 0.129200
-0.003144 0.033306 0.129100
-0.002812 0.033280 0.129000
-0.002480 0.033229 0.128800
-0.002150 0.033203 0.128700
-0.001820 0.033177 0.128600
-0.001491 0.033151 0.128500
-0.001164 0.033151 0.128500
-0.000836 0.033151 0.128500
-0.011470 0.034939 0.134100
-0.011120 0.034912 0.134000
-0.010762 0.034860 0.133800
-0.010413 0.034834 0.133700
-0.010057 0.034782 0.133500
-0.009702 0.034730 0.133300
-0.009349 0.034678 0.133100
-0.008989 0.034600 0.132800
-0.008637 0.034548 0.132600
-0.008287 0.034496 0.132400
-0.007931 0.034417 0.132100
-0.007583 0.034365 0.131900
-0.007236 0.034313 0.131700
-0.006884 0.034235 0.131400
-0.006539 0.034183 0.131200
-0.006196 0.034131 0.131000
-0.005844 0.034027 0.130600
-0.005502 0.033975 0.130400
-0.005162 0.033922 0.130200
-0.004823 0.033870 0.130000
-0.004481 0.033792 0.129700
-0.004144 0.033740 0.129500
-0.003811 0.033714 0.129400
-0.003478 0.033688 0.129300
-0.003144 0.033636 0.129100
-0.002812 0.033610 0.129000
-0.002482 0.033584 0.128900
-0.002151 0.033558 0.128800
-0.001820 0.033506 0.128600
-0.001491 0.033480 0.128500
-0.001164 0.033480 0.128500
-0.000835 0.033453 0.128400
-0.000507 0.033401 0.128200
-0.000181 0.033401 0.128200
-0.011120 0.035255 0.134000
-0.010770 0.035229 0.133900
-0.010413 0.035176 0.133700
-0.010057 0.035123 0.133500
-0.009702 0.035071 0.133300
-0.009356 0.035044 0.133200
-0.008996 0.034965 0.132900
-0.008644 0.034913 0.132700
-0.008293 0.034860 0.132500
-0.007943 0.034808 0.132300
-0.007589 0.034729 0.132000
-0.007241 0.034676 0.131800
-0.006895 0.034623 0.131600
-0.006544 0.034545 0.131300
-0.006196 0.034466 0.131000
-0.005848 0.034387 0.130700
-0.005507 0.034334 0.130500
-0.005162 0.034255 0.130200
-0.004823 0.034203 0.130000
-0.004484 0.034150 0.129800
-0.004150 0.034124 0.129700
-0.003814 0.034071 0.129500
-0.003481 0.034045 0.129400
-0.003144 0.033966 0.129100
-0.002815 0.033966 0.129100
-0.002482 0.033913 0.128900
-0.002151 0.033887 0.128800
-0.001823 0.033887 0.128800
-0.001492 0.033834 0.128600
-0.001164 0.033808 0.128500
-0.000835 0.033782 0.128400
-0.000507 0.033729 0.128200
-0.000181 0.033729 0.128200
0.000146 0.033729 0.128200
-0.011153 0.035704 0.134400
-0.010794 0.035650 0.134200
-0.010437 0.035597 0.134000
-0.010072 0.035518 0.133700
-0.009717 0.035464 0.133500
-0.009356 0.035385 0.133200
-0.009002 0.035332 0.133000
-0.008650 0.035278 0.132800
-0.008299 0.035225 0.132600
-0.007949 0.035172 0.132400
-0.007600 0.035119 0.132200
-0.007252 0.035066 0.132000
-0.006900 0.034986 0.131700
-0.006544 0.034880 0.131300
-0.006200 0.034827 0.131100
-0.005853 0.034747 0.130800
-0.005511 0.034694 0.130600
-0.005166 0.034614 0.130300
-0.004826 0.034561 0.130100
-0.004488 0.034508 0.129900
-0.004150 0.034455 0.129700
-0.003817 0.034428 0.129600
-0.003481 0.034375 0.129400
-0.003149 0.034349 0.129300
-0.002817 0.034322 0.129200
-0.002484 0.034269 0.129000
-0.002153 0.034242 0.128900
-0.001823 0.034216 0.128800
-0.001492 0.034163 0.128600
-0.001164 0.034136 0.128500
-0.000835 0.034110 0.128400
-0.000507 0.034056 0.128200
-0.000181 0.034056 0.128200
0.000146 0.034056 0.128200
0.000472 0.034003 0.128000
0.000799 0.034003 0.128000
-0.011203 0.036208 0.135000
-0.010834 0.036127 0.134700
-0.010460 0.036020 0.134300
-0.010095 0.035940 0.134000
-0.009724 0.035832 0.133600
-0.009377 0.035806 0.133500
-0.009016 0.035725 0.133200
-0.008657 0.035645 0.132900
-0.008306 0.035591 0.132700
-0.007955 0.035537 0.132500
-0.007606 0.035484 0.132300
-0.007252 0.035403 0.132000
-0.006905 0.035350 0.131800
-0.006554 0.035269 0.131500
-0.006205 0.035189 0.131200
-0.005857 0.035108 0.130900
-0.005511 0.035028 0.130600
-0.005170 0.034974 0.130400
-0.004830 0.034920 0.130200
-0.004491 0.034867 0.130000
-0.004157 0.034840 0.129900
-0.003820 0.034786 0.129700
-0.003486 0.034760 0.129600
-0.003151 0.034706 0.129400
-0.002819 0.034679 0.129300
-0.002486 0.034625 0.129100
-0.002153 0.034572 0.128900
-0.001823 0.034545 0.128800
-0.001492 0.034491 0.128600
-0.001165 0.034491 0.128600
-0.000836 0.034465 0.128500
-0.000508 0.034438 0.128400
-0.000181 0.034384 0.128200
0.000146 0.034357 0.128100
0.000472 0.034330 0.128000
0.000799 0.034330 0.128000
0.001126 0.034357 0.128100
0.017943 0.035993 0.134200
0.018380 0.036181 0.134900
0.018724 0.036181 0.134900
-0.010859 0.036553 0.135000
-0.010483 0.036445 0.134600
-0.010118 0.036363 0.134300
-0.009753 0.036282 0.134000
-0.009384 0.036174 0.133600
-0.009023 0.036093 0.133300
-0.008670 0.036038 0.133100
-0.008312 0.035957 0.132800
-0.007967 0.035930 0.132700
-0.007612 0.035849 0.132400
-0.007258 0.035768 0.132100
-0.006911 0.035713 0.131900
-0.006559 0.035632 0.131600
-0.006210 0.035551 0.131300
-0.005862 0.035470 0.131000
-0.005519 0.035416 0.130800
-0.005178 0.035361 0.130600
-0.004834 0.035280 0.130300
-0.004498 0.035253 0.130200
-0.004160 0.035199 0.130000
-0.003823 0.035145 0.129800
-0.003489 0.035118 0.129700
-0.003156 0.035091 0.129600
-0.002821 0.035037 0.129400
-0.002489 0.035009 0.129300
-0.002156 0.034955 0.129100
-0.001825 0.034901 0.128900
-0.001495 0.034874 0.128800
-0.001165 0.034820 0.128600
-0.000836 0.034793 0.128500
-0.000508 0.034766 0.128400
-0.000181 0.034712 0.128200
0.000146 0.034685 0.128100
0.000473 0.034685 0.128100
0.000799 0.034685 0.128100
0.001126 0.034685 0.128100
0.016803 0.036093 0.133300
0.017143 0.036093 0.133300
0.017535 0.036201 0.133700
0.017943 0.036336 0.134200
0.018339 0.036445 0.134600
0.018724 0.036526 0.134900
-0.010883 0.036980 0.135300
-0.010507 0.036870 0.134900
-0.010140 0.036788 0.134600
-0.009775 0.036706 0.134300
-0.009405 0.036597 0.133900
-0.009043 0.036515 0.133600
-0.008676 0.036406 0.133200
-0.008324 0.036351 0.133000
-0.007973 0.036296 0.132800
-0.007623 0.036242 0.132600
-0.007274 0.036187 0.132400
-0.006916 0.036078 0.132000
-0.006564 0.035996 0.131700
-0.006219 0.035941 0.131500
-0.005875 0.035887 0.131300
-0.005528 0.035805 0.131000
-0.005182 0.035723 0.130700
-0.004841 0.035668 0.130500
-0.004502 0.035613 0.130300
-0.004166 0.035586 0.130200
-0.003828 0.035531 0.130000
-0.003494 0.035504 0.129900
-0.003158 0.035449 0.129700
-0.002826 0.035422 0.129600
-0.002491 0.035367 0.129400
-0.002158 0.035313 0.129200
-0.001827 0.035285 0.129100
-0.001496 0.035231 0.128900
-0.001166 0.035203 0.128800
-0.000837 0.035176 0.128700
-0.000508 0.035094 0.128400
-0.000181 0.035039 0.128200
0.000146 0.035012 0.128100
0.000473 0.035012 0.128100
0.000799 0.035012 0.128100
0.001126 0.035012 0.128100
0.001452 0.035012 0.128100
0.001779 0.035012 0.128100
0.002105 0.035012 0.128100
0.002432 0.035012 0.128100
0.002759 0.035012 0.128100
0.003085 0.035012 0.128100
0.015305 0.036105 0.132100
0.015641 0.036105 0.132100
0.016002 0.036160 0.132300
0.016364 0.036214 0.132500
0.016740 0.036296 0.132800
0.017143 0.036433 0.133300
0.017535 0.036542 0.133700
0.017943 0.036679 0.134200
0.018339 0.036788 0.134600
-0.010538 0.037325 0.135300
-0.010155 0.037188 0.134800
-0.009790 0.037105 0.134500
-0.009426 0.037022 0.134200
-0.009057 0.036912 0.133800
-0.008696 0.036829 0.133500
-0.008337 0.036746 0.133200
-0.007985 0.036691 0.133000
-0.007635 0.036636 0.132800
-0.007280 0.036553 0.132500
-0.006926 0.036470 0.132200
-0.006574 0.036388 0.131900
-0.006229 0.036332 0.131700
-0.005879 0.036250 0.131400
-0.005536 0.036194 0.131200
-0.005190 0.036112 0.130900
-0.004849 0.036056 0.130700
-0.004509 0.036001 0.130500
-0.004169 0.035946 0.130300
-0.003831 0.035891 0.130100
-0.003497 0.035863 0.130000
-0.003163 0.035836 0.129900
-0.002826 0.035753 0.129600
-0.002491 0.035698 0.129400
-0.002158 0.035643 0.129200
-0.001827 0.035615 0.129100
-0.001496 0.035560 0.128900
-0.001166 0.035532 0.128800
-0.000837 0.035477 0.128600
-0.000508 0.035422 0.128400
-0.000181 0.035394 0.128300
0.000146 0.035394 0.128300
0.000473 0.035367 0.128200
0.000799 0.035339 0.128100
0.001126 0.035339 0.128100
0.001452 0.035339 0.128100
0.001779 0.035339 0.128100
0.002105 0.035339 0.128100
0.002432 0.035339 0.128100
0.002759 0.035339 0.128100
0.003085 0.035339 0.128100
0.003412 0.035339 0.128100
0.004725 0.035394 0.128300
0.005052 0.035394 0.128300
0.005379 0.035394 0.128300
0.009384 0.035698 0.129400
0.009714 0.035698 0.129400
0.010051 0.035725 0.129500
0.010390 0.035753 0.129600
0.011765 0.035919 0.130200
0.012097 0.035919 0.130200
0.012439 0.035946 0.130300
0.012790 0.036001 0.130500
0.013143 0.036056 0.130700
0.013497 0.036112 0.130900
0.013852 0.036167 0.131100
0.014208 0.036222 0.131300
0.014576 0.036305 0.131600
0.014934 0.036360 0.131800
0.015293 0.036415 0.132000
0.015641 0.036443 0.132100
0.016002 0.036498 0.132300
0.016364 0.036553 0.132500
0.016740 0.036636 0.132800
0.017155 0.036801 0.133400
0.017548 0.036912 0.133800
0.017956 0.037050 0.134300
0.018353 0.037160 0.134700
-0.010569 0.037783 0.135700
-0.010185 0.037643 0.135200
-0.009812 0.037532 0.134800
-0.009440 0.037421 0.134400
-0.009070 0.037309 0.134000
-0.008709 0.037226 0.133700
-0.008356 0.037170 0.133500
-0.007997 0.037086 0.133200
-0.007641 0.037003 0.132900
-0.007291 0.036947 0.132700
-0.006937 0.036864 0.132400
-0.006584 0.036780 0.132100
-0.006233 0.036697 0.131800
-0.005888 0.036641 0.131600
-0.005540 0.036557 0.131300
-0.005198 0.036502 0.131100
-0.004849 0.036390 0.130700
-0.004509 0.036335 0.130500
-0.004169 0.036279 0.130300
-0.003831 0.036223 0.130100
-0.003497 0.036196 0.130000
-0.003163 0.036168 0.129900
-0.002828 0.036112 0.129700
-0.002493 0.036056 0.129500
-0.002161 0.036028 0.129400
-0.001827 0.035945 0.129100
-0.001497 0.035917 0.129000
-0.001167 0.035889 0.128900
-0.000837 0.035806 0.128600
-0.000509 0.035778 0.128500
-0.000181 0.035750 0.128400
0.000146 0.035722 0.128300
0.000473 0.035694 0.128200
0.000800 0.035694 0.128200
0.001127 0.035694 0.128200
0.001452 0.035667 0.128100
0.001779 0.035667 0.128100
0.002105 0.035667 0.128100
0.002432 0.035667 0.128100
0.002759 0.035667 0.128100
0.003085 0.035667 0.128100
0.003412 0.035667 0.128100
0.003741 0.035694 0.128200
0.004068 0.035694 0.128200
0.004395 0.035694 0.128200
0.004722 0.035694 0.128200
0.005052 0.035722 0.128300
0.005379 0.035722 0.128300
0.005711 0.035750 0.128400
0.007365 0.035834 0.128700
0.007693 0.035834 0.128700
0.008027 0.035861 0.128800
0.008355 0.035861 0.128800
0.008704 0.035945 0.129100
0.009040 0.035973 0.129200
0.009377 0.036001 0.129300
0.009714 0.036028 0.129400
0.010051 0.036056 0.129500
0.010390 0.036084 0.129600
0.010737 0.036140 0.129800
0.011067 0.036140 0.129800
0.011416 0.036196 0.130000
0.011756 0.036223 0.130100
0.012097 0.036251 0.130200
0.012439 0.036279 0.130300
0.012790 0.036335 0.130500
0.013143 0.036390 0.130700
0.013497 0.036446 0.130900
0.013852 0.036502 0.131100
0.014208 0.036557 0.131300
0.014576 0.036641 0.131600
0.014934 0.036697 0.131800
0.015293 0.036752 0.132000
0.015641 0.036780 0.132100
0.016002 0.036836 0.132300
0.016377 0.036919 0.132600
0.016752 0.037003 0.132900
0.017155 0.037142 0.133400
0.017561 0.037281 0.133900
0.017969 0.037421 0.134400
-0.010216 0.038101 0.135600
-0.009833 0.037961 0.135100
-0.009454 0.037820 0.134600
-0.009084 0.037708 0.134200
-0.008722 0.037624 0.133900
-0.008362 0.037539 0.133600
-0.008009 0.037483 0.133400
-0.007658 0.037427 0.133200
-0.007302 0.037343 0.132900
-0.006937 0.037202 0.132400
-0.006584 0.037118 0.132100
-0.006233 0.037033 0.131800
-0.005888 0.036977 0.131600
-0.005540 0.036893 0.131300
-0.005198 0.036837 0.131100
-0.004856 0.036781 0.130900
-0.004515 0.036724 0.130700
-0.004176 0.036668 0.130500
-0.003837 0.036612 0.130300
-0.003502 0.036584 0.130200
-0.003166 0.036528 0.130000
-0.002832 0.036500 0.129900
-0.002497 0.036443 0.129700
-0.002163 0.036387 0.129500
-0.001830 0.036331 0.129300
-0.001498 0.036275 0.129100
-0.001168 0.036247 0.129000
-0.000838 0.036191 0.128800
-0.000509 0.036162 0.128700
-0.000181 0.036134 0.128600
0.000147 0.036106 0.128500
0.000473 0.036050 0.128300
0.000801 0.036050 0.128300
0.001128 0.036050 0.128300
0.001453 0.036022 0.128200
0.001780 0.036022 0.128200
0.002107 0.036022 0.128200
0.002434 0.036022 0.128200
0.002759 0.035994 0.128100
0.003085 0.035994 0.128100
0.003414 0.036022 0.128200
0.003741 0.036022 0.128200
0.004068 0.036022 0.128200
0.004395 0.036022 0.128200
0.004722 0.036022 0.128200
0.005048 0.036022 0.128200
0.005379 0.036050 0.128300
0.005706 0.036050 0.128300
0.006038 0.036078 0.128400
0.006371 0.036106 0.128500
0.006703 0.036134 0.128600
0.007031 0.036134 0.128600
0.007365 0.036162 0.128700
0.007693 0.036162 0.128700
0.008027 0.036191 0.128800
0.008355 0.036191 0.128800
0.008697 0.036247 0.129000
0.009040 0.036303 0.129200
0.009377 0.036331 0.129300
0.009714 0.036359 0.129400
0.010051 0.036387 0.129500
0.010398 0.036443 0.129700
0.010737 0.036472 0.129800
0.011067 0.036472 0.129800
0.011416 0.036528 0.130000
0.011756 0.036556 0.130100
0.012097 0.036584 0.130200
0.012448 0.036640 0.130400
0.012800 0.036696 0.130600
0.013143 0.036724 0.130700
0.013497 0.036781 0.130900
0.013852 0.036837 0.131100
0.014208 0.036893 0.131300
0.014587 0.037005 0.131700
0.014934 0.037033 0.131800
0.015293 0.037090 0.132000
0.015653 0.037146 0.132200
0.016014 0.037202 0.132400
0.016389 0.037286 0.132700
0.016765 0.037371 0.133000
0.017168 0.037511 0.133500
0.017574 0.037652 0.134000
-0.010246 0.038561 0.136000
-0.009870 0.038448 0.135600
-0.009454 0.038164 0.134600
-0.009084 0.038051 0.134200
-0.008722 0.037966 0.133900
-0.008362 0.037881 0.133600
-0.008009 0.037824 0.133400
-0.007658 0.037767 0.133200
-0.007302 0.037682 0.132900
-0.006947 0.037597 0.132600
-0.006599 0.037540 0.132400
-0.006243 0.037427 0.132000
-0.005897 0.037370 0.131800
-0.005553 0.037314 0.131600
-0.005206 0.037228 0.131300
-0.004867 0.037200 0.131200
-0.004526 0.037143 0.131000
-0.004182 0.037058 0.130700
-0.003843 0.037002 0.130500
-0.003505 0.036945 0.130300
-0.003171 0.036917 0.130200
-0.002834 0.036860 0.130000
-0.002499 0.036803 0.129800
-0.002165 0.036746 0.129600
-0.001832 0.036690 0.129400
-0.001501 0.036661 0.129300
-0.001169 0.036605 0.129100
-0.000839 0.036576 0.129000
-0.000510 0.036520 0.128800
-0.000181 0.036491 0.128700
0.000147 0.036435 0.128500
0.000474 0.036435 0.128500
0.000801 0.036406 0.128400
0.001128 0.036406 0.128400
0.001453 0.036350 0.128200
0.001780 0.036350 0.128200
0.002107 0.036350 0.128200
0.002434 0.036350 0.128200
0.002761 0.036350 0.128200
0.003088 0.036350 0.128200
0.003414 0.036350 0.128200
0.003741 0.036350 0.128200
0.004068 0.036350 0.128200
0.004395 0.036350 0.128200
0.004722 0.036350 0.128200
0.005048 0.036350 0.128200
0.005379 0.036378 0.128300
0.005706 0.036378 0.128300
0.006038 0.036406 0.128400
0.006371 0.036435 0.128500
0.006698 0.036435 0.128500
0.007031 0.036463 0.128600
0.007365 0.036491 0.128700
0.007699 0.036520 0.128800
0.008027 0.036520 0.128800
0.008368 0.036576 0.129000
0.008697 0.036576 0.129000
0.009040 0.036633 0.129200
0.009384 0.036690 0.129400
0.009714 0.036690 0.129400
0.010051 0.036718 0.129500
0.010398 0.036775 0.129700
0.010737 0.036803 0.129800
0.011076 0.036832 0.129900
0.011416 0.036860 0.130000
0.011756 0.036888 0.130100
0.012107 0.036945 0.130300
0.012458 0.037002 0.130500
0.012810 0.037058 0.130700
0.013163 0.037115 0.130900
0.013507 0.037143 0.131000
0.013873 0.037228 0.131300
0.014219 0.037257 0.131400
0.014587 0.037342 0.131700
0.014945 0.037399 0.131900
0.015305 0.037455 0.132100
0.015665 0.037512 0.132300
0.016026 0.037569 0.132500
0.016401 0.037654 0.132800
0.016790 0.037767 0.133200
0.017181 0.037881 0.133600
0.017587 0.038022 0.134100
-0.009870 0.038794 0.135600
-0.009475 0.038594 0.134900
-0.009097 0.038451 0.134400
-0.008735 0.038365 0.134100
-0.008381 0.038308 0.133900
-0.008021 0.038222 0.133600
-0.007669 0.038165 0.133400
-0.007318 0.038108 0.133200
-0.006958 0.037993 0.132800
-0.006609 0.037936 0.132600
-0.006257 0.037850 0.132300
-0.005906 0.037764 0.132000
-0.005561 0.037707 0.131800
-0.005217 0.037650 0.131600
-0.004871 0.037564 0.131300
-0.004529 0.037507 0.131100
-0.004189 0.037450 0.130900
-0.003849 0.037392 0.130700
-0.003511 0.037335 0.130500
-0.003173 0.037278 0.130300
-0.002836 0.037221 0.130100
-0.002503 0.037192 0.130000
-0.002166 0.037106 0.129700
-0.001834 0.037078 0.129600
-0.001502 0.037020 0.129400
-0.001171 0.036992 0.129300
-0.000840 0.036935 0.129100
-0.000511 0.036906 0.129000
-0.000181 0.036849 0.128800
0.000147 0.036820 0.128700
0.000475 0.036792 0.128600
0.000802 0.036763 0.128500
0.001129 0.036763 0.128500
0.001456 0.036734 0.128400
0.001783 0.036734 0.128400
0.002110 0.036734 0.128400
0.002434 0.036677 0.128200
0.002761 0.036677 0.128200
0.003088 0.036677 0.128200
0.003414 0.036677 0.128200
0.003741 0.036677 0.128200
0.004068 0.036677 0.128200
0.004395 0.036677 0.128200
0.004725 0.036706 0.128300
0.005052 0.036706 0.128300
0.005384 0.036734 0.128400
0.005711 0.036734 0.128400
0.006038 0.036734 0.128400
0.006371 0.036763 0.128500
0.006698 0.036763 0.128500
0.007037 0.036820 0.128700
0.007370 0.036849 0.128800
0.007699 0.036849 0.128800
0.008027 0.036849 0.128800
0.008375 0.036935 0.129100
0.008704 0.036935 0.129100
0.009047 0.036992 0.129300
0.009384 0.037020 0.129400
0.009714 0.037020 0.129400
0.010059 0.037078 0.129600
0.010398 0.037106 0.129700
0.010745 0.037163 0.129900
0.011076 0.037163 0.129900
0.011416 0.037192 0.130000
0.011765 0.037249 0.130200
0.012107 0.037278 0.130300
0.012467 0.037364 0.130600
0.012820 0.037421 0.130800
0.013173 0.037478 0.131000
0.013528 0.037535 0.131200
0.013873 0.037564 0.131300
0.014229 0.037621 0.131500
0.014587 0.037678 0.131700
0.014956 0.037764 0.132000
0.015316 0.037821 0.132200
0.015677 0.037879 0.132400
0.016038 0.037936 0.132600
0.016401 0.037993 0.132800
0.016790 0.038108 0.133200
0.017194 0.038251 0.133700
-0.009489 0.038996 0.135100
-0.009111 0.038852 0.134600
-0.008748 0.038765 0.134300
-0.008387 0.038679 0.134000
-0.008039 0.038650 0.133900
-0.007681 0.038563 0.133600
-0.007324 0.038477 0.133300
-0.006973 0.038419 0.133100
-0.006619 0.038332 0.132800
-0.006266 0.038246 0.132500
-0.005924 0.038217 0.132400
-0.005574 0.038130 0.132100
-0.005229 0.038073 0.131900
-0.004886 0.038015 0.131700
-0.004536 0.037899 0.131300
-0.004195 0.037842 0.131100
-0.003855 0.037784 0.130900
-0.003513 0.037697 0.130600
-0.003178 0.037669 0.130500
-0.002841 0.037611 0.130300
-0.002503 0.037524 0.130000
-0.002170 0.037495 0.129900
-0.001836 0.037438 0.129700
-0.001503 0.037380 0.129500
-0.001172 0.037351 0.129400
-0.000841 0.037322 0.129300
-0.000511 0.037264 0.129100
-0.000182 0.037236 0.129000
0.000147 0.037178 0.128800
0.000475 0.037178 0.128800
0.000803 0.037149 0.128700
0.001129 0.037091 0.128500
0.001457 0.037091 0.128500
0.001784 0.037091 0.128500
0.002112 0.037091 0.128500
0.002434 0.037005 0.128200
0.002761 0.037005 0.128200
0.003090 0.037034 0.128300
0.003420 0.037062 0.128400
0.003744 0.037034 0.128300
0.004068 0.037005 0.128200
0.004395 0.037005 0.128200
0.004725 0.037034 0.128300
0.005056 0.037062 0.128400
0.005384 0.037062 0.128400
0.005711 0.037062 0.128400
0.006043 0.037091 0.128500
0.006371 0.037091 0.128500
0.006703 0.037120 0.128600
0.007042 0.037178 0.128800
0.007370 0.037178 0.128800
0.007699 0.037178 0.128800
0.008040 0.037236 0.129000
0.008375 0.037264 0.129100
0.008711 0.037293 0.129200
0.009047 0.037322 0.129300
0.009384 0.037351 0.129400
0.009721 0.037380 0.129500
0.010067 0.037438 0.129700
0.010398 0.037438 0.129700
0.010753 0.037524 0.130000
0.011084 0.037524 0.130000
0.011433 0.037582 0.130200
0.011774 0.037611 0.130300
0.012125 0.037669 0.130500
0.012477 0.037726 0.130700
0.012820 0.037755 0.130800
0.013183 0.037842 0.131100
0.013538 0.037899 0.131300
0.013894 0.037957 0.131500
0.014251 0.038015 0.131700
0.014609 0.038073 0.131900
0.014968 0.038130 0.132100
0.015328 0.038188 0.132300
0.015689 0.038246 0.132500
0.016063 0.038332 0.132800
0.016426 0.038390 0.133000
0.016815 0.038506 0.133400
0.017220 0.038650 0.133900
-0.009503 0.039400 0.135300
-0.009124 0.039254 0.134800
-0.008755 0.039138 0.134400
-0.008400 0.039079 0.134200
-0.008051 0.039050 0.134100
-0.007687 0.038934 0.133700
-0.007340 0.038905 0.133600
-0.006984 0.038817 0.133300
-0.006634 0.038759 0.133100
-0.006281 0.038672 0.132800
-0.005933 0.038614 0.132600
-0.005587 0.038555 0.132400
-0.005237 0.038468 0.132100
-0.004893 0.038410 0.131900
-0.004550 0.038351 0.131700
-0.004201 0.038235 0.131300
-0.003861 0.038177 0.131100
-0.003521 0.038118 0.130900
-0.003180 0.038031 0.130600
-0.002843 0.037973 0.130400
-0.002507 0.037915 0.130200
-0.002171 0.037856 0.130000
-0.001837 0.037798 0.129800
-0.001505 0.037769 0.129700
-0.001173 0.037711 0.129500
-0.000842 0.037682 0.129400
-0.000512 0.037653 0.129300
-0.000182 0.037594 0.129100
0.000147 0.037565 0.129000
0.000476 0.037536 0.128900
0.000804 0.037507 0.128800
0.001131 0.037478 0.128700
0.001458 0.037449 0.128600
0.001784 0.037420 0.128500
0.002112 0.037420 0.128500
0.002440 0.037420 0.128500
0.002767 0.037420 0.128500
0.003092 0.037390 0.128400
0.003420 0.037390 0.128400
0.003747 0.037390 0.128400
0.004074 0.037390 0.128400
0.004398 0.037361 0.128300
0.004725 0.037361 0.128300
0.005060 0.037420 0.128500
0.005388 0.037420 0.128500
0.005715 0.037420 0.128500
0.006043 0.037420 0.128500
0.006375 0.037449 0.128600
0.006703 0.037449 0.128600
0.007042 0.037507 0.128800
0.007370 0.037507 0.128800
0.007705 0.037536 0.128900
0.008046 0.037594 0.129100
0.008381 0.037623 0.129200
0.008711 0.037623 0.129200
0.009054 0.037682 0.129400
0.009391 0.037711 0.129500
0.009736 0.037769 0.129700
0.010075 0.037798 0.129800
0.010414 0.037827 0.129900
0.010753 0.037856 0.130000
0.011101 0.037915 0.130200
0.011442 0.037944 0.130300
0.011792 0.038002 0.130500
0.012134 0.038031 0.130600
0.012496 0.038118 0.130900
0.012839 0.038148 0.131000
0.013204 0.038235 0.131300
0.013549 0.038264 0.131400
0.013915 0.038351 0.131700
0.014273 0.038410 0.131900
0.014620 0.038439 0.132000
0.014979 0.038497 0.132200
0.015351 0.038584 0.132500
0.015712 0.038643 0.132700
0.016075 0.038701 0.132900
0.016451 0.038788 0.133200
0.016841 0.038905 0.133600
-0.009131 0.039628 0.134900
-0.008768 0.039540 0.134600
-0.008412 0.039481 0.134400
-0.008057 0.039422 0.134200
-0.007704 0.039364 0.134000
-0.007357 0.039334 0.133900
-0.007000 0.039246 0.133600
-0.006644 0.039158 0.133300
-0.006295 0.039099 0.133100
-0.005942 0.039011 0.132800
-0.005595 0.038952 0.132600
-0.005249 0.038894 0.132400
-0.004901 0.038805 0.132100
-0.004557 0.038747 0.131900
-0.004214 0.038688 0.131700
-0.003867 0.038570 0.131300
-0.003524 0.038482 0.131000
-0.003185 0.038424 0.130800
-0.002847 0.038365 0.130600
-0.002509 0.038277 0.130300
-0.002173 0.038218 0.130100
-0.001840 0.038189 0.130000
-0.001506 0.038130 0.129800
-0.001175 0.038100 0.129700
-0.000843 0.038042 0.129500
-0.000512 0.038012 0.129400
-0.000182 0.037983 0.129300
0.000147 0.037924 0.129100
0.000476 0.037924 0.129100
0.000804 0.037865 0.128900
0.001132 0.037836 0.128800
0.001459 0.037807 0.128700
0.001786 0.037777 0.128600
0.002114 0.037777 0.128600
0.002442 0.037777 0.128600
0.002767 0.037748 0.128500
0.003095 0.037748 0.128500
0.003420 0.037719 0.128400
0.003747 0.037719 0.128400
0.004074 0.037719 0.128400
0.004405 0.037748 0.128500
0.004733 0.037748 0.128500
0.005060 0.037748 0.128500
0.005388 0.037748 0.128500
0.005720 0.037777 0.128600
0.006052 0.037807 0.128700
0.006385 0.037836 0.128800
0.006714 0.037836 0.128800
0.007048 0.037865 0.128900
0.007382 0.037895 0.129000
0.007717 0.037924 0.129100
0.008052 0.037954 0.129200
0.008388 0.037983 0.129300
0.008724 0.038012 0.129400
0.009061 0.038042 0.129500
0.009406 0.038100 0.129700
0.009744 0.038130 0.129800
0.010090 0.038189 0.130000
0.010422 0.038189 0.130000
0.010770 0.038247 0.130200
0.011110 0.038277 0.130300
0.011460 0.038335 0.130500
0.011810 0.038394 0.130700
0.012162 0.038453 0.130900
0.012505 0.038482 0.131000
0.012869 0.038570 0.131300
0.013214 0.038600 0.131400
0.013580 0.038688 0.131700
0.013926 0.038717 0.131800
0.014283 0.038776 0.132000
0.014653 0.038864 0.132300
0.015002 0.038894 0.132400
0.015362 0.038952 0.132600
0.015724 0.039011 0.132800
0.016099 0.039099 0.133100
0.016463 0.039158 0.133300
-0.008794 0.040002 0.135000
-0.008437 0.039943 0.134800
-0.008075 0.039854 0.134500
-0.007727 0.039825 0.134400
-0.007362 0.039706 0.134000
-0.007015 0.039676 0.133900
-0.006659 0.039587 0.133600
-0.006309 0.039528 0.133400
-0.005960 0.039469 0.133200
-0.005608 0.039380 0.132900
-0.005261 0.039321 0.132700
-0.004912 0.039232 0.132400
-0.004564 0.039143 0.132100
-0.004221 0.039084 0.131900
-0.003876 0.038995 0.131600
-0.003532 0.038906 0.131300
-0.003190 0.038817 0.131000
-0.002852 0.038758 0.130800
-0.002514 0.038699 0.130600
-0.002176 0.038610 0.130300
-0.001841 0.038550 0.130100
-0.001509 0.038521 0.130000
-0.001175 0.038461 0.129800
-0.000844 0.038432 0.129700
-0.000513 0.038373 0.129500
-0.000182 0.038343 0.129400
0.000148 0.038313 0.129300
0.000477 0.038284 0.129200
0.000805 0.038254 0.129100
0.001134 0.038224 0.129000
0.001460 0.038165 0.128800
0.001789 0.038165 0.128800
0.002115 0.038136 0.128700
0.002443 0.038136 0.128700
0.002769 0.038106 0.128600
0.003097 0.038106 0.128600
0.003422 0.038076 0.128500
0.003750 0.038076 0.128500
0.004077 0.038076 0.128500
0.004405 0.038076 0.128500
0.004736 0.038106 0.128600
0.005064 0.038106 0.128600
0.005396 0.038136 0.128700
0.005729 0.038165 0.128800
0.006057 0.038165 0.128800
0.006390 0.038195 0.128900
0.006724 0.038224 0.129000
0.007058 0.038254 0.129100
0.007388 0.038254 0.129100
0.007723 0.038284 0.129200
0.008064 0.038343 0.129400
0.008394 0.038343 0.129400
0.008738 0.038402 0.129600
0.009075 0.038432 0.129700
0.009413 0.038461 0.129800
0.009759 0.038521 0.130000
0.010098 0.038550 0.130100
0.010438 0.038580 0.130200
0.010778 0.038610 0.130300
0.011127 0.038669 0.130500
0.011477 0.038728 0.130700
0.011829 0.038787 0.130900
0.012181 0.038847 0.131100
0.012534 0.038906 0.131300
0.012879 0.038936 0.131400
0.013244 0.039024 0.131700
0.013590 0.039054 0.131800
0.013947 0.039113 0.132000
0.014305 0.039173 0.132200
0.014664 0.039232 0.132400
0.015024 0.039291 0.132600
0.015386 0.039350 0.132800
0.015748 0.039410 0.133000
0.016111 0.039469 0.133200
-0.008456 0.040377 0.135100
-0.008093 0.040287 0.134800
-0.007733 0.040198 0.134500
-0.007384 0.040168 0.134400
-0.007026 0.040078 0.134100
-0.006674 0.040018 0.133900
-0.006319 0.039929 0.133600
-0.005969 0.039869 0.133400
-0.005620 0.039809 0.133200
-0.005269 0.039720 0.132900
-0.004919 0.039630 0.132600
-0.004574 0.039570 0.132400
-0.004227 0.039481 0.132100
-0.003881 0.039391 0.131800
-0.003540 0.039331 0.131600
-0.003197 0.039241 0.131300
-0.002856 0.039152 0.131000
-0.002516 0.039062 0.130700
-0.002181 0.039032 0.130600
-0.001844 0.038943 0.130300
-0.001510 0.038883 0.130100
-0.001177 0.038853 0.130000
-0.000845 0.038793 0.129800
-0.000513 0.038763 0.129700
-0.000183 0.038733 0.129600
0.000148 0.038674 0.129400
0.000477 0.038644 0.129300
0.000806 0.038614 0.129200
0.001135 0.038584 0.129100
0.001463 0.038554 0.129000
0.001789 0.038494 0.128800
0.002117 0.038494 0.128800
0.002445 0.038494 0.128800
0.002774 0.038494 0.128800
0.003102 0.038494 0.128800
0.003428 0.038464 0.128700
0.003756 0.038464 0.128700
0.004084 0.038464 0.128700
0.004412 0.038464 0.128700
0.004740 0.038464 0.128700
0.005072 0.038494 0.128800
0.005400 0.038494 0.128800
0.005733 0.038524 0.128900
0.006066 0.038554 0.129000
0.006400 0.038584 0.129100
0.006729 0.038584 0.129100
0.007064 0.038614 0.129200
0.007399 0.038644 0.129300
0.007735 0.038674 0.129400
0.008071 0.038703 0.129500
0.008414 0.038763 0.129700
0.008744 0.038763 0.129700
0.009082 0.038793 0.129800
0.009427 0.038853 0.130000
0.009766 0.038883 0.130100
0.010114 0.038943 0.130300
0.010454 0.038972 0.130400
0.010803 0.039032 0.130600
0.011144 0.039062 0.130700
0.011504 0.039152 0.131000
0.011847 0.039182 0.131100
0.012199 0.039241 0.131300
0.012553 0.039301 0.131500
0.012908 0.039361 0.131700
0.013254 0.039391 0.131800
0.013610 0.039451 0.132000
0.013968 0.039510 0.132200
0.014327 0.039570 0.132400
0.014686 0.039630 0.132600
0.015047 0.039690 0.132800
0.015409 0.039750 0.133000
0.015772 0.039809 0.133200
0.016147 0.039899 0.133500
-0.008462 0.040752 0.135200
-0.008105 0.040692 0.135000
-0.007750 0.040632 0.134800
-0.007390 0.040541 0.134500
-0.007042 0.040511 0.134400
-0.006684 0.040421 0.134100
-0.006333 0.040361 0.133900
-0.005978 0.040270 0.133600
-0.005629 0.040210 0.133400
-0.005281 0.040150 0.133200
-0.004930 0.040059 0.132900
-0.004581 0.039969 0.132600
-0.004237 0.039908 0.132400
-0.003887 0.039788 0.132000
-0.003545 0.039728 0.131800
-0.003202 0.039637 0.131500
-0.002863 0.039577 0.131300
-0.002522 0.039487 0.131000
-0.002183 0.039396 0.130700
-0.001849 0.039366 0.130600
-0.001512 0.039276 0.130300
-0.001179 0.039245 0.130200
-0.000846 0.039185 0.130000
-0.000514 0.039125 0.129800
-0.000183 0.039095 0.129700
0.000148 0.039065 0.129600
0.000477 0.039004 0.129400
0.000807 0.038974 0.129300
0.001135 0.038944 0.129200
0.001464 0.038914 0.129100
0.001791 0.038884 0.129000
0.002119 0.038854 0.128900
0.002447 0.038854 0.128900
0.002776 0.038854 0.128900
0.003102 0.038823 0.128800
0.003430 0.038823 0.128800
0.003759 0.038823 0.128800
0.004087 0.038823 0.128800
0.004415 0.038823 0.128800
0.004747 0.038854 0.128900
0.005076 0.038854 0.128900
0.005409 0.038884 0.129000
0.005742 0.038914 0.129100
0.006071 0.038914 0.129100
0.006405 0.038944 0.129200
0.006740 0.038974 0.129300
0.007075 0.039004 0.129400
0.007410 0.039034 0.129500
0.007747 0.039065 0.129600
0.008083 0.039095 0.129700
0.008420 0.039125 0.129800
0.008758 0.039155 0.129900
0.009096 0.039185 0.130000
0.009442 0.039245 0.130200
0.009781 0.039276 0.130300
0.010121 0.039306 0.130400
0.010470 0.039366 0.130600
0.010819 0.039426 0.130800
0.011170 0.039487 0.131000
0.011521 0.039547 0.131200
0.011874 0.039607 0.131400
0.012227 0.039667 0.131600
0.012572 0.039698 0.131700
0.012928 0.039758 0.131900
0.013274 0.039788 0.132000
0.013641 0.039878 0.132300
0.014000 0.039939 0.132500
0.014359 0.039999 0.132700
0.014709 0.040029 0.132800
0.015070 0.040089 0.133000
0.015432 0.040150 0.133200
0.015795 0.040210 0.133400
-0.008117 0.041098 0.135200
-0.007756 0.041007 0.134900
-0.007401 0.040946 0.134700
-0.007052 0.040916 0.134600
-0.006699 0.040855 0.134400
-0.006342 0.040764 0.134100
-0.005991 0.040703 0.133900
-0.005637 0.040612 0.133600
-0.005289 0.040551 0.133400
-0.004941 0.040490 0.133200
-0.004588 0.040368 0.132800
-0.004243 0.040308 0.132600
-0.003896 0.040216 0.132300
-0.003551 0.040125 0.132000
-0.003209 0.040064 0.131800
-0.002869 0.040004 0.131600
-0.002528 0.039912 0.131300
-0.002188 0.039821 0.131000
-0.001851 0.039760 0.130800
-0.001516 0.039700 0.130600
-0.001181 0.039639 0.130400
-0.000847 0.039578 0.130200
-0.000514 0.039517 0.130000
-0.000183 0.039487 0.129900
0.000148 0.039426 0.129700
0.000478 0.039396 0.129600
0.000807 0.039335 0.129400
0.001137 0.039335 0.129400
0.001466 0.039304 0.129300
0.001793 0.039244 0.129100
0.002122 0.039244 0.129100
0.002451 0.039244 0.129100
0.002778 0.039213 0.129000
0.003107 0.039213 0.129000
0.003436 0.039213 0.129000
0.003765 0.039213 0.129000
0.004093 0.039213 0.129000
0.004422 0.039213 0.129000
0.004755 0.039244 0.129100
0.005084 0.039244 0.129100
0.005413 0.039244 0.129100
0.005746 0.039274 0.129200
0.006081 0.039304 0.129300
0.006415 0.039335 0.129400
0.006750 0.039365 0.129500
0.007086 0.039396 0.129600
0.007422 0.039426 0.129700
0.007753 0.039426 0.129700
0.008096 0.039487 0.129900
0.008433 0.039517 0.130000
0.008771 0.039548 0.130100
0.009117 0.039608 0.130300
0.009456 0.039639 0.130400
0.009804 0.039700 0.130600
0.010145 0.039730 0.130700
0.010494 0.039791 0.130900
0.010836 0.039821 0.131000
0.011195 0.039912 0.131300
0.011539 0.039943 0.131400
0.011901 0.040034 0.131700
0.012246 0.040064 0.131800
0.012601 0.040125 0.132000
0.012957 0.040186 0.132200
0.013314 0.040247 0.132400
0.013652 0.040247 0.132400
0.014031 0.040368 0.132800
0.014370 0.040368 0.132800
0.014742 0.040460 0.133100
0.015092 0.040490 0.133200
0.015455 0.040551 0.133400
-0.007767 0.041413 0.135100
-0.007406 0.041321 0.134800
-0.007057 0.041290 0.134700
-0.006704 0.041229 0.134500
-0.006356 0.041198 0.134400
-0.006000 0.041106 0.134100
-0.005650 0.041045 0.133900
-0.005297 0.040953 0.133600
-0.004949 0.040892 0.133400
-0.004602 0.040830 0.133200
-0.004249 0.040708 0.132800
-0.003905 0.040646 0.132600
-0.003559 0.040554 0.132300
-0.003214 0.040462 0.132000
-0.002874 0.040401 0.131800
-0.002534 0.040340 0.131600
-0.002193 0.040248 0.131300
-0.001856 0.040187 0.131100
-0.001519 0.040125 0.130900
-0.001183 0.040033 0.130600
-0.000848 0.039972 0.130400
-0.000516 0.039941 0.130300
-0.000183 0.039880 0.130100
0.000148 0.039819 0.129900
0.000479 0.039788 0.129800
0.000809 0.039757 0.129700
0.001138 0.039696 0.129500
0.001467 0.039666 0.129400
0.001796 0.039635 0.129300
0.002124 0.039604 0.129200
0.002453 0.039604 0.129200
0.002782 0.039604 0.129200
0.003109 0.039574 0.129100
0.003438 0.039574 0.129100
0.003767 0.039574 0.129100
0.004097 0.039574 0.129100
0.004426 0.039574 0.129100
0.004758 0.039604 0.129200
0.005088 0.039604 0.129200
0.005421 0.039635 0.129300
0.005755 0.039666 0.129400
0.006085 0.039666 0.129400
0.006425 0.039727 0.129600
0.006761 0.039757 0.129700
0.007091 0.039757 0.129700
0.007433 0.039819 0.129900
0.007770 0.039849 0.130000
0.008108 0.039880 0.130100
0.008446 0.039911 0.130200
0.008785 0.039941 0.130300
0.009131 0.040003 0.130500
0.009471 0.040033 0.130600
0.009819 0.040095 0.130800
0.010168 0.040156 0.131000
0.010510 0.040187 0.131100
0.010861 0.040248 0.131300
0.011212 0.040309 0.131500
0.011565 0.040371 0.131700
0.011919 0.040432 0.131900
0.012274 0.040493 0.132100
0.012630 0.040554 0.132300
0.012977 0.040585 0.132400
0.013334 0.040646 0.132600
0.013693 0.040708 0.132800
0.014042 0.040738 0.132900
0.014402 0.040800 0.133100
0.014753 0.040830 0.133200
0.015115 0.040892 0.133400
-0.007412 0.041696 0.134900
-0.007063 0.041665 0.134800
-0.006714 0.041634 0.134700
-0.006361 0.041573 0.134500
-0.006009 0.041511 0.134300
-0.005654 0.041418 0.134000
-0.005309 0.041387 0.133900
-0.004956 0.041294 0.133600
-0.004609 0.041233 0.133400
-0.004262 0.041171 0.133200
-0.003914 0.041078 0.132900
-0.003567 0.040985 0.132600
-0.003224 0.040923 0.132400
-0.002880 0.040831 0.132100
-0.002539 0.040769 0.131900
-0.002200 0.040707 0.131700
-0.001860 0.040614 0.131400
-0.001523 0.040553 0.131200
-0.001186 0.040491 0.131000
-0.000850 0.040398 0.130700
-0.000517 0.040367 0.130600
-0.000184 0.040274 0.130300
0.000149 0.040243 0.130200
0.000480 0.040182 0.130000
0.000810 0.040151 0.129900
0.001140 0.040089 0.129700
0.001469 0.040058 0.129600
0.001798 0.040027 0.129500
0.002127 0.039996 0.129400
0.002457 0.039996 0.129400
0.002787 0.039996 0.129400
0.003116 0.039996 0.129400
0.003444 0.039965 0.129300
0.003773 0.039965 0.129300
0.004103 0.039965 0.129300
0.004436 0.039996 0.129400
0.004766 0.039996 0.129400
0.005096 0.039996 0.129400
0.005430 0.040027 0.129500
0.005760 0.040027 0.129500
0.006099 0.040089 0.129700
0.006430 0.040089 0.129700
0.006766 0.040120 0.129800
0.007108 0.040182 0.130000
0.007445 0.040213 0.130100
0.007782 0.040243 0.130200
0.008121 0.040274 0.130300
0.008459 0.040305 0.130400
0.008805 0.040367 0.130600
0.009138 0.040367 0.130600
0.009485 0.040429 0.130800
0.009834 0.040491 0.131000
0.010183 0.040553 0.131200
0.010526 0.040583 0.131300
0.010877 0.040645 0.131500
0.011229 0.040707 0.131700
0.011591 0.040800 0.132000
0.011937 0.040831 0.132100
0.012292 0.040893 0.132300
0.012639 0.040923 0.132400
0.012996 0.040985 0.132600
0.013354 0.041047 0.132800
0.013703 0.041078 0.132900
0.014063 0.041140 0.133100
0.014413 0.041171 0.133200
0.014764 0.041202 0.133300
-0.007068 0.042041 0.134900
-0.006719 0.042010 0.134800
-0.006366 0.041947 0.134600
-0.006014 0.041885 0.134400
-0.005667 0.041854 0.134300
-0.005313 0.041760 0.134000
-0.004967 0.041729 0.133900
-0.004616 0.041636 0.133600
-0.004269 0.041573 0.133400
-0.003923 0.041511 0.133200
-0.003575 0.041418 0.132900
-0.003234 0.041386 0.132800
-0.002889 0.041293 0.132500
-0.002547 0.041231 0.132300
-0.002205 0.041137 0.132000
-0.001864 0.041044 0.131700
-0.001526 0.040981 0.131500
-0.001189 0.040919 0.131300
-0.000852 0.040825 0.131000
-0.000518 0.040794 0.130900
-0.000184 0.040701 0.130600
0.000149 0.040670 0.130500
0.000481 0.040607 0.130300
0.000812 0.040576 0.130200
0.001143 0.040514 0.130000
0.001473 0.040483 0.129900
0.001801 0.040420 0.129700
0.002132 0.040420 0.129700
0.002462 0.040420 0.129700
0.002791 0.040389 0.129600
0.003119 0.040358 0.129500
0.003449 0.040358 0.129500
0.003779 0.040358 0.129500
0.004109 0.040358 0.129500
0.004439 0.040358 0.129500
0.004773 0.040389 0.129600
0.005104 0.040389 0.129600
0.005438 0.040420 0.129700
0.005769 0.040420 0.129700
0.006104 0.040451 0.129800
0.006440 0.040483 0.129900
0.006776 0.040514 0.130000
0.007119 0.040576 0.130200
0.007456 0.040607 0.130300
0.007794 0.040638 0.130400
0.008133 0.040670 0.130500
0.008472 0.040701 0.130600
0.008819 0.040763 0.130800
0.009159 0.040794 0.130900
0.009500 0.040825 0.131000
0.009856 0.040919 0.131300
0.010199 0.040950 0.131400
0.010550 0.041012 0.131600
0.010894 0.041044 0.131700
0.011255 0.041137 0.132000
0.011609 0.041199 0.132200
0.011955 0.041231 0.132300
0.012311 0.041293 0.132500
0.012658 0.041324 0.132600
0.013016 0.041386 0.132800
0.013364 0.041418 0.132900
0.013724 0.041480 0.133100
0.014074 0.041511 0.133200
0.014413 0.041511 0.133200
-0.006719 0.042354 0.134800
-0.006371 0.042323 0.134700
-0.006018 0.042260 0.134500
-0.005671 0.042228 0.134400
-0.005321 0.042166 0.134200
-0.004975 0.042134 0.134100
-0.004626 0.042071 0.133900
-0.004278 0.042008 0.133700
-0.003932 0.041946 0.133500
-0.003583 0.041851 0.133200
-0.003239 0.041789 0.133000
-0.002895 0.041726 0.132800
-0.002553 0.041663 0.132600
-0.002212 0.041600 0.132400
-0.001870 0.041506 0.132100
-0.001531 0.041443 0.131900
-0.001193 0.041380 0.131700
-0.000855 0.041286 0.131400
-0.000519 0.041223 0.131200
-0.000184 0.041160 0.131000
0.000149 0.041097 0.130800
0.000482 0.041034 0.130600
0.000814 0.040972 0.130400
0.001145 0.040940 0.130300
0.001476 0.040909 0.130200
0.001805 0.040846 0.130000
0.002135 0.040815 0.129900
0.002466 0.040815 0.129900
0.002795 0.040783 0.129800
0.003126 0.040783 0.129800
0.003454 0.040752 0.129700
0.003785 0.040752 0.129700
0.004116 0.040752 0.129700
0.004446 0.040752 0.129700
0.004781 0.040783 0.129800
0.005111 0.040783 0.129800
0.005446 0.040815 0.129900
0.005782 0.040846 0.130000
0.006113 0.040846 0.130000
0.006455 0.040909 0.130200
0.006792 0.040940 0.130300
0.007124 0.040940 0.130300
0.007468 0.041003 0.130500
0.007806 0.041034 0.130600
0.008145 0.041066 0.130700
0.008492 0.041129 0.130900
0.008832 0.041160 0.131000
0.009180 0.041223 0.131200
0.009522 0.041254 0.131300
0.009871 0.041317 0.131500
0.010222 0.041380 0.131700
0.010566 0.041412 0.131800
0.010918 0.041474 0.132000
0.011264 0.041506 0.132100
0.011627 0.041600 0.132400
0.011973 0.041631 0.132500
0.012320 0.041663 0.132600
0.012677 0.041726 0.132800
0.013026 0.041757 0.132900
0.013375 0.041789 0.133000
0.013714 0.041789 0.133000
0.014074 0.041851 0.133200
-0.006375 0.042699 0.134800
-0.006023 0.042635 0.134600
-0.005675 0.042604 0.134500
-0.005328 0.042572 0.134400
-0.004982 0.042540 0.134300
-0.004633 0.042477 0.134100
-0.004285 0.042413 0.133900
-0.003937 0.042350 0.133700
-0.003594 0.042318 0.133600
-0.003248 0.042255 0.133400
-0.002904 0.042192 0.133200
-0.002561 0.042128 0.133000
-0.002218 0.042065 0.132800
-0.001874 0.041938 0.132400
-0.001535 0.041907 0.132300
-0.001195 0.041812 0.132000
-0.000858 0.041748 0.131800
-0.000521 0.041685 0.131600
-0.000185 0.041590 0.131300
0.000150 0.041527 0.131100
0.000483 0.041495 0.131000
0.000816 0.041432 0.130800
0.001148 0.041368 0.130600
0.001480 0.041336 0.130500
0.001809 0.041273 0.130300
0.002142 0.041273 0.130300
0.002474 0.041273 0.130300
0.002804 0.041241 0.130200
0.003133 0.041210 0.130100
0.003462 0.041178 0.130000
0.003794 0.041178 0.130000
0.004125 0.041178 0.130000
0.004456 0.041178 0.130000
0.004788 0.041178 0.130000
0.005119 0.041178 0.130000
0.005455 0.041210 0.130100
0.005791 0.041241 0.130200
0.006128 0.041273 0.130300
0.006460 0.041273 0.130300
0.006802 0.041336 0.130500
0.007140 0.041368 0.130600
0.007479 0.041400 0.130700
0.007824 0.041463 0.130900
0.008164 0.041495 0.131000
0.008505 0.041527 0.131100
0.008852 0.041590 0.131300
0.009187 0.041590 0.131300
0.009536 0.041653 0.131500
0.009886 0.041717 0.131700
0.010230 0.041748 0.131800
0.010582 0.041812 0.132000
0.010927 0.041843 0.132100
0.011281 0.041907 0.132300
0.011635 0.041970 0.132500
0.011982 0.042002 0.132600
0.012339 0.042065 0.132800
0.012677 0.042065 0.132800
0.013026 0.042097 0.132900
0.013375 0.042128 0.133000
-0.006027 0.043011 0.134700
-0.005680 0.042979 0.134600
-0.005332 0.042947 0.134500
-0.004986 0.042915 0.134400
-0.004640 0.042883 0.134300
-0.004294 0.042851 0.134200
-0.003946 0.042788 0.134000
-0.003602 0.042756 0.133900
-0.003256 0.042692 0.133700
-0.002913 0.042660 0.133600
-0.002566 0.042564 0.133300
-0.002223 0.042500 0.133100
-0.001880 0.042404 0.132800
-0.001539 0.042340 0.132600
-0.001199 0.042277 0.132400
-0.000860 0.042213 0.132200
-0.000522 0.042149 0.132000
-0.000185 0.042053 0.131700
0.000150 0.042021 0.131600
0.000485 0.041925 0.131300
0.000818 0.041862 0.131100
0.001151 0.041830 0.131000
0.001484 0.041798 0.130900
0.001815 0.041734 0.130700
0.002147 0.041702 0.130600
0.002479 0.041702 0.130600
0.002808 0.041638 0.130400
0.003138 0.041606 0.130300
0.003470 0.041606 0.130300
0.003802 0.041606 0.130300
0.004135 0.041606 0.130300
0.004467 0.041606 0.130300
0.004799 0.041606 0.130300
0.005131 0.041606 0.130300
0.005463 0.041606 0.130300
0.005800 0.041638 0.130400
0.006142 0.041702 0.130600
0.006475 0.041702 0.130600
0.006818 0.041766 0.130800
0.007157 0.041798 0.130900
0.007496 0.041830 0.131000
0.007836 0.041862 0.131100
0.008183 0.041925 0.131300
0.008518 0.041925 0.131300
0.008866 0.041989 0.131500
0.009208 0.042021 0.131600
0.009551 0.042053 0.131700
0.009901 0.042117 0.131900
0.010245 0.042149 0.132000
0.010590 0.042181 0.132100
0.010943 0.042245 0.132300
0.011289 0.042277 0.132400
0.011644 0.042340 0.132600
0.012000 0.042404 0.132800
0.012339 0.042404 0.132800
0.012687 0.042436 0.132900
0.013026 0.042436 0.132900
-0.005336 0.043323 0.134600
-0.004993 0.043323 0.134600
-0.004643 0.043259 0.134400
-0.004301 0.043259 0.134400
-0.003955 0.043226 0.134300
-0.003610 0.043194 0.134200
-0.003263 0.043130 0.134000
-0.002919 0.043098 0.133900
-0.002572 0.043001 0.133600
-0.002230 0.042969 0.133500
-0.001885 0.042872 0.133200
-0.001543 0.042808 0.133000
-0.001203 0.042744 0.132800
-0.000863 0.042679 0.132600
-0.000524 0.042615 0.132400
-0.000186 0.042551 0.132200
0.000151 0.042486 0.132000
0.000486 0.042422 0.131800
0.000821 0.042357 0.131600
0.001154 0.042261 0.131300
0.001488 0.042229 0.131200
0.001821 0.042197 0.131100
0.002153 0.042164 0.131000
0.002487 0.042164 0.131000
0.002817 0.042100 0.130800
0.003148 0.042068 0.130700
0.003478 0.042036 0.130600
0.003811 0.042036 0.130600
0.004144 0.042036 0.130600
0.004477 0.042036 0.130600
0.004810 0.042036 0.130600
0.005143 0.042036 0.130600
0.005476 0.042036 0.130600
0.005813 0.042068 0.130700
0.006151 0.042100 0.130800
0.006494 0.042164 0.131000
0.006828 0.042164 0.131000
0.007168 0.042197 0.131100
0.007513 0.042261 0.131300
0.007848 0.042261 0.131300
0.008195 0.042325 0.131500
0.008537 0.042357 0.131600
0.008879 0.042390 0.131700
0.009222 0.042422 0.131800
0.009572 0.042486 0.132000
0.009909 0.042486 0.132000
0.010261 0.042551 0.132200
0.010606 0.042583 0.132300
0.010952 0.042615 0.132400
0.011298 0.042647 0.132500
0.011653 0.042711 0.132700
0.012000 0.042744 0.132800
0.012330 0.042711 0.132700
-0.004997 0.043699 0.134700
-0.004650 0.043667 0.134600
-0.004307 0.043667 0.134600
-0.003961 0.043635 0.134500
-0.003615 0.043602 0.134400
-0.003270 0.043570 0.134300
-0.002924 0.043505 0.134100
-0.002580 0.043472 0.134000
-0.002235 0.043407 0.133800
-0.001891 0.043343 0.133600
-0.001548 0.043278 0.133400
-0.001206 0.043213 0.133200
-0.000866 0.043180 0.133100
-0.000526 0.043083 0.132800
-0.000187 0.043051 0.132700
0.000151 0.042953 0.132400
0.000488 0.042888 0.132200
0.000824 0.042823 0.132000
0.001158 0.042759 0.131800
0.001493 0.042726 0.131700
0.001825 0.042629 0.131400
0.002158 0.042596 0.131300
0.002493 0.042596 0.131300
0.002825 0.042564 0.131200
0.003157 0.042531 0.131100
0.003489 0.042499 0.131000
0.003823 0.042499 0.131000
0.004157 0.042499 0.131000
0.004491 0.042499 0.131000
0.004825 0.042499 0.131000
0.005159 0.042499 0.131000
0.005493 0.042499 0.131000
0.005827 0.042499 0.131000
0.006165 0.042531 0.131100
0.006504 0.042564 0.131200
0.006844 0.042596 0.131300
0.007184 0.042629 0.131400
0.007525 0.042661 0.131500
0.007872 0.042726 0.131700
0.008208 0.042726 0.131700
0.008550 0.042759 0.131800
0.008900 0.042823 0.132000
0.009236 0.042823 0.132000
0.009580 0.042856 0.132100
0.009924 0.042888 0.132200
0.010269 0.042921 0.132300
0.010614 0.042953 0.132400
0.010952 0.042953 0.132400
0.011298 0.042986 0.132500
0.011653 0.043051 0.132700
0.011991 0.043051 0.132700
-0.004310 0.044044 0.134700
-0.003967 0.044044 0.134700
-0.003621 0.044011 0.134600
-0.003278 0.044011 0.134600
-0.002930 0.043945 0.134400
-0.002588 0.043945 0.134400
-0.002242 0.043880 0.134200
-0.001897 0.043815 0.134000
-0.001553 0.043749 0.133800
-0.001210 0.043684 0.133600
-0.000869 0.043651 0.133500
-0.000527 0.043553 0.133200
-0.000187 0.043520 0.133100
0.000152 0.043422 0.132800
0.000490 0.043390 0.132700
0.000826 0.043292 0.132400
0.001162 0.043226 0.132200
0.001497 0.043161 0.132000
0.001832 0.043128 0.131900
0.002165 0.043063 0.131700
0.002498 0.043030 0.131600
0.002834 0.043030 0.131600
0.003167 0.042997 0.131500
0.003500 0.042965 0.131400
0.003832 0.042932 0.131300
0.004166 0.042932 0.131300
0.004501 0.042932 0.131300
0.004836 0.042932 0.131300
0.005170 0.042932 0.131300
0.005505 0.042932 0.131300
0.005840 0.042932 0.131300
0.006179 0.042965 0.131400
0.006519 0.042997 0.131500
0.006860 0.043030 0.131600
0.007201 0.043063 0.131700
0.007536 0.043063 0.131700
0.007878 0.043095 0.131800
0.008220 0.043128 0.131900
0.008563 0.043161 0.132000
0.008906 0.043193 0.132100
0.009250 0.043226 0.132200
0.009587 0.043226 0.132200
0.009932 0.043259 0.132300
0.010277 0.043292 0.132400
0.010614 0.043292 0.132400
0.010952 0.043292 0.132400
0.011298 0.043324 0.132500
-0.003626 0.044421 0.134800
-0.003283 0.044421 0.134800
-0.002937 0.044388 0.134700
-0.002590 0.044322 0.134500
-0.002245 0.044289 0.134400
-0.001901 0.044256 0.134300
-0.001556 0.044190 0.134100
-0.001214 0.044157 0.134000
-0.000870 0.044058 0.133700
-0.000529 0.044025 0.133600
-0.000188 0.043992 0.133500
0.000152 0.043926 0.133300
0.000491 0.043861 0.133100
0.000829 0.043795 0.132900
0.001166 0.043729 0.132700
0.001501 0.043630 0.132400
0.001837 0.043597 0.132300
0.002171 0.043531 0.132100
0.002506 0.043498 0.132000
0.002843 0.043498 0.132000
0.003177 0.043465 0.131900
0.003510 0.043432 0.131800
0.003843 0.043399 0.131700
0.004179 0.043399 0.131700
0.004515 0.043399 0.131700
0.004850 0.043399 0.131700
0.005186 0.043399 0.131700
0.005522 0.043399 0.131700
0.005858 0.043399 0.131700
0.006193 0.043399 0.131700
0.006529 0.043399 0.131700
0.006870 0.043432 0.131800
0.007212 0.043465 0.131900
0.007554 0.043498 0.132000
0.007890 0.043498 0.132000
0.008233 0.043531 0.132100
0.008569 0.043531 0.132100
0.008920 0.043597 0.132300
0.009257 0.043597 0.132300
0.009602 0.043630 0.132400
0.009939 0.043630 0.132400
0.010277 0.043630 0.132400
0.010614 0.043630 0.132400
-0.002939 0.044765 0.134800
-0.002593 0.044732 0.134700
-0.002248 0.044699 0.134600
-0.001904 0.044666 0.134500
-0.001560 0.044632 0.134400
-0.001215 0.044566 0.134200
-0.000873 0.044533 0.134100
-0.000530 0.044499 0.134000
-0.000188 0.044433 0.133800
0.000152 0.044367 0.133600
0.000493 0.044333 0.133500
0.000832 0.044267 0.133300
0.001171 0.044234 0.133200
0.001507 0.044134 0.132900
0.001844 0.044101 0.132800
0.002179 0.044035 0.132600
0.002514 0.043968 0.132400
0.002851 0.043968 0.132400
0.003186 0.043935 0.132300
0.003521 0.043902 0.132200
0.003855 0.043869 0.132100
0.004189 0.043835 0.132000
0.004525 0.043835 0.132000
0.004862 0.043835 0.132000
0.005198 0.043835 0.132000
0.005535 0.043835 0.132000
0.005871 0.043835 0.132000
0.006208 0.043835 0.132000
0.006544 0.043835 0.132000
0.006886 0.043869 0.132100
0.007222 0.043869 0.132100
0.007565 0.043902 0.132200
0.007902 0.043902 0.132200
0.008245 0.043935 0.132300
0.008589 0.043968 0.132400
0.008926 0.043968 0.132400
0.009264 0.043968 0.132400
0.009602 0.043968 0.132400
-0.002252 0.045110 0.134800
-0.001907 0.045076 0.134700
-0.001562 0.045043 0.134600
-0.001217 0.044976 0.134400
-0.000874 0.044942 0.134300
-0.000531 0.044909 0.134200
-0.000189 0.044842 0.134000
0.000153 0.044842 0.134000
0.000494 0.044808 0.133900
0.000834 0.044708 0.133600
0.001173 0.044675 0.133500
0.001511 0.044608 0.133300
0.001850 0.044574 0.133200
0.002188 0.044541 0.133100
0.002523 0.044474 0.132900
0.002862 0.044474 0.132900
0.003198 0.044440 0.132800
0.003534 0.044407 0.132700
0.003870 0.044373 0.132600
0.004204 0.044340 0.132500
0.004542 0.044340 0.132500
0.004880 0.044340 0.132500
0.005218 0.044340 0.132500
0.005556 0.044340 0.132500
0.005889 0.044306 0.132400
0.006226 0.044306 0.132400
0.006569 0.044340 0.132500
0.006907 0.044340 0.132500
0.007244 0.044340 0.132500
0.007582 0.044340 0.132500
0.007920 0.044340 0.132500
0.008258 0.044340 0.132500
0.008595 0.044340 0.132500
-0.001563 0.045420 0.134700
-0.001219 0.045387 0.134600
-0.000875 0.045353 0.134500
-0.000532 0.045319 0.134400
-0.000189 0.045285 0.134300
0.000153 0.045252 0.134200
0.000494 0.045184 0.134000
0.000836 0.045184 0.134000
0.001176 0.045117 0.133800
0.001515 0.045049 0.133600
0.001855 0.045049 0.133600
0.002193 0.044982 0.133400
0.002531 0.044948 0.133300
0.002871 0.044948 0.133300
0.003208 0.044915 0.133200
0.003545 0.044881 0.133100
0.003881 0.044847 0.133000
0.004220 0.044847 0.133000
0.004559 0.044847 0.133000
0.004898 0.044847 0.133000
0.005237 0.044847 0.133000
0.005576 0.044847 0.133000
0.005916 0.044847 0.133000
0.006255 0.044847 0.133000
0.006589 0.044813 0.132900
0.006927 0.044813 0.132900
0.007261 0.044780 0.132800
0.007599 0.044780 0.132800
0.007938 0.044780 0.132800
-0.000533 0.045731 0.134600
-0.000189 0.045663 0.134400
0.000153 0.045663 0.134400
0.000496 0.045629 0.134300
0.000837 0.045561 0.134100
0.001178 0.045527 0.134000
0.001518 0.045493 0.133900
0.001857 0.045425 0.133700
0.002196 0.045391 0.133600
0.002535 0.045357 0.133500
0.002875 0.045357 0.133500
0.003213 0.045323 0.133400
0.003550 0.045289 0.133300
0.003890 0.045289 0.133300
0.004227 0.045255 0.133200
0.004566 0.045255 0.133200
0.004906 0.045255 0.133200
0.005249 0.045289 0.133300
0.005589 0.045289 0.133300
0.005929 0.045289 0.133300
0.006269 0.045289 0.133300
0.006608 0.045289 0.133300
0.001179 0.045938 0.134200
0.001520 0.045903 0.134100
0.001861 0.045869 0.134000
0.002199 0.045801 0.133800
0.002536 0.045732 0.133600
0.002877 0.045732 0.133600
0.003218 0.045732 0.133600
0.003558 0.045732 0.133600
0.003899 0.045732 0.133600
0.004239 0.045732 0.133600
0.004580 0.045732 0.133600
0.004920 0.045732 0.133600
0.005261 0.045732 0.133600
