ply
format ascii 1.0
element vertex 2284
property float x
property float y
property float z
end_header
-0.008067 0.012747 -0.309790
-0.008767 0.012335 -0.309656
-0.009167 0.011953 -0.309580
-0.009167 0.011607 -0.309580
-0.008067 0.012747 -0.310140
-0.008967 0.012317 -0.309965
-0.009167 0.011953 -0.309926
-0.009467 0.011581 -0.309868
-0.009467 0.011236 -0.309868
-0.009567 0.010883 -0.309849
-0.009567 0.010538 -0.309849
-0.008967 0.012317 -0.310312
-0.009067 0.011961 -0.310293
-0.009467 0.011581 -0.310214
-0.009467 0.011236 -0.310214
-0.009567 0.010883 -0.310194
-0.009567 0.010538 -0.310194
-0.009667 0.010185 -0.310175
-0.009667 0.009841 -0.310175
-0.008667 0.012344 -0.310719
-0.008967 0.011970 -0.310660
-0.009167 0.011607 -0.310620
-0.009367 0.011244 -0.310580
-0.009567 0.010883 -0.310540
-0.009567 0.010538 -0.310540
-0.009667 0.010185 -0.310520
-0.009667 0.009841 -0.310520
-0.008667 0.012344 -0.311067
-0.008867 0.011979 -0.311027
-0.009067 0.011615 -0.310987
-0.009267 0.011253 -0.310946
-0.009567 0.010883 -0.310886
-0.009567 0.010538 -0.310886
-0.009567 0.010193 -0.310886
-0.009567 0.009848 -0.310886
-0.007967 0.012756 -0.311558
-0.008467 0.012362 -0.311456
-0.008567 0.012006 -0.311436
-0.008967 0.011624 -0.311354
-0.009367 0.011244 -0.311272
-0.009567 0.010883 -0.311231
-0.009567 0.010538 -0.311231
-0.009567 0.010193 -0.311231
-0.007967 0.012756 -0.311908
-0.008267 0.012380 -0.311846
-0.008467 0.012014 -0.311805
-0.008967 0.011624 -0.311701
-0.009367 0.011244 -0.311619
-0.009667 0.010875 -0.311556
-0.009967 0.010507 -0.311494
-0.009967 0.010163 -0.311494
-0.007667 0.012784 -0.312321
-0.007967 0.012407 -0.312258
-0.008267 0.012032 -0.312195
-0.008767 0.011641 -0.312090
-0.009367 0.011244 -0.311965
-0.009667 0.010875 -0.311902
-0.010067 0.010499 -0.311818
-0.010067 0.010155 -0.311818
-0.006967 0.012850 -0.312820
-0.007967 0.012407 -0.312608
-0.008167 0.012041 -0.312565
-0.008667 0.011650 -0.312459
-0.009367 0.011244 -0.312311
-0.009767 0.010867 -0.312226
-0.010167 0.010491 -0.312141
-0.010767 0.010103 -0.312014
-0.010767 0.009761 -0.312014
-0.006367 0.012905 -0.313301
-0.007767 0.012425 -0.313001
-0.008067 0.012050 -0.312936
-0.008567 0.011658 -0.312829
-0.009367 0.011244 -0.312657
-0.009967 0.010851 -0.312529
-0.010367 0.010476 -0.312443
-0.010867 0.010095 -0.312335
-0.011167 0.009732 -0.312271
-0.011567 0.009363 -0.312185
-0.011567 0.009023 -0.312185
-0.007167 0.012831 -0.313481
-0.007167 0.012480 -0.313481
-0.008067 0.012050 -0.313286
-0.008567 0.011658 -0.313177
-0.009467 0.011236 -0.312982
-0.010067 0.010843 -0.312851
-0.010467 0.010468 -0.312765
-0.010867 0.010095 -0.312678
-0.011267 0.009724 -0.312591
-0.011667 0.009356 -0.312504
-0.012067 0.008989 -0.312417
-0.012767 0.008605 -0.312265
-0.012767 0.008268 -0.312265
-0.007267 0.012822 -0.313811
-0.007867 0.012416 -0.313679
-0.008267 0.012032 -0.313591
-0.008667 0.011650 -0.313503
-0.009467 0.011236 -0.313328
-0.010067 0.010843 -0.313196
-0.010467 0.010468 -0.313108
-0.010967 0.010087 -0.312998
-0.011367 0.009717 -0.312910
-0.011767 0.009349 -0.312823
-0.012167 0.008982 -0.312735
-0.012767 0.008605 -0.312603
-0.012767 0.008268 -0.312603
-0.007267 0.012822 -0.314163
-0.008067 0.012398 -0.313985
-0.008467 0.012014 -0.313896
-0.008767 0.011641 -0.313829
-0.009467 0.011236 -0.313674
-0.010067 0.010843 -0.313540
-0.010467 0.010468 -0.313451
-0.011067 0.010080 -0.313318
-0.011367 0.009717 -0.313251
-0.011767 0.009349 -0.313163
-0.012267 0.008975 -0.313051
-0.012767 0.008605 -0.312940
-0.013167 0.008243 -0.312851
-0.013167 0.007907 -0.312851
-0.007267 0.012822 -0.314514
-0.008167 0.012389 -0.314312
-0.008567 0.012006 -0.314222
-0.008867 0.011632 -0.314155
-0.009467 0.011236 -0.314020
-0.010067 0.010843 -0.313885
-0.010567 0.010460 -0.313772
-0.011067 0.010080 -0.313660
-0.011567 0.009702 -0.313548
-0.011867 0.009342 -0.313480
-0.012267 0.008975 -0.313390
-0.012867 0.008598 -0.313255
-0.013267 0.008237 -0.313166
-0.013567 0.007883 -0.313098
-0.013567 0.007549 -0.313098
-0.007267 0.012822 -0.314866
-0.008167 0.012389 -0.314661
-0.008567 0.012006 -0.314570
-0.008867 0.011632 -0.314502
-0.009467 0.011236 -0.314366
-0.010067 0.010843 -0.314229
-0.010667 0.010452 -0.314093
-0.011067 0.010080 -0.314002
-0.011567 0.009702 -0.313888
-0.012067 0.009327 -0.313775
-0.012367 0.008969 -0.313706
-0.012867 0.008598 -0.313593
-0.013267 0.008237 -0.313502
-0.013667 0.007877 -0.313411
-0.013667 0.007543 -0.313411
-0.006967 0.012850 -0.315286
-0.008367 0.012371 -0.314964
-0.008767 0.011988 -0.314873
-0.009067 0.011615 -0.314804
-0.009467 0.011236 -0.314712
-0.010067 0.010843 -0.314574
-0.010667 0.010452 -0.314436
-0.011067 0.010080 -0.314344
-0.011567 0.009702 -0.314229
-0.012067 0.009327 -0.314114
-0.012467 0.008962 -0.314022
-0.012867 0.008598 -0.313930
-0.013167 0.008243 -0.313861
-0.013667 0.007877 -0.313746
-0.013867 0.007531 -0.313700
-0.013967 0.007192 -0.313677
-0.013967 0.006858 -0.313677
-0.006967 0.012850 -0.315639
-0.008567 0.012353 -0.315267
-0.008967 0.011970 -0.315174
-0.009067 0.011615 -0.315151
-0.009567 0.011228 -0.315034
-0.010067 0.010843 -0.314918
-0.010467 0.010468 -0.314825
-0.010967 0.010087 -0.314709
-0.011467 0.009710 -0.314593
-0.011867 0.009342 -0.314500
-0.012467 0.008962 -0.314360
-0.012867 0.008598 -0.314267
-0.013167 0.008243 -0.314198
-0.013567 0.007883 -0.314105
-0.013867 0.007531 -0.314035
-0.013967 0.007192 -0.314012
-0.014067 0.006853 -0.313988
-0.014067 0.006520 -0.313988
-0.007067 0.012840 -0.315968
-0.008867 0.012326 -0.315545
-0.009167 0.011953 -0.315474
-0.009367 0.011590 -0.315427
-0.009667 0.011219 -0.315357
-0.010067 0.010843 -0.315263
-0.010467 0.010468 -0.315169
-0.010967 0.010087 -0.315051
-0.011367 0.009717 -0.314957
-0.011867 0.009342 -0.314840
-0.012267 0.008975 -0.314746
-0.012867 0.008598 -0.314605
-0.013167 0.008243 -0.314534
-0.013567 0.007883 -0.314440
-0.013867 0.007531 -0.314370
-0.013967 0.007192 -0.314346
-0.014067 0.006853 -0.314323
-0.014167 0.006515 -0.314299
-0.014167 0.006181 -0.314299
-0.007067 0.012840 -0.316320
-0.008867 0.012326 -0.315892
-0.009167 0.011953 -0.315821
-0.009467 0.011581 -0.315750
-0.009767 0.011211 -0.315678
-0.010067 0.010843 -0.315607
-0.010467 0.010468 -0.315512
-0.010867 0.010095 -0.315417
-0.011367 0.009717 -0.315298
-0.011767 0.009349 -0.315203
-0.012267 0.008975 -0.315084
-0.012667 0.008611 -0.314989
-0.013167 0.008243 -0.314871
-0.013567 0.007883 -0.314776
-0.013867 0.007531 -0.314704
-0.013967 0.007192 -0.314681
-0.014067 0.006853 -0.314657
-0.014167 0.006515 -0.314633
-0.014167 0.006181 -0.314633
-0.005067 0.013027 -0.317152
-0.009067 0.012308 -0.316192
-0.009567 0.011917 -0.316071
-0.009567 0.011573 -0.316071
-0.009967 0.011194 -0.315975
-0.010367 0.010818 -0.315879
-0.010567 0.010460 -0.315831
-0.010967 0.010087 -0.315735
-0.011367 0.009717 -0.315639
-0.011767 0.009349 -0.315543
-0.012167 0.008982 -0.315447
-0.012667 0.008611 -0.315327
-0.013067 0.008249 -0.315231
-0.013567 0.007883 -0.315111
-0.013767 0.007537 -0.315063
-0.013867 0.007197 -0.315039
-0.013967 0.006858 -0.315015
-0.014167 0.006515 -0.314967
-0.014267 0.006177 -0.314943
-0.014267 0.005844 -0.314943
-0.009067 0.012308 -0.316539
-0.009667 0.011909 -0.316393
-0.009767 0.011555 -0.316369
-0.010067 0.011186 -0.316296
-0.010467 0.010810 -0.316199
-0.010667 0.010452 -0.316150
-0.010967 0.010087 -0.316077
-0.011367 0.009717 -0.315980
-0.011767 0.009349 -0.315883
-0.012167 0.008982 -0.315786
-0.012667 0.008611 -0.315665
-0.013067 0.008249 -0.315568
-0.013367 0.007895 -0.315495
-0.013767 0.007537 -0.315398
-0.013867 0.007197 -0.315374
-0.014067 0.006853 -0.315325
-0.014167 0.006515 -0.315301
-0.014267 0.006177 -0.315277
-0.014267 0.005844 -0.315277
-0.014267 0.005511 -0.315277
-0.009867 0.011891 -0.316689
-0.010067 0.011530 -0.316640
-0.010267 0.011170 -0.316591
-0.010467 0.010810 -0.316542
-0.010767 0.010444 -0.316469
-0.011067 0.010080 -0.316395
-0.011367 0.009717 -0.316322
-0.011767 0.009349 -0.316223
-0.012167 0.008982 -0.316125
-0.012567 0.008618 -0.316027
-0.012967 0.008256 -0.315929
-0.013367 0.007895 -0.315831
-0.013567 0.007549 -0.315782
-0.013867 0.007197 -0.315709
-0.014067 0.006853 -0.315659
-0.014167 0.006515 -0.315635
-0.014267 0.006177 -0.315610
-0.014367 0.005839 -0.315586
-0.014467 0.005502 -0.315561
-0.014467 0.005170 -0.315561
-0.010067 0.011873 -0.316985
-0.010267 0.011513 -0.316935
-0.010467 0.011153 -0.316886
-0.010667 0.010794 -0.316836
-0.010867 0.010437 -0.316787
-0.011167 0.010072 -0.316712
-0.011467 0.009710 -0.316638
-0.011767 0.009349 -0.316564
-0.012067 0.008989 -0.316489
-0.012567 0.008618 -0.316365
-0.012867 0.008262 -0.316291
-0.013267 0.007901 -0.316192
-0.013567 0.007549 -0.316118
-0.013667 0.007208 -0.316093
-0.013867 0.006863 -0.316043
-0.014067 0.006520 -0.315994
-0.014167 0.006181 -0.315969
-0.014367 0.005839 -0.315919
-0.014467 0.005502 -0.315895
-0.014667 0.005162 -0.315845
-0.014667 0.004830 -0.315845
-0.010367 0.011847 -0.317254
-0.010467 0.011496 -0.317229
-0.010567 0.011145 -0.317204
-0.010767 0.010786 -0.317154
-0.010867 0.010437 -0.317129
-0.011267 0.010065 -0.317029
-0.011467 0.009710 -0.316979
-0.011767 0.009349 -0.316904
-0.012067 0.008989 -0.316829
-0.012467 0.008624 -0.316728
-0.012867 0.008262 -0.316628
-0.013167 0.007907 -0.316553
-0.013367 0.007560 -0.316503
-0.013567 0.007214 -0.316453
-0.013867 0.006863 -0.316378
-0.013967 0.006525 -0.316353
-0.014167 0.006181 -0.316303
-0.014267 0.005844 -0.316278
-0.014567 0.005498 -0.316203
-0.014767 0.005158 -0.316153
-0.014967 0.004819 -0.316103
-0.015167 0.004481 -0.316053
-0.015367 0.004144 -0.316002
-0.015567 0.003808 -0.315952
-0.015767 0.003473 -0.315902
-0.015867 0.003141 -0.315877
-0.015867 0.002812 -0.315877
-0.016067 0.002480 -0.315827
-0.016067 0.002151 -0.315827
-0.010467 0.011838 -0.317572
-0.010567 0.011487 -0.317547
-0.010767 0.011128 -0.317497
-0.010867 0.010778 -0.317471
-0.011067 0.010421 -0.317421
-0.011267 0.010065 -0.317370
-0.011567 0.009702 -0.317294
-0.011867 0.009342 -0.317218
-0.012067 0.008989 -0.317168
-0.012467 0.008624 -0.317067
-0.012767 0.008268 -0.316991
-0.012967 0.007919 -0.316940
-0.013267 0.007566 -0.316864
-0.013567 0.007214 -0.316789
-0.013767 0.006869 -0.316738
-0.013967 0.006525 -0.316687
-0.014167 0.006181 -0.316637
-0.014267 0.005844 -0.316612
-0.014567 0.005498 -0.316536
-0.014767 0.005158 -0.316485
-0.014967 0.004819 -0.316435
-0.015167 0.004481 -0.316384
-0.015467 0.004141 -0.316308
-0.015567 0.003808 -0.316283
-0.015767 0.003473 -0.316232
-0.015867 0.003141 -0.316207
-0.015967 0.002810 -0.316182
-0.016067 0.002480 -0.316156
-0.016067 0.002151 -0.316156
-0.016167 0.001822 -0.316131
-0.016167 0.001494 -0.316131
-0.010567 0.011829 -0.317890
-0.010767 0.011470 -0.317839
-0.010867 0.011120 -0.317814
-0.010967 0.010770 -0.317788
-0.011167 0.010413 -0.317737
-0.011367 0.010057 -0.317686
-0.011567 0.009702 -0.317635
-0.011867 0.009342 -0.317558
-0.012067 0.008989 -0.317507
-0.012367 0.008631 -0.317431
-0.012667 0.008274 -0.317354
-0.012867 0.007925 -0.317303
-0.013167 0.007572 -0.317226
-0.013367 0.007225 -0.317175
-0.013567 0.006879 -0.317124
-0.013867 0.006529 -0.317047
-0.014067 0.006186 -0.316996
-0.014267 0.005844 -0.316945
-0.014567 0.005498 -0.316869
-0.014767 0.005158 -0.316818
-0.014867 0.004823 -0.316792
-0.015167 0.004481 -0.316715
-0.015467 0.004141 -0.316639
-0.015567 0.003808 -0.316613
-0.015767 0.003473 -0.316562
-0.015767 0.003144 -0.316562
-0.015967 0.002810 -0.316511
-0.016067 0.002480 -0.316485
-0.016167 0.002150 -0.316460
-0.016267 0.001820 -0.316434
-0.016367 0.001491 -0.316409
-0.016367 0.001164 -0.316409
-0.016367 0.000836 -0.316409
-0.010767 0.011470 -0.318182
-0.010867 0.011120 -0.318156
-0.011067 0.010762 -0.318105
-0.011167 0.010413 -0.318079
-0.011367 0.010057 -0.318027
-0.011567 0.009702 -0.317975
-0.011767 0.009349 -0.317924
-0.012067 0.008989 -0.317847
-0.012367 0.008631 -0.317769
-0.012567 0.008281 -0.317718
-0.012867 0.007925 -0.317640
-0.013067 0.007577 -0.317589
-0.013267 0.007230 -0.317537
-0.013567 0.006879 -0.317460
-0.013767 0.006534 -0.317408
-0.013967 0.006191 -0.317356
-0.014267 0.005844 -0.317279
-0.014567 0.005498 -0.317202
-0.014667 0.005162 -0.317176
-0.014867 0.004823 -0.317124
-0.015167 0.004481 -0.317047
-0.015367 0.004144 -0.316995
-0.015467 0.003811 -0.316969
-0.015667 0.003476 -0.316918
-0.015767 0.003144 -0.316892
-0.015867 0.002812 -0.316866
-0.016067 0.002480 -0.316815
-0.016167 0.002150 -0.316789
-0.016267 0.001820 -0.316763
-0.016367 0.001491 -0.316737
-0.016367 0.001164 -0.316737
-0.016367 0.000836 -0.316737
-0.010767 0.011470 -0.318525
-0.010867 0.011120 -0.318498
-0.011067 0.010762 -0.318446
-0.011167 0.010413 -0.318420
-0.011367 0.010057 -0.318368
-0.011567 0.009702 -0.318316
-0.011767 0.009349 -0.318264
-0.012067 0.008989 -0.318186
-0.012267 0.008637 -0.318134
-0.012467 0.008287 -0.318082
-0.012767 0.007931 -0.318003
-0.012967 0.007583 -0.317951
-0.013167 0.007236 -0.317899
-0.013467 0.006884 -0.317821
-0.013667 0.006539 -0.317769
-0.013867 0.006196 -0.317717
-0.014267 0.005844 -0.317613
-0.014467 0.005502 -0.317561
-0.014667 0.005162 -0.317508
-0.014867 0.004823 -0.317456
-0.015167 0.004481 -0.317378
-0.015367 0.004144 -0.317326
-0.015467 0.003811 -0.317300
-0.015567 0.003478 -0.317274
-0.015767 0.003144 -0.317222
-0.015867 0.002812 -0.317196
-0.015967 0.002482 -0.317170
-0.016067 0.002151 -0.317144
-0.016267 0.001820 -0.317092
-0.016367 0.001491 -0.317066
-0.016367 0.001164 -0.317066
-0.016467 0.000835 -0.317039
-0.016667 0.000507 -0.316987
-0.016667 0.000181 -0.316987
-0.010867 0.011120 -0.318841
-0.010967 0.010770 -0.318815
-0.011167 0.010413 -0.318762
-0.011367 0.010057 -0.318709
-0.011567 0.009702 -0.318657
-0.011667 0.009356 -0.318630
-0.011967 0.008996 -0.318551
-0.012167 0.008644 -0.318499
-0.012367 0.008293 -0.318446
-0.012567 0.007943 -0.318394
-0.012867 0.007589 -0.318315
-0.013067 0.007241 -0.318262
-0.013267 0.006895 -0.318209
-0.013567 0.006544 -0.318131
-0.013867 0.006196 -0.318052
-0.014167 0.005848 -0.317973
-0.014367 0.005507 -0.317920
-0.014667 0.005162 -0.317841
-0.014867 0.004823 -0.317788
-0.015067 0.004484 -0.317736
-0.015167 0.004150 -0.317710
-0.015367 0.003814 -0.317657
-0.015467 0.003481 -0.317631
-0.015767 0.003144 -0.317552
-0.015767 0.002815 -0.317552
-0.015967 0.002482 -0.317499
-0.016067 0.002151 -0.317473
-0.016067 0.001823 -0.317473
-0.016267 0.001492 -0.317420
-0.016367 0.001164 -0.317394
-0.016467 0.000835 -0.317368
-0.016667 0.000507 -0.317315
-0.016667 0.000181 -0.317315
-0.016667 -0.000146 -0.317315
-0.010467 0.011153 -0.319290
-0.010667 0.010794 -0.319236
-0.010867 0.010437 -0.319183
-0.011167 0.010072 -0.319104
-0.011367 0.009717 -0.319050
-0.011667 0.009356 -0.318971
-0.011867 0.009002 -0.318918
-0.012067 0.008650 -0.318864
-0.012267 0.008299 -0.318811
-0.012467 0.007949 -0.318758
-0.012667 0.007600 -0.318705
-0.012867 0.007252 -0.318652
-0.013167 0.006900 -0.318572
-0.013567 0.006544 -0.318466
-0.013767 0.006200 -0.318413
-0.014067 0.005853 -0.318333
-0.014267 0.005511 -0.318280
-0.014567 0.005166 -0.318200
-0.014767 0.004826 -0.318147
-0.014967 0.004488 -0.318094
-0.015167 0.004150 -0.318041
-0.015267 0.003817 -0.318014
-0.015467 0.003481 -0.317961
-0.015567 0.003149 -0.317935
-0.015667 0.002817 -0.317908
-0.015867 0.002484 -0.317855
-0.015967 0.002153 -0.317828
-0.016067 0.001823 -0.317802
-0.016267 0.001492 -0.317749
-0.016367 0.001164 -0.317722
-0.016467 0.000835 -0.317696
-0.016667 0.000507 -0.317643
-0.016667 0.000181 -0.317643
-0.016667 -0.000146 -0.317643
-0.016867 -0.000472 -0.317589
-0.016867 -0.000799 -0.317589
-0.009867 0.011203 -0.319794
-0.010167 0.010834 -0.319713
-0.010567 0.010460 -0.319606
-0.010867 0.010095 -0.319526
-0.011267 0.009724 -0.319418
-0.011367 0.009377 -0.319392
-0.011667 0.009016 -0.319311
-0.011967 0.008657 -0.319231
-0.012167 0.008306 -0.319177
-0.012367 0.007955 -0.319123
-0.012567 0.007606 -0.319070
-0.012867 0.007252 -0.318989
-0.013067 0.006905 -0.318936
-0.013367 0.006554 -0.318855
-0.013667 0.006205 -0.318775
-0.013967 0.005857 -0.318694
-0.014267 0.005511 -0.318614
-0.014467 0.005170 -0.318560
-0.014667 0.004830 -0.318506
-0.014867 0.004491 -0.318453
-0.014967 0.004157 -0.318426
-0.015167 0.003820 -0.318372
-0.015267 0.003486 -0.318346
-0.015467 0.003151 -0.318292
-0.015567 0.002819 -0.318265
-0.015767 0.002486 -0.318211
-0.015967 0.002153 -0.318158
-0.016067 0.001823 -0.318131
-0.016267 0.001492 -0.318077
-0.016267 0.001165 -0.318077
-0.016367 0.000836 -0.318051
-0.016467 0.000508 -0.318024
-0.016667 0.000181 -0.317970
-0.016767 -0.000146 -0.317943
-0.016867 -0.000472 -0.317916
-0.016867 -0.000799 -0.317916
-0.016767 -0.001126 -0.317943
-0.010667 -0.017943 -0.319579
-0.009967 -0.018380 -0.319767
-0.009967 -0.018724 -0.319767
-0.009867 0.010859 -0.320139
-0.010267 0.010483 -0.320031
-0.010567 0.010118 -0.319949
-0.010867 0.009753 -0.319868
-0.011267 0.009384 -0.319760
-0.011567 0.009023 -0.319679
-0.011767 0.008670 -0.319624
-0.012067 0.008312 -0.319543
-0.012167 0.007967 -0.319516
-0.012467 0.007612 -0.319435
-0.012767 0.007258 -0.319354
-0.012967 0.006911 -0.319299
-0.013267 0.006559 -0.319218
-0.013567 0.006210 -0.319137
-0.013867 0.005862 -0.319056
-0.014067 0.005519 -0.319002
-0.014267 0.005178 -0.318947
-0.014567 0.004834 -0.318866
-0.014667 0.004498 -0.318839
-0.014867 0.004160 -0.318785
-0.015067 0.003823 -0.318731
-0.015167 0.003489 -0.318704
-0.015267 0.003156 -0.318677
-0.015467 0.002821 -0.318623
-0.015567 0.002489 -0.318595
-0.015767 0.002156 -0.318541
-0.015967 0.001825 -0.318487
-0.016067 0.001495 -0.318460
-0.016267 0.001165 -0.318406
-0.016367 0.000836 -0.318379
-0.016467 0.000508 -0.318352
-0.016667 0.000181 -0.318298
-0.016767 -0.000146 -0.318271
-0.016767 -0.000473 -0.318271
-0.016767 -0.000799 -0.318271
-0.016767 -0.001126 -0.318271
-0.011567 -0.016803 -0.319679
-0.011567 -0.017143 -0.319679
-0.011167 -0.017535 -0.319787
-0.010667 -0.017943 -0.319922
-0.010267 -0.018339 -0.320031
-0.009967 -0.018724 -0.320112
-0.009567 0.010883 -0.320566
-0.009967 0.010507 -0.320456
-0.010267 0.010140 -0.320374
-0.010567 0.009775 -0.320292
-0.010967 0.009405 -0.320183
-0.011267 0.009043 -0.320101
-0.011667 0.008676 -0.319992
-0.011867 0.008324 -0.319937
-0.012067 0.007973 -0.319882
-0.012267 0.007623 -0.319828
-0.012467 0.007274 -0.319773
-0.012867 0.006916 -0.319664
-0.013167 0.006564 -0.319582
-0.013367 0.006219 -0.319527
-0.013567 0.005875 -0.319472
-0.013867 0.005528 -0.319391
-0.014167 0.005182 -0.319309
-0.014367 0.004841 -0.319254
-0.014567 0.004502 -0.319199
-0.014667 0.004166 -0.319172
-0.014867 0.003828 -0.319117
-0.014967 0.003494 -0.319090
-0.015167 0.003158 -0.319035
-0.015267 0.002826 -0.319008
-0.015467 0.002491 -0.318953
-0.015667 0.002158 -0.318899
-0.015767 0.001827 -0.318871
-0.015967 0.001496 -0.318817
-0.016067 0.001166 -0.318789
-0.016167 0.000837 -0.318762
-0.016467 0.000508 -0.318680
-0.016667 0.000181 -0.318625
-0.016767 -0.000146 -0.318598
-0.016767 -0.000473 -0.318598
-0.016767 -0.000799 -0.318598
-0.016767 -0.001126 -0.318598
-0.016767 -0.001452 -0.318598
-0.016767 -0.001779 -0.318598
-0.016767 -0.002105 -0.318598
-0.016767 -0.002432 -0.318598
-0.016767 -0.002759 -0.318598
-0.016767 -0.003085 -0.318598
-0.012767 -0.015305 -0.319691
-0.012767 -0.015641 -0.319691
-0.012567 -0.016002 -0.319746
-0.012367 -0.016364 -0.319800
-0.012067 -0.016740 -0.319882
-0.011567 -0.017143 -0.320019
-0.011167 -0.017535 -0.320128
-0.010667 -0.017943 -0.320265
-0.010267 -0.018339 -0.320374
-0.009567 0.010538 -0.320911
-0.010067 0.010155 -0.320774
-0.010367 0.009790 -0.320691
-0.010667 0.009426 -0.320608
-0.011067 0.009057 -0.320498
-0.011367 0.008696 -0.320415
-0.011667 0.008337 -0.320332
-0.011867 0.007985 -0.320277
-0.012067 0.007635 -0.320222
-0.012367 0.007280 -0.320139
-0.012667 0.006926 -0.320056
-0.012967 0.006574 -0.319974
-0.013167 0.006229 -0.319918
-0.013467 0.005879 -0.319836
-0.013667 0.005536 -0.319780
-0.013967 0.005190 -0.319698
-0.014167 0.004849 -0.319642
-0.014367 0.004509 -0.319587
-0.014567 0.004169 -0.319532
-0.014767 0.003831 -0.319477
-0.014867 0.003497 -0.319449
-0.014967 0.003163 -0.319422
-0.015267 0.002826 -0.319339
-0.015467 0.002491 -0.319284
-0.015667 0.002158 -0.319229
-0.015767 0.001827 -0.319201
-0.015967 0.001496 -0.319146
-0.016067 0.001166 -0.319118
-0.016267 0.000837 -0.319063
-0.016467 0.000508 -0.319008
-0.016567 0.000181 -0.318980
-0.016567 -0.000146 -0.318980
-0.016667 -0.000473 -0.318953
-0.016767 -0.000799 -0.318925
-0.016767 -0.001126 -0.318925
-0.016767 -0.001452 -0.318925
-0.016767 -0.001779 -0.318925
-0.016767 -0.002105 -0.318925
-0.016767 -0.002432 -0.318925
-0.016767 -0.002759 -0.318925
-0.016767 -0.003085 -0.318925
-0.016767 -0.003412 -0.318925
-0.016567 -0.004725 -0.318980
-0.016567 -0.005052 -0.318980
-0.016567 -0.005379 -0.318980
-0.015467 -0.009384 -0.319284
-0.015467 -0.009714 -0.319284
-0.015367 -0.010051 -0.319311
-0.015267 -0.010390 -0.319339
-0.014667 -0.011765 -0.319505
-0.014667 -0.012097 -0.319505
-0.014567 -0.012439 -0.319532
-0.014367 -0.012790 -0.319587
-0.014167 -0.013143 -0.319642
-0.013967 -0.013497 -0.319698
-0.013767 -0.013852 -0.319753
-0.013567 -0.014208 -0.319808
-0.013267 -0.014576 -0.319891
-0.013067 -0.014934 -0.319946
-0.012867 -0.015293 -0.320001
-0.012767 -0.015641 -0.320029
-0.012567 -0.016002 -0.320084
-0.012367 -0.016364 -0.320139
-0.012067 -0.016740 -0.320222
-0.011467 -0.017155 -0.320387
-0.011067 -0.017548 -0.320498
-0.010567 -0.017956 -0.320636
-0.010167 -0.018353 -0.320746
-0.009167 0.010569 -0.321369
-0.009667 0.010185 -0.321229
-0.010067 0.009812 -0.321118
-0.010467 0.009440 -0.321007
-0.010867 0.009070 -0.320895
-0.011167 0.008709 -0.320812
-0.011367 0.008356 -0.320756
-0.011667 0.007997 -0.320672
-0.011967 0.007641 -0.320589
-0.012167 0.007291 -0.320533
-0.012467 0.006937 -0.320450
-0.012767 0.006584 -0.320366
-0.013067 0.006233 -0.320283
-0.013267 0.005888 -0.320227
-0.013567 0.005540 -0.320143
-0.013767 0.005198 -0.320088
-0.014167 0.004849 -0.319976
-0.014367 0.004509 -0.319921
-0.014567 0.004169 -0.319865
-0.014767 0.003831 -0.319809
-0.014867 0.003497 -0.319782
-0.014967 0.003163 -0.319754
-0.015167 0.002828 -0.319698
-0.015367 0.002493 -0.319642
-0.015467 0.002161 -0.319614
-0.015767 0.001827 -0.319531
-0.015867 0.001497 -0.319503
-0.015967 0.001167 -0.319475
-0.016267 0.000837 -0.319392
-0.016367 0.000509 -0.319364
-0.016467 0.000181 -0.319336
-0.016567 -0.000146 -0.319308
-0.016667 -0.000473 -0.319280
-0.016667 -0.000800 -0.319280
-0.016667 -0.001127 -0.319280
-0.016767 -0.001452 -0.319253
-0.016767 -0.001779 -0.319253
-0.016767 -0.002105 -0.319253
-0.016767 -0.002432 -0.319253
-0.016767 -0.002759 -0.319253
-0.016767 -0.003085 -0.319253
-0.016767 -0.003412 -0.319253
-0.016667 -0.003741 -0.319280
-0.016667 -0.004068 -0.319280
-0.016667 -0.004395 -0.319280
-0.016667 -0.004722 -0.319280
-0.016567 -0.005052 -0.319308
-0.016567 -0.005379 -0.319308
-0.016467 -0.005711 -0.319336
-0.016167 -0.007365 -0.319420
-0.016167 -0.007693 -0.319420
-0.016067 -0.008027 -0.319447
-0.016067 -0.008355 -0.319447
-0.015767 -0.008704 -0.319531
-0.015667 -0.009040 -0.319559
-0.015567 -0.009377 -0.319587
-0.015467 -0.009714 -0.319614
-0.015367 -0.010051 -0.319642
-0.015267 -0.010390 -0.319670
-0.015067 -0.010737 -0.319726
-0.015067 -0.011067 -0.319726
-0.014867 -0.011416 -0.319782
-0.014767 -0.011756 -0.319809
-0.014667 -0.012097 -0.319837
-0.014567 -0.012439 -0.319865
-0.014367 -0.012790 -0.319921
-0.014167 -0.013143 -0.319976
-0.013967 -0.013497 -0.320032
-0.013767 -0.013852 -0.320088
-0.013567 -0.014208 -0.320143
-0.013267 -0.014576 -0.320227
-0.013067 -0.014934 -0.320283
-0.012867 -0.015293 -0.320338
-0.012767 -0.015641 -0.320366
-0.012567 -0.016002 -0.320422
-0.012267 -0.016377 -0.320505
-0.011967 -0.016752 -0.320589
-0.011467 -0.017155 -0.320728
-0.010967 -0.017561 -0.320867
-0.010467 -0.017969 -0.321007
-0.009267 0.010216 -0.321687
-0.009767 0.009833 -0.321547
-0.010267 0.009454 -0.321406
-0.010667 0.009084 -0.321294
-0.010967 0.008722 -0.321210
-0.011267 0.008362 -0.321125
-0.011467 0.008009 -0.321069
-0.011667 0.007658 -0.321013
-0.011967 0.007302 -0.320929
-0.012467 0.006937 -0.320788
-0.012767 0.006584 -0.320704
-0.013067 0.006233 -0.320619
-0.013267 0.005888 -0.320563
-0.013567 0.005540 -0.320479
-0.013767 0.005198 -0.320423
-0.013967 0.004856 -0.320367
-0.014167 0.004515 -0.320310
-0.014367 0.004176 -0.320254
-0.014567 0.003837 -0.320198
-0.014667 0.003502 -0.320170
-0.014867 0.003166 -0.320114
-0.014967 0.002832 -0.320086
-0.015167 0.002497 -0.320029
-0.015367 0.002163 -0.319973
-0.015567 0.001830 -0.319917
-0.015767 0.001498 -0.319861
-0.015867 0.001168 -0.319833
-0.016067 0.000838 -0.319777
-0.016167 0.000509 -0.319748
-0.016267 0.000181 -0.319720
-0.016367 -0.000147 -0.319692
-0.016567 -0.000473 -0.319636
-0.016567 -0.000801 -0.319636
-0.016567 -0.001128 -0.319636
-0.016667 -0.001453 -0.319608
-0.016667 -0.001780 -0.319608
-0.016667 -0.002107 -0.319608
-0.016667 -0.002434 -0.319608
-0.016767 -0.002759 -0.319580
-0.016767 -0.003085 -0.319580
-0.016667 -0.003414 -0.319608
-0.016667 -0.003741 -0.319608
-0.016667 -0.004068 -0.319608
-0.016667 -0.004395 -0.319608
-0.016667 -0.004722 -0.319608
-0.016667 -0.005048 -0.319608
-0.016567 -0.005379 -0.319636
-0.016567 -0.005706 -0.319636
-0.016467 -0.006038 -0.319664
-0.016367 -0.006371 -0.319692
-0.016267 -0.006703 -0.319720
-0.016267 -0.007031 -0.319720
-0.016167 -0.007365 -0.319748
-0.016167 -0.007693 -0.319748
-0.016067 -0.008027 -0.319777
-0.016067 -0.008355 -0.319777
-0.015867 -0.008697 -0.319833
-0.015667 -0.009040 -0.319889
-0.015567 -0.009377 -0.319917
-0.015467 -0.009714 -0.319945
-0.015367 -0.010051 -0.319973
-0.015167 -0.010398 -0.320029
-0.015067 -0.010737 -0.320058
-0.015067 -0.011067 -0.320058
-0.014867 -0.011416 -0.320114
-0.014767 -0.011756 -0.320142
-0.014667 -0.012097 -0.320170
-0.014467 -0.012448 -0.320226
-0.014267 -0.012800 -0.320282
-0.014167 -0.013143 -0.320310
-0.013967 -0.013497 -0.320367
-0.013767 -0.013852 -0.320423
-0.013567 -0.014208 -0.320479
-0.013167 -0.014587 -0.320591
-0.013067 -0.014934 -0.320619
-0.012867 -0.015293 -0.320676
-0.012667 -0.015653 -0.320732
-0.012467 -0.016014 -0.320788
-0.012167 -0.016389 -0.320872
-0.011867 -0.016765 -0.320957
-0.011367 -0.017168 -0.321097
-0.010867 -0.017574 -0.321238
-0.008867 0.010246 -0.322147
-0.009267 0.009870 -0.322034
-0.010267 0.009454 -0.321750
-0.010667 0.009084 -0.321637
-0.010967 0.008722 -0.321552
-0.011267 0.008362 -0.321467
-0.011467 0.008009 -0.321410
-0.011667 0.007658 -0.321353
-0.011967 0.007302 -0.321268
-0.012267 0.006947 -0.321183
-0.012467 0.006599 -0.321126
-0.012867 0.006243 -0.321013
-0.013067 0.005897 -0.320956
-0.013267 0.005553 -0.320900
-0.013567 0.005206 -0.320814
-0.013667 0.004867 -0.320786
-0.013867 0.004526 -0.320729
-0.014167 0.004182 -0.320644
-0.014367 0.003843 -0.320588
-0.014567 0.003505 -0.320531
-0.014667 0.003171 -0.320503
-0.014867 0.002834 -0.320446
-0.015067 0.002499 -0.320389
-0.015267 0.002165 -0.320332
-0.015467 0.001832 -0.320276
-0.015567 0.001501 -0.320247
-0.015767 0.001169 -0.320191
-0.015867 0.000839 -0.320162
-0.016067 0.000510 -0.320106
-0.016167 0.000181 -0.320077
-0.016367 -0.000147 -0.320021
-0.016367 -0.000474 -0.320021
-0.016467 -0.000801 -0.319992
-0.016467 -0.001128 -0.319992
-0.016667 -0.001453 -0.319936
-0.016667 -0.001780 -0.319936
-0.016667 -0.002107 -0.319936
-0.016667 -0.002434 -0.319936
-0.016667 -0.002761 -0.319936
-0.016667 -0.003088 -0.319936
-0.016667 -0.003414 -0.319936
-0.016667 -0.003741 -0.319936
-0.016667 -0.004068 -0.319936
-0.016667 -0.004395 -0.319936
-0.016667 -0.004722 -0.319936
-0.016667 -0.005048 -0.319936
-0.016567 -0.005379 -0.319964
-0.016567 -0.005706 -0.319964
-0.016467 -0.006038 -0.319992
-0.016367 -0.006371 -0.320021
-0.016367 -0.006698 -0.320021
-0.016267 -0.007031 -0.320049
-0.016167 -0.007365 -0.320077
-0.016067 -0.007699 -0.320106
-0.016067 -0.008027 -0.320106
-0.015867 -0.008368 -0.320162
-0.015867 -0.008697 -0.320162
-0.015667 -0.009040 -0.320219
-0.015467 -0.009384 -0.320276
-0.015467 -0.009714 -0.320276
-0.015367 -0.010051 -0.320304
-0.015167 -0.010398 -0.320361
-0.015067 -0.010737 -0.320389
-0.014967 -0.011076 -0.320418
-0.014867 -0.011416 -0.320446
-0.014767 -0.011756 -0.320474
-0.014567 -0.012107 -0.320531
-0.014367 -0.012458 -0.320588
-0.014167 -0.012810 -0.320644
-0.013967 -0.013163 -0.320701
-0.013867 -0.013507 -0.320729
-0.013567 -0.013873 -0.320814
-0.013467 -0.014219 -0.320843
-0.013167 -0.014587 -0.320928
-0.012967 -0.014945 -0.320985
-0.012767 -0.015305 -0.321041
-0.012567 -0.015665 -0.321098
-0.012367 -0.016026 -0.321155
-0.012067 -0.016401 -0.321240
-0.011667 -0.016790 -0.321353
-0.011267 -0.017181 -0.321467
-0.010767 -0.017587 -0.321608
-0.009267 0.009870 -0.322380
-0.009967 0.009475 -0.322180
-0.010467 0.009097 -0.322037
-0.010767 0.008735 -0.321951
-0.010967 0.008381 -0.321894
-0.011267 0.008021 -0.321808
-0.011467 0.007669 -0.321751
-0.011667 0.007318 -0.321694
-0.012067 0.006958 -0.321579
-0.012267 0.006609 -0.321522
-0.012567 0.006257 -0.321436
-0.012867 0.005906 -0.321350
-0.013067 0.005561 -0.321293
-0.013267 0.005217 -0.321236
-0.013567 0.004871 -0.321150
-0.013767 0.004529 -0.321093
-0.013967 0.004189 -0.321036
-0.014167 0.003849 -0.320978
-0.014367 0.003511 -0.320921
-0.014567 0.003173 -0.320864
-0.014767 0.002836 -0.320807
-0.014867 0.002503 -0.320778
-0.015167 0.002166 -0.320692
-0.015267 0.001834 -0.320664
-0.015467 0.001502 -0.320606
-0.015567 0.001171 -0.320578
-0.015767 0.000840 -0.320521
-0.015867 0.000511 -0.320492
-0.016067 0.000181 -0.320435
-0.016167 -0.000147 -0.320406
-0.016267 -0.000475 -0.320378
-0.016367 -0.000802 -0.320349
-0.016367 -0.001129 -0.320349
-0.016467 -0.001456 -0.320320
-0.016467 -0.001783 -0.320320
-0.016467 -0.002110 -0.320320
-0.016667 -0.002434 -0.320263
-0.016667 -0.002761 -0.320263
-0.016667 -0.003088 -0.320263
-0.016667 -0.003414 -0.320263
-0.016667 -0.003741 -0.320263
-0.016667 -0.004068 -0.320263
-0.016667 -0.004395 -0.320263
-0.016567 -0.004725 -0.320292
-0.016567 -0.005052 -0.320292
-0.016467 -0.005384 -0.320320
-0.016467 -0.005711 -0.320320
-0.016467 -0.006038 -0.320320
-0.016367 -0.006371 -0.320349
-0.016367 -0.006698 -0.320349
-0.016167 -0.007037 -0.320406
-0.016067 -0.007370 -0.320435
-0.016067 -0.007699 -0.320435
-0.016067 -0.008027 -0.320435
-0.015767 -0.008375 -0.320521
-0.015767 -0.008704 -0.320521
-0.015567 -0.009047 -0.320578
-0.015467 -0.009384 -0.320606
-0.015467 -0.009714 -0.320606
-0.015267 -0.010059 -0.320664
-0.015167 -0.010398 -0.320692
-0.014967 -0.010745 -0.320749
-0.014967 -0.011076 -0.320749
-0.014867 -0.011416 -0.320778
-0.014667 -0.011765 -0.320835
-0.014567 -0.012107 -0.320864
-0.014267 -0.012467 -0.320950
-0.014067 -0.012820 -0.321007
-0.013867 -0.013173 -0.321064
-0.013667 -0.013528 -0.321121
-0.013567 -0.013873 -0.321150
-0.013367 -0.014229 -0.321207
-0.013167 -0.014587 -0.321264
-0.012867 -0.014956 -0.321350
-0.012667 -0.015316 -0.321407
-0.012467 -0.015677 -0.321465
-0.012267 -0.016038 -0.321522
-0.012067 -0.016401 -0.321579
-0.011667 -0.016790 -0.321694
-0.011167 -0.017194 -0.321837
-0.009767 0.009489 -0.322582
-0.010267 0.009111 -0.322438
-0.010567 0.008748 -0.322351
-0.010867 0.008387 -0.322265
-0.010967 0.008039 -0.322236
-0.011267 0.007681 -0.322149
-0.011567 0.007324 -0.322063
-0.011767 0.006973 -0.322005
-0.012067 0.006619 -0.321918
-0.012367 0.006266 -0.321832
-0.012467 0.005924 -0.321803
-0.012767 0.005574 -0.321716
-0.012967 0.005229 -0.321659
-0.013167 0.004886 -0.321601
-0.013567 0.004536 -0.321485
-0.013767 0.004195 -0.321428
-0.013967 0.003855 -0.321370
-0.014267 0.003513 -0.321283
-0.014367 0.003178 -0.321255
-0.014567 0.002841 -0.321197
-0.014867 0.002503 -0.321110
-0.014967 0.002170 -0.321081
-0.015167 0.001836 -0.321024
-0.015367 0.001503 -0.320966
-0.015467 0.001172 -0.320937
-0.015567 0.000841 -0.320908
-0.015767 0.000511 -0.320850
-0.015867 0.000182 -0.320822
-0.016067 -0.000147 -0.320764
-0.016067 -0.000475 -0.320764
-0.016167 -0.000803 -0.320735
-0.016367 -0.001129 -0.320677
-0.016367 -0.001457 -0.320677
-0.016367 -0.001784 -0.320677
-0.016367 -0.002112 -0.320677
-0.016667 -0.002434 -0.320591
-0.016667 -0.002761 -0.320591
-0.016567 -0.003090 -0.320620
-0.016467 -0.003420 -0.320648
-0.016567 -0.003744 -0.320620
-0.016667 -0.004068 -0.320591
-0.016667 -0.004395 -0.320591
-0.016567 -0.004725 -0.320620
-0.016467 -0.005056 -0.320648
-0.016467 -0.005384 -0.320648
-0.016467 -0.005711 -0.320648
-0.016367 -0.006043 -0.320677
-0.016367 -0.006371 -0.320677
-0.016267 -0.006703 -0.320706
-0.016067 -0.007042 -0.320764
-0.016067 -0.007370 -0.320764
-0.016067 -0.007699 -0.320764
-0.015867 -0.008040 -0.320822
-0.015767 -0.008375 -0.320850
-0.015667 -0.008711 -0.320879
-0.015567 -0.009047 -0.320908
-0.015467 -0.009384 -0.320937
-0.015367 -0.009721 -0.320966
-0.015167 -0.010067 -0.321024
-0.015167 -0.010398 -0.321024
-0.014867 -0.010753 -0.321110
-0.014867 -0.011084 -0.321110
-0.014667 -0.011433 -0.321168
-0.014567 -0.011774 -0.321197
-0.014367 -0.012125 -0.321255
-0.014167 -0.012477 -0.321312
-0.014067 -0.012820 -0.321341
-0.013767 -0.013183 -0.321428
-0.013567 -0.013538 -0.321485
-0.013367 -0.013894 -0.321543
-0.013167 -0.014251 -0.321601
-0.012967 -0.014609 -0.321659
-0.012767 -0.014968 -0.321716
-0.012567 -0.015328 -0.321774
-0.012367 -0.015689 -0.321832
-0.012067 -0.016063 -0.321918
-0.011867 -0.016426 -0.321976
-0.011467 -0.016815 -0.322092
-0.010967 -0.017220 -0.322236
-0.009567 0.009503 -0.322986
-0.010067 0.009124 -0.322840
-0.010467 0.008755 -0.322724
-0.010667 0.008400 -0.322665
-0.010767 0.008051 -0.322636
-0.011167 0.007687 -0.322520
-0.011267 0.007340 -0.322491
-0.011567 0.006984 -0.322403
-0.011767 0.006634 -0.322345
-0.012067 0.006281 -0.322258
-0.012267 0.005933 -0.322200
-0.012467 0.005587 -0.322141
-0.012767 0.005237 -0.322054
-0.012967 0.004893 -0.321996
-0.013167 0.004550 -0.321937
-0.013567 0.004201 -0.321821
-0.013767 0.003861 -0.321763
-0.013967 0.003521 -0.321704
-0.014267 0.003180 -0.321617
-0.014467 0.002843 -0.321559
-0.014667 0.002507 -0.321501
-0.014867 0.002171 -0.321442
-0.015067 0.001837 -0.321384
-0.015167 0.001505 -0.321355
-0.015367 0.001173 -0.321297
-0.015467 0.000842 -0.321268
-0.015567 0.000512 -0.321239
-0.015767 0.000182 -0.321180
-0.015867 -0.000147 -0.321151
-0.015967 -0.000476 -0.321122
-0.016067 -0.000804 -0.321093
-0.016167 -0.001131 -0.321064
-0.016267 -0.001458 -0.321035
-0.016367 -0.001784 -0.321006
-0.016367 -0.002112 -0.321006
-0.016367 -0.002440 -0.321006
-0.016367 -0.002767 -0.321006
-0.016467 -0.003092 -0.320976
-0.016467 -0.003420 -0.320976
-0.016467 -0.003747 -0.320976
-0.016467 -0.004074 -0.320976
-0.016567 -0.004398 -0.320947
-0.016567 -0.004725 -0.320947
-0.016367 -0.005060 -0.321006
-0.016367 -0.005388 -0.321006
-0.016367 -0.005715 -0.321006
-0.016367 -0.006043 -0.321006
-0.016267 -0.006375 -0.321035
-0.016267 -0.006703 -0.321035
-0.016067 -0.007042 -0.321093
-0.016067 -0.007370 -0.321093
-0.015967 -0.007705 -0.321122
-0.015767 -0.008046 -0.321180
-0.015667 -0.008381 -0.321209
-0.015667 -0.008711 -0.321209
-0.015467 -0.009054 -0.321268
-0.015367 -0.009391 -0.321297
-0.015167 -0.009736 -0.321355
-0.015067 -0.010075 -0.321384
-0.014967 -0.010414 -0.321413
-0.014867 -0.010753 -0.321442
-0.014667 -0.011101 -0.321501
-0.014567 -0.011442 -0.321530
-0.014367 -0.011792 -0.321588
-0.014267 -0.012134 -0.321617
-0.013967 -0.012496 -0.321704
-0.013867 -0.012839 -0.321734
-0.013567 -0.013204 -0.321821
-0.013467 -0.013549 -0.321850
-0.013167 -0.013915 -0.321937
-0.012967 -0.014273 -0.321996
-0.012867 -0.014620 -0.322025
-0.012667 -0.014979 -0.322083
-0.012367 -0.015351 -0.322170
-0.012167 -0.015712 -0.322229
-0.011967 -0.016075 -0.322287
-0.011667 -0.016451 -0.322374
-0.011267 -0.016841 -0.322491
-0.009967 0.009131 -0.323214
-0.010267 0.008768 -0.323126
-0.010467 0.008412 -0.323067
-0.010667 0.008057 -0.323008
-0.010867 0.007704 -0.322950
-0.010967 0.007357 -0.322920
-0.011267 0.007000 -0.322832
-0.011567 0.006644 -0.322744
-0.011767 0.006295 -0.322685
-0.012067 0.005942 -0.322597
-0.012267 0.005595 -0.322538
-0.012467 0.005249 -0.322480
-0.012767 0.004901 -0.322391
-0.012967 0.004557 -0.322333
-0.013167 0.004214 -0.322274
-0.013567 0.003867 -0.322156
-0.013867 0.003524 -0.322068
-0.014067 0.003185 -0.322010
-0.014267 0.002847 -0.321951
-0.014567 0.002509 -0.321863
-0.014767 0.002173 -0.321804
-0.014867 0.001840 -0.321775
-0.015067 0.001506 -0.321716
-0.015167 0.001175 -0.321686
-0.015367 0.000843 -0.321628
-0.015467 0.000512 -0.321598
-0.015567 0.000182 -0.321569
-0.015767 -0.000147 -0.321510
-0.015767 -0.000476 -0.321510
-0.015967 -0.000804 -0.321451
-0.016067 -0.001132 -0.321422
-0.016167 -0.001459 -0.321393
-0.016267 -0.001786 -0.321363
-0.016267 -0.002114 -0.321363
-0.016267 -0.002442 -0.321363
-0.016367 -0.002767 -0.321334
-0.016367 -0.003095 -0.321334
-0.016467 -0.003420 -0.321305
-0.016467 -0.003747 -0.321305
-0.016467 -0.004074 -0.321305
-0.016367 -0.004405 -0.321334
-0.016367 -0.004733 -0.321334
-0.016367 -0.005060 -0.321334
-0.016367 -0.005388 -0.321334
-0.016267 -0.005720 -0.321363
-0.016167 -0.006052 -0.321393
-0.016067 -0.006385 -0.321422
-0.016067 -0.006714 -0.321422
-0.015967 -0.007048 -0.321451
-0.015867 -0.007382 -0.321481
-0.015767 -0.007717 -0.321510
-0.015667 -0.008052 -0.321540
-0.015567 -0.008388 -0.321569
-0.015467 -0.008724 -0.321598
-0.015367 -0.009061 -0.321628
-0.015167 -0.009406 -0.321686
-0.015067 -0.009744 -0.321716
-0.014867 -0.010090 -0.321775
-0.014867 -0.010422 -0.321775
-0.014667 -0.010770 -0.321833
-0.014567 -0.011110 -0.321863
-0.014367 -0.011460 -0.321921
-0.014167 -0.011810 -0.321980
-0.013967 -0.012162 -0.322039
-0.013867 -0.012505 -0.322068
-0.013567 -0.012869 -0.322156
-0.013467 -0.013214 -0.322186
-0.013167 -0.013580 -0.322274
-0.013067 -0.013926 -0.322303
-0.012867 -0.014283 -0.322362
-0.012567 -0.014653 -0.322450
-0.012467 -0.015002 -0.322480
-0.012267 -0.015362 -0.322538
-0.012067 -0.015724 -0.322597
-0.011767 -0.016099 -0.322685
-0.011567 -0.016463 -0.322744
-0.009867 0.008794 -0.323588
-0.010067 0.008437 -0.323529
-0.010367 0.008075 -0.323440
-0.010467 0.007727 -0.323411
-0.010867 0.007362 -0.323292
-0.010967 0.007015 -0.323262
-0.011267 0.006659 -0.323173
-0.011467 0.006309 -0.323114
-0.011667 0.005960 -0.323055
-0.011967 0.005608 -0.322966
-0.012167 0.005261 -0.322907
-0.012467 0.004912 -0.322818
-0.012767 0.004564 -0.322729
-0.012967 0.004221 -0.322670
-0.013267 0.003876 -0.322581
-0.013567 0.003532 -0.322492
-0.013867 0.003190 -0.322403
-0.014067 0.002852 -0.322344
-0.014267 0.002514 -0.322285
-0.014567 0.002176 -0.322196
-0.014767 0.001841 -0.322136
-0.014867 0.001509 -0.322107
-0.015067 0.001175 -0.322047
-0.015167 0.000844 -0.322018
-0.015367 0.000513 -0.321959
-0.015467 0.000182 -0.321929
-0.015567 -0.000148 -0.321899
-0.015667 -0.000477 -0.321870
-0.015767 -0.000805 -0.321840
-0.015867 -0.001134 -0.321810
-0.016067 -0.001460 -0.321751
-0.016067 -0.001789 -0.321751
-0.016167 -0.002115 -0.321722
-0.016167 -0.002443 -0.321722
-0.016267 -0.002769 -0.321692
-0.016267 -0.003097 -0.321692
-0.016367 -0.003422 -0.321662
-0.016367 -0.003750 -0.321662
-0.016367 -0.004077 -0.321662
-0.016367 -0.004405 -0.321662
-0.016267 -0.004736 -0.321692
-0.016267 -0.005064 -0.321692
-0.016167 -0.005396 -0.321722
-0.016067 -0.005729 -0.321751
-0.016067 -0.006057 -0.321751
-0.015967 -0.006390 -0.321781
-0.015867 -0.006724 -0.321810
-0.015767 -0.007058 -0.321840
-0.015767 -0.007388 -0.321840
-0.015667 -0.007723 -0.321870
-0.015467 -0.008064 -0.321929
-0.015467 -0.008394 -0.321929
-0.015267 -0.008738 -0.321988
-0.015167 -0.009075 -0.322018
-0.015067 -0.009413 -0.322047
-0.014867 -0.009759 -0.322107
-0.014767 -0.010098 -0.322136
-0.014667 -0.010438 -0.322166
-0.014567 -0.010778 -0.322196
-0.014367 -0.011127 -0.322255
-0.014167 -0.011477 -0.322314
-0.013967 -0.011829 -0.322373
-0.013767 -0.012181 -0.322433
-0.013567 -0.012534 -0.322492
-0.013467 -0.012879 -0.322522
-0.013167 -0.013244 -0.322610
-0.013067 -0.013590 -0.322640
-0.012867 -0.013947 -0.322699
-0.012667 -0.014305 -0.322759
-0.012467 -0.014664 -0.322818
-0.012267 -0.015024 -0.322877
-0.012067 -0.015386 -0.322936
-0.011867 -0.015748 -0.322996
-0.011667 -0.016111 -0.323055
-0.009767 0.008456 -0.323963
-0.010067 0.008093 -0.323873
-0.010367 0.007733 -0.323784
-0.010467 0.007384 -0.323754
-0.010767 0.007026 -0.323664
-0.010967 0.006674 -0.323604
-0.011267 0.006319 -0.323515
-0.011467 0.005969 -0.323455
-0.011667 0.005620 -0.323395
-0.011967 0.005269 -0.323306
-0.012267 0.004919 -0.323216
-0.012467 0.004574 -0.323156
-0.012767 0.004227 -0.323067
-0.013067 0.003881 -0.322977
-0.013267 0.003540 -0.322917
-0.013567 0.003197 -0.322827
-0.013867 0.002856 -0.322738
-0.014167 0.002516 -0.322648
-0.014267 0.002181 -0.322618
-0.014567 0.001844 -0.322529
-0.014767 0.001510 -0.322469
-0.014867 0.001177 -0.322439
-0.015067 0.000845 -0.322379
-0.015167 0.000513 -0.322349
-0.015267 0.000183 -0.322319
-0.015467 -0.000148 -0.322260
-0.015567 -0.000477 -0.322230
-0.015667 -0.000806 -0.322200
-0.015767 -0.001135 -0.322170
-0.015867 -0.001463 -0.322140
-0.016067 -0.001789 -0.322080
-0.016067 -0.002117 -0.322080
-0.016067 -0.002445 -0.322080
-0.016067 -0.002774 -0.322080
-0.016067 -0.003102 -0.322080
-0.016167 -0.003428 -0.322050
-0.016167 -0.003756 -0.322050
-0.016167 -0.004084 -0.322050
-0.016167 -0.004412 -0.322050
-0.016167 -0.004740 -0.322050
-0.016067 -0.005072 -0.322080
-0.016067 -0.005400 -0.322080
-0.015967 -0.005733 -0.322110
-0.015867 -0.006066 -0.322140
-0.015767 -0.006400 -0.322170
-0.015767 -0.006729 -0.322170
-0.015667 -0.007064 -0.322200
-0.015567 -0.007399 -0.322230
-0.015467 -0.007735 -0.322260
-0.015367 -0.008071 -0.322289
-0.015167 -0.008414 -0.322349
-0.015167 -0.008744 -0.322349
-0.015067 -0.009082 -0.322379
-0.014867 -0.009427 -0.322439
-0.014767 -0.009766 -0.322469
-0.014567 -0.010114 -0.322529
-0.014467 -0.010454 -0.322558
-0.014267 -0.010803 -0.322618
-0.014167 -0.011144 -0.322648
-0.013867 -0.011504 -0.322738
-0.013767 -0.011847 -0.322768
-0.013567 -0.012199 -0.322827
-0.013367 -0.012553 -0.322887
-0.013167 -0.012908 -0.322947
-0.013067 -0.013254 -0.322977
-0.012867 -0.013610 -0.323037
-0.012667 -0.013968 -0.323096
-0.012467 -0.014327 -0.323156
-0.012267 -0.014686 -0.323216
-0.012067 -0.015047 -0.323276
-0.011867 -0.015409 -0.323336
-0.011667 -0.015772 -0.323395
-0.011367 -0.016147 -0.323485
-0.009667 0.008462 -0.324338
-0.009867 0.008105 -0.324278
-0.010067 0.007750 -0.324218
-0.010367 0.007390 -0.324127
-0.010467 0.007042 -0.324097
-0.010767 0.006684 -0.324007
-0.010967 0.006333 -0.323947
-0.011267 0.005978 -0.323856
-0.011467 0.005629 -0.323796
-0.011667 0.005281 -0.323736
-0.011967 0.004930 -0.323645
-0.012267 0.004581 -0.323555
-0.012467 0.004237 -0.323494
-0.012867 0.003887 -0.323374
-0.013067 0.003545 -0.323314
-0.013367 0.003202 -0.323223
-0.013567 0.002863 -0.323163
-0.013867 0.002522 -0.323072
-0.014167 0.002183 -0.322982
-0.014267 0.001849 -0.322952
-0.014567 0.001512 -0.322861
-0.014667 0.001179 -0.322831
-0.014867 0.000846 -0.322771
-0.015067 0.000514 -0.322711
-0.015167 0.000183 -0.322681
-0.015267 -0.000148 -0.322650
-0.015467 -0.000477 -0.322590
-0.015567 -0.000807 -0.322560
-0.015667 -0.001135 -0.322530
-0.015767 -0.001464 -0.322500
-0.015867 -0.001791 -0.322470
-0.015967 -0.002119 -0.322440
-0.015967 -0.002447 -0.322440
-0.015967 -0.002776 -0.322440
-0.016067 -0.003102 -0.322409
-0.016067 -0.003430 -0.322409
-0.016067 -0.003759 -0.322409
-0.016067 -0.004087 -0.322409
-0.016067 -0.004415 -0.322409
-0.015967 -0.004747 -0.322440
-0.015967 -0.005076 -0.322440
-0.015867 -0.005409 -0.322470
-0.015767 -0.005742 -0.322500
-0.015767 -0.006071 -0.322500
-0.015667 -0.006405 -0.322530
-0.015567 -0.006740 -0.322560
-0.015467 -0.007075 -0.322590
-0.015367 -0.007410 -0.322620
-0.015267 -0.007747 -0.322650
-0.015167 -0.008083 -0.322681
-0.015067 -0.008420 -0.322711
-0.014967 -0.008758 -0.322741
-0.014867 -0.009096 -0.322771
-0.014667 -0.009442 -0.322831
-0.014567 -0.009781 -0.322861
-0.014467 -0.010121 -0.322892
-0.014267 -0.010470 -0.322952
-0.014067 -0.010819 -0.323012
-0.013867 -0.011170 -0.323072
-0.013667 -0.011521 -0.323133
-0.013467 -0.011874 -0.323193
-0.013267 -0.012227 -0.323253
-0.013167 -0.012572 -0.323283
-0.012967 -0.012928 -0.323344
-0.012867 -0.013274 -0.323374
-0.012567 -0.013641 -0.323464
-0.012367 -0.014000 -0.323525
-0.012167 -0.014359 -0.323585
-0.012067 -0.014709 -0.323615
-0.011867 -0.015070 -0.323675
-0.011667 -0.015432 -0.323736
-0.011467 -0.015795 -0.323796
-0.009667 0.008117 -0.324684
-0.009967 0.007756 -0.324593
-0.010167 0.007401 -0.324532
-0.010267 0.007052 -0.324502
-0.010467 0.006699 -0.324441
-0.010767 0.006342 -0.324350
-0.010967 0.005991 -0.324289
-0.011267 0.005637 -0.324198
-0.011467 0.005289 -0.324137
-0.011667 0.004941 -0.324076
-0.012067 0.004588 -0.323954
-0.012267 0.004243 -0.323894
-0.012567 0.003896 -0.323802
-0.012867 0.003551 -0.323711
-0.013067 0.003209 -0.323650
-0.013267 0.002869 -0.323590
-0.013567 0.002528 -0.323498
-0.013867 0.002188 -0.323407
-0.014067 0.001851 -0.323346
-0.014267 0.001516 -0.323286
-0.014467 0.001181 -0.323225
-0.014667 0.000847 -0.323164
-0.014867 0.000514 -0.323103
-0.014967 0.000183 -0.323073
-0.015167 -0.000148 -0.323012
-0.015267 -0.000478 -0.322982
-0.015467 -0.000807 -0.322921
-0.015467 -0.001137 -0.322921
-0.015567 -0.001466 -0.322890
-0.015767 -0.001793 -0.322830
-0.015767 -0.002122 -0.322830
-0.015767 -0.002451 -0.322830
-0.015867 -0.002778 -0.322799
-0.015867 -0.003107 -0.322799
-0.015867 -0.003436 -0.322799
-0.015867 -0.003765 -0.322799
-0.015867 -0.004093 -0.322799
-0.015867 -0.004422 -0.322799
-0.015767 -0.004755 -0.322830
-0.015767 -0.005084 -0.322830
-0.015767 -0.005413 -0.322830
-0.015667 -0.005746 -0.322860
-0.015567 -0.006081 -0.322890
-0.015467 -0.006415 -0.322921
-0.015367 -0.006750 -0.322951
-0.015267 -0.007086 -0.322982
-0.015167 -0.007422 -0.323012
-0.015167 -0.007753 -0.323012
-0.014967 -0.008096 -0.323073
-0.014867 -0.008433 -0.323103
-0.014767 -0.008771 -0.323134
-0.014567 -0.009117 -0.323194
-0.014467 -0.009456 -0.323225
-0.014267 -0.009804 -0.323286
-0.014167 -0.010145 -0.323316
-0.013967 -0.010494 -0.323377
-0.013867 -0.010836 -0.323407
-0.013567 -0.011195 -0.323498
-0.013467 -0.011539 -0.323529
-0.013167 -0.011901 -0.323620
-0.013067 -0.012246 -0.323650
-0.012867 -0.012601 -0.323711
-0.012667 -0.012957 -0.323772
-0.012467 -0.013314 -0.323833
-0.012467 -0.013652 -0.323833
-0.012067 -0.014031 -0.323954
-0.012067 -0.014370 -0.323954
-0.011767 -0.014742 -0.324046
-0.011667 -0.015092 -0.324076
-0.011467 -0.015455 -0.324137
-0.009767 0.007767 -0.324999
-0.010067 0.007406 -0.324907
-0.010167 0.007057 -0.324876
-0.010367 0.006704 -0.324815
-0.010467 0.006356 -0.324784
-0.010767 0.006000 -0.324692
-0.010967 0.005650 -0.324631
-0.011267 0.005297 -0.324539
-0.011467 0.004949 -0.324478
-0.011667 0.004602 -0.324416
-0.012067 0.004249 -0.324294
-0.012267 0.003905 -0.324232
-0.012567 0.003559 -0.324140
-0.012867 0.003214 -0.324048
-0.013067 0.002874 -0.323987
-0.013267 0.002534 -0.323926
-0.013567 0.002193 -0.323834
-0.013767 0.001856 -0.323773
-0.013967 0.001519 -0.323711
-0.014267 0.001183 -0.323619
-0.014467 0.000848 -0.323558
-0.014567 0.000516 -0.323527
-0.014767 0.000183 -0.323466
-0.014967 -0.000148 -0.323405
-0.015067 -0.000479 -0.323374
-0.015167 -0.000809 -0.323343
-0.015367 -0.001138 -0.323282
-0.015467 -0.001467 -0.323251
-0.015567 -0.001796 -0.323221
-0.015667 -0.002124 -0.323190
-0.015667 -0.002453 -0.323190
-0.015667 -0.002782 -0.323190
-0.015767 -0.003109 -0.323160
-0.015767 -0.003438 -0.323160
-0.015767 -0.003767 -0.323160
-0.015767 -0.004097 -0.323160
-0.015767 -0.004426 -0.323160
-0.015667 -0.004758 -0.323190
-0.015667 -0.005088 -0.323190
-0.015567 -0.005421 -0.323221
-0.015467 -0.005755 -0.323251
-0.015467 -0.006085 -0.323251
-0.015267 -0.006425 -0.323313
-0.015167 -0.006761 -0.323343
-0.015167 -0.007091 -0.323343
-0.014967 -0.007433 -0.323405
-0.014867 -0.007770 -0.323435
-0.014767 -0.008108 -0.323466
-0.014667 -0.008446 -0.323497
-0.014567 -0.008785 -0.323527
-0.014367 -0.009131 -0.323589
-0.014267 -0.009471 -0.323619
-0.014067 -0.009819 -0.323681
-0.013867 -0.010168 -0.323742
-0.013767 -0.010510 -0.323773
-0.013567 -0.010861 -0.323834
-0.013367 -0.011212 -0.323895
-0.013167 -0.011565 -0.323957
-0.012967 -0.011919 -0.324018
-0.012767 -0.012274 -0.324079
-0.012567 -0.012630 -0.324140
-0.012467 -0.012977 -0.324171
-0.012267 -0.013334 -0.324232
-0.012067 -0.013693 -0.324294
-0.011967 -0.014042 -0.324324
-0.011767 -0.014402 -0.324386
-0.011667 -0.014753 -0.324416
-0.011467 -0.015115 -0.324478
-0.009967 0.007412 -0.325282
-0.010067 0.007063 -0.325251
-0.010167 0.006714 -0.325220
-0.010367 0.006361 -0.325159
-0.010567 0.006009 -0.325097
-0.010867 0.005654 -0.325004
-0.010967 0.005309 -0.324973
-0.011267 0.004956 -0.324880
-0.011467 0.004609 -0.324818
-0.011667 0.004262 -0.324757
-0.011967 0.003914 -0.324664
-0.012267 0.003567 -0.324571
-0.012467 0.003224 -0.324509
-0.012767 0.002880 -0.324417
-0.012967 0.002539 -0.324355
-0.013167 0.002200 -0.324293
-0.013467 0.001860 -0.324200
-0.013667 0.001523 -0.324138
-0.013867 0.001186 -0.324077
-0.014167 0.000850 -0.323984
-0.014267 0.000517 -0.323953
-0.014567 0.000184 -0.323860
-0.014667 -0.000149 -0.323829
-0.014867 -0.000480 -0.323768
-0.014967 -0.000810 -0.323737
-0.015167 -0.001140 -0.323675
-0.015267 -0.001469 -0.323644
-0.015367 -0.001798 -0.323613
-0.015467 -0.002127 -0.323582
-0.015467 -0.002457 -0.323582
-0.015467 -0.002787 -0.323582
-0.015467 -0.003116 -0.323582
-0.015567 -0.003444 -0.323551
-0.015567 -0.003773 -0.323551
-0.015567 -0.004103 -0.323551
-0.015467 -0.004436 -0.323582
-0.015467 -0.004766 -0.323582
-0.015467 -0.005096 -0.323582
-0.015367 -0.005430 -0.323613
-0.015367 -0.005760 -0.323613
-0.015167 -0.006099 -0.323675
-0.015167 -0.006430 -0.323675
-0.015067 -0.006766 -0.323706
-0.014867 -0.007108 -0.323768
-0.014767 -0.007445 -0.323799
-0.014667 -0.007782 -0.323829
-0.014567 -0.008121 -0.323860
-0.014467 -0.008459 -0.323891
-0.014267 -0.008805 -0.323953
-0.014267 -0.009138 -0.323953
-0.014067 -0.009485 -0.324015
-0.013867 -0.009834 -0.324077
-0.013667 -0.010183 -0.324138
-0.013567 -0.010526 -0.324169
-0.013367 -0.010877 -0.324231
-0.013167 -0.011229 -0.324293
-0.012867 -0.011591 -0.324386
-0.012767 -0.011937 -0.324417
-0.012567 -0.012292 -0.324479
-0.012467 -0.012639 -0.324509
-0.012267 -0.012996 -0.324571
-0.012067 -0.013354 -0.324633
-0.011967 -0.013703 -0.324664
-0.011767 -0.014063 -0.324726
-0.011667 -0.014413 -0.324757
-0.011567 -0.014764 -0.324788
-0.009967 0.007068 -0.325627
-0.010067 0.006719 -0.325596
-0.010267 0.006366 -0.325533
-0.010467 0.006014 -0.325471
-0.010567 0.005667 -0.325440
-0.010867 0.005313 -0.325346
-0.010967 0.004967 -0.325315
-0.011267 0.004616 -0.325222
-0.011467 0.004269 -0.325159
-0.011667 0.003923 -0.325097
-0.011967 0.003575 -0.325004
-0.012067 0.003234 -0.324972
-0.012367 0.002889 -0.324879
-0.012567 0.002547 -0.324817
-0.012867 0.002205 -0.324723
-0.013167 0.001864 -0.324630
-0.013367 0.001526 -0.324567
-0.013567 0.001189 -0.324505
-0.013867 0.000852 -0.324411
-0.013967 0.000518 -0.324380
-0.014267 0.000184 -0.324287
-0.014367 -0.000149 -0.324256
-0.014567 -0.000481 -0.324193
-0.014667 -0.000812 -0.324162
-0.014867 -0.001143 -0.324100
-0.014967 -0.001473 -0.324069
-0.015167 -0.001801 -0.324006
-0.015167 -0.002132 -0.324006
-0.015167 -0.002462 -0.324006
-0.015267 -0.002791 -0.323975
-0.015367 -0.003119 -0.323944
-0.015367 -0.003449 -0.323944
-0.015367 -0.003779 -0.323944
-0.015367 -0.004109 -0.323944
-0.015367 -0.004439 -0.323944
-0.015267 -0.004773 -0.323975
-0.015267 -0.005104 -0.323975
-0.015167 -0.005438 -0.324006
-0.015167 -0.005769 -0.324006
-0.015067 -0.006104 -0.324037
-0.014967 -0.006440 -0.324069
-0.014867 -0.006776 -0.324100
-0.014667 -0.007119 -0.324162
-0.014567 -0.007456 -0.324193
-0.014467 -0.007794 -0.324224
-0.014367 -0.008133 -0.324256
-0.014267 -0.008472 -0.324287
-0.014067 -0.008819 -0.324349
-0.013967 -0.009159 -0.324380
-0.013867 -0.009500 -0.324411
-0.013567 -0.009856 -0.324505
-0.013467 -0.010199 -0.324536
-0.013267 -0.010550 -0.324598
-0.013167 -0.010894 -0.324630
-0.012867 -0.011255 -0.324723
-0.012667 -0.011609 -0.324785
-0.012567 -0.011955 -0.324817
-0.012367 -0.012311 -0.324879
-0.012267 -0.012658 -0.324910
-0.012067 -0.013016 -0.324972
-0.011967 -0.013364 -0.325004
-0.011767 -0.013724 -0.325066
-0.011667 -0.014074 -0.325097
-0.011667 -0.014413 -0.325097
-0.010067 0.006719 -0.325940
-0.010167 0.006371 -0.325909
-0.010367 0.006018 -0.325846
-0.010467 0.005671 -0.325814
-0.010667 0.005321 -0.325752
-0.010767 0.004975 -0.325720
-0.010967 0.004626 -0.325657
-0.011167 0.004278 -0.325594
-0.011367 0.003932 -0.325532
-0.011667 0.003583 -0.325437
-0.011867 0.003239 -0.325375
-0.012067 0.002895 -0.325312
-0.012267 0.002553 -0.325249
-0.012467 0.002212 -0.325186
-0.012767 0.001870 -0.325092
-0.012967 0.001531 -0.325029
-0.013167 0.001193 -0.324966
-0.013467 0.000855 -0.324872
-0.013667 0.000519 -0.324809
-0.013867 0.000184 -0.324746
-0.014067 -0.000149 -0.324683
-0.014267 -0.000482 -0.324620
-0.014467 -0.000814 -0.324558
-0.014567 -0.001145 -0.324526
-0.014667 -0.001476 -0.324495
-0.014867 -0.001805 -0.324432
-0.014967 -0.002135 -0.324401
-0.014967 -0.002466 -0.324401
-0.015067 -0.002795 -0.324369
-0.015067 -0.003126 -0.324369
-0.015167 -0.003454 -0.324338
-0.015167 -0.003785 -0.324338
-0.015167 -0.004116 -0.324338
-0.015167 -0.004446 -0.324338
-0.015067 -0.004781 -0.324369
-0.015067 -0.005111 -0.324369
-0.014967 -0.005446 -0.324401
-0.014867 -0.005782 -0.324432
-0.014867 -0.006113 -0.324432
-0.014667 -0.006455 -0.324495
-0.014567 -0.006792 -0.324526
-0.014567 -0.007124 -0.324526
-0.014367 -0.007468 -0.324589
-0.014267 -0.007806 -0.324620
-0.014167 -0.008145 -0.324652
-0.013967 -0.008492 -0.324715
-0.013867 -0.008832 -0.324746
-0.013667 -0.009180 -0.324809
-0.013567 -0.009522 -0.324840
-0.013367 -0.009871 -0.324903
-0.013167 -0.010222 -0.324966
-0.013067 -0.010566 -0.324997
-0.012867 -0.010918 -0.325060
-0.012767 -0.011264 -0.325092
-0.012467 -0.011627 -0.325186
-0.012367 -0.011973 -0.325217
-0.012267 -0.012320 -0.325249
-0.012067 -0.012677 -0.325312
-0.011967 -0.013026 -0.325343
-0.011867 -0.013375 -0.325375
-0.011867 -0.013714 -0.325375
-0.011667 -0.014074 -0.325437
-0.010067 0.006375 -0.326285
-0.010267 0.006023 -0.326221
-0.010367 0.005675 -0.326190
-0.010467 0.005328 -0.326158
-0.010567 0.004982 -0.326126
-0.010767 0.004633 -0.326063
-0.010967 0.004285 -0.325999
-0.011167 0.003937 -0.325936
-0.011267 0.003594 -0.325904
-0.011467 0.003248 -0.325841
-0.011667 0.002904 -0.325778
-0.011867 0.002561 -0.325714
-0.012067 0.002218 -0.325651
-0.012467 0.001874 -0.325524
-0.012567 0.001535 -0.325493
-0.012867 0.001195 -0.325398
-0.013067 0.000858 -0.325334
-0.013267 0.000521 -0.325271
-0.013567 0.000185 -0.325176
-0.013767 -0.000150 -0.325113
-0.013867 -0.000483 -0.325081
-0.014067 -0.000816 -0.325018
-0.014267 -0.001148 -0.324954
-0.014367 -0.001480 -0.324923
-0.014567 -0.001809 -0.324859
-0.014567 -0.002142 -0.324859
-0.014567 -0.002474 -0.324859
-0.014667 -0.002804 -0.324827
-0.014767 -0.003133 -0.324796
-0.014867 -0.003462 -0.324764
-0.014867 -0.003794 -0.324764
-0.014867 -0.004125 -0.324764
-0.014867 -0.004456 -0.324764
-0.014867 -0.004788 -0.324764
-0.014867 -0.005119 -0.324764
-0.014767 -0.005455 -0.324796
-0.014667 -0.005791 -0.324827
-0.014567 -0.006128 -0.324859
-0.014567 -0.006460 -0.324859
-0.014367 -0.006802 -0.324923
-0.014267 -0.007140 -0.324954
-0.014167 -0.007479 -0.324986
-0.013967 -0.007824 -0.325049
-0.013867 -0.008164 -0.325081
-0.013767 -0.008505 -0.325113
-0.013567 -0.008852 -0.325176
-0.013567 -0.009187 -0.325176
-0.013367 -0.009536 -0.325239
-0.013167 -0.009886 -0.325303
-0.013067 -0.010230 -0.325334
-0.012867 -0.010582 -0.325398
-0.012767 -0.010927 -0.325429
-0.012567 -0.011281 -0.325493
-0.012367 -0.011635 -0.325556
-0.012267 -0.011982 -0.325588
-0.012067 -0.012339 -0.325651
-0.012067 -0.012677 -0.325651
-0.011967 -0.013026 -0.325683
-0.011867 -0.013375 -0.325714
-0.010167 0.006027 -0.326597
-0.010267 0.005680 -0.326565
-0.010367 0.005332 -0.326533
-0.010467 0.004986 -0.326501
-0.010567 0.004640 -0.326469
-0.010667 0.004294 -0.326437
-0.010867 0.003946 -0.326374
-0.010967 0.003602 -0.326342
-0.011167 0.003256 -0.326278
-0.011267 0.002913 -0.326246
-0.011567 0.002566 -0.326150
-0.011767 0.002223 -0.326086
-0.012067 0.001880 -0.325990
-0.012267 0.001539 -0.325926
-0.012467 0.001199 -0.325863
-0.012667 0.000860 -0.325799
-0.012867 0.000522 -0.325735
-0.013167 0.000185 -0.325639
-0.013267 -0.000150 -0.325607
-0.013567 -0.000485 -0.325511
-0.013767 -0.000818 -0.325448
-0.013867 -0.001151 -0.325416
-0.013967 -0.001484 -0.325384
-0.014167 -0.001815 -0.325320
-0.014267 -0.002147 -0.325288
-0.014267 -0.002479 -0.325288
-0.014467 -0.002808 -0.325224
-0.014567 -0.003138 -0.325192
-0.014567 -0.003470 -0.325192
-0.014567 -0.003802 -0.325192
-0.014567 -0.004135 -0.325192
-0.014567 -0.004467 -0.325192
-0.014567 -0.004799 -0.325192
-0.014567 -0.005131 -0.325192
-0.014567 -0.005463 -0.325192
-0.014467 -0.005800 -0.325224
-0.014267 -0.006142 -0.325288
-0.014267 -0.006475 -0.325288
-0.014067 -0.006818 -0.325352
-0.013967 -0.007157 -0.325384
-0.013867 -0.007496 -0.325416
-0.013767 -0.007836 -0.325448
-0.013567 -0.008183 -0.325511
-0.013567 -0.008518 -0.325511
-0.013367 -0.008866 -0.325575
-0.013267 -0.009208 -0.325607
-0.013167 -0.009551 -0.325639
-0.012967 -0.009901 -0.325703
-0.012867 -0.010245 -0.325735
-0.012767 -0.010590 -0.325767
-0.012567 -0.010943 -0.325831
-0.012467 -0.011289 -0.325863
-0.012267 -0.011644 -0.325926
-0.012067 -0.012000 -0.325990
-0.012067 -0.012339 -0.325990
-0.011967 -0.012687 -0.326022
-0.011967 -0.013026 -0.326022
-0.010267 0.005336 -0.326909
-0.010267 0.004993 -0.326909
-0.010467 0.004643 -0.326845
-0.010467 0.004301 -0.326845
-0.010567 0.003955 -0.326812
-0.010667 0.003610 -0.326780
-0.010867 0.003263 -0.326716
-0.010967 0.002919 -0.326684
-0.011267 0.002572 -0.326587
-0.011367 0.002230 -0.326555
-0.011667 0.001885 -0.326458
-0.011867 0.001543 -0.326394
-0.012067 0.001203 -0.326330
-0.012267 0.000863 -0.326265
-0.012467 0.000524 -0.326201
-0.012667 0.000186 -0.326137
-0.012867 -0.000151 -0.326072
-0.013067 -0.000486 -0.326008
-0.013267 -0.000821 -0.325943
-0.013567 -0.001154 -0.325847
-0.013667 -0.001488 -0.325815
-0.013767 -0.001821 -0.325783
-0.013867 -0.002153 -0.325750
-0.013867 -0.002487 -0.325750
-0.014067 -0.002817 -0.325686
-0.014167 -0.003148 -0.325654
-0.014267 -0.003478 -0.325622
-0.014267 -0.003811 -0.325622
-0.014267 -0.004144 -0.325622
-0.014267 -0.004477 -0.325622
-0.014267 -0.004810 -0.325622
-0.014267 -0.005143 -0.325622
-0.014267 -0.005476 -0.325622
-0.014167 -0.005813 -0.325654
-0.014067 -0.006151 -0.325686
-0.013867 -0.006494 -0.325750
-0.013867 -0.006828 -0.325750
-0.013767 -0.007168 -0.325783
-0.013567 -0.007513 -0.325847
-0.013567 -0.007848 -0.325847
-0.013367 -0.008195 -0.325911
-0.013267 -0.008537 -0.325943
-0.013167 -0.008879 -0.325976
-0.013067 -0.009222 -0.326008
-0.012867 -0.009572 -0.326072
-0.012867 -0.009909 -0.326072
-0.012667 -0.010261 -0.326137
-0.012567 -0.010606 -0.326169
-0.012467 -0.010952 -0.326201
-0.012367 -0.011298 -0.326233
-0.012167 -0.011653 -0.326297
-0.012067 -0.012000 -0.326330
-0.012167 -0.012330 -0.326297
-0.010167 0.004997 -0.327285
-0.010267 0.004650 -0.327253
-0.010267 0.004307 -0.327253
-0.010367 0.003961 -0.327221
-0.010467 0.003615 -0.327188
-0.010567 0.003270 -0.327156
-0.010767 0.002924 -0.327091
-0.010867 0.002580 -0.327058
-0.011067 0.002235 -0.326993
-0.011267 0.001891 -0.326929
-0.011467 0.001548 -0.326864
-0.011667 0.001206 -0.326799
-0.011767 0.000866 -0.326766
-0.012067 0.000526 -0.326669
-0.012167 0.000187 -0.326637
-0.012467 -0.000151 -0.326539
-0.012667 -0.000488 -0.326474
-0.012867 -0.000824 -0.326409
-0.013067 -0.001158 -0.326345
-0.013167 -0.001493 -0.326312
-0.013467 -0.001825 -0.326215
-0.013567 -0.002158 -0.326182
-0.013567 -0.002493 -0.326182
-0.013667 -0.002825 -0.326150
-0.013767 -0.003157 -0.326117
-0.013867 -0.003489 -0.326085
-0.013867 -0.003823 -0.326085
-0.013867 -0.004157 -0.326085
-0.013867 -0.004491 -0.326085
-0.013867 -0.004825 -0.326085
-0.013867 -0.005159 -0.326085
-0.013867 -0.005493 -0.326085
-0.013867 -0.005827 -0.326085
-0.013767 -0.006165 -0.326117
-0.013667 -0.006504 -0.326150
-0.013567 -0.006844 -0.326182
-0.013467 -0.007184 -0.326215
-0.013367 -0.007525 -0.326247
-0.013167 -0.007872 -0.326312
-0.013167 -0.008208 -0.326312
-0.013067 -0.008550 -0.326345
-0.012867 -0.008900 -0.326409
-0.012867 -0.009236 -0.326409
-0.012767 -0.009580 -0.326442
-0.012667 -0.009924 -0.326474
-0.012567 -0.010269 -0.326507
-0.012467 -0.010614 -0.326539
-0.012467 -0.010952 -0.326539
-0.012367 -0.011298 -0.326572
-0.012167 -0.011653 -0.326637
-0.012167 -0.011991 -0.326637
-0.010167 0.004310 -0.327630
-0.010167 0.003967 -0.327630
-0.010267 0.003621 -0.327597
-0.010267 0.003278 -0.327597
-0.010467 0.002930 -0.327531
-0.010467 0.002588 -0.327531
-0.010667 0.002242 -0.327466
-0.010867 0.001897 -0.327401
-0.011067 0.001553 -0.327335
-0.011267 0.001210 -0.327270
-0.011367 0.000869 -0.327237
-0.011667 0.000527 -0.327139
-0.011767 0.000187 -0.327106
-0.012067 -0.000152 -0.327008
-0.012167 -0.000490 -0.326976
-0.012467 -0.000826 -0.326878
-0.012667 -0.001162 -0.326812
-0.012867 -0.001497 -0.326747
-0.012967 -0.001832 -0.326714
-0.013167 -0.002165 -0.326649
-0.013267 -0.002498 -0.326616
-0.013267 -0.002834 -0.326616
-0.013367 -0.003167 -0.326583
-0.013467 -0.003500 -0.326551
-0.013567 -0.003832 -0.326518
-0.013567 -0.004166 -0.326518
-0.013567 -0.004501 -0.326518
-0.013567 -0.004836 -0.326518
-0.013567 -0.005170 -0.326518
-0.013567 -0.005505 -0.326518
-0.013567 -0.005840 -0.326518
-0.013467 -0.006179 -0.326551
-0.013367 -0.006519 -0.326583
-0.013267 -0.006860 -0.326616
-0.013167 -0.007201 -0.326649
-0.013167 -0.007536 -0.326649
-0.013067 -0.007878 -0.326681
-0.012967 -0.008220 -0.326714
-0.012867 -0.008563 -0.326747
-0.012767 -0.008906 -0.326779
-0.012667 -0.009250 -0.326812
-0.012667 -0.009587 -0.326812
-0.012567 -0.009932 -0.326845
-0.012467 -0.010277 -0.326878
-0.012467 -0.010614 -0.326878
-0.012467 -0.010952 -0.326878
-0.012367 -0.011298 -0.326910
-0.010067 0.003626 -0.328007
-0.010067 0.003283 -0.328007
-0.010167 0.002937 -0.327974
-0.010367 0.002590 -0.327908
-0.010467 0.002245 -0.327875
-0.010567 0.001901 -0.327842
-0.010767 0.001556 -0.327776
-0.010867 0.001214 -0.327743
-0.011167 0.000870 -0.327644
-0.011267 0.000529 -0.327611
-0.011367 0.000188 -0.327578
-0.011567 -0.000152 -0.327512
-0.011767 -0.000491 -0.327447
-0.011967 -0.000829 -0.327381
-0.012167 -0.001166 -0.327315
-0.012467 -0.001501 -0.327216
-0.012567 -0.001837 -0.327183
-0.012767 -0.002171 -0.327117
-0.012867 -0.002506 -0.327084
-0.012867 -0.002843 -0.327084
-0.012967 -0.003177 -0.327051
-0.013067 -0.003510 -0.327018
-0.013167 -0.003843 -0.326985
-0.013167 -0.004179 -0.326985
-0.013167 -0.004515 -0.326985
-0.013167 -0.004850 -0.326985
-0.013167 -0.005186 -0.326985
-0.013167 -0.005522 -0.326985
-0.013167 -0.005858 -0.326985
-0.013167 -0.006193 -0.326985
-0.013167 -0.006529 -0.326985
-0.013067 -0.006870 -0.327018
-0.012967 -0.007212 -0.327051
-0.012867 -0.007554 -0.327084
-0.012867 -0.007890 -0.327084
-0.012767 -0.008233 -0.327117
-0.012767 -0.008569 -0.327117
-0.012567 -0.008920 -0.327183
-0.012567 -0.009257 -0.327183
-0.012467 -0.009602 -0.327216
-0.012467 -0.009939 -0.327216
-0.012467 -0.010277 -0.327216
-0.012467 -0.010614 -0.327216
-0.010067 0.002939 -0.328351
-0.010167 0.002593 -0.328318
-0.010267 0.002248 -0.328285
-0.010367 0.001904 -0.328252
-0.010467 0.001560 -0.328218
-0.010667 0.001215 -0.328152
-0.010767 0.000873 -0.328119
-0.010867 0.000530 -0.328085
-0.011067 0.000188 -0.328019
-0.011267 -0.000152 -0.327953
-0.011367 -0.000493 -0.327919
-0.011567 -0.000832 -0.327853
-0.011667 -0.001171 -0.327820
-0.011967 -0.001507 -0.327720
-0.012067 -0.001844 -0.327687
-0.012267 -0.002179 -0.327621
-0.012467 -0.002514 -0.327554
-0.012467 -0.002851 -0.327554
-0.012567 -0.003186 -0.327521
-0.012667 -0.003521 -0.327488
-0.012767 -0.003855 -0.327455
-0.012867 -0.004189 -0.327421
-0.012867 -0.004525 -0.327421
-0.012867 -0.004862 -0.327421
-0.012867 -0.005198 -0.327421
-0.012867 -0.005535 -0.327421
-0.012867 -0.005871 -0.327421
-0.012867 -0.006208 -0.327421
-0.012867 -0.006544 -0.327421
-0.012767 -0.006886 -0.327455
-0.012767 -0.007222 -0.327455
-0.012667 -0.007565 -0.327488
-0.012667 -0.007902 -0.327488
-0.012567 -0.008245 -0.327521
-0.012467 -0.008589 -0.327554
-0.012467 -0.008926 -0.327554
-0.012467 -0.009264 -0.327554
-0.012467 -0.009602 -0.327554
-0.010067 0.002252 -0.328696
-0.010167 0.001907 -0.328662
-0.010267 0.001562 -0.328629
-0.010467 0.001217 -0.328562
-0.010567 0.000874 -0.328528
-0.010667 0.000531 -0.328495
-0.010867 0.000189 -0.328428
-0.010867 -0.000153 -0.328428
-0.010967 -0.000494 -0.328394
-0.011267 -0.000834 -0.328294
-0.011367 -0.001173 -0.328261
-0.011567 -0.001511 -0.328194
-0.011667 -0.001850 -0.328160
-0.011767 -0.002188 -0.328127
-0.011967 -0.002523 -0.328060
-0.011967 -0.002862 -0.328060
-0.012067 -0.003198 -0.328026
-0.012167 -0.003534 -0.327993
-0.012267 -0.003870 -0.327959
-0.012367 -0.004204 -0.327926
-0.012367 -0.004542 -0.327926
-0.012367 -0.004880 -0.327926
-0.012367 -0.005218 -0.327926
-0.012367 -0.005556 -0.327926
-0.012467 -0.005889 -0.327892
-0.012467 -0.006226 -0.327892
-0.012367 -0.006569 -0.327926
-0.012367 -0.006907 -0.327926
-0.012367 -0.007244 -0.327926
-0.012367 -0.007582 -0.327926
-0.012367 -0.007920 -0.327926
-0.012367 -0.008258 -0.327926
-0.012367 -0.008595 -0.327926
-0.010167 0.001563 -0.329006
-0.010267 0.001219 -0.328973
-0.010367 0.000875 -0.328939
-0.010467 0.000532 -0.328905
-0.010567 0.000189 -0.328871
-0.010667 -0.000153 -0.328838
-0.010867 -0.000494 -0.328770
-0.010867 -0.000836 -0.328770
-0.011067 -0.001176 -0.328703
-0.011267 -0.001515 -0.328635
-0.011267 -0.001855 -0.328635
-0.011467 -0.002193 -0.328568
-0.011567 -0.002531 -0.328534
-0.011567 -0.002871 -0.328534
-0.011667 -0.003208 -0.328501
-0.011767 -0.003545 -0.328467
-0.011867 -0.003881 -0.328433
-0.011867 -0.004220 -0.328433
-0.011867 -0.004559 -0.328433
-0.011867 -0.004898 -0.328433
-0.011867 -0.005237 -0.328433
-0.011867 -0.005576 -0.328433
-0.011867 -0.005916 -0.328433
-0.011867 -0.006255 -0.328433
-0.011967 -0.006589 -0.328399
-0.011967 -0.006927 -0.328399
-0.012067 -0.007261 -0.328366
-0.012067 -0.007599 -0.328366
-0.012067 -0.007938 -0.328366
-0.010267 0.000533 -0.329317
-0.010467 0.000189 -0.329249
-0.010467 -0.000153 -0.329249
-0.010567 -0.000496 -0.329215
-0.010767 -0.000837 -0.329147
-0.010867 -0.001178 -0.329113
-0.010967 -0.001518 -0.329079
-0.011167 -0.001857 -0.329011
-0.011267 -0.002196 -0.328977
-0.011367 -0.002535 -0.328943
-0.011367 -0.002875 -0.328943
-0.011467 -0.003213 -0.328909
-0.011567 -0.003550 -0.328875
-0.011567 -0.003890 -0.328875
-0.011667 -0.004227 -0.328841
-0.011667 -0.004566 -0.328841
-0.011667 -0.004906 -0.328841
-0.011567 -0.005249 -0.328875
-0.011567 -0.005589 -0.328875
-0.011567 -0.005929 -0.328875
-0.011567 -0.006269 -0.328875
-0.011567 -0.006608 -0.328875
-0.010667 -0.001179 -0.329524
-0.010767 -0.001520 -0.329489
-0.010867 -0.001861 -0.329455
-0.011067 -0.002199 -0.329387
-0.011267 -0.002536 -0.329318
-0.011267 -0.002877 -0.329318
-0.011267 -0.003218 -0.329318
-0.011267 -0.003558 -0.329318
-0.011267 -0.003899 -0.329318
-0.011267 -0.004239 -0.329318
-0.011267 -0.004580 -0.329318
-0.011267 -0.004920 -0.329318
-0.011267 -0.005261 -0.329318
