ply
format ascii 1.0
element vertex 257
property float x
property float y
property float z
end_header
0.183779 -0.213480 0.290310
0.183668 -0.211237 0.289724
0.183156 -0.210952 0.289600
0.182693 -0.210437 0.289422
0.182181 -0.210153 0.289299
0.184644 -0.214774 0.290177
0.184128 -0.214486 0.290052
0.183683 -0.213853 0.289846
0.183167 -0.213566 0.289722
0.182652 -0.213278 0.289597
0.182379 -0.211842 0.289204
0.181866 -0.211556 0.289080
0.185352 -0.216882 0.290232
0.184949 -0.216014 0.289972
0.184548 -0.215148 0.289712
0.184032 -0.214860 0.289588
0.183516 -0.214573 0.289463
0.182928 -0.214631 0.289419
0.182556 -0.213652 0.289134
0.182040 -0.213364 0.289009
0.186522 -0.219638 0.290493
0.186001 -0.219347 0.290367
0.185593 -0.218476 0.290106
0.185187 -0.217606 0.289847
0.184783 -0.216737 0.289587
0.184335 -0.216101 0.289382
0.183865 -0.215581 0.289204
0.183348 -0.215293 0.289079
0.182832 -0.215005 0.288954
0.182315 -0.214717 0.288829
0.175647 -0.325266 0.312933
0.174562 -0.327122 0.313272
0.173469 -0.328974 0.313608
0.172551 -0.329757 0.313703
0.177463 -0.328030 0.313051
0.177025 -0.325970 0.312505
0.176320 -0.325577 0.312334
0.175516 -0.325777 0.312297
0.174430 -0.327637 0.312633
0.173336 -0.329491 0.312966
0.172417 -0.330276 0.313058
0.181955 -0.323327 0.311655
0.181186 -0.323418 0.311595
0.180139 -0.325302 0.311935
0.179271 -0.325987 0.312007
0.178209 -0.327863 0.312344
0.177331 -0.328543 0.312413
0.176622 -0.328148 0.312242
0.175718 -0.328943 0.312337
0.174731 -0.330211 0.312536
0.173717 -0.331594 0.312760
0.172616 -0.333448 0.313087
0.171793 -0.333639 0.313045
0.184468 -0.321141 0.310674
0.183621 -0.321840 0.310749
0.182770 -0.322536 0.310823
0.181825 -0.323830 0.311030
0.181057 -0.323922 0.310968
0.180009 -0.325809 0.311306
0.179140 -0.326496 0.311375
0.178077 -0.328375 0.311709
0.177007 -0.330249 0.312041
0.175928 -0.332119 0.312370
0.174939 -0.333389 0.312566
0.173923 -0.334774 0.312787
0.172902 -0.336155 0.313006
0.171671 -0.338721 0.313486
0.170941 -0.338314 0.313309
0.186472 -0.322307 0.310446
0.185648 -0.322890 0.310494
0.184873 -0.323109 0.310462
0.183868 -0.324893 0.310775
0.183086 -0.325108 0.310740
0.182229 -0.325803 0.310811
0.181278 -0.327097 0.311014
0.180505 -0.327187 0.310951
0.179544 -0.328475 0.311151
0.178483 -0.330358 0.311481
0.177319 -0.332835 0.311941
0.176317 -0.334230 0.312162
0.175231 -0.336099 0.312487
0.174313 -0.336890 0.312574
0.173391 -0.337679 0.312660
0.188551 -0.322861 0.310085
0.187800 -0.322964 0.310026
0.186964 -0.323672 0.310101
0.186209 -0.323773 0.310041
0.185281 -0.325081 0.310246
0.184433 -0.325783 0.310318
0.183494 -0.327085 0.310521
0.182637 -0.327782 0.310590
0.181686 -0.329078 0.310790
0.180730 -0.330371 0.310989
0.179933 -0.330579 0.310950
0.178519 -0.334747 0.311775
0.177805 -0.334349 0.311602
0.176824 -0.335628 0.311795
0.175817 -0.337023 0.312012
0.174707 -0.339013 0.312358
0.173883 -0.339206 0.312312
0.190557 -0.323894 0.309831
0.189794 -0.324121 0.309799
0.189045 -0.324226 0.309740
0.188277 -0.324452 0.309708
0.187524 -0.324554 0.309648
0.186686 -0.325262 0.309720
0.185759 -0.326574 0.309923
0.184912 -0.327278 0.309993
0.183991 -0.328462 0.310167
0.182960 -0.330369 0.310498
0.182169 -0.330581 0.310459
0.181214 -0.331877 0.310656
0.180161 -0.333772 0.310981
0.179451 -0.333376 0.310809
0.178479 -0.334663 0.311002
0.177483 -0.336067 0.311219
0.176499 -0.337347 0.311408
0.175683 -0.337545 0.311364
0.192677 -0.323942 0.309364
0.191859 -0.324663 0.309440
0.191176 -0.324282 0.309275
0.190430 -0.324389 0.309216
0.189666 -0.324618 0.309183
0.188837 -0.325332 0.309255
0.188084 -0.325436 0.309195
0.187247 -0.326147 0.309266
0.186407 -0.326855 0.309336
0.185477 -0.328168 0.309536
0.184559 -0.329357 0.309708
0.183687 -0.330179 0.309801
0.182741 -0.331482 0.309996
0.181966 -0.331574 0.309931
0.181082 -0.332389 0.310020
0.180029 -0.334287 0.310342
0.179245 -0.334373 0.310274
0.178346 -0.335180 0.310360
0.194911 -0.322869 0.308658
0.194103 -0.323598 0.308735
0.193424 -0.323220 0.308571
0.192610 -0.323945 0.308645
0.191869 -0.324056 0.308587
0.191126 -0.324165 0.308528
0.190302 -0.324885 0.308600
0.189475 -0.325603 0.308672
0.188708 -0.325830 0.308637
0.187956 -0.325935 0.308576
0.187053 -0.327134 0.308749
0.186127 -0.328451 0.308948
0.185280 -0.329158 0.309014
0.184343 -0.330469 0.309210
0.183557 -0.330686 0.309171
0.182610 -0.331992 0.309364
0.181835 -0.332084 0.309297
0.180950 -0.332900 0.309385
0.196375 -0.322017 0.307925
0.195646 -0.322134 0.307868
0.194900 -0.322375 0.307838
0.194108 -0.322982 0.307886
0.193372 -0.323097 0.307828
0.192619 -0.323333 0.307796
0.191803 -0.324059 0.307869
0.191061 -0.324169 0.307809
0.190238 -0.324891 0.307880
0.189411 -0.325611 0.307950
0.188516 -0.326816 0.308123
0.187762 -0.326921 0.308061
0.186841 -0.328244 0.308257
0.185997 -0.328954 0.308323
0.184997 -0.330757 0.308621
0.197772 -0.321645 0.307300
0.197047 -0.321766 0.307244
0.196306 -0.322010 0.307214
0.195634 -0.321635 0.307052
0.194904 -0.321754 0.306994
0.194099 -0.322487 0.307068
0.193365 -0.322603 0.307010
0.192629 -0.322718 0.306951
0.191814 -0.323446 0.307022
0.191074 -0.323559 0.306962
0.190110 -0.325386 0.307265
0.189283 -0.326107 0.307333
0.199211 -0.320767 0.306572
0.198492 -0.320891 0.306517
0.197756 -0.321139 0.306487
0.197033 -0.321262 0.306431
0.196307 -0.321384 0.306374
0.195637 -0.321010 0.306212
0.194837 -0.321748 0.306285
0.194106 -0.321866 0.306227
0.193433 -0.321491 0.306064
0.192624 -0.322224 0.306135
0.191688 -0.323938 0.306411
0.190947 -0.324051 0.306351
0.199806 -0.321123 0.306029
0.199140 -0.320752 0.305868
0.198475 -0.320381 0.305707
0.197755 -0.320507 0.305651
0.197033 -0.320631 0.305594
0.196295 -0.320878 0.305563
0.195627 -0.320506 0.305402
0.194900 -0.320628 0.305344
0.194172 -0.320749 0.305285
0.193442 -0.320869 0.305227
0.192498 -0.322713 0.305528
0.200450 -0.320978 0.305382
0.199786 -0.320608 0.305222
0.199122 -0.320238 0.305062
0.198459 -0.319868 0.304901
0.197740 -0.319995 0.304844
0.197020 -0.320121 0.304787
0.196354 -0.319751 0.304627
0.195689 -0.319380 0.304466
0.194907 -0.319999 0.304511
0.194240 -0.319627 0.304350
0.193317 -0.321355 0.304623
0.201104 -0.320704 0.304712
0.200377 -0.320959 0.304681
0.199715 -0.320590 0.304521
0.199052 -0.320220 0.304361
0.198389 -0.319851 0.304201
0.197726 -0.319482 0.304041
0.197007 -0.319609 0.303983
0.196344 -0.319239 0.303823
0.195565 -0.319862 0.303867
0.194783 -0.320482 0.303910
0.194115 -0.320110 0.303749
0.201692 -0.321051 0.304173
0.200980 -0.321183 0.304116
0.200318 -0.320814 0.303956
0.199591 -0.321070 0.303925
0.198995 -0.320077 0.303637
0.198333 -0.319708 0.303477
0.197603 -0.319962 0.303445
0.196884 -0.320090 0.303386
0.196220 -0.319720 0.303226
0.202939 -0.321763 0.303795
0.202230 -0.321898 0.303738
0.201569 -0.321529 0.303578
0.200857 -0.321662 0.303521
0.200195 -0.321294 0.303361
0.198872 -0.320556 0.303041
0.198210 -0.320187 0.302882
0.197479 -0.320442 0.302848
0.203523 -0.322105 0.303258
0.202816 -0.322241 0.303201
0.202106 -0.322376 0.303143
0.201395 -0.322510 0.303085
0.200734 -0.322142 0.302926
0.204106 -0.322445 0.302722
0.203400 -0.322583 0.302665
0.202693 -0.322719 0.302607
0.201983 -0.322855 0.302549
0.203984 -0.322922 0.302130
0.203278 -0.323060 0.302072
0.202472 -0.324207 0.302214
0.201810 -0.323838 0.302054
0.203814 -0.323905 0.301638
