ply
format ascii 1.0
element vertex 257
property float x
property float y
property float z
end_header
-0.001209 -0.043120 0.323971
0.000625 -0.042828 0.322572
0.001085 -0.042466 0.322695
0.001706 -0.042113 0.322639
0.002165 -0.041751 0.322762
-0.002754 -0.043363 0.323994
-0.002290 -0.042998 0.324118
-0.001583 -0.042646 0.323974
-0.001119 -0.042281 0.324098
-0.000656 -0.041917 0.324223
0.000611 -0.041599 0.323450
0.001073 -0.041236 0.323573
-0.004875 -0.043580 0.324641
-0.004001 -0.043233 0.324319
-0.003128 -0.042888 0.323996
-0.002664 -0.042523 0.324121
-0.002200 -0.042158 0.324246
-0.001979 -0.041779 0.324639
-0.001030 -0.041442 0.324226
-0.000567 -0.041078 0.324350
-0.007724 -0.044156 0.325429
-0.007255 -0.043787 0.325554
-0.006376 -0.043438 0.325234
-0.005498 -0.043091 0.324912
-0.004622 -0.042745 0.324590
-0.003911 -0.042391 0.324447
-0.003283 -0.042035 0.324392
-0.002819 -0.041669 0.324517
-0.002354 -0.041304 0.324642
-0.001889 -0.040938 0.324767
-0.087572 -0.044493 0.399153
-0.088561 -0.043942 0.401008
-0.089542 -0.043386 0.402865
-0.089750 -0.042850 0.403925
-0.090767 -0.045322 0.399441
-0.088923 -0.044855 0.398373
-0.088289 -0.044356 0.398544
-0.088084 -0.043843 0.399157
-0.089076 -0.043289 0.401012
-0.090060 -0.042728 0.402869
-0.090270 -0.042190 0.403929
-0.089212 -0.047278 0.393300
-0.088937 -0.046779 0.393820
-0.089966 -0.046248 0.395666
-0.090120 -0.045733 0.396630
-0.091136 -0.045192 0.398479
-0.091280 -0.044670 0.399445
-0.090644 -0.044169 0.399616
-0.090869 -0.043640 0.400673
-0.091433 -0.043096 0.402085
-0.092079 -0.042545 0.403587
-0.093060 -0.041976 0.405445
-0.092839 -0.041449 0.406063
-0.088766 -0.048160 0.389983
-0.088941 -0.047659 0.390942
-0.089111 -0.047154 0.391902
-0.089717 -0.046638 0.393304
-0.089441 -0.046138 0.393824
-0.090474 -0.045603 0.395670
-0.090629 -0.045087 0.396634
-0.091649 -0.044542 0.398483
-0.092661 -0.043991 0.400334
-0.093666 -0.043435 0.402187
-0.094232 -0.042887 0.403599
-0.094879 -0.042332 0.405101
-0.095520 -0.041773 0.406605
-0.097012 -0.041174 0.408997
-0.096356 -0.040658 0.409173
-0.090766 -0.048992 0.389138
-0.090858 -0.048495 0.390007
-0.090682 -0.048000 0.390613
-0.091653 -0.047482 0.392364
-0.091471 -0.046982 0.392972
-0.091638 -0.046472 0.393933
-0.092241 -0.045950 0.395336
-0.091962 -0.045445 0.395858
-0.092557 -0.044915 0.397263
-0.093582 -0.044368 0.399111
-0.095034 -0.043802 0.401404
-0.095696 -0.043253 0.402902
-0.096698 -0.042689 0.404757
-0.096915 -0.042147 0.405816
-0.097128 -0.041602 0.406877
-0.092310 -0.049826 0.387854
-0.092052 -0.049337 0.388371
-0.092240 -0.048840 0.389327
-0.091978 -0.048348 0.389844
-0.092604 -0.047839 0.391241
-0.092781 -0.047334 0.392200
-0.093397 -0.046817 0.393600
-0.093566 -0.046306 0.394561
-0.094173 -0.045781 0.395964
-0.094773 -0.045252 0.397368
-0.094578 -0.044741 0.397979
-0.097273 -0.044141 0.401505
-0.096630 -0.043636 0.401677
-0.097209 -0.043089 0.403087
-0.097869 -0.042535 0.404587
-0.098958 -0.041960 0.406531
-0.098739 -0.041430 0.407149
-0.094203 -0.050653 0.386924
-0.094039 -0.050165 0.387527
-0.093784 -0.049676 0.388043
-0.093617 -0.049185 0.388647
-0.093358 -0.048694 0.389164
-0.093545 -0.048194 0.390121
-0.094175 -0.047683 0.391517
-0.094354 -0.047177 0.392476
-0.094886 -0.046661 0.393788
-0.095944 -0.046128 0.395629
-0.095756 -0.045620 0.396238
-0.096361 -0.045090 0.397642
-0.097401 -0.044542 0.399488
-0.096762 -0.044040 0.399659
-0.097352 -0.043498 0.401067
-0.098025 -0.042948 0.402564
-0.098604 -0.042397 0.403975
-0.098392 -0.041872 0.404591
-0.095358 -0.051480 0.385296
-0.095565 -0.050993 0.386248
-0.094951 -0.050510 0.386413
-0.094699 -0.050023 0.386928
-0.094537 -0.049534 0.387531
-0.094733 -0.049039 0.388485
-0.094476 -0.048547 0.389002
-0.094666 -0.048047 0.389958
-0.094853 -0.047544 0.390915
-0.095483 -0.047029 0.392312
-0.096019 -0.046512 0.393623
-0.096283 -0.045998 0.394671
-0.096898 -0.045471 0.396073
-0.096621 -0.044964 0.396595
-0.096873 -0.044440 0.397646
-0.097916 -0.043889 0.399492
-0.097630 -0.043375 0.400016
-0.097870 -0.042841 0.401071
-0.095666 -0.052303 0.382887
-0.095884 -0.051821 0.383836
-0.095274 -0.051341 0.384000
-0.095487 -0.050856 0.384950
-0.095240 -0.050371 0.385464
-0.094992 -0.049886 0.385979
-0.095196 -0.049394 0.386931
-0.095396 -0.048899 0.387885
-0.095232 -0.048406 0.388489
-0.094975 -0.047914 0.389006
-0.095527 -0.047405 0.390313
-0.096163 -0.046891 0.391709
-0.096346 -0.046382 0.392667
-0.096973 -0.045859 0.394066
-0.096791 -0.045353 0.394675
-0.097408 -0.044824 0.396076
-0.097132 -0.044316 0.396598
-0.097385 -0.043790 0.397650
-0.095800 -0.052638 0.381083
-0.095565 -0.052161 0.381594
-0.095420 -0.051683 0.382193
-0.095549 -0.051201 0.383054
-0.095308 -0.050720 0.383567
-0.095157 -0.050237 0.384167
-0.095369 -0.049748 0.385118
-0.095122 -0.049262 0.385632
-0.095328 -0.048769 0.386585
-0.095531 -0.048273 0.387538
-0.096093 -0.047767 0.388843
-0.095836 -0.047274 0.389360
-0.096479 -0.046760 0.390755
-0.096667 -0.046252 0.391713
-0.097660 -0.045721 0.393462
-0.096288 -0.052970 0.379630
-0.096057 -0.052495 0.380140
-0.095918 -0.052020 0.380738
-0.095313 -0.051544 0.380900
-0.095079 -0.051067 0.381411
-0.095303 -0.050584 0.382359
-0.095064 -0.050104 0.382872
-0.094823 -0.049622 0.383384
-0.095039 -0.049133 0.384335
-0.094794 -0.048647 0.384849
-0.095824 -0.048140 0.386589
-0.096028 -0.047642 0.387542
-0.096387 -0.053298 0.377833
-0.096161 -0.052827 0.378341
-0.096028 -0.052354 0.378938
-0.095799 -0.051880 0.379447
-0.095569 -0.051405 0.379957
-0.094967 -0.050931 0.380119
-0.095197 -0.050450 0.381066
-0.094962 -0.049971 0.381577
-0.094357 -0.049496 0.381740
-0.094579 -0.049009 0.382689
-0.095531 -0.048508 0.384338
-0.095287 -0.048022 0.384852
-0.097093 -0.053156 0.377328
-0.096495 -0.052685 0.377489
-0.095897 -0.052214 0.377649
-0.095672 -0.051742 0.378158
-0.095446 -0.051269 0.378667
-0.095311 -0.050794 0.379264
-0.094710 -0.050321 0.379425
-0.094480 -0.049844 0.379935
-0.094248 -0.049367 0.380446
-0.094015 -0.048888 0.380957
-0.095069 -0.048388 0.382692
-0.097419 -0.053013 0.376476
-0.096823 -0.052544 0.376637
-0.096226 -0.052074 0.376797
-0.095629 -0.051605 0.376957
-0.095407 -0.051133 0.377465
-0.095183 -0.050660 0.377974
-0.094584 -0.050190 0.378135
-0.093986 -0.049719 0.378295
-0.094130 -0.049239 0.379154
-0.093531 -0.048767 0.379315
-0.094502 -0.048270 0.380961
-0.097645 -0.052872 0.375539
-0.097523 -0.052403 0.376133
-0.096927 -0.051934 0.376293
-0.096331 -0.051465 0.376453
-0.095735 -0.050996 0.376613
-0.095139 -0.050527 0.376773
-0.094917 -0.050055 0.377281
-0.094321 -0.049586 0.377441
-0.094469 -0.049106 0.378299
-0.094614 -0.048625 0.379157
-0.094015 -0.048153 0.379319
-0.098340 -0.052731 0.375036
-0.098125 -0.052263 0.375542
-0.097530 -0.051794 0.375702
-0.097408 -0.051324 0.376296
-0.096340 -0.050858 0.376022
-0.095745 -0.050390 0.376181
-0.095620 -0.049917 0.376776
-0.095399 -0.049444 0.377285
-0.094802 -0.048975 0.377445
-0.099625 -0.053057 0.374374
-0.099413 -0.052590 0.374880
-0.098819 -0.052123 0.375039
-0.098605 -0.051654 0.375546
-0.098010 -0.051185 0.375706
-0.096820 -0.050249 0.376025
-0.096225 -0.049781 0.376185
-0.096101 -0.049307 0.376780
-0.100313 -0.052916 0.373872
-0.100104 -0.052450 0.374378
-0.099893 -0.051982 0.374884
-0.099680 -0.051513 0.375390
-0.099085 -0.051045 0.375550
-0.100999 -0.052776 0.373370
-0.100792 -0.052310 0.373876
-0.100583 -0.051842 0.374381
-0.100372 -0.051374 0.374887
-0.101477 -0.052170 0.373374
-0.101270 -0.051703 0.373879
-0.101830 -0.051231 0.375078
-0.101235 -0.050763 0.375237
-0.102341 -0.051563 0.373724
