ply
format ascii 1.0
element vertex 3066
property float x
property float y
property float z
end_header
-0.011908 0.017227 0.092400
-0.012419 0.017520 0.092700
-0.012169 0.017501 0.092600
-0.011908 0.017463 0.092400
-0.011647 0.017425 0.092200
-0.011387 0.017388 0.092000
-0.012432 0.017776 0.092800
-0.012196 0.017776 0.092800
-0.011647 0.017661 0.092200
-0.011399 0.017642 0.092100
-0.011140 0.017604 0.091900
-0.010894 0.017584 0.091800
-0.012446 0.018033 0.092900
-0.012209 0.018033 0.092900
-0.011946 0.017994 0.092700
-0.011710 0.017994 0.092700
-0.011399 0.017877 0.092100
-0.011152 0.017858 0.092000
-0.010906 0.017838 0.091900
-0.010660 0.017819 0.091800
-0.010415 0.017800 0.091700
-0.010170 0.017780 0.091600
-0.009915 0.017741 0.091400
-0.012235 0.018309 0.093100
-0.011946 0.018231 0.092700
-0.011710 0.018231 0.092700
-0.011412 0.018132 0.092200
-0.011164 0.018113 0.092100
-0.010906 0.018073 0.091900
-0.010672 0.018073 0.091900
-0.010426 0.018054 0.091800
-0.010181 0.018034 0.091700
-0.009925 0.017995 0.091500
-0.009682 0.017975 0.091400
-0.009438 0.017955 0.091300
-0.012235 0.018547 0.093100
-0.011998 0.018547 0.093100
-0.011710 0.018467 0.092700
-0.011449 0.018428 0.092500
-0.011213 0.018428 0.092500
-0.010672 0.018308 0.091900
-0.010437 0.018308 0.091900
-0.010192 0.018288 0.091800
-0.009936 0.018248 0.091600
-0.009692 0.018228 0.091500
-0.009438 0.018189 0.091300
-0.009185 0.018149 0.091100
-0.008943 0.018129 0.091000
-0.012261 0.018825 0.093300
-0.012023 0.018825 0.093300
-0.010695 0.018583 0.092100
-0.010449 0.018563 0.092000
-0.010203 0.018543 0.091900
-0.009947 0.018502 0.091700
-0.009703 0.018482 0.091600
-0.009449 0.018442 0.091400
-0.009195 0.018402 0.091200
-0.008943 0.018361 0.091000
-0.012274 0.019084 0.093400
-0.012036 0.019084 0.093400
-0.010730 0.018880 0.092400
-0.010472 0.018839 0.092200
-0.010236 0.018839 0.092200
-0.009958 0.018757 0.091800
-0.009724 0.018757 0.091800
-0.009195 0.018635 0.091200
-0.008953 0.018614 0.091100
-0.008711 0.018594 0.091000
-0.012062 0.019364 0.093600
-0.010730 0.019116 0.092400
-0.010472 0.019075 0.092200
-0.010236 0.019075 0.092200
-0.009991 0.019054 0.092100
-0.009724 0.018992 0.091800
-0.009490 0.018992 0.091800
-0.008711 0.018826 0.091000
-0.008470 0.018806 0.090900
-0.012088 0.019645 0.093800
-0.009991 0.019289 0.092100
-0.009724 0.019226 0.091800
-0.009490 0.019226 0.091800
-0.008711 0.019059 0.091000
-0.008470 0.019038 0.090900
-0.008711 0.019291 0.091000
-0.008479 0.019291 0.091000
-0.008247 0.019291 0.091000
-0.008721 0.019545 0.091100
-0.008479 0.019524 0.091000
-0.008247 0.019524 0.091000
-0.008015 0.019524 0.091000
-0.008721 0.019778 0.091100
-0.008489 0.019778 0.091100
-0.008256 0.019778 0.091100
-0.008015 0.019756 0.091000
-0.007783 0.019756 0.091000
-0.008731 0.020033 0.091200
-0.008498 0.020033 0.091200
-0.008266 0.020033 0.091200
-0.008024 0.020011 0.091100
-0.007792 0.020011 0.091100
-0.003346 0.019813 0.090200
-0.003116 0.019813 0.090200
-0.002883 0.019791 0.090100
-0.008033 0.020266 0.091200
-0.007792 0.020244 0.091100
-0.007560 0.020244 0.091100
-0.003810 0.020066 0.090300
-0.003580 0.020066 0.090300
-0.003350 0.020066 0.090300
-0.003116 0.020044 0.090200
-0.002886 0.020044 0.090200
-0.002653 0.020021 0.090100
-0.002421 0.019999 0.090000
-0.008275 0.020521 0.091300
-0.008033 0.020499 0.091200
-0.007801 0.020499 0.091200
-0.007560 0.020476 0.091100
-0.007328 0.020476 0.091100
-0.004045 0.020319 0.090400
-0.003814 0.020319 0.090400
-0.003584 0.020319 0.090400
-0.003350 0.020297 0.090300
-0.003120 0.020297 0.090300
-0.002886 0.020274 0.090200
-0.002656 0.020274 0.090200
-0.002424 0.020252 0.090100
-0.002192 0.020229 0.090000
-0.001962 0.020229 0.090000
-0.008275 0.020755 0.091300
-0.008042 0.020755 0.091300
-0.007801 0.020732 0.091200
-0.007568 0.020732 0.091200
-0.007328 0.020709 0.091100
-0.007095 0.020709 0.091100
-0.004516 0.020596 0.090600
-0.004280 0.020573 0.090500
-0.004045 0.020550 0.090400
-0.003814 0.020550 0.090400
-0.003584 0.020550 0.090400
-0.003354 0.020550 0.090400
-0.003120 0.020527 0.090300
-0.002886 0.020505 0.090200
-0.002656 0.020505 0.090200
-0.002426 0.020505 0.090200
-0.002196 0.020505 0.090200
-0.001964 0.020482 0.090100
-0.001733 0.020459 0.090000
-0.001503 0.020459 0.090000
-0.008042 0.020988 0.091300
-0.007809 0.020988 0.091300
-0.007568 0.020965 0.091200
-0.007328 0.020942 0.091100
-0.007095 0.020942 0.091100
-0.006863 0.020942 0.091100
-0.004983 0.020850 0.090700
-0.004752 0.020850 0.090700
-0.004516 0.020827 0.090600
-0.004285 0.020827 0.090600
-0.004049 0.020804 0.090500
-0.003819 0.020804 0.090500
-0.003584 0.020781 0.090400
-0.003354 0.020781 0.090400
-0.003120 0.020758 0.090300
-0.002890 0.020758 0.090300
-0.002659 0.020758 0.090300
-0.002426 0.020735 0.090200
-0.002196 0.020735 0.090200
-0.001964 0.020712 0.090100
-0.001733 0.020689 0.090000
-0.001503 0.020689 0.090000
-0.001274 0.020689 0.090000
0.010237 0.023402 0.101800
0.010497 0.023402 0.101800
0.010777 0.023448 0.102000
0.011080 0.023540 0.102400
-0.007809 0.021221 0.091300
-0.007576 0.021221 0.091300
-0.007336 0.021198 0.091200
-0.007095 0.021175 0.091100
-0.006863 0.021175 0.091100
-0.006624 0.021152 0.091000
-0.006392 0.021152 0.091000
-0.005458 0.021128 0.090900
-0.005220 0.021105 0.090800
-0.004989 0.021105 0.090800
-0.004752 0.021082 0.090700
-0.004521 0.021082 0.090700
-0.004285 0.021059 0.090600
-0.004054 0.021059 0.090600
-0.003819 0.021035 0.090500
-0.003588 0.021035 0.090500
-0.003357 0.021035 0.090500
-0.003123 0.021012 0.090400
-0.002893 0.021012 0.090400
-0.002659 0.020989 0.090300
-0.002429 0.020989 0.090300
-0.002196 0.020966 0.090200
-0.001967 0.020966 0.090200
-0.001735 0.020942 0.090100
-0.001503 0.020919 0.090000
-0.001274 0.020919 0.090000
0.007499 0.023220 0.099900
0.007754 0.023220 0.099900
0.008017 0.023243 0.100000
0.008280 0.023267 0.100100
0.008544 0.023290 0.100200
0.009403 0.023522 0.101200
0.009661 0.023522 0.101200
0.009948 0.023592 0.101500
0.010227 0.023639 0.101700
0.010497 0.023662 0.101800
0.010777 0.023708 0.102000
0.011080 0.023801 0.102400
0.011397 0.023917 0.102900
-0.007576 0.021455 0.091300
-0.007344 0.021455 0.091300
-0.007103 0.021431 0.091200
-0.006863 0.021408 0.091100
-0.006631 0.021408 0.091100
-0.006392 0.021384 0.091000
-0.006160 0.021384 0.091000
-0.005928 0.021384 0.091000
-0.005696 0.021384 0.091000
-0.005458 0.021361 0.090900
-0.005226 0.021361 0.090900
-0.004994 0.021361 0.090900
-0.004757 0.021337 0.090800
-0.004521 0.021314 0.090700
-0.004290 0.021314 0.090700
-0.004054 0.021290 0.090600
-0.003823 0.021290 0.090600
-0.003588 0.021267 0.090500
-0.003357 0.021267 0.090500
-0.003127 0.021267 0.090500
-0.002893 0.021243 0.090400
-0.002659 0.021220 0.090300
-0.002429 0.021220 0.090300
-0.002196 0.021196 0.090200
-0.001967 0.021196 0.090200
-0.001737 0.021196 0.090200
-0.001505 0.021173 0.090100
-0.001275 0.021173 0.090100
-0.001044 0.021149 0.090000
-0.000815 0.021149 0.090000
0.006715 0.023405 0.099600
0.006969 0.023405 0.099600
0.007230 0.023428 0.099700
0.007492 0.023452 0.099800
0.007754 0.023475 0.099900
0.008017 0.023499 0.100000
0.008280 0.023522 0.100100
0.008544 0.023546 0.100200
0.008825 0.023616 0.100500
0.009100 0.023663 0.100700
0.009384 0.023734 0.101000
0.009661 0.023781 0.101200
0.009948 0.023851 0.101500
0.010227 0.023898 0.101700
0.010507 0.023945 0.101900
0.010788 0.023992 0.102100
0.011091 0.024086 0.102500
0.011397 0.024180 0.102900
0.011693 0.024251 0.103200
-0.009560 0.024372 0.102600
-0.009290 0.024348 0.102500
-0.009011 0.024301 0.102300
-0.008750 0.024301 0.102300
-0.008473 0.024253 0.102100
-0.008212 0.024253 0.102100
-0.006399 0.021640 0.091100
-0.006160 0.021617 0.091000
-0.005928 0.021617 0.091000
-0.005696 0.021617 0.091000
-0.005464 0.021617 0.091000
-0.005226 0.021593 0.090900
-0.004994 0.021593 0.090900
-0.003592 0.021522 0.090600
-0.003361 0.021522 0.090600
-0.003130 0.021522 0.090600
-0.002896 0.021498 0.090500
-0.002662 0.021474 0.090400
-0.002432 0.021474 0.090400
-0.002201 0.021474 0.090400
-0.001969 0.021450 0.090300
-0.001739 0.021450 0.090300
-0.001507 0.021427 0.090200
-0.001277 0.021427 0.090200
-0.001046 0.021403 0.090100
-0.000815 0.021379 0.090000
0.006461 0.023659 0.099600
0.006715 0.023659 0.099600
0.006969 0.023659 0.099600
0.007230 0.023683 0.099700
0.007492 0.023707 0.099800
0.007762 0.023754 0.100000
0.008017 0.023754 0.100000
0.008288 0.023802 0.100200
0.008552 0.023826 0.100300
0.008825 0.023873 0.100500
0.009100 0.023921 0.100700
0.009384 0.023992 0.101000
0.009670 0.024063 0.101300
0.009948 0.024111 0.101500
0.010237 0.024182 0.101800
0.010527 0.024253 0.102100
0.010798 0.024277 0.102200
0.011102 0.024372 0.102600
0.011419 0.024491 0.103100
0.011693 0.024515 0.103200
-0.010689 0.024826 0.103400
-0.010365 0.024682 0.102800
-0.010103 0.024682 0.102800
-0.009831 0.024658 0.102700
-0.009551 0.024610 0.102500
-0.009281 0.024586 0.102400
-0.009011 0.024562 0.102300
-0.008741 0.024538 0.102200
-0.008473 0.024514 0.102100
-0.008204 0.024490 0.102000
-0.007936 0.024466 0.101900
-0.007677 0.024466 0.101900
-0.004692 0.023818 0.099200
-0.004430 0.023770 0.099000
-0.004173 0.023746 0.098900
-0.003917 0.023722 0.098800
-0.003662 0.023698 0.098700
-0.003406 0.023674 0.098600
-0.003155 0.023674 0.098600
-0.002904 0.023674 0.098600
-0.001278 0.021681 0.090300
-0.001048 0.021681 0.090300
-0.000817 0.021657 0.090200
-0.000586 0.021609 0.090000
0.006201 0.023890 0.099500
0.006455 0.023890 0.099500
0.006715 0.023914 0.099600
0.006969 0.023914 0.099600
0.007237 0.023962 0.099800
0.007492 0.023962 0.099800
0.007762 0.024010 0.100000
0.008025 0.024034 0.100100
0.008296 0.024082 0.100300
0.008561 0.024106 0.100400
0.008834 0.024154 0.100600
0.009118 0.024226 0.100900
0.009403 0.024298 0.101200
0.009689 0.024370 0.101500
0.009958 0.024394 0.101600
0.010257 0.024490 0.102000
0.010538 0.024538 0.102200
0.010809 0.024562 0.102300
0.011113 0.024658 0.102700
0.011419 0.024754 0.103100
-0.010679 0.025066 0.103300
-0.010365 0.024945 0.102800
-0.010093 0.024921 0.102700
-0.009822 0.024896 0.102600
-0.009551 0.024872 0.102500
-0.009281 0.024848 0.102400
-0.009011 0.024824 0.102300
-0.008741 0.024799 0.102200
-0.008473 0.024775 0.102100
-0.008196 0.024727 0.101900
-0.007936 0.024727 0.101900
-0.007662 0.024678 0.101700
-0.007395 0.024654 0.101600
-0.007136 0.024654 0.101600
-0.005218 0.024168 0.099600
-0.004954 0.024120 0.099400
-0.004692 0.024071 0.099200
-0.004430 0.024023 0.099000
-0.004173 0.023999 0.098900
-0.003917 0.023974 0.098800
-0.003662 0.023950 0.098700
-0.003406 0.023926 0.098600
-0.003155 0.023926 0.098600
-0.002904 0.023926 0.098600
-0.002652 0.023926 0.098600
-0.002399 0.023901 0.098500
-0.002145 0.023877 0.098400
-0.001894 0.023877 0.098400
-0.001644 0.023877 0.098400
0.005947 0.024144 0.099500
0.006201 0.024144 0.099500
0.006455 0.024144 0.099500
0.006715 0.024168 0.099600
0.006976 0.024193 0.099700
0.007245 0.024241 0.099900
0.007507 0.024265 0.100000
0.007769 0.024290 0.100100
0.008033 0.024314 0.100200
0.008305 0.024363 0.100400
0.008569 0.024387 0.100500
0.008843 0.024435 0.100700
0.009127 0.024508 0.101000
0.009412 0.024581 0.101300
0.009689 0.024629 0.101500
0.009968 0.024678 0.101700
0.010267 0.024775 0.102100
0.010548 0.024824 0.102300
0.010830 0.024872 0.102500
0.011135 0.024969 0.102900
0.011452 0.025091 0.103400
-0.010679 0.025330 0.103300
-0.010365 0.025208 0.102800
-0.010093 0.025183 0.102700
-0.009822 0.025159 0.102600
-0.009551 0.025134 0.102500
-0.009281 0.025109 0.102400
-0.009011 0.025085 0.102300
-0.008741 0.025060 0.102200
-0.008473 0.025036 0.102100
-0.008196 0.024987 0.101900
-0.007936 0.024987 0.101900
-0.007662 0.024938 0.101700
-0.007395 0.024913 0.101600
-0.007122 0.024864 0.101400
-0.006857 0.024840 0.101300
-0.006579 0.024766 0.101000
-0.006303 0.024693 0.100700
-0.006046 0.024693 0.100700
-0.005761 0.024570 0.100200
-0.005489 0.024496 0.099900
-0.005218 0.024423 0.099600
-0.004954 0.024374 0.099400
-0.004692 0.024325 0.099200
-0.004434 0.024300 0.099100
-0.004177 0.024276 0.099000
-0.003921 0.024251 0.098900
-0.003665 0.024227 0.098800
-0.003410 0.024202 0.098700
-0.003155 0.024178 0.098600
-0.002904 0.024178 0.098600
-0.002652 0.024178 0.098600
-0.002399 0.024153 0.098500
-0.002145 0.024129 0.098400
-0.001894 0.024129 0.098400
-0.001644 0.024129 0.098400
-0.001393 0.024129 0.098400
-0.001142 0.024129 0.098400
0.005694 0.024398 0.099500
0.005947 0.024398 0.099500
0.006201 0.024398 0.099500
0.006461 0.024423 0.099600
0.006715 0.024423 0.099600
0.006983 0.024472 0.099800
0.007245 0.024496 0.099900
0.007507 0.024521 0.100000
0.007769 0.024546 0.100100
0.008049 0.024619 0.100400
0.008313 0.024644 0.100500
0.008586 0.024693 0.100700
0.008860 0.024742 0.100900
0.009136 0.024791 0.101100
0.009421 0.024864 0.101400
0.009699 0.024913 0.101600
0.009978 0.024962 0.101800
0.010277 0.025060 0.102200
0.010558 0.025109 0.102400
0.010841 0.025159 0.102600
0.011189 0.025355 0.103400
-0.011080 0.025916 0.104600
-0.010813 0.025916 0.104600
-0.010365 0.025470 0.102800
-0.010093 0.025445 0.102700
-0.009822 0.025421 0.102600
-0.009551 0.025396 0.102500
-0.009281 0.025371 0.102400
-0.009011 0.025346 0.102300
-0.008741 0.025322 0.102200
-0.008473 0.025297 0.102100
-0.008204 0.025272 0.102000
-0.007936 0.025247 0.101900
-0.007662 0.025198 0.101700
-0.007395 0.025173 0.101600
-0.007122 0.025123 0.101400
-0.006850 0.025074 0.101200
-0.006579 0.025024 0.101000
-0.006303 0.024950 0.100700
-0.006034 0.024900 0.100500
-0.005761 0.024826 0.100200
-0.005489 0.024752 0.099900
-0.005224 0.024702 0.099700
-0.004954 0.024628 0.099400
-0.004696 0.024603 0.099300
-0.004439 0.024578 0.099200
-0.004182 0.024554 0.099100
-0.003925 0.024529 0.099000
-0.003669 0.024504 0.098900
-0.003413 0.024479 0.098800
-0.003158 0.024454 0.098700
-0.002907 0.024454 0.098700
-0.002655 0.024454 0.098700
-0.002399 0.024405 0.098500
-0.002148 0.024405 0.098500
-0.001896 0.024405 0.098500
-0.001644 0.024380 0.098400
-0.001393 0.024380 0.098400
-0.001142 0.024380 0.098400
-0.000892 0.024405 0.098500
-0.000641 0.024405 0.098500
-0.000390 0.024405 0.098500
-0.000139 0.024405 0.098500
0.000112 0.024430 0.098600
0.005186 0.024653 0.099500
0.005440 0.024653 0.099500
0.005694 0.024653 0.099500
0.005947 0.024653 0.099500
0.006207 0.024677 0.099600
0.006468 0.024702 0.099700
0.006729 0.024727 0.099800
0.006990 0.024752 0.099900
0.007252 0.024777 0.100000
0.007522 0.024826 0.100200
0.007785 0.024851 0.100300
0.008057 0.024900 0.100500
0.008321 0.024925 0.100600
0.008603 0.025000 0.100900
0.008878 0.025049 0.101100
0.009154 0.025099 0.101300
0.009440 0.025173 0.101600
0.009708 0.025198 0.101700
0.009987 0.025247 0.101900
0.010287 0.025346 0.102300
0.010569 0.025396 0.102500
0.010862 0.025470 0.102800
0.011200 0.025644 0.103500
-0.011080 0.026184 0.104600
-0.010813 0.026184 0.104600
-0.010375 0.025758 0.102900
-0.010103 0.025733 0.102800
-0.009831 0.025708 0.102700
-0.009560 0.025683 0.102600
-0.009290 0.025658 0.102500
-0.009020 0.025633 0.102400
-0.008750 0.025608 0.102300
-0.008481 0.025583 0.102200
-0.008212 0.025558 0.102100
-0.007936 0.025508 0.101900
-0.007669 0.025483 0.101800
-0.007402 0.025458 0.101700
-0.007129 0.025408 0.101500
-0.006850 0.025332 0.101200
-0.006579 0.025282 0.101000
-0.006303 0.025207 0.100700
-0.006034 0.025157 0.100500
-0.005761 0.025082 0.100200
-0.005494 0.025032 0.100000
-0.005229 0.024982 0.099800
-0.004964 0.024932 0.099600
-0.004701 0.024882 0.099400
-0.004443 0.024857 0.099300
-0.004186 0.024832 0.099200
-0.003929 0.024807 0.099100
-0.003673 0.024782 0.099000
-0.003417 0.024757 0.098900
-0.003161 0.024732 0.098800
-0.002910 0.024732 0.098800
-0.002655 0.024707 0.098700
-0.002403 0.024707 0.098700
-0.002150 0.024682 0.098600
-0.001896 0.024657 0.098500
-0.001645 0.024657 0.098500
-0.001393 0.024632 0.098400
-0.001142 0.024632 0.098400
-0.000892 0.024657 0.098500
-0.000641 0.024657 0.098500
-0.000390 0.024657 0.098500
-0.000139 0.024657 0.098500
0.000112 0.024682 0.098600
0.000364 0.024682 0.098600
0.000615 0.024682 0.098600
0.000867 0.024707 0.098700
0.001120 0.024732 0.098800
0.004172 0.024907 0.099500
0.004426 0.024907 0.099500
0.004679 0.024907 0.099500
0.004933 0.024907 0.099500
0.005186 0.024907 0.099500
0.005440 0.024907 0.099500
0.005694 0.024907 0.099500
0.005953 0.024932 0.099600
0.006207 0.024932 0.099600
0.006468 0.024957 0.099700
0.006735 0.025007 0.099900
0.006997 0.025032 0.100000
0.007259 0.025057 0.100100
0.007529 0.025107 0.100300
0.007793 0.025132 0.100400
0.008065 0.025182 0.100600
0.008338 0.025232 0.100800
0.008620 0.025307 0.101100
0.008896 0.025357 0.101300
0.009172 0.025408 0.101500
0.009459 0.025483 0.101800
0.009728 0.025508 0.101900
0.010007 0.025558 0.102100
0.010307 0.025658 0.102500
0.010589 0.025708 0.102700
0.010925 0.025883 0.103400
-0.010385 0.026046 0.103000
-0.010113 0.026021 0.102900
-0.009841 0.025996 0.102800
-0.009560 0.025945 0.102600
-0.009299 0.025945 0.102600
-0.009028 0.025920 0.102500
-0.008759 0.025894 0.102400
-0.008489 0.025869 0.102300
-0.008220 0.025844 0.102200
-0.007944 0.025793 0.102000
-0.007677 0.025768 0.101900
-0.007410 0.025743 0.101800
-0.007136 0.025692 0.101600
-0.006857 0.025616 0.101300
-0.006586 0.025566 0.101100
-0.006309 0.025490 0.100800
-0.006034 0.025414 0.100500
-0.005766 0.025363 0.100300
-0.005494 0.025288 0.100000
-0.005229 0.025237 0.099800
-0.004964 0.025186 0.099600
-0.004706 0.025161 0.099500
-0.004448 0.025136 0.099400
-0.004186 0.025085 0.099200
-0.003933 0.025085 0.099200
-0.003676 0.025060 0.099100
-0.003420 0.025035 0.099000
-0.003165 0.025009 0.098900
-0.002913 0.025009 0.098900
-0.002658 0.024984 0.098800
-0.002406 0.024984 0.098800
-0.002152 0.024959 0.098700
-0.001900 0.024959 0.098700
-0.001647 0.024934 0.098600
-0.001396 0.024934 0.098600
-0.001144 0.024934 0.098600
-0.000892 0.024908 0.098500
-0.000641 0.024908 0.098500
-0.000390 0.024908 0.098500
-0.000139 0.024934 0.098600
0.000112 0.024934 0.098600
0.000364 0.024934 0.098600
0.000615 0.024934 0.098600
0.000867 0.024959 0.098700
0.001120 0.024984 0.098800
0.001372 0.024984 0.098800
0.001626 0.025009 0.098900
0.001878 0.025009 0.098900
0.002132 0.025035 0.099000
0.002387 0.025060 0.099100
0.002639 0.025060 0.099100
0.002895 0.025085 0.099200
0.003148 0.025085 0.099200
0.003404 0.025111 0.099300
0.003661 0.025136 0.099400
0.003918 0.025161 0.099500
0.004172 0.025161 0.099500
0.004426 0.025161 0.099500
0.004679 0.025161 0.099500
0.004933 0.025161 0.099500
0.005186 0.025161 0.099500
0.005446 0.025186 0.099600
0.005699 0.025186 0.099600
0.005953 0.025186 0.099600
0.006214 0.025212 0.099700
0.006481 0.025262 0.099900
0.006742 0.025288 0.100000
0.007004 0.025313 0.100100
0.007274 0.025363 0.100300
0.007537 0.025389 0.100400
0.007808 0.025439 0.100600
0.008081 0.025490 0.100800
0.008354 0.025540 0.101000
0.008637 0.025616 0.101300
0.008913 0.025667 0.101500
0.009190 0.025717 0.101700
0.009477 0.025793 0.102000
0.009756 0.025844 0.102200
0.010027 0.025869 0.102300
0.010328 0.025970 0.102700
0.010610 0.026021 0.102900
0.010925 0.026147 0.103400
-0.010395 0.026335 0.103100
-0.010123 0.026309 0.103000
-0.009851 0.026284 0.102900
-0.009579 0.026258 0.102800
-0.009308 0.026233 0.102700
-0.009037 0.026207 0.102600
-0.008767 0.026182 0.102500
-0.008497 0.026156 0.102400
-0.008228 0.026131 0.102300
-0.007960 0.026105 0.102200
-0.007684 0.026054 0.102000
-0.007410 0.026003 0.101800
-0.007136 0.025952 0.101600
-0.006857 0.025875 0.101300
-0.006586 0.025824 0.101100
-0.006309 0.025747 0.100800
-0.006034 0.025671 0.100500
-0.005766 0.025620 0.100300
-0.005500 0.025569 0.100100
-0.005239 0.025543 0.100000
-0.004974 0.025492 0.099800
-0.004711 0.025441 0.099600
-0.004457 0.025441 0.099600
-0.004194 0.025390 0.099400
-0.003937 0.025364 0.099300
-0.003680 0.025339 0.099200
-0.003427 0.025339 0.099200
-0.003171 0.025313 0.099100
-0.002916 0.025288 0.099000
-0.002660 0.025262 0.098900
-0.002406 0.025237 0.098800
-0.002154 0.025237 0.098800
-0.001900 0.025211 0.098700
-0.001649 0.025211 0.098700
-0.001397 0.025211 0.098700
-0.001144 0.025185 0.098600
-0.000893 0.025185 0.098600
-0.000642 0.025185 0.098600
-0.000391 0.025211 0.098700
-0.000139 0.025211 0.098700
0.000113 0.025211 0.098700
0.000364 0.025211 0.098700
0.000616 0.025211 0.098700
0.000867 0.025211 0.098700
0.001120 0.025237 0.098800
0.001372 0.025237 0.098800
0.001626 0.025262 0.098900
0.001878 0.025262 0.098900
0.002130 0.025262 0.098900
0.002384 0.025288 0.099000
0.002639 0.025313 0.099100
0.002892 0.025313 0.099100
0.003148 0.025339 0.099200
0.003401 0.025339 0.099200
0.003661 0.025390 0.099400
0.003914 0.025390 0.099400
0.004172 0.025415 0.099500
0.004426 0.025415 0.099500
0.004679 0.025415 0.099500
0.004938 0.025441 0.099600
0.005192 0.025441 0.099600
0.005446 0.025441 0.099600
0.005705 0.025466 0.099700
0.005965 0.025492 0.099800
0.006220 0.025492 0.099800
0.006487 0.025543 0.100000
0.006756 0.025594 0.100200
0.007018 0.025620 0.100300
0.007288 0.025671 0.100500
0.007552 0.025696 0.100600
0.007824 0.025747 0.100800
0.008097 0.025798 0.101000
0.008371 0.025850 0.101200
0.008654 0.025926 0.101500
0.008931 0.025977 0.101700
0.009217 0.026054 0.102000
0.009496 0.026105 0.102200
0.009766 0.026131 0.102300
0.010046 0.026182 0.102500
0.010348 0.026284 0.102900
0.010641 0.026360 0.103200
-0.010405 0.026624 0.103200
-0.010142 0.026624 0.103200
-0.009860 0.026573 0.103000
-0.009588 0.026547 0.102900
-0.009326 0.026547 0.102900
-0.009055 0.026521 0.102800
-0.008784 0.026495 0.102700
-0.008506 0.026444 0.102500
-0.008236 0.026418 0.102400
-0.007968 0.026392 0.102300
-0.007699 0.026366 0.102200
-0.007417 0.026289 0.101900
-0.007143 0.026237 0.101700
-0.006870 0.026186 0.101500
-0.006592 0.026108 0.101200
-0.006322 0.026057 0.101000
-0.006046 0.025979 0.100700
-0.005778 0.025928 0.100500
-0.005511 0.025876 0.100300
-0.005245 0.025824 0.100100
-0.004984 0.025799 0.100000
-0.004720 0.025747 0.099800
-0.004461 0.025721 0.099700
-0.004203 0.025695 0.099600
-0.003945 0.025670 0.099500
-0.003687 0.025644 0.099400
-0.003431 0.025618 0.099300
-0.003174 0.025592 0.099200
-0.002921 0.025592 0.099200
-0.002666 0.025566 0.099100
-0.002411 0.025541 0.099000
-0.002158 0.025541 0.099000
-0.001902 0.025489 0.098800
-0.001650 0.025489 0.098800
-0.001398 0.025489 0.098800
-0.001147 0.025489 0.098800
-0.000894 0.025463 0.098700
-0.000642 0.025463 0.098700
-0.000391 0.025489 0.098800
-0.000139 0.025489 0.098800
0.000113 0.025489 0.098800
0.000365 0.025489 0.098800
0.000616 0.025489 0.098800
0.000868 0.025489 0.098800
0.001120 0.025489 0.098800
0.001372 0.025489 0.098800
0.001626 0.025515 0.098900
0.001878 0.025515 0.098900
0.002130 0.025515 0.098900
0.002384 0.025541 0.099000
0.002639 0.025566 0.099100
0.002892 0.025566 0.099100
0.003148 0.025592 0.099200
0.003401 0.025592 0.099200
0.003661 0.025644 0.099400
0.003914 0.025644 0.099400
0.004172 0.025670 0.099500
0.004430 0.025695 0.099600
0.004684 0.025695 0.099600
0.004943 0.025721 0.099700
0.005197 0.025721 0.099700
0.005457 0.025747 0.099800
0.005711 0.025747 0.099800
0.005977 0.025799 0.100000
0.006232 0.025799 0.100000
0.006494 0.025824 0.100100
0.006762 0.025876 0.100300
0.007032 0.025928 0.100500
0.007295 0.025953 0.100600
0.007567 0.026005 0.100800
0.007839 0.026057 0.101000
0.008113 0.026108 0.101200
0.008387 0.026160 0.101400
0.008663 0.026211 0.101600
0.008948 0.026289 0.101900
0.009226 0.026340 0.102100
0.009505 0.026392 0.102300
0.009785 0.026444 0.102500
0.010056 0.026469 0.102600
0.010358 0.026573 0.103000
0.010641 0.026624 0.103200
-0.010426 0.026940 0.103400
-0.010152 0.026914 0.103300
-0.009879 0.026888 0.103200
-0.009616 0.026888 0.103200
-0.009335 0.026836 0.103000
-0.009072 0.026836 0.103000
-0.008801 0.026810 0.102900
-0.008531 0.026784 0.102800
-0.008261 0.026758 0.102700
-0.007983 0.026705 0.102500
-0.007707 0.026653 0.102300
-0.007431 0.026601 0.102100
-0.007157 0.026549 0.101900
-0.006877 0.026471 0.101600
-0.006605 0.026419 0.101400
-0.006328 0.026341 0.101100
-0.006058 0.026289 0.100900
-0.005784 0.026210 0.100600
-0.005522 0.026184 0.100500
-0.005255 0.026132 0.100300
-0.004989 0.026080 0.100100
-0.004729 0.026054 0.100000
-0.004470 0.026028 0.099900
-0.004211 0.026002 0.099800
-0.003953 0.025976 0.099700
-0.003695 0.025950 0.099600
-0.003438 0.025924 0.099500
-0.003181 0.025898 0.099400
-0.002924 0.025872 0.099300
-0.002671 0.025872 0.099300
-0.002416 0.025846 0.099200
-0.002161 0.025820 0.099100
-0.001908 0.025820 0.099100
-0.001654 0.025794 0.099000
-0.001400 0.025768 0.098900
-0.001148 0.025768 0.098900
-0.000896 0.025768 0.098900
-0.000643 0.025741 0.098800
-0.000391 0.025741 0.098800
-0.000139 0.025768 0.098900
0.000113 0.025741 0.098800
0.000365 0.025741 0.098800
0.000616 0.025741 0.098800
0.000869 0.025768 0.098900
0.001121 0.025768 0.098900
0.001373 0.025768 0.098900
0.001626 0.025768 0.098900
0.001880 0.025794 0.099000
0.002132 0.025794 0.099000
0.002387 0.025820 0.099100
0.002639 0.025820 0.099100
0.002895 0.025846 0.099200
0.003151 0.025872 0.099300
0.003404 0.025872 0.099300
0.003661 0.025898 0.099400
0.003918 0.025924 0.099500
0.004172 0.025924 0.099500
0.004430 0.025950 0.099600
0.004684 0.025950 0.099600
0.004943 0.025976 0.099700
0.005202 0.026002 0.099800
0.005462 0.026028 0.099900
0.005722 0.026054 0.100000
0.005983 0.026080 0.100100
0.006245 0.026106 0.100200
0.006513 0.026158 0.100400
0.006776 0.026184 0.100500
0.007046 0.026236 0.100700
0.007310 0.026263 0.100800
0.007582 0.026315 0.101000
0.007847 0.026341 0.101100
0.008121 0.026393 0.101300
0.008404 0.026471 0.101600
0.008680 0.026523 0.101800
0.008957 0.026575 0.102000
0.009244 0.026653 0.102300
0.009524 0.026705 0.102500
0.009794 0.026732 0.102600
0.010076 0.026784 0.102800
0.010378 0.026888 0.103200
0.010641 0.026888 0.103200
-0.010172 0.027230 0.103500
-0.009898 0.027204 0.103400
-0.009626 0.027178 0.103300
-0.009353 0.027152 0.103200
-0.009090 0.027152 0.103200
-0.008827 0.027152 0.103200
-0.008547 0.027099 0.103000
-0.008277 0.027073 0.102900
-0.007999 0.027020 0.102700
-0.007722 0.026967 0.102500
-0.007446 0.026915 0.102300
-0.007164 0.026836 0.102000
-0.006891 0.026783 0.101800
-0.006612 0.026704 0.101500
-0.006340 0.026652 0.101300
-0.006064 0.026573 0.101000
-0.005795 0.026520 0.100800
-0.005527 0.026467 0.100600
-0.005265 0.026441 0.100500
-0.004999 0.026389 0.100300
-0.004739 0.026362 0.100200
-0.004479 0.026336 0.100100
-0.004220 0.026310 0.100000
-0.003961 0.026283 0.099900
-0.003702 0.026257 0.099800
-0.003444 0.026231 0.099700
-0.003187 0.026204 0.099600
-0.002930 0.026178 0.099500
-0.002674 0.026152 0.099400
-0.002421 0.026152 0.099400
-0.002165 0.026125 0.099300
-0.001910 0.026099 0.099200
-0.001657 0.026099 0.099200
-0.001403 0.026073 0.099100
-0.001150 0.026073 0.099100
-0.000897 0.026073 0.099100
-0.000644 0.026047 0.099000
-0.000392 0.026047 0.099000
-0.000139 0.026047 0.099000
0.000113 0.026047 0.099000
0.000365 0.026047 0.099000
0.000618 0.026047 0.099000
0.000870 0.026047 0.099000
0.001122 0.026047 0.099000
0.001373 0.026020 0.098900
0.001626 0.026020 0.098900
0.001880 0.026047 0.099000
0.002134 0.026073 0.099100
0.002387 0.026073 0.099100
0.002642 0.026099 0.099200
0.002895 0.026099 0.099200
0.003151 0.026125 0.099300
0.003404 0.026125 0.099300
0.003661 0.026152 0.099400
0.003918 0.026178 0.099500
0.004176 0.026204 0.099600
0.004434 0.026231 0.099700
0.004693 0.026257 0.099800
0.004948 0.026257 0.099800
0.005213 0.026310 0.100000
0.005473 0.026336 0.100100
0.005734 0.026362 0.100200
0.005995 0.026389 0.100300
0.006263 0.026441 0.100500
0.006526 0.026467 0.100600
0.006789 0.026494 0.100700
0.007060 0.026546 0.100900
0.007324 0.026573 0.101000
0.007589 0.026599 0.101100
0.007863 0.026652 0.101300
0.008137 0.026704 0.101500
0.008412 0.026757 0.101700
0.008689 0.026809 0.101900
0.008975 0.026888 0.102200
0.009244 0.026915 0.102300
0.009524 0.026967 0.102500
0.009794 0.026994 0.102600
0.010076 0.027046 0.102800
0.010378 0.027152 0.103200
-0.009918 0.027521 0.103600
-0.009644 0.027495 0.103500
-0.009380 0.027495 0.103500
-0.009108 0.027468 0.103400
-0.008836 0.027442 0.103300
-0.008564 0.027415 0.103200
-0.008293 0.027389 0.103100
-0.008014 0.027336 0.102900
-0.007737 0.027282 0.102700
-0.007461 0.027229 0.102500
-0.007185 0.027176 0.102300
-0.006897 0.027070 0.101900
-0.006625 0.027017 0.101700
-0.006347 0.026937 0.101400
-0.006076 0.026884 0.101200
-0.005807 0.026831 0.101000
-0.005538 0.026778 0.100800
-0.005271 0.026725 0.100600
-0.005009 0.026698 0.100500
-0.004748 0.026671 0.100400
-0.004488 0.026645 0.100300
-0.004228 0.026618 0.100200
-0.003969 0.026592 0.100100
-0.003710 0.026565 0.100000
-0.003451 0.026539 0.099900
-0.003193 0.026512 0.099800
-0.002936 0.026485 0.099700
-0.002679 0.026459 0.099600
-0.002425 0.026459 0.099600
-0.002169 0.026432 0.099500
-0.001914 0.026406 0.099400
-0.001660 0.026406 0.099400
-0.001406 0.026379 0.099300
-0.001152 0.026379 0.099300
-0.000898 0.026353 0.099200
-0.000645 0.026353 0.099200
-0.000393 0.026353 0.099200
-0.000140 0.026353 0.099200
0.000113 0.026353 0.099200
0.000366 0.026353 0.099200
0.000619 0.026353 0.099200
0.000872 0.026353 0.099200
0.001124 0.026326 0.099100
0.001376 0.026326 0.099100
0.001629 0.026326 0.099100
0.001881 0.026326 0.099100
0.002136 0.026353 0.099200
0.002389 0.026353 0.099200
0.002642 0.026353 0.099200
0.002895 0.026353 0.099200
0.003151 0.026379 0.099300
0.003407 0.026406 0.099400
0.003665 0.026432 0.099500
0.003922 0.026459 0.099600
0.004180 0.026485 0.099700
0.004439 0.026512 0.099800
0.004698 0.026539 0.099900
0.004958 0.026565 0.100000
0.005218 0.026592 0.100100
0.005484 0.026645 0.100300
0.005745 0.026671 0.100400
0.006007 0.026698 0.100500
0.006270 0.026725 0.100600
0.006539 0.026778 0.100800
0.006803 0.026804 0.100900
0.007067 0.026831 0.101000
0.007332 0.026857 0.101100
0.007589 0.026857 0.101100
0.007863 0.026910 0.101300
0.008137 0.026964 0.101500
0.008412 0.027017 0.101700
0.008689 0.027070 0.101900
0.008975 0.027150 0.102200
0.009244 0.027176 0.102300
0.009533 0.027256 0.102600
0.009804 0.027282 0.102700
0.010085 0.027336 0.102900
0.010378 0.027415 0.103200
-0.009663 0.027813 0.103700
-0.009398 0.027813 0.103700
-0.009125 0.027786 0.103600
-0.008853 0.027759 0.103500
-0.008580 0.027733 0.103400
-0.008309 0.027706 0.103300
-0.008030 0.027652 0.103100
-0.007752 0.027598 0.102900
-0.007475 0.027545 0.102700
-0.007192 0.027464 0.102400
-0.006918 0.027411 0.102200
-0.006638 0.027330 0.101900
-0.006359 0.027250 0.101600
-0.006088 0.027196 0.101400
-0.005818 0.027142 0.101200
-0.005549 0.027089 0.101000
-0.005286 0.027062 0.100900
-0.005019 0.027008 0.100700
-0.004758 0.026982 0.100600
-0.004497 0.026955 0.100500
-0.004236 0.026928 0.100400
-0.003977 0.026901 0.100300
-0.003717 0.026874 0.100200
-0.003458 0.026847 0.100100
-0.003200 0.026821 0.100000
-0.002945 0.026821 0.100000
-0.002687 0.026794 0.099900
-0.002430 0.026767 0.099800
-0.002174 0.026740 0.099700
-0.001918 0.026713 0.099600
-0.001664 0.026713 0.099600
-0.001410 0.026713 0.099600
-0.001155 0.026687 0.099500
-0.000901 0.026687 0.099500
-0.000647 0.026687 0.099500
-0.000393 0.026660 0.099400
-0.000140 0.026660 0.099400
0.000113 0.026633 0.099300
0.000366 0.026633 0.099300
0.000620 0.026633 0.099300
0.000873 0.026633 0.099300
0.001125 0.026606 0.099200
0.001378 0.026606 0.099200
0.001630 0.026606 0.099200
0.001883 0.026606 0.099200
0.002136 0.026606 0.099200
0.002389 0.026606 0.099200
0.002645 0.026633 0.099300
0.002898 0.026633 0.099300
0.003154 0.026660 0.099400
0.003411 0.026687 0.099500
0.003668 0.026713 0.099600
0.003922 0.026713 0.099600
0.004184 0.026767 0.099800
0.004443 0.026794 0.099900
0.004703 0.026821 0.100000
0.004963 0.026847 0.100100
0.005228 0.026901 0.100300
0.005495 0.026955 0.100500
0.005751 0.026955 0.100500
0.006007 0.026955 0.100500
0.006270 0.026982 0.100600
0.006539 0.027035 0.100800
0.006803 0.027062 0.100900
0.007067 0.027089 0.101000
0.007339 0.027142 0.101200
0.007604 0.027169 0.101300
0.007878 0.027223 0.101500
0.008145 0.027250 0.101600
0.008420 0.027303 0.101800
0.008697 0.027357 0.102000
0.008975 0.027411 0.102200
0.009262 0.027491 0.102500
0.009533 0.027518 0.102600
0.009813 0.027572 0.102800
0.010105 0.027652 0.103100
-0.009681 0.028132 0.103900
-0.009417 0.028132 0.103900
-0.009143 0.028105 0.103800
-0.008870 0.028078 0.103700
-0.008597 0.028051 0.103600
-0.008317 0.027997 0.103400
-0.008045 0.027970 0.103300
-0.007767 0.027916 0.103100
-0.007490 0.027861 0.102900
-0.007206 0.027780 0.102600
-0.006924 0.027699 0.102300
-0.006651 0.027645 0.102100
-0.006372 0.027564 0.101800
-0.006100 0.027509 0.101600
-0.005830 0.027455 0.101400
-0.005560 0.027401 0.101200
-0.005297 0.027374 0.101100
-0.005034 0.027347 0.101000
-0.004772 0.027320 0.100900
-0.004510 0.027293 0.100800
-0.004245 0.027239 0.100600
-0.003984 0.027212 0.100500
-0.003728 0.027212 0.100500
-0.003469 0.027184 0.100400
-0.003209 0.027157 0.100300
-0.002948 0.027103 0.100100
-0.002693 0.027103 0.100100
-0.002435 0.027076 0.100000
-0.002180 0.027076 0.100000
-0.001923 0.027049 0.099900
-0.001667 0.027022 0.099800
-0.001413 0.027022 0.099800
-0.001157 0.026995 0.099700
-0.000903 0.026995 0.099700
-0.000648 0.026968 0.099600
-0.000394 0.026968 0.099600
-0.000140 0.026968 0.099600
0.000114 0.026941 0.099500
0.000367 0.026941 0.099500
0.000621 0.026941 0.099500
0.000874 0.026914 0.099400
0.001127 0.026914 0.099400
0.001380 0.026914 0.099400
0.001632 0.026887 0.099300
0.001885 0.026887 0.099300
0.002138 0.026887 0.099300
0.002394 0.026914 0.099400
0.002647 0.026914 0.099400
0.002904 0.026941 0.099500
0.003157 0.026941 0.099500
0.003414 0.026968 0.099600
0.003668 0.026968 0.099600
0.003930 0.027022 0.099800
0.004189 0.027049 0.099900
0.004443 0.027049 0.099900
0.004703 0.027076 0.100000
0.004963 0.027103 0.100100
0.005228 0.027157 0.100300
0.005495 0.027212 0.100500
0.005757 0.027239 0.100600
0.006019 0.027266 0.100700
0.006282 0.027293 0.100800
0.006552 0.027347 0.101000
0.006816 0.027374 0.101100
0.007081 0.027401 0.101200
0.007346 0.027428 0.101300
0.007619 0.027482 0.101500
0.007886 0.027509 0.101600
0.008153 0.027536 0.101700
0.008429 0.027591 0.101900
0.008714 0.027672 0.102200
0.008983 0.027699 0.102300
0.009262 0.027753 0.102500
0.009542 0.027807 0.102700
0.009823 0.027861 0.102900
0.010105 0.027916 0.103100
-0.009426 0.028425 0.104000
-0.009152 0.028398 0.103900
-0.008878 0.028370 0.103800
-0.008605 0.028343 0.103700
-0.008325 0.028288 0.103500
-0.008053 0.028261 0.103400
-0.007775 0.028206 0.103200
-0.007497 0.028152 0.103000
-0.007220 0.028097 0.102800
-0.006938 0.028015 0.102500
-0.006664 0.027960 0.102300
-0.006390 0.027906 0.102100
-0.006118 0.027851 0.101900
-0.005847 0.027796 0.101700
-0.005577 0.027742 0.101500
-0.005313 0.027714 0.101400
-0.005044 0.027660 0.101200
-0.004781 0.027632 0.101100
-0.004519 0.027605 0.101000
-0.004258 0.027578 0.100900
-0.003996 0.027550 0.100800
-0.003736 0.027523 0.100700
-0.003476 0.027496 0.100600
-0.003216 0.027468 0.100500
-0.002957 0.027441 0.100400
-0.002698 0.027414 0.100300
-0.002440 0.027386 0.100200
-0.002185 0.027386 0.100200
-0.001927 0.027359 0.100100
-0.001672 0.027359 0.100100
-0.001415 0.027332 0.100000
-0.001161 0.027332 0.100000
-0.000905 0.027304 0.099900
-0.000650 0.027304 0.099900
-0.000395 0.027277 0.099800
-0.000140 0.027250 0.099700
0.000114 0.027250 0.099700
0.000368 0.027222 0.099600
0.000621 0.027222 0.099600
0.000875 0.027222 0.099600
0.001129 0.027222 0.099600
0.001382 0.027195 0.099500
0.001635 0.027195 0.099500
0.001889 0.027195 0.099500
0.002143 0.027195 0.099500
0.002396 0.027195 0.099500
0.002653 0.027222 0.099600
0.002904 0.027195 0.099500
0.003157 0.027195 0.099500
0.003414 0.027222 0.099600
0.003668 0.027222 0.099600
0.003930 0.027277 0.099800
0.004189 0.027304 0.099900
0.004448 0.027332 0.100000
0.004712 0.027386 0.100200
0.004972 0.027414 0.100300
0.005239 0.027468 0.100500
0.005500 0.027496 0.100600
0.005768 0.027550 0.100800
0.006031 0.027578 0.100900
0.006295 0.027605 0.101000
0.006558 0.027632 0.101100
0.006830 0.027687 0.101300
0.007095 0.027714 0.101400
0.007361 0.027742 0.101500
0.007627 0.027769 0.101600
0.007894 0.027796 0.101700
0.008169 0.027851 0.101900
0.008445 0.027906 0.102100
0.008714 0.027933 0.102200
0.008983 0.027960 0.102300
0.009271 0.028042 0.102600
0.009551 0.028097 0.102800
0.009823 0.028124 0.102900
-0.009152 0.028663 0.103900
-0.008887 0.028663 0.103900
-0.008605 0.028608 0.103700
-0.008333 0.028580 0.103600
-0.008053 0.028525 0.103400
-0.007782 0.028498 0.103300
-0.007504 0.028442 0.103100
-0.007227 0.028387 0.102900
-0.006952 0.028332 0.102700
-0.006677 0.028277 0.102500
-0.006403 0.028222 0.102300
-0.006130 0.028167 0.102100
-0.005858 0.028111 0.101900
-0.005593 0.028084 0.101800
-0.005323 0.028029 0.101600
-0.005059 0.028001 0.101500
-0.004796 0.027973 0.101400
-0.004533 0.027946 0.101300
-0.004266 0.027891 0.101100
-0.004004 0.027863 0.101000
-0.003747 0.027863 0.101000
-0.003482 0.027808 0.100800
-0.003222 0.027780 0.100700
-0.002963 0.027753 0.100600
-0.002706 0.027753 0.100600
-0.002447 0.027725 0.100500
-0.002191 0.027725 0.100500
-0.001933 0.027698 0.100400
-0.001675 0.027670 0.100300
-0.001420 0.027670 0.100300
-0.001163 0.027642 0.100200
-0.000907 0.027615 0.100100
-0.000651 0.027615 0.100100
-0.000396 0.027587 0.100000
-0.000141 0.027587 0.100000
0.000114 0.027560 0.099900
0.000368 0.027532 0.099800
0.000623 0.027532 0.099800
0.000877 0.027532 0.099800
0.001130 0.027504 0.099700
0.001382 0.027449 0.099500
0.001635 0.027449 0.099500
0.001889 0.027449 0.099500
0.002143 0.027449 0.099500
0.002396 0.027449 0.099500
0.002653 0.027477 0.099600
0.002907 0.027477 0.099600
0.003160 0.027477 0.099600
0.003418 0.027504 0.099700
0.003676 0.027532 0.099800
0.003934 0.027560 0.099900
0.004193 0.027587 0.100000
0.004457 0.027642 0.100200
0.004721 0.027698 0.100400
0.004982 0.027725 0.100500
0.005249 0.027780 0.100700
0.005511 0.027808 0.100800
0.005780 0.027863 0.101000
0.006043 0.027891 0.101100
0.006307 0.027918 0.101200
0.006571 0.027946 0.101300
0.006843 0.028001 0.101500
0.007109 0.028029 0.101600
0.007368 0.028029 0.101600
0.007642 0.028084 0.101800
0.007909 0.028111 0.101900
0.008177 0.028139 0.102000
0.008445 0.028167 0.102100
0.008723 0.028222 0.102300
0.008992 0.028249 0.102400
0.009271 0.028304 0.102600
0.009561 0.028387 0.102900
0.009861 0.028498 0.103300
-0.008887 0.028929 0.103900
-0.008614 0.028901 0.103800
-0.008333 0.028845 0.103600
-0.008061 0.028817 0.103500
-0.007782 0.028762 0.103300
-0.007512 0.028734 0.103200
-0.007241 0.028706 0.103100
-0.006958 0.028622 0.102800
-0.006690 0.028594 0.102700
-0.006415 0.028539 0.102500
-0.006142 0.028483 0.102300
-0.005876 0.028455 0.102200
-0.005610 0.028427 0.102100
-0.005339 0.028372 0.101900
-0.005074 0.028344 0.101800
-0.004810 0.028316 0.101700
-0.004546 0.028288 0.101600
-0.004283 0.028260 0.101500
-0.004016 0.028205 0.101300
-0.003754 0.028177 0.101200
-0.003493 0.028149 0.101100
-0.003232 0.028121 0.101000
-0.002971 0.028093 0.100900
-0.002712 0.028065 0.100800
-0.002452 0.028038 0.100700
-0.002195 0.028038 0.100700
-0.001937 0.028010 0.100600
-0.001679 0.027982 0.100500
-0.001423 0.027982 0.100500
-0.001166 0.027982 0.100500
-0.000909 0.027954 0.100400
-0.000651 0.027871 0.100100
-0.000396 0.027843 0.100000
-0.000141 0.027843 0.100000
0.000114 0.027815 0.099900
0.000368 0.027787 0.099800
0.000623 0.027787 0.099800
0.000877 0.027787 0.099800
0.001130 0.027759 0.099700
0.001385 0.027759 0.099700
0.001639 0.027759 0.099700
0.001893 0.027759 0.099700
0.002147 0.027759 0.099700
0.002401 0.027759 0.099700
0.002655 0.027759 0.099700
0.002912 0.027787 0.099800
0.003167 0.027787 0.099800
0.003425 0.027815 0.099900
0.003683 0.027843 0.100000
0.003942 0.027871 0.100100
0.004201 0.027898 0.100200
0.004466 0.027954 0.100400
0.004726 0.027982 0.100500
0.004992 0.028038 0.100700
0.005259 0.028093 0.100900
0.005522 0.028121 0.101000
0.005791 0.028177 0.101200
0.006055 0.028205 0.101300
0.006326 0.028260 0.101500
0.006591 0.028288 0.101600
0.006850 0.028288 0.101600
0.007116 0.028316 0.101700
0.007390 0.028372 0.101900
0.007657 0.028400 0.102000
0.007917 0.028400 0.102000
0.008193 0.028455 0.102200
0.008462 0.028483 0.102300
0.008731 0.028511 0.102400
0.009001 0.028539 0.102500
0.009289 0.028622 0.102800
-0.008605 0.029138 0.103700
-0.008333 0.029110 0.103600
-0.008061 0.029082 0.103500
-0.007790 0.029054 0.103400
-0.007519 0.029025 0.103300
-0.007248 0.028997 0.103200
-0.006979 0.028969 0.103100
-0.006703 0.028913 0.102900
-0.006434 0.028885 0.102800
-0.006160 0.028829 0.102600
-0.005893 0.028801 0.102500
-0.005621 0.028744 0.102300
-0.005355 0.028716 0.102200
-0.005089 0.028688 0.102100
-0.004824 0.028660 0.102000
-0.004560 0.028632 0.101900
-0.004291 0.028576 0.101700
-0.004028 0.028548 0.101600
-0.003765 0.028520 0.101500
-0.003503 0.028492 0.101400
-0.003241 0.028464 0.101300
-0.002980 0.028435 0.101200
-0.002720 0.028407 0.101100
-0.002459 0.028379 0.101000
-0.002195 0.028295 0.100700
-0.001937 0.028267 0.100600
-0.001679 0.028239 0.100500
-0.001423 0.028239 0.100500
-0.001166 0.028239 0.100500
-0.000909 0.028211 0.100400
-0.000653 0.028183 0.100300
-0.000397 0.028154 0.100200
-0.000141 0.028154 0.100200
0.000114 0.028126 0.100100
0.000369 0.028098 0.100000
0.000624 0.028098 0.100000
0.000879 0.028098 0.100000
0.001134 0.028098 0.100000
0.001389 0.028098 0.100000
0.001644 0.028098 0.100000
0.001899 0.028098 0.100000
0.002153 0.028098 0.100000
0.002408 0.028098 0.100000
0.002663 0.028098 0.100000
0.002918 0.028098 0.100000
0.003176 0.028126 0.100100
0.003431 0.028126 0.100100
0.003690 0.028154 0.100200
0.003954 0.028211 0.100400
0.004214 0.028239 0.100500
0.004474 0.028267 0.100600
0.004740 0.028323 0.100800
0.005007 0.028379 0.101000
0.005270 0.028407 0.101100
0.005539 0.028464 0.101300
0.005802 0.028492 0.101400
0.006073 0.028548 0.101600
0.006332 0.028548 0.101600
0.006597 0.028576 0.101700
0.006863 0.028604 0.101800
0.007130 0.028632 0.101900
0.007404 0.028688 0.102100
0.007672 0.028716 0.102200
0.007932 0.028716 0.102200
0.008201 0.028744 0.102300
0.008470 0.028773 0.102400
0.008740 0.028801 0.102500
0.009010 0.028829 0.102600
0.009298 0.028913 0.102900
-0.008325 0.029346 0.103500
-0.008061 0.029346 0.103500
-0.007790 0.029318 0.103400
-0.007519 0.029289 0.103300
-0.007255 0.029289 0.103300
-0.006985 0.029261 0.103200
-0.006716 0.029233 0.103100
-0.006447 0.029204 0.103000
-0.006172 0.029148 0.102800
-0.005904 0.029119 0.102700
-0.005637 0.029091 0.102600
-0.005370 0.029063 0.102500
-0.005104 0.029034 0.102400
-0.004838 0.029006 0.102300
-0.004568 0.028949 0.102100
-0.004304 0.028921 0.102000
-0.004040 0.028892 0.101900
-0.003765 0.028779 0.101500
-0.003503 0.028751 0.101400
-0.003241 0.028722 0.101300
-0.002980 0.028694 0.101200
-0.002720 0.028666 0.101100
-0.002459 0.028637 0.101000
-0.002200 0.028609 0.100900
-0.001943 0.028609 0.100900
-0.001684 0.028581 0.100800
-0.001425 0.028552 0.100700
-0.001169 0.028552 0.100700
-0.000911 0.028524 0.100600
-0.000654 0.028496 0.100500
-0.000398 0.028496 0.100500
-0.000142 0.028496 0.100500
0.000115 0.028467 0.100400
0.000370 0.028439 0.100300
0.000626 0.028439 0.100300
0.000881 0.028439 0.100300
0.001137 0.028439 0.100300
0.001393 0.028439 0.100300
0.001649 0.028439 0.100300
0.001904 0.028439 0.100300
0.002160 0.028439 0.100300
0.002416 0.028439 0.100300
0.002671 0.028439 0.100300
0.002930 0.028467 0.100400
0.003186 0.028467 0.100400
0.003445 0.028496 0.100500
0.003701 0.028496 0.100500
0.003962 0.028524 0.100600
0.004226 0.028581 0.100800
0.004488 0.028609 0.100900
0.004750 0.028637 0.101000
0.005017 0.028694 0.101200
0.005285 0.028751 0.101400
0.005555 0.028807 0.101600
0.005814 0.028807 0.101600
0.006085 0.028864 0.101800
0.006351 0.028892 0.101900
0.006617 0.028921 0.102000
0.006884 0.028949 0.102100
0.007151 0.028978 0.102200
0.007419 0.029006 0.102300
0.007687 0.029034 0.102400
0.007956 0.029063 0.102500
0.008217 0.029063 0.102500
0.008487 0.029091 0.102600
0.008757 0.029119 0.102700
0.009027 0.029148 0.102800
-0.008053 0.029582 0.103400
-0.007790 0.029582 0.103400
-0.007526 0.029582 0.103400
-0.007255 0.029553 0.103300
-0.006992 0.029553 0.103300
-0.006729 0.029553 0.103300
-0.006459 0.029525 0.103200
-0.006190 0.029496 0.103100
-0.005922 0.029468 0.103000
-0.005654 0.029439 0.102900
-0.005370 0.029325 0.102500
-0.005104 0.029296 0.102400
-0.004838 0.029267 0.102300
-0.004568 0.029210 0.102100
-0.004304 0.029181 0.102000
-0.004040 0.029153 0.101900
-0.003773 0.029096 0.101700
-0.003510 0.029067 0.101600
-0.003251 0.029067 0.101600
-0.002986 0.029010 0.101400
-0.002725 0.028981 0.101300
-0.002464 0.028953 0.101200
-0.002204 0.028924 0.101100
-0.001946 0.028924 0.101100
-0.001687 0.028895 0.101000
-0.001430 0.028895 0.101000
-0.001171 0.028867 0.100900
-0.000913 0.028838 0.100800
-0.000656 0.028838 0.100800
-0.000399 0.028810 0.100700
-0.000142 0.028810 0.100700
0.000115 0.028781 0.100600
0.000371 0.028781 0.100600
0.000628 0.028781 0.100600
0.000884 0.028781 0.100600
0.001139 0.028752 0.100500
0.001396 0.028752 0.100500
0.001652 0.028752 0.100500
0.001908 0.028752 0.100500
0.002164 0.028752 0.100500
0.002423 0.028781 0.100600
0.002679 0.028781 0.100600
0.002939 0.028810 0.100700
0.003195 0.028810 0.100700
0.003455 0.028838 0.100800
0.003716 0.028867 0.100900
0.003977 0.028895 0.101000
0.004239 0.028924 0.101100
0.004501 0.028953 0.101200
0.004769 0.029010 0.101400
0.005032 0.029038 0.101500
0.005296 0.029067 0.101600
0.005566 0.029124 0.101800
0.005831 0.029153 0.101900
0.006097 0.029181 0.102000
0.006363 0.029210 0.102100
0.006630 0.029239 0.102200
0.006897 0.029267 0.102300
0.007165 0.029296 0.102400
0.007433 0.029325 0.102500
0.007694 0.029325 0.102500
0.007964 0.029353 0.102600
0.008233 0.029382 0.102700
0.008511 0.029439 0.102900
0.008774 0.029439 0.102900
-0.008053 0.029846 0.103400
-0.007790 0.029846 0.103400
-0.007526 0.029846 0.103400
-0.007263 0.029846 0.103400
-0.006992 0.029817 0.103300
-0.006729 0.029817 0.103300
-0.006459 0.029788 0.103200
-0.006190 0.029760 0.103100
-0.005922 0.029731 0.103000
-0.005654 0.029702 0.102900
-0.005381 0.029644 0.102700
-0.005114 0.029615 0.102600
-0.004848 0.029586 0.102500
-0.004582 0.029558 0.102400
-0.004317 0.029529 0.102300
-0.004052 0.029500 0.102200
-0.003784 0.029442 0.102000
-0.003520 0.029413 0.101900
-0.003257 0.029384 0.101800
-0.002995 0.029355 0.101700
-0.002733 0.029327 0.101600
-0.002472 0.029298 0.101500
-0.002211 0.029269 0.101400
-0.001950 0.029240 0.101300
-0.001690 0.029211 0.101200
-0.001431 0.029182 0.101100
-0.001173 0.029182 0.101100
-0.000915 0.029153 0.101000
-0.000657 0.029153 0.101000
-0.000399 0.029125 0.100900
-0.000142 0.029125 0.100900
0.000115 0.029125 0.100900
0.000372 0.029096 0.100800
0.000629 0.029096 0.100800
0.000886 0.029096 0.100800
0.001143 0.029096 0.100800
0.001400 0.029096 0.100800
0.001657 0.029096 0.100800
0.001916 0.029125 0.100900
0.002173 0.029125 0.100900
0.002430 0.029125 0.100900
0.002690 0.029153 0.101000
0.002947 0.029153 0.101000
0.003205 0.029153 0.101000
0.003466 0.029182 0.101100
0.003727 0.029211 0.101200
0.003989 0.029240 0.101300
0.004252 0.029269 0.101400
0.004514 0.029298 0.101500
0.004778 0.029327 0.101600
0.005047 0.029384 0.101800
0.005312 0.029413 0.101900
0.005582 0.029471 0.102100
0.005848 0.029500 0.102200
0.006115 0.029529 0.102300
0.006382 0.029558 0.102400
0.006643 0.029558 0.102400
0.006917 0.029615 0.102600
0.007186 0.029644 0.102700
0.007455 0.029673 0.102800
0.007725 0.029702 0.102900
0.007995 0.029731 0.103000
0.008265 0.029760 0.103100
0.008536 0.029788 0.103200
0.008808 0.029817 0.103300
-0.007790 0.030110 0.103400
-0.007526 0.030110 0.103400
-0.007263 0.030110 0.103400
-0.006999 0.030110 0.103400
-0.006735 0.030110 0.103400
-0.006465 0.030081 0.103300
-0.006196 0.030052 0.103200
-0.005933 0.030052 0.103200
-0.005665 0.030023 0.103100
-0.005396 0.029994 0.103000
-0.005129 0.029965 0.102900
-0.004857 0.029907 0.102700
-0.004591 0.029877 0.102600
-0.004325 0.029848 0.102500
-0.004060 0.029819 0.102400
-0.003795 0.029790 0.102300
-0.003531 0.029761 0.102200
-0.003267 0.029732 0.102100
-0.003001 0.029674 0.101900
-0.002738 0.029644 0.101800
-0.002477 0.029615 0.101700
-0.002215 0.029586 0.101600
-0.001954 0.029557 0.101500
-0.001694 0.029528 0.101400
-0.001435 0.029528 0.101400
-0.001176 0.029499 0.101300
-0.000916 0.029470 0.101200
-0.000658 0.029470 0.101200
-0.000400 0.029441 0.101100
-0.000142 0.029441 0.101100
0.000115 0.029412 0.101000
0.000373 0.029412 0.101000
0.000630 0.029412 0.101000
0.000888 0.029412 0.101000
0.001146 0.029441 0.101100
0.001404 0.029441 0.101100
0.001662 0.029441 0.101100
0.001919 0.029441 0.101100
0.002179 0.029470 0.101200
0.002437 0.029470 0.101200
0.002695 0.029470 0.101200
0.002956 0.029499 0.101300
0.003214 0.029499 0.101300
0.003476 0.029528 0.101400
0.003738 0.029557 0.101500
0.004001 0.029586 0.101600
0.004264 0.029615 0.101700
0.004528 0.029644 0.101800
0.004797 0.029703 0.102000
0.005062 0.029732 0.102100
0.005327 0.029761 0.102200
0.005593 0.029790 0.102300
0.005860 0.029819 0.102400
0.006133 0.029877 0.102600
0.006400 0.029907 0.102700
0.006662 0.029907 0.102700
0.006938 0.029965 0.102900
0.007207 0.029994 0.103000
0.007477 0.030023 0.103100
0.007747 0.030052 0.103200
0.008018 0.030081 0.103300
0.008297 0.030140 0.103500
0.008578 0.030198 0.103700
0.008902 0.030402 0.104400
-0.007519 0.030345 0.103300
-0.007255 0.030345 0.103300
-0.007006 0.030404 0.103500
-0.006742 0.030404 0.103500
-0.006478 0.030404 0.103500
-0.006208 0.030375 0.103400
-0.005939 0.030345 0.103300
-0.005675 0.030345 0.103300
-0.005407 0.030316 0.103200
-0.005139 0.030286 0.103100
-0.004871 0.030257 0.103000
-0.004604 0.030228 0.102900
-0.004334 0.030169 0.102700
-0.004068 0.030140 0.102600
-0.003802 0.030110 0.102500
-0.003538 0.030081 0.102400
-0.003273 0.030051 0.102300
-0.003010 0.030022 0.102200
-0.002744 0.029963 0.102000
-0.002481 0.029934 0.101900
-0.002219 0.029905 0.101800
-0.001958 0.029875 0.101700
-0.001697 0.029846 0.101600
-0.001438 0.029846 0.101600
-0.001178 0.029816 0.101500
-0.000919 0.029816 0.101500
-0.000660 0.029787 0.101400
-0.000401 0.029787 0.101400
-0.000143 0.029758 0.101300
0.000116 0.029758 0.101300
0.000374 0.029758 0.101300
0.000632 0.029758 0.101300
0.000890 0.029758 0.101300
0.001149 0.029758 0.101300
0.001408 0.029787 0.101400
0.001667 0.029787 0.101400
0.001925 0.029787 0.101400
0.002186 0.029816 0.101500
0.002445 0.029816 0.101500
0.002706 0.029846 0.101600
0.002965 0.029846 0.101600
0.003224 0.029846 0.101600
0.003486 0.029875 0.101700
0.003749 0.029905 0.101800
0.004013 0.029934 0.101900
0.004277 0.029963 0.102000
0.004541 0.029993 0.102100
0.004811 0.030051 0.102300
0.005072 0.030051 0.102300
0.005343 0.030110 0.102500
0.005610 0.030140 0.102600
0.005877 0.030169 0.102700
0.006145 0.030198 0.102800
0.006413 0.030228 0.102900
0.006682 0.030257 0.103000
0.006958 0.030316 0.103200
0.007221 0.030316 0.103200
0.007498 0.030375 0.103400
0.007770 0.030404 0.103500
0.008049 0.030463 0.103700
0.008329 0.030521 0.103900
0.008619 0.030610 0.104200
0.008902 0.030668 0.104400
-0.007519 0.030609 0.103300
-0.007255 0.030609 0.103300
-0.007006 0.030668 0.103500
-0.006748 0.030698 0.103600
-0.006484 0.030698 0.103600
-0.006220 0.030698 0.103600
-0.005956 0.030698 0.103600
-0.005681 0.030639 0.103400
-0.005417 0.030639 0.103400
-0.005149 0.030609 0.103300
-0.004881 0.030580 0.103200
-0.004613 0.030550 0.103100
-0.004346 0.030520 0.103000
-0.004076 0.030461 0.102800
-0.003810 0.030431 0.102700
-0.003545 0.030402 0.102600
-0.003280 0.030372 0.102500
-0.003013 0.030313 0.102300
-0.002749 0.030283 0.102200
-0.002486 0.030254 0.102100
-0.002224 0.030224 0.102000
-0.001962 0.030194 0.101900
-0.001700 0.030165 0.101800
-0.001441 0.030165 0.101800
-0.001180 0.030135 0.101700
-0.000920 0.030105 0.101600
-0.000661 0.030105 0.101600
-0.000402 0.030105 0.101600
-0.000143 0.030105 0.101600
0.000116 0.030105 0.101600
0.000375 0.030105 0.101600
0.000634 0.030105 0.101600
0.000893 0.030105 0.101600
0.001152 0.030105 0.101600
0.001411 0.030105 0.101600
0.001672 0.030135 0.101700
0.001931 0.030135 0.101700
0.002192 0.030165 0.101800
0.002452 0.030165 0.101800
0.002714 0.030194 0.101900
0.002974 0.030194 0.101900
0.003237 0.030224 0.102000
0.003497 0.030224 0.102000
0.003760 0.030254 0.102100
0.004025 0.030283 0.102200
0.004289 0.030313 0.102300
0.004554 0.030342 0.102400
0.004820 0.030372 0.102500
0.005086 0.030402 0.102600
0.005353 0.030431 0.102700
0.005626 0.030491 0.102900
0.005894 0.030520 0.103000
0.006163 0.030550 0.103100
0.006432 0.030580 0.103200
0.006701 0.030609 0.103300
0.006971 0.030639 0.103400
0.007242 0.030668 0.103500
0.007513 0.030698 0.103600
0.007792 0.030757 0.103800
0.008072 0.030817 0.104000
0.008361 0.030905 0.104300
0.008652 0.030994 0.104600
-0.007255 0.030873 0.103300
-0.007012 0.030963 0.103600
-0.006761 0.031023 0.103800
-0.006503 0.031052 0.103900
-0.006232 0.031023 0.103800
-0.005968 0.031023 0.103800
-0.005697 0.030993 0.103700
-0.005428 0.030963 0.103600
-0.005164 0.030963 0.103600
-0.004895 0.030933 0.103500
-0.004622 0.030873 0.103300
-0.004355 0.030843 0.103200
-0.004088 0.030813 0.103100
-0.003821 0.030783 0.103000
-0.003552 0.030724 0.102800
-0.003286 0.030694 0.102700
-0.003022 0.030664 0.102600
-0.002755 0.030604 0.102400
-0.002491 0.030574 0.102300
-0.002228 0.030544 0.102200
-0.001966 0.030514 0.102100
-0.001704 0.030485 0.102000
-0.001444 0.030485 0.102000
-0.001183 0.030455 0.101900
-0.000923 0.030455 0.101900
-0.000662 0.030425 0.101800
-0.000403 0.030425 0.101800
-0.000143 0.030425 0.101800
0.000116 0.030425 0.101800
0.000376 0.030425 0.101800
0.000635 0.030425 0.101800
0.000896 0.030455 0.101900
0.001155 0.030455 0.101900
0.001415 0.030455 0.101900
0.001676 0.030485 0.102000
0.001937 0.030485 0.102000
0.002199 0.030514 0.102100
0.002459 0.030514 0.102100
0.002722 0.030544 0.102200
0.002982 0.030544 0.102200
0.003246 0.030574 0.102300
0.003507 0.030574 0.102300
0.003768 0.030574 0.102300
0.004032 0.030604 0.102400
0.004298 0.030634 0.102500
0.004563 0.030664 0.102600
0.004830 0.030694 0.102700
0.005101 0.030754 0.102900
0.005369 0.030783 0.103000
0.005637 0.030813 0.103100
0.005905 0.030843 0.103200
0.006175 0.030873 0.103300
0.006444 0.030903 0.103400
0.006721 0.030963 0.103600
0.006985 0.030963 0.103600
0.007263 0.031023 0.103800
0.007542 0.031082 0.104000
0.007815 0.031112 0.104100
0.008095 0.031172 0.104300
0.008385 0.031262 0.104600
0.008677 0.031351 0.104900
-0.007263 0.031167 0.103400
-0.007033 0.031318 0.103900
-0.006781 0.031378 0.104100
-0.006516 0.031378 0.104100
-0.006250 0.031378 0.104100
-0.005979 0.031348 0.104000
-0.005714 0.031348 0.104000
-0.005444 0.031318 0.103900
-0.005174 0.031288 0.103800
-0.004904 0.031258 0.103700
-0.004636 0.031227 0.103600
-0.004363 0.031167 0.103400
-0.004095 0.031137 0.103300
-0.003828 0.031107 0.103200
-0.003562 0.031077 0.103100
-0.003293 0.031017 0.102900
-0.003027 0.030986 0.102800
-0.002763 0.030956 0.102700
-0.002496 0.030896 0.102500
-0.002233 0.030866 0.102400
-0.001970 0.030836 0.102300
-0.001707 0.030806 0.102200
-0.001447 0.030806 0.102200
-0.001185 0.030775 0.102100
-0.000925 0.030775 0.102100
-0.000664 0.030775 0.102100
-0.000404 0.030775 0.102100
-0.000144 0.030775 0.102100
0.000116 0.030775 0.102100
0.000377 0.030775 0.102100
0.000637 0.030775 0.102100
0.000898 0.030806 0.102200
0.001159 0.030806 0.102200
0.001419 0.030806 0.102200
0.001681 0.030836 0.102300
0.001942 0.030836 0.102300
0.002203 0.030836 0.102300
0.002464 0.030836 0.102300
0.002727 0.030866 0.102400
0.002988 0.030866 0.102400
0.003252 0.030896 0.102500
0.003517 0.030926 0.102600
0.003779 0.030926 0.102600
0.004044 0.030956 0.102700
0.004310 0.030986 0.102800
0.004577 0.031017 0.102900
0.004844 0.031047 0.103000
0.005111 0.031077 0.103100
0.005379 0.031107 0.103200
0.005648 0.031137 0.103300
0.005917 0.031167 0.103400
0.006186 0.031197 0.103500
0.006463 0.031258 0.103700
0.006734 0.031288 0.103800
0.007012 0.031348 0.104000
0.007284 0.031378 0.104100
0.007564 0.031438 0.104300
0.007845 0.031499 0.104500
0.008127 0.031559 0.104700
0.008417 0.031649 0.105000
-0.007033 0.031583 0.103900
-0.006800 0.031735 0.104400
-0.006534 0.031735 0.104400
-0.006274 0.031766 0.104500
-0.006002 0.031735 0.104400
-0.005730 0.031705 0.104300
-0.005459 0.031675 0.104200
-0.005189 0.031644 0.104100
-0.004919 0.031614 0.104000
-0.004649 0.031583 0.103900
-0.004376 0.031523 0.103700
-0.004107 0.031492 0.103600
-0.003836 0.031431 0.103400
-0.003569 0.031401 0.103300
-0.003299 0.031340 0.103100
-0.003033 0.031310 0.103000
-0.002768 0.031279 0.102900
-0.002503 0.031249 0.102800
-0.002237 0.031188 0.102600
-0.001973 0.031158 0.102500
-0.001710 0.031127 0.102400
-0.001448 0.031097 0.102300
-0.001187 0.031097 0.102300
-0.000926 0.031097 0.102300
-0.000665 0.031067 0.102200
-0.000404 0.031067 0.102200
-0.000144 0.031067 0.102200
0.000117 0.031067 0.102200
0.000377 0.031097 0.102300
0.000638 0.031097 0.102300
0.000899 0.031097 0.102300
0.001160 0.031097 0.102300
0.001421 0.031097 0.102300
0.001683 0.031127 0.102400
0.001946 0.031158 0.102500
0.002207 0.031158 0.102500
0.002471 0.031188 0.102600
0.002733 0.031188 0.102600
0.002997 0.031219 0.102700
0.003259 0.031219 0.102700
0.003524 0.031249 0.102800
0.003790 0.031279 0.102900
0.004052 0.031279 0.102900
0.004319 0.031310 0.103000
0.004586 0.031340 0.103100
0.004853 0.031371 0.103200
0.005121 0.031401 0.103300
0.005390 0.031431 0.103400
0.005664 0.031492 0.103600
0.005928 0.031492 0.103600
0.006204 0.031553 0.103800
0.006475 0.031583 0.103900
0.006747 0.031614 0.104000
0.007032 0.031705 0.104300
0.007305 0.031735 0.104400
0.007593 0.031827 0.104700
0.007875 0.031887 0.104900
0.008158 0.031948 0.105100
0.008474 0.032131 0.105700
-0.006298 0.032155 0.104900
-0.006025 0.032125 0.104800
-0.005747 0.032063 0.104600
-0.005480 0.032063 0.104600
-0.005204 0.032002 0.104400
-0.004933 0.031972 0.104300
-0.004658 0.031910 0.104100
-0.004388 0.031880 0.104000
-0.004115 0.031818 0.103800
-0.003847 0.031788 0.103700
-0.003576 0.031726 0.103500
-0.003309 0.031696 0.103400
-0.003039 0.031634 0.103200
-0.002773 0.031604 0.103100
-0.002508 0.031573 0.103000
-0.002241 0.031512 0.102800
-0.001977 0.031481 0.102700
-0.001714 0.031450 0.102600
-0.001451 0.031420 0.102500
-0.001188 0.031389 0.102400
-0.000927 0.031389 0.102400
-0.000666 0.031389 0.102400
-0.000405 0.031389 0.102400
-0.000144 0.031389 0.102400
0.000117 0.031389 0.102400
0.000378 0.031389 0.102400
0.000639 0.031389 0.102400
0.000901 0.031420 0.102500
0.001162 0.031420 0.102500
0.001423 0.031420 0.102500
0.001686 0.031450 0.102600
0.001950 0.031481 0.102700
0.002212 0.031481 0.102700
0.002476 0.031512 0.102800
0.002738 0.031512 0.102800
0.003003 0.031542 0.102900
0.003265 0.031542 0.102900
0.003531 0.031573 0.103000
0.003797 0.031604 0.103100
0.004064 0.031634 0.103200
0.004327 0.031634 0.103200
0.004595 0.031665 0.103300
0.004863 0.031696 0.103400
0.005131 0.031726 0.103500
0.005400 0.031757 0.103600
0.005670 0.031788 0.103700
0.005946 0.031849 0.103900
0.006216 0.031880 0.104000
0.006494 0.031941 0.104200
0.006773 0.032002 0.104400
0.007052 0.032063 0.104600
0.007340 0.032155 0.104900
0.007622 0.032217 0.105100
0.007897 0.032247 0.105200
0.008220 0.032462 0.105900
-0.006905 0.032763 0.106000
-0.006628 0.032733 0.105900
-0.006352 0.032702 0.105800
-0.006042 0.032485 0.105100
-0.005769 0.032454 0.105000
-0.005496 0.032423 0.104900
-0.005219 0.032362 0.104700
-0.004947 0.032331 0.104600
-0.004676 0.032300 0.104500
-0.004401 0.032238 0.104300
-0.004127 0.032176 0.104100
-0.003858 0.032145 0.104000
-0.003586 0.032083 0.103800
-0.003315 0.032022 0.103600
-0.003045 0.031960 0.103400
-0.002779 0.031929 0.103300
-0.002513 0.031898 0.103200
-0.002248 0.031867 0.103100
-0.001981 0.031805 0.102900
-0.001717 0.031774 0.102800
-0.001454 0.031743 0.102700
-0.001191 0.031713 0.102600
-0.000929 0.031713 0.102600
-0.000667 0.031682 0.102500
-0.000406 0.031682 0.102500
-0.000144 0.031682 0.102500
0.000117 0.031682 0.102500
0.000379 0.031713 0.102600
0.000640 0.031713 0.102600
0.000903 0.031743 0.102700
0.001164 0.031743 0.102700
0.001426 0.031743 0.102700
0.001690 0.031774 0.102800
0.001952 0.031774 0.102800
0.002216 0.031805 0.102900
0.002481 0.031836 0.103000
0.002746 0.031867 0.103100
0.003009 0.031867 0.103100
0.003275 0.031898 0.103200
0.003538 0.031898 0.103200
0.003805 0.031929 0.103300
0.004072 0.031960 0.103400
0.004335 0.031960 0.103400
0.004603 0.031991 0.103500
0.004872 0.032022 0.103600
0.005146 0.032083 0.103800
0.005416 0.032114 0.103900
0.005686 0.032145 0.104000
0.005957 0.032176 0.104100
0.006234 0.032238 0.104300
0.006513 0.032300 0.104500
0.006792 0.032362 0.104700
0.007079 0.032454 0.105000
0.007361 0.032516 0.105200
0.007651 0.032609 0.105500
0.007935 0.032671 0.105700
-0.006628 0.033003 0.105900
-0.006352 0.032972 0.105800
-0.006083 0.032972 0.105800
-0.005785 0.032816 0.105300
-0.005506 0.032754 0.105100
-0.005239 0.032754 0.105100
-0.004961 0.032691 0.104900
-0.004689 0.032660 0.104800
-0.004414 0.032598 0.104600
-0.004139 0.032536 0.104400
-0.003869 0.032505 0.104300
-0.003596 0.032442 0.104100
-0.003325 0.032380 0.103900
-0.003054 0.032318 0.103700
-0.002787 0.032286 0.103600
-0.002518 0.032224 0.103400
-0.002250 0.032162 0.103200
-0.001985 0.032131 0.103100
-0.001720 0.032099 0.103000
-0.001456 0.032068 0.102900
-0.001193 0.032037 0.102800
-0.000931 0.032037 0.102800
-0.000669 0.032037 0.102800
-0.000407 0.032037 0.102800
-0.000145 0.032037 0.102800
0.000117 0.032037 0.102800
0.000379 0.032037 0.102800
0.000641 0.032037 0.102800
0.000903 0.032037 0.102800
0.001166 0.032037 0.102800
0.001429 0.032068 0.102900
0.001693 0.032099 0.103000
0.001957 0.032131 0.103100
0.002220 0.032131 0.103100
0.002485 0.032162 0.103200
0.002749 0.032162 0.103200
0.003015 0.032193 0.103300
0.003281 0.032224 0.103400
0.003548 0.032255 0.103500
0.003812 0.032255 0.103500
0.004080 0.032286 0.103600
0.004348 0.032318 0.103700
0.004617 0.032349 0.103800
0.004886 0.032380 0.103900
0.005156 0.032411 0.104000
0.005426 0.032442 0.104100
0.005697 0.032473 0.104200
0.005974 0.032536 0.104400
0.006252 0.032598 0.104600
0.006531 0.032660 0.104800
0.006818 0.032754 0.105100
0.007099 0.032816 0.105300
0.007389 0.032910 0.105600
0.007687 0.033034 0.106000
0.007995 0.033190 0.106500
-0.006376 0.033368 0.106200
-0.006094 0.033305 0.106000
-0.005802 0.033179 0.105600
-0.005522 0.033117 0.105400
-0.005249 0.033085 0.105300
-0.004975 0.033054 0.105200
-0.004703 0.033022 0.105100
-0.004426 0.032960 0.104900
-0.004155 0.032928 0.104800
-0.003880 0.032865 0.104600
-0.003607 0.032802 0.104400
-0.003334 0.032740 0.104200
-0.003063 0.032677 0.104000
-0.002795 0.032645 0.103900
-0.002525 0.032582 0.103700
-0.002257 0.032520 0.103500
-0.001989 0.032457 0.103300
-0.001724 0.032425 0.103200
-0.001461 0.032425 0.103200
-0.001196 0.032394 0.103100
-0.000933 0.032363 0.103000
-0.000670 0.032363 0.103000
-0.000408 0.032363 0.103000
-0.000145 0.032363 0.103000
0.000118 0.032363 0.103000
0.000380 0.032363 0.103000
0.000643 0.032363 0.103000
0.000906 0.032394 0.103100
0.001169 0.032394 0.103100
0.001432 0.032394 0.103100
0.001696 0.032425 0.103200
0.001959 0.032425 0.103200
0.002225 0.032457 0.103300
0.002490 0.032488 0.103400
0.002757 0.032520 0.103500
0.003020 0.032520 0.103500
0.003287 0.032551 0.103600
0.003555 0.032582 0.103700
0.003823 0.032614 0.103800
0.004088 0.032614 0.103800
0.004356 0.032645 0.103900
0.004626 0.032677 0.104000
0.004900 0.032740 0.104200
0.005171 0.032771 0.104300
0.005442 0.032802 0.104400
0.005713 0.032834 0.104500
0.005991 0.032897 0.104700
0.006270 0.032960 0.104900
0.006550 0.033022 0.105100
0.006824 0.033054 0.105200
0.007120 0.033179 0.105600
0.007410 0.033274 0.105900
0.007709 0.033399 0.106300
-0.006394 0.033734 0.106500
-0.006106 0.033639 0.106200
-0.005818 0.033544 0.105900
-0.005538 0.033481 0.105700
-0.005258 0.033418 0.105500
-0.004985 0.033386 0.105400
-0.004712 0.033354 0.105300
-0.004439 0.033323 0.105200
-0.004167 0.033291 0.105100
-0.003892 0.033228 0.104900
-0.003617 0.033164 0.104700
-0.003344 0.033101 0.104500
-0.003072 0.033038 0.104300
-0.002800 0.032974 0.104100
-0.002530 0.032911 0.103900
-0.002261 0.032847 0.103700
-0.001995 0.032816 0.103600
-0.001729 0.032784 0.103500
-0.001464 0.032752 0.103400
-0.001199 0.032721 0.103300
-0.000935 0.032689 0.103200
-0.000671 0.032689 0.103200
-0.000408 0.032689 0.103200
-0.000145 0.032689 0.103200
0.000118 0.032689 0.103200
0.000381 0.032689 0.103200
0.000644 0.032689 0.103200
0.000908 0.032721 0.103300
0.001171 0.032721 0.103300
0.001435 0.032721 0.103300
0.001699 0.032752 0.103400
0.001965 0.032784 0.103500
0.002229 0.032784 0.103500
0.002495 0.032816 0.103600
0.002762 0.032847 0.103700
0.003029 0.032879 0.103800
0.003297 0.032911 0.103900
0.003565 0.032942 0.104000
0.003830 0.032942 0.104000
0.004099 0.032974 0.104100
0.004369 0.033006 0.104200
0.004639 0.033038 0.104300
0.004910 0.033069 0.104400
0.005181 0.033101 0.104500
0.005458 0.033164 0.104700
0.005730 0.033196 0.104800
0.006003 0.033228 0.104900
0.006276 0.033259 0.105000
0.006556 0.033323 0.105200
0.006844 0.033418 0.105500
0.007133 0.033513 0.105800
0.007431 0.033639 0.106200
0.007723 0.033734 0.106500
-0.006117 0.033975 0.106400
-0.005829 0.033879 0.106100
-0.005548 0.033815 0.105900
-0.005273 0.033783 0.105800
-0.004999 0.033751 0.105700
-0.004725 0.033719 0.105600
-0.004452 0.033687 0.105500
-0.004175 0.033623 0.105300
-0.003899 0.033559 0.105100
-0.003628 0.033528 0.105000
-0.003353 0.033464 0.104800
-0.003080 0.033400 0.104600
-0.002808 0.033336 0.104400
-0.002537 0.033272 0.104200
-0.002267 0.033208 0.104000
-0.002000 0.033176 0.103900
-0.001734 0.033144 0.103800
-0.001466 0.033081 0.103600
-0.001202 0.033081 0.103600
-0.000937 0.033049 0.103500
-0.000673 0.033049 0.103500
-0.000410 0.033049 0.103500
-0.000146 0.033049 0.103500
0.000118 0.033049 0.103500
0.000382 0.033049 0.103500
0.000646 0.033049 0.103500
0.000910 0.033049 0.103500
0.001173 0.033049 0.103500
0.001439 0.033081 0.103600
0.001703 0.033081 0.103600
0.001969 0.033112 0.103700
0.002235 0.033144 0.103800
0.002502 0.033176 0.103900
0.002767 0.033176 0.103900
0.003035 0.033208 0.104000
0.003303 0.033240 0.104100
0.003572 0.033272 0.104200
0.003841 0.033304 0.104300
0.004111 0.033336 0.104400
0.004382 0.033368 0.104500
0.004652 0.033400 0.104600
0.004924 0.033432 0.104700
0.005196 0.033464 0.104800
0.005468 0.033496 0.104900
0.005741 0.033528 0.105000
0.006014 0.033559 0.105100
0.006294 0.033623 0.105300
0.006575 0.033687 0.105500
0.006857 0.033751 0.105700
0.007147 0.033847 0.106000
0.007445 0.033975 0.106400
-0.005835 0.034182 0.106200
-0.005559 0.034150 0.106100
-0.005283 0.034118 0.106000
-0.005008 0.034086 0.105900
-0.004730 0.034021 0.105700
-0.004456 0.033989 0.105600
-0.004183 0.033957 0.105500
-0.003906 0.033892 0.105300
-0.003634 0.033860 0.105200
-0.003360 0.033796 0.105000
-0.003086 0.033731 0.104800
-0.002816 0.033699 0.104700
-0.002545 0.033635 0.104500
-0.002274 0.033571 0.104300
-0.002004 0.033506 0.104100
-0.001737 0.033474 0.104000
-0.001471 0.033442 0.103900
-0.001205 0.033410 0.103800
-0.000940 0.033410 0.103800
-0.000675 0.033377 0.103700
-0.000410 0.033377 0.103700
-0.000146 0.033377 0.103700
0.000118 0.033377 0.103700
0.000383 0.033377 0.103700
0.000647 0.033377 0.103700
0.000911 0.033377 0.103700
0.001177 0.033410 0.103800
0.001441 0.033410 0.103800
0.001706 0.033410 0.103800
0.001973 0.033442 0.103900
0.002240 0.033474 0.104000
0.002507 0.033506 0.104100
0.002775 0.033538 0.104200
0.003044 0.033571 0.104300
0.003313 0.033603 0.104400
0.003582 0.033635 0.104500
0.003852 0.033667 0.104600
0.004119 0.033667 0.104600
0.004390 0.033699 0.104700
0.004661 0.033731 0.104800
0.004933 0.033764 0.104900
0.005205 0.033796 0.105000
0.005478 0.033828 0.105100
0.005757 0.033892 0.105300
0.006026 0.033892 0.105300
0.006306 0.033957 0.105500
0.006587 0.034021 0.105700
0.006876 0.034118 0.106000
0.007167 0.034214 0.106300
-0.005564 0.034453 0.106200
-0.005288 0.034421 0.106100
-0.005013 0.034389 0.106000
-0.004738 0.034356 0.105900
-0.004464 0.034324 0.105800
-0.004191 0.034291 0.105700
-0.003914 0.034226 0.105500
-0.003641 0.034194 0.105400
-0.003366 0.034129 0.105200
-0.003092 0.034064 0.105000
-0.002822 0.034032 0.104900
-0.002550 0.033967 0.104700
-0.002278 0.033902 0.104500
-0.002010 0.033869 0.104400
-0.001742 0.033837 0.104300
-0.001475 0.033805 0.104200
-0.001208 0.033772 0.104100
-0.000942 0.033740 0.104000
-0.000677 0.033740 0.104000
-0.000412 0.033740 0.104000
-0.000146 0.033707 0.103900
0.000119 0.033707 0.103900
0.000383 0.033707 0.103900
0.000648 0.033707 0.103900
0.000914 0.033740 0.104000
0.001179 0.033740 0.104000
0.001444 0.033740 0.104000
0.001711 0.033772 0.104100
0.001978 0.033805 0.104200
0.002244 0.033805 0.104200
0.002512 0.033837 0.104300
0.002780 0.033869 0.104400
0.003050 0.033902 0.104500
0.003319 0.033934 0.104600
0.003589 0.033967 0.104700
0.003860 0.033999 0.104800
0.004131 0.034032 0.104900
0.004402 0.034064 0.105000
0.004670 0.034064 0.105000
0.004943 0.034097 0.105100
0.005215 0.034129 0.105200
0.005489 0.034161 0.105300
0.005768 0.034226 0.105500
0.006037 0.034226 0.105500
0.006318 0.034291 0.105700
0.006606 0.034389 0.106000
0.006889 0.034453 0.106200
0.007180 0.034551 0.106500
-0.005580 0.034823 0.106500
-0.005303 0.034790 0.106400
-0.005023 0.034725 0.106200
-0.004747 0.034692 0.106100
-0.004473 0.034659 0.106000
-0.004199 0.034627 0.105900
-0.003921 0.034561 0.105700
-0.003645 0.034496 0.105500
-0.003373 0.034463 0.105400
-0.003098 0.034398 0.105200
-0.002827 0.034365 0.105100
-0.002557 0.034332 0.105000
-0.002285 0.034267 0.104800
-0.002016 0.034234 0.104700
-0.001747 0.034202 0.104600
-0.001479 0.034169 0.104500
-0.001212 0.034136 0.104400
-0.000945 0.034104 0.104300
-0.000679 0.034104 0.104300
-0.000412 0.034071 0.104200
-0.000147 0.034071 0.104200
0.000119 0.034071 0.104200
0.000385 0.034071 0.104200
0.000650 0.034071 0.104200
0.000916 0.034071 0.104200
0.001183 0.034104 0.104300
0.001448 0.034104 0.104300
0.001716 0.034136 0.104400
0.001982 0.034136 0.104400
0.002250 0.034169 0.104500
0.002519 0.034202 0.104600
0.002788 0.034234 0.104700
0.003058 0.034267 0.104800
0.003329 0.034300 0.104900
0.003599 0.034332 0.105000
0.003867 0.034332 0.105000
0.004139 0.034365 0.105100
0.004407 0.034365 0.105100
0.004679 0.034398 0.105200
0.004952 0.034431 0.105300
0.005225 0.034463 0.105400
0.005499 0.034496 0.105500
0.005779 0.034561 0.105700
0.006049 0.034561 0.105700
0.006336 0.034659 0.106000
0.006612 0.034692 0.106100
0.006896 0.034757 0.106300
-0.005313 0.035128 0.106600
-0.005032 0.035062 0.106400
-0.004756 0.035029 0.106300
-0.004477 0.034963 0.106100
-0.004203 0.034930 0.106000
-0.003925 0.034864 0.105800
-0.003652 0.034831 0.105700
-0.003379 0.034798 0.105600
-0.003104 0.034733 0.105400
-0.002833 0.034700 0.105300
-0.002559 0.034634 0.105100
-0.002291 0.034634 0.105100
-0.002020 0.034568 0.104900
-0.001751 0.034535 0.104800
-0.001483 0.034535 0.104800
-0.001215 0.034502 0.104700
-0.000947 0.034469 0.104600
-0.000681 0.034469 0.104600
-0.000414 0.034436 0.104500
-0.000147 0.034436 0.104500
0.000119 0.034436 0.104500
0.000386 0.034436 0.104500
0.000652 0.034436 0.104500
0.000918 0.034436 0.104500
0.001186 0.034469 0.104600
0.001453 0.034469 0.104600
0.001719 0.034469 0.104600
0.001988 0.034502 0.104700
0.002257 0.034535 0.104800
0.002524 0.034535 0.104800
0.002794 0.034568 0.104900
0.003064 0.034601 0.105000
0.003335 0.034634 0.105100
0.003603 0.034634 0.105100
0.003875 0.034667 0.105200
0.004147 0.034700 0.105300
0.004415 0.034700 0.105300
0.004688 0.034733 0.105400
0.004961 0.034765 0.105500
0.005235 0.034798 0.105600
0.005510 0.034831 0.105700
0.005785 0.034864 0.105800
0.006066 0.034930 0.106000
0.006342 0.034963 0.106100
0.006625 0.035029 0.106300
-0.005046 0.035434 0.106700
-0.004765 0.035367 0.106500
-0.004481 0.035268 0.106200
-0.004207 0.035234 0.106100
-0.003932 0.035201 0.106000
-0.003659 0.035168 0.105900
-0.003382 0.035101 0.105700
-0.003110 0.035068 0.105600
-0.002838 0.035035 0.105500
-0.002564 0.034969 0.105300
-0.002296 0.034969 0.105300
-0.002025 0.034935 0.105200
-0.001756 0.034902 0.105100
-0.001486 0.034869 0.105000
-0.001219 0.034869 0.105000
-0.000950 0.034836 0.104900
-0.000683 0.034836 0.104900
-0.000415 0.034836 0.104900
-0.000148 0.034803 0.104800
0.000120 0.034803 0.104800
0.000387 0.034803 0.104800
0.000654 0.034803 0.104800
0.000922 0.034836 0.104900
0.001189 0.034836 0.104900
0.001457 0.034836 0.104900
0.001724 0.034836 0.104900
0.001993 0.034869 0.105000
0.002261 0.034869 0.105000
0.002531 0.034902 0.105100
0.002799 0.034902 0.105100
0.003070 0.034935 0.105200
0.003341 0.034969 0.105300
0.003610 0.034969 0.105300
0.003882 0.035002 0.105400
0.004154 0.035035 0.105500
0.004428 0.035068 0.105600
0.004697 0.035068 0.105600
0.004971 0.035101 0.105700
0.005245 0.035135 0.105800
0.005520 0.035168 0.105900
0.005801 0.035234 0.106100
0.006071 0.035234 0.106100
0.006348 0.035268 0.106200
0.006625 0.035301 0.106300
-0.004490 0.035606 0.106400
-0.004210 0.035539 0.106200
-0.003936 0.035505 0.106100
-0.003662 0.035472 0.106000
-0.003389 0.035438 0.105900
-0.003116 0.035405 0.105800
-0.002843 0.035372 0.105700
-0.002571 0.035338 0.105600
-0.002300 0.035305 0.105500
-0.002029 0.035271 0.105400
-0.001759 0.035238 0.105300
-0.001490 0.035238 0.105300
-0.001221 0.035204 0.105200
-0.000953 0.035204 0.105200
-0.000684 0.035171 0.105100
-0.000416 0.035171 0.105100
-0.000148 0.035171 0.105100
0.000120 0.035171 0.105100
0.000388 0.035171 0.105100
0.000656 0.035171 0.105100
0.000924 0.035171 0.105100
0.001192 0.035171 0.105100
0.001460 0.035171 0.105100
0.001727 0.035171 0.105100
0.001997 0.035204 0.105200
0.002265 0.035204 0.105200
0.002536 0.035238 0.105300
0.002807 0.035271 0.105400
0.003076 0.035271 0.105400
0.003348 0.035305 0.105500
0.003620 0.035338 0.105600
0.003889 0.035338 0.105600
0.004162 0.035372 0.105700
0.004432 0.035372 0.105700
0.004706 0.035405 0.105800
0.004975 0.035405 0.105800
0.005255 0.035472 0.106000
0.005530 0.035505 0.106100
0.005806 0.035539 0.106200
0.006077 0.035539 0.106200
0.006354 0.035572 0.106300
-0.004498 0.035945 0.106600
-0.004214 0.035844 0.106300
-0.003943 0.035844 0.106300
-0.003669 0.035810 0.106200
-0.003395 0.035777 0.106100
-0.003122 0.035743 0.106000
-0.002849 0.035709 0.105900
-0.002576 0.035675 0.105800
-0.002304 0.035642 0.105700
-0.002033 0.035608 0.105600
-0.001764 0.035608 0.105600
-0.001493 0.035574 0.105500
-0.001223 0.035540 0.105400
-0.000955 0.035540 0.105400
-0.000686 0.035540 0.105400
-0.000417 0.035507 0.105300
-0.000148 0.035507 0.105300
0.000120 0.035507 0.105300
0.000389 0.035507 0.105300
0.000657 0.035507 0.105300
0.000925 0.035507 0.105300
0.001195 0.035540 0.105400
0.001464 0.035540 0.105400
0.001732 0.035540 0.105400
0.002001 0.035540 0.105400
0.002272 0.035574 0.105500
0.002541 0.035574 0.105500
0.002812 0.035608 0.105600
0.003082 0.035608 0.105600
0.003354 0.035642 0.105700
0.003623 0.035642 0.105700
0.003897 0.035675 0.105800
0.004170 0.035709 0.105900
0.004444 0.035743 0.106000
0.004715 0.035743 0.106000
0.004985 0.035743 0.106000
0.005265 0.035810 0.106200
0.005541 0.035844 0.106300
0.005817 0.035878 0.106400
0.006094 0.035911 0.106500
0.006366 0.035911 0.106500
-0.004519 0.036387 0.107100
-0.004226 0.036217 0.106600
-0.003951 0.036184 0.106500
-0.003672 0.036116 0.106300
-0.003398 0.036082 0.106200
-0.003128 0.036082 0.106200
-0.002854 0.036048 0.106100
-0.002581 0.036014 0.106000
-0.002311 0.036014 0.106000
-0.002039 0.035980 0.105900
-0.001767 0.035946 0.105800
-0.001496 0.035912 0.105700
-0.001226 0.035878 0.105600
-0.000956 0.035878 0.105600
-0.000687 0.035878 0.105600
-0.000418 0.035878 0.105600
-0.000149 0.035844 0.105500
0.000120 0.035844 0.105500
0.000389 0.035844 0.105500
0.000658 0.035844 0.105500
0.000927 0.035844 0.105500
0.001197 0.035878 0.105600
0.001466 0.035878 0.105600
0.001736 0.035878 0.105600
0.002005 0.035878 0.105600
0.002276 0.035912 0.105700
0.002546 0.035912 0.105700
0.002815 0.035912 0.105700
0.003087 0.035946 0.105800
0.003360 0.035980 0.105900
0.003630 0.035980 0.105900
0.003904 0.036014 0.106000
0.004178 0.036048 0.106100
0.004453 0.036082 0.106200
0.004724 0.036082 0.106200
0.004994 0.036082 0.106200
0.005280 0.036184 0.106500
0.005551 0.036184 0.106500
0.005828 0.036217 0.106600
0.006100 0.036217 0.106600
-0.004246 0.036661 0.107100
-0.003962 0.036558 0.106800
-0.003683 0.036490 0.106600
-0.003405 0.036421 0.106400
-0.003131 0.036387 0.106300
-0.002860 0.036387 0.106300
-0.002589 0.036387 0.106300
-0.002315 0.036353 0.106200
-0.002043 0.036319 0.106100
-0.001772 0.036319 0.106100
-0.001500 0.036284 0.106000
-0.001229 0.036250 0.105900
-0.000959 0.036250 0.105900
-0.000689 0.036250 0.105900
-0.000419 0.036216 0.105800
-0.000149 0.036216 0.105800
0.000121 0.036182 0.105700
0.000390 0.036182 0.105700
0.000659 0.036182 0.105700
0.000930 0.036216 0.105800
0.001200 0.036216 0.105800
0.001469 0.036216 0.105800
0.001739 0.036216 0.105800
0.002011 0.036250 0.105900
0.002281 0.036250 0.105900
0.002550 0.036250 0.105900
0.002823 0.036284 0.106000
0.003093 0.036284 0.106000
0.003367 0.036319 0.106100
0.003637 0.036319 0.106100
0.003911 0.036353 0.106200
0.004182 0.036353 0.106200
0.004457 0.036387 0.106300
0.004732 0.036421 0.106400
0.005004 0.036421 0.106400
0.005285 0.036490 0.106600
0.005562 0.036524 0.106700
0.005839 0.036558 0.106800
0.006123 0.036627 0.107000
-0.003981 0.037004 0.107300
-0.003693 0.036866 0.106900
-0.003411 0.036762 0.106600
-0.003136 0.036728 0.106500
-0.002865 0.036728 0.106500
-0.002593 0.036728 0.106500
-0.002320 0.036693 0.106400
-0.002049 0.036693 0.106400
-0.001776 0.036659 0.106300
-0.001503 0.036624 0.106200
-0.001232 0.036624 0.106200
-0.000961 0.036590 0.106100
-0.000690 0.036590 0.106100
-0.000420 0.036555 0.106000
-0.000149 0.036555 0.106000
0.000121 0.036555 0.106000
0.000391 0.036555 0.106000
0.000661 0.036555 0.106000
0.000932 0.036555 0.106000
0.001202 0.036555 0.106000
0.001472 0.036555 0.106000
0.001742 0.036555 0.106000
0.002012 0.036555 0.106000
0.002285 0.036590 0.106100
0.002555 0.036590 0.106100
0.002828 0.036624 0.106200
0.003099 0.036624 0.106200
0.003370 0.036624 0.106200
0.003644 0.036659 0.106300
0.003915 0.036659 0.106300
0.004190 0.036693 0.106400
0.004465 0.036728 0.106500
0.004741 0.036762 0.106600
0.005013 0.036762 0.106600
0.005295 0.036831 0.106800
0.005572 0.036866 0.106900
0.005850 0.036900 0.107000
-0.003707 0.037278 0.107300
-0.003424 0.037174 0.107000
-0.003145 0.037104 0.106800
-0.002868 0.037035 0.106600
-0.002596 0.037035 0.106600
-0.002324 0.037035 0.106600
-0.002050 0.037000 0.106500
-0.001779 0.037000 0.106500
-0.001506 0.036965 0.106400
-0.001234 0.036930 0.106300
-0.000963 0.036930 0.106300
-0.000692 0.036930 0.106300
-0.000420 0.036896 0.106200
-0.000150 0.036896 0.106200
0.000121 0.036896 0.106200
0.000392 0.036896 0.106200
0.000663 0.036896 0.106200
0.000933 0.036896 0.106200
0.001204 0.036896 0.106200
0.001475 0.036896 0.106200
0.001746 0.036896 0.106200
0.002016 0.036896 0.106200
0.002289 0.036930 0.106300
0.002560 0.036930 0.106300
0.002831 0.036930 0.106300
0.003102 0.036930 0.106300
0.003376 0.036965 0.106400
0.003647 0.036965 0.106400
0.003922 0.037000 0.106500
0.004198 0.037035 0.106600
0.004470 0.037035 0.106600
0.004746 0.037069 0.106700
0.005018 0.037069 0.106700
0.005300 0.037139 0.106900
0.005577 0.037174 0.107000
-0.003437 0.037587 0.107400
-0.003154 0.037482 0.107100
-0.002876 0.037412 0.106900
-0.002601 0.037377 0.106800
-0.002326 0.037342 0.106700
-0.002054 0.037342 0.106700
-0.001782 0.037342 0.106700
-0.001509 0.037307 0.106600
-0.001236 0.037272 0.106500
-0.000964 0.037272 0.106500
-0.000692 0.037237 0.106400
-0.000421 0.037237 0.106400
-0.000150 0.037237 0.106400
0.000121 0.037237 0.106400
0.000393 0.037237 0.106400
0.000663 0.037202 0.106300
0.000934 0.037202 0.106300
0.001205 0.037202 0.106300
0.001476 0.037202 0.106300
0.001747 0.037202 0.106300
0.002020 0.037237 0.106400
0.002291 0.037237 0.106400
0.002563 0.037237 0.106400
0.002834 0.037237 0.106400
0.003108 0.037272 0.106500
0.003379 0.037272 0.106500
0.003654 0.037307 0.106600
0.003926 0.037307 0.106600
0.004202 0.037342 0.106700
0.004478 0.037377 0.106800
0.004750 0.037377 0.106800
0.005027 0.037412 0.106900
0.005310 0.037482 0.107100
-0.003166 0.037897 0.107500
-0.002886 0.037826 0.107300
-0.002608 0.037756 0.107100
-0.002333 0.037720 0.107000
-0.002058 0.037685 0.106900
-0.001784 0.037650 0.106800
-0.001512 0.037650 0.106800
-0.001238 0.037615 0.106700
-0.000966 0.037615 0.106700
-0.000694 0.037579 0.106600
-0.000422 0.037579 0.106600
-0.000150 0.037544 0.106500
0.000122 0.037544 0.106500
0.000393 0.037544 0.106500
0.000664 0.037544 0.106500
0.000936 0.037544 0.106500
0.001207 0.037544 0.106500
0.001479 0.037544 0.106500
0.001750 0.037544 0.106500
0.002022 0.037544 0.106500
0.002293 0.037544 0.106500
0.002565 0.037544 0.106500
0.002839 0.037579 0.106600
0.003111 0.037579 0.106600
0.003386 0.037615 0.106700
0.003658 0.037615 0.106700
0.003930 0.037615 0.106700
0.004206 0.037650 0.106800
0.004482 0.037685 0.106900
0.004759 0.037720 0.107000
0.005032 0.037720 0.107000
-0.002894 0.038207 0.107600
-0.002613 0.038100 0.107300
-0.002337 0.038065 0.107200
-0.002062 0.038029 0.107100
-0.001789 0.038029 0.107100
-0.001515 0.037994 0.107000
-0.001241 0.037958 0.106900
-0.000967 0.037923 0.106800
-0.000695 0.037923 0.106800
-0.000422 0.037887 0.106700
-0.000150 0.037887 0.106700
0.000122 0.037887 0.106700
0.000394 0.037887 0.106700
0.000665 0.037852 0.106600
0.000937 0.037852 0.106600
0.001209 0.037852 0.106600
0.001480 0.037852 0.106600
0.001752 0.037852 0.106600
0.002024 0.037852 0.106600
0.002298 0.037887 0.106700
0.002570 0.037887 0.106700
0.002842 0.037887 0.106700
0.003114 0.037887 0.106700
0.003389 0.037923 0.106800
0.003661 0.037923 0.106800
0.003937 0.037958 0.106900
0.004210 0.037958 0.106900
0.004486 0.037994 0.107000
0.004764 0.038029 0.107100
-0.002620 0.038482 0.107600
-0.002344 0.038446 0.107500
-0.002066 0.038374 0.107300
-0.001792 0.038374 0.107300
-0.001517 0.038339 0.107200
-0.001243 0.038303 0.107100
-0.000969 0.038267 0.107000
-0.000696 0.038267 0.107000
-0.000423 0.038231 0.106900
-0.000150 0.038196 0.106800
0.000122 0.038196 0.106800
0.000394 0.038196 0.106800
0.000666 0.038196 0.106800
0.000939 0.038196 0.106800
0.001211 0.038196 0.106800
0.001483 0.038196 0.106800
0.001755 0.038196 0.106800
0.002028 0.038196 0.106800
0.002300 0.038196 0.106800
0.002572 0.038196 0.106800
0.002844 0.038196 0.106800
0.003117 0.038196 0.106800
0.003392 0.038231 0.106900
0.003665 0.038231 0.106900
0.003941 0.038267 0.107000
0.004214 0.038267 0.107000
0.004491 0.038303 0.107100
-0.002070 0.038721 0.107500
-0.001794 0.038685 0.107400
-0.001520 0.038685 0.107400
-0.001244 0.038613 0.107200
-0.000971 0.038613 0.107200
-0.000697 0.038577 0.107100
-0.000423 0.038541 0.107000
-0.000151 0.038541 0.107000
0.000122 0.038505 0.106900
0.000394 0.038505 0.106900
0.000667 0.038505 0.106900
0.000939 0.038505 0.106900
0.001212 0.038505 0.106900
0.001485 0.038505 0.106900
0.001757 0.038505 0.106900
0.002030 0.038505 0.106900
0.002302 0.038505 0.106900
0.002575 0.038505 0.106900
0.002850 0.038541 0.107000
0.003122 0.038541 0.107000
0.003395 0.038541 0.107000
0.003668 0.038541 0.107000
0.003941 0.038541 0.107000
-0.001522 0.038995 0.107500
-0.001246 0.038959 0.107400
-0.000972 0.038923 0.107300
-0.000698 0.038923 0.107300
-0.000424 0.038887 0.107200
-0.000151 0.038850 0.107100
0.000122 0.038850 0.107100
0.000395 0.038850 0.107100
0.000668 0.038850 0.107100
0.000940 0.038814 0.107000
0.001213 0.038814 0.107000
0.001486 0.038814 0.107000
0.001759 0.038814 0.107000
0.002031 0.038814 0.107000
0.002304 0.038814 0.107000
0.002577 0.038814 0.107000
0.002850 0.038814 0.107000
0.003122 0.038814 0.107000
0.003398 0.038850 0.107100
0.003675 0.038887 0.107200
-0.000973 0.039234 0.107400
-0.000699 0.039234 0.107400
-0.000424 0.039160 0.107200
-0.000151 0.039160 0.107200
0.000122 0.039160 0.107200
0.000395 0.039124 0.107100
0.000668 0.039124 0.107100
0.000941 0.039124 0.107100
0.001214 0.039124 0.107100
0.001487 0.039124 0.107100
0.001760 0.039124 0.107100
0.002033 0.039124 0.107100
0.002306 0.039124 0.107100
0.002579 0.039124 0.107100
0.002852 0.039124 0.107100
0.003125 0.039124 0.107100
-0.000425 0.039508 0.107400
-0.000151 0.039471 0.107300
0.000122 0.039471 0.107300
0.000396 0.039434 0.107200
0.000668 0.039398 0.107100
0.000941 0.039398 0.107100
0.001214 0.039398 0.107100
0.001489 0.039434 0.107200
0.001760 0.039398 0.107100
0.002033 0.039398 0.107100
0.002306 0.039398 0.107100
0.002582 0.039434 0.107200
