ply
format ascii 1.0
element vertex 3066
property float x
property float y
property float z
end_header
-0.052467 0.011908 -0.300813
-0.052167 0.012419 -0.301106
-0.052267 0.012169 -0.301087
-0.052467 0.011908 -0.301049
-0.052667 0.011647 -0.301011
-0.052867 0.011387 -0.300974
-0.052067 0.012432 -0.301362
-0.052067 0.012196 -0.301362
-0.052667 0.011647 -0.301247
-0.052767 0.011399 -0.301228
-0.052967 0.011140 -0.301190
-0.053067 0.010894 -0.301170
-0.051967 0.012446 -0.301618
-0.051967 0.012209 -0.301618
-0.052167 0.011946 -0.301580
-0.052167 0.011710 -0.301580
-0.052767 0.011399 -0.301463
-0.052867 0.011152 -0.301444
-0.052967 0.010906 -0.301424
-0.053067 0.010660 -0.301405
-0.053167 0.010415 -0.301386
-0.053267 0.010170 -0.301366
-0.053467 0.009915 -0.301327
-0.051767 0.012235 -0.301895
-0.052167 0.011946 -0.301817
-0.052167 0.011710 -0.301817
-0.052667 0.011412 -0.301718
-0.052767 0.011164 -0.301699
-0.052967 0.010906 -0.301659
-0.052967 0.010672 -0.301659
-0.053067 0.010426 -0.301640
-0.053167 0.010181 -0.301620
-0.053367 0.009925 -0.301581
-0.053467 0.009682 -0.301561
-0.053567 0.009438 -0.301541
-0.051767 0.012235 -0.302133
-0.051767 0.011998 -0.302133
-0.052167 0.011710 -0.302053
-0.052367 0.011449 -0.302014
-0.052367 0.011213 -0.302014
-0.052967 0.010672 -0.301894
-0.052967 0.010437 -0.301894
-0.053067 0.010192 -0.301874
-0.053267 0.009936 -0.301834
-0.053367 0.009692 -0.301814
-0.053567 0.009438 -0.301775
-0.053767 0.009185 -0.301735
-0.053867 0.008943 -0.301715
-0.051567 0.012261 -0.302411
-0.051567 0.012023 -0.302411
-0.052767 0.010695 -0.302169
-0.052867 0.010449 -0.302149
-0.052967 0.010203 -0.302129
-0.053167 0.009947 -0.302088
-0.053267 0.009703 -0.302068
-0.053467 0.009449 -0.302028
-0.053667 0.009195 -0.301988
-0.053867 0.008943 -0.301947
-0.051467 0.012274 -0.302670
-0.051467 0.012036 -0.302670
-0.052467 0.010730 -0.302466
-0.052667 0.010472 -0.302425
-0.052667 0.010236 -0.302425
-0.053067 0.009958 -0.302343
-0.053067 0.009724 -0.302343
-0.053667 0.009195 -0.302221
-0.053767 0.008953 -0.302200
-0.053867 0.008711 -0.302180
-0.051267 0.012062 -0.302950
-0.052467 0.010730 -0.302702
-0.052667 0.010472 -0.302661
-0.052667 0.010236 -0.302661
-0.052767 0.009991 -0.302640
-0.053067 0.009724 -0.302578
-0.053067 0.009490 -0.302578
-0.053867 0.008711 -0.302412
-0.053967 0.008470 -0.302392
-0.051067 0.012088 -0.303231
-0.052767 0.009991 -0.302875
-0.053067 0.009724 -0.302812
-0.053067 0.009490 -0.302812
-0.053867 0.008711 -0.302645
-0.053967 0.008470 -0.302624
-0.053867 0.008711 -0.302877
-0.053867 0.008479 -0.302877
-0.053867 0.008247 -0.302877
-0.053767 0.008721 -0.303131
-0.053867 0.008479 -0.303110
-0.053867 0.008247 -0.303110
-0.053867 0.008015 -0.303110
-0.053767 0.008721 -0.303364
-0.053767 0.008489 -0.303364
-0.053767 0.008256 -0.303364
-0.053867 0.008015 -0.303342
-0.053867 0.007783 -0.303342
-0.053667 0.008731 -0.303619
-0.053667 0.008498 -0.303619
-0.053667 0.008266 -0.303619
-0.053767 0.008024 -0.303597
-0.053767 0.007792 -0.303597
-0.054667 0.003346 -0.303399
-0.054667 0.003116 -0.303399
-0.054767 0.002883 -0.303377
-0.053667 0.008033 -0.303852
-0.053767 0.007792 -0.303830
-0.053767 0.007560 -0.303830
-0.054567 0.003810 -0.303652
-0.054567 0.003580 -0.303652
-0.054567 0.003350 -0.303652
-0.054667 0.003116 -0.303630
-0.054667 0.002886 -0.303630
-0.054767 0.002653 -0.303607
-0.054867 0.002421 -0.303585
-0.053567 0.008275 -0.304107
-0.053667 0.008033 -0.304085
-0.053667 0.007801 -0.304085
-0.053767 0.007560 -0.304062
-0.053767 0.007328 -0.304062
-0.054467 0.004045 -0.303905
-0.054467 0.003814 -0.303905
-0.054467 0.003584 -0.303905
-0.054567 0.003350 -0.303883
-0.054567 0.003120 -0.303883
-0.054667 0.002886 -0.303860
-0.054667 0.002656 -0.303860
-0.054767 0.002424 -0.303838
-0.054867 0.002192 -0.303815
-0.054867 0.001962 -0.303815
-0.053567 0.008275 -0.304341
-0.053567 0.008042 -0.304341
-0.053667 0.007801 -0.304318
-0.053667 0.007568 -0.304318
-0.053767 0.007328 -0.304295
-0.053767 0.007095 -0.304295
-0.054267 0.004516 -0.304182
-0.054367 0.004280 -0.304159
-0.054467 0.004045 -0.304136
-0.054467 0.003814 -0.304136
-0.054467 0.003584 -0.304136
-0.054467 0.003354 -0.304136
-0.054567 0.003120 -0.304113
-0.054667 0.002886 -0.304091
-0.054667 0.002656 -0.304091
-0.054667 0.002426 -0.304091
-0.054667 0.002196 -0.304091
-0.054767 0.001964 -0.304068
-0.054867 0.001733 -0.304045
-0.054867 0.001503 -0.304045
-0.053567 0.008042 -0.304574
-0.053567 0.007809 -0.304574
-0.053667 0.007568 -0.304551
-0.053767 0.007328 -0.304528
-0.053767 0.007095 -0.304528
-0.053767 0.006863 -0.304528
-0.054167 0.004983 -0.304436
-0.054167 0.004752 -0.304436
-0.054267 0.004516 -0.304413
-0.054267 0.004285 -0.304413
-0.054367 0.004049 -0.304390
-0.054367 0.003819 -0.304390
-0.054467 0.003584 -0.304367
-0.054467 0.003354 -0.304367
-0.054567 0.003120 -0.304344
-0.054567 0.002890 -0.304344
-0.054567 0.002659 -0.304344
-0.054667 0.002426 -0.304321
-0.054667 0.002196 -0.304321
-0.054767 0.001964 -0.304298
-0.054867 0.001733 -0.304275
-0.054867 0.001503 -0.304275
-0.054867 0.001274 -0.304275
-0.043067 -0.010237 -0.306988
-0.043067 -0.010497 -0.306988
-0.042867 -0.010777 -0.307034
-0.042467 -0.011080 -0.307126
-0.053567 0.007809 -0.304807
-0.053567 0.007576 -0.304807
-0.053667 0.007336 -0.304784
-0.053767 0.007095 -0.304761
-0.053767 0.006863 -0.304761
-0.053867 0.006624 -0.304738
-0.053867 0.006392 -0.304738
-0.053967 0.005458 -0.304714
-0.054067 0.005220 -0.304691
-0.054067 0.004989 -0.304691
-0.054167 0.004752 -0.304668
-0.054167 0.004521 -0.304668
-0.054267 0.004285 -0.304645
-0.054267 0.004054 -0.304645
-0.054367 0.003819 -0.304621
-0.054367 0.003588 -0.304621
-0.054367 0.003357 -0.304621
-0.054467 0.003123 -0.304598
-0.054467 0.002893 -0.304598
-0.054567 0.002659 -0.304575
-0.054567 0.002429 -0.304575
-0.054667 0.002196 -0.304552
-0.054667 0.001967 -0.304552
-0.054767 0.001735 -0.304528
-0.054867 0.001503 -0.304505
-0.054867 0.001274 -0.304505
-0.044967 -0.007499 -0.306806
-0.044967 -0.007754 -0.306806
-0.044867 -0.008017 -0.306829
-0.044767 -0.008280 -0.306853
-0.044667 -0.008544 -0.306876
-0.043667 -0.009403 -0.307108
-0.043667 -0.009661 -0.307108
-0.043367 -0.009948 -0.307178
-0.043167 -0.010227 -0.307225
-0.043067 -0.010497 -0.307248
-0.042867 -0.010777 -0.307294
-0.042467 -0.011080 -0.307387
-0.041967 -0.011397 -0.307503
-0.053567 0.007576 -0.305041
-0.053567 0.007344 -0.305041
-0.053667 0.007103 -0.305017
-0.053767 0.006863 -0.304994
-0.053767 0.006631 -0.304994
-0.053867 0.006392 -0.304970
-0.053867 0.006160 -0.304970
-0.053867 0.005928 -0.304970
-0.053867 0.005696 -0.304970
-0.053967 0.005458 -0.304947
-0.053967 0.005226 -0.304947
-0.053967 0.004994 -0.304947
-0.054067 0.004757 -0.304923
-0.054167 0.004521 -0.304900
-0.054167 0.004290 -0.304900
-0.054267 0.004054 -0.304876
-0.054267 0.003823 -0.304876
-0.054367 0.003588 -0.304853
-0.054367 0.003357 -0.304853
-0.054367 0.003127 -0.304853
-0.054467 0.002893 -0.304829
-0.054567 0.002659 -0.304806
-0.054567 0.002429 -0.304806
-0.054667 0.002196 -0.304782
-0.054667 0.001967 -0.304782
-0.054667 0.001737 -0.304782
-0.054767 0.001505 -0.304759
-0.054767 0.001275 -0.304759
-0.054867 0.001044 -0.304735
-0.054867 0.000815 -0.304735
-0.045267 -0.006715 -0.306991
-0.045267 -0.006969 -0.306991
-0.045167 -0.007230 -0.307014
-0.045067 -0.007492 -0.307038
-0.044967 -0.007754 -0.307061
-0.044867 -0.008017 -0.307085
-0.044767 -0.008280 -0.307108
-0.044667 -0.008544 -0.307132
-0.044367 -0.008825 -0.307202
-0.044167 -0.009100 -0.307249
-0.043867 -0.009384 -0.307320
-0.043667 -0.009661 -0.307367
-0.043367 -0.009948 -0.307437
-0.043167 -0.010227 -0.307484
-0.042967 -0.010507 -0.307531
-0.042767 -0.010788 -0.307578
-0.042367 -0.011091 -0.307672
-0.041967 -0.011397 -0.307766
-0.041667 -0.011693 -0.307837
-0.042267 0.009560 -0.307958
-0.042367 0.009290 -0.307934
-0.042567 0.009011 -0.307887
-0.042567 0.008750 -0.307887
-0.042767 0.008473 -0.307839
-0.042767 0.008212 -0.307839
-0.053767 0.006399 -0.305226
-0.053867 0.006160 -0.305203
-0.053867 0.005928 -0.305203
-0.053867 0.005696 -0.305203
-0.053867 0.005464 -0.305203
-0.053967 0.005226 -0.305179
-0.053967 0.004994 -0.305179
-0.054267 0.003592 -0.305108
-0.054267 0.003361 -0.305108
-0.054267 0.003130 -0.305108
-0.054367 0.002896 -0.305084
-0.054467 0.002662 -0.305060
-0.054467 0.002432 -0.305060
-0.054467 0.002201 -0.305060
-0.054567 0.001969 -0.305036
-0.054567 0.001739 -0.305036
-0.054667 0.001507 -0.305012
-0.054667 0.001277 -0.305012
-0.054767 0.001046 -0.304989
-0.054867 0.000815 -0.304965
-0.045267 -0.006461 -0.307245
-0.045267 -0.006715 -0.307245
-0.045267 -0.006969 -0.307245
-0.045167 -0.007230 -0.307269
-0.045067 -0.007492 -0.307293
-0.044867 -0.007762 -0.307340
-0.044867 -0.008017 -0.307340
-0.044667 -0.008288 -0.307388
-0.044567 -0.008552 -0.307412
-0.044367 -0.008825 -0.307459
-0.044167 -0.009100 -0.307507
-0.043867 -0.009384 -0.307578
-0.043567 -0.009670 -0.307649
-0.043367 -0.009948 -0.307697
-0.043067 -0.010237 -0.307768
-0.042767 -0.010527 -0.307839
-0.042667 -0.010798 -0.307863
-0.042267 -0.011102 -0.307958
-0.041767 -0.011419 -0.308077
-0.041667 -0.011693 -0.308101
-0.041467 0.010689 -0.308412
-0.042067 0.010365 -0.308268
-0.042067 0.010103 -0.308268
-0.042167 0.009831 -0.308244
-0.042367 0.009551 -0.308196
-0.042467 0.009281 -0.308172
-0.042567 0.009011 -0.308148
-0.042667 0.008741 -0.308124
-0.042767 0.008473 -0.308100
-0.042867 0.008204 -0.308076
-0.042967 0.007936 -0.308052
-0.042967 0.007677 -0.308052
-0.045667 0.004692 -0.307404
-0.045867 0.004430 -0.307356
-0.045967 0.004173 -0.307332
-0.046067 0.003917 -0.307308
-0.046167 0.003662 -0.307284
-0.046267 0.003406 -0.307260
-0.046267 0.003155 -0.307260
-0.046267 0.002904 -0.307260
-0.054567 0.001278 -0.305267
-0.054567 0.001048 -0.305267
-0.054667 0.000817 -0.305243
-0.054867 0.000586 -0.305195
-0.045367 -0.006201 -0.307476
-0.045367 -0.006455 -0.307476
-0.045267 -0.006715 -0.307500
-0.045267 -0.006969 -0.307500
-0.045067 -0.007237 -0.307548
-0.045067 -0.007492 -0.307548
-0.044867 -0.007762 -0.307596
-0.044767 -0.008025 -0.307620
-0.044567 -0.008296 -0.307668
-0.044467 -0.008561 -0.307692
-0.044267 -0.008834 -0.307740
-0.043967 -0.009118 -0.307812
-0.043667 -0.009403 -0.307884
-0.043367 -0.009689 -0.307956
-0.043267 -0.009958 -0.307980
-0.042867 -0.010257 -0.308076
-0.042667 -0.010538 -0.308124
-0.042567 -0.010809 -0.308148
-0.042167 -0.011113 -0.308244
-0.041767 -0.011419 -0.308340
-0.041567 0.010679 -0.308652
-0.042067 0.010365 -0.308531
-0.042167 0.010093 -0.308507
-0.042267 0.009822 -0.308482
-0.042367 0.009551 -0.308458
-0.042467 0.009281 -0.308434
-0.042567 0.009011 -0.308410
-0.042667 0.008741 -0.308385
-0.042767 0.008473 -0.308361
-0.042967 0.008196 -0.308313
-0.042967 0.007936 -0.308313
-0.043167 0.007662 -0.308264
-0.043267 0.007395 -0.308240
-0.043267 0.007136 -0.308240
-0.045267 0.005218 -0.307754
-0.045467 0.004954 -0.307706
-0.045667 0.004692 -0.307657
-0.045867 0.004430 -0.307609
-0.045967 0.004173 -0.307585
-0.046067 0.003917 -0.307560
-0.046167 0.003662 -0.307536
-0.046267 0.003406 -0.307512
-0.046267 0.003155 -0.307512
-0.046267 0.002904 -0.307512
-0.046267 0.002652 -0.307512
-0.046367 0.002399 -0.307487
-0.046467 0.002145 -0.307463
-0.046467 0.001894 -0.307463
-0.046467 0.001644 -0.307463
-0.045367 -0.005947 -0.307730
-0.045367 -0.006201 -0.307730
-0.045367 -0.006455 -0.307730
-0.045267 -0.006715 -0.307754
-0.045167 -0.006976 -0.307779
-0.044967 -0.007245 -0.307827
-0.044867 -0.007507 -0.307851
-0.044767 -0.007769 -0.307876
-0.044667 -0.008033 -0.307900
-0.044467 -0.008305 -0.307949
-0.044367 -0.008569 -0.307973
-0.044167 -0.008843 -0.308021
-0.043867 -0.009127 -0.308094
-0.043567 -0.009412 -0.308167
-0.043367 -0.009689 -0.308215
-0.043167 -0.009968 -0.308264
-0.042767 -0.010267 -0.308361
-0.042567 -0.010548 -0.308410
-0.042367 -0.010830 -0.308458
-0.041967 -0.011135 -0.308555
-0.041467 -0.011452 -0.308677
-0.041567 0.010679 -0.308916
-0.042067 0.010365 -0.308794
-0.042167 0.010093 -0.308769
-0.042267 0.009822 -0.308745
-0.042367 0.009551 -0.308720
-0.042467 0.009281 -0.308695
-0.042567 0.009011 -0.308671
-0.042667 0.008741 -0.308646
-0.042767 0.008473 -0.308622
-0.042967 0.008196 -0.308573
-0.042967 0.007936 -0.308573
-0.043167 0.007662 -0.308524
-0.043267 0.007395 -0.308499
-0.043467 0.007122 -0.308450
-0.043567 0.006857 -0.308426
-0.043867 0.006579 -0.308352
-0.044167 0.006303 -0.308279
-0.044167 0.006046 -0.308279
-0.044667 0.005761 -0.308156
-0.044967 0.005489 -0.308082
-0.045267 0.005218 -0.308009
-0.045467 0.004954 -0.307960
-0.045667 0.004692 -0.307911
-0.045767 0.004434 -0.307886
-0.045867 0.004177 -0.307862
-0.045967 0.003921 -0.307837
-0.046067 0.003665 -0.307813
-0.046167 0.003410 -0.307788
-0.046267 0.003155 -0.307764
-0.046267 0.002904 -0.307764
-0.046267 0.002652 -0.307764
-0.046367 0.002399 -0.307739
-0.046467 0.002145 -0.307715
-0.046467 0.001894 -0.307715
-0.046467 0.001644 -0.307715
-0.046467 0.001393 -0.307715
-0.046467 0.001142 -0.307715
-0.045367 -0.005694 -0.307984
-0.045367 -0.005947 -0.307984
-0.045367 -0.006201 -0.307984
-0.045267 -0.006461 -0.308009
-0.045267 -0.006715 -0.308009
-0.045067 -0.006983 -0.308058
-0.044967 -0.007245 -0.308082
-0.044867 -0.007507 -0.308107
-0.044767 -0.007769 -0.308132
-0.044467 -0.008049 -0.308205
-0.044367 -0.008313 -0.308230
-0.044167 -0.008586 -0.308279
-0.043967 -0.008860 -0.308328
-0.043767 -0.009136 -0.308377
-0.043467 -0.009421 -0.308450
-0.043267 -0.009699 -0.308499
-0.043067 -0.009978 -0.308548
-0.042667 -0.010277 -0.308646
-0.042467 -0.010558 -0.308695
-0.042267 -0.010841 -0.308745
-0.041467 -0.011189 -0.308941
-0.040267 0.011080 -0.309502
-0.040267 0.010813 -0.309502
-0.042067 0.010365 -0.309056
-0.042167 0.010093 -0.309031
-0.042267 0.009822 -0.309007
-0.042367 0.009551 -0.308982
-0.042467 0.009281 -0.308957
-0.042567 0.009011 -0.308932
-0.042667 0.008741 -0.308908
-0.042767 0.008473 -0.308883
-0.042867 0.008204 -0.308858
-0.042967 0.007936 -0.308833
-0.043167 0.007662 -0.308784
-0.043267 0.007395 -0.308759
-0.043467 0.007122 -0.308709
-0.043667 0.006850 -0.308660
-0.043867 0.006579 -0.308610
-0.044167 0.006303 -0.308536
-0.044367 0.006034 -0.308486
-0.044667 0.005761 -0.308412
-0.044967 0.005489 -0.308338
-0.045167 0.005224 -0.308288
-0.045467 0.004954 -0.308214
-0.045567 0.004696 -0.308189
-0.045667 0.004439 -0.308164
-0.045767 0.004182 -0.308140
-0.045867 0.003925 -0.308115
-0.045967 0.003669 -0.308090
-0.046067 0.003413 -0.308065
-0.046167 0.003158 -0.308040
-0.046167 0.002907 -0.308040
-0.046167 0.002655 -0.308040
-0.046367 0.002399 -0.307991
-0.046367 0.002148 -0.307991
-0.046367 0.001896 -0.307991
-0.046467 0.001644 -0.307966
-0.046467 0.001393 -0.307966
-0.046467 0.001142 -0.307966
-0.046367 0.000892 -0.307991
-0.046367 0.000641 -0.307991
-0.046367 0.000390 -0.307991
-0.046367 0.000139 -0.307991
-0.046267 -0.000112 -0.308016
-0.045367 -0.005186 -0.308239
-0.045367 -0.005440 -0.308239
-0.045367 -0.005694 -0.308239
-0.045367 -0.005947 -0.308239
-0.045267 -0.006207 -0.308263
-0.045167 -0.006468 -0.308288
-0.045067 -0.006729 -0.308313
-0.044967 -0.006990 -0.308338
-0.044867 -0.007252 -0.308363
-0.044667 -0.007522 -0.308412
-0.044567 -0.007785 -0.308437
-0.044367 -0.008057 -0.308486
-0.044267 -0.008321 -0.308511
-0.043967 -0.008603 -0.308585
-0.043767 -0.008878 -0.308635
-0.043567 -0.009154 -0.308685
-0.043267 -0.009440 -0.308759
-0.043167 -0.009708 -0.308784
-0.042967 -0.009987 -0.308833
-0.042567 -0.010287 -0.308932
-0.042367 -0.010569 -0.308982
-0.042067 -0.010862 -0.309056
-0.041367 -0.011200 -0.309230
-0.040267 0.011080 -0.309770
-0.040267 0.010813 -0.309770
-0.041967 0.010375 -0.309344
-0.042067 0.010103 -0.309319
-0.042167 0.009831 -0.309294
-0.042267 0.009560 -0.309269
-0.042367 0.009290 -0.309244
-0.042467 0.009020 -0.309219
-0.042567 0.008750 -0.309194
-0.042667 0.008481 -0.309169
-0.042767 0.008212 -0.309144
-0.042967 0.007936 -0.309094
-0.043067 0.007669 -0.309069
-0.043167 0.007402 -0.309044
-0.043367 0.007129 -0.308994
-0.043667 0.006850 -0.308918
-0.043867 0.006579 -0.308868
-0.044167 0.006303 -0.308793
-0.044367 0.006034 -0.308743
-0.044667 0.005761 -0.308668
-0.044867 0.005494 -0.308618
-0.045067 0.005229 -0.308568
-0.045267 0.004964 -0.308518
-0.045467 0.004701 -0.308468
-0.045567 0.004443 -0.308443
-0.045667 0.004186 -0.308418
-0.045767 0.003929 -0.308393
-0.045867 0.003673 -0.308368
-0.045967 0.003417 -0.308343
-0.046067 0.003161 -0.308318
-0.046067 0.002910 -0.308318
-0.046167 0.002655 -0.308293
-0.046167 0.002403 -0.308293
-0.046267 0.002150 -0.308268
-0.046367 0.001896 -0.308243
-0.046367 0.001645 -0.308243
-0.046467 0.001393 -0.308218
-0.046467 0.001142 -0.308218
-0.046367 0.000892 -0.308243
-0.046367 0.000641 -0.308243
-0.046367 0.000390 -0.308243
-0.046367 0.000139 -0.308243
-0.046267 -0.000112 -0.308268
-0.046267 -0.000364 -0.308268
-0.046267 -0.000615 -0.308268
-0.046167 -0.000867 -0.308293
-0.046067 -0.001120 -0.308318
-0.045367 -0.004172 -0.308493
-0.045367 -0.004426 -0.308493
-0.045367 -0.004679 -0.308493
-0.045367 -0.004933 -0.308493
-0.045367 -0.005186 -0.308493
-0.045367 -0.005440 -0.308493
-0.045367 -0.005694 -0.308493
-0.045267 -0.005953 -0.308518
-0.045267 -0.006207 -0.308518
-0.045167 -0.006468 -0.308543
-0.044967 -0.006735 -0.308593
-0.044867 -0.006997 -0.308618
-0.044767 -0.007259 -0.308643
-0.044567 -0.007529 -0.308693
-0.044467 -0.007793 -0.308718
-0.044267 -0.008065 -0.308768
-0.044067 -0.008338 -0.308818
-0.043767 -0.008620 -0.308893
-0.043567 -0.008896 -0.308943
-0.043367 -0.009172 -0.308994
-0.043067 -0.009459 -0.309069
-0.042967 -0.009728 -0.309094
-0.042767 -0.010007 -0.309144
-0.042367 -0.010307 -0.309244
-0.042167 -0.010589 -0.309294
-0.041467 -0.010925 -0.309469
-0.041867 0.010385 -0.309632
-0.041967 0.010113 -0.309607
-0.042067 0.009841 -0.309582
-0.042267 0.009560 -0.309531
-0.042267 0.009299 -0.309531
-0.042367 0.009028 -0.309506
-0.042467 0.008759 -0.309480
-0.042567 0.008489 -0.309455
-0.042667 0.008220 -0.309430
-0.042867 0.007944 -0.309379
-0.042967 0.007677 -0.309354
-0.043067 0.007410 -0.309329
-0.043267 0.007136 -0.309278
-0.043567 0.006857 -0.309202
-0.043767 0.006586 -0.309152
-0.044067 0.006309 -0.309076
-0.044367 0.006034 -0.309000
-0.044567 0.005766 -0.308949
-0.044867 0.005494 -0.308874
-0.045067 0.005229 -0.308823
-0.045267 0.004964 -0.308772
-0.045367 0.004706 -0.308747
-0.045467 0.004448 -0.308722
-0.045667 0.004186 -0.308671
-0.045667 0.003933 -0.308671
-0.045767 0.003676 -0.308646
-0.045867 0.003420 -0.308621
-0.045967 0.003165 -0.308595
-0.045967 0.002913 -0.308595
-0.046067 0.002658 -0.308570
-0.046067 0.002406 -0.308570
-0.046167 0.002152 -0.308545
-0.046167 0.001900 -0.308545
-0.046267 0.001647 -0.308520
-0.046267 0.001396 -0.308520
-0.046267 0.001144 -0.308520
-0.046367 0.000892 -0.308494
-0.046367 0.000641 -0.308494
-0.046367 0.000390 -0.308494
-0.046267 0.000139 -0.308520
-0.046267 -0.000112 -0.308520
-0.046267 -0.000364 -0.308520
-0.046267 -0.000615 -0.308520
-0.046167 -0.000867 -0.308545
-0.046067 -0.001120 -0.308570
-0.046067 -0.001372 -0.308570
-0.045967 -0.001626 -0.308595
-0.045967 -0.001878 -0.308595
-0.045867 -0.002132 -0.308621
-0.045767 -0.002387 -0.308646
-0.045767 -0.002639 -0.308646
-0.045667 -0.002895 -0.308671
-0.045667 -0.003148 -0.308671
-0.045567 -0.003404 -0.308697
-0.045467 -0.003661 -0.308722
-0.045367 -0.003918 -0.308747
-0.045367 -0.004172 -0.308747
-0.045367 -0.004426 -0.308747
-0.045367 -0.004679 -0.308747
-0.045367 -0.004933 -0.308747
-0.045367 -0.005186 -0.308747
-0.045267 -0.005446 -0.308772
-0.045267 -0.005699 -0.308772
-0.045267 -0.005953 -0.308772
-0.045167 -0.006214 -0.308798
-0.044967 -0.006481 -0.308848
-0.044867 -0.006742 -0.308874
-0.044767 -0.007004 -0.308899
-0.044567 -0.007274 -0.308949
-0.044467 -0.007537 -0.308975
-0.044267 -0.007808 -0.309025
-0.044067 -0.008081 -0.309076
-0.043867 -0.008354 -0.309126
-0.043567 -0.008637 -0.309202
-0.043367 -0.008913 -0.309253
-0.043167 -0.009190 -0.309303
-0.042867 -0.009477 -0.309379
-0.042667 -0.009756 -0.309430
-0.042567 -0.010027 -0.309455
-0.042167 -0.010328 -0.309556
-0.041967 -0.010610 -0.309607
-0.041467 -0.010925 -0.309733
-0.041767 0.010395 -0.309921
-0.041867 0.010123 -0.309895
-0.041967 0.009851 -0.309870
-0.042067 0.009579 -0.309844
-0.042167 0.009308 -0.309819
-0.042267 0.009037 -0.309793
-0.042367 0.008767 -0.309768
-0.042467 0.008497 -0.309742
-0.042567 0.008228 -0.309717
-0.042667 0.007960 -0.309691
-0.042867 0.007684 -0.309640
-0.043067 0.007410 -0.309589
-0.043267 0.007136 -0.309538
-0.043567 0.006857 -0.309461
-0.043767 0.006586 -0.309410
-0.044067 0.006309 -0.309333
-0.044367 0.006034 -0.309257
-0.044567 0.005766 -0.309206
-0.044767 0.005500 -0.309155
-0.044867 0.005239 -0.309129
-0.045067 0.004974 -0.309078
-0.045267 0.004711 -0.309027
-0.045267 0.004457 -0.309027
-0.045467 0.004194 -0.308976
-0.045567 0.003937 -0.308950
-0.045667 0.003680 -0.308925
-0.045667 0.003427 -0.308925
-0.045767 0.003171 -0.308899
-0.045867 0.002916 -0.308874
-0.045967 0.002660 -0.308848
-0.046067 0.002406 -0.308823
-0.046067 0.002154 -0.308823
-0.046167 0.001900 -0.308797
-0.046167 0.001649 -0.308797
-0.046167 0.001397 -0.308797
-0.046267 0.001144 -0.308771
-0.046267 0.000893 -0.308771
-0.046267 0.000642 -0.308771
-0.046167 0.000391 -0.308797
-0.046167 0.000139 -0.308797
-0.046167 -0.000113 -0.308797
-0.046167 -0.000364 -0.308797
-0.046167 -0.000616 -0.308797
-0.046167 -0.000867 -0.308797
-0.046067 -0.001120 -0.308823
-0.046067 -0.001372 -0.308823
-0.045967 -0.001626 -0.308848
-0.045967 -0.001878 -0.308848
-0.045967 -0.002130 -0.308848
-0.045867 -0.002384 -0.308874
-0.045767 -0.002639 -0.308899
-0.045767 -0.002892 -0.308899
-0.045667 -0.003148 -0.308925
-0.045667 -0.003401 -0.308925
-0.045467 -0.003661 -0.308976
-0.045467 -0.003914 -0.308976
-0.045367 -0.004172 -0.309001
-0.045367 -0.004426 -0.309001
-0.045367 -0.004679 -0.309001
-0.045267 -0.004938 -0.309027
-0.045267 -0.005192 -0.309027
-0.045267 -0.005446 -0.309027
-0.045167 -0.005705 -0.309052
-0.045067 -0.005965 -0.309078
-0.045067 -0.006220 -0.309078
-0.044867 -0.006487 -0.309129
-0.044667 -0.006756 -0.309180
-0.044567 -0.007018 -0.309206
-0.044367 -0.007288 -0.309257
-0.044267 -0.007552 -0.309282
-0.044067 -0.007824 -0.309333
-0.043867 -0.008097 -0.309384
-0.043667 -0.008371 -0.309436
-0.043367 -0.008654 -0.309512
-0.043167 -0.008931 -0.309563
-0.042867 -0.009217 -0.309640
-0.042667 -0.009496 -0.309691
-0.042567 -0.009766 -0.309717
-0.042367 -0.010046 -0.309768
-0.041967 -0.010348 -0.309870
-0.041667 -0.010641 -0.309946
-0.041667 0.010405 -0.310210
-0.041667 0.010142 -0.310210
-0.041867 0.009860 -0.310159
-0.041967 0.009588 -0.310133
-0.041967 0.009326 -0.310133
-0.042067 0.009055 -0.310107
-0.042167 0.008784 -0.310081
-0.042367 0.008506 -0.310030
-0.042467 0.008236 -0.310004
-0.042567 0.007968 -0.309978
-0.042667 0.007699 -0.309952
-0.042967 0.007417 -0.309875
-0.043167 0.007143 -0.309823
-0.043367 0.006870 -0.309772
-0.043667 0.006592 -0.309694
-0.043867 0.006322 -0.309643
-0.044167 0.006046 -0.309565
-0.044367 0.005778 -0.309514
-0.044567 0.005511 -0.309462
-0.044767 0.005245 -0.309410
-0.044867 0.004984 -0.309385
-0.045067 0.004720 -0.309333
-0.045167 0.004461 -0.309307
-0.045267 0.004203 -0.309281
-0.045367 0.003945 -0.309256
-0.045467 0.003687 -0.309230
-0.045567 0.003431 -0.309204
-0.045667 0.003174 -0.309178
-0.045667 0.002921 -0.309178
-0.045767 0.002666 -0.309152
-0.045867 0.002411 -0.309127
-0.045867 0.002158 -0.309127
-0.046067 0.001902 -0.309075
-0.046067 0.001650 -0.309075
-0.046067 0.001398 -0.309075
-0.046067 0.001147 -0.309075
-0.046167 0.000894 -0.309049
-0.046167 0.000642 -0.309049
-0.046067 0.000391 -0.309075
-0.046067 0.000139 -0.309075
-0.046067 -0.000113 -0.309075
-0.046067 -0.000365 -0.309075
-0.046067 -0.000616 -0.309075
-0.046067 -0.000868 -0.309075
-0.046067 -0.001120 -0.309075
-0.046067 -0.001372 -0.309075
-0.045967 -0.001626 -0.309101
-0.045967 -0.001878 -0.309101
-0.045967 -0.002130 -0.309101
-0.045867 -0.002384 -0.309127
-0.045767 -0.002639 -0.309152
-0.045767 -0.002892 -0.309152
-0.045667 -0.003148 -0.309178
-0.045667 -0.003401 -0.309178
-0.045467 -0.003661 -0.309230
-0.045467 -0.003914 -0.309230
-0.045367 -0.004172 -0.309256
-0.045267 -0.004430 -0.309281
-0.045267 -0.004684 -0.309281
-0.045167 -0.004943 -0.309307
-0.045167 -0.005197 -0.309307
-0.045067 -0.005457 -0.309333
-0.045067 -0.005711 -0.309333
-0.044867 -0.005977 -0.309385
-0.044867 -0.006232 -0.309385
-0.044767 -0.006494 -0.309410
-0.044567 -0.006762 -0.309462
-0.044367 -0.007032 -0.309514
-0.044267 -0.007295 -0.309539
-0.044067 -0.007567 -0.309591
-0.043867 -0.007839 -0.309643
-0.043667 -0.008113 -0.309694
-0.043467 -0.008387 -0.309746
-0.043267 -0.008663 -0.309797
-0.042967 -0.008948 -0.309875
-0.042767 -0.009226 -0.309926
-0.042567 -0.009505 -0.309978
-0.042367 -0.009785 -0.310030
-0.042267 -0.010056 -0.310055
-0.041867 -0.010358 -0.310159
-0.041667 -0.010641 -0.310210
-0.041467 0.010426 -0.310526
-0.041567 0.010152 -0.310500
-0.041667 0.009879 -0.310474
-0.041667 0.009616 -0.310474
-0.041867 0.009335 -0.310422
-0.041867 0.009072 -0.310422
-0.041967 0.008801 -0.310396
-0.042067 0.008531 -0.310370
-0.042167 0.008261 -0.310344
-0.042367 0.007983 -0.310291
-0.042567 0.007707 -0.310239
-0.042767 0.007431 -0.310187
-0.042967 0.007157 -0.310135
-0.043267 0.006877 -0.310057
-0.043467 0.006605 -0.310005
-0.043767 0.006328 -0.309927
-0.043967 0.006058 -0.309875
-0.044267 0.005784 -0.309796
-0.044367 0.005522 -0.309770
-0.044567 0.005255 -0.309718
-0.044767 0.004989 -0.309666
-0.044867 0.004729 -0.309640
-0.044967 0.004470 -0.309614
-0.045067 0.004211 -0.309588
-0.045167 0.003953 -0.309562
-0.045267 0.003695 -0.309536
-0.045367 0.003438 -0.309510
-0.045467 0.003181 -0.309484
-0.045567 0.002924 -0.309458
-0.045567 0.002671 -0.309458
-0.045667 0.002416 -0.309432
-0.045767 0.002161 -0.309406
-0.045767 0.001908 -0.309406
-0.045867 0.001654 -0.309380
-0.045967 0.001400 -0.309354
-0.045967 0.001148 -0.309354
-0.045967 0.000896 -0.309354
-0.046067 0.000643 -0.309327
-0.046067 0.000391 -0.309327
-0.045967 0.000139 -0.309354
-0.046067 -0.000113 -0.309327
-0.046067 -0.000365 -0.309327
-0.046067 -0.000616 -0.309327
-0.045967 -0.000869 -0.309354
-0.045967 -0.001121 -0.309354
-0.045967 -0.001373 -0.309354
-0.045967 -0.001626 -0.309354
-0.045867 -0.001880 -0.309380
-0.045867 -0.002132 -0.309380
-0.045767 -0.002387 -0.309406
-0.045767 -0.002639 -0.309406
-0.045667 -0.002895 -0.309432
-0.045567 -0.003151 -0.309458
-0.045567 -0.003404 -0.309458
-0.045467 -0.003661 -0.309484
-0.045367 -0.003918 -0.309510
-0.045367 -0.004172 -0.309510
-0.045267 -0.004430 -0.309536
-0.045267 -0.004684 -0.309536
-0.045167 -0.004943 -0.309562
-0.045067 -0.005202 -0.309588
-0.044967 -0.005462 -0.309614
-0.044867 -0.005722 -0.309640
-0.044767 -0.005983 -0.309666
-0.044667 -0.006245 -0.309692
-0.044467 -0.006513 -0.309744
-0.044367 -0.006776 -0.309770
-0.044167 -0.007046 -0.309822
-0.044067 -0.007310 -0.309849
-0.043867 -0.007582 -0.309901
-0.043767 -0.007847 -0.309927
-0.043567 -0.008121 -0.309979
-0.043267 -0.008404 -0.310057
-0.043067 -0.008680 -0.310109
-0.042867 -0.008957 -0.310161
-0.042567 -0.009244 -0.310239
-0.042367 -0.009524 -0.310291
-0.042267 -0.009794 -0.310317
-0.042067 -0.010076 -0.310370
-0.041667 -0.010378 -0.310474
-0.041667 -0.010641 -0.310474
-0.041367 0.010172 -0.310816
-0.041467 0.009898 -0.310790
-0.041567 0.009626 -0.310764
-0.041667 0.009353 -0.310738
-0.041667 0.009090 -0.310738
-0.041667 0.008827 -0.310738
-0.041867 0.008547 -0.310685
-0.041967 0.008277 -0.310659
-0.042167 0.007999 -0.310606
-0.042367 0.007722 -0.310553
-0.042567 0.007446 -0.310501
-0.042867 0.007164 -0.310422
-0.043067 0.006891 -0.310369
-0.043367 0.006612 -0.310290
-0.043567 0.006340 -0.310238
-0.043867 0.006064 -0.310159
-0.044067 0.005795 -0.310106
-0.044267 0.005527 -0.310053
-0.044367 0.005265 -0.310027
-0.044567 0.004999 -0.309975
-0.044667 0.004739 -0.309948
-0.044767 0.004479 -0.309922
-0.044867 0.004220 -0.309896
-0.044967 0.003961 -0.309869
-0.045067 0.003702 -0.309843
-0.045167 0.003444 -0.309817
-0.045267 0.003187 -0.309790
-0.045367 0.002930 -0.309764
-0.045467 0.002674 -0.309738
-0.045467 0.002421 -0.309738
-0.045567 0.002165 -0.309711
-0.045667 0.001910 -0.309685
-0.045667 0.001657 -0.309685
-0.045767 0.001403 -0.309659
-0.045767 0.001150 -0.309659
-0.045767 0.000897 -0.309659
-0.045867 0.000644 -0.309633
-0.045867 0.000392 -0.309633
-0.045867 0.000139 -0.309633
-0.045867 -0.000113 -0.309633
-0.045867 -0.000365 -0.309633
-0.045867 -0.000618 -0.309633
-0.045867 -0.000870 -0.309633
-0.045867 -0.001122 -0.309633
-0.045967 -0.001373 -0.309606
-0.045967 -0.001626 -0.309606
-0.045867 -0.001880 -0.309633
-0.045767 -0.002134 -0.309659
-0.045767 -0.002387 -0.309659
-0.045667 -0.002642 -0.309685
-0.045667 -0.002895 -0.309685
-0.045567 -0.003151 -0.309711
-0.045567 -0.003404 -0.309711
-0.045467 -0.003661 -0.309738
-0.045367 -0.003918 -0.309764
-0.045267 -0.004176 -0.309790
-0.045167 -0.004434 -0.309817
-0.045067 -0.004693 -0.309843
-0.045067 -0.004948 -0.309843
-0.044867 -0.005213 -0.309896
-0.044767 -0.005473 -0.309922
-0.044667 -0.005734 -0.309948
-0.044567 -0.005995 -0.309975
-0.044367 -0.006263 -0.310027
-0.044267 -0.006526 -0.310053
-0.044167 -0.006789 -0.310080
-0.043967 -0.007060 -0.310132
-0.043867 -0.007324 -0.310159
-0.043767 -0.007589 -0.310185
-0.043567 -0.007863 -0.310238
-0.043367 -0.008137 -0.310290
-0.043167 -0.008412 -0.310343
-0.042967 -0.008689 -0.310395
-0.042667 -0.008975 -0.310474
-0.042567 -0.009244 -0.310501
-0.042367 -0.009524 -0.310553
-0.042267 -0.009794 -0.310580
-0.042067 -0.010076 -0.310632
-0.041667 -0.010378 -0.310738
-0.041267 0.009918 -0.311107
-0.041367 0.009644 -0.311081
-0.041367 0.009380 -0.311081
-0.041467 0.009108 -0.311054
-0.041567 0.008836 -0.311028
-0.041667 0.008564 -0.311001
-0.041767 0.008293 -0.310975
-0.041967 0.008014 -0.310922
-0.042167 0.007737 -0.310868
-0.042367 0.007461 -0.310815
-0.042567 0.007185 -0.310762
-0.042967 0.006897 -0.310656
-0.043167 0.006625 -0.310603
-0.043467 0.006347 -0.310523
-0.043667 0.006076 -0.310470
-0.043867 0.005807 -0.310417
-0.044067 0.005538 -0.310364
-0.044267 0.005271 -0.310311
-0.044367 0.005009 -0.310284
-0.044467 0.004748 -0.310257
-0.044567 0.004488 -0.310231
-0.044667 0.004228 -0.310204
-0.044767 0.003969 -0.310178
-0.044867 0.003710 -0.310151
-0.044967 0.003451 -0.310125
-0.045067 0.003193 -0.310098
-0.045167 0.002936 -0.310071
-0.045267 0.002679 -0.310045
-0.045267 0.002425 -0.310045
-0.045367 0.002169 -0.310018
-0.045467 0.001914 -0.309992
-0.045467 0.001660 -0.309992
-0.045567 0.001406 -0.309965
-0.045567 0.001152 -0.309965
-0.045667 0.000898 -0.309939
-0.045667 0.000645 -0.309939
-0.045667 0.000393 -0.309939
-0.045667 0.000140 -0.309939
-0.045667 -0.000113 -0.309939
-0.045667 -0.000366 -0.309939
-0.045667 -0.000619 -0.309939
-0.045667 -0.000872 -0.309939
-0.045767 -0.001124 -0.309912
-0.045767 -0.001376 -0.309912
-0.045767 -0.001629 -0.309912
-0.045767 -0.001881 -0.309912
-0.045667 -0.002136 -0.309939
-0.045667 -0.002389 -0.309939
-0.045667 -0.002642 -0.309939
-0.045667 -0.002895 -0.309939
-0.045567 -0.003151 -0.309965
-0.045467 -0.003407 -0.309992
-0.045367 -0.003665 -0.310018
-0.045267 -0.003922 -0.310045
-0.045167 -0.004180 -0.310071
-0.045067 -0.004439 -0.310098
-0.044967 -0.004698 -0.310125
-0.044867 -0.004958 -0.310151
-0.044767 -0.005218 -0.310178
-0.044567 -0.005484 -0.310231
-0.044467 -0.005745 -0.310257
-0.044367 -0.006007 -0.310284
-0.044267 -0.006270 -0.310311
-0.044067 -0.006539 -0.310364
-0.043967 -0.006803 -0.310390
-0.043867 -0.007067 -0.310417
-0.043767 -0.007332 -0.310443
-0.043767 -0.007589 -0.310443
-0.043567 -0.007863 -0.310496
-0.043367 -0.008137 -0.310550
-0.043167 -0.008412 -0.310603
-0.042967 -0.008689 -0.310656
-0.042667 -0.008975 -0.310736
-0.042567 -0.009244 -0.310762
-0.042267 -0.009533 -0.310842
-0.042167 -0.009804 -0.310868
-0.041967 -0.010085 -0.310922
-0.041667 -0.010378 -0.311001
-0.041167 0.009663 -0.311399
-0.041167 0.009398 -0.311399
-0.041267 0.009125 -0.311372
-0.041367 0.008853 -0.311345
-0.041467 0.008580 -0.311319
-0.041567 0.008309 -0.311292
-0.041767 0.008030 -0.311238
-0.041967 0.007752 -0.311184
-0.042167 0.007475 -0.311131
-0.042467 0.007192 -0.311050
-0.042667 0.006918 -0.310997
-0.042967 0.006638 -0.310916
-0.043267 0.006359 -0.310836
-0.043467 0.006088 -0.310782
-0.043667 0.005818 -0.310728
-0.043867 0.005549 -0.310675
-0.043967 0.005286 -0.310648
-0.044167 0.005019 -0.310594
-0.044267 0.004758 -0.310568
-0.044367 0.004497 -0.310541
-0.044467 0.004236 -0.310514
-0.044567 0.003977 -0.310487
-0.044667 0.003717 -0.310460
-0.044767 0.003458 -0.310433
-0.044867 0.003200 -0.310407
-0.044867 0.002945 -0.310407
-0.044967 0.002687 -0.310380
-0.045067 0.002430 -0.310353
-0.045167 0.002174 -0.310326
-0.045267 0.001918 -0.310299
-0.045267 0.001664 -0.310299
-0.045267 0.001410 -0.310299
-0.045367 0.001155 -0.310273
-0.045367 0.000901 -0.310273
-0.045367 0.000647 -0.310273
-0.045467 0.000393 -0.310246
-0.045467 0.000140 -0.310246
-0.045567 -0.000113 -0.310219
-0.045567 -0.000366 -0.310219
-0.045567 -0.000620 -0.310219
-0.045567 -0.000873 -0.310219
-0.045667 -0.001125 -0.310192
-0.045667 -0.001378 -0.310192
-0.045667 -0.001630 -0.310192
-0.045667 -0.001883 -0.310192
-0.045667 -0.002136 -0.310192
-0.045667 -0.002389 -0.310192
-0.045567 -0.002645 -0.310219
-0.045567 -0.002898 -0.310219
-0.045467 -0.003154 -0.310246
-0.045367 -0.003411 -0.310273
-0.045267 -0.003668 -0.310299
-0.045267 -0.003922 -0.310299
-0.045067 -0.004184 -0.310353
-0.044967 -0.004443 -0.310380
-0.044867 -0.004703 -0.310407
-0.044767 -0.004963 -0.310433
-0.044567 -0.005228 -0.310487
-0.044367 -0.005495 -0.310541
-0.044367 -0.005751 -0.310541
-0.044367 -0.006007 -0.310541
-0.044267 -0.006270 -0.310568
-0.044067 -0.006539 -0.310621
-0.043967 -0.006803 -0.310648
-0.043867 -0.007067 -0.310675
-0.043667 -0.007339 -0.310728
-0.043567 -0.007604 -0.310755
-0.043367 -0.007878 -0.310809
-0.043267 -0.008145 -0.310836
-0.043067 -0.008420 -0.310889
-0.042867 -0.008697 -0.310943
-0.042667 -0.008975 -0.310997
-0.042367 -0.009262 -0.311077
-0.042267 -0.009533 -0.311104
-0.042067 -0.009813 -0.311158
-0.041767 -0.010105 -0.311238
-0.040967 0.009681 -0.311718
-0.040967 0.009417 -0.311718
-0.041067 0.009143 -0.311691
-0.041167 0.008870 -0.311664
-0.041267 0.008597 -0.311637
-0.041467 0.008317 -0.311583
-0.041567 0.008045 -0.311556
-0.041767 0.007767 -0.311502
-0.041967 0.007490 -0.311447
-0.042267 0.007206 -0.311366
-0.042567 0.006924 -0.311285
-0.042767 0.006651 -0.311231
-0.043067 0.006372 -0.311150
-0.043267 0.006100 -0.311095
-0.043467 0.005830 -0.311041
-0.043667 0.005560 -0.310987
-0.043767 0.005297 -0.310960
-0.043867 0.005034 -0.310933
-0.043967 0.004772 -0.310906
-0.044067 0.004510 -0.310879
-0.044267 0.004245 -0.310825
-0.044367 0.003984 -0.310798
-0.044367 0.003728 -0.310798
-0.044467 0.003469 -0.310770
-0.044567 0.003209 -0.310743
-0.044767 0.002948 -0.310689
-0.044767 0.002693 -0.310689
-0.044867 0.002435 -0.310662
-0.044867 0.002180 -0.310662
-0.044967 0.001923 -0.310635
-0.045067 0.001667 -0.310608
-0.045067 0.001413 -0.310608
-0.045167 0.001157 -0.310581
-0.045167 0.000903 -0.310581
-0.045267 0.000648 -0.310554
-0.045267 0.000394 -0.310554
-0.045267 0.000140 -0.310554
-0.045367 -0.000114 -0.310527
-0.045367 -0.000367 -0.310527
-0.045367 -0.000621 -0.310527
-0.045467 -0.000874 -0.310500
-0.045467 -0.001127 -0.310500
-0.045467 -0.001380 -0.310500
-0.045567 -0.001632 -0.310473
-0.045567 -0.001885 -0.310473
-0.045567 -0.002138 -0.310473
-0.045467 -0.002394 -0.310500
-0.045467 -0.002647 -0.310500
-0.045367 -0.002904 -0.310527
-0.045367 -0.003157 -0.310527
-0.045267 -0.003414 -0.310554
-0.045267 -0.003668 -0.310554
-0.045067 -0.003930 -0.310608
-0.044967 -0.004189 -0.310635
-0.044967 -0.004443 -0.310635
-0.044867 -0.004703 -0.310662
-0.044767 -0.004963 -0.310689
-0.044567 -0.005228 -0.310743
-0.044367 -0.005495 -0.310798
-0.044267 -0.005757 -0.310825
-0.044167 -0.006019 -0.310852
-0.044067 -0.006282 -0.310879
-0.043867 -0.006552 -0.310933
-0.043767 -0.006816 -0.310960
-0.043667 -0.007081 -0.310987
-0.043567 -0.007346 -0.311014
-0.043367 -0.007619 -0.311068
-0.043267 -0.007886 -0.311095
-0.043167 -0.008153 -0.311122
-0.042967 -0.008429 -0.311177
-0.042667 -0.008714 -0.311258
-0.042567 -0.008983 -0.311285
-0.042367 -0.009262 -0.311339
-0.042167 -0.009542 -0.311393
-0.041967 -0.009823 -0.311447
-0.041767 -0.010105 -0.311502
-0.040867 0.009426 -0.312011
-0.040967 0.009152 -0.311984
-0.041067 0.008878 -0.311956
-0.041167 0.008605 -0.311929
-0.041367 0.008325 -0.311874
-0.041467 0.008053 -0.311847
-0.041667 0.007775 -0.311792
-0.041867 0.007497 -0.311738
-0.042067 0.007220 -0.311683
-0.042367 0.006938 -0.311601
-0.042567 0.006664 -0.311546
-0.042767 0.006390 -0.311492
-0.042967 0.006118 -0.311437
-0.043167 0.005847 -0.311382
-0.043367 0.005577 -0.311328
-0.043467 0.005313 -0.311300
-0.043667 0.005044 -0.311246
-0.043767 0.004781 -0.311218
-0.043867 0.004519 -0.311191
-0.043967 0.004258 -0.311164
-0.044067 0.003996 -0.311136
-0.044167 0.003736 -0.311109
-0.044267 0.003476 -0.311082
-0.044367 0.003216 -0.311054
-0.044467 0.002957 -0.311027
-0.044567 0.002698 -0.311000
-0.044667 0.002440 -0.310972
-0.044667 0.002185 -0.310972
-0.044767 0.001927 -0.310945
-0.044767 0.001672 -0.310945
-0.044867 0.001415 -0.310918
-0.044867 0.001161 -0.310918
-0.044967 0.000905 -0.310890
-0.044967 0.000650 -0.310890
-0.045067 0.000395 -0.310863
-0.045167 0.000140 -0.310836
-0.045167 -0.000114 -0.310836
-0.045267 -0.000368 -0.310808
-0.045267 -0.000621 -0.310808
-0.045267 -0.000875 -0.310808
-0.045267 -0.001129 -0.310808
-0.045367 -0.001382 -0.310781
-0.045367 -0.001635 -0.310781
-0.045367 -0.001889 -0.310781
-0.045367 -0.002143 -0.310781
-0.045367 -0.002396 -0.310781
-0.045267 -0.002653 -0.310808
-0.045367 -0.002904 -0.310781
-0.045367 -0.003157 -0.310781
-0.045267 -0.003414 -0.310808
-0.045267 -0.003668 -0.310808
-0.045067 -0.003930 -0.310863
-0.044967 -0.004189 -0.310890
-0.044867 -0.004448 -0.310918
-0.044667 -0.004712 -0.310972
-0.044567 -0.004972 -0.311000
-0.044367 -0.005239 -0.311054
-0.044267 -0.005500 -0.311082
-0.044067 -0.005768 -0.311136
-0.043967 -0.006031 -0.311164
-0.043867 -0.006295 -0.311191
-0.043767 -0.006558 -0.311218
-0.043567 -0.006830 -0.311273
-0.043467 -0.007095 -0.311300
-0.043367 -0.007361 -0.311328
-0.043267 -0.007627 -0.311355
-0.043167 -0.007894 -0.311382
-0.042967 -0.008169 -0.311437
-0.042767 -0.008445 -0.311492
-0.042667 -0.008714 -0.311519
-0.042567 -0.008983 -0.311546
-0.042267 -0.009271 -0.311628
-0.042067 -0.009551 -0.311683
-0.041967 -0.009823 -0.311710
-0.040967 0.009152 -0.312249
-0.040967 0.008887 -0.312249
-0.041167 0.008605 -0.312194
-0.041267 0.008333 -0.312166
-0.041467 0.008053 -0.312111
-0.041567 0.007782 -0.312084
-0.041767 0.007504 -0.312028
-0.041967 0.007227 -0.311973
-0.042167 0.006952 -0.311918
-0.042367 0.006677 -0.311863
-0.042567 0.006403 -0.311808
-0.042767 0.006130 -0.311753
-0.042967 0.005858 -0.311697
-0.043067 0.005593 -0.311670
-0.043267 0.005323 -0.311615
-0.043367 0.005059 -0.311587
-0.043467 0.004796 -0.311559
-0.043567 0.004533 -0.311532
-0.043767 0.004266 -0.311477
-0.043867 0.004004 -0.311449
-0.043867 0.003747 -0.311449
-0.044067 0.003482 -0.311394
-0.044167 0.003222 -0.311366
-0.044267 0.002963 -0.311339
-0.044267 0.002706 -0.311339
-0.044367 0.002447 -0.311311
-0.044367 0.002191 -0.311311
-0.044467 0.001933 -0.311284
-0.044567 0.001675 -0.311256
-0.044567 0.001420 -0.311256
-0.044667 0.001163 -0.311228
-0.044767 0.000907 -0.311201
-0.044767 0.000651 -0.311201
-0.044867 0.000396 -0.311173
-0.044867 0.000141 -0.311173
-0.044967 -0.000114 -0.311146
-0.045067 -0.000368 -0.311118
-0.045067 -0.000623 -0.311118
-0.045067 -0.000877 -0.311118
-0.045167 -0.001130 -0.311090
-0.045367 -0.001382 -0.311035
-0.045367 -0.001635 -0.311035
-0.045367 -0.001889 -0.311035
-0.045367 -0.002143 -0.311035
-0.045367 -0.002396 -0.311035
-0.045267 -0.002653 -0.311063
-0.045267 -0.002907 -0.311063
-0.045267 -0.003160 -0.311063
-0.045167 -0.003418 -0.311090
-0.045067 -0.003676 -0.311118
-0.044967 -0.003934 -0.311146
-0.044867 -0.004193 -0.311173
-0.044667 -0.004457 -0.311228
-0.044467 -0.004721 -0.311284
-0.044367 -0.004982 -0.311311
-0.044167 -0.005249 -0.311366
-0.044067 -0.005511 -0.311394
-0.043867 -0.005780 -0.311449
-0.043767 -0.006043 -0.311477
-0.043667 -0.006307 -0.311504
-0.043567 -0.006571 -0.311532
-0.043367 -0.006843 -0.311587
-0.043267 -0.007109 -0.311615
-0.043267 -0.007368 -0.311615
-0.043067 -0.007642 -0.311670
-0.042967 -0.007909 -0.311697
-0.042867 -0.008177 -0.311725
-0.042767 -0.008445 -0.311753
-0.042567 -0.008723 -0.311808
-0.042467 -0.008992 -0.311835
-0.042267 -0.009271 -0.311890
-0.041967 -0.009561 -0.311973
-0.041567 -0.009861 -0.312084
-0.040967 0.008887 -0.312515
-0.041067 0.008614 -0.312487
-0.041267 0.008333 -0.312431
-0.041367 0.008061 -0.312403
-0.041567 0.007782 -0.312348
-0.041667 0.007512 -0.312320
-0.041767 0.007241 -0.312292
-0.042067 0.006958 -0.312208
-0.042167 0.006690 -0.312180
-0.042367 0.006415 -0.312125
-0.042567 0.006142 -0.312069
-0.042667 0.005876 -0.312041
-0.042767 0.005610 -0.312013
-0.042967 0.005339 -0.311958
-0.043067 0.005074 -0.311930
-0.043167 0.004810 -0.311902
-0.043267 0.004546 -0.311874
-0.043367 0.004283 -0.311846
-0.043567 0.004016 -0.311791
-0.043667 0.003754 -0.311763
-0.043767 0.003493 -0.311735
-0.043867 0.003232 -0.311707
-0.043967 0.002971 -0.311679
-0.044067 0.002712 -0.311651
-0.044167 0.002452 -0.311624
-0.044167 0.002195 -0.311624
-0.044267 0.001937 -0.311596
-0.044367 0.001679 -0.311568
-0.044367 0.001423 -0.311568
-0.044367 0.001166 -0.311568
-0.044467 0.000909 -0.311540
-0.044767 0.000651 -0.311457
-0.044867 0.000396 -0.311429
-0.044867 0.000141 -0.311429
-0.044967 -0.000114 -0.311401
-0.045067 -0.000368 -0.311373
-0.045067 -0.000623 -0.311373
-0.045067 -0.000877 -0.311373
-0.045167 -0.001130 -0.311345
-0.045167 -0.001385 -0.311345
-0.045167 -0.001639 -0.311345
-0.045167 -0.001893 -0.311345
-0.045167 -0.002147 -0.311345
-0.045167 -0.002401 -0.311345
-0.045167 -0.002655 -0.311345
-0.045067 -0.002912 -0.311373
-0.045067 -0.003167 -0.311373
-0.044967 -0.003425 -0.311401
-0.044867 -0.003683 -0.311429
-0.044767 -0.003942 -0.311457
-0.044667 -0.004201 -0.311484
-0.044467 -0.004466 -0.311540
-0.044367 -0.004726 -0.311568
-0.044167 -0.004992 -0.311624
-0.043967 -0.005259 -0.311679
-0.043867 -0.005522 -0.311707
-0.043667 -0.005791 -0.311763
-0.043567 -0.006055 -0.311791
-0.043367 -0.006326 -0.311846
-0.043267 -0.006591 -0.311874
-0.043267 -0.006850 -0.311874
-0.043167 -0.007116 -0.311902
-0.042967 -0.007390 -0.311958
-0.042867 -0.007657 -0.311986
-0.042867 -0.007917 -0.311986
-0.042667 -0.008193 -0.312041
-0.042567 -0.008462 -0.312069
-0.042467 -0.008731 -0.312097
-0.042367 -0.009001 -0.312125
-0.042067 -0.009289 -0.312208
-0.041167 0.008605 -0.312724
-0.041267 0.008333 -0.312696
-0.041367 0.008061 -0.312668
-0.041467 0.007790 -0.312640
-0.041567 0.007519 -0.312611
-0.041667 0.007248 -0.312583
-0.041767 0.006979 -0.312555
-0.041967 0.006703 -0.312499
-0.042067 0.006434 -0.312471
-0.042267 0.006160 -0.312415
-0.042367 0.005893 -0.312387
-0.042567 0.005621 -0.312330
-0.042667 0.005355 -0.312302
-0.042767 0.005089 -0.312274
-0.042867 0.004824 -0.312246
-0.042967 0.004560 -0.312218
-0.043167 0.004291 -0.312162
-0.043267 0.004028 -0.312134
-0.043367 0.003765 -0.312106
-0.043467 0.003503 -0.312078
-0.043567 0.003241 -0.312050
-0.043667 0.002980 -0.312021
-0.043767 0.002720 -0.311993
-0.043867 0.002459 -0.311965
-0.044167 0.002195 -0.311881
-0.044267 0.001937 -0.311853
-0.044367 0.001679 -0.311825
-0.044367 0.001423 -0.311825
-0.044367 0.001166 -0.311825
-0.044467 0.000909 -0.311797
-0.044567 0.000653 -0.311769
-0.044667 0.000397 -0.311740
-0.044667 0.000141 -0.311740
-0.044767 -0.000114 -0.311712
-0.044867 -0.000369 -0.311684
-0.044867 -0.000624 -0.311684
-0.044867 -0.000879 -0.311684
-0.044867 -0.001134 -0.311684
-0.044867 -0.001389 -0.311684
-0.044867 -0.001644 -0.311684
-0.044867 -0.001899 -0.311684
-0.044867 -0.002153 -0.311684
-0.044867 -0.002408 -0.311684
-0.044867 -0.002663 -0.311684
-0.044867 -0.002918 -0.311684
-0.044767 -0.003176 -0.311712
-0.044767 -0.003431 -0.311712
-0.044667 -0.003690 -0.311740
-0.044467 -0.003954 -0.311797
-0.044367 -0.004214 -0.311825
-0.044267 -0.004474 -0.311853
-0.044067 -0.004740 -0.311909
-0.043867 -0.005007 -0.311965
-0.043767 -0.005270 -0.311993
-0.043567 -0.005539 -0.312050
-0.043467 -0.005802 -0.312078
-0.043267 -0.006073 -0.312134
-0.043267 -0.006332 -0.312134
-0.043167 -0.006597 -0.312162
-0.043067 -0.006863 -0.312190
-0.042967 -0.007130 -0.312218
-0.042767 -0.007404 -0.312274
-0.042667 -0.007672 -0.312302
-0.042667 -0.007932 -0.312302
-0.042567 -0.008201 -0.312330
-0.042467 -0.008470 -0.312359
-0.042367 -0.008740 -0.312387
-0.042267 -0.009010 -0.312415
-0.041967 -0.009298 -0.312499
-0.041367 0.008325 -0.312932
-0.041367 0.008061 -0.312932
-0.041467 0.007790 -0.312904
-0.041567 0.007519 -0.312875
-0.041567 0.007255 -0.312875
-0.041667 0.006985 -0.312847
-0.041767 0.006716 -0.312819
-0.041867 0.006447 -0.312790
-0.042067 0.006172 -0.312734
-0.042167 0.005904 -0.312705
-0.042267 0.005637 -0.312677
-0.042367 0.005370 -0.312649
-0.042467 0.005104 -0.312620
-0.042567 0.004838 -0.312592
-0.042767 0.004568 -0.312535
-0.042867 0.004304 -0.312507
-0.042967 0.004040 -0.312478
-0.043367 0.003765 -0.312365
-0.043467 0.003503 -0.312337
-0.043567 0.003241 -0.312308
-0.043667 0.002980 -0.312280
-0.043767 0.002720 -0.312252
-0.043867 0.002459 -0.312223
-0.043967 0.002200 -0.312195
-0.043967 0.001943 -0.312195
-0.044067 0.001684 -0.312167
-0.044167 0.001425 -0.312138
-0.044167 0.001169 -0.312138
-0.044267 0.000911 -0.312110
-0.044367 0.000654 -0.312082
-0.044367 0.000398 -0.312082
-0.044367 0.000142 -0.312082
-0.044467 -0.000115 -0.312053
-0.044567 -0.000370 -0.312025
-0.044567 -0.000626 -0.312025
-0.044567 -0.000881 -0.312025
-0.044567 -0.001137 -0.312025
-0.044567 -0.001393 -0.312025
-0.044567 -0.001649 -0.312025
-0.044567 -0.001904 -0.312025
-0.044567 -0.002160 -0.312025
-0.044567 -0.002416 -0.312025
-0.044567 -0.002671 -0.312025
-0.044467 -0.002930 -0.312053
-0.044467 -0.003186 -0.312053
-0.044367 -0.003445 -0.312082
-0.044367 -0.003701 -0.312082
-0.044267 -0.003962 -0.312110
-0.044067 -0.004226 -0.312167
-0.043967 -0.004488 -0.312195
-0.043867 -0.004750 -0.312223
-0.043667 -0.005017 -0.312280
-0.043467 -0.005285 -0.312337
-0.043267 -0.005555 -0.312393
-0.043267 -0.005814 -0.312393
-0.043067 -0.006085 -0.312450
-0.042967 -0.006351 -0.312478
-0.042867 -0.006617 -0.312507
-0.042767 -0.006884 -0.312535
-0.042667 -0.007151 -0.312564
-0.042567 -0.007419 -0.312592
-0.042467 -0.007687 -0.312620
-0.042367 -0.007956 -0.312649
-0.042367 -0.008217 -0.312649
-0.042267 -0.008487 -0.312677
-0.042167 -0.008757 -0.312705
-0.042067 -0.009027 -0.312734
-0.041467 0.008053 -0.313168
-0.041467 0.007790 -0.313168
-0.041467 0.007526 -0.313168
-0.041567 0.007255 -0.313139
-0.041567 0.006992 -0.313139
-0.041567 0.006729 -0.313139
-0.041667 0.006459 -0.313111
-0.041767 0.006190 -0.313082
-0.041867 0.005922 -0.313054
-0.041967 0.005654 -0.313025
-0.042367 0.005370 -0.312910
-0.042467 0.005104 -0.312882
-0.042567 0.004838 -0.312853
-0.042767 0.004568 -0.312796
-0.042867 0.004304 -0.312767
-0.042967 0.004040 -0.312739
-0.043167 0.003773 -0.312682
-0.043267 0.003510 -0.312653
-0.043267 0.003251 -0.312653
-0.043467 0.002986 -0.312596
-0.043567 0.002725 -0.312567
-0.043667 0.002464 -0.312539
-0.043767 0.002204 -0.312510
-0.043767 0.001946 -0.312510
-0.043867 0.001687 -0.312481
-0.043867 0.001430 -0.312481
-0.043967 0.001171 -0.312453
-0.044067 0.000913 -0.312424
-0.044067 0.000656 -0.312424
-0.044167 0.000399 -0.312396
-0.044167 0.000142 -0.312396
-0.044267 -0.000115 -0.312367
-0.044267 -0.000371 -0.312367
-0.044267 -0.000628 -0.312367
-0.044267 -0.000884 -0.312367
-0.044367 -0.001139 -0.312338
-0.044367 -0.001396 -0.312338
-0.044367 -0.001652 -0.312338
-0.044367 -0.001908 -0.312338
-0.044367 -0.002164 -0.312338
-0.044267 -0.002423 -0.312367
-0.044267 -0.002679 -0.312367
-0.044167 -0.002939 -0.312396
-0.044167 -0.003195 -0.312396
-0.044067 -0.003455 -0.312424
-0.043967 -0.003716 -0.312453
-0.043867 -0.003977 -0.312481
-0.043767 -0.004239 -0.312510
-0.043667 -0.004501 -0.312539
-0.043467 -0.004769 -0.312596
-0.043367 -0.005032 -0.312624
-0.043267 -0.005296 -0.312653
-0.043067 -0.005566 -0.312710
-0.042967 -0.005831 -0.312739
-0.042867 -0.006097 -0.312767
-0.042767 -0.006363 -0.312796
-0.042667 -0.006630 -0.312825
-0.042567 -0.006897 -0.312853
-0.042467 -0.007165 -0.312882
-0.042367 -0.007433 -0.312910
-0.042367 -0.007694 -0.312910
-0.042267 -0.007964 -0.312939
-0.042167 -0.008233 -0.312968
-0.041967 -0.008511 -0.313025
-0.041967 -0.008774 -0.313025
-0.041467 0.008053 -0.313432
-0.041467 0.007790 -0.313432
-0.041467 0.007526 -0.313432
-0.041467 0.007263 -0.313432
-0.041567 0.006992 -0.313403
-0.041567 0.006729 -0.313403
-0.041667 0.006459 -0.313374
-0.041767 0.006190 -0.313346
-0.041867 0.005922 -0.313317
-0.041967 0.005654 -0.313288
-0.042167 0.005381 -0.313230
-0.042267 0.005114 -0.313201
-0.042367 0.004848 -0.313172
-0.042467 0.004582 -0.313144
-0.042567 0.004317 -0.313115
-0.042667 0.004052 -0.313086
-0.042867 0.003784 -0.313028
-0.042967 0.003520 -0.312999
-0.043067 0.003257 -0.312970
-0.043167 0.002995 -0.312941
-0.043267 0.002733 -0.312913
-0.043367 0.002472 -0.312884
-0.043467 0.002211 -0.312855
-0.043567 0.001950 -0.312826
-0.043667 0.001690 -0.312797
-0.043767 0.001431 -0.312768
-0.043767 0.001173 -0.312768
-0.043867 0.000915 -0.312739
-0.043867 0.000657 -0.312739
-0.043967 0.000399 -0.312711
-0.043967 0.000142 -0.312711
-0.043967 -0.000115 -0.312711
-0.044067 -0.000372 -0.312682
-0.044067 -0.000629 -0.312682
-0.044067 -0.000886 -0.312682
-0.044067 -0.001143 -0.312682
-0.044067 -0.001400 -0.312682
-0.044067 -0.001657 -0.312682
-0.043967 -0.001916 -0.312711
-0.043967 -0.002173 -0.312711
-0.043967 -0.002430 -0.312711
-0.043867 -0.002690 -0.312739
-0.043867 -0.002947 -0.312739
-0.043867 -0.003205 -0.312739
-0.043767 -0.003466 -0.312768
-0.043667 -0.003727 -0.312797
-0.043567 -0.003989 -0.312826
-0.043467 -0.004252 -0.312855
-0.043367 -0.004514 -0.312884
-0.043267 -0.004778 -0.312913
-0.043067 -0.005047 -0.312970
-0.042967 -0.005312 -0.312999
-0.042767 -0.005582 -0.313057
-0.042667 -0.005848 -0.313086
-0.042567 -0.006115 -0.313115
-0.042467 -0.006382 -0.313144
-0.042467 -0.006643 -0.313144
-0.042267 -0.006917 -0.313201
-0.042167 -0.007186 -0.313230
-0.042067 -0.007455 -0.313259
-0.041967 -0.007725 -0.313288
-0.041867 -0.007995 -0.313317
-0.041767 -0.008265 -0.313346
-0.041667 -0.008536 -0.313374
-0.041567 -0.008808 -0.313403
-0.041467 0.007790 -0.313696
-0.041467 0.007526 -0.313696
-0.041467 0.007263 -0.313696
-0.041467 0.006999 -0.313696
-0.041467 0.006735 -0.313696
-0.041567 0.006465 -0.313667
-0.041667 0.006196 -0.313638
-0.041667 0.005933 -0.313638
-0.041767 0.005665 -0.313609
-0.041867 0.005396 -0.313580
-0.041967 0.005129 -0.313551
-0.042167 0.004857 -0.313493
-0.042267 0.004591 -0.313463
-0.042367 0.004325 -0.313434
-0.042467 0.004060 -0.313405
-0.042567 0.003795 -0.313376
-0.042667 0.003531 -0.313347
-0.042767 0.003267 -0.313318
-0.042967 0.003001 -0.313260
-0.043067 0.002738 -0.313230
-0.043167 0.002477 -0.313201
-0.043267 0.002215 -0.313172
-0.043367 0.001954 -0.313143
-0.043467 0.001694 -0.313114
-0.043467 0.001435 -0.313114
-0.043567 0.001176 -0.313085
-0.043667 0.000916 -0.313056
-0.043667 0.000658 -0.313056
-0.043767 0.000400 -0.313027
-0.043767 0.000142 -0.313027
-0.043867 -0.000115 -0.312997
-0.043867 -0.000373 -0.312997
-0.043867 -0.000630 -0.312997
-0.043867 -0.000888 -0.312997
-0.043767 -0.001146 -0.313027
-0.043767 -0.001404 -0.313027
-0.043767 -0.001662 -0.313027
-0.043767 -0.001919 -0.313027
-0.043667 -0.002179 -0.313056
-0.043667 -0.002437 -0.313056
-0.043667 -0.002695 -0.313056
-0.043567 -0.002956 -0.313085
-0.043567 -0.003214 -0.313085
-0.043467 -0.003476 -0.313114
-0.043367 -0.003738 -0.313143
-0.043267 -0.004001 -0.313172
-0.043167 -0.004264 -0.313201
-0.043067 -0.004528 -0.313230
-0.042867 -0.004797 -0.313289
-0.042767 -0.005062 -0.313318
-0.042667 -0.005327 -0.313347
-0.042567 -0.005593 -0.313376
-0.042467 -0.005860 -0.313405
-0.042267 -0.006133 -0.313463
-0.042167 -0.006400 -0.313493
-0.042167 -0.006662 -0.313493
-0.041967 -0.006938 -0.313551
-0.041867 -0.007207 -0.313580
-0.041767 -0.007477 -0.313609
-0.041667 -0.007747 -0.313638
-0.041567 -0.008018 -0.313667
-0.041367 -0.008297 -0.313726
-0.041167 -0.008578 -0.313784
-0.040467 -0.008902 -0.313988
-0.041567 0.007519 -0.313931
-0.041567 0.007255 -0.313931
-0.041367 0.007006 -0.313990
-0.041367 0.006742 -0.313990
-0.041367 0.006478 -0.313990
-0.041467 0.006208 -0.313961
-0.041567 0.005939 -0.313931
-0.041567 0.005675 -0.313931
-0.041667 0.005407 -0.313902
-0.041767 0.005139 -0.313872
-0.041867 0.004871 -0.313843
-0.041967 0.004604 -0.313814
-0.042167 0.004334 -0.313755
-0.042267 0.004068 -0.313726
-0.042367 0.003802 -0.313696
-0.042467 0.003538 -0.313667
-0.042567 0.003273 -0.313637
-0.042667 0.003010 -0.313608
-0.042867 0.002744 -0.313549
-0.042967 0.002481 -0.313520
-0.043067 0.002219 -0.313491
-0.043167 0.001958 -0.313461
-0.043267 0.001697 -0.313432
-0.043267 0.001438 -0.313432
-0.043367 0.001178 -0.313402
-0.043367 0.000919 -0.313402
-0.043467 0.000660 -0.313373
-0.043467 0.000401 -0.313373
-0.043567 0.000143 -0.313344
-0.043567 -0.000116 -0.313344
-0.043567 -0.000374 -0.313344
-0.043567 -0.000632 -0.313344
-0.043567 -0.000890 -0.313344
-0.043567 -0.001149 -0.313344
-0.043467 -0.001408 -0.313373
-0.043467 -0.001667 -0.313373
-0.043467 -0.001925 -0.313373
-0.043367 -0.002186 -0.313402
-0.043367 -0.002445 -0.313402
-0.043267 -0.002706 -0.313432
-0.043267 -0.002965 -0.313432
-0.043267 -0.003224 -0.313432
-0.043167 -0.003486 -0.313461
-0.043067 -0.003749 -0.313491
-0.042967 -0.004013 -0.313520
-0.042867 -0.004277 -0.313549
-0.042767 -0.004541 -0.313579
-0.042567 -0.004811 -0.313637
-0.042567 -0.005072 -0.313637
-0.042367 -0.005343 -0.313696
-0.042267 -0.005610 -0.313726
-0.042167 -0.005877 -0.313755
-0.042067 -0.006145 -0.313784
-0.041967 -0.006413 -0.313814
-0.041867 -0.006682 -0.313843
-0.041667 -0.006958 -0.313902
-0.041667 -0.007221 -0.313902
-0.041467 -0.007498 -0.313961
-0.041367 -0.007770 -0.313990
-0.041167 -0.008049 -0.314049
-0.040967 -0.008329 -0.314107
-0.040667 -0.008619 -0.314196
-0.040467 -0.008902 -0.314254
-0.041567 0.007519 -0.314195
-0.041567 0.007255 -0.314195
-0.041367 0.007006 -0.314254
-0.041267 0.006748 -0.314284
-0.041267 0.006484 -0.314284
-0.041267 0.006220 -0.314284
-0.041267 0.005956 -0.314284
-0.041467 0.005681 -0.314225
-0.041467 0.005417 -0.314225
-0.041567 0.005149 -0.314195
-0.041667 0.004881 -0.314166
-0.041767 0.004613 -0.314136
-0.041867 0.004346 -0.314106
-0.042067 0.004076 -0.314047
-0.042167 0.003810 -0.314017
-0.042267 0.003545 -0.313988
-0.042367 0.003280 -0.313958
-0.042567 0.003013 -0.313899
-0.042667 0.002749 -0.313869
-0.042767 0.002486 -0.313840
-0.042867 0.002224 -0.313810
-0.042967 0.001962 -0.313780
-0.043067 0.001700 -0.313751
-0.043067 0.001441 -0.313751
-0.043167 0.001180 -0.313721
-0.043267 0.000920 -0.313691
-0.043267 0.000661 -0.313691
-0.043267 0.000402 -0.313691
-0.043267 0.000143 -0.313691
-0.043267 -0.000116 -0.313691
-0.043267 -0.000375 -0.313691
-0.043267 -0.000634 -0.313691
-0.043267 -0.000893 -0.313691
-0.043267 -0.001152 -0.313691
-0.043267 -0.001411 -0.313691
-0.043167 -0.001672 -0.313721
-0.043167 -0.001931 -0.313721
-0.043067 -0.002192 -0.313751
-0.043067 -0.002452 -0.313751
-0.042967 -0.002714 -0.313780
-0.042967 -0.002974 -0.313780
-0.042867 -0.003237 -0.313810
-0.042867 -0.003497 -0.313810
-0.042767 -0.003760 -0.313840
-0.042667 -0.004025 -0.313869
-0.042567 -0.004289 -0.313899
-0.042467 -0.004554 -0.313928
-0.042367 -0.004820 -0.313958
-0.042267 -0.005086 -0.313988
-0.042167 -0.005353 -0.314017
-0.041967 -0.005626 -0.314077
-0.041867 -0.005894 -0.314106
-0.041767 -0.006163 -0.314136
-0.041667 -0.006432 -0.314166
-0.041567 -0.006701 -0.314195
-0.041467 -0.006971 -0.314225
-0.041367 -0.007242 -0.314254
-0.041267 -0.007513 -0.314284
-0.041067 -0.007792 -0.314343
-0.040867 -0.008072 -0.314403
-0.040567 -0.008361 -0.314491
-0.040267 -0.008652 -0.314580
-0.041567 0.007255 -0.314459
-0.041267 0.007012 -0.314549
-0.041067 0.006761 -0.314609
-0.040967 0.006503 -0.314638
-0.041067 0.006232 -0.314609
-0.041067 0.005968 -0.314609
-0.041167 0.005697 -0.314579
-0.041267 0.005428 -0.314549
-0.041267 0.005164 -0.314549
-0.041367 0.004895 -0.314519
-0.041567 0.004622 -0.314459
-0.041667 0.004355 -0.314429
-0.041767 0.004088 -0.314399
-0.041867 0.003821 -0.314369
-0.042067 0.003552 -0.314310
-0.042167 0.003286 -0.314280
-0.042267 0.003022 -0.314250
-0.042467 0.002755 -0.314190
-0.042567 0.002491 -0.314160
-0.042667 0.002228 -0.314130
-0.042767 0.001966 -0.314100
-0.042867 0.001704 -0.314071
-0.042867 0.001444 -0.314071
-0.042967 0.001183 -0.314041
-0.042967 0.000923 -0.314041
-0.043067 0.000662 -0.314011
-0.043067 0.000403 -0.314011
-0.043067 0.000143 -0.314011
-0.043067 -0.000116 -0.314011
-0.043067 -0.000376 -0.314011
-0.043067 -0.000635 -0.314011
-0.042967 -0.000896 -0.314041
-0.042967 -0.001155 -0.314041
-0.042967 -0.001415 -0.314041
-0.042867 -0.001676 -0.314071
-0.042867 -0.001937 -0.314071
-0.042767 -0.002199 -0.314100
-0.042767 -0.002459 -0.314100
-0.042667 -0.002722 -0.314130
-0.042667 -0.002982 -0.314130
-0.042567 -0.003246 -0.314160
-0.042567 -0.003507 -0.314160
-0.042567 -0.003768 -0.314160
-0.042467 -0.004032 -0.314190
-0.042367 -0.004298 -0.314220
-0.042267 -0.004563 -0.314250
-0.042167 -0.004830 -0.314280
-0.041967 -0.005101 -0.314340
-0.041867 -0.005369 -0.314369
-0.041767 -0.005637 -0.314399
-0.041667 -0.005905 -0.314429
-0.041567 -0.006175 -0.314459
-0.041467 -0.006444 -0.314489
-0.041267 -0.006721 -0.314549
-0.041267 -0.006985 -0.314549
-0.041067 -0.007263 -0.314609
-0.040867 -0.007542 -0.314668
-0.040767 -0.007815 -0.314698
-0.040567 -0.008095 -0.314758
-0.040267 -0.008385 -0.314848
-0.039967 -0.008677 -0.314937
-0.041467 0.007263 -0.314753
-0.040967 0.007033 -0.314904
-0.040767 0.006781 -0.314964
-0.040767 0.006516 -0.314964
-0.040767 0.006250 -0.314964
-0.040867 0.005979 -0.314934
-0.040867 0.005714 -0.314934
-0.040967 0.005444 -0.314904
-0.041067 0.005174 -0.314874
-0.041167 0.004904 -0.314844
-0.041267 0.004636 -0.314813
-0.041467 0.004363 -0.314753
-0.041567 0.004095 -0.314723
-0.041667 0.003828 -0.314693
-0.041767 0.003562 -0.314663
-0.041967 0.003293 -0.314602
-0.042067 0.003027 -0.314572
-0.042167 0.002763 -0.314542
-0.042367 0.002496 -0.314482
-0.042467 0.002233 -0.314452
-0.042567 0.001970 -0.314422
-0.042667 0.001707 -0.314391
-0.042667 0.001447 -0.314391
-0.042767 0.001185 -0.314361
-0.042767 0.000925 -0.314361
-0.042767 0.000664 -0.314361
-0.042767 0.000404 -0.314361
-0.042767 0.000144 -0.314361
-0.042767 -0.000116 -0.314361
-0.042767 -0.000377 -0.314361
-0.042767 -0.000637 -0.314361
-0.042667 -0.000898 -0.314391
-0.042667 -0.001159 -0.314391
-0.042667 -0.001419 -0.314391
-0.042567 -0.001681 -0.314422
-0.042567 -0.001942 -0.314422
-0.042567 -0.002203 -0.314422
-0.042567 -0.002464 -0.314422
-0.042467 -0.002727 -0.314452
-0.042467 -0.002988 -0.314452
-0.042367 -0.003252 -0.314482
-0.042267 -0.003517 -0.314512
-0.042267 -0.003779 -0.314512
-0.042167 -0.004044 -0.314542
-0.042067 -0.004310 -0.314572
-0.041967 -0.004577 -0.314602
-0.041867 -0.004844 -0.314633
-0.041767 -0.005111 -0.314663
-0.041667 -0.005379 -0.314693
-0.041567 -0.005648 -0.314723
-0.041467 -0.005917 -0.314753
-0.041367 -0.006186 -0.314783
-0.041167 -0.006463 -0.314844
-0.041067 -0.006734 -0.314874
-0.040867 -0.007012 -0.314934
-0.040767 -0.007284 -0.314964
-0.040567 -0.007564 -0.315024
-0.040367 -0.007845 -0.315085
-0.040167 -0.008127 -0.315145
-0.039867 -0.008417 -0.315235
-0.040967 0.007033 -0.315169
-0.040467 0.006800 -0.315321
-0.040467 0.006534 -0.315321
-0.040367 0.006274 -0.315352
-0.040467 0.006002 -0.315321
-0.040567 0.005730 -0.315291
-0.040667 0.005459 -0.315261
-0.040767 0.005189 -0.315230
-0.040867 0.004919 -0.315200
-0.040967 0.004649 -0.315169
-0.041167 0.004376 -0.315109
-0.041267 0.004107 -0.315078
-0.041467 0.003836 -0.315017
-0.041567 0.003569 -0.314987
-0.041767 0.003299 -0.314926
-0.041867 0.003033 -0.314896
-0.041967 0.002768 -0.314865
-0.042067 0.002503 -0.314835
-0.042267 0.002237 -0.314774
-0.042367 0.001973 -0.314744
-0.042467 0.001710 -0.314713
-0.042567 0.001448 -0.314683
-0.042567 0.001187 -0.314683
-0.042567 0.000926 -0.314683
-0.042667 0.000665 -0.314653
-0.042667 0.000404 -0.314653
-0.042667 0.000144 -0.314653
-0.042667 -0.000117 -0.314653
-0.042567 -0.000377 -0.314683
-0.042567 -0.000638 -0.314683
-0.042567 -0.000899 -0.314683
-0.042567 -0.001160 -0.314683
-0.042567 -0.001421 -0.314683
-0.042467 -0.001683 -0.314713
-0.042367 -0.001946 -0.314744
-0.042367 -0.002207 -0.314744
-0.042267 -0.002471 -0.314774
-0.042267 -0.002733 -0.314774
-0.042167 -0.002997 -0.314805
-0.042167 -0.003259 -0.314805
-0.042067 -0.003524 -0.314835
-0.041967 -0.003790 -0.314865
-0.041967 -0.004052 -0.314865
-0.041867 -0.004319 -0.314896
-0.041767 -0.004586 -0.314926
-0.041667 -0.004853 -0.314957
-0.041567 -0.005121 -0.314987
-0.041467 -0.005390 -0.315017
-0.041267 -0.005664 -0.315078
-0.041267 -0.005928 -0.315078
-0.041067 -0.006204 -0.315139
-0.040967 -0.006475 -0.315169
-0.040867 -0.006747 -0.315200
-0.040567 -0.007032 -0.315291
-0.040467 -0.007305 -0.315321
-0.040167 -0.007593 -0.315413
-0.039967 -0.007875 -0.315473
-0.039767 -0.008158 -0.315534
-0.039167 -0.008474 -0.315717
-0.039967 0.006298 -0.315741
-0.040067 0.006025 -0.315711
-0.040267 0.005747 -0.315649
-0.040267 0.005480 -0.315649
-0.040467 0.005204 -0.315588
-0.040567 0.004933 -0.315558
-0.040767 0.004658 -0.315496
-0.040867 0.004388 -0.315466
-0.041067 0.004115 -0.315404
-0.041167 0.003847 -0.315374
-0.041367 0.003576 -0.315312
-0.041467 0.003309 -0.315282
-0.041667 0.003039 -0.315220
-0.041767 0.002773 -0.315190
-0.041867 0.002508 -0.315159
-0.042067 0.002241 -0.315098
-0.042167 0.001977 -0.315067
-0.042267 0.001714 -0.315036
-0.042367 0.001451 -0.315006
-0.042467 0.001188 -0.314975
-0.042467 0.000927 -0.314975
-0.042467 0.000666 -0.314975
-0.042467 0.000405 -0.314975
-0.042467 0.000144 -0.314975
-0.042467 -0.000117 -0.314975
-0.042467 -0.000378 -0.314975
-0.042467 -0.000639 -0.314975
-0.042367 -0.000901 -0.315006
-0.042367 -0.001162 -0.315006
-0.042367 -0.001423 -0.315006
-0.042267 -0.001686 -0.315036
-0.042167 -0.001950 -0.315067
-0.042167 -0.002212 -0.315067
-0.042067 -0.002476 -0.315098
-0.042067 -0.002738 -0.315098
-0.041967 -0.003003 -0.315128
-0.041967 -0.003265 -0.315128
-0.041867 -0.003531 -0.315159
-0.041767 -0.003797 -0.315190
-0.041667 -0.004064 -0.315220
-0.041667 -0.004327 -0.315220
-0.041567 -0.004595 -0.315251
-0.041467 -0.004863 -0.315282
-0.041367 -0.005131 -0.315312
-0.041267 -0.005400 -0.315343
-0.041167 -0.005670 -0.315374
-0.040967 -0.005946 -0.315435
-0.040867 -0.006216 -0.315466
-0.040667 -0.006494 -0.315527
-0.040467 -0.006773 -0.315588
-0.040267 -0.007052 -0.315649
-0.039967 -0.007340 -0.315741
-0.039767 -0.007622 -0.315803
-0.039667 -0.007897 -0.315833
-0.038967 -0.008220 -0.316048
-0.038867 0.006905 -0.316349
-0.038967 0.006628 -0.316319
-0.039067 0.006352 -0.316288
-0.039767 0.006042 -0.316071
-0.039867 0.005769 -0.316040
-0.039967 0.005496 -0.316009
-0.040167 0.005219 -0.315948
-0.040267 0.004947 -0.315917
-0.040367 0.004676 -0.315886
-0.040567 0.004401 -0.315824
-0.040767 0.004127 -0.315762
-0.040867 0.003858 -0.315731
-0.041067 0.003586 -0.315669
-0.041267 0.003315 -0.315608
-0.041467 0.003045 -0.315546
-0.041567 0.002779 -0.315515
-0.041667 0.002513 -0.315484
-0.041767 0.002248 -0.315453
-0.041967 0.001981 -0.315391
-0.042067 0.001717 -0.315360
-0.042167 0.001454 -0.315329
-0.042267 0.001191 -0.315299
-0.042267 0.000929 -0.315299
-0.042367 0.000667 -0.315268
-0.042367 0.000406 -0.315268
-0.042367 0.000144 -0.315268
-0.042367 -0.000117 -0.315268
-0.042267 -0.000379 -0.315299
-0.042267 -0.000640 -0.315299
-0.042167 -0.000903 -0.315329
-0.042167 -0.001164 -0.315329
-0.042167 -0.001426 -0.315329
-0.042067 -0.001690 -0.315360
-0.042067 -0.001952 -0.315360
-0.041967 -0.002216 -0.315391
-0.041867 -0.002481 -0.315422
-0.041767 -0.002746 -0.315453
-0.041767 -0.003009 -0.315453
-0.041667 -0.003275 -0.315484
-0.041667 -0.003538 -0.315484
-0.041567 -0.003805 -0.315515
-0.041467 -0.004072 -0.315546
-0.041467 -0.004335 -0.315546
-0.041367 -0.004603 -0.315577
-0.041267 -0.004872 -0.315608
-0.041067 -0.005146 -0.315669
-0.040967 -0.005416 -0.315700
-0.040867 -0.005686 -0.315731
-0.040767 -0.005957 -0.315762
-0.040567 -0.006234 -0.315824
-0.040367 -0.006513 -0.315886
-0.040167 -0.006792 -0.315948
-0.039867 -0.007079 -0.316040
-0.039667 -0.007361 -0.316102
-0.039367 -0.007651 -0.316195
-0.039167 -0.007935 -0.316257
-0.038967 0.006628 -0.316589
-0.039067 0.006352 -0.316558
-0.039067 0.006083 -0.316558
-0.039567 0.005785 -0.316402
-0.039767 0.005506 -0.316340
-0.039767 0.005239 -0.316340
-0.039967 0.004961 -0.316278
-0.040067 0.004689 -0.316246
-0.040267 0.004414 -0.316184
-0.040467 0.004139 -0.316122
-0.040567 0.003869 -0.316090
-0.040767 0.003596 -0.316028
-0.040967 0.003325 -0.315966
-0.041167 0.003054 -0.315904
-0.041267 0.002787 -0.315872
-0.041467 0.002518 -0.315810
-0.041667 0.002250 -0.315748
-0.041767 0.001985 -0.315717
-0.041867 0.001720 -0.315685
-0.041967 0.001456 -0.315654
-0.042067 0.001193 -0.315623
-0.042067 0.000931 -0.315623
-0.042067 0.000669 -0.315623
-0.042067 0.000407 -0.315623
-0.042067 0.000145 -0.315623
-0.042067 -0.000117 -0.315623
-0.042067 -0.000379 -0.315623
-0.042067 -0.000641 -0.315623
-0.042067 -0.000903 -0.315623
-0.042067 -0.001166 -0.315623
-0.041967 -0.001429 -0.315654
-0.041867 -0.001693 -0.315685
-0.041767 -0.001957 -0.315717
-0.041767 -0.002220 -0.315717
-0.041667 -0.002485 -0.315748
-0.041667 -0.002749 -0.315748
-0.041567 -0.003015 -0.315779
-0.041467 -0.003281 -0.315810
-0.041367 -0.003548 -0.315841
-0.041367 -0.003812 -0.315841
-0.041267 -0.004080 -0.315872
-0.041167 -0.004348 -0.315904
-0.041067 -0.004617 -0.315935
-0.040967 -0.004886 -0.315966
-0.040867 -0.005156 -0.315997
-0.040767 -0.005426 -0.316028
-0.040667 -0.005697 -0.316059
-0.040467 -0.005974 -0.316122
-0.040267 -0.006252 -0.316184
-0.040067 -0.006531 -0.316246
-0.039767 -0.006818 -0.316340
-0.039567 -0.007099 -0.316402
-0.039267 -0.007389 -0.316496
-0.038867 -0.007687 -0.316620
-0.038367 -0.007995 -0.316776
-0.038667 0.006376 -0.316954
-0.038867 0.006094 -0.316891
-0.039267 0.005802 -0.316765
-0.039467 0.005522 -0.316703
-0.039567 0.005249 -0.316671
-0.039667 0.004975 -0.316640
-0.039767 0.004703 -0.316608
-0.039967 0.004426 -0.316546
-0.040067 0.004155 -0.316514
-0.040267 0.003880 -0.316451
-0.040467 0.003607 -0.316388
-0.040667 0.003334 -0.316326
-0.040867 0.003063 -0.316263
-0.040967 0.002795 -0.316231
-0.041167 0.002525 -0.316168
-0.041367 0.002257 -0.316106
-0.041567 0.001989 -0.316043
-0.041667 0.001724 -0.316011
-0.041667 0.001461 -0.316011
-0.041767 0.001196 -0.315980
-0.041867 0.000933 -0.315949
-0.041867 0.000670 -0.315949
-0.041867 0.000408 -0.315949
-0.041867 0.000145 -0.315949
-0.041867 -0.000118 -0.315949
-0.041867 -0.000380 -0.315949
-0.041867 -0.000643 -0.315949
-0.041767 -0.000906 -0.315980
-0.041767 -0.001169 -0.315980
-0.041767 -0.001432 -0.315980
-0.041667 -0.001696 -0.316011
-0.041667 -0.001959 -0.316011
-0.041567 -0.002225 -0.316043
-0.041467 -0.002490 -0.316074
-0.041367 -0.002757 -0.316106
-0.041367 -0.003020 -0.316106
-0.041267 -0.003287 -0.316137
-0.041167 -0.003555 -0.316168
-0.041067 -0.003823 -0.316200
-0.041067 -0.004088 -0.316200
-0.040967 -0.004356 -0.316231
-0.040867 -0.004626 -0.316263
-0.040667 -0.004900 -0.316326
-0.040567 -0.005171 -0.316357
-0.040467 -0.005442 -0.316388
-0.040367 -0.005713 -0.316420
-0.040167 -0.005991 -0.316483
-0.039967 -0.006270 -0.316546
-0.039767 -0.006550 -0.316608
-0.039667 -0.006824 -0.316640
-0.039267 -0.007120 -0.316765
-0.038967 -0.007410 -0.316860
-0.038567 -0.007709 -0.316985
-0.038367 0.006394 -0.317320
-0.038667 0.006106 -0.317225
-0.038967 0.005818 -0.317130
-0.039167 0.005538 -0.317067
-0.039367 0.005258 -0.317004
-0.039467 0.004985 -0.316972
-0.039567 0.004712 -0.316940
-0.039667 0.004439 -0.316909
-0.039767 0.004167 -0.316877
-0.039967 0.003892 -0.316814
-0.040167 0.003617 -0.316750
-0.040367 0.003344 -0.316687
-0.040567 0.003072 -0.316624
-0.040767 0.002800 -0.316560
-0.040967 0.002530 -0.316497
-0.041167 0.002261 -0.316433
-0.041267 0.001995 -0.316402
-0.041367 0.001729 -0.316370
-0.041467 0.001464 -0.316338
-0.041567 0.001199 -0.316307
-0.041667 0.000935 -0.316275
-0.041667 0.000671 -0.316275
-0.041667 0.000408 -0.316275
-0.041667 0.000145 -0.316275
-0.041667 -0.000118 -0.316275
-0.041667 -0.000381 -0.316275
-0.041667 -0.000644 -0.316275
-0.041567 -0.000908 -0.316307
-0.041567 -0.001171 -0.316307
-0.041567 -0.001435 -0.316307
-0.041467 -0.001699 -0.316338
-0.041367 -0.001965 -0.316370
-0.041367 -0.002229 -0.316370
-0.041267 -0.002495 -0.316402
-0.041167 -0.002762 -0.316433
-0.041067 -0.003029 -0.316465
-0.040967 -0.003297 -0.316497
-0.040867 -0.003565 -0.316528
-0.040867 -0.003830 -0.316528
-0.040767 -0.004099 -0.316560
-0.040667 -0.004369 -0.316592
-0.040567 -0.004639 -0.316624
-0.040467 -0.004910 -0.316655
-0.040367 -0.005181 -0.316687
-0.040167 -0.005458 -0.316750
-0.040067 -0.005730 -0.316782
-0.039967 -0.006003 -0.316814
-0.039867 -0.006276 -0.316845
-0.039667 -0.006556 -0.316909
-0.039367 -0.006844 -0.317004
-0.039067 -0.007133 -0.317099
-0.038667 -0.007431 -0.317225
-0.038367 -0.007723 -0.317320
-0.038467 0.006117 -0.317561
-0.038767 0.005829 -0.317465
-0.038967 0.005548 -0.317401
-0.039067 0.005273 -0.317369
-0.039167 0.004999 -0.317337
-0.039267 0.004725 -0.317305
-0.039367 0.004452 -0.317273
-0.039567 0.004175 -0.317209
-0.039767 0.003899 -0.317145
-0.039867 0.003628 -0.317114
-0.040067 0.003353 -0.317050
-0.040267 0.003080 -0.316986
-0.040467 0.002808 -0.316922
-0.040667 0.002537 -0.316858
-0.040867 0.002267 -0.316794
-0.040967 0.002000 -0.316762
-0.041067 0.001734 -0.316730
-0.041267 0.001466 -0.316666
-0.041267 0.001202 -0.316666
-0.041367 0.000937 -0.316635
-0.041367 0.000673 -0.316635
-0.041367 0.000410 -0.316635
-0.041367 0.000146 -0.316635
-0.041367 -0.000118 -0.316635
-0.041367 -0.000382 -0.316635
-0.041367 -0.000646 -0.316635
-0.041367 -0.000910 -0.316635
-0.041367 -0.001173 -0.316635
-0.041267 -0.001439 -0.316666
-0.041267 -0.001703 -0.316666
-0.041167 -0.001969 -0.316698
-0.041067 -0.002235 -0.316730
-0.040967 -0.002502 -0.316762
-0.040967 -0.002767 -0.316762
-0.040867 -0.003035 -0.316794
-0.040767 -0.003303 -0.316826
-0.040667 -0.003572 -0.316858
-0.040567 -0.003841 -0.316890
-0.040467 -0.004111 -0.316922
-0.040367 -0.004382 -0.316954
-0.040267 -0.004652 -0.316986
-0.040167 -0.004924 -0.317018
-0.040067 -0.005196 -0.317050
-0.039967 -0.005468 -0.317082
-0.039867 -0.005741 -0.317114
-0.039767 -0.006014 -0.317145
-0.039567 -0.006294 -0.317209
-0.039367 -0.006575 -0.317273
-0.039167 -0.006857 -0.317337
-0.038867 -0.007147 -0.317433
-0.038467 -0.007445 -0.317561
-0.038667 0.005835 -0.317768
-0.038767 0.005559 -0.317736
-0.038867 0.005283 -0.317704
-0.038967 0.005008 -0.317672
-0.039167 0.004730 -0.317607
-0.039267 0.004456 -0.317575
-0.039367 0.004183 -0.317543
-0.039567 0.003906 -0.317478
-0.039667 0.003634 -0.317446
-0.039867 0.003360 -0.317382
-0.040067 0.003086 -0.317317
-0.040167 0.002816 -0.317285
-0.040367 0.002545 -0.317221
-0.040567 0.002274 -0.317157
-0.040767 0.002004 -0.317092
-0.040867 0.001737 -0.317060
-0.040967 0.001471 -0.317028
-0.041067 0.001205 -0.316996
-0.041067 0.000940 -0.316996
-0.041167 0.000675 -0.316963
-0.041167 0.000410 -0.316963
-0.041167 0.000146 -0.316963
-0.041167 -0.000118 -0.316963
-0.041167 -0.000383 -0.316963
-0.041167 -0.000647 -0.316963
-0.041167 -0.000911 -0.316963
-0.041067 -0.001177 -0.316996
-0.041067 -0.001441 -0.316996
-0.041067 -0.001706 -0.316996
-0.040967 -0.001973 -0.317028
-0.040867 -0.002240 -0.317060
-0.040767 -0.002507 -0.317092
-0.040667 -0.002775 -0.317124
-0.040567 -0.003044 -0.317157
-0.040467 -0.003313 -0.317189
-0.040367 -0.003582 -0.317221
-0.040267 -0.003852 -0.317253
-0.040267 -0.004119 -0.317253
-0.040167 -0.004390 -0.317285
-0.040067 -0.004661 -0.317317
-0.039967 -0.004933 -0.317350
-0.039867 -0.005205 -0.317382
-0.039767 -0.005478 -0.317414
-0.039567 -0.005757 -0.317478
-0.039567 -0.006026 -0.317478
-0.039367 -0.006306 -0.317543
-0.039167 -0.006587 -0.317607
-0.038867 -0.006876 -0.317704
-0.038567 -0.007167 -0.317800
-0.038667 0.005564 -0.318039
-0.038767 0.005288 -0.318007
-0.038867 0.005013 -0.317975
-0.038967 0.004738 -0.317942
-0.039067 0.004464 -0.317910
-0.039167 0.004191 -0.317877
-0.039367 0.003914 -0.317812
-0.039467 0.003641 -0.317780
-0.039667 0.003366 -0.317715
-0.039867 0.003092 -0.317650
-0.039967 0.002822 -0.317618
-0.040167 0.002550 -0.317553
-0.040367 0.002278 -0.317488
-0.040467 0.002010 -0.317455
-0.040567 0.001742 -0.317423
-0.040667 0.001475 -0.317391
-0.040767 0.001208 -0.317358
-0.040867 0.000942 -0.317326
-0.040867 0.000677 -0.317326
-0.040867 0.000412 -0.317326
-0.040967 0.000146 -0.317293
-0.040967 -0.000119 -0.317293
-0.040967 -0.000383 -0.317293
-0.040967 -0.000648 -0.317293
-0.040867 -0.000914 -0.317326
-0.040867 -0.001179 -0.317326
-0.040867 -0.001444 -0.317326
-0.040767 -0.001711 -0.317358
-0.040667 -0.001978 -0.317391
-0.040667 -0.002244 -0.317391
-0.040567 -0.002512 -0.317423
-0.040467 -0.002780 -0.317455
-0.040367 -0.003050 -0.317488
-0.040267 -0.003319 -0.317520
-0.040167 -0.003589 -0.317553
-0.040067 -0.003860 -0.317585
-0.039967 -0.004131 -0.317618
-0.039867 -0.004402 -0.317650
-0.039867 -0.004670 -0.317650
-0.039767 -0.004943 -0.317683
-0.039667 -0.005215 -0.317715
-0.039567 -0.005489 -0.317747
-0.039367 -0.005768 -0.317812
-0.039367 -0.006037 -0.317812
-0.039167 -0.006318 -0.317877
-0.038867 -0.006606 -0.317975
-0.038667 -0.006889 -0.318039
-0.038367 -0.007180 -0.318137
-0.038367 0.005580 -0.318409
-0.038467 0.005303 -0.318376
-0.038667 0.005023 -0.318311
-0.038767 0.004747 -0.318278
-0.038867 0.004473 -0.318245
-0.038967 0.004199 -0.318213
-0.039167 0.003921 -0.318147
-0.039367 0.003645 -0.318082
-0.039467 0.003373 -0.318049
-0.039667 0.003098 -0.317984
-0.039767 0.002827 -0.317951
-0.039867 0.002557 -0.317918
-0.040067 0.002285 -0.317853
-0.040167 0.002016 -0.317820
-0.040267 0.001747 -0.317788
-0.040367 0.001479 -0.317755
-0.040467 0.001212 -0.317722
-0.040567 0.000945 -0.317690
-0.040567 0.000679 -0.317690
-0.040667 0.000412 -0.317657
-0.040667 0.000147 -0.317657
-0.040667 -0.000119 -0.317657
-0.040667 -0.000385 -0.317657
-0.040667 -0.000650 -0.317657
-0.040667 -0.000916 -0.317657
-0.040567 -0.001183 -0.317690
-0.040567 -0.001448 -0.317690
-0.040467 -0.001716 -0.317722
-0.040467 -0.001982 -0.317722
-0.040367 -0.002250 -0.317755
-0.040267 -0.002519 -0.317788
-0.040167 -0.002788 -0.317820
-0.040067 -0.003058 -0.317853
-0.039967 -0.003329 -0.317886
-0.039867 -0.003599 -0.317918
-0.039867 -0.003867 -0.317918
-0.039767 -0.004139 -0.317951
-0.039767 -0.004407 -0.317951
-0.039667 -0.004679 -0.317984
-0.039567 -0.004952 -0.318016
-0.039467 -0.005225 -0.318049
-0.039367 -0.005499 -0.318082
-0.039167 -0.005779 -0.318147
-0.039167 -0.006049 -0.318147
-0.038867 -0.006336 -0.318245
-0.038767 -0.006612 -0.318278
-0.038567 -0.006896 -0.318343
-0.038267 0.005313 -0.318714
-0.038467 0.005032 -0.318648
-0.038567 0.004756 -0.318615
-0.038767 0.004477 -0.318549
-0.038867 0.004203 -0.318516
-0.039067 0.003925 -0.318450
-0.039167 0.003652 -0.318417
-0.039267 0.003379 -0.318384
-0.039467 0.003104 -0.318319
-0.039567 0.002833 -0.318286
-0.039767 0.002559 -0.318220
-0.039767 0.002291 -0.318220
-0.039967 0.002020 -0.318154
-0.040067 0.001751 -0.318121
-0.040067 0.001483 -0.318121
-0.040167 0.001215 -0.318088
-0.040267 0.000947 -0.318055
-0.040267 0.000681 -0.318055
-0.040367 0.000414 -0.318022
-0.040367 0.000147 -0.318022
-0.040367 -0.000119 -0.318022
-0.040367 -0.000386 -0.318022
-0.040367 -0.000652 -0.318022
-0.040367 -0.000918 -0.318022
-0.040267 -0.001186 -0.318055
-0.040267 -0.001453 -0.318055
-0.040267 -0.001719 -0.318055
-0.040167 -0.001988 -0.318088
-0.040067 -0.002257 -0.318121
-0.040067 -0.002524 -0.318121
-0.039967 -0.002794 -0.318154
-0.039867 -0.003064 -0.318187
-0.039767 -0.003335 -0.318220
-0.039767 -0.003603 -0.318220
-0.039667 -0.003875 -0.318253
-0.039567 -0.004147 -0.318286
-0.039567 -0.004415 -0.318286
-0.039467 -0.004688 -0.318319
-0.039367 -0.004961 -0.318351
-0.039267 -0.005235 -0.318384
-0.039167 -0.005510 -0.318417
-0.039067 -0.005785 -0.318450
-0.038867 -0.006066 -0.318516
-0.038767 -0.006342 -0.318549
-0.038567 -0.006625 -0.318615
-0.038167 0.005046 -0.319020
-0.038367 0.004765 -0.318953
-0.038667 0.004481 -0.318853
-0.038767 0.004207 -0.318820
-0.038867 0.003932 -0.318787
-0.038967 0.003659 -0.318754
-0.039167 0.003382 -0.318687
-0.039267 0.003110 -0.318654
-0.039367 0.002838 -0.318621
-0.039567 0.002564 -0.318555
-0.039567 0.002296 -0.318555
-0.039667 0.002025 -0.318521
-0.039767 0.001756 -0.318488
-0.039867 0.001486 -0.318455
-0.039867 0.001219 -0.318455
-0.039967 0.000950 -0.318422
-0.039967 0.000683 -0.318422
-0.039967 0.000415 -0.318422
-0.040067 0.000148 -0.318389
-0.040067 -0.000120 -0.318389
-0.040067 -0.000387 -0.318389
-0.040067 -0.000654 -0.318389
-0.039967 -0.000922 -0.318422
-0.039967 -0.001189 -0.318422
-0.039967 -0.001457 -0.318422
-0.039967 -0.001724 -0.318422
-0.039867 -0.001993 -0.318455
-0.039867 -0.002261 -0.318455
-0.039767 -0.002531 -0.318488
-0.039767 -0.002799 -0.318488
-0.039667 -0.003070 -0.318521
-0.039567 -0.003341 -0.318555
-0.039567 -0.003610 -0.318555
-0.039467 -0.003882 -0.318588
-0.039367 -0.004154 -0.318621
-0.039267 -0.004428 -0.318654
-0.039267 -0.004697 -0.318654
-0.039167 -0.004971 -0.318687
-0.039067 -0.005245 -0.318721
-0.038967 -0.005520 -0.318754
-0.038767 -0.005801 -0.318820
-0.038767 -0.006071 -0.318820
-0.038667 -0.006348 -0.318853
-0.038567 -0.006625 -0.318887
-0.038467 0.004490 -0.319192
-0.038667 0.004210 -0.319125
-0.038767 0.003936 -0.319091
-0.038867 0.003662 -0.319058
-0.038967 0.003389 -0.319024
-0.039067 0.003116 -0.318991
-0.039167 0.002843 -0.318958
-0.039267 0.002571 -0.318924
-0.039367 0.002300 -0.318891
-0.039467 0.002029 -0.318857
-0.039567 0.001759 -0.318824
-0.039567 0.001490 -0.318824
-0.039667 0.001221 -0.318790
-0.039667 0.000953 -0.318790
-0.039767 0.000684 -0.318757
-0.039767 0.000416 -0.318757
-0.039767 0.000148 -0.318757
-0.039767 -0.000120 -0.318757
-0.039767 -0.000388 -0.318757
-0.039767 -0.000656 -0.318757
-0.039767 -0.000924 -0.318757
-0.039767 -0.001192 -0.318757
-0.039767 -0.001460 -0.318757
-0.039767 -0.001727 -0.318757
-0.039667 -0.001997 -0.318790
-0.039667 -0.002265 -0.318790
-0.039567 -0.002536 -0.318824
-0.039467 -0.002807 -0.318857
-0.039467 -0.003076 -0.318857
-0.039367 -0.003348 -0.318891
-0.039267 -0.003620 -0.318924
-0.039267 -0.003889 -0.318924
-0.039167 -0.004162 -0.318958
-0.039167 -0.004432 -0.318958
-0.039067 -0.004706 -0.318991
-0.039067 -0.004975 -0.318991
-0.038867 -0.005255 -0.319058
-0.038767 -0.005530 -0.319091
-0.038667 -0.005806 -0.319125
-0.038667 -0.006077 -0.319125
-0.038567 -0.006354 -0.319158
-0.038267 0.004498 -0.319531
-0.038567 0.004214 -0.319430
-0.038567 0.003943 -0.319430
-0.038667 0.003669 -0.319396
-0.038767 0.003395 -0.319362
-0.038867 0.003122 -0.319329
-0.038967 0.002849 -0.319295
-0.039067 0.002576 -0.319261
-0.039167 0.002304 -0.319228
-0.039267 0.002033 -0.319194
-0.039267 0.001764 -0.319194
-0.039367 0.001493 -0.319160
-0.039467 0.001223 -0.319126
-0.039467 0.000955 -0.319126
-0.039467 0.000686 -0.319126
-0.039567 0.000417 -0.319093
-0.039567 0.000148 -0.319093
-0.039567 -0.000120 -0.319093
-0.039567 -0.000389 -0.319093
-0.039567 -0.000657 -0.319093
-0.039567 -0.000925 -0.319093
-0.039467 -0.001195 -0.319126
-0.039467 -0.001464 -0.319126
-0.039467 -0.001732 -0.319126
-0.039467 -0.002001 -0.319126
-0.039367 -0.002272 -0.319160
-0.039367 -0.002541 -0.319160
-0.039267 -0.002812 -0.319194
-0.039267 -0.003082 -0.319194
-0.039167 -0.003354 -0.319228
-0.039167 -0.003623 -0.319228
-0.039067 -0.003897 -0.319261
-0.038967 -0.004170 -0.319295
-0.038867 -0.004444 -0.319329
-0.038867 -0.004715 -0.319329
-0.038867 -0.004985 -0.319329
-0.038667 -0.005265 -0.319396
-0.038567 -0.005541 -0.319430
-0.038467 -0.005817 -0.319464
-0.038367 -0.006094 -0.319497
-0.038367 -0.006366 -0.319497
-0.037767 0.004519 -0.319973
-0.038267 0.004226 -0.319803
-0.038367 0.003951 -0.319770
-0.038567 0.003672 -0.319702
-0.038667 0.003398 -0.319668
-0.038667 0.003128 -0.319668
-0.038767 0.002854 -0.319634
-0.038867 0.002581 -0.319600
-0.038867 0.002311 -0.319600
-0.038967 0.002039 -0.319566
-0.039067 0.001767 -0.319532
-0.039167 0.001496 -0.319498
-0.039267 0.001226 -0.319464
-0.039267 0.000956 -0.319464
-0.039267 0.000687 -0.319464
-0.039267 0.000418 -0.319464
-0.039367 0.000149 -0.319430
-0.039367 -0.000120 -0.319430
-0.039367 -0.000389 -0.319430
-0.039367 -0.000658 -0.319430
-0.039367 -0.000927 -0.319430
-0.039267 -0.001197 -0.319464
-0.039267 -0.001466 -0.319464
-0.039267 -0.001736 -0.319464
-0.039267 -0.002005 -0.319464
-0.039167 -0.002276 -0.319498
-0.039167 -0.002546 -0.319498
-0.039167 -0.002815 -0.319498
-0.039067 -0.003087 -0.319532
-0.038967 -0.003360 -0.319566
-0.038967 -0.003630 -0.319566
-0.038867 -0.003904 -0.319600
-0.038767 -0.004178 -0.319634
-0.038667 -0.004453 -0.319668
-0.038667 -0.004724 -0.319668
-0.038667 -0.004994 -0.319668
-0.038367 -0.005280 -0.319770
-0.038367 -0.005551 -0.319770
-0.038267 -0.005828 -0.319803
-0.038267 -0.006100 -0.319803
-0.037767 0.004246 -0.320247
-0.038067 0.003962 -0.320144
-0.038267 0.003683 -0.320076
-0.038467 0.003405 -0.320007
-0.038567 0.003131 -0.319973
-0.038567 0.002860 -0.319973
-0.038567 0.002589 -0.319973
-0.038667 0.002315 -0.319939
-0.038767 0.002043 -0.319905
-0.038767 0.001772 -0.319905
-0.038867 0.001500 -0.319870
-0.038967 0.001229 -0.319836
-0.038967 0.000959 -0.319836
-0.038967 0.000689 -0.319836
-0.039067 0.000419 -0.319802
-0.039067 0.000149 -0.319802
-0.039167 -0.000121 -0.319768
-0.039167 -0.000390 -0.319768
-0.039167 -0.000659 -0.319768
-0.039067 -0.000930 -0.319802
-0.039067 -0.001200 -0.319802
-0.039067 -0.001469 -0.319802
-0.039067 -0.001739 -0.319802
-0.038967 -0.002011 -0.319836
-0.038967 -0.002281 -0.319836
-0.038967 -0.002550 -0.319836
-0.038867 -0.002823 -0.319870
-0.038867 -0.003093 -0.319870
-0.038767 -0.003367 -0.319905
-0.038767 -0.003637 -0.319905
-0.038667 -0.003911 -0.319939
-0.038667 -0.004182 -0.319939
-0.038567 -0.004457 -0.319973
-0.038467 -0.004732 -0.320007
-0.038467 -0.005004 -0.320007
-0.038267 -0.005285 -0.320076
-0.038167 -0.005562 -0.320110
-0.038067 -0.005839 -0.320144
-0.037867 -0.006123 -0.320213
-0.037567 0.003981 -0.320590
-0.037967 0.003693 -0.320452
-0.038267 0.003411 -0.320348
-0.038367 0.003136 -0.320314
-0.038367 0.002865 -0.320314
-0.038367 0.002593 -0.320314
-0.038467 0.002320 -0.320279
-0.038467 0.002049 -0.320279
-0.038567 0.001776 -0.320245
-0.038667 0.001503 -0.320210
-0.038667 0.001232 -0.320210
-0.038767 0.000961 -0.320176
-0.038767 0.000690 -0.320176
-0.038867 0.000420 -0.320141
-0.038867 0.000149 -0.320141
-0.038867 -0.000121 -0.320141
-0.038867 -0.000391 -0.320141
-0.038867 -0.000661 -0.320141
-0.038867 -0.000932 -0.320141
-0.038867 -0.001202 -0.320141
-0.038867 -0.001472 -0.320141
-0.038867 -0.001742 -0.320141
-0.038867 -0.002012 -0.320141
-0.038767 -0.002285 -0.320176
-0.038767 -0.002555 -0.320176
-0.038667 -0.002828 -0.320210
-0.038667 -0.003099 -0.320210
-0.038667 -0.003370 -0.320210
-0.038567 -0.003644 -0.320245
-0.038567 -0.003915 -0.320245
-0.038467 -0.004190 -0.320279
-0.038367 -0.004465 -0.320314
-0.038267 -0.004741 -0.320348
-0.038267 -0.005013 -0.320348
-0.038067 -0.005295 -0.320417
-0.037967 -0.005572 -0.320452
-0.037867 -0.005850 -0.320486
-0.037567 0.003707 -0.320864
-0.037867 0.003424 -0.320760
-0.038067 0.003145 -0.320690
-0.038267 0.002868 -0.320621
-0.038267 0.002596 -0.320621
-0.038267 0.002324 -0.320621
-0.038367 0.002050 -0.320586
-0.038367 0.001779 -0.320586
-0.038467 0.001506 -0.320551
-0.038567 0.001234 -0.320516
-0.038567 0.000963 -0.320516
-0.038567 0.000692 -0.320516
-0.038667 0.000420 -0.320482
-0.038667 0.000150 -0.320482
-0.038667 -0.000121 -0.320482
-0.038667 -0.000392 -0.320482
-0.038667 -0.000663 -0.320482
-0.038667 -0.000933 -0.320482
-0.038667 -0.001204 -0.320482
-0.038667 -0.001475 -0.320482
-0.038667 -0.001746 -0.320482
-0.038667 -0.002016 -0.320482
-0.038567 -0.002289 -0.320516
-0.038567 -0.002560 -0.320516
-0.038567 -0.002831 -0.320516
-0.038567 -0.003102 -0.320516
-0.038467 -0.003376 -0.320551
-0.038467 -0.003647 -0.320551
-0.038367 -0.003922 -0.320586
-0.038267 -0.004198 -0.320621
-0.038267 -0.004470 -0.320621
-0.038167 -0.004746 -0.320655
-0.038167 -0.005018 -0.320655
-0.037967 -0.005300 -0.320725
-0.037867 -0.005577 -0.320760
-0.037467 0.003437 -0.321173
-0.037767 0.003154 -0.321068
-0.037967 0.002876 -0.320998
-0.038067 0.002601 -0.320963
-0.038167 0.002326 -0.320928
-0.038167 0.002054 -0.320928
-0.038167 0.001782 -0.320928
-0.038267 0.001509 -0.320893
-0.038367 0.001236 -0.320858
-0.038367 0.000964 -0.320858
-0.038467 0.000692 -0.320823
-0.038467 0.000421 -0.320823
-0.038467 0.000150 -0.320823
-0.038467 -0.000121 -0.320823
-0.038467 -0.000393 -0.320823
-0.038567 -0.000663 -0.320788
-0.038567 -0.000934 -0.320788
-0.038567 -0.001205 -0.320788
-0.038567 -0.001476 -0.320788
-0.038567 -0.001747 -0.320788
-0.038467 -0.002020 -0.320823
-0.038467 -0.002291 -0.320823
-0.038467 -0.002563 -0.320823
-0.038467 -0.002834 -0.320823
-0.038367 -0.003108 -0.320858
-0.038367 -0.003379 -0.320858
-0.038267 -0.003654 -0.320893
-0.038267 -0.003926 -0.320893
-0.038167 -0.004202 -0.320928
-0.038067 -0.004478 -0.320963
-0.038067 -0.004750 -0.320963
-0.037967 -0.005027 -0.320998
-0.037767 -0.005310 -0.321068
-0.037367 0.003166 -0.321483
-0.037567 0.002886 -0.321412
-0.037767 0.002608 -0.321342
-0.037867 0.002333 -0.321306
-0.037967 0.002058 -0.321271
-0.038067 0.001784 -0.321236
-0.038067 0.001512 -0.321236
-0.038167 0.001238 -0.321201
-0.038167 0.000966 -0.321201
-0.038267 0.000694 -0.321165
-0.038267 0.000422 -0.321165
-0.038367 0.000150 -0.321130
-0.038367 -0.000122 -0.321130
-0.038367 -0.000393 -0.321130
-0.038367 -0.000664 -0.321130
-0.038367 -0.000936 -0.321130
-0.038367 -0.001207 -0.321130
-0.038367 -0.001479 -0.321130
-0.038367 -0.001750 -0.321130
-0.038367 -0.002022 -0.321130
-0.038367 -0.002293 -0.321130
-0.038367 -0.002565 -0.321130
-0.038267 -0.002839 -0.321165
-0.038267 -0.003111 -0.321165
-0.038167 -0.003386 -0.321201
-0.038167 -0.003658 -0.321201
-0.038167 -0.003930 -0.321201
-0.038067 -0.004206 -0.321236
-0.037967 -0.004482 -0.321271
-0.037867 -0.004759 -0.321306
-0.037867 -0.005032 -0.321306
-0.037267 0.002894 -0.321793
-0.037567 0.002613 -0.321686
-0.037667 0.002337 -0.321651
-0.037767 0.002062 -0.321615
-0.037767 0.001789 -0.321615
-0.037867 0.001515 -0.321580
-0.037967 0.001241 -0.321544
-0.038067 0.000967 -0.321509
-0.038067 0.000695 -0.321509
-0.038167 0.000422 -0.321473
-0.038167 0.000150 -0.321473
-0.038167 -0.000122 -0.321473
-0.038167 -0.000394 -0.321473
-0.038267 -0.000665 -0.321438
-0.038267 -0.000937 -0.321438
-0.038267 -0.001209 -0.321438
-0.038267 -0.001480 -0.321438
-0.038267 -0.001752 -0.321438
-0.038267 -0.002024 -0.321438
-0.038167 -0.002298 -0.321473
-0.038167 -0.002570 -0.321473
-0.038167 -0.002842 -0.321473
-0.038167 -0.003114 -0.321473
-0.038067 -0.003389 -0.321509
-0.038067 -0.003661 -0.321509
-0.037967 -0.003937 -0.321544
-0.037967 -0.004210 -0.321544
-0.037867 -0.004486 -0.321580
-0.037767 -0.004764 -0.321615
-0.037267 0.002620 -0.322068
-0.037367 0.002344 -0.322032
-0.037567 0.002066 -0.321961
-0.037567 0.001792 -0.321961
-0.037667 0.001517 -0.321925
-0.037767 0.001243 -0.321889
-0.037867 0.000969 -0.321853
-0.037867 0.000696 -0.321853
-0.037967 0.000423 -0.321817
-0.038067 0.000150 -0.321782
-0.038067 -0.000122 -0.321782
-0.038067 -0.000394 -0.321782
-0.038067 -0.000666 -0.321782
-0.038067 -0.000939 -0.321782
-0.038067 -0.001211 -0.321782
-0.038067 -0.001483 -0.321782
-0.038067 -0.001755 -0.321782
-0.038067 -0.002028 -0.321782
-0.038067 -0.002300 -0.321782
-0.038067 -0.002572 -0.321782
-0.038067 -0.002844 -0.321782
-0.038067 -0.003117 -0.321782
-0.037967 -0.003392 -0.321817
-0.037967 -0.003665 -0.321817
-0.037867 -0.003941 -0.321853
-0.037867 -0.004214 -0.321853
-0.037767 -0.004491 -0.321889
-0.037367 0.002070 -0.322307
-0.037467 0.001794 -0.322271
-0.037467 0.001520 -0.322271
-0.037667 0.001244 -0.322199
-0.037667 0.000971 -0.322199
-0.037767 0.000697 -0.322163
-0.037867 0.000423 -0.322127
-0.037867 0.000151 -0.322127
-0.037967 -0.000122 -0.322091
-0.037967 -0.000394 -0.322091
-0.037967 -0.000667 -0.322091
-0.037967 -0.000939 -0.322091
-0.037967 -0.001212 -0.322091
-0.037967 -0.001485 -0.322091
-0.037967 -0.001757 -0.322091
-0.037967 -0.002030 -0.322091
-0.037967 -0.002302 -0.322091
-0.037967 -0.002575 -0.322091
-0.037867 -0.002850 -0.322127
-0.037867 -0.003122 -0.322127
-0.037867 -0.003395 -0.322127
-0.037867 -0.003668 -0.322127
-0.037867 -0.003941 -0.322127
-0.037367 0.001522 -0.322581
-0.037467 0.001246 -0.322545
-0.037567 0.000972 -0.322509
-0.037567 0.000698 -0.322509
-0.037667 0.000424 -0.322473
-0.037767 0.000151 -0.322436
-0.037767 -0.000122 -0.322436
-0.037767 -0.000395 -0.322436
-0.037767 -0.000668 -0.322436
-0.037867 -0.000940 -0.322400
-0.037867 -0.001213 -0.322400
-0.037867 -0.001486 -0.322400
-0.037867 -0.001759 -0.322400
-0.037867 -0.002031 -0.322400
-0.037867 -0.002304 -0.322400
-0.037867 -0.002577 -0.322400
-0.037867 -0.002850 -0.322400
-0.037867 -0.003122 -0.322400
-0.037767 -0.003398 -0.322436
-0.037667 -0.003675 -0.322473
-0.037467 0.000973 -0.322820
-0.037467 0.000699 -0.322820
-0.037667 0.000424 -0.322746
-0.037667 0.000151 -0.322746
-0.037667 -0.000122 -0.322746
-0.037767 -0.000395 -0.322710
-0.037767 -0.000668 -0.322710
-0.037767 -0.000941 -0.322710
-0.037767 -0.001214 -0.322710
-0.037767 -0.001487 -0.322710
-0.037767 -0.001760 -0.322710
-0.037767 -0.002033 -0.322710
-0.037767 -0.002306 -0.322710
-0.037767 -0.002579 -0.322710
-0.037767 -0.002852 -0.322710
-0.037767 -0.003125 -0.322710
-0.037467 0.000425 -0.323094
-0.037567 0.000151 -0.323057
-0.037567 -0.000122 -0.323057
-0.037667 -0.000396 -0.323020
-0.037767 -0.000668 -0.322984
-0.037767 -0.000941 -0.322984
-0.037767 -0.001214 -0.322984
-0.037667 -0.001489 -0.323020
-0.037767 -0.001760 -0.322984
-0.037767 -0.002033 -0.322984
-0.037767 -0.002306 -0.322984
-0.037667 -0.002582 -0.323020
