ply
format ascii 1.0
element vertex 1071
property float x
property float y
property float z
end_header
-0.005034 0.005093 0.058000
-0.005034 0.005241 0.058000
-0.005245 0.004406 0.058700
-0.005218 0.004533 0.058400
-0.005218 0.004682 0.058400
-0.005173 0.005084 0.057900
-0.005164 0.005223 0.057800
-0.005164 0.005370 0.057800
-0.005395 0.004406 0.058700
-0.005367 0.004533 0.058400
-0.005349 0.004666 0.058200
-0.005349 0.004814 0.058200
-0.005321 0.005084 0.057900
-0.005303 0.005214 0.057700
-0.005275 0.005333 0.057400
-0.005266 0.005470 0.057300
-0.005266 0.005616 0.057300
-0.005516 0.004533 0.058400
-0.005488 0.004658 0.058100
-0.005488 0.004806 0.058100
-0.005459 0.005076 0.057800
-0.005441 0.005205 0.057600
-0.005422 0.005333 0.057400
-0.005412 0.005470 0.057300
-0.005403 0.005606 0.057200
-0.005393 0.005742 0.057100
-0.005393 0.005888 0.057100
-0.005374 0.006157 0.056900
-0.005374 0.006302 0.056900
-0.005665 0.004533 0.058400
-0.005636 0.004658 0.058100
-0.005636 0.004806 0.058100
-0.005607 0.005076 0.057800
-0.005578 0.005196 0.057500
-0.005559 0.005324 0.057300
-0.005549 0.005460 0.057200
-0.005549 0.005606 0.057200
-0.005539 0.005742 0.057100
-0.005530 0.005877 0.057000
-0.005530 0.006023 0.057000
-0.005520 0.006157 0.056900
-0.005520 0.006302 0.056900
-0.005520 0.006447 0.056900
-0.005854 0.004264 0.058800
-0.005854 0.004414 0.058800
-0.005815 0.004533 0.058400
-0.005785 0.004658 0.058100
-0.005785 0.004806 0.058100
-0.005715 0.005187 0.057400
-0.005695 0.005315 0.057200
-0.005695 0.005460 0.057200
-0.005695 0.005606 0.057200
-0.005685 0.005742 0.057100
-0.005675 0.005877 0.057000
-0.005675 0.006023 0.057000
-0.005665 0.006157 0.056900
-0.005665 0.006302 0.056900
-0.005665 0.006447 0.056900
-0.006005 0.004264 0.058800
-0.006005 0.004414 0.058800
-0.005954 0.004525 0.058300
-0.005923 0.004650 0.058000
-0.005923 0.004798 0.058000
-0.005862 0.005187 0.057400
-0.005841 0.005315 0.057200
-0.005841 0.005460 0.057200
-0.005841 0.005606 0.057200
-0.005831 0.005742 0.057100
-0.005821 0.005877 0.057000
-0.005821 0.006023 0.057000
-0.005811 0.006157 0.056900
-0.005811 0.006302 0.056900
-0.005811 0.006447 0.056900
-0.006103 0.004525 0.058300
-0.006071 0.004650 0.058000
-0.006071 0.004798 0.058000
-0.006008 0.005187 0.057400
-0.005987 0.005315 0.057200
-0.005987 0.005460 0.057200
-0.005977 0.005596 0.057100
-0.005977 0.005742 0.057100
-0.005967 0.005877 0.057000
-0.005967 0.006023 0.057000
-0.005956 0.006157 0.056900
-0.005956 0.006302 0.056900
-0.005956 0.006447 0.056900
-0.006445 0.003746 0.060100
-0.006445 0.003899 0.060100
-0.006241 0.004517 0.058200
-0.006219 0.004650 0.058000
-0.006219 0.004798 0.058000
-0.006155 0.005187 0.057400
-0.006134 0.005315 0.057200
-0.006134 0.005460 0.057200
-0.006123 0.005596 0.057100
-0.006112 0.005732 0.057000
-0.006112 0.005877 0.057000
-0.006112 0.006023 0.057000
-0.006101 0.006157 0.056900
-0.006091 0.006291 0.056800
-0.006091 0.006436 0.056800
-0.006587 0.003739 0.060000
-0.006554 0.003873 0.059700
-0.006554 0.004025 0.059700
-0.006401 0.004376 0.058300
-0.006390 0.004517 0.058200
-0.006368 0.004650 0.058000
-0.006368 0.004798 0.058000
-0.006302 0.005187 0.057400
-0.006280 0.005315 0.057200
-0.006280 0.005460 0.057200
-0.006269 0.005596 0.057100
-0.006258 0.005732 0.057000
-0.006258 0.005877 0.057000
-0.006258 0.006023 0.057000
-0.006247 0.006157 0.056900
-0.006225 0.006280 0.056700
-0.006225 0.006424 0.056700
-0.006740 0.003739 0.060000
-0.006662 0.003847 0.059300
-0.006617 0.003971 0.058900
-0.006617 0.004121 0.058900
-0.006572 0.004242 0.058500
-0.006549 0.004376 0.058300
-0.006538 0.004517 0.058200
-0.006516 0.004650 0.058000
-0.006516 0.004798 0.058000
-0.006482 0.004920 0.057700
-0.006471 0.005058 0.057600
-0.006448 0.005187 0.057400
-0.006426 0.005315 0.057200
-0.006426 0.005460 0.057200
-0.006415 0.005596 0.057100
-0.006403 0.005732 0.057000
-0.006403 0.005877 0.057000
-0.006403 0.006023 0.057000
-0.006381 0.006146 0.056800
-0.006370 0.006280 0.056700
-0.006370 0.006424 0.056700
-0.006269 0.006891 0.055800
-0.006269 0.007034 0.055800
-0.006825 0.003551 0.059400
-0.006825 0.003702 0.059400
-0.006813 0.003847 0.059300
-0.006767 0.003971 0.058900
-0.006767 0.004121 0.058900
-0.006721 0.004242 0.058500
-0.006721 0.004391 0.058500
-0.006698 0.004525 0.058300
-0.006698 0.004674 0.058300
-0.006630 0.004920 0.057700
-0.006618 0.005058 0.057600
-0.006595 0.005187 0.057400
-0.006584 0.005324 0.057300
-0.006572 0.005460 0.057200
-0.006561 0.005596 0.057100
-0.006549 0.005732 0.057000
-0.006538 0.005867 0.056900
-0.006538 0.006012 0.056900
-0.006526 0.006146 0.056800
-0.006503 0.006269 0.056600
-0.006503 0.006413 0.056600
-0.006423 0.006761 0.055900
-0.006411 0.006891 0.055800
-0.006400 0.007021 0.055700
-0.006400 0.007163 0.055700
-0.006977 0.003551 0.059400
-0.006977 0.003702 0.059400
-0.006883 0.004250 0.058600
-0.006871 0.004391 0.058500
-0.006847 0.004525 0.058300
-0.006847 0.004674 0.058300
-0.006789 0.004928 0.057800
-0.006777 0.005067 0.057700
-0.006753 0.005196 0.057500
-0.006730 0.005324 0.057300
-0.006718 0.005460 0.057200
-0.006706 0.005596 0.057100
-0.006695 0.005732 0.057000
-0.006683 0.005867 0.056900
-0.006683 0.006012 0.056900
-0.006659 0.006135 0.056700
-0.006648 0.006269 0.056600
-0.006613 0.006379 0.056300
-0.006613 0.006523 0.056300
-0.006577 0.006631 0.056000
-0.006566 0.006761 0.055900
-0.006554 0.006891 0.055800
-0.006542 0.007021 0.055700
-0.006542 0.007163 0.055700
-0.006542 0.007305 0.055700
-0.007032 0.004250 0.058600
-0.007020 0.004391 0.058500
-0.007008 0.004533 0.058400
-0.006996 0.004674 0.058300
-0.006972 0.004806 0.058100
-0.006948 0.004937 0.057900
-0.006924 0.005067 0.057700
-0.006900 0.005196 0.057500
-0.006876 0.005324 0.057300
-0.006864 0.005460 0.057200
-0.006852 0.005596 0.057100
-0.006840 0.005732 0.057000
-0.006816 0.005857 0.056800
-0.006816 0.006001 0.056800
-0.006804 0.006135 0.056700
-0.006768 0.006247 0.056400
-0.006744 0.006368 0.056200
-0.006744 0.006511 0.056200
-0.006708 0.006619 0.055900
-0.006696 0.006749 0.055800
-0.006684 0.006879 0.055700
-0.006684 0.007021 0.055700
-0.006684 0.007163 0.055700
-0.006684 0.007305 0.055700
-0.006684 0.007447 0.055700
-0.007219 0.003821 0.058900
-0.007207 0.003964 0.058800
-0.007194 0.004107 0.058700
-0.007182 0.004250 0.058600
-0.007170 0.004391 0.058500
-0.007158 0.004533 0.058400
-0.007145 0.004674 0.058300
-0.007121 0.004806 0.058100
-0.007109 0.004945 0.058000
-0.007084 0.005076 0.057800
-0.007060 0.005205 0.057600
-0.007035 0.005333 0.057400
-0.007023 0.005470 0.057300
-0.006998 0.005596 0.057100
-0.006986 0.005732 0.057000
-0.006962 0.005857 0.056800
-0.006962 0.006001 0.056800
-0.006962 0.006146 0.056800
-0.006912 0.006247 0.056400
-0.006888 0.006368 0.056200
-0.006863 0.006488 0.056000
-0.006839 0.006607 0.055800
-0.006839 0.006749 0.055800
-0.006827 0.006879 0.055700
-0.006827 0.007021 0.055700
-0.006827 0.007163 0.055700
-0.006827 0.007305 0.055700
-0.006827 0.007447 0.055700
-0.007394 0.003382 0.059100
-0.007394 0.003533 0.059100
-0.007394 0.003683 0.059100
-0.007369 0.003821 0.058900
-0.007357 0.003964 0.058800
-0.007344 0.004107 0.058700
-0.007332 0.004250 0.058600
-0.007332 0.004399 0.058600
-0.007319 0.004541 0.058500
-0.007307 0.004682 0.058400
-0.007282 0.004814 0.058200
-0.007257 0.004945 0.058000
-0.007244 0.005084 0.057900
-0.007219 0.005214 0.057700
-0.007194 0.005342 0.057500
-0.007169 0.005470 0.057300
-0.007144 0.005596 0.057100
-0.007144 0.005742 0.057100
-0.006994 0.006476 0.055900
-0.006982 0.006607 0.055800
-0.006982 0.006749 0.055800
-0.006969 0.006879 0.055700
-0.006969 0.007021 0.055700
-0.006969 0.007163 0.055700
-0.006957 0.007292 0.055600
-0.006957 0.007434 0.055600
-0.006957 0.007575 0.055600
-0.007545 0.003382 0.059100
-0.007545 0.003533 0.059100
-0.007533 0.003677 0.059000
-0.007520 0.003821 0.058900
-0.007507 0.003964 0.058800
-0.007507 0.004114 0.058800
-0.007494 0.004257 0.058700
-0.007482 0.004399 0.058600
-0.007482 0.004548 0.058600
-0.007469 0.004690 0.058500
-0.007443 0.004822 0.058300
-0.007431 0.004962 0.058200
-0.007431 0.005111 0.058200
-0.007328 0.005480 0.057400
-0.007290 0.005596 0.057100
-0.007290 0.005742 0.057100
-0.007124 0.006465 0.055800
-0.007124 0.006607 0.055800
-0.007111 0.006737 0.055700
-0.007111 0.006879 0.055700
-0.007111 0.007021 0.055700
-0.007111 0.007163 0.055700
-0.007099 0.007292 0.055600
-0.007099 0.007434 0.055600
-0.007099 0.007575 0.055600
-0.007696 0.003533 0.059100
-0.007683 0.003677 0.059000
-0.007670 0.003821 0.058900
-0.007670 0.003971 0.058900
-0.007657 0.004114 0.058800
-0.007657 0.004264 0.058800
-0.007644 0.004406 0.058700
-0.007631 0.004548 0.058600
-0.007618 0.004690 0.058500
-0.007605 0.004831 0.058400
-0.007579 0.004962 0.058200
-0.007579 0.005111 0.058200
-0.007436 0.005596 0.057100
-0.007436 0.005742 0.057100
-0.007267 0.006465 0.055800
-0.007254 0.006595 0.055700
-0.007254 0.006737 0.055700
-0.007254 0.006879 0.055700
-0.007254 0.007021 0.055700
-0.007254 0.007163 0.055700
-0.007241 0.007292 0.055600
-0.007241 0.007434 0.055600
-0.007241 0.007575 0.055600
-0.007847 0.003382 0.059100
-0.007847 0.003533 0.059100
-0.007834 0.003677 0.059000
-0.007834 0.003827 0.059000
-0.007821 0.003971 0.058900
-0.007821 0.004121 0.058900
-0.007808 0.004264 0.058800
-0.007794 0.004406 0.058700
-0.007794 0.004556 0.058700
-0.007781 0.004698 0.058600
-0.007768 0.004839 0.058500
-0.007754 0.004979 0.058400
-0.007754 0.005128 0.058400
-0.007595 0.005606 0.057200
-0.007595 0.005752 0.057200
-0.007409 0.006322 0.055800
-0.007396 0.006453 0.055700
-0.007396 0.006595 0.055700
-0.007396 0.006737 0.055700
-0.007396 0.006879 0.055700
-0.007396 0.007021 0.055700
-0.007383 0.007150 0.055600
-0.007383 0.007292 0.055600
-0.007383 0.007434 0.055600
-0.007383 0.007575 0.055600
-0.007998 0.003382 0.059100
-0.007998 0.003533 0.059100
-0.007998 0.003683 0.059100
-0.007985 0.003827 0.059000
-0.007985 0.003978 0.059000
-0.007971 0.004121 0.058900
-0.007958 0.004264 0.058800
-0.007958 0.004414 0.058800
-0.007944 0.004556 0.058700
-0.007944 0.004706 0.058700
-0.007931 0.004847 0.058600
-0.007917 0.004988 0.058500
-0.007917 0.005137 0.058500
-0.007552 0.006322 0.055800
-0.007538 0.006453 0.055700
-0.007538 0.006595 0.055700
-0.007538 0.006737 0.055700
-0.007525 0.006867 0.055600
-0.007525 0.007009 0.055600
-0.007525 0.007150 0.055600
-0.007525 0.007292 0.055600
-0.007525 0.007434 0.055600
-0.007525 0.007575 0.055600
-0.008163 0.003388 0.059200
-0.008163 0.003539 0.059200
-0.008149 0.003683 0.059100
-0.008149 0.003834 0.059100
-0.008149 0.003985 0.059100
-0.008136 0.004128 0.059000
-0.008136 0.004279 0.059000
-0.008122 0.004422 0.058900
-0.008108 0.004564 0.058800
-0.008108 0.004714 0.058800
-0.008108 0.004864 0.058800
-0.008094 0.005005 0.058700
-0.008081 0.005146 0.058600
-0.008081 0.005295 0.058600
-0.007708 0.006334 0.055900
-0.007694 0.006465 0.055800
-0.007681 0.006595 0.055700
-0.007681 0.006737 0.055700
-0.007667 0.006867 0.055600
-0.007667 0.007009 0.055600
-0.007667 0.007150 0.055600
-0.008329 0.003393 0.059300
-0.008315 0.003539 0.059200
-0.008315 0.003689 0.059200
-0.008315 0.003840 0.059200
-0.008300 0.003985 0.059100
-0.008300 0.004135 0.059100
-0.008286 0.004279 0.059000
-0.008272 0.004422 0.058900
-0.008272 0.004572 0.058900
-0.008258 0.004714 0.058800
-0.008258 0.004864 0.058800
-0.008258 0.005014 0.058800
-0.008230 0.005146 0.058600
-0.008230 0.005295 0.058600
-0.007865 0.006202 0.056000
-0.007851 0.006334 0.055900
-0.007837 0.006465 0.055800
-0.007823 0.006595 0.055700
-0.007823 0.006737 0.055700
-0.007809 0.006867 0.055600
-0.007809 0.007009 0.055600
-0.007809 0.007150 0.055600
-0.008494 0.003248 0.059400
-0.008480 0.003393 0.059300
-0.008480 0.003545 0.059300
-0.008466 0.003689 0.059200
-0.008466 0.003840 0.059200
-0.008451 0.003985 0.059100
-0.008451 0.004135 0.059100
-0.008451 0.004286 0.059100
-0.008437 0.004429 0.059000
-0.008423 0.004572 0.058900
-0.008423 0.004722 0.058900
-0.008409 0.005014 0.058800
-0.008380 0.005146 0.058600
-0.008380 0.005295 0.058600
-0.008037 0.005938 0.056200
-0.008037 0.006081 0.056200
-0.008008 0.006202 0.056000
-0.007994 0.006334 0.055900
-0.007980 0.006465 0.055800
-0.007965 0.006595 0.055700
-0.007965 0.006737 0.055700
-0.007965 0.006879 0.055700
-0.008646 0.003248 0.059400
-0.008632 0.003393 0.059300
-0.008632 0.003545 0.059300
-0.008632 0.003696 0.059300
-0.008632 0.003847 0.059300
-0.008617 0.003991 0.059200
-0.008602 0.004135 0.059100
-0.008602 0.004286 0.059100
-0.008588 0.004429 0.059000
-0.008588 0.004579 0.059000
-0.008588 0.004730 0.059000
-0.008559 0.005014 0.058800
-0.008530 0.005146 0.058600
-0.008530 0.005295 0.058600
-0.008326 0.005752 0.057200
-0.008297 0.005877 0.057000
-0.008180 0.005938 0.056200
-0.008180 0.006081 0.056200
-0.008151 0.006202 0.056000
-0.008151 0.006345 0.056000
-0.008798 0.003248 0.059400
-0.008798 0.003399 0.059400
-0.008783 0.003545 0.059300
-0.008783 0.003696 0.059300
-0.008783 0.003847 0.059300
-0.008768 0.003991 0.059200
-0.008768 0.004142 0.059200
-0.008754 0.004286 0.059100
-0.008754 0.004437 0.059100
-0.008739 0.004579 0.059000
-0.008739 0.004730 0.059000
-0.008472 0.005752 0.057200
-0.008442 0.005877 0.057000
-0.008398 0.005991 0.056700
-0.008398 0.006135 0.056700
-0.008368 0.006258 0.056500
-0.008368 0.006402 0.056500
-0.008950 0.003248 0.059400
-0.008950 0.003399 0.059400
-0.008935 0.003545 0.059300
-0.008935 0.003696 0.059300
-0.008935 0.003847 0.059300
-0.008935 0.003998 0.059300
-0.008920 0.004142 0.059200
-0.008920 0.004293 0.059200
-0.008905 0.004437 0.059100
-0.008889 0.004579 0.059000
-0.008889 0.004730 0.059000
-0.008618 0.005898 0.057200
-0.008588 0.006023 0.057000
-0.008588 0.006168 0.057000
-0.008588 0.006313 0.057000
-0.009101 0.003248 0.059400
-0.009101 0.003399 0.059400
-0.009086 0.003545 0.059300
-0.009086 0.003696 0.059300
-0.009086 0.003847 0.059300
-0.009086 0.003998 0.059300
-0.009071 0.004142 0.059200
-0.009071 0.004293 0.059200
-0.009056 0.004437 0.059100
-0.009025 0.004572 0.058900
-0.009025 0.004722 0.058900
-0.008964 0.004839 0.058500
-0.008964 0.004988 0.058500
-0.008887 0.005093 0.058000
-0.008841 0.005214 0.057700
-0.008841 0.005361 0.057700
-0.008841 0.005508 0.057700
-0.009253 0.003399 0.059400
-0.009238 0.003545 0.059300
-0.009238 0.003696 0.059300
-0.009238 0.003847 0.059300
-0.009238 0.003998 0.059300
-0.009238 0.004149 0.059300
-0.009207 0.004286 0.059100
-0.009191 0.004429 0.059000
-0.009160 0.004564 0.058800
-0.009160 0.004714 0.058800
-0.009097 0.004831 0.058400
-0.009066 0.004962 0.058200
-0.009020 0.005084 0.057900
-0.008988 0.005214 0.057700
-0.008988 0.005361 0.057700
-0.008973 0.005499 0.057600
-0.008973 0.005645 0.057600
-0.008957 0.005782 0.057500
-0.008957 0.005929 0.057500
-0.008957 0.006075 0.057500
-0.008957 0.006222 0.057500
-0.008942 0.006357 0.057400
-0.008942 0.006504 0.057400
-0.009405 0.003399 0.059400
-0.009405 0.003551 0.059400
-0.009389 0.003696 0.059300
-0.009389 0.003847 0.059300
-0.009389 0.003998 0.059300
-0.009373 0.004142 0.059200
-0.009358 0.004286 0.059100
-0.009326 0.004422 0.058900
-0.009294 0.004556 0.058700
-0.009294 0.004706 0.058700
-0.009247 0.004831 0.058400
-0.009215 0.004962 0.058200
-0.009168 0.005084 0.057900
-0.009136 0.005214 0.057700
-0.009136 0.005361 0.057700
-0.009120 0.005499 0.057600
-0.009120 0.005645 0.057600
-0.009104 0.005782 0.057500
-0.009104 0.005929 0.057500
-0.009104 0.006075 0.057500
-0.009104 0.006222 0.057500
-0.009088 0.006357 0.057400
-0.009088 0.006504 0.057400
-0.009557 0.003399 0.059400
-0.009557 0.003551 0.059400
-0.009541 0.003696 0.059300
-0.009541 0.003847 0.059300
-0.009541 0.003998 0.059300
-0.009525 0.004142 0.059200
-0.009492 0.004279 0.059000
-0.009460 0.004414 0.058800
-0.009444 0.004556 0.058700
-0.009444 0.004706 0.058700
-0.009332 0.004945 0.058000
-0.009315 0.005084 0.057900
-0.009299 0.005223 0.057800
-0.009283 0.005361 0.057700
-0.009267 0.005499 0.057600
-0.009267 0.005645 0.057600
-0.009267 0.005792 0.057600
-0.009267 0.005939 0.057600
-0.009267 0.006086 0.057600
-0.009251 0.006222 0.057500
-0.009251 0.006369 0.057500
-0.009251 0.006515 0.057500
-0.009709 0.003399 0.059400
-0.009709 0.003551 0.059400
-0.009692 0.003696 0.059300
-0.009692 0.003847 0.059300
-0.009692 0.003998 0.059300
-0.009676 0.004142 0.059200
-0.009643 0.004279 0.059000
-0.009611 0.004414 0.058800
-0.009611 0.004564 0.058800
-0.009480 0.004945 0.058000
-0.009463 0.005084 0.057900
-0.009447 0.005223 0.057800
-0.009447 0.005370 0.057800
-0.009431 0.005508 0.057700
-0.009414 0.005645 0.057600
-0.009414 0.005792 0.057600
-0.009414 0.005939 0.057600
-0.009414 0.006086 0.057600
-0.009414 0.006233 0.057600
-0.009414 0.006380 0.057600
-0.009414 0.006526 0.057600
-0.009860 0.003551 0.059400
-0.009860 0.003702 0.059400
-0.009794 0.004279 0.059000
-0.009761 0.004414 0.058800
-0.009761 0.004564 0.058800
-0.009645 0.004806 0.058100
-0.009611 0.004937 0.057900
-0.009611 0.005084 0.057900
-0.009595 0.005223 0.057800
-0.009595 0.005370 0.057800
-0.009578 0.005508 0.057700
-0.009578 0.005655 0.057700
-0.009562 0.005792 0.057600
-0.009562 0.005939 0.057600
-0.009562 0.006086 0.057600
-0.009562 0.006233 0.057600
-0.009562 0.006380 0.057600
-0.009562 0.006526 0.057600
-0.009793 0.004806 0.058100
-0.009759 0.004937 0.057900
-0.009759 0.005084 0.057900
-0.009742 0.005223 0.057800
-0.009742 0.005370 0.057800
-0.009726 0.005508 0.057700
-0.009726 0.005655 0.057700
-0.009709 0.005792 0.057600
-0.009709 0.005939 0.057600
-0.009709 0.006086 0.057600
-0.009709 0.006233 0.057600
-0.009709 0.006380 0.057600
-0.009709 0.006526 0.057600
-0.009941 0.004806 0.058100
-0.009907 0.004937 0.057900
-0.009907 0.005084 0.057900
-0.009890 0.005223 0.057800
-0.009890 0.005370 0.057800
-0.009890 0.005518 0.057800
-0.009873 0.005655 0.057700
-0.009873 0.005802 0.057700
-0.009873 0.005949 0.057700
-0.009856 0.006086 0.057600
-0.009856 0.006233 0.057600
-0.009856 0.006380 0.057600
-0.009856 0.006526 0.057600
-0.010090 0.004806 0.058100
-0.010055 0.004937 0.057900
-0.010055 0.005084 0.057900
-0.010055 0.005232 0.057900
-0.010038 0.005370 0.057800
-0.010038 0.005518 0.057800
-0.010020 0.005655 0.057700
-0.010020 0.005802 0.057700
-0.010020 0.005949 0.057700
-0.010003 0.006086 0.057600
-0.010003 0.006233 0.057600
-0.010003 0.006380 0.057600
-0.010003 0.006526 0.057600
-0.010203 0.004937 0.057900
-0.010203 0.005084 0.057900
-0.010203 0.005232 0.057900
-0.010186 0.005370 0.057800
-0.010186 0.005518 0.057800
-0.010168 0.005655 0.057700
-0.010168 0.005802 0.057700
-0.010168 0.005949 0.057700
-0.010150 0.006086 0.057600
-0.010150 0.006233 0.057600
-0.010351 0.004937 0.057900
-0.010351 0.005084 0.057900
-0.010333 0.005223 0.057800
-0.010333 0.005370 0.057800
-0.010315 0.005508 0.057700
-0.010315 0.005655 0.057700
-0.010315 0.005802 0.057700
-0.010297 0.005939 0.057600
-0.010297 0.006086 0.057600
-0.010280 0.006222 0.057500
-0.010280 0.006369 0.057500
-0.010280 0.006515 0.057500
-0.010499 0.004937 0.057900
-0.010481 0.005076 0.057800
-0.010481 0.005223 0.057800
-0.010463 0.005361 0.057700
-0.010463 0.005508 0.057700
-0.010445 0.005645 0.057600
-0.010445 0.005792 0.057600
-0.010427 0.005929 0.057500
-0.010408 0.006065 0.057400
-0.010408 0.006211 0.057400
-0.010427 0.006369 0.057500
-0.010427 0.006515 0.057500
-0.010647 0.004937 0.057900
-0.010629 0.005076 0.057800
-0.010610 0.005214 0.057700
-0.010592 0.005352 0.057600
-0.010592 0.005499 0.057600
-0.010573 0.005636 0.057500
-0.010573 0.005782 0.057500
-0.010555 0.005918 0.057400
-0.010537 0.006054 0.057300
-0.010537 0.006200 0.057300
-0.010758 0.005067 0.057700
-0.010739 0.005205 0.057600
-0.010739 0.005352 0.057600
-0.010720 0.005489 0.057500
-0.010702 0.005626 0.057400
-0.010683 0.005762 0.057300
-0.010683 0.005908 0.057300
-0.010664 0.006044 0.057200
-0.010664 0.006189 0.057200
-0.010905 0.005067 0.057700
-0.010867 0.005196 0.057500
-0.010867 0.005342 0.057500
-0.010867 0.005489 0.057500
-0.010829 0.005616 0.057300
-0.010811 0.005752 0.057200
-0.010811 0.005898 0.057200
-0.010792 0.006033 0.057100
-0.010792 0.006179 0.057100
-0.010792 0.006324 0.057100
-0.010792 0.006470 0.057100
-0.010995 0.005187 0.057400
-0.010976 0.005324 0.057300
-0.010976 0.005470 0.057300
-0.010957 0.005606 0.057200
-0.010957 0.005752 0.057200
-0.010938 0.005888 0.057100
-0.010918 0.006023 0.057000
-0.010918 0.006168 0.057000
-0.010918 0.006313 0.057000
-0.010918 0.006458 0.057000
-0.011142 0.005187 0.057400
-0.011122 0.005324 0.057300
-0.011103 0.005460 0.057200
-0.011103 0.005606 0.057200
-0.011083 0.005742 0.057100
-0.011083 0.005888 0.057100
-0.011064 0.006023 0.057000
-0.011064 0.006168 0.057000
-0.011064 0.006313 0.057000
-0.011045 0.006447 0.056900
-0.011045 0.006592 0.056900
-0.011249 0.005315 0.057200
-0.011249 0.005460 0.057200
-0.011229 0.005596 0.057100
-0.011229 0.005742 0.057100
-0.011210 0.005877 0.057000
-0.011210 0.006023 0.057000
-0.011190 0.006157 0.056900
-0.011190 0.006302 0.056900
-0.011190 0.006447 0.056900
-0.011190 0.006592 0.056900
-0.011395 0.005315 0.057200
-0.011375 0.005451 0.057100
-0.011375 0.005596 0.057100
-0.011355 0.005732 0.057000
-0.011355 0.005877 0.057000
-0.011355 0.006023 0.057000
-0.011335 0.006157 0.056900
-0.011335 0.006302 0.056900
-0.011335 0.006447 0.056900
-0.011335 0.006592 0.056900
-0.011562 0.005178 0.057300
-0.011541 0.005315 0.057200
-0.011521 0.005451 0.057100
-0.011521 0.005596 0.057100
-0.011501 0.005732 0.057000
-0.011501 0.005877 0.057000
-0.011501 0.006023 0.057000
-0.011481 0.006157 0.056900
-0.011481 0.006302 0.056900
-0.011481 0.006447 0.056900
-0.011481 0.006592 0.056900
-0.011708 0.005178 0.057300
-0.011688 0.005315 0.057200
-0.011688 0.005460 0.057200
-0.011667 0.005596 0.057100
-0.011667 0.005742 0.057100
-0.011647 0.005877 0.057000
-0.011647 0.006023 0.057000
-0.011626 0.006157 0.056900
-0.011626 0.006302 0.056900
-0.011626 0.006447 0.056900
-0.011626 0.006592 0.056900
-0.011978 0.004494 0.057900
-0.011958 0.004634 0.057800
-0.011958 0.004781 0.057800
-0.011854 0.005178 0.057300
-0.011854 0.005324 0.057300
-0.011834 0.005460 0.057200
-0.011813 0.005596 0.057100
-0.011813 0.005742 0.057100
-0.011813 0.005888 0.057100
-0.011792 0.006023 0.057000
-0.011772 0.006157 0.056900
-0.011772 0.006302 0.056900
-0.011772 0.006447 0.056900
-0.011772 0.006592 0.056900
-0.012147 0.004354 0.058000
-0.012126 0.004494 0.057900
-0.012105 0.004634 0.057800
-0.012105 0.004781 0.057800
-0.012105 0.004928 0.057800
-0.012022 0.005187 0.057400
-0.012001 0.005324 0.057300
-0.012001 0.005470 0.057300
-0.011980 0.005606 0.057200
-0.011959 0.005742 0.057100
-0.011959 0.005888 0.057100
-0.011959 0.006033 0.057100
-0.011917 0.006157 0.056900
-0.011917 0.006302 0.056900
-0.011917 0.006447 0.056900
-0.012296 0.004206 0.058000
-0.012296 0.004354 0.058000
-0.012274 0.004494 0.057900
-0.012253 0.004634 0.057800
-0.012253 0.004781 0.057800
-0.012232 0.004920 0.057700
-0.012211 0.005058 0.057600
-0.012190 0.005196 0.057500
-0.012168 0.005333 0.057400
-0.012147 0.005470 0.057300
-0.012126 0.005606 0.057200
-0.012126 0.005752 0.057200
-0.012105 0.005888 0.057100
-0.012105 0.006033 0.057100
-0.012084 0.006168 0.057000
-0.012084 0.006313 0.057000
-0.012444 0.004058 0.058000
-0.012444 0.004206 0.058000
-0.012444 0.004354 0.058000
-0.012422 0.004494 0.057900
-0.012401 0.004634 0.057800
-0.012401 0.004781 0.057800
-0.012379 0.004920 0.057700
-0.012358 0.005058 0.057600
-0.012358 0.005205 0.057600
-0.012337 0.005342 0.057500
-0.012315 0.005480 0.057400
-0.012294 0.005616 0.057300
-0.012272 0.005752 0.057200
-0.012272 0.005898 0.057200
-0.012251 0.006033 0.057100
-0.012251 0.006179 0.057100
-0.012592 0.004058 0.058000
-0.012592 0.004206 0.058000
-0.012592 0.004354 0.058000
-0.012570 0.004494 0.057900
-0.012570 0.004642 0.057900
-0.012549 0.004781 0.057800
-0.012549 0.004928 0.057800
-0.012527 0.005067 0.057700
-0.012505 0.005205 0.057600
-0.012483 0.005342 0.057500
-0.012483 0.005489 0.057500
-0.012462 0.005626 0.057400
-0.012440 0.005762 0.057300
-0.012440 0.005908 0.057300
-0.012440 0.006054 0.057300
-0.012762 0.004065 0.058100
-0.012762 0.004213 0.058100
-0.012740 0.004354 0.058000
-0.012740 0.004502 0.058000
-0.012718 0.004642 0.057900
-0.012718 0.004789 0.057900
-0.012696 0.004928 0.057800
-0.012696 0.005076 0.057800
-0.012674 0.005214 0.057700
-0.012652 0.005352 0.057600
-0.012630 0.005489 0.057500
-0.012608 0.005626 0.057400
-0.012608 0.005772 0.057400
-0.012933 0.004072 0.058200
-0.012911 0.004213 0.058100
-0.012911 0.004361 0.058100
-0.012911 0.004510 0.058100
-0.012888 0.004650 0.058000
-0.012888 0.004798 0.058000
-0.012866 0.004937 0.057900
-0.012844 0.005076 0.057800
-0.012822 0.005214 0.057700
-0.012822 0.005361 0.057700
-0.012799 0.005499 0.057600
-0.012799 0.005645 0.057600
-0.013149 0.003944 0.058500
-0.013149 0.004093 0.058500
-0.013104 0.004228 0.058300
-0.013082 0.004369 0.058200
-0.013082 0.004517 0.058200
-0.013059 0.004658 0.058100
-0.013037 0.004798 0.058000
-0.013014 0.004937 0.057900
-0.013014 0.005084 0.057900
-0.012992 0.005223 0.057800
-0.012969 0.005361 0.057700
-0.012969 0.005508 0.057700
-0.012969 0.005655 0.057700
-0.013298 0.003944 0.058500
-0.013298 0.004093 0.058500
-0.013276 0.004235 0.058400
-0.013253 0.004376 0.058300
-0.013253 0.004525 0.058300
-0.013230 0.004666 0.058200
-0.013208 0.004806 0.058100
-0.013185 0.004945 0.058000
-0.013162 0.005084 0.057900
-0.013162 0.005232 0.057900
-0.013162 0.005380 0.057900
-0.013117 0.005508 0.057700
-0.013117 0.005655 0.057700
-0.013494 0.003958 0.058700
-0.013494 0.004107 0.058700
-0.013471 0.004250 0.058600
-0.013448 0.004391 0.058500
-0.013425 0.004533 0.058400
-0.013402 0.004674 0.058300
-0.013379 0.004814 0.058200
-0.013356 0.004954 0.058100
-0.013333 0.005093 0.058000
-0.013333 0.005241 0.058000
-0.013287 0.005518 0.057800
-0.013287 0.005665 0.057800
-0.013644 0.003958 0.058700
-0.013644 0.004107 0.058700
-0.013621 0.004250 0.058600
-0.013597 0.004391 0.058500
-0.013597 0.004541 0.058500
-0.013574 0.004682 0.058400
-0.013551 0.004822 0.058300
-0.013528 0.004962 0.058200
-0.013528 0.005111 0.058200
-0.013841 0.003671 0.058900
-0.013841 0.003821 0.058900
-0.013817 0.003964 0.058800
-0.013817 0.004114 0.058800
-0.013794 0.004257 0.058700
-0.013770 0.004399 0.058600
-0.013770 0.004548 0.058600
-0.013723 0.004682 0.058400
-0.013723 0.004831 0.058400
-0.013991 0.003521 0.058900
-0.013991 0.003671 0.058900
-0.013991 0.003821 0.058900
-0.013968 0.003964 0.058800
-0.013968 0.004114 0.058800
-0.013968 0.004264 0.058800
-0.013944 0.004406 0.058700
-0.013920 0.004548 0.058600
-0.013896 0.004690 0.058500
-0.013896 0.004839 0.058500
-0.014142 0.003521 0.058900
-0.014142 0.003671 0.058900
-0.014142 0.003821 0.058900
-0.014142 0.003971 0.058900
-0.014118 0.004114 0.058800
-0.014118 0.004264 0.058800
-0.014118 0.004414 0.058800
-0.014094 0.004556 0.058700
-0.014094 0.004706 0.058700
-0.013998 0.005120 0.058300
-0.013998 0.005268 0.058300
-0.014292 0.003671 0.058900
-0.014292 0.003821 0.058900
-0.014292 0.003971 0.058900
-0.014292 0.004121 0.058900
-0.014268 0.004264 0.058800
-0.014268 0.004414 0.058800
-0.014244 0.004556 0.058700
-0.014220 0.004698 0.058600
-0.014195 0.004839 0.058500
-0.014195 0.004988 0.058500
-0.014147 0.005120 0.058300
-0.014147 0.005268 0.058300
-0.014443 0.003671 0.058900
-0.014443 0.003821 0.058900
-0.014443 0.003971 0.058900
-0.014443 0.004121 0.058900
-0.014418 0.004264 0.058800
-0.014418 0.004414 0.058800
-0.014394 0.004556 0.058700
-0.014369 0.004698 0.058600
-0.014345 0.004839 0.058500
-0.014296 0.004971 0.058300
-0.014271 0.005111 0.058200
-0.014247 0.005250 0.058100
-0.014198 0.005380 0.057900
-0.014149 0.005508 0.057700
-0.014149 0.005655 0.057700
-0.014593 0.003671 0.058900
-0.014593 0.003821 0.058900
-0.014593 0.003971 0.058900
-0.014569 0.004114 0.058800
-0.014569 0.004264 0.058800
-0.014569 0.004414 0.058800
-0.014544 0.004556 0.058700
-0.014519 0.004698 0.058600
-0.014469 0.004831 0.058400
-0.014445 0.004971 0.058300
-0.014420 0.005111 0.058200
-0.014370 0.005241 0.058000
-0.014346 0.005380 0.057900
-0.014296 0.005508 0.057700
-0.014296 0.005655 0.057700
-0.014744 0.003671 0.058900
-0.014719 0.003814 0.058800
-0.014719 0.003964 0.058800
-0.014719 0.004114 0.058800
-0.014719 0.004264 0.058800
-0.014694 0.004406 0.058700
-0.014669 0.004548 0.058600
-0.014644 0.004690 0.058500
-0.014619 0.004831 0.058400
-0.014569 0.004962 0.058200
-0.014544 0.005102 0.058100
-0.014519 0.005241 0.058000
-0.014494 0.005380 0.057900
-0.014469 0.005518 0.057800
-0.014469 0.005665 0.057800
-0.014894 0.003671 0.058900
-0.014869 0.003814 0.058800
-0.014869 0.003964 0.058800
-0.014869 0.004114 0.058800
-0.014869 0.004264 0.058800
-0.014844 0.004406 0.058700
-0.014819 0.004548 0.058600
-0.014793 0.004690 0.058500
-0.014768 0.004831 0.058400
-0.014717 0.004962 0.058200
-0.014692 0.005102 0.058100
-0.014667 0.005241 0.058000
-0.014641 0.005380 0.057900
-0.014616 0.005518 0.057800
-0.014566 0.005645 0.057600
-0.014566 0.005792 0.057600
-0.015019 0.003814 0.058800
-0.015019 0.003964 0.058800
-0.015019 0.004114 0.058800
-0.015019 0.004264 0.058800
-0.014994 0.004406 0.058700
-0.014968 0.004548 0.058600
-0.014943 0.004690 0.058500
-0.014943 0.004839 0.058500
-0.014866 0.004962 0.058200
-0.014841 0.005102 0.058100
-0.014815 0.005241 0.058000
-0.014789 0.005380 0.057900
-0.014764 0.005518 0.057800
-0.014713 0.005645 0.057600
-0.014687 0.005782 0.057500
-0.014687 0.005929 0.057500
-0.015170 0.004264 0.058800
-0.015144 0.004406 0.058700
-0.015118 0.004548 0.058600
-0.015092 0.004690 0.058500
-0.015092 0.004839 0.058500
-0.015015 0.004962 0.058200
-0.014989 0.005102 0.058100
-0.014963 0.005241 0.058000
-0.014912 0.005370 0.057800
-0.014886 0.005508 0.057700
-0.014886 0.005655 0.057700
-0.014834 0.005782 0.057500
-0.014834 0.005929 0.057500
-0.015163 0.004962 0.058200
-0.015137 0.005102 0.058100
-0.015111 0.005241 0.058000
-0.015059 0.005370 0.057800
-0.015033 0.005508 0.057700
-0.015033 0.005655 0.057700
-0.015391 0.004690 0.058500
-0.015365 0.004831 0.058400
-0.015312 0.004962 0.058200
-0.015286 0.005102 0.058100
-0.015260 0.005241 0.058000
-0.015233 0.005380 0.057900
-0.015181 0.005508 0.057700
-0.015181 0.005655 0.057700
-0.015541 0.004690 0.058500
-0.015514 0.004831 0.058400
-0.015514 0.004979 0.058400
