ply
format ascii 1.0
element vertex 104
property float x
property float y
property float z
end_header
0.147007 -0.318096 0.486254
0.146631 -0.317131 0.485913
0.146308 -0.315866 0.485315
0.145918 -0.315004 0.485061
0.145546 -0.314044 0.484720
0.145229 -0.312786 0.484122
0.144788 -0.312227 0.484125
0.146574 -0.317828 0.485504
0.146200 -0.316863 0.485164
0.145880 -0.315599 0.484566
0.145562 -0.314337 0.483968
0.145121 -0.313778 0.483971
0.144680 -0.313218 0.483975
0.144238 -0.312659 0.483978
0.143797 -0.312099 0.483981
0.146465 -0.318826 0.485352
0.146091 -0.317859 0.485012
0.145771 -0.316593 0.484415
0.145329 -0.316032 0.484418
0.145013 -0.314769 0.483820
0.144571 -0.314210 0.483824
0.146800 -0.320387 0.485197
0.146357 -0.319824 0.485200
0.145913 -0.319261 0.485204
0.145539 -0.318294 0.484864
0.145221 -0.317026 0.484267
0.144779 -0.316465 0.484270
0.146248 -0.320822 0.485049
0.145804 -0.320258 0.485052
0.146087 -0.322126 0.485154
0.145642 -0.321562 0.485157
0.145908 -0.323535 0.485345
0.145533 -0.322561 0.485005
0.145089 -0.321997 0.485009
0.145869 -0.324124 0.484850
0.145354 -0.323971 0.485196
0.144980 -0.322997 0.484857
0.144536 -0.322433 0.484860
0.144091 -0.321869 0.484864
0.145760 -0.325123 0.484698
0.145316 -0.324559 0.484702
0.144800 -0.324407 0.485047
0.144355 -0.323842 0.485050
0.143982 -0.322868 0.484712
0.143538 -0.322304 0.484715
0.145704 -0.325812 0.484290
0.145260 -0.325249 0.484294
0.144816 -0.324685 0.484297
0.144318 -0.324431 0.484557
0.143873 -0.323867 0.484560
0.143429 -0.323303 0.484563
0.142985 -0.322740 0.484567
0.145666 -0.326394 0.483797
0.145222 -0.325832 0.483800
0.144779 -0.325270 0.483804
0.144263 -0.325120 0.484149
0.143764 -0.324866 0.484408
0.143320 -0.324303 0.484411
0.142876 -0.323739 0.484415
0.142431 -0.323175 0.484418
0.145557 -0.327391 0.483645
0.145114 -0.326829 0.483649
0.144670 -0.326266 0.483652
0.144227 -0.325704 0.483655
0.143711 -0.325555 0.484000
0.143267 -0.324992 0.484003
0.142767 -0.324738 0.484263
0.142322 -0.324174 0.484266
0.141878 -0.323610 0.484269
0.145378 -0.328806 0.483835
0.145005 -0.327825 0.483497
0.144616 -0.326950 0.483245
0.144173 -0.326389 0.483248
0.143675 -0.326138 0.483507
0.143158 -0.325990 0.483852
0.142714 -0.325427 0.483855
0.142213 -0.325173 0.484114
0.141769 -0.324609 0.484118
0.145145 -0.330538 0.484280
0.144825 -0.329241 0.483687
0.144453 -0.328259 0.483349
0.144064 -0.327384 0.483097
0.143622 -0.326822 0.483100
0.143123 -0.326572 0.483359
0.142605 -0.326425 0.483703
0.142105 -0.326172 0.483962
0.141660 -0.325609 0.483966
0.141216 -0.325045 0.483969
0.144591 -0.334170 0.486257
0.144272 -0.329675 0.483538
0.143901 -0.328694 0.483201
0.143513 -0.327818 0.482949
0.143070 -0.327256 0.482952
0.142571 -0.327007 0.483211
0.142128 -0.326444 0.483214
0.141551 -0.326608 0.483814
0.141107 -0.326044 0.483817
0.144089 -0.337503 0.487977
0.143719 -0.330110 0.483390
0.143275 -0.329547 0.483393
0.142962 -0.328252 0.482801
0.142519 -0.327690 0.482804
0.142019 -0.327441 0.483063
0.141576 -0.326879 0.483066
