ply
format ascii 1.0
element vertex 2223
property float x
property float y
property float z
end_header
-0.115469 -0.104571 -0.253199
-0.115486 -0.104734 -0.253296
-0.115503 -0.104898 -0.253392
-0.115520 -0.105062 -0.253488
-0.115537 -0.105225 -0.253585
-0.115554 -0.105389 -0.253681
-0.115478 -0.105613 -0.253785
-0.115495 -0.105777 -0.253882
-0.115403 -0.104485 -0.253357
-0.115420 -0.104649 -0.253453
-0.115437 -0.104812 -0.253550
-0.115454 -0.104976 -0.253646
-0.115471 -0.105140 -0.253742
-0.115488 -0.105303 -0.253839
-0.115412 -0.105527 -0.253943
-0.115429 -0.105691 -0.254039
-0.115337 -0.104399 -0.253515
-0.115355 -0.104563 -0.253611
-0.115372 -0.104726 -0.253707
-0.115389 -0.104890 -0.253804
-0.115312 -0.105114 -0.253908
-0.115329 -0.105277 -0.254004
-0.115347 -0.105441 -0.254101
-0.115364 -0.105605 -0.254197
-0.115288 -0.105830 -0.254302
-0.115272 -0.104313 -0.253672
-0.115289 -0.104477 -0.253769
-0.115306 -0.104640 -0.253865
-0.115230 -0.104864 -0.253969
-0.115247 -0.105027 -0.254066
-0.115264 -0.105191 -0.254162
-0.115281 -0.105355 -0.254259
-0.115298 -0.105519 -0.254355
-0.115222 -0.105744 -0.254460
-0.115130 -0.104450 -0.253934
-0.115147 -0.104614 -0.254031
-0.115164 -0.104778 -0.254127
-0.115181 -0.104941 -0.254224
-0.115105 -0.105165 -0.254328
-0.115122 -0.105329 -0.254425
-0.115139 -0.105493 -0.254521
-0.115156 -0.105658 -0.254618
-0.115064 -0.104364 -0.254092
-0.115081 -0.104528 -0.254188
-0.115005 -0.104751 -0.254293
-0.115022 -0.104915 -0.254390
-0.115039 -0.105079 -0.254486
-0.115056 -0.105243 -0.254583
-0.115073 -0.105407 -0.254680
-0.114997 -0.105632 -0.254785
-0.114921 -0.105857 -0.254891
-0.114999 -0.104278 -0.254250
-0.114922 -0.104501 -0.254355
-0.114939 -0.104665 -0.254451
-0.114956 -0.104829 -0.254548
-0.114973 -0.104993 -0.254644
-0.114990 -0.105157 -0.254741
-0.114914 -0.105381 -0.254847
-0.114931 -0.105546 -0.254943
-0.114855 -0.105770 -0.255049
-0.114916 -0.104028 -0.254311
-0.114933 -0.104192 -0.254408
-0.114856 -0.104414 -0.254513
-0.114873 -0.104578 -0.254609
-0.114891 -0.104743 -0.254706
-0.114908 -0.104907 -0.254802
-0.114831 -0.105131 -0.254908
-0.114848 -0.105295 -0.255005
-0.114865 -0.105459 -0.255102
-0.114789 -0.105684 -0.255208
-0.114850 -0.103942 -0.254469
-0.114867 -0.104106 -0.254566
-0.114791 -0.104328 -0.254671
-0.114808 -0.104492 -0.254767
-0.114825 -0.104656 -0.254864
-0.114842 -0.104821 -0.254961
-0.114765 -0.105044 -0.255066
-0.114782 -0.105209 -0.255163
-0.114706 -0.105433 -0.255269
-0.114723 -0.105598 -0.255366
-0.114646 -0.105823 -0.255473
-0.114785 -0.103856 -0.254627
-0.114802 -0.104019 -0.254723
-0.114725 -0.104242 -0.254829
-0.114742 -0.104406 -0.254925
-0.114665 -0.104629 -0.255031
-0.114682 -0.104794 -0.255128
-0.114699 -0.104958 -0.255225
-0.114717 -0.105122 -0.255321
-0.114640 -0.105347 -0.255428
-0.114657 -0.105511 -0.255525
-0.114580 -0.105736 -0.255632
-0.114719 -0.103770 -0.254785
-0.114736 -0.103933 -0.254881
-0.114753 -0.104097 -0.254978
-0.114676 -0.104320 -0.255084
-0.114693 -0.104484 -0.255180
-0.114710 -0.104648 -0.255277
-0.114634 -0.104872 -0.255383
-0.114651 -0.105036 -0.255480
-0.114574 -0.105260 -0.255586
-0.114591 -0.105425 -0.255683
-0.114608 -0.105589 -0.255780
-0.114653 -0.103683 -0.254943
-0.114670 -0.103847 -0.255039
-0.114688 -0.104011 -0.255136
-0.114611 -0.104234 -0.255242
-0.114628 -0.104398 -0.255338
-0.114645 -0.104562 -0.255435
-0.114568 -0.104785 -0.255541
-0.114585 -0.104950 -0.255638
-0.114602 -0.105114 -0.255735
-0.114525 -0.105338 -0.255842
-0.114542 -0.105503 -0.255939
-0.114682 -0.103540 -0.255091
-0.114699 -0.103703 -0.255187
-0.114622 -0.103925 -0.255293
-0.114639 -0.104089 -0.255390
-0.114562 -0.104312 -0.255496
-0.114579 -0.104476 -0.255593
-0.114596 -0.104640 -0.255689
-0.114519 -0.104864 -0.255796
-0.114536 -0.105028 -0.255893
-0.114553 -0.105192 -0.255990
-0.114570 -0.105357 -0.256086
-0.114494 -0.105581 -0.256194
-0.114616 -0.103454 -0.255249
-0.114633 -0.103617 -0.255345
-0.114651 -0.103781 -0.255441
-0.114668 -0.103945 -0.255538
-0.114590 -0.104167 -0.255644
-0.114607 -0.104331 -0.255741
-0.114530 -0.104554 -0.255847
-0.114547 -0.104718 -0.255944
-0.114565 -0.104882 -0.256041
-0.114488 -0.105106 -0.256148
-0.114505 -0.105270 -0.256245
-0.114428 -0.105495 -0.256352
-0.114645 -0.103310 -0.255397
-0.114662 -0.103474 -0.255493
-0.114585 -0.103695 -0.255599
-0.114602 -0.103859 -0.255695
-0.114619 -0.104022 -0.255792
-0.114636 -0.104186 -0.255888
-0.114559 -0.104409 -0.255995
-0.114576 -0.104573 -0.256091
-0.114593 -0.104737 -0.256188
-0.114516 -0.104960 -0.256295
-0.114533 -0.105124 -0.256392
-0.114456 -0.105348 -0.256500
-0.114674 -0.103167 -0.255544
-0.114691 -0.103330 -0.255640
-0.114708 -0.103493 -0.255736
-0.114725 -0.103656 -0.255832
-0.114648 -0.103878 -0.255939
-0.114571 -0.104100 -0.256046
-0.114588 -0.104264 -0.256142
-0.114605 -0.104428 -0.256238
-0.114527 -0.104650 -0.256346
-0.114544 -0.104814 -0.256442
-0.114467 -0.105038 -0.256550
-0.114390 -0.105262 -0.256658
-0.114609 -0.103081 -0.255701
-0.114626 -0.103244 -0.255797
-0.114643 -0.103407 -0.255893
-0.114660 -0.103571 -0.255989
-0.114677 -0.103734 -0.256085
-0.114599 -0.103956 -0.256192
-0.114616 -0.104119 -0.256288
-0.114633 -0.104283 -0.256385
-0.114556 -0.104505 -0.256492
-0.114573 -0.104669 -0.256588
-0.114496 -0.104892 -0.256696
-0.114419 -0.105116 -0.256804
-0.114767 -0.103206 -0.256029
-0.114784 -0.103369 -0.256125
-0.114706 -0.103590 -0.256232
-0.114723 -0.103753 -0.256328
-0.114646 -0.103975 -0.256435
-0.114568 -0.104197 -0.256542
-0.114585 -0.104360 -0.256638
-0.114508 -0.104583 -0.256746
-0.114525 -0.104747 -0.256842
-0.114353 -0.105030 -0.256962
-0.114891 -0.103006 -0.256164
-0.114908 -0.103168 -0.256260
-0.114830 -0.103388 -0.256366
-0.114752 -0.103609 -0.256473
-0.114675 -0.103831 -0.256580
-0.114597 -0.104052 -0.256688
-0.114614 -0.104216 -0.256784
-0.114537 -0.104438 -0.256892
-0.114459 -0.104661 -0.257000
-0.122048 -0.097765 -0.255035
-0.115015 -0.102805 -0.256298
-0.115032 -0.102967 -0.256393
-0.114954 -0.103187 -0.256500
-0.114782 -0.103466 -0.256618
-0.114704 -0.103687 -0.256726
-0.114626 -0.103908 -0.256833
-0.114549 -0.104130 -0.256941
-0.114471 -0.104352 -0.257049
-0.114394 -0.104575 -0.257158
-0.121895 -0.097745 -0.255186
-0.115045 -0.102663 -0.256443
-0.115062 -0.102825 -0.256538
-0.114984 -0.103044 -0.256645
-0.114906 -0.103264 -0.256752
-0.114734 -0.103543 -0.256871
-0.114656 -0.103764 -0.256978
-0.114578 -0.103985 -0.257086
-0.114406 -0.104266 -0.257207
-0.114328 -0.104489 -0.257315
-0.121916 -0.097467 -0.255230
-0.121837 -0.097668 -0.255326
-0.115137 -0.102141 -0.256386
-0.115154 -0.102302 -0.256480
-0.115171 -0.102464 -0.256575
-0.115187 -0.102625 -0.256670
-0.115109 -0.102844 -0.256777
-0.114936 -0.103121 -0.256896
-0.114763 -0.103399 -0.257015
-0.114686 -0.103620 -0.257123
-0.114513 -0.103900 -0.257243
-0.114435 -0.104122 -0.257352
-0.114262 -0.104403 -0.257473
-0.114090 -0.104685 -0.257595
-0.121858 -0.097390 -0.255370
-0.121778 -0.097592 -0.255467
-0.115246 -0.101782 -0.256423
-0.115263 -0.101943 -0.256518
-0.115279 -0.102104 -0.256612
-0.115296 -0.102265 -0.256707
-0.115123 -0.102540 -0.256826
-0.115140 -0.102701 -0.256920
-0.114966 -0.102978 -0.257040
-0.114793 -0.103256 -0.257159
-0.114620 -0.103535 -0.257280
-0.114542 -0.103756 -0.257388
-0.114370 -0.104036 -0.257509
-0.114197 -0.104317 -0.257631
-0.114024 -0.104599 -0.257753
-0.121880 -0.097113 -0.255413
-0.121800 -0.097314 -0.255510
-0.121720 -0.097515 -0.255607
-0.115277 -0.101641 -0.256566
-0.115293 -0.101802 -0.256661
-0.115215 -0.102019 -0.256767
-0.115232 -0.102180 -0.256862
-0.115153 -0.102398 -0.256969
-0.115170 -0.102559 -0.257064
-0.114997 -0.102836 -0.257183
-0.114823 -0.103113 -0.257303
-0.114650 -0.103391 -0.257424
-0.114477 -0.103670 -0.257545
-0.114304 -0.103950 -0.257666
-0.114131 -0.104231 -0.257788
-0.113864 -0.104572 -0.257924
-0.113691 -0.104855 -0.258047
-0.113518 -0.105138 -0.258171
-0.121726 -0.097092 -0.255565
-0.121646 -0.097293 -0.255662
-0.121661 -0.097439 -0.255747
-0.115308 -0.101501 -0.256709
-0.115324 -0.101661 -0.256804
-0.115246 -0.101878 -0.256910
-0.115263 -0.102039 -0.257005
-0.115184 -0.102256 -0.257112
-0.115106 -0.102475 -0.257219
-0.114932 -0.102751 -0.257339
-0.114759 -0.103028 -0.257459
-0.114585 -0.103306 -0.257580
-0.114412 -0.103585 -0.257701
-0.114144 -0.103923 -0.257836
-0.113971 -0.104204 -0.257959
-0.113798 -0.104486 -0.258082
-0.113625 -0.104768 -0.258206
-0.113452 -0.105052 -0.258330
-0.121653 -0.096870 -0.255619
-0.121573 -0.097071 -0.255716
-0.115243 -0.101416 -0.256864
-0.115260 -0.101577 -0.256958
-0.115277 -0.101737 -0.257053
-0.115293 -0.101898 -0.257147
-0.115215 -0.102115 -0.257254
-0.115136 -0.102333 -0.257361
-0.114963 -0.102609 -0.257481
-0.114694 -0.102943 -0.257615
-0.114520 -0.103221 -0.257736
-0.114252 -0.103557 -0.257871
-0.114078 -0.103837 -0.257994
-0.113810 -0.104176 -0.258130
-0.113637 -0.104458 -0.258254
-0.113464 -0.104741 -0.258378
-0.113386 -0.104965 -0.258489
-0.113308 -0.105189 -0.258600
-0.121404 -0.096904 -0.255782
-0.121419 -0.097050 -0.255868
-0.115258 -0.101116 -0.256912
-0.115275 -0.101276 -0.257006
-0.115291 -0.101436 -0.257100
-0.115308 -0.101596 -0.257195
-0.115229 -0.101813 -0.257301
-0.115246 -0.101974 -0.257396
-0.115072 -0.102248 -0.257516
-0.114898 -0.102524 -0.257637
-0.114629 -0.102858 -0.257771
-0.114455 -0.103135 -0.257893
-0.114186 -0.103472 -0.258028
-0.113918 -0.103810 -0.258165
-0.113649 -0.104149 -0.258302
-0.113476 -0.104430 -0.258426
-0.113398 -0.104654 -0.258537
-0.113225 -0.104937 -0.258662
-0.113242 -0.105103 -0.258760
-0.121250 -0.096882 -0.255935
-0.120978 -0.097193 -0.256056
-0.120897 -0.097395 -0.256155
-0.115194 -0.101032 -0.257066
-0.115402 -0.101080 -0.257135
-0.115418 -0.101240 -0.257229
-0.115339 -0.101456 -0.257336
-0.115356 -0.101616 -0.257430
-0.115277 -0.101833 -0.257537
-0.115198 -0.102050 -0.257645
-0.114929 -0.102382 -0.257779
-0.114659 -0.102715 -0.257913
-0.114390 -0.103050 -0.258049
-0.114121 -0.103386 -0.258185
-0.113757 -0.103782 -0.258336
-0.113488 -0.104121 -0.258474
-0.113410 -0.104344 -0.258585
-0.113141 -0.104685 -0.258724
-0.113158 -0.104850 -0.258822
-0.113080 -0.105075 -0.258933
-0.120904 -0.096969 -0.256111
-0.120919 -0.097116 -0.256198
-0.120839 -0.097318 -0.256296
-0.120471 -0.097687 -0.256433
-0.115433 -0.100940 -0.257277
-0.115450 -0.101100 -0.257371
-0.115466 -0.101260 -0.257464
-0.115483 -0.101419 -0.257558
-0.115404 -0.101635 -0.257665
-0.115230 -0.101909 -0.257786
-0.114864 -0.102298 -0.257934
-0.114595 -0.102631 -0.258069
-0.114230 -0.103023 -0.258219
-0.113960 -0.103358 -0.258356
-0.113691 -0.103696 -0.258494
-0.113327 -0.104093 -0.258647
-0.113248 -0.104316 -0.258758
-0.113075 -0.104598 -0.258884
-0.113092 -0.104763 -0.258981
-0.113014 -0.104988 -0.259093
-0.120845 -0.096892 -0.256253
-0.120764 -0.097094 -0.256352
-0.120588 -0.097351 -0.256463
-0.120412 -0.097609 -0.256575
-0.115561 -0.100745 -0.257405
-0.115577 -0.100904 -0.257498
-0.115594 -0.101064 -0.257592
-0.115515 -0.101279 -0.257699
-0.115436 -0.101495 -0.257806
-0.115261 -0.101768 -0.257927
-0.114895 -0.102156 -0.258075
-0.113878 -0.103110 -0.258417
-0.113895 -0.103273 -0.258513
-0.113530 -0.103668 -0.258666
-0.113261 -0.104006 -0.258805
-0.113087 -0.104287 -0.258931
-0.113009 -0.104511 -0.259043
-0.113026 -0.104677 -0.259140
-0.112948 -0.104901 -0.259252
-0.120786 -0.096815 -0.256394
-0.120610 -0.097071 -0.256506
-0.120433 -0.097328 -0.256618
-0.120257 -0.097586 -0.256730
-0.115497 -0.100662 -0.257558
-0.115705 -0.100709 -0.257625
-0.115722 -0.100868 -0.257718
-0.115643 -0.101083 -0.257825
-0.115659 -0.101242 -0.257919
-0.115389 -0.101571 -0.258053
-0.115022 -0.101958 -0.258202
-0.113908 -0.102967 -0.258560
-0.113925 -0.103130 -0.258656
-0.113560 -0.103524 -0.258810
-0.113099 -0.103977 -0.258979
-0.113021 -0.104201 -0.259090
-0.112942 -0.104424 -0.259202
-0.112864 -0.104648 -0.259314
-0.112881 -0.104814 -0.259412
-0.120727 -0.096738 -0.256536
-0.120551 -0.096994 -0.256648
-0.120374 -0.097251 -0.256760
-0.120102 -0.097564 -0.256886
-0.115817 -0.100356 -0.257658
-0.115833 -0.100515 -0.257751
-0.115754 -0.100729 -0.257858
-0.115675 -0.100943 -0.257965
-0.115691 -0.101102 -0.258058
-0.115325 -0.101487 -0.258207
-0.114958 -0.101874 -0.258357
-0.114305 -0.102433 -0.258551
-0.114322 -0.102595 -0.258646
-0.113956 -0.102987 -0.258799
-0.113590 -0.103380 -0.258953
-0.113129 -0.103833 -0.259123
-0.113146 -0.103998 -0.259220
-0.112876 -0.104337 -0.259362
-0.112893 -0.104503 -0.259459
-0.112815 -0.104727 -0.259571
-0.120845 -0.096406 -0.256565
-0.120476 -0.096769 -0.256703
-0.120492 -0.096917 -0.256789
-0.120315 -0.097173 -0.256902
-0.115850 -0.100218 -0.257797
-0.115866 -0.100376 -0.257890
-0.115787 -0.100590 -0.257996
-0.115707 -0.100804 -0.258103
-0.115628 -0.101019 -0.258211
-0.115357 -0.101347 -0.258346
-0.114990 -0.101733 -0.258497
-0.114240 -0.102348 -0.258707
-0.114257 -0.102510 -0.258802
-0.114082 -0.102786 -0.258926
-0.113716 -0.103179 -0.259081
-0.113254 -0.103631 -0.259252
-0.113080 -0.103911 -0.259378
-0.113001 -0.104134 -0.259490
-0.112923 -0.104358 -0.259603
-0.112749 -0.104640 -0.259731
-0.120979 -0.096221 -0.256680
-0.120417 -0.096692 -0.256845
-0.120433 -0.096839 -0.256931
-0.120160 -0.097150 -0.257058
-0.115882 -0.100080 -0.257935
-0.115899 -0.100238 -0.258028
-0.115723 -0.100507 -0.258149
-0.115740 -0.100665 -0.258242
-0.115660 -0.100879 -0.258349
-0.115389 -0.101207 -0.258485
-0.115022 -0.101592 -0.258637
-0.114000 -0.102539 -0.258987
-0.114017 -0.102701 -0.259083
-0.113746 -0.103036 -0.259223
-0.113380 -0.103429 -0.259380
-0.113014 -0.103825 -0.259537
-0.112935 -0.104048 -0.259649
-0.112857 -0.104271 -0.259762
-0.112682 -0.104553 -0.259890
-0.121113 -0.096037 -0.256795
-0.120358 -0.096615 -0.256986
-0.120374 -0.096762 -0.257073
-0.116941 -0.099025 -0.257738
-0.116957 -0.099180 -0.257829
-0.115915 -0.099942 -0.258073
-0.115836 -0.100155 -0.258180
-0.115756 -0.100368 -0.258287
-0.115676 -0.100582 -0.258394
-0.115597 -0.100796 -0.258502
-0.115325 -0.101123 -0.258639
-0.115054 -0.101452 -0.258776
-0.114782 -0.101781 -0.258915
-0.114511 -0.102112 -0.259054
-0.114240 -0.102445 -0.259194
-0.113969 -0.102778 -0.259335
-0.113314 -0.103343 -0.259537
-0.121248 -0.095853 -0.256908
-0.116879 -0.098944 -0.257887
-0.116895 -0.099099 -0.257978
-0.115852 -0.099859 -0.258225
-0.115772 -0.100072 -0.258332
-0.115693 -0.100285 -0.258439
-0.115613 -0.100499 -0.258547
-0.115533 -0.100713 -0.258654
-0.115357 -0.100984 -0.258777
-0.115086 -0.101311 -0.258915
-0.114814 -0.101641 -0.259054
-0.114639 -0.101914 -0.259179
-0.114367 -0.102246 -0.259319
-0.114096 -0.102579 -0.259460
-0.113825 -0.102913 -0.259602
-0.121190 -0.095777 -0.257048
-0.115773 -0.099619 -0.258284
-0.115789 -0.099776 -0.258377
-0.115709 -0.099989 -0.258484
-0.115629 -0.100202 -0.258591
-0.115550 -0.100416 -0.258699
-0.115470 -0.100630 -0.258807
-0.115294 -0.100900 -0.258930
-0.115022 -0.101228 -0.259069
-0.114846 -0.101500 -0.259193
-0.114670 -0.101773 -0.259318
-0.114495 -0.102047 -0.259443
-0.114319 -0.102322 -0.259569
-0.113760 -0.102827 -0.259759
-0.121421 -0.095540 -0.257146
-0.121436 -0.095685 -0.257231
-0.115597 -0.099433 -0.258357
-0.115613 -0.099591 -0.258450
-0.115630 -0.099749 -0.258543
-0.115646 -0.099906 -0.258636
-0.115470 -0.100174 -0.258758
-0.115486 -0.100333 -0.258851
-0.115406 -0.100547 -0.258960
-0.115134 -0.100873 -0.259098
-0.114958 -0.101144 -0.259223
-0.114878 -0.101360 -0.259332
-0.114702 -0.101633 -0.259457
-0.114623 -0.101849 -0.259567
-0.114447 -0.102124 -0.259693
-0.114368 -0.102342 -0.259804
-0.121653 -0.095305 -0.257243
-0.121668 -0.095448 -0.257328
-0.115534 -0.099350 -0.258509
-0.115550 -0.099508 -0.258602
-0.115566 -0.099666 -0.258695
-0.115486 -0.099878 -0.258803
-0.115406 -0.100091 -0.258911
-0.115326 -0.100305 -0.259019
-0.115246 -0.100519 -0.259127
-0.115070 -0.100789 -0.259252
-0.114894 -0.101060 -0.259376
-0.114814 -0.101276 -0.259486
-0.114735 -0.101492 -0.259595
-0.114655 -0.101709 -0.259706
-0.114479 -0.101982 -0.259832
-0.114400 -0.102200 -0.259943
-0.121693 -0.095176 -0.257368
-0.121708 -0.095319 -0.257452
-0.115470 -0.099267 -0.258661
-0.115487 -0.099425 -0.258754
-0.115407 -0.099637 -0.258862
-0.115423 -0.099795 -0.258955
-0.115343 -0.100008 -0.259063
-0.115263 -0.100222 -0.259171
-0.115183 -0.100436 -0.259280
-0.115006 -0.100706 -0.259405
-0.114830 -0.100976 -0.259530
-0.114750 -0.101192 -0.259640
-0.114671 -0.101408 -0.259750
-0.114591 -0.101624 -0.259860
-0.114415 -0.101898 -0.259987
-0.114335 -0.102116 -0.260097
-0.121732 -0.095047 -0.257492
-0.121650 -0.095244 -0.257590
-0.115214 -0.099292 -0.258843
-0.115230 -0.099451 -0.258936
-0.115247 -0.099609 -0.259029
-0.115167 -0.099822 -0.259138
-0.115183 -0.099980 -0.259231
-0.115103 -0.100194 -0.259340
-0.115023 -0.100408 -0.259449
-0.114943 -0.100622 -0.259558
-0.114766 -0.100893 -0.259683
-0.114686 -0.101108 -0.259793
-0.114510 -0.101380 -0.259920
-0.114430 -0.101597 -0.260030
-0.114350 -0.101814 -0.260141
-0.114174 -0.102088 -0.260269
-0.121675 -0.094972 -0.257630
-0.121690 -0.095115 -0.257714
-0.115134 -0.099051 -0.258902
-0.115150 -0.099209 -0.258995
-0.115167 -0.099368 -0.259088
-0.115183 -0.099526 -0.259182
-0.115103 -0.099739 -0.259290
-0.115120 -0.099897 -0.259383
-0.115039 -0.100110 -0.259492
-0.114959 -0.100324 -0.259602
-0.114782 -0.100594 -0.259727
-0.114702 -0.100809 -0.259837
-0.114526 -0.101080 -0.259964
-0.114349 -0.101352 -0.260090
-0.114269 -0.101569 -0.260201
-0.114093 -0.101843 -0.260329
-0.114110 -0.102004 -0.260424
-0.121617 -0.094897 -0.257768
-0.121632 -0.095040 -0.257852
-0.115071 -0.098968 -0.259055
-0.115087 -0.099126 -0.259148
-0.115103 -0.099285 -0.259241
-0.115120 -0.099443 -0.259334
-0.115040 -0.099655 -0.259443
-0.114959 -0.099868 -0.259552
-0.114976 -0.100027 -0.259645
-0.114896 -0.100241 -0.259755
-0.114719 -0.100510 -0.259881
-0.114638 -0.100725 -0.259991
-0.114462 -0.100996 -0.260118
-0.114285 -0.101268 -0.260245
-0.114205 -0.101485 -0.260356
-0.114028 -0.101758 -0.260484
-0.113949 -0.101976 -0.260596
-0.121560 -0.094822 -0.257906
-0.121575 -0.094965 -0.257990
-0.115007 -0.098885 -0.259207
-0.115024 -0.099043 -0.259300
-0.115040 -0.099201 -0.259393
-0.115057 -0.099360 -0.259486
-0.114976 -0.099572 -0.259595
-0.114896 -0.099785 -0.259705
-0.114912 -0.099944 -0.259798
-0.114832 -0.100157 -0.259908
-0.114655 -0.100427 -0.260034
-0.114478 -0.100697 -0.260161
-0.114301 -0.100968 -0.260288
-0.114221 -0.101184 -0.260399
-0.114044 -0.101456 -0.260528
-0.113867 -0.101730 -0.260657
-0.113691 -0.102004 -0.260786
-0.121487 -0.094603 -0.257959
-0.114944 -0.098802 -0.259359
-0.114960 -0.098960 -0.259452
-0.114977 -0.099118 -0.259546
-0.114896 -0.099331 -0.259655
-0.114913 -0.099489 -0.259748
-0.114832 -0.099702 -0.259857
-0.114849 -0.099861 -0.259951
-0.114671 -0.100129 -0.260077
-0.114591 -0.100343 -0.260187
-0.114414 -0.100613 -0.260315
-0.114237 -0.100884 -0.260443
-0.114060 -0.101155 -0.260571
-0.113883 -0.101428 -0.260700
-0.113706 -0.101701 -0.260829
-0.113626 -0.101919 -0.260942
-0.113449 -0.102194 -0.261072
-0.113369 -0.102413 -0.261185
-0.121527 -0.094475 -0.258082
-0.114880 -0.098719 -0.259512
-0.114897 -0.098877 -0.259605
-0.114913 -0.099035 -0.259698
-0.114833 -0.099247 -0.259807
-0.114849 -0.099406 -0.259900
-0.114769 -0.099619 -0.260010
-0.114688 -0.099832 -0.260120
-0.114608 -0.100045 -0.260230
-0.114430 -0.100314 -0.260358
-0.114253 -0.100584 -0.260486
-0.114076 -0.100855 -0.260614
-0.113898 -0.101127 -0.260743
-0.113721 -0.101399 -0.260872
-0.113544 -0.101672 -0.261002
-0.113464 -0.101890 -0.261115
-0.113384 -0.102109 -0.261228
-0.113304 -0.102328 -0.261341
-0.113128 -0.102604 -0.261473
-0.121470 -0.094400 -0.258220
-0.114817 -0.098636 -0.259664
-0.114834 -0.098794 -0.259757
-0.114753 -0.099006 -0.259867
-0.114769 -0.099164 -0.259960
-0.114689 -0.099377 -0.260070
-0.114705 -0.099535 -0.260163
-0.114625 -0.099748 -0.260273
-0.114447 -0.100016 -0.260401
-0.114366 -0.100231 -0.260511
-0.114092 -0.100555 -0.260657
-0.113914 -0.100826 -0.260786
-0.113737 -0.101098 -0.260915
-0.113560 -0.101370 -0.261045
-0.113383 -0.101643 -0.261176
-0.113302 -0.101862 -0.261289
-0.113222 -0.102080 -0.261402
-0.113142 -0.102299 -0.261516
-0.113062 -0.102518 -0.261630
-0.121413 -0.094325 -0.258358
-0.114754 -0.098553 -0.259816
-0.114770 -0.098711 -0.259910
-0.114689 -0.098923 -0.260019
-0.114706 -0.099081 -0.260112
-0.114625 -0.099293 -0.260222
-0.114544 -0.099506 -0.260333
-0.114561 -0.099665 -0.260426
-0.114383 -0.099933 -0.260554
-0.114205 -0.100202 -0.260682
-0.113930 -0.100526 -0.260828
-0.113753 -0.100797 -0.260958
-0.113575 -0.101068 -0.261088
-0.113398 -0.101341 -0.261218
-0.113221 -0.101614 -0.261350
-0.113140 -0.101832 -0.261463
-0.113060 -0.102051 -0.261577
-0.112883 -0.102327 -0.261709
-0.112803 -0.102546 -0.261823
-0.121438 -0.094055 -0.258395
-0.114626 -0.098839 -0.260172
-0.114642 -0.098998 -0.260265
-0.114562 -0.099210 -0.260375
-0.114383 -0.099477 -0.260503
-0.114400 -0.099636 -0.260596
-0.114222 -0.099904 -0.260725
-0.114044 -0.100172 -0.260854
-0.113769 -0.100497 -0.261001
-0.113591 -0.100767 -0.261131
-0.113414 -0.101039 -0.261261
-0.113236 -0.101312 -0.261392
-0.112961 -0.101641 -0.261542
-0.112978 -0.101803 -0.261638
-0.112801 -0.102078 -0.261770
-0.112721 -0.102297 -0.261885
-0.112641 -0.102517 -0.261999
-0.114562 -0.098756 -0.260324
-0.114676 -0.098861 -0.260400
-0.114693 -0.099020 -0.260494
-0.114709 -0.099178 -0.260587
-0.114336 -0.099552 -0.260750
-0.114061 -0.099874 -0.260896
-0.113883 -0.100143 -0.261025
-0.113607 -0.100467 -0.261173
-0.113429 -0.100738 -0.261304
-0.113252 -0.101009 -0.261435
-0.112977 -0.101337 -0.261585
-0.112799 -0.101611 -0.261717
-0.112719 -0.101829 -0.261831
-0.112638 -0.102048 -0.261946
-0.112655 -0.102212 -0.262042
-0.112478 -0.102488 -0.262176
-0.114613 -0.098778 -0.260553
-0.114630 -0.098936 -0.260646
-0.114646 -0.099095 -0.260739
-0.114273 -0.099469 -0.260903
-0.113899 -0.099844 -0.261068
-0.113624 -0.100167 -0.261215
-0.113445 -0.100437 -0.261346
-0.113267 -0.100708 -0.261477
-0.113089 -0.100980 -0.261609
-0.112814 -0.101307 -0.261759
-0.112636 -0.101581 -0.261892
-0.112556 -0.101799 -0.262007
-0.112476 -0.102019 -0.262122
-0.112396 -0.102238 -0.262237
-0.112413 -0.102402 -0.262333
-0.117482 -0.096138 -0.259628
-0.117498 -0.096290 -0.259717
-0.117514 -0.096441 -0.259807
-0.117530 -0.096593 -0.259896
-0.117448 -0.096797 -0.260002
-0.117366 -0.097001 -0.260109
-0.114192 -0.099226 -0.260962
-0.114209 -0.099385 -0.261056
-0.113738 -0.099814 -0.261240
-0.113462 -0.100137 -0.261388
-0.113283 -0.100407 -0.261519
-0.113105 -0.100678 -0.261651
-0.112927 -0.100949 -0.261783
-0.112749 -0.101222 -0.261916
-0.112571 -0.101495 -0.262049
-0.112393 -0.101769 -0.262183
-0.112313 -0.101989 -0.262298
-0.112233 -0.102208 -0.262414
-0.112250 -0.102372 -0.262510
-0.121052 -0.093234 -0.258626
-0.121067 -0.093377 -0.258710
-0.120983 -0.093571 -0.258811
-0.117406 -0.095907 -0.259685
-0.117422 -0.096059 -0.259774
-0.117437 -0.096210 -0.259863
-0.117453 -0.096362 -0.259952
-0.117469 -0.096513 -0.260042
-0.117387 -0.096717 -0.260148
-0.117305 -0.096922 -0.260255
-0.113559 -0.099624 -0.261318
-0.113576 -0.099784 -0.261412
-0.113300 -0.100107 -0.261561
-0.113121 -0.100377 -0.261693
-0.112943 -0.100648 -0.261825
-0.112862 -0.100864 -0.261939
-0.112586 -0.101192 -0.262091
-0.112408 -0.101465 -0.262225
-0.112230 -0.101739 -0.262360
-0.112150 -0.101958 -0.262475
-0.112070 -0.102178 -0.262591
-0.112087 -0.102342 -0.262688
-0.121063 -0.092823 -0.258579
-0.121078 -0.092966 -0.258663
-0.120896 -0.093209 -0.258780
-0.120911 -0.093352 -0.258864
-0.120926 -0.093496 -0.258949
-0.117330 -0.095677 -0.259742
-0.117345 -0.095828 -0.259831
-0.117361 -0.095979 -0.259920
-0.117377 -0.096131 -0.260009
-0.117295 -0.096334 -0.260116
-0.117310 -0.096486 -0.260205
-0.117228 -0.096690 -0.260312
-0.117146 -0.096895 -0.260419
-0.117064 -0.097100 -0.260526
-0.116982 -0.097305 -0.260634
-0.113397 -0.099593 -0.261490
-0.113414 -0.099754 -0.261585
-0.113137 -0.100077 -0.261735
-0.113056 -0.100292 -0.261849
-0.112878 -0.100563 -0.261981
-0.112700 -0.100834 -0.262115
-0.112521 -0.101106 -0.262248
-0.112343 -0.101379 -0.262382
-0.112165 -0.101653 -0.262517
-0.112084 -0.101872 -0.262633
-0.112004 -0.102092 -0.262749
-0.111923 -0.102312 -0.262865
-0.120991 -0.092605 -0.258632
-0.120907 -0.092797 -0.258733
-0.120922 -0.092941 -0.258817
-0.120839 -0.093134 -0.258918
-0.120756 -0.093328 -0.259019
-0.120672 -0.093522 -0.259120
-0.120687 -0.093666 -0.259205
-0.117269 -0.095597 -0.259888
-0.117285 -0.095748 -0.259977
-0.117300 -0.095900 -0.260066
-0.117316 -0.096051 -0.260155
-0.117234 -0.096255 -0.260262
-0.117250 -0.096406 -0.260351
-0.117168 -0.096610 -0.260458
-0.117183 -0.096762 -0.260547
-0.117101 -0.096967 -0.260655
-0.117019 -0.097172 -0.260763
-0.117035 -0.097324 -0.260852
-0.113235 -0.099562 -0.261664
-0.113252 -0.099723 -0.261758
-0.113073 -0.099992 -0.261890
-0.112992 -0.100207 -0.262004
-0.112813 -0.100478 -0.262137
-0.112732 -0.100694 -0.262252
-0.112456 -0.101021 -0.262405
-0.112278 -0.101293 -0.262540
-0.112099 -0.101567 -0.262675
-0.111921 -0.101842 -0.262810
-0.111840 -0.102062 -0.262927
-0.111760 -0.102282 -0.263043
-0.120835 -0.092579 -0.258786
-0.120752 -0.092772 -0.258887
-0.120766 -0.092915 -0.258972
-0.120683 -0.093109 -0.259073
-0.120600 -0.093303 -0.259174
-0.120615 -0.093446 -0.259259
-0.120630 -0.093590 -0.259343
-0.117224 -0.095669 -0.260123
-0.117240 -0.095820 -0.260212
-0.117157 -0.096023 -0.260318
-0.117075 -0.096227 -0.260426
-0.117091 -0.096379 -0.260515
-0.117107 -0.096531 -0.260604
-0.117123 -0.096682 -0.260694
-0.117040 -0.096887 -0.260801
-0.116958 -0.097092 -0.260909
-0.116974 -0.097244 -0.260999
-0.113170 -0.099478 -0.261819
-0.113187 -0.099639 -0.261913
-0.113008 -0.099907 -0.262046
-0.112927 -0.100123 -0.262160
-0.112748 -0.100393 -0.262293
-0.112667 -0.100609 -0.262408
-0.112391 -0.100935 -0.262562
-0.112114 -0.101263 -0.262716
-0.111936 -0.101536 -0.262852
-0.111855 -0.101756 -0.262969
-0.111677 -0.102031 -0.263105
-0.111596 -0.102251 -0.263222
-0.120679 -0.092553 -0.258941
-0.120694 -0.092697 -0.259025
-0.120611 -0.092890 -0.259126
-0.120527 -0.093083 -0.259228
-0.120542 -0.093227 -0.259313
-0.120459 -0.093421 -0.259414
-0.117148 -0.095438 -0.260179
-0.117163 -0.095589 -0.260268
-0.117179 -0.095741 -0.260358
-0.117097 -0.095944 -0.260465
-0.117014 -0.096147 -0.260572
-0.117030 -0.096299 -0.260661
-0.117046 -0.096451 -0.260751
-0.116964 -0.096655 -0.260858
-0.116979 -0.096807 -0.260948
-0.116897 -0.097012 -0.261056
-0.116913 -0.097164 -0.261146
-0.113106 -0.099394 -0.261973
-0.113123 -0.099554 -0.262068
-0.112944 -0.099823 -0.262201
-0.112765 -0.100092 -0.262335
-0.112585 -0.100362 -0.262469
-0.112504 -0.100578 -0.262584
-0.112228 -0.100904 -0.262738
-0.112049 -0.101177 -0.262874
-0.111772 -0.101505 -0.263030
-0.111594 -0.101780 -0.263167
-0.111513 -0.102000 -0.263284
-0.111530 -0.102165 -0.263381
-0.120622 -0.092478 -0.259079
-0.120538 -0.092671 -0.259180
-0.120455 -0.092864 -0.259282
-0.120371 -0.093058 -0.259384
-0.120386 -0.093202 -0.259468
-0.120303 -0.093396 -0.259571
-0.117185 -0.095308 -0.260307
-0.117201 -0.095459 -0.260396
-0.117118 -0.095661 -0.260503
-0.117036 -0.095864 -0.260611
-0.116953 -0.096067 -0.260718
-0.116969 -0.096219 -0.260807
-0.116985 -0.096371 -0.260897
-0.116903 -0.096575 -0.261005
-0.116919 -0.096727 -0.261094
-0.116836 -0.096932 -0.261203
-0.116852 -0.097084 -0.261292
-0.112845 -0.099415 -0.262167
-0.112862 -0.099577 -0.262262
-0.112781 -0.099791 -0.262376
-0.112602 -0.100061 -0.262510
-0.112423 -0.100331 -0.262644
-0.112243 -0.100601 -0.262780
-0.111771 -0.101036 -0.262975
-0.111788 -0.101200 -0.263071
-0.111609 -0.101474 -0.263208
-0.111430 -0.101749 -0.263346
-0.111349 -0.101969 -0.263463
-0.120466 -0.092452 -0.259234
-0.120382 -0.092645 -0.259336
-0.120299 -0.092838 -0.259438
-0.120215 -0.093032 -0.259540
-0.120230 -0.093176 -0.259625
-0.120245 -0.093320 -0.259709
-0.120063 -0.093565 -0.259830
-0.117420 -0.095077 -0.260399
-0.117436 -0.095227 -0.260488
-0.117156 -0.095531 -0.260631
-0.117074 -0.095733 -0.260738
-0.116991 -0.095936 -0.260846
-0.116908 -0.096140 -0.260954
-0.116826 -0.096343 -0.261062
-0.116842 -0.096495 -0.261151
-0.116759 -0.096700 -0.261260
-0.116775 -0.096852 -0.261349
-0.112584 -0.099437 -0.262361
-0.112601 -0.099598 -0.262456
-0.112422 -0.099867 -0.262590
-0.112242 -0.100137 -0.262725
-0.112161 -0.100353 -0.262841
-0.111982 -0.100624 -0.262976
-0.111330 -0.101332 -0.263310
-0.111347 -0.101497 -0.263407
-0.111266 -0.101717 -0.263525
-0.111087 -0.101992 -0.263663
-0.120408 -0.092377 -0.259372
-0.120325 -0.092569 -0.259474
-0.120241 -0.092763 -0.259576
-0.120157 -0.092956 -0.259679
-0.120074 -0.093150 -0.259781
-0.120089 -0.093295 -0.259866
-0.120005 -0.093489 -0.259969
-0.117951 -0.094694 -0.260435
-0.117967 -0.094844 -0.260523
-0.117588 -0.095197 -0.260685
-0.117308 -0.095500 -0.260829
-0.117127 -0.095754 -0.260955
-0.116946 -0.096008 -0.261081
-0.116863 -0.096212 -0.261189
-0.116781 -0.096416 -0.261298
-0.116698 -0.096620 -0.261406
-0.116714 -0.096772 -0.261496
-0.112323 -0.099458 -0.262555
-0.112340 -0.099620 -0.262651
-0.112160 -0.099889 -0.262786
-0.111981 -0.100158 -0.262922
-0.111328 -0.100862 -0.263255
-0.111345 -0.101027 -0.263352
-0.111166 -0.101300 -0.263489
-0.111183 -0.101465 -0.263586
-0.111004 -0.101740 -0.263725
-0.110923 -0.101961 -0.263843
-0.120168 -0.092543 -0.259630
-0.120085 -0.092736 -0.259733
-0.120001 -0.092930 -0.259835
-0.119917 -0.093124 -0.259938
-0.119932 -0.093269 -0.260023
-0.119849 -0.093464 -0.260127
-0.117891 -0.094616 -0.260579
-0.117907 -0.094765 -0.260667
-0.117922 -0.094915 -0.260755
-0.117445 -0.095319 -0.260936
-0.117165 -0.095623 -0.261081
-0.116885 -0.095929 -0.261227
-0.116803 -0.096132 -0.261336
-0.116622 -0.096388 -0.261463
-0.116637 -0.096540 -0.261553
-0.116653 -0.096692 -0.261643
-0.111488 -0.099959 -0.262966
-0.111505 -0.100123 -0.263063
-0.111245 -0.100611 -0.263316
-0.111262 -0.100776 -0.263413
-0.111279 -0.100941 -0.263510
-0.111100 -0.101214 -0.263648
-0.110920 -0.101488 -0.263787
-0.110839 -0.101708 -0.263905
-0.110759 -0.101929 -0.264024
-0.120111 -0.092467 -0.259769
-0.120027 -0.092661 -0.259871
-0.119943 -0.092854 -0.259974
-0.119859 -0.093048 -0.260078
-0.119776 -0.093243 -0.260181
-0.119692 -0.093438 -0.260285
-0.119312 -0.093784 -0.260444
-0.118834 -0.094182 -0.260624
-0.117863 -0.094836 -0.260898
-0.117385 -0.095240 -0.261081
-0.117105 -0.095544 -0.261227
-0.116726 -0.095900 -0.261392
-0.116643 -0.096104 -0.261501
-0.116659 -0.096256 -0.261591
-0.116576 -0.096460 -0.261700
-0.111423 -0.099873 -0.263124
-0.111440 -0.100037 -0.263221
-0.111063 -0.100414 -0.263398
-0.111179 -0.100525 -0.263475
-0.111196 -0.100690 -0.263572
-0.111016 -0.100962 -0.263710
-0.110837 -0.101236 -0.263849
-0.110756 -0.101455 -0.263967
-0.110577 -0.101730 -0.264107
-0.110594 -0.101896 -0.264205
-0.110317 -0.102228 -0.264367
-0.110236 -0.102450 -0.264486
-0.119954 -0.092441 -0.259925
-0.119870 -0.092634 -0.260028
-0.119786 -0.092828 -0.260132
-0.119702 -0.093022 -0.260235
-0.119619 -0.093216 -0.260339
-0.119634 -0.093361 -0.260424
-0.119254 -0.093707 -0.260585
-0.118874 -0.094055 -0.260746
-0.116582 -0.096024 -0.261648
-0.116598 -0.096176 -0.261737
-0.116515 -0.096380 -0.261846
-0.111061 -0.099945 -0.263343
-0.111079 -0.100110 -0.263440
-0.110997 -0.100327 -0.263557
-0.111014 -0.100492 -0.263654
-0.110933 -0.100711 -0.263772
-0.110753 -0.100983 -0.263911
-0.110672 -0.101203 -0.264029
-0.110591 -0.101423 -0.264148
-0.110510 -0.101643 -0.264267
-0.110429 -0.101864 -0.264386
-0.110250 -0.102140 -0.264527
-0.110169 -0.102362 -0.264647
-0.119896 -0.092365 -0.260064
-0.119812 -0.092558 -0.260168
-0.119728 -0.092752 -0.260271
-0.119644 -0.092946 -0.260375
-0.119462 -0.093190 -0.260497
-0.119378 -0.093385 -0.260602
-0.119096 -0.093681 -0.260744
-0.118914 -0.093927 -0.260869
-0.118633 -0.094225 -0.261013
-0.110700 -0.100017 -0.263563
-0.110717 -0.100182 -0.263660
-0.110636 -0.100400 -0.263778
-0.110653 -0.100566 -0.263876
-0.110571 -0.100785 -0.263994
-0.110589 -0.100950 -0.264091
-0.110507 -0.101170 -0.264210
-0.110426 -0.101390 -0.264329
-0.110345 -0.101610 -0.264449
-0.110362 -0.101777 -0.264546
-0.110183 -0.102053 -0.264688
-0.110004 -0.102330 -0.264830
-0.109923 -0.102552 -0.264950
-0.119838 -0.092289 -0.260203
-0.119754 -0.092482 -0.260307
-0.119670 -0.092676 -0.260410
-0.119586 -0.092870 -0.260514
-0.119403 -0.093113 -0.260637
-0.119320 -0.093308 -0.260742
-0.119236 -0.093504 -0.260847
-0.118855 -0.093850 -0.261010
-0.118574 -0.094148 -0.261155
-0.110535 -0.099982 -0.263743
-0.110552 -0.100148 -0.263840
-0.110471 -0.100366 -0.263959
-0.110488 -0.100532 -0.264056
-0.110505 -0.100698 -0.264153
-0.110424 -0.100917 -0.264272
-0.110342 -0.101137 -0.264391
-0.110360 -0.101303 -0.264489
-0.110279 -0.101523 -0.264609
-0.110296 -0.101689 -0.264707
-0.110116 -0.101965 -0.264849
-0.109838 -0.102297 -0.265013
-0.109856 -0.102464 -0.265112
-0.119781 -0.092213 -0.260342
-0.119697 -0.092406 -0.260446
-0.119612 -0.092600 -0.260550
-0.119528 -0.092794 -0.260654
-0.119444 -0.092988 -0.260758
-0.119261 -0.093232 -0.260882
-0.119177 -0.093427 -0.260987
-0.110469 -0.099896 -0.263902
-0.110486 -0.100061 -0.263999
-0.110503 -0.100226 -0.264097
-0.110422 -0.100445 -0.264216
-0.110439 -0.100611 -0.264313
-0.110357 -0.100830 -0.264432
-0.110276 -0.101049 -0.264551
-0.110293 -0.101216 -0.264649
-0.110212 -0.101436 -0.264769
-0.110131 -0.101657 -0.264889
-0.110049 -0.101878 -0.265009
-0.109870 -0.102154 -0.265152
-0.119723 -0.092138 -0.260481
-0.119639 -0.092331 -0.260585
-0.119555 -0.092524 -0.260689
-0.119371 -0.092767 -0.260813
-0.119386 -0.092912 -0.260898
-0.119203 -0.093156 -0.261022
-0.110600 -0.099704 -0.264019
-0.110617 -0.099869 -0.264116
-0.110536 -0.100087 -0.264235
-0.110454 -0.100305 -0.264354
-0.110372 -0.100524 -0.264473
-0.110291 -0.100743 -0.264592
-0.110209 -0.100962 -0.264711
-0.110227 -0.101128 -0.264809
-0.110145 -0.101348 -0.264929
-0.110163 -0.101515 -0.265027
-0.109983 -0.101790 -0.265170
-0.109901 -0.102012 -0.265290
-0.109820 -0.102233 -0.265411
-0.119665 -0.092062 -0.260620
-0.119581 -0.092255 -0.260724
-0.119397 -0.092497 -0.260848
-0.119313 -0.092690 -0.260952
-0.119229 -0.092885 -0.261057
-0.119046 -0.093129 -0.261182
-0.110715 -0.099349 -0.264038
-0.110732 -0.099513 -0.264135
-0.110650 -0.099730 -0.264254
-0.110568 -0.099947 -0.264372
-0.110586 -0.100112 -0.264469
-0.110405 -0.100384 -0.264610
-0.110323 -0.100602 -0.264730
-0.110143 -0.100875 -0.264871
-0.110160 -0.101041 -0.264969
-0.110178 -0.101207 -0.265067
-0.110096 -0.101427 -0.265187
-0.109916 -0.101703 -0.265330
-0.109835 -0.101924 -0.265451
-0.109753 -0.102146 -0.265572
-0.119607 -0.091986 -0.260759
-0.119523 -0.092179 -0.260863
-0.119339 -0.092421 -0.260987
-0.119255 -0.092614 -0.261092
-0.119071 -0.092857 -0.261217
-0.118788 -0.093151 -0.261362
-0.110946 -0.099106 -0.264133
-0.110963 -0.099270 -0.264229
-0.110782 -0.099539 -0.264369
-0.110700 -0.099756 -0.264487
-0.110717 -0.099920 -0.264584
-0.110537 -0.100191 -0.264725
-0.110356 -0.100462 -0.264867
-0.110175 -0.100734 -0.265009
-0.110094 -0.100954 -0.265129
-0.110111 -0.101120 -0.265227
-0.110128 -0.101286 -0.265324
-0.109948 -0.101561 -0.265468
-0.109866 -0.101782 -0.265589
-0.119450 -0.091959 -0.260917
-0.119366 -0.092151 -0.261022
-0.119281 -0.092344 -0.261127
-0.119097 -0.092587 -0.261252
-0.118914 -0.092830 -0.261377
-0.118630 -0.093123 -0.261523
-0.118248 -0.093467 -0.261690
-0.118065 -0.093713 -0.261818
-0.117285 -0.094259 -0.262069
-0.117301 -0.094409 -0.262157
-0.117018 -0.094709 -0.262307
-0.116935 -0.094909 -0.262416
-0.111079 -0.098917 -0.264247
-0.111096 -0.099080 -0.264343
-0.110915 -0.099348 -0.264483
-0.110833 -0.099565 -0.264602
-0.110850 -0.099729 -0.264698
-0.110669 -0.099998 -0.264840
-0.110389 -0.100322 -0.265004
-0.110208 -0.100594 -0.265146
-0.110126 -0.100813 -0.265266
-0.110044 -0.101033 -0.265387
-0.110062 -0.101199 -0.265484
-0.109980 -0.101419 -0.265605
-0.109899 -0.101640 -0.265726
-0.119392 -0.091883 -0.261056
-0.119308 -0.092075 -0.261161
-0.119124 -0.092317 -0.261286
-0.118940 -0.092559 -0.261412
-0.118756 -0.092802 -0.261538
-0.118472 -0.093095 -0.261684
-0.118189 -0.093389 -0.261832
-0.118005 -0.093636 -0.261960
-0.117623 -0.093982 -0.262130
-0.117340 -0.094280 -0.262280
-0.117058 -0.094580 -0.262431
-0.116974 -0.094780 -0.262540
-0.111493 -0.098411 -0.264200
-0.111510 -0.098573 -0.264295
-0.111229 -0.098891 -0.264457
-0.111147 -0.099106 -0.264575
-0.111064 -0.099321 -0.264693
-0.110982 -0.099537 -0.264812
-0.110801 -0.099807 -0.264953
-0.110521 -0.100130 -0.265118
-0.110340 -0.100401 -0.265260
-0.110159 -0.100673 -0.265403
-0.110077 -0.100892 -0.265524
-0.110094 -0.101058 -0.265621
-0.110013 -0.101278 -0.265742
-0.110030 -0.101444 -0.265840
-0.119235 -0.091855 -0.261215
-0.119050 -0.092096 -0.261340
-0.118966 -0.092289 -0.261446
-0.118782 -0.092531 -0.261572
-0.118498 -0.092823 -0.261719
-0.118314 -0.093067 -0.261846
-0.117931 -0.093410 -0.262015
-0.117847 -0.093607 -0.262123
-0.117564 -0.093904 -0.262273
-0.117280 -0.094202 -0.262423
-0.117097 -0.094451 -0.262554
-0.116914 -0.094701 -0.262684
-0.111626 -0.098223 -0.264312
-0.111643 -0.098385 -0.264407
-0.111461 -0.098650 -0.264547
-0.111280 -0.098916 -0.264687
-0.111197 -0.099131 -0.264805
-0.111115 -0.099347 -0.264924
-0.110934 -0.099615 -0.265066
-0.110653 -0.099937 -0.265230
-0.110472 -0.100208 -0.265373
-0.110291 -0.100479 -0.265516
-0.110209 -0.100698 -0.265637
-0.110127 -0.100917 -0.265758
-0.110144 -0.101083 -0.265855
-0.110062 -0.101303 -0.265976
-0.119077 -0.091827 -0.261375
-0.118992 -0.092019 -0.261480
-0.118808 -0.092261 -0.261606
-0.118524 -0.092551 -0.261753
-0.118340 -0.092795 -0.261881
-0.118155 -0.093039 -0.262008
-0.117872 -0.093333 -0.262158
-0.117688 -0.093579 -0.262287
-0.117504 -0.093826 -0.262416
-0.117320 -0.094074 -0.262546
-0.117137 -0.094323 -0.262676
-0.117152 -0.094472 -0.262764
-0.111760 -0.098035 -0.264424
-0.111777 -0.098197 -0.264519
-0.111595 -0.098461 -0.264658
-0.111513 -0.098675 -0.264776
-0.111331 -0.098942 -0.264917
-0.111348 -0.099104 -0.265013
-0.111067 -0.099424 -0.265177
-0.110786 -0.099746 -0.265343
-0.110604 -0.100015 -0.265485
-0.110423 -0.100286 -0.265629
-0.110341 -0.100504 -0.265749
-0.110259 -0.100723 -0.265870
-0.110177 -0.100942 -0.265991
-0.110095 -0.101161 -0.266112
-0.118919 -0.091798 -0.261534
-0.118834 -0.091991 -0.261640
-0.118650 -0.092232 -0.261767
-0.118365 -0.092523 -0.261915
-0.118181 -0.092766 -0.262043
-0.117997 -0.093010 -0.262171
-0.117813 -0.093255 -0.262300
-0.117629 -0.093501 -0.262429
-0.117445 -0.093748 -0.262559
-0.117360 -0.093946 -0.262668
-0.117176 -0.094195 -0.262799
-0.117092 -0.094394 -0.262908
-0.111895 -0.097848 -0.264534
-0.111912 -0.098009 -0.264629
-0.111729 -0.098273 -0.264769
-0.111647 -0.098487 -0.264887
-0.111564 -0.098700 -0.265005
-0.111482 -0.098914 -0.265123
-0.111300 -0.099181 -0.265265
-0.111018 -0.099502 -0.265431
-0.110737 -0.099824 -0.265597
-0.110556 -0.100094 -0.265740
-0.110474 -0.100311 -0.265861
-0.110391 -0.100529 -0.265981
-0.110309 -0.100748 -0.266102
-0.110029 -0.101074 -0.266272
-0.118761 -0.091769 -0.261695
-0.118576 -0.092010 -0.261822
-0.118392 -0.092252 -0.261949
-0.118207 -0.092494 -0.262077
-0.118022 -0.092737 -0.262205
-0.117838 -0.092982 -0.262334
-0.117654 -0.093227 -0.262463
-0.117569 -0.093423 -0.262572
-0.117485 -0.093621 -0.262681
-0.117400 -0.093819 -0.262790
-0.117117 -0.094116 -0.262942
-0.111930 -0.097713 -0.264667
-0.111947 -0.097874 -0.264761
-0.111864 -0.098086 -0.264879
-0.111681 -0.098350 -0.265020
-0.111698 -0.098512 -0.265115
-0.111616 -0.098725 -0.265233
-0.111433 -0.098991 -0.265375
-0.111152 -0.099311 -0.265541
-0.110871 -0.099632 -0.265707
-0.110689 -0.099901 -0.265851
-0.110606 -0.100118 -0.265972
-0.110524 -0.100336 -0.266092
-0.110343 -0.100607 -0.266237
-0.110161 -0.100880 -0.266383
-0.118603 -0.091741 -0.261855
-0.118418 -0.091981 -0.261983
-0.118233 -0.092223 -0.262111
-0.118148 -0.092417 -0.262218
-0.117963 -0.092660 -0.262347
-0.117779 -0.092904 -0.262476
-0.117694 -0.093100 -0.262584
-0.117610 -0.093297 -0.262693
-0.117525 -0.093494 -0.262802
-0.117541 -0.093642 -0.262889
-0.117456 -0.093840 -0.262998
-0.112065 -0.097527 -0.264776
-0.112082 -0.097687 -0.264871
-0.111899 -0.097950 -0.265011
-0.111816 -0.098162 -0.265129
-0.111733 -0.098375 -0.265247
-0.111750 -0.098536 -0.265342
-0.111568 -0.098802 -0.265484
-0.111385 -0.099068 -0.265626
-0.111104 -0.099388 -0.265793
-0.110822 -0.099710 -0.265961
-0.110740 -0.099926 -0.266081
-0.110657 -0.100143 -0.266202
-0.110475 -0.100414 -0.266347
-0.110294 -0.100686 -0.266493
-0.118444 -0.091711 -0.262016
-0.118259 -0.091952 -0.262144
-0.118074 -0.092193 -0.262273
-0.117989 -0.092388 -0.262380
-0.117805 -0.092631 -0.262510
-0.117720 -0.092827 -0.262618
-0.117635 -0.093023 -0.262727
-0.117551 -0.093219 -0.262835
-0.117566 -0.093367 -0.262922
-0.117481 -0.093564 -0.263032
-0.117397 -0.093762 -0.263141
-0.112100 -0.097392 -0.264908
-0.112117 -0.097552 -0.265002
-0.112034 -0.097763 -0.265119
-0.111951 -0.097975 -0.265237
-0.111868 -0.098187 -0.265355
-0.111785 -0.098400 -0.265474
-0.111702 -0.098613 -0.265592
-0.111520 -0.098879 -0.265735
-0.111238 -0.099198 -0.265902
-0.111055 -0.099466 -0.266046
-0.110873 -0.099734 -0.266190
-0.110791 -0.099951 -0.266311
-0.110609 -0.100221 -0.266456
-0.110327 -0.100546 -0.266627
-0.118371 -0.091489 -0.262071
-0.118286 -0.091682 -0.262178
-0.118100 -0.091923 -0.262306
-0.118015 -0.092117 -0.262414
-0.117830 -0.092359 -0.262543
-0.117746 -0.092554 -0.262652
-0.117661 -0.092749 -0.262760
-0.117576 -0.092945 -0.262869
-0.117591 -0.093093 -0.262956
-0.117507 -0.093289 -0.263065
-0.117522 -0.093437 -0.263152
-0.117337 -0.093684 -0.263284
-0.112136 -0.097257 -0.265039
-0.112153 -0.097417 -0.265133
-0.112070 -0.097628 -0.265250
-0.111987 -0.097839 -0.265368
-0.112003 -0.098000 -0.265463
-0.111920 -0.098212 -0.265581
-0.111837 -0.098424 -0.265699
-0.111654 -0.098690 -0.265842
-0.111372 -0.099008 -0.266010
-0.111090 -0.099328 -0.266178
-0.111107 -0.099490 -0.266274
-0.110925 -0.099759 -0.266419
-0.110742 -0.100028 -0.266565
-0.110261 -0.100459 -0.266785
-0.118312 -0.091413 -0.262211
-0.118127 -0.091652 -0.262340
-0.118042 -0.091846 -0.262447
-0.117856 -0.092087 -0.262577
-0.117771 -0.092281 -0.262685
-0.117787 -0.092429 -0.262772
-0.117702 -0.092624 -0.262880
-0.117617 -0.092819 -0.262989
-0.117532 -0.093015 -0.263098
-0.117548 -0.093163 -0.263185
-0.117463 -0.093360 -0.263294
-0.117478 -0.093508 -0.263381
-0.117394 -0.093705 -0.263491
-0.112272 -0.097072 -0.265146
-0.112289 -0.097231 -0.265240
-0.112205 -0.097442 -0.265357
-0.112122 -0.097653 -0.265475
-0.112139 -0.097813 -0.265569
-0.112056 -0.098024 -0.265687
-0.111873 -0.098288 -0.265830
-0.111789 -0.098501 -0.265949
-0.111607 -0.098766 -0.266093
-0.111025 -0.099242 -0.266335
-0.111042 -0.099405 -0.266431
-0.110959 -0.099620 -0.266551
-0.110876 -0.099836 -0.266672
-0.118440 -0.091097 -0.262223
-0.118154 -0.091383 -0.262373
-0.117968 -0.091622 -0.262502
-0.117983 -0.091769 -0.262588
-0.117798 -0.092010 -0.262718
-0.117713 -0.092204 -0.262827
-0.117728 -0.092351 -0.262913
-0.117643 -0.092546 -0.263022
-0.117558 -0.092742 -0.263131
-0.117573 -0.092889 -0.263218
-0.117488 -0.093085 -0.263327
-0.117404 -0.093282 -0.263437
-0.117419 -0.093430 -0.263524
-0.117334 -0.093627 -0.263634
-0.112308 -0.096938 -0.265276
-0.112325 -0.097097 -0.265370
-0.112241 -0.097307 -0.265487
-0.112258 -0.097467 -0.265581
-0.112175 -0.097678 -0.265699
-0.112091 -0.097889 -0.265817
-0.112008 -0.098100 -0.265936
-0.111825 -0.098365 -0.266079
-0.111742 -0.098577 -0.266198
-0.111176 -0.099214 -0.266537
-0.111193 -0.099377 -0.266633
-0.110811 -0.099751 -0.266829
-0.118281 -0.091067 -0.262385
-0.117995 -0.091353 -0.262535
-0.117909 -0.091546 -0.262643
-0.117824 -0.091739 -0.262751
-0.117739 -0.091933 -0.262860
-0.117654 -0.092127 -0.262968
-0.117569 -0.092322 -0.263077
-0.117584 -0.092469 -0.263164
-0.117499 -0.092664 -0.263273
-0.117514 -0.092812 -0.263360
-0.117429 -0.093008 -0.263469
-0.117344 -0.093204 -0.263579
-0.117360 -0.093352 -0.263666
-0.112428 -0.096595 -0.265288
-0.112445 -0.096754 -0.265381
-0.112461 -0.096913 -0.265475
-0.112378 -0.097122 -0.265593
-0.112294 -0.097332 -0.265710
-0.112311 -0.097491 -0.265804
-0.112227 -0.097702 -0.265922
-0.112144 -0.097913 -0.266041
-0.112061 -0.098125 -0.266160
-0.111877 -0.098389 -0.266304
-0.111494 -0.098758 -0.266498
-0.111511 -0.098919 -0.266593
-0.111428 -0.099133 -0.266713
-0.118409 -0.090754 -0.262396
-0.118122 -0.091037 -0.262547
-0.117936 -0.091276 -0.262676
-0.117750 -0.091515 -0.262806
-0.117765 -0.091662 -0.262893
-0.117680 -0.091856 -0.263001
-0.117595 -0.092050 -0.263110
-0.117510 -0.092244 -0.263219
-0.117525 -0.092392 -0.263306
-0.117540 -0.092539 -0.263392
-0.117556 -0.092686 -0.263479
-0.112565 -0.096411 -0.265393
-0.112582 -0.096570 -0.265486
-0.112498 -0.096779 -0.265604
-0.112414 -0.096988 -0.265721
-0.112431 -0.097147 -0.265815
-0.112347 -0.097357 -0.265933
-0.112364 -0.097516 -0.266027
-0.112280 -0.097726 -0.266145
-0.112197 -0.097937 -0.266264
-0.112013 -0.098201 -0.266408
-0.111830 -0.098465 -0.266552
-0.111847 -0.098625 -0.266647
-0.111363 -0.099049 -0.266869
-0.118250 -0.090723 -0.262558
-0.117963 -0.091007 -0.262709
-0.117777 -0.091246 -0.262839
-0.117691 -0.091438 -0.262947
-0.117606 -0.091632 -0.263056
-0.117621 -0.091779 -0.263142
-0.117536 -0.091973 -0.263251
-0.117551 -0.092120 -0.263338
-0.117466 -0.092314 -0.263447
-0.117481 -0.092462 -0.263534
-0.117497 -0.092609 -0.263621
-0.117411 -0.092805 -0.263731
-0.112702 -0.096229 -0.265497
-0.112719 -0.096387 -0.265590
-0.112735 -0.096545 -0.265683
-0.112651 -0.096753 -0.265801
-0.112568 -0.096962 -0.265919
-0.112484 -0.097171 -0.266037
-0.112500 -0.097330 -0.266130
-0.112417 -0.097540 -0.266248
-0.112133 -0.097854 -0.266417
-0.111949 -0.098117 -0.266562
-0.111966 -0.098277 -0.266656
-0.111982 -0.098437 -0.266750
-0.118379 -0.090411 -0.262568
-0.118091 -0.090693 -0.262720
-0.117804 -0.090976 -0.262872
-0.117617 -0.091215 -0.263002
-0.117532 -0.091408 -0.263111
-0.117547 -0.091555 -0.263197
-0.117462 -0.091748 -0.263307
-0.117477 -0.091895 -0.263393
-0.117492 -0.092043 -0.263480
-0.117407 -0.092237 -0.263589
-0.117422 -0.092384 -0.263676
-0.117438 -0.092532 -0.263763
-0.117352 -0.092727 -0.263873
-0.112940 -0.095997 -0.265576
-0.112957 -0.096154 -0.265669
-0.112873 -0.096361 -0.265786
-0.112789 -0.096569 -0.265904
-0.112605 -0.096828 -0.266046
-0.112521 -0.097037 -0.266164
-0.112537 -0.097196 -0.266258
-0.112453 -0.097405 -0.266376
-0.112370 -0.097615 -0.266495
-0.112286 -0.097826 -0.266614
-0.112202 -0.098037 -0.266733
-0.111918 -0.098353 -0.266904
-0.118507 -0.090099 -0.262578
-0.118220 -0.090380 -0.262730
-0.118033 -0.090616 -0.262860
-0.117745 -0.090900 -0.263012
-0.117559 -0.091138 -0.263144
-0.117473 -0.091331 -0.263252
-0.117388 -0.091524 -0.263362
-0.117403 -0.091671 -0.263448
-0.117317 -0.091865 -0.263558
-0.117333 -0.092013 -0.263644
-0.117348 -0.092160 -0.263731
-0.117363 -0.092307 -0.263818
-0.117379 -0.092454 -0.263904
-0.112978 -0.095864 -0.265703
-0.112994 -0.096021 -0.265796
-0.112910 -0.096229 -0.265913
-0.112826 -0.096436 -0.266031
-0.112742 -0.096644 -0.266148
-0.112658 -0.096853 -0.266267
-0.112675 -0.097011 -0.266360
-0.112591 -0.097220 -0.266478
-0.112507 -0.097429 -0.266597
-0.112423 -0.097639 -0.266716
-0.112339 -0.097850 -0.266835
-0.118637 -0.089789 -0.262588
-0.118348 -0.090069 -0.262740
-0.118060 -0.090349 -0.262892
-0.117772 -0.090631 -0.263045
-0.117586 -0.090869 -0.263176
-0.117399 -0.091107 -0.263307
-0.117313 -0.091300 -0.263417
-0.117329 -0.091447 -0.263503
-0.117344 -0.091594 -0.263590
-0.117258 -0.091788 -0.263700
-0.117274 -0.091935 -0.263786
-0.117289 -0.092082 -0.263873
-0.117304 -0.092230 -0.263960
-0.117219 -0.092425 -0.264070
-0.113201 -0.095477 -0.265688
-0.113217 -0.095633 -0.265780
-0.113133 -0.095840 -0.265897
-0.113048 -0.096046 -0.266015
-0.112964 -0.096253 -0.266132
-0.112779 -0.096511 -0.266275
-0.112796 -0.096669 -0.266368
-0.112712 -0.096877 -0.266486
-0.112628 -0.097086 -0.266605
-0.112644 -0.097244 -0.266698
-0.112560 -0.097453 -0.266817
-0.112376 -0.097715 -0.266962
-0.118766 -0.089481 -0.262598
-0.118478 -0.089758 -0.262749
-0.118189 -0.090038 -0.262901
-0.117901 -0.090318 -0.263054
-0.117714 -0.090554 -0.263185
-0.117426 -0.090837 -0.263340
-0.117340 -0.091030 -0.263449
-0.117254 -0.091223 -0.263558
-0.117169 -0.091416 -0.263668
-0.117184 -0.091563 -0.263755
-0.117199 -0.091711 -0.263841
-0.117215 -0.091858 -0.263928
-0.117129 -0.092052 -0.264038
-0.117145 -0.092200 -0.264125
-0.117059 -0.092395 -0.264236
-0.113424 -0.095092 -0.265673
-0.113440 -0.095247 -0.265764
-0.113356 -0.095453 -0.265881
-0.113170 -0.095708 -0.266023
-0.113086 -0.095914 -0.266140
-0.113002 -0.096121 -0.266258
-0.112918 -0.096328 -0.266376
-0.112833 -0.096535 -0.266494
-0.112749 -0.096743 -0.266612
-0.112766 -0.096901 -0.266705
-0.112681 -0.097110 -0.266824
-0.112597 -0.097319 -0.266943
-0.112312 -0.097631 -0.267115
-0.119084 -0.088942 -0.262479
-0.118795 -0.089217 -0.262630
-0.118608 -0.089450 -0.262759
-0.118319 -0.089727 -0.262911
-0.118030 -0.090006 -0.263064
-0.117742 -0.090287 -0.263217
-0.117554 -0.090523 -0.263349
-0.117266 -0.090806 -0.263504
-0.117180 -0.090998 -0.263613
-0.117094 -0.091191 -0.263723
-0.117110 -0.091339 -0.263810
-0.117125 -0.091486 -0.263897
-0.117039 -0.091680 -0.264007
-0.117055 -0.091827 -0.264094
-0.116969 -0.092022 -0.264204
-0.116883 -0.092217 -0.264315
-0.116798 -0.092412 -0.264427
-0.113833 -0.094456 -0.265516
-0.113849 -0.094611 -0.265607
-0.113664 -0.094863 -0.265748
-0.113478 -0.095117 -0.265889
-0.113394 -0.095321 -0.266006
-0.113309 -0.095527 -0.266123
-0.113124 -0.095782 -0.266266
-0.113040 -0.095988 -0.266383
-0.112955 -0.096195 -0.266501
-0.112871 -0.096402 -0.266620
-0.112787 -0.096610 -0.266738
-0.112702 -0.096818 -0.266857
-0.112618 -0.097027 -0.266976
-0.112534 -0.097236 -0.267095
-0.119200 -0.088495 -0.262404
-0.119012 -0.088724 -0.262532
-0.118824 -0.088955 -0.262661
-0.118636 -0.089186 -0.262790
-0.118347 -0.089463 -0.262942
-0.118160 -0.089696 -0.263073
-0.117871 -0.089975 -0.263226
-0.117582 -0.090255 -0.263381
-0.117395 -0.090492 -0.263513
-0.117207 -0.090729 -0.263645
-0.117121 -0.090921 -0.263755
-0.117035 -0.091114 -0.263865
-0.117051 -0.091261 -0.263952
-0.116965 -0.091455 -0.264062
-0.116980 -0.091602 -0.264149
-0.116996 -0.091750 -0.264236
-0.116809 -0.091991 -0.264371
-0.116723 -0.092186 -0.264482
-0.116638 -0.092382 -0.264594
-0.113771 -0.094375 -0.265665
-0.113787 -0.094530 -0.265756
-0.113602 -0.094782 -0.265897
-0.113517 -0.094986 -0.266014
-0.113331 -0.095240 -0.266156
-0.113247 -0.095445 -0.266273
-0.113162 -0.095650 -0.266391
-0.113078 -0.095856 -0.266509
-0.112892 -0.096113 -0.266653
-0.112909 -0.096270 -0.266745
-0.112824 -0.096477 -0.266863
-0.112740 -0.096685 -0.266982
-0.119114 -0.088136 -0.262374
-0.119027 -0.088321 -0.262480
-0.119042 -0.088464 -0.262563
-0.118854 -0.088693 -0.262692
-0.118666 -0.088924 -0.262821
-0.118477 -0.089155 -0.262951
-0.118188 -0.089431 -0.263104
-0.118000 -0.089665 -0.263235
-0.117711 -0.089943 -0.263389
-0.117523 -0.090179 -0.263521
-0.117235 -0.090460 -0.263677
-0.117047 -0.090697 -0.263810
-0.116961 -0.090890 -0.263920
-0.116976 -0.091037 -0.264007
-0.116890 -0.091230 -0.264117
-0.116906 -0.091378 -0.264204
-0.116921 -0.091525 -0.264291
-0.116835 -0.091719 -0.264402
-0.116750 -0.091914 -0.264513
-0.116664 -0.092109 -0.264625
-0.116477 -0.092351 -0.264761
-0.115279 -0.093070 -0.265145
-0.115295 -0.093221 -0.265234
-0.114704 -0.093660 -0.265473
-0.114114 -0.094101 -0.265713
-0.113726 -0.094449 -0.265905
-0.113540 -0.094700 -0.266047
-0.113455 -0.094904 -0.266163
-0.113370 -0.095109 -0.266281
-0.113285 -0.095314 -0.266398
-0.113201 -0.095519 -0.266515
-0.113116 -0.095725 -0.266633
-0.112930 -0.095981 -0.266777
-0.112846 -0.096187 -0.266896
-0.112761 -0.096395 -0.267015
-0.112677 -0.096602 -0.267134
-0.119042 -0.087919 -0.262427
-0.118955 -0.088104 -0.262533
-0.118868 -0.088289 -0.262639
-0.118883 -0.088432 -0.262723
-0.118695 -0.088662 -0.262852
-0.118507 -0.088892 -0.262982
-0.118318 -0.089123 -0.263112
-0.118029 -0.089400 -0.263266
-0.117841 -0.089633 -0.263397
-0.117551 -0.089911 -0.263553
-0.117364 -0.090147 -0.263685
-0.117176 -0.090383 -0.263818
-0.116988 -0.090620 -0.263952
-0.116902 -0.090812 -0.264062
-0.116816 -0.091005 -0.264173
-0.116831 -0.091153 -0.264259
-0.116847 -0.091300 -0.264346
-0.116862 -0.091448 -0.264433
-0.116675 -0.091688 -0.264569
-0.116690 -0.091836 -0.264656
-0.116503 -0.092078 -0.264792
-0.116316 -0.092321 -0.264929
-0.115421 -0.092896 -0.265241
-0.115234 -0.093142 -0.265380
-0.114643 -0.093580 -0.265620
-0.114052 -0.094020 -0.265862
-0.113664 -0.094367 -0.266054
-0.113579 -0.094571 -0.266171
-0.113393 -0.094823 -0.266313
-0.113308 -0.095027 -0.266430
-0.113324 -0.095183 -0.266522
-0.113239 -0.095388 -0.266640
-0.113053 -0.095643 -0.266784
-0.112969 -0.095849 -0.266902
-0.112783 -0.096105 -0.267047
-0.119072 -0.087660 -0.262458
-0.118985 -0.087844 -0.262564
-0.118796 -0.088072 -0.262693
-0.118811 -0.088214 -0.262777
-0.118826 -0.088357 -0.262861
-0.118536 -0.088630 -0.263013
-0.118347 -0.088860 -0.263143
-0.118057 -0.089135 -0.263297
-0.117869 -0.089368 -0.263429
-0.117579 -0.089645 -0.263584
-0.117391 -0.089879 -0.263716
-0.117203 -0.090115 -0.263849
-0.117016 -0.090351 -0.263983
-0.116828 -0.090588 -0.264117
-0.116843 -0.090735 -0.264204
-0.116757 -0.090928 -0.264315
-0.116772 -0.091075 -0.264401
-0.116788 -0.091223 -0.264488
-0.116702 -0.091416 -0.264600
-0.116616 -0.091610 -0.264711
-0.116530 -0.091805 -0.264823
-0.116444 -0.092000 -0.264935
-0.115345 -0.092666 -0.265297
-0.115360 -0.092817 -0.265386
-0.114870 -0.093205 -0.265601
-0.114379 -0.093595 -0.265818
-0.113889 -0.093988 -0.266035
-0.113602 -0.094286 -0.266203
-0.113517 -0.094489 -0.266320
-0.113431 -0.094693 -0.266437
-0.113347 -0.094897 -0.266554
-0.113262 -0.095101 -0.266672
-0.113177 -0.095306 -0.266790
-0.113092 -0.095511 -0.266908
-0.112906 -0.095766 -0.267053
-0.106997 -0.099205 -0.268919
-0.107015 -0.099374 -0.269019
-0.118913 -0.087627 -0.262617
-0.118826 -0.087812 -0.262724
-0.118739 -0.087997 -0.262830
-0.118652 -0.088182 -0.262937
-0.118667 -0.088325 -0.263021
-0.118478 -0.088554 -0.263151
-0.118188 -0.088828 -0.263305
-0.117898 -0.089103 -0.263459
-0.117709 -0.089335 -0.263591
-0.117419 -0.089613 -0.263747
-0.117231 -0.089847 -0.263881
-0.117043 -0.090082 -0.264014
-0.116957 -0.090274 -0.264124
-0.116769 -0.090510 -0.264259
-0.116683 -0.090703 -0.264370
-0.116698 -0.090850 -0.264457
-0.116713 -0.090998 -0.264543
-0.116627 -0.091191 -0.264655
-0.116643 -0.091339 -0.264742
-0.116556 -0.091533 -0.264854
-0.116369 -0.091774 -0.264991
-0.116283 -0.091969 -0.265103
-0.114980 -0.092727 -0.265518
-0.114996 -0.092879 -0.265607
-0.114505 -0.093267 -0.265824
-0.114014 -0.093658 -0.266042
-0.113625 -0.094002 -0.266235
-0.113438 -0.094253 -0.266378
-0.113353 -0.094456 -0.266495
-0.113369 -0.094611 -0.266586
-0.113284 -0.094815 -0.266704
-0.113199 -0.095019 -0.266822
-0.113114 -0.095224 -0.266940
-0.113029 -0.095429 -0.267058
-0.107096 -0.098678 -0.268829
-0.107114 -0.098847 -0.268928
-0.107132 -0.099016 -0.269028
-0.106947 -0.099285 -0.269182
-0.106864 -0.099505 -0.269309
-0.118856 -0.087553 -0.262754
-0.118769 -0.087737 -0.262861
-0.118682 -0.087922 -0.262967
-0.118493 -0.088150 -0.263097
-0.118508 -0.088293 -0.263182
-0.118319 -0.088522 -0.263312
-0.118028 -0.088796 -0.263467
-0.117738 -0.089071 -0.263622
-0.117549 -0.089303 -0.263755
-0.117259 -0.089580 -0.263912
-0.117071 -0.089814 -0.264045
-0.116984 -0.090005 -0.264155
-0.116796 -0.090241 -0.264290
-0.116608 -0.090478 -0.264425
-0.116624 -0.090625 -0.264512
-0.116537 -0.090818 -0.264623
-0.116553 -0.090966 -0.264710
-0.116466 -0.091159 -0.264822
-0.116482 -0.091307 -0.264909
-0.116294 -0.091547 -0.265046
-0.116208 -0.091742 -0.265159
-0.114615 -0.092788 -0.265740
-0.114631 -0.092940 -0.265830
-0.113328 -0.093707 -0.266253
-0.113344 -0.093862 -0.266345
-0.113360 -0.094017 -0.266436
-0.113376 -0.094172 -0.266527
-0.113291 -0.094375 -0.266644
-0.113206 -0.094578 -0.266762
-0.107029 -0.098589 -0.268992
-0.107046 -0.098758 -0.269091
-0.107064 -0.098927 -0.269190
-0.106879 -0.099197 -0.269345
-0.118799 -0.087478 -0.262891
-0.118712 -0.087662 -0.262998
-0.118523 -0.087889 -0.263128
-0.118436 -0.088075 -0.263235
-0.118451 -0.088218 -0.263319
-0.118160 -0.088490 -0.263474
-0.117869 -0.088763 -0.263629
-0.117476 -0.089081 -0.263809
-0.117287 -0.089314 -0.263942
-0.116997 -0.089591 -0.264100
-0.116910 -0.089782 -0.264210
-0.116722 -0.090017 -0.264345
-0.116534 -0.090253 -0.264480
-0.116447 -0.090445 -0.264592
-0.116361 -0.090638 -0.264703
-0.116376 -0.090786 -0.264790
-0.116290 -0.090979 -0.264902
-0.116305 -0.091127 -0.264989
-0.116219 -0.091321 -0.265102
-0.116133 -0.091516 -0.265214
-0.115945 -0.091757 -0.265352
-0.114249 -0.092849 -0.265964
-0.114265 -0.093001 -0.266054
-0.113266 -0.093625 -0.266403
-0.113282 -0.093780 -0.266494
-0.113298 -0.093935 -0.266585
-0.113213 -0.094138 -0.266702
-0.113229 -0.094293 -0.266794
-0.106856 -0.097487 -0.268558
-0.106873 -0.097656 -0.268657
-0.106789 -0.097873 -0.268783
-0.106807 -0.098043 -0.268883
-0.106825 -0.098212 -0.268982
-0.106842 -0.098381 -0.269082
-0.106961 -0.098500 -0.269154
-0.106979 -0.098669 -0.269254
-0.106895 -0.098888 -0.269381
-0.118742 -0.087403 -0.263028
-0.118655 -0.087587 -0.263135
-0.118568 -0.087772 -0.263242
-0.118378 -0.088000 -0.263373
-0.118393 -0.088143 -0.263457
-0.118000 -0.088457 -0.263636
-0.117709 -0.088731 -0.263792
-0.117316 -0.089048 -0.263973
-0.117127 -0.089281 -0.264107
-0.116531 -0.089689 -0.264338
-0.116546 -0.089837 -0.264425
-0.116459 -0.090028 -0.264536
-0.116271 -0.090264 -0.264672
-0.116184 -0.090457 -0.264783
-0.116098 -0.090650 -0.264895
-0.116113 -0.090798 -0.264983
-0.116027 -0.090992 -0.265095
-0.116043 -0.091140 -0.265182
-0.115956 -0.091335 -0.265295
-0.115870 -0.091529 -0.265408
-0.113172 -0.093234 -0.266370
-0.113188 -0.093389 -0.266461
-0.113102 -0.093591 -0.266578
-0.113118 -0.093746 -0.266669
-0.113134 -0.093901 -0.266761
-0.113049 -0.094104 -0.266878
-0.106669 -0.097277 -0.268648
-0.106788 -0.097398 -0.268720
-0.106805 -0.097567 -0.268820
-0.106722 -0.097785 -0.268946
-0.106739 -0.097954 -0.269046
-0.106757 -0.098123 -0.269145
-0.106774 -0.098292 -0.269245
-0.106792 -0.098461 -0.269344
-0.106810 -0.098630 -0.269444
-0.106827 -0.098799 -0.269543
-0.118788 -0.087287 -0.263142
-0.118598 -0.087513 -0.263272
-0.118511 -0.087697 -0.263380
-0.118321 -0.087924 -0.263511
-0.118336 -0.088068 -0.263595
-0.116354 -0.089508 -0.264417
-0.116370 -0.089656 -0.264504
-0.116283 -0.089847 -0.264615
-0.116094 -0.090083 -0.264752
-0.116008 -0.090275 -0.264864
-0.116023 -0.090424 -0.264951
-0.115937 -0.090617 -0.265063
-0.115952 -0.090765 -0.265151
-0.115866 -0.090959 -0.265263
-0.115779 -0.091153 -0.265376
-0.115082 -0.091621 -0.265643
-0.114588 -0.092001 -0.265860
-0.114299 -0.092291 -0.266027
-0.112906 -0.093246 -0.266571
-0.112922 -0.093401 -0.266662
-0.112938 -0.093557 -0.266754
-0.112853 -0.093759 -0.266872
-0.112767 -0.093962 -0.266990
-0.106685 -0.096972 -0.268684
-0.106601 -0.097188 -0.268811
-0.106720 -0.097309 -0.268883
-0.106738 -0.097478 -0.268983
-0.106654 -0.097696 -0.269109
-0.106671 -0.097865 -0.269209
-0.106689 -0.098034 -0.269308
-0.106707 -0.098203 -0.269408
-0.106724 -0.098372 -0.269507
-0.106742 -0.098541 -0.269607
-0.118731 -0.087212 -0.263279
-0.118643 -0.087396 -0.263386
-0.118249 -0.087706 -0.263564
-0.118264 -0.087849 -0.263649
-0.118279 -0.087992 -0.263733
-0.115886 -0.089604 -0.264657
-0.115902 -0.089752 -0.264745
-0.115815 -0.089944 -0.264857
-0.115831 -0.090093 -0.264944
-0.115744 -0.090286 -0.265056
-0.115453 -0.090568 -0.265219
-0.115571 -0.090672 -0.265282
-0.115587 -0.090822 -0.265370
-0.115398 -0.091061 -0.265509
-0.115210 -0.091301 -0.265648
-0.115022 -0.091542 -0.265788
-0.114528 -0.091921 -0.266006
-0.114238 -0.092211 -0.266173
-0.113235 -0.092824 -0.266524
-0.112946 -0.093118 -0.266694
-0.112758 -0.093366 -0.266838
-0.112774 -0.093522 -0.266930
-0.106600 -0.096714 -0.268748
-0.106617 -0.096883 -0.268847
-0.106533 -0.097099 -0.268973
-0.106653 -0.097221 -0.269046
-0.106670 -0.097390 -0.269145
-0.106586 -0.097607 -0.269272
-0.106604 -0.097776 -0.269372
-0.106621 -0.097945 -0.269471
-0.106639 -0.098114 -0.269571
-0.106657 -0.098284 -0.269670
-0.118674 -0.087138 -0.263416
-0.118586 -0.087321 -0.263523
-0.115505 -0.089506 -0.264786
-0.115623 -0.089612 -0.264849
-0.115638 -0.089761 -0.264937
-0.115551 -0.089954 -0.265050
-0.115465 -0.090146 -0.265162
-0.115378 -0.090340 -0.265275
-0.115394 -0.090489 -0.265363
-0.115307 -0.090683 -0.265477
-0.115221 -0.090877 -0.265590
-0.114930 -0.091162 -0.265756
-0.114742 -0.091403 -0.265896
-0.114553 -0.091645 -0.266037
-0.113753 -0.092161 -0.266335
-0.113769 -0.092314 -0.266425
-0.113173 -0.092743 -0.266673
-0.112883 -0.093036 -0.266844
-0.112696 -0.093285 -0.266988
-0.106413 -0.096503 -0.268838
-0.106430 -0.096672 -0.268937
-0.106448 -0.096842 -0.269037
-0.106466 -0.097011 -0.269136
-0.106483 -0.097180 -0.269236
-0.106501 -0.097349 -0.269335
-0.106518 -0.097518 -0.269435
-0.106536 -0.097687 -0.269534
-0.106554 -0.097856 -0.269634
-0.106571 -0.098026 -0.269734
-0.118617 -0.087063 -0.263552
-0.118529 -0.087247 -0.263660
-0.115445 -0.089428 -0.264930
-0.115461 -0.089577 -0.265018
-0.115169 -0.089856 -0.265180
-0.115082 -0.090049 -0.265294
-0.114996 -0.090243 -0.265407
-0.115011 -0.090393 -0.265496
-0.114925 -0.090587 -0.265609
-0.114838 -0.090782 -0.265724
-0.114752 -0.090977 -0.265838
-0.114461 -0.091262 -0.266004
-0.114273 -0.091504 -0.266146
-0.114084 -0.091746 -0.266287
-0.113692 -0.092080 -0.266482
-0.113401 -0.092371 -0.266652
-0.113009 -0.092708 -0.266849
-0.106345 -0.096414 -0.269001
-0.106363 -0.096584 -0.269100
-0.106380 -0.096753 -0.269200
-0.106398 -0.096922 -0.269299
-0.106415 -0.097091 -0.269399
-0.106433 -0.097260 -0.269498
-0.106451 -0.097429 -0.269598
-0.106468 -0.097598 -0.269697
-0.106486 -0.097768 -0.269797
-0.106402 -0.097986 -0.269925
-0.118560 -0.086989 -0.263689
-0.118472 -0.087172 -0.263797
-0.114771 -0.089606 -0.265223
-0.114786 -0.089757 -0.265312
-0.114700 -0.089950 -0.265426
-0.114715 -0.090101 -0.265514
-0.114629 -0.090295 -0.265628
-0.114644 -0.090446 -0.265717
-0.114558 -0.090640 -0.265831
-0.114471 -0.090836 -0.265946
-0.114282 -0.091076 -0.266087
-0.113685 -0.091496 -0.266333
-0.113701 -0.091649 -0.266423
-0.113512 -0.091892 -0.266566
-0.113017 -0.092272 -0.266789
-0.113033 -0.092427 -0.266880
-0.112947 -0.092627 -0.266998
-0.106158 -0.096203 -0.269091
-0.106277 -0.096326 -0.269164
-0.106295 -0.096495 -0.269263
-0.106312 -0.096664 -0.269363
-0.106228 -0.096880 -0.269490
-0.106246 -0.097050 -0.269590
-0.106263 -0.097219 -0.269689
-0.106281 -0.097388 -0.269789
-0.106401 -0.097510 -0.269860
-0.106418 -0.097679 -0.269960
-0.118503 -0.086914 -0.263826
-0.118415 -0.087097 -0.263934
-0.114521 -0.089763 -0.265507
-0.114537 -0.089914 -0.265596
-0.114553 -0.090065 -0.265685
-0.114568 -0.090216 -0.265773
-0.114481 -0.090410 -0.265888
-0.114395 -0.090605 -0.266003
-0.114206 -0.090845 -0.266144
-0.113915 -0.091129 -0.266312
-0.113726 -0.091371 -0.266454
-0.113639 -0.091568 -0.266571
-0.113451 -0.091811 -0.266714
-0.113058 -0.092146 -0.266911
-0.112971 -0.092345 -0.267029
-0.106090 -0.096114 -0.269254
-0.106107 -0.096283 -0.269354
-0.106125 -0.096453 -0.269454
-0.106143 -0.096622 -0.269553
-0.106160 -0.096791 -0.269653
-0.106178 -0.096961 -0.269753
-0.106196 -0.097130 -0.269852
-0.106213 -0.097300 -0.269952
-0.106231 -0.097469 -0.270052
-0.118446 -0.086840 -0.263963
-0.118358 -0.087023 -0.264071
-0.114374 -0.089878 -0.265767
-0.114390 -0.090029 -0.265856
-0.114303 -0.090223 -0.265970
-0.114319 -0.090375 -0.266059
-0.114232 -0.090570 -0.266175
-0.113940 -0.090853 -0.266343
-0.113854 -0.091049 -0.266459
-0.113665 -0.091291 -0.266601
-0.113476 -0.091533 -0.266745
-0.113082 -0.091866 -0.266942
-0.112996 -0.092065 -0.267060
-0.106022 -0.096025 -0.269417
-0.106039 -0.096194 -0.269517
-0.106057 -0.096364 -0.269617
-0.106075 -0.096533 -0.269716
-0.106092 -0.096703 -0.269816
-0.106110 -0.096872 -0.269916
-0.106128 -0.097041 -0.270015
-0.106145 -0.097211 -0.270115
-0.106061 -0.097428 -0.270243
-0.118302 -0.086948 -0.264208
-0.113950 -0.090426 -0.266284
-0.113966 -0.090577 -0.266373
-0.113879 -0.090773 -0.266489
-0.113690 -0.091014 -0.266632
-0.113501 -0.091255 -0.266775
-0.113004 -0.091631 -0.267000
-0.113020 -0.091785 -0.267090
-0.112729 -0.092074 -0.267262
-0.105954 -0.095936 -0.269580
-0.105972 -0.096106 -0.269680
-0.105989 -0.096275 -0.269780
-0.106007 -0.096444 -0.269879
-0.105922 -0.096661 -0.270007
-0.105940 -0.096830 -0.270107
-0.105958 -0.097000 -0.270207
-0.105975 -0.097169 -0.270307
-0.113787 -0.090389 -0.266457
-0.113803 -0.090541 -0.266546
-0.113613 -0.090781 -0.266689
-0.112651 -0.091838 -0.267320
-0.112667 -0.091993 -0.267411
-0.105614 -0.096325 -0.270028
-0.105632 -0.096495 -0.270128
-0.105650 -0.096665 -0.270228
-0.105668 -0.096835 -0.270328
-0.105685 -0.097005 -0.270428
-0.113536 -0.090548 -0.266746
-0.113552 -0.090701 -0.266836
-0.105239 -0.096375 -0.270277
-0.105257 -0.096546 -0.270377
-0.105274 -0.096716 -0.270478
-0.105292 -0.096887 -0.270578
-0.104760 -0.096470 -0.270556
-0.104778 -0.096642 -0.270657
-0.104796 -0.096813 -0.270758
-0.104325 -0.094924 -0.269868
-0.104343 -0.095096 -0.269969
-0.104361 -0.095268 -0.270071
-0.104379 -0.095440 -0.270172
-0.104397 -0.095612 -0.270273
-0.104312 -0.095829 -0.270403
-0.104227 -0.096047 -0.270532
-0.104245 -0.096219 -0.270634
-0.104161 -0.096438 -0.270764
-0.104384 -0.096518 -0.270808
-0.104402 -0.096690 -0.270909
-0.104420 -0.096863 -0.271011
-0.104100 -0.094361 -0.269758
-0.104118 -0.094533 -0.269859
-0.104135 -0.094706 -0.269960
-0.104256 -0.094834 -0.270034
-0.104274 -0.095006 -0.270135
-0.104292 -0.095178 -0.270236
-0.104310 -0.095350 -0.270337
-0.104328 -0.095522 -0.270439
-0.104243 -0.095739 -0.270568
-0.104158 -0.095956 -0.270699
-0.104176 -0.096129 -0.270800
-0.104091 -0.096347 -0.270930
-0.104109 -0.096520 -0.271032
-0.104127 -0.096692 -0.271134
-0.104031 -0.094271 -0.269924
-0.104049 -0.094443 -0.270025
-0.104067 -0.094615 -0.270126
-0.104084 -0.094787 -0.270228
-0.104205 -0.094916 -0.270301
-0.104223 -0.095088 -0.270402
-0.104241 -0.095260 -0.270503
-0.104156 -0.095476 -0.270633
-0.104174 -0.095649 -0.270734
-0.104089 -0.095866 -0.270865
-0.104004 -0.096084 -0.270995
-0.103919 -0.096302 -0.271126
-0.103937 -0.096475 -0.271228
-0.103980 -0.094353 -0.270191
-0.103998 -0.094525 -0.270292
-0.104015 -0.094697 -0.270393
-0.104033 -0.094869 -0.270495
-0.104051 -0.095041 -0.270596
-0.104069 -0.095214 -0.270698
-0.104087 -0.095386 -0.270799
-0.104002 -0.095603 -0.270929
-0.104020 -0.095775 -0.271031
-0.103935 -0.095993 -0.271161
