ply
format ascii 1.0
element vertex 2223
property float x
property float y
property float z
end_header
0.034408 0.008212 0.074800
0.034599 0.008212 0.074800
0.034789 0.008212 0.074800
0.034980 0.008212 0.074800
0.035171 0.008212 0.074800
0.035361 0.008212 0.074800
0.035600 0.008223 0.074900
0.035791 0.008223 0.074900
0.034408 0.008403 0.074800
0.034599 0.008403 0.074800
0.034789 0.008403 0.074800
0.034980 0.008403 0.074800
0.035171 0.008403 0.074800
0.035361 0.008403 0.074800
0.035600 0.008414 0.074900
0.035791 0.008414 0.074900
0.034408 0.008594 0.074800
0.034599 0.008594 0.074800
0.034789 0.008594 0.074800
0.034980 0.008594 0.074800
0.035218 0.008606 0.074900
0.035409 0.008606 0.074900
0.035600 0.008606 0.074900
0.035791 0.008606 0.074900
0.036029 0.008617 0.075000
0.034408 0.008785 0.074800
0.034599 0.008785 0.074800
0.034789 0.008785 0.074800
0.035027 0.008797 0.074900
0.035218 0.008797 0.074900
0.035409 0.008797 0.074900
0.035600 0.008797 0.074900
0.035791 0.008797 0.074900
0.036029 0.008809 0.075000
0.034645 0.008988 0.074900
0.034836 0.008988 0.074900
0.035027 0.008988 0.074900
0.035218 0.008988 0.074900
0.035456 0.009000 0.075000
0.035647 0.009000 0.075000
0.035838 0.009000 0.075000
0.036029 0.009000 0.075000
0.034645 0.009180 0.074900
0.034836 0.009180 0.074900
0.035074 0.009192 0.075000
0.035265 0.009192 0.075000
0.035456 0.009192 0.075000
0.035647 0.009192 0.075000
0.035838 0.009192 0.075000
0.036078 0.009204 0.075100
0.036317 0.009217 0.075200
0.034645 0.009371 0.074900
0.034882 0.009384 0.075000
0.035074 0.009384 0.075000
0.035265 0.009384 0.075000
0.035456 0.009384 0.075000
0.035647 0.009384 0.075000
0.035886 0.009396 0.075100
0.036078 0.009396 0.075100
0.036317 0.009409 0.075200
0.034454 0.009563 0.074900
0.034645 0.009563 0.074900
0.034882 0.009575 0.075000
0.035074 0.009575 0.075000
0.035265 0.009575 0.075000
0.035456 0.009575 0.075000
0.035695 0.009588 0.075100
0.035886 0.009588 0.075100
0.036078 0.009588 0.075100
0.036317 0.009601 0.075200
0.034454 0.009754 0.074900
0.034645 0.009754 0.074900
0.034882 0.009767 0.075000
0.035074 0.009767 0.075000
0.035265 0.009767 0.075000
0.035456 0.009767 0.075000
0.035695 0.009780 0.075100
0.035886 0.009780 0.075100
0.036126 0.009793 0.075200
0.036317 0.009793 0.075200
0.036558 0.009806 0.075300
0.034454 0.009945 0.074900
0.034645 0.009945 0.074900
0.034882 0.009959 0.075000
0.035074 0.009959 0.075000
0.035312 0.009972 0.075100
0.035503 0.009972 0.075100
0.035695 0.009972 0.075100
0.035886 0.009972 0.075100
0.036126 0.009985 0.075200
0.036317 0.009985 0.075200
0.036558 0.009999 0.075300
0.034454 0.010137 0.074900
0.034645 0.010137 0.074900
0.034836 0.010137 0.074900
0.035074 0.010150 0.075000
0.035265 0.010150 0.075000
0.035456 0.010150 0.075000
0.035695 0.010164 0.075100
0.035886 0.010164 0.075100
0.036126 0.010177 0.075200
0.036317 0.010177 0.075200
0.036509 0.010177 0.075200
0.034454 0.010328 0.074900
0.034645 0.010328 0.074900
0.034836 0.010328 0.074900
0.035074 0.010342 0.075000
0.035265 0.010342 0.075000
0.035456 0.010342 0.075000
0.035695 0.010356 0.075100
0.035886 0.010356 0.075100
0.036078 0.010356 0.075100
0.036317 0.010370 0.075200
0.036509 0.010370 0.075200
0.034408 0.010506 0.074800
0.034599 0.010506 0.074800
0.034836 0.010520 0.074900
0.035027 0.010520 0.074900
0.035265 0.010534 0.075000
0.035456 0.010534 0.075000
0.035647 0.010534 0.075000
0.035886 0.010548 0.075100
0.036078 0.010548 0.075100
0.036269 0.010548 0.075100
0.036460 0.010548 0.075100
0.036701 0.010562 0.075200
0.034408 0.010697 0.074800
0.034599 0.010697 0.074800
0.034789 0.010697 0.074800
0.034980 0.010697 0.074800
0.035218 0.010711 0.074900
0.035409 0.010711 0.074900
0.035647 0.010725 0.075000
0.035838 0.010725 0.075000
0.036029 0.010725 0.075000
0.036269 0.010740 0.075100
0.036460 0.010740 0.075100
0.036701 0.010754 0.075200
0.034362 0.010873 0.074700
0.034552 0.010873 0.074700
0.034789 0.010888 0.074800
0.034980 0.010888 0.074800
0.035171 0.010888 0.074800
0.035361 0.010888 0.074800
0.035600 0.010902 0.074900
0.035791 0.010902 0.074900
0.035981 0.010902 0.074900
0.036221 0.010917 0.075000
0.036412 0.010917 0.075000
0.036652 0.010931 0.075100
0.034316 0.011049 0.074600
0.034506 0.011049 0.074600
0.034696 0.011049 0.074600
0.034886 0.011049 0.074600
0.035124 0.011064 0.074700
0.035361 0.011079 0.074800
0.035552 0.011079 0.074800
0.035743 0.011079 0.074800
0.035981 0.011094 0.074900
0.036172 0.011094 0.074900
0.036412 0.011109 0.075000
0.036652 0.011123 0.075100
0.034316 0.011240 0.074600
0.034506 0.011240 0.074600
0.034696 0.011240 0.074600
0.034886 0.011240 0.074600
0.035077 0.011240 0.074600
0.035314 0.011255 0.074700
0.035505 0.011255 0.074700
0.035695 0.011255 0.074700
0.035933 0.011270 0.074800
0.036124 0.011270 0.074800
0.036363 0.011285 0.074900
0.036603 0.011300 0.075000
0.034603 0.011400 0.074400
0.034793 0.011400 0.074400
0.035030 0.011415 0.074500
0.035220 0.011415 0.074500
0.035457 0.011430 0.074600
0.035695 0.011446 0.074700
0.035885 0.011446 0.074700
0.036124 0.011461 0.074800
0.036315 0.011461 0.074800
0.036603 0.011492 0.075000
0.034510 0.011559 0.074200
0.034699 0.011559 0.074200
0.034936 0.011574 0.074300
0.035172 0.011590 0.074400
0.035409 0.011606 0.074500
0.035647 0.011621 0.074600
0.035837 0.011621 0.074600
0.036076 0.011637 0.074700
0.036315 0.011652 0.074800
0.030081 0.010529 0.066500
0.034417 0.011717 0.074000
0.034606 0.011717 0.074000
0.034842 0.011733 0.074100
0.035125 0.011764 0.074300
0.035362 0.011780 0.074400
0.035599 0.011796 0.074500
0.035837 0.011812 0.074600
0.036076 0.011828 0.074700
0.036315 0.011843 0.074800
0.030127 0.010715 0.066600
0.034371 0.011890 0.073900
0.034559 0.011890 0.073900
0.034795 0.011906 0.074000
0.035030 0.011922 0.074100
0.035314 0.011954 0.074300
0.035552 0.011970 0.074400
0.035789 0.011986 0.074500
0.036076 0.012018 0.074700
0.036315 0.012035 0.074800
0.029912 0.010869 0.066500
0.030127 0.010885 0.066600
0.033902 0.012046 0.073700
0.034090 0.012046 0.073700
0.034278 0.012046 0.073700
0.034466 0.012046 0.073700
0.034700 0.012062 0.073800
0.034983 0.012095 0.074000
0.035267 0.012128 0.074200
0.035504 0.012144 0.074300
0.035789 0.012177 0.074500
0.036028 0.012193 0.074600
0.036315 0.012226 0.074800
0.036603 0.012258 0.075000
0.029912 0.011039 0.066500
0.030127 0.011056 0.066600
0.033623 0.012201 0.073500
0.033810 0.012201 0.073500
0.033997 0.012201 0.073500
0.034185 0.012201 0.073500
0.034466 0.012234 0.073700
0.034653 0.012234 0.073700
0.034936 0.012267 0.073900
0.035219 0.012301 0.074100
0.035504 0.012334 0.074300
0.035741 0.012350 0.074400
0.036028 0.012384 0.074600
0.036315 0.012417 0.074800
0.036603 0.012450 0.075000
0.029698 0.011192 0.066400
0.029912 0.011209 0.066500
0.030127 0.011226 0.066600
0.033577 0.012372 0.073400
0.033764 0.012372 0.073400
0.033997 0.012389 0.073500
0.034185 0.012389 0.073500
0.034419 0.012406 0.073600
0.034606 0.012406 0.073600
0.034889 0.012439 0.073800
0.035172 0.012473 0.074000
0.035456 0.012507 0.074200
0.035741 0.012540 0.074400
0.036028 0.012574 0.074600
0.036315 0.012608 0.074800
0.036652 0.012658 0.075100
0.036941 0.012692 0.075300
0.037232 0.012726 0.075500
0.029742 0.011379 0.066500
0.029957 0.011396 0.066600
0.030127 0.011396 0.066600
0.033531 0.012542 0.073300
0.033718 0.012542 0.073300
0.033951 0.012559 0.073400
0.034138 0.012559 0.073400
0.034372 0.012577 0.073500
0.034606 0.012594 0.073600
0.034889 0.012628 0.073800
0.035172 0.012662 0.074000
0.035456 0.012696 0.074200
0.035741 0.012731 0.074400
0.036076 0.012782 0.074700
0.036363 0.012816 0.074900
0.036652 0.012850 0.075100
0.036941 0.012885 0.075300
0.037232 0.012919 0.075500
0.029573 0.011549 0.066500
0.029787 0.011566 0.066600
0.033531 0.012730 0.073300
0.033718 0.012730 0.073300
0.033905 0.012730 0.073300
0.034092 0.012730 0.073300
0.034325 0.012747 0.073400
0.034559 0.012764 0.073500
0.034841 0.012799 0.073700
0.035172 0.012851 0.074000
0.035456 0.012886 0.074200
0.035789 0.012938 0.074500
0.036076 0.012973 0.074700
0.036412 0.013025 0.075000
0.036701 0.013060 0.075200
0.036990 0.013094 0.075400
0.037232 0.013112 0.075500
0.037474 0.013129 0.075600
0.029662 0.011754 0.066700
0.029832 0.011754 0.066700
0.033299 0.012899 0.073200
0.033485 0.012899 0.073200
0.033672 0.012899 0.073200
0.033859 0.012899 0.073200
0.034092 0.012917 0.073300
0.034279 0.012917 0.073300
0.034559 0.012952 0.073500
0.034841 0.012987 0.073700
0.035172 0.013040 0.074000
0.035456 0.013076 0.074200
0.035789 0.013128 0.074500
0.036124 0.013181 0.074800
0.036460 0.013234 0.075100
0.036749 0.013269 0.075300
0.036990 0.013287 0.075400
0.037281 0.013322 0.075600
0.037474 0.013322 0.075600
0.029706 0.011942 0.066800
0.030011 0.011996 0.067100
0.030227 0.012014 0.067200
0.033299 0.013086 0.073200
0.033394 0.013051 0.073000
0.033580 0.013051 0.073000
0.033812 0.013068 0.073100
0.033999 0.013068 0.073100
0.034232 0.013086 0.073200
0.034465 0.013104 0.073300
0.034794 0.013158 0.073600
0.035124 0.013212 0.073900
0.035456 0.013265 0.074200
0.035789 0.013319 0.074500
0.036172 0.013390 0.074900
0.036509 0.013444 0.075200
0.036749 0.013462 0.075300
0.037089 0.013515 0.075600
0.037281 0.013515 0.075600
0.037524 0.013533 0.075700
0.029840 0.012167 0.067100
0.030011 0.012167 0.067100
0.030227 0.012185 0.067200
0.030579 0.012258 0.067600
0.033348 0.013219 0.072900
0.033534 0.013219 0.072900
0.033720 0.013219 0.072900
0.033906 0.013219 0.072900
0.034138 0.013237 0.073000
0.034418 0.013273 0.073200
0.034794 0.013346 0.073600
0.035124 0.013400 0.073900
0.035504 0.013473 0.074300
0.035837 0.013527 0.074600
0.036172 0.013582 0.074900
0.036558 0.013654 0.075300
0.036798 0.013672 0.075400
0.037089 0.013709 0.075600
0.037281 0.013709 0.075600
0.037524 0.013727 0.075700
0.029840 0.012339 0.067100
0.030055 0.012357 0.067200
0.030317 0.012394 0.067400
0.030579 0.012431 0.067600
0.033257 0.013369 0.072700
0.033442 0.013369 0.072700
0.033627 0.013369 0.072700
0.033859 0.013387 0.072800
0.034091 0.013405 0.072900
0.034371 0.013442 0.073100
0.034747 0.013516 0.073500
0.035647 0.013718 0.074600
0.035837 0.013718 0.074600
0.036221 0.013791 0.075000
0.036558 0.013847 0.075300
0.036847 0.013883 0.075500
0.037089 0.013902 0.075600
0.037281 0.013902 0.075600
0.037524 0.013920 0.075700
0.029840 0.012510 0.067100
0.030100 0.012547 0.067300
0.030362 0.012585 0.067500
0.030624 0.012622 0.067700
0.033257 0.013554 0.072700
0.033350 0.013517 0.072500
0.033535 0.013517 0.072500
0.033766 0.013536 0.072600
0.033951 0.013536 0.072600
0.034277 0.013592 0.072900
0.034652 0.013666 0.073300
0.035599 0.013890 0.074500
0.035789 0.013890 0.074500
0.036172 0.013964 0.074900
0.036606 0.014058 0.075400
0.036847 0.014076 0.075500
0.037089 0.014095 0.075600
0.037331 0.014114 0.075700
0.037524 0.014114 0.075700
0.029840 0.012682 0.067100
0.030100 0.012719 0.067300
0.030362 0.012757 0.067500
0.030669 0.012814 0.067800
0.033074 0.013664 0.072300
0.033258 0.013664 0.072300
0.033489 0.013683 0.072400
0.033720 0.013702 0.072500
0.033904 0.013702 0.072500
0.034277 0.013778 0.072900
0.034652 0.013853 0.073300
0.035172 0.013986 0.074000
0.035360 0.013986 0.074000
0.035741 0.014061 0.074400
0.036124 0.014137 0.074800
0.036558 0.014231 0.075300
0.036749 0.014231 0.075300
0.037089 0.014288 0.075600
0.037281 0.014288 0.075600
0.037524 0.014307 0.075700
0.029580 0.012815 0.066900
0.029929 0.012891 0.067300
0.030100 0.012891 0.067300
0.030362 0.012930 0.067500
0.033028 0.013830 0.072200
0.033212 0.013830 0.072200
0.033442 0.013849 0.072300
0.033673 0.013868 0.072400
0.033904 0.013887 0.072500
0.034230 0.013945 0.072800
0.034605 0.014022 0.073200
0.035172 0.014175 0.074000
0.035360 0.014175 0.074000
0.035645 0.014213 0.074200
0.036028 0.014290 0.074600
0.036460 0.014386 0.075100
0.036749 0.014424 0.075300
0.036990 0.014443 0.075400
0.037232 0.014462 0.075500
0.037524 0.014500 0.075700
0.029492 0.012947 0.066700
0.029929 0.013063 0.067300
0.030100 0.013063 0.067300
0.030407 0.013122 0.067600
0.032982 0.013995 0.072100
0.033166 0.013995 0.072100
0.033442 0.014034 0.072300
0.033627 0.014034 0.072300
0.033858 0.014053 0.072400
0.034183 0.014112 0.072700
0.034558 0.014189 0.073100
0.035456 0.014403 0.074200
0.035645 0.014403 0.074200
0.035979 0.014461 0.074500
0.036363 0.014539 0.074900
0.036749 0.014616 0.075300
0.036990 0.014636 0.075400
0.037232 0.014655 0.075500
0.037524 0.014694 0.075700
0.029403 0.013078 0.066500
0.029929 0.013235 0.067300
0.030100 0.013235 0.067300
0.032072 0.013943 0.070900
0.032252 0.013943 0.070900
0.032936 0.014160 0.072000
0.033166 0.014179 0.072100
0.033396 0.014199 0.072200
0.033627 0.014219 0.072300
0.033858 0.014238 0.072400
0.034183 0.014297 0.072700
0.034510 0.014356 0.073000
0.034839 0.014415 0.073300
0.035169 0.014474 0.073600
0.035501 0.014533 0.073900
0.035834 0.014592 0.074200
0.036363 0.014730 0.074900
0.029315 0.013208 0.066300
0.032072 0.014124 0.070900
0.032252 0.014124 0.070900
0.032936 0.014344 0.072000
0.033166 0.014364 0.072100
0.033396 0.014383 0.072200
0.033627 0.014403 0.072300
0.033858 0.014423 0.072400
0.034136 0.014463 0.072600
0.034463 0.014523 0.072900
0.034792 0.014583 0.073200
0.035074 0.014623 0.073400
0.035405 0.014682 0.073700
0.035738 0.014742 0.074000
0.036072 0.014802 0.074300
0.029315 0.013377 0.066300
0.032753 0.014528 0.072000
0.032936 0.014528 0.072000
0.033166 0.014548 0.072100
0.033396 0.014568 0.072200
0.033627 0.014588 0.072300
0.033858 0.014608 0.072400
0.034136 0.014649 0.072600
0.034463 0.014709 0.072900
0.034744 0.014750 0.073100
0.035026 0.014790 0.073300
0.035309 0.014830 0.073500
0.035593 0.014871 0.073700
0.036072 0.014992 0.074300
0.029182 0.013486 0.066000
0.029350 0.013486 0.066000
0.032615 0.014732 0.072100
0.032798 0.014732 0.072100
0.032982 0.014732 0.072100
0.033166 0.014732 0.072100
0.033442 0.014773 0.072300
0.033627 0.014773 0.072300
0.033858 0.014793 0.072400
0.034183 0.014855 0.072700
0.034463 0.014895 0.072900
0.034697 0.014916 0.073000
0.034978 0.014957 0.073200
0.035213 0.014977 0.073300
0.035496 0.015018 0.073500
0.035732 0.015038 0.073600
0.029050 0.013592 0.065700
0.029217 0.013592 0.065700
0.032615 0.014916 0.072100
0.032798 0.014916 0.072100
0.032982 0.014916 0.072100
0.033212 0.014937 0.072200
0.033442 0.014958 0.072300
0.033673 0.014978 0.072400
0.033904 0.014999 0.072500
0.034183 0.015040 0.072700
0.034463 0.015082 0.072900
0.034697 0.015102 0.073000
0.034930 0.015123 0.073100
0.035165 0.015144 0.073200
0.035448 0.015185 0.073400
0.035684 0.015206 0.073500
0.029005 0.013739 0.065600
0.029173 0.013739 0.065600
0.032615 0.015100 0.072100
0.032798 0.015100 0.072100
0.033028 0.015121 0.072200
0.033212 0.015121 0.072200
0.033442 0.015142 0.072300
0.033673 0.015163 0.072400
0.033904 0.015184 0.072500
0.034183 0.015226 0.072700
0.034463 0.015268 0.072900
0.034697 0.015289 0.073000
0.034930 0.015310 0.073100
0.035165 0.015331 0.073200
0.035448 0.015373 0.073400
0.035684 0.015394 0.073500
0.028961 0.013886 0.065500
0.029173 0.013907 0.065600
0.032705 0.015327 0.072300
0.032889 0.015327 0.072300
0.033074 0.015327 0.072300
0.033304 0.015348 0.072400
0.033489 0.015348 0.072400
0.033720 0.015369 0.072500
0.033951 0.015391 0.072600
0.034183 0.015412 0.072700
0.034463 0.015454 0.072900
0.034697 0.015475 0.073000
0.034978 0.015518 0.073200
0.035213 0.015539 0.073300
0.035448 0.015560 0.073400
0.035732 0.015603 0.073600
0.028961 0.014053 0.065500
0.029128 0.014053 0.065500
0.032521 0.015512 0.072300
0.032705 0.015512 0.072300
0.032889 0.015512 0.072300
0.033074 0.015512 0.072300
0.033304 0.015533 0.072400
0.033489 0.015533 0.072400
0.033720 0.015555 0.072500
0.033951 0.015576 0.072600
0.034230 0.015619 0.072800
0.034463 0.015641 0.072900
0.034744 0.015683 0.073100
0.035026 0.015726 0.073300
0.035261 0.015748 0.073400
0.035545 0.015791 0.073600
0.035732 0.015791 0.073600
0.028961 0.014220 0.065500
0.029128 0.014220 0.065500
0.032521 0.015697 0.072300
0.032705 0.015697 0.072300
0.032889 0.015697 0.072300
0.033074 0.015697 0.072300
0.033304 0.015718 0.072400
0.033535 0.015740 0.072500
0.033720 0.015740 0.072500
0.033951 0.015762 0.072600
0.034230 0.015805 0.072800
0.034463 0.015827 0.072900
0.034744 0.015870 0.073100
0.035026 0.015914 0.073300
0.035261 0.015935 0.073400
0.035545 0.015979 0.073600
0.035781 0.016000 0.073700
0.028961 0.014388 0.065500
0.029128 0.014388 0.065500
0.032521 0.015881 0.072300
0.032705 0.015881 0.072300
0.032889 0.015881 0.072300
0.033074 0.015881 0.072300
0.033304 0.015903 0.072400
0.033535 0.015925 0.072500
0.033720 0.015925 0.072500
0.033951 0.015947 0.072600
0.034230 0.015991 0.072800
0.034510 0.016035 0.073000
0.034792 0.016079 0.073200
0.035026 0.016101 0.073300
0.035309 0.016145 0.073500
0.035593 0.016189 0.073700
0.035878 0.016233 0.073900
0.028794 0.014555 0.065500
0.032521 0.016066 0.072300
0.032705 0.016066 0.072300
0.032889 0.016066 0.072300
0.033119 0.016088 0.072400
0.033304 0.016088 0.072400
0.033535 0.016110 0.072500
0.033720 0.016110 0.072500
0.033998 0.016155 0.072700
0.034230 0.016177 0.072800
0.034510 0.016222 0.073000
0.034792 0.016266 0.073200
0.035074 0.016310 0.073400
0.035357 0.016355 0.073600
0.035641 0.016399 0.073800
0.035878 0.016422 0.073900
0.036164 0.016466 0.074100
0.036402 0.016488 0.074200
0.028750 0.014700 0.065400
0.032521 0.016251 0.072300
0.032705 0.016251 0.072300
0.032889 0.016251 0.072300
0.033119 0.016273 0.072400
0.033304 0.016273 0.072400
0.033535 0.016296 0.072500
0.033766 0.016318 0.072600
0.033998 0.016341 0.072700
0.034277 0.016386 0.072900
0.034558 0.016431 0.073100
0.034839 0.016476 0.073300
0.035122 0.016520 0.073500
0.035405 0.016565 0.073700
0.035689 0.016610 0.073900
0.035926 0.016633 0.074000
0.036164 0.016655 0.074100
0.036402 0.016678 0.074200
0.036690 0.016723 0.074400
0.028750 0.014867 0.065400
0.032521 0.016436 0.072300
0.032705 0.016436 0.072300
0.032935 0.016458 0.072400
0.033119 0.016458 0.072400
0.033350 0.016481 0.072500
0.033535 0.016481 0.072500
0.033766 0.016504 0.072600
0.034045 0.016549 0.072800
0.034277 0.016572 0.072900
0.034605 0.016640 0.073200
0.034887 0.016686 0.073400
0.035169 0.016731 0.073600
0.035453 0.016776 0.073800
0.035738 0.016822 0.074000
0.035975 0.016845 0.074100
0.036213 0.016867 0.074200
0.036451 0.016890 0.074300
0.036690 0.016913 0.074400
0.028750 0.015034 0.065400
0.032521 0.016620 0.072300
0.032705 0.016620 0.072300
0.032935 0.016643 0.072400
0.033119 0.016643 0.072400
0.033350 0.016666 0.072500
0.033581 0.016689 0.072600
0.033766 0.016689 0.072600
0.034045 0.016735 0.072800
0.034324 0.016781 0.073000
0.034652 0.016850 0.073300
0.034934 0.016896 0.073500
0.035217 0.016942 0.073700
0.035501 0.016988 0.073900
0.035786 0.017034 0.074100
0.036023 0.017057 0.074200
0.036261 0.017080 0.074300
0.036549 0.017126 0.074500
0.036788 0.017149 0.074600
0.028540 0.015178 0.065300
0.032935 0.016828 0.072400
0.033119 0.016828 0.072400
0.033350 0.016851 0.072500
0.033627 0.016898 0.072700
0.033813 0.016898 0.072700
0.034091 0.016944 0.072900
0.034371 0.016991 0.073100
0.034700 0.017061 0.073400
0.034982 0.017107 0.073600
0.035265 0.017154 0.073800
0.035549 0.017200 0.074000
0.035883 0.017270 0.074300
0.036072 0.017270 0.074300
0.036359 0.017316 0.074500
0.036598 0.017340 0.074600
0.036838 0.017363 0.074700
0.032935 0.017013 0.072400
0.033074 0.016990 0.072300
0.033258 0.016990 0.072300
0.033442 0.016990 0.072300
0.033813 0.017084 0.072700
0.034138 0.017154 0.073000
0.034418 0.017201 0.073200
0.034747 0.017272 0.073500
0.035029 0.017319 0.073700
0.035313 0.017366 0.073900
0.035645 0.017436 0.074200
0.035931 0.017483 0.074400
0.036169 0.017507 0.074500
0.036408 0.017530 0.074600
0.036598 0.017530 0.074600
0.036887 0.017577 0.074800
0.033074 0.017174 0.072300
0.033258 0.017174 0.072300
0.033442 0.017174 0.072300
0.033813 0.017269 0.072700
0.034185 0.017365 0.073100
0.034512 0.017436 0.073400
0.034794 0.017483 0.073600
0.035077 0.017531 0.073800
0.035360 0.017578 0.074000
0.035693 0.017650 0.074300
0.035979 0.017697 0.074500
0.036218 0.017721 0.074600
0.036457 0.017745 0.074700
0.036696 0.017768 0.074800
0.036887 0.017768 0.074800
0.030597 0.016615 0.069200
0.030774 0.016615 0.069200
0.030950 0.016615 0.069200
0.031126 0.016615 0.069200
0.031348 0.016639 0.069300
0.031570 0.016663 0.069400
0.033627 0.017455 0.072700
0.033813 0.017455 0.072700
0.034232 0.017575 0.073200
0.034559 0.017647 0.073500
0.034841 0.017695 0.073700
0.035124 0.017743 0.073900
0.035408 0.017791 0.074100
0.035693 0.017839 0.074300
0.035979 0.017887 0.074500
0.036266 0.017935 0.074700
0.036505 0.017959 0.074800
0.036745 0.017983 0.074900
0.036936 0.017983 0.074900
0.027917 0.015870 0.065400
0.028083 0.015870 0.065400
0.028293 0.015894 0.065500
0.030421 0.016792 0.069200
0.030597 0.016792 0.069200
0.030774 0.016792 0.069200
0.030950 0.016792 0.069200
0.031126 0.016792 0.069200
0.031348 0.016816 0.069300
0.031570 0.016840 0.069400
0.034092 0.017787 0.073300
0.034279 0.017787 0.073300
0.034606 0.017859 0.073600
0.034889 0.017908 0.073800
0.035172 0.017956 0.074000
0.035408 0.017981 0.074100
0.035741 0.018054 0.074400
0.036028 0.018102 0.074600
0.036315 0.018151 0.074800
0.036554 0.018175 0.074900
0.036794 0.018199 0.075000
0.036985 0.018199 0.075000
0.027541 0.016012 0.065300
0.027707 0.016012 0.065300
0.027959 0.016061 0.065500
0.028126 0.016061 0.065500
0.028293 0.016061 0.065500
0.030244 0.016969 0.069200
0.030421 0.016969 0.069200
0.030597 0.016969 0.069200
0.030774 0.016969 0.069200
0.030995 0.016993 0.069300
0.031171 0.016993 0.069300
0.031393 0.017018 0.069400
0.031616 0.017042 0.069500
0.031839 0.017067 0.069600
0.032062 0.017091 0.069700
0.034138 0.017998 0.073400
0.034325 0.017998 0.073400
0.034653 0.018072 0.073700
0.034889 0.018096 0.073800
0.035172 0.018146 0.074000
0.035456 0.018195 0.074200
0.035741 0.018244 0.074400
0.036028 0.018293 0.074600
0.036315 0.018342 0.074800
0.036554 0.018366 0.074900
0.036794 0.018391 0.075000
0.037035 0.018415 0.075100
0.027375 0.016179 0.065300
0.027583 0.016204 0.065400
0.027750 0.016204 0.065400
0.027959 0.016229 0.065500
0.028169 0.016253 0.065600
0.028380 0.016278 0.065700
0.028547 0.016278 0.065700
0.030244 0.017145 0.069200
0.030421 0.017145 0.069200
0.030597 0.017145 0.069200
0.030774 0.017145 0.069200
0.030995 0.017170 0.069300
0.031171 0.017170 0.069300
0.031393 0.017195 0.069400
0.031570 0.017195 0.069400
0.031793 0.017220 0.069500
0.032016 0.017244 0.069600
0.032193 0.017244 0.069600
0.034185 0.018211 0.073500
0.034372 0.018211 0.073500
0.034653 0.018260 0.073700
0.034889 0.018285 0.073800
0.035172 0.018335 0.074000
0.035408 0.018359 0.074100
0.035741 0.018434 0.074400
0.036028 0.018483 0.074600
0.036315 0.018533 0.074800
0.036603 0.018582 0.075000
0.036843 0.018607 0.075100
0.037084 0.018632 0.075200
0.027416 0.016371 0.065400
0.027625 0.016396 0.065500
0.027792 0.016396 0.065500
0.028002 0.016421 0.065600
0.028212 0.016446 0.065700
0.028380 0.016446 0.065700
0.028547 0.016446 0.065700
0.030421 0.017322 0.069200
0.030597 0.017322 0.069200
0.030818 0.017347 0.069300
0.031039 0.017372 0.069400
0.031216 0.017372 0.069400
0.031393 0.017372 0.069400
0.031570 0.017372 0.069400
0.031793 0.017397 0.069500
0.032016 0.017422 0.069600
0.032193 0.017422 0.069600
0.034185 0.018399 0.073500
0.034372 0.018399 0.073500
0.034653 0.018449 0.073700
0.034889 0.018474 0.073800
0.035172 0.018524 0.074000
0.035408 0.018549 0.074100
0.035741 0.018624 0.074400
0.036076 0.018699 0.074700
0.036363 0.018749 0.074900
0.036603 0.018774 0.075000
0.036892 0.018824 0.075200
0.037133 0.018849 0.075300
0.027458 0.016563 0.065500
0.027625 0.016563 0.065500
0.027835 0.016589 0.065600
0.028045 0.016614 0.065700
0.028212 0.016614 0.065700
0.028423 0.016639 0.065800
0.030244 0.017499 0.069200
0.030421 0.017499 0.069200
0.030597 0.017499 0.069200
0.030818 0.017524 0.069300
0.031039 0.017550 0.069400
0.031216 0.017550 0.069400
0.031393 0.017550 0.069400
0.031616 0.017575 0.069500
0.031793 0.017575 0.069500
0.032016 0.017600 0.069600
0.032193 0.017600 0.069600
0.034185 0.018586 0.073500
0.034372 0.018586 0.073500
0.034653 0.018637 0.073700
0.034936 0.018687 0.073900
0.035219 0.018738 0.074100
0.035456 0.018763 0.074200
0.035789 0.018839 0.074500
0.036076 0.018890 0.074700
0.036412 0.018966 0.075000
0.036701 0.019016 0.075200
0.036941 0.019042 0.075300
0.037133 0.019042 0.075300
0.027458 0.016731 0.065500
0.027668 0.016756 0.065600
0.027877 0.016782 0.065700
0.028087 0.016807 0.065800
0.028255 0.016807 0.065800
0.028466 0.016833 0.065900
0.030201 0.017650 0.069100
0.030377 0.017650 0.069100
0.030597 0.017676 0.069200
0.030818 0.017701 0.069300
0.031039 0.017727 0.069400
0.031216 0.017727 0.069400
0.031393 0.017727 0.069400
0.031616 0.017752 0.069500
0.031793 0.017752 0.069500
0.032016 0.017778 0.069600
0.032193 0.017778 0.069600
0.034278 0.018825 0.073700
0.034466 0.018825 0.073700
0.034700 0.018851 0.073800
0.034983 0.018902 0.074000
0.035267 0.018953 0.074200
0.035552 0.019004 0.074400
0.035981 0.019132 0.074900
0.036172 0.019132 0.074900
0.036460 0.019183 0.075100
0.036749 0.019234 0.075300
0.036990 0.019259 0.075400
0.027500 0.016924 0.065600
0.027710 0.016950 0.065700
0.027920 0.016975 0.065800
0.028130 0.017001 0.065900
0.028298 0.017001 0.065900
0.028466 0.017001 0.065900
0.028721 0.017053 0.066100
0.030069 0.017749 0.068800
0.030245 0.017749 0.068800
0.030553 0.017827 0.069100
0.030774 0.017853 0.069200
0.030995 0.017878 0.069300
0.031216 0.017904 0.069400
0.031438 0.017930 0.069500
0.031616 0.017930 0.069500
0.031839 0.017956 0.069600
0.032016 0.017956 0.069600
0.034371 0.019065 0.073900
0.034559 0.019065 0.073900
0.034842 0.019117 0.074100
0.035125 0.019168 0.074300
0.035362 0.019194 0.074400
0.035647 0.019246 0.074600
0.036366 0.019426 0.075300
0.036558 0.019426 0.075300
0.036798 0.019452 0.075400
0.037089 0.019504 0.075600
0.027500 0.017091 0.065600
0.027710 0.017118 0.065700
0.027920 0.017144 0.065800
0.028130 0.017170 0.065900
0.028341 0.017196 0.066000
0.028509 0.017196 0.066000
0.028721 0.017222 0.066100
0.029807 0.017769 0.068200
0.029981 0.017769 0.068200
0.030332 0.017873 0.068600
0.030640 0.017951 0.068900
0.030905 0.018003 0.069100
0.031171 0.018055 0.069300
0.031393 0.018082 0.069400
0.031616 0.018108 0.069500
0.031839 0.018134 0.069600
0.032016 0.018134 0.069600
0.034464 0.019306 0.074100
0.034653 0.019306 0.074100
0.034936 0.019358 0.074300
0.035220 0.019410 0.074500
0.035934 0.019593 0.075200
0.036126 0.019593 0.075200
0.036414 0.019645 0.075400
0.036606 0.019645 0.075400
0.036896 0.019697 0.075600
0.037138 0.019723 0.075700
0.027752 0.017312 0.065800
0.027962 0.017338 0.065900
0.028173 0.017364 0.066000
0.028384 0.017391 0.066100
0.028552 0.017391 0.066100
0.028764 0.017417 0.066200
0.029807 0.017943 0.068200
0.029981 0.017943 0.068200
0.030155 0.017943 0.068200
0.030551 0.018075 0.068700
0.030860 0.018154 0.069000
0.031171 0.018233 0.069300
0.031393 0.018259 0.069400
0.031661 0.018311 0.069600
0.031839 0.018311 0.069600
0.032016 0.018311 0.069600
0.035027 0.019706 0.074900
0.035218 0.019706 0.074900
0.035742 0.019785 0.075200
0.035934 0.019785 0.075200
0.036126 0.019785 0.075200
0.036414 0.019837 0.075400
0.036703 0.019890 0.075600
0.036945 0.019916 0.075700
0.037187 0.019943 0.075800
0.027752 0.017480 0.065800
0.027962 0.017506 0.065900
0.028173 0.017533 0.066000
0.028384 0.017560 0.066100
0.028596 0.017586 0.066200
0.028808 0.017613 0.066300
0.029152 0.017719 0.066700
0.029542 0.017852 0.067200
0.030155 0.018117 0.068200
0.030551 0.018250 0.068700
0.030860 0.018330 0.069000
0.031216 0.018436 0.069400
0.031438 0.018463 0.069500
0.031616 0.018463 0.069500
0.031839 0.018489 0.069600
0.035027 0.019897 0.074900
0.035218 0.019897 0.074900
0.035598 0.020004 0.075300
0.035742 0.019977 0.075200
0.035934 0.019977 0.075200
0.036222 0.020030 0.075400
0.036510 0.020083 0.075600
0.036752 0.020110 0.075700
0.037042 0.020163 0.075900
0.037236 0.020163 0.075900
0.037577 0.020243 0.076200
0.037821 0.020269 0.076300
0.027794 0.017675 0.065900
0.028004 0.017702 0.066000
0.028215 0.017728 0.066100
0.028427 0.017755 0.066200
0.028639 0.017782 0.066300
0.028808 0.017782 0.066300
0.029152 0.017889 0.066700
0.029498 0.017997 0.067100
0.031438 0.018640 0.069500
0.031616 0.018640 0.069500
0.031839 0.018667 0.069600
0.035167 0.020169 0.075200
0.035359 0.020169 0.075200
0.035598 0.020196 0.075300
0.035790 0.020196 0.075300
0.036029 0.020223 0.075400
0.036318 0.020276 0.075600
0.036559 0.020303 0.075700
0.036800 0.020330 0.075800
0.037042 0.020357 0.075900
0.037285 0.020384 0.076000
0.037577 0.020437 0.076200
0.037821 0.020464 0.076300
0.027794 0.017843 0.065900
0.028004 0.017870 0.066000
0.028215 0.017897 0.066100
0.028427 0.017924 0.066200
0.028682 0.017979 0.066400
0.028895 0.018006 0.066500
0.029195 0.018087 0.066800
0.029454 0.018141 0.067000
0.029757 0.018222 0.067300
0.035307 0.020443 0.075500
0.035500 0.020443 0.075500
0.035740 0.020470 0.075600
0.035932 0.020470 0.075600
0.036173 0.020497 0.075700
0.036366 0.020497 0.075700
0.036607 0.020524 0.075800
0.036849 0.020551 0.075900
0.037091 0.020578 0.076000
0.037285 0.020578 0.076000
0.037577 0.020632 0.076200
0.037871 0.020686 0.076400
0.038115 0.020713 0.076500
0.027794 0.018012 0.065900
0.028004 0.018039 0.066000
0.028215 0.018066 0.066100
0.028427 0.018094 0.066200
0.028682 0.018148 0.066400
0.028895 0.018176 0.066500
0.029108 0.018203 0.066600
0.029454 0.018312 0.067000
0.029757 0.018394 0.067300
0.035354 0.020663 0.075600
0.035547 0.020663 0.075600
0.035787 0.020690 0.075700
0.035980 0.020690 0.075700
0.036173 0.020690 0.075700
0.036414 0.020717 0.075800
0.036655 0.020745 0.075900
0.036849 0.020745 0.075900
0.037091 0.020772 0.076000
0.037285 0.020772 0.076000
0.037577 0.020827 0.076200
0.037920 0.020909 0.076500
0.038115 0.020909 0.076500
0.027794 0.018180 0.065900
0.028004 0.018208 0.066000
0.028215 0.018235 0.066100
0.028427 0.018263 0.066200
0.028639 0.018290 0.066300
0.028895 0.018345 0.066500
0.029108 0.018373 0.066600
0.035354 0.020856 0.075600
0.035547 0.020856 0.075600
0.035740 0.020856 0.075600
0.035980 0.020884 0.075700
0.036173 0.020884 0.075700
0.036414 0.020911 0.075800
0.036655 0.020939 0.075900
0.036849 0.020939 0.075900
0.037091 0.020966 0.076000
0.037334 0.020994 0.076100
0.037577 0.021021 0.076200
0.037871 0.021077 0.076400
0.027794 0.018348 0.065900
0.028004 0.018376 0.066000
0.028215 0.018404 0.066100
0.028470 0.018460 0.066300
0.028639 0.018460 0.066300
0.028895 0.018515 0.066500
0.035261 0.020993 0.075400
0.035453 0.020993 0.075400
0.035692 0.021021 0.075500
0.035932 0.021049 0.075600
0.036173 0.021077 0.075700
0.036414 0.021105 0.075800
0.036655 0.021133 0.075900
0.036849 0.021133 0.075900
0.037091 0.021160 0.076000
0.037285 0.021160 0.076000
0.037577 0.021216 0.076200
0.037821 0.021244 0.076300
0.038065 0.021272 0.076400
0.027794 0.018517 0.065900
0.028004 0.018545 0.066000
0.028258 0.018601 0.066200
0.028470 0.018629 0.066300
0.028682 0.018657 0.066400
0.028938 0.018713 0.066600
0.034975 0.021130 0.075200
0.035167 0.021130 0.075200
0.035406 0.021158 0.075300
0.035645 0.021186 0.075400
0.035837 0.021186 0.075400
0.036125 0.021242 0.075600
0.036366 0.021270 0.075700
0.036655 0.021327 0.075900
0.036849 0.021327 0.075900
0.037042 0.021327 0.075900
0.037285 0.021355 0.076000
0.037577 0.021411 0.076200
0.037821 0.021439 0.076300
0.038065 0.021467 0.076400
0.027794 0.018685 0.065900
0.028004 0.018713 0.066000
0.028258 0.018770 0.066200
0.028470 0.018799 0.066300
0.028725 0.018855 0.066500
0.029025 0.018940 0.066800
0.034836 0.021237 0.074900
0.035027 0.021237 0.074900
0.035312 0.021294 0.075100
0.035550 0.021322 0.075200
0.035742 0.021322 0.075200
0.036029 0.021379 0.075400
0.036318 0.021435 0.075600
0.036607 0.021492 0.075800
0.036849 0.021520 0.075900
0.037042 0.021520 0.075900
0.037236 0.021520 0.075900
0.037528 0.021577 0.076100
0.037771 0.021606 0.076200
0.027836 0.018882 0.066000
0.028047 0.018911 0.066100
0.028258 0.018939 0.066200
0.028513 0.018997 0.066400
0.028768 0.019054 0.066600
0.029069 0.019140 0.066900
0.029414 0.019254 0.067300
0.029673 0.019311 0.067500
0.030199 0.019540 0.068300
0.030373 0.019540 0.068300
0.030682 0.019626 0.068600
0.030901 0.019655 0.068700
0.034743 0.021371 0.074700
0.034933 0.021371 0.074700
0.035218 0.021428 0.074900
0.035456 0.021457 0.075000
0.035647 0.021457 0.075000
0.035934 0.021514 0.075200
0.036270 0.021600 0.075500
0.036559 0.021657 0.075700
0.036800 0.021686 0.075800
0.037042 0.021714 0.075900
0.037236 0.021714 0.075900
0.037479 0.021743 0.076000
0.037722 0.021772 0.076100
0.027836 0.019051 0.066000
0.028047 0.019080 0.066100
0.028301 0.019137 0.066300
0.028556 0.019195 0.066500
0.028812 0.019253 0.066700
0.029112 0.019339 0.067000
0.029414 0.019426 0.067300
0.029673 0.019484 0.067500
0.030022 0.019599 0.067900
0.030329 0.019686 0.068200
0.030637 0.019772 0.068500
0.030856 0.019801 0.068600
0.034321 0.021418 0.074200
0.034510 0.021418 0.074200
0.034840 0.021504 0.074500
0.035077 0.021533 0.074600
0.035314 0.021562 0.074700
0.035552 0.021591 0.074800
0.035838 0.021649 0.075000
0.036174 0.021735 0.075300
0.036462 0.021793 0.075500
0.036752 0.021851 0.075700
0.036994 0.021880 0.075800
0.037187 0.021880 0.075800
0.037429 0.021908 0.075900
0.037623 0.021908 0.075900
0.027878 0.019249 0.066100
0.028132 0.019307 0.066300
0.028343 0.019336 0.066400
0.028599 0.019394 0.066600
0.028898 0.019481 0.066900
0.029155 0.019540 0.067100
0.029501 0.019656 0.067500
0.029717 0.019685 0.067600
0.030022 0.019773 0.067900
0.030329 0.019860 0.068200
0.030592 0.019918 0.068400
0.030856 0.019977 0.068600
0.034229 0.021549 0.074000
0.034417 0.021549 0.074000
0.034699 0.021607 0.074200
0.034983 0.021666 0.074400
0.035220 0.021695 0.074500
0.035457 0.021724 0.074600
0.035743 0.021782 0.074800
0.036078 0.021869 0.075100
0.036366 0.021928 0.075300
0.036655 0.021986 0.075500
0.036896 0.022015 0.075600
0.037138 0.022044 0.075700
0.037331 0.022044 0.075700
0.037573 0.022073 0.075800
0.027921 0.019447 0.066200
0.028132 0.019476 0.066300
0.028386 0.019535 0.066500
0.028685 0.019623 0.066800
0.028941 0.019682 0.067000
0.029199 0.019741 0.067200
0.029501 0.019829 0.067500
0.029761 0.019887 0.067700
0.030022 0.019946 0.067900
0.030284 0.020005 0.068100
0.030547 0.020064 0.068300
0.030722 0.020064 0.068300
0.034136 0.021679 0.073800
0.034324 0.021679 0.073800
0.034606 0.021738 0.074000
0.034842 0.021767 0.074100
0.035125 0.021826 0.074300
0.035314 0.021826 0.074300
0.035647 0.021914 0.074600
0.035981 0.022002 0.074900
0.036269 0.022061 0.075100
0.036558 0.022120 0.075300
0.036798 0.022149 0.075400
0.037040 0.022179 0.075500
0.037281 0.022208 0.075600
0.037524 0.022237 0.075700
0.027963 0.019646 0.066300
0.028174 0.019675 0.066400
0.028429 0.019734 0.066600
0.028727 0.019823 0.066900
0.028984 0.019883 0.067100
0.029242 0.019942 0.067300
0.029501 0.020001 0.067500
0.029761 0.020060 0.067700
0.030022 0.020120 0.067900
0.030240 0.020149 0.068000
0.030503 0.020209 0.068200
0.030722 0.020238 0.068300
0.034044 0.021809 0.073600
0.034231 0.021809 0.073600
0.034512 0.021868 0.073800
0.034748 0.021898 0.073900
0.034983 0.021927 0.074000
0.035219 0.021957 0.074100
0.035504 0.022016 0.074300
0.035837 0.022105 0.074600
0.036172 0.022194 0.074900
0.036460 0.022253 0.075100
0.036701 0.022283 0.075200
0.036941 0.022312 0.075300
0.037183 0.022342 0.075400
0.037524 0.022431 0.075700
0.028005 0.019845 0.066400
0.028259 0.019905 0.066600
0.028514 0.019964 0.066800
0.028770 0.020024 0.067000
0.029028 0.020084 0.067200
0.029286 0.020144 0.067400
0.029545 0.020204 0.067600
0.029761 0.020233 0.067700
0.029978 0.020263 0.067800
0.030195 0.020293 0.067900
0.030503 0.020383 0.068200
0.033997 0.021967 0.073500
0.034185 0.021967 0.073500
0.034419 0.021997 0.073600
0.034700 0.022056 0.073800
0.034889 0.022056 0.073800
0.035124 0.022086 0.073900
0.035408 0.022146 0.074100
0.035741 0.022236 0.074400
0.036076 0.022325 0.074700
0.036363 0.022385 0.074900
0.036603 0.022415 0.075000
0.036843 0.022445 0.075100
0.037133 0.022505 0.075300
0.037424 0.022565 0.075500
0.028047 0.020045 0.066500
0.028302 0.020105 0.066700
0.028557 0.020165 0.066900
0.028770 0.020195 0.067000
0.029028 0.020256 0.067200
0.029286 0.020316 0.067400
0.029501 0.020346 0.067500
0.029717 0.020376 0.067600
0.029934 0.020406 0.067700
0.030106 0.020406 0.067700
0.030324 0.020437 0.067800
0.033905 0.022094 0.073300
0.034092 0.022094 0.073300
0.034372 0.022155 0.073500
0.034606 0.022185 0.073600
0.034841 0.022215 0.073700
0.035029 0.022215 0.073700
0.035313 0.022275 0.073900
0.035597 0.022335 0.074100
0.035931 0.022426 0.074400
0.036266 0.022516 0.074700
0.036505 0.022546 0.074800
0.036745 0.022577 0.074900
0.037035 0.022637 0.075100
0.037325 0.022697 0.075300
0.028089 0.020245 0.066600
0.028344 0.020306 0.066800
0.028600 0.020367 0.067000
0.028813 0.020397 0.067100
0.029071 0.020458 0.067300
0.029286 0.020488 0.067400
0.029501 0.020519 0.067500
0.029717 0.020549 0.067600
0.029890 0.020549 0.067600
0.030106 0.020579 0.067700
0.030324 0.020610 0.067800
0.033859 0.022251 0.073200
0.034045 0.022251 0.073200
0.034279 0.022282 0.073300
0.034512 0.022312 0.073400
0.034747 0.022342 0.073500
0.034982 0.022373 0.073600
0.035217 0.022403 0.073700
0.035501 0.022464 0.073900
0.035834 0.022555 0.074200
0.036121 0.022616 0.074400
0.036408 0.022677 0.074600
0.036647 0.022707 0.074700
0.036936 0.022768 0.074900
0.037276 0.022859 0.075200
0.027920 0.020415 0.066600
0.028131 0.020446 0.066700
0.028386 0.020507 0.066900
0.028600 0.020538 0.067000
0.028856 0.020599 0.067200
0.029071 0.020630 0.067300
0.029286 0.020660 0.067400
0.029501 0.020691 0.067500
0.029673 0.020691 0.067500
0.029890 0.020722 0.067600
0.030062 0.020722 0.067600
0.030324 0.020783 0.067800
0.033812 0.022408 0.073100
0.033999 0.022408 0.073100
0.034232 0.022438 0.073200
0.034465 0.022469 0.073300
0.034652 0.022469 0.073300
0.034887 0.022500 0.073400
0.035122 0.022530 0.073500
0.035405 0.022592 0.073700
0.035738 0.022684 0.074000
0.036072 0.022775 0.074300
0.036261 0.022775 0.074300
0.036549 0.022837 0.074500
0.036838 0.022898 0.074700
0.037276 0.023051 0.075200
0.027920 0.020585 0.066600
0.028174 0.020647 0.066800
0.028386 0.020678 0.066900
0.028642 0.020740 0.067100
0.028856 0.020771 0.067200
0.029028 0.020771 0.067200
0.029242 0.020802 0.067300
0.029458 0.020833 0.067400
0.029673 0.020864 0.067500
0.029845 0.020864 0.067500
0.030062 0.020894 0.067600
0.030234 0.020894 0.067600
0.030452 0.020925 0.067700
0.033720 0.022533 0.072900
0.033906 0.022533 0.072900
0.034138 0.022564 0.073000
0.034371 0.022594 0.073100
0.034558 0.022594 0.073100
0.034792 0.022625 0.073200
0.035074 0.022687 0.073400
0.035309 0.022718 0.073500
0.035593 0.022780 0.073700
0.036072 0.022965 0.074300
0.036261 0.022965 0.074300
0.036500 0.022996 0.074400
0.036739 0.023027 0.074500
0.027666 0.020693 0.066400
0.027961 0.020787 0.066700
0.028216 0.020849 0.066900
0.028386 0.020849 0.066900
0.028642 0.020911 0.067100
0.028856 0.020943 0.067200
0.029028 0.020943 0.067200
0.029242 0.020974 0.067300
0.029458 0.021005 0.067400
0.029629 0.021005 0.067400
0.029845 0.021036 0.067500
0.030062 0.021067 0.067600
0.030234 0.021067 0.067600
0.030452 0.021098 0.067700
0.033674 0.022688 0.072800
0.033859 0.022688 0.072800
0.034091 0.022719 0.072900
0.034277 0.022719 0.072900
0.034510 0.022750 0.073000
0.034744 0.022781 0.073100
0.034978 0.022812 0.073200
0.035261 0.022875 0.073400
0.035496 0.022906 0.073500
0.036164 0.023093 0.074100
0.036353 0.023093 0.074100
0.036739 0.023218 0.074500
0.027708 0.020894 0.066500
0.028003 0.020989 0.066800
0.028216 0.021020 0.066900
0.028429 0.021051 0.067000
0.028642 0.021083 0.067100
0.028856 0.021114 0.067200
0.029071 0.021146 0.067300
0.029242 0.021146 0.067300
0.029458 0.021177 0.067400
0.029629 0.021177 0.067400
0.029845 0.021208 0.067500
0.030062 0.021240 0.067600
0.030234 0.021240 0.067600
0.033396 0.022811 0.072600
0.033581 0.022811 0.072600
0.033766 0.022811 0.072600
0.033998 0.022842 0.072700
0.034230 0.022874 0.072800
0.034416 0.022874 0.072800
0.034649 0.022905 0.072900
0.034883 0.022937 0.073000
0.035117 0.022968 0.073100
0.035400 0.023031 0.073300
0.035781 0.023157 0.073700
0.035969 0.023157 0.073700
0.036206 0.023188 0.073800
0.027456 0.021001 0.066300
0.027750 0.021096 0.066600
0.028003 0.021159 0.066800
0.028258 0.021223 0.067000
0.028429 0.021223 0.067000
0.028642 0.021254 0.067100
0.028856 0.021286 0.067200
0.029071 0.021318 0.067300
0.029242 0.021318 0.067300
0.029414 0.021318 0.067300
0.029585 0.021318 0.067300
0.033304 0.022933 0.072400
0.033489 0.022933 0.072400
0.033720 0.022965 0.072500
0.033951 0.022996 0.072600
0.034136 0.022996 0.072600
0.034369 0.023028 0.072700
0.034554 0.023028 0.072700
0.034787 0.023060 0.072800
0.035021 0.023091 0.072900
0.035303 0.023155 0.073100
0.035587 0.023218 0.073300
0.035773 0.023218 0.073300
0.036206 0.023376 0.073800
0.027497 0.021202 0.066400
0.027791 0.021298 0.066700
0.028045 0.021362 0.066900
0.028258 0.021394 0.067000
0.028471 0.021426 0.067100
0.028642 0.021426 0.067100
0.028856 0.021458 0.067200
0.029028 0.021458 0.067200
0.029242 0.021490 0.067300
0.029414 0.021490 0.067300
0.029585 0.021490 0.067300
0.029801 0.021521 0.067400
0.033212 0.023054 0.072200
0.033396 0.023054 0.072200
0.033580 0.023054 0.072200
0.033811 0.023086 0.072300
0.034042 0.023118 0.072400
0.034274 0.023150 0.072500
0.034459 0.023150 0.072500
0.034691 0.023182 0.072600
0.035021 0.023278 0.072900
0.035303 0.023342 0.073100
0.035489 0.023342 0.073100
0.035676 0.023342 0.073100
0.027246 0.021307 0.066200
0.027539 0.021404 0.066500
0.027833 0.021501 0.066800
0.028087 0.021565 0.067000
0.028300 0.021597 0.067100
0.028471 0.021597 0.067100
0.028685 0.021629 0.067200
0.028856 0.021629 0.067200
0.029028 0.021629 0.067200
0.029242 0.021662 0.067300
0.029414 0.021662 0.067300
0.029585 0.021662 0.067300
0.029801 0.021694 0.067400
0.033074 0.023142 0.071900
0.033257 0.023142 0.071900
0.033487 0.023174 0.072000
0.033717 0.023206 0.072100
0.033995 0.023271 0.072300
0.034227 0.023303 0.072400
0.034411 0.023303 0.072400
0.034644 0.023335 0.072500
0.034877 0.023367 0.072600
0.035110 0.023400 0.072700
0.035344 0.023432 0.072800
0.035676 0.023528 0.073100
0.026995 0.021412 0.066000
0.027287 0.021509 0.066300
0.027539 0.021574 0.066500
0.027833 0.021671 0.066800
0.028087 0.021736 0.067000
0.028300 0.021769 0.067100
0.028514 0.021801 0.067200
0.028685 0.021801 0.067200
0.028899 0.021833 0.067300
0.029071 0.021833 0.067300
0.029242 0.021833 0.067300
0.029414 0.021833 0.067300
0.029585 0.021833 0.067300
0.033028 0.023293 0.071800
0.033211 0.023293 0.071800
0.033441 0.023326 0.071900
0.033671 0.023358 0.072000
0.033901 0.023391 0.072100
0.034132 0.023423 0.072200
0.034316 0.023423 0.072200
0.034548 0.023456 0.072300
0.034780 0.023488 0.072400
0.035013 0.023520 0.072500
0.035247 0.023553 0.072600
0.026745 0.021515 0.065800
0.027036 0.021613 0.066100
0.027328 0.021711 0.066400
0.027621 0.021809 0.066700
0.027875 0.021875 0.066900
0.028129 0.021940 0.067100
0.028342 0.021973 0.067200
0.028514 0.021973 0.067200
0.028685 0.021973 0.067200
0.028899 0.022005 0.067300
0.029071 0.022005 0.067300
0.029242 0.022005 0.067300
0.029414 0.022005 0.067300
0.029629 0.022038 0.067400
0.032708 0.023379 0.071500
0.032890 0.023379 0.071500
0.033118 0.023411 0.071600
0.033348 0.023444 0.071700
0.033577 0.023477 0.071800
0.033854 0.023542 0.072000
0.034038 0.023542 0.072000
0.034269 0.023575 0.072100
0.034500 0.023608 0.072200
0.034684 0.023608 0.072200
0.034917 0.023640 0.072300
0.035198 0.023706 0.072500
0.026497 0.021617 0.065600
0.026786 0.021716 0.065900
0.027077 0.021815 0.066200
0.027369 0.021914 0.066500
0.027621 0.021980 0.066700
0.027916 0.022079 0.067000
0.028129 0.022111 0.067100
0.028342 0.022144 0.067200
0.028556 0.022177 0.067300
0.028728 0.022177 0.067300
0.028899 0.022177 0.067300
0.029071 0.022177 0.067300
0.029286 0.022210 0.067400
0.029458 0.022210 0.067400
0.029673 0.022243 0.067500
0.032389 0.023463 0.071200
0.032570 0.023463 0.071200
0.032798 0.023496 0.071300
0.033072 0.023561 0.071500
0.033301 0.023594 0.071600
0.033530 0.023627 0.071700
0.033760 0.023660 0.071800
0.033990 0.023693 0.071900
0.034221 0.023726 0.072000
0.034405 0.023726 0.072000
0.034636 0.023759 0.072100
0.034868 0.023792 0.072200
0.035198 0.023891 0.072500
0.026003 0.021652 0.065200
0.026290 0.021752 0.065500
0.026537 0.021818 0.065700
0.026827 0.021918 0.066000
0.027118 0.022017 0.066300
0.027410 0.022117 0.066600
0.027663 0.022183 0.066800
0.027958 0.022283 0.067100
0.028171 0.022316 0.067200
0.028385 0.022349 0.067300
0.028556 0.022349 0.067300
0.028728 0.022349 0.067300
0.028942 0.022383 0.067400
0.029114 0.022383 0.067400
0.029329 0.022416 0.067500
0.029545 0.022449 0.067600
0.029761 0.022482 0.067700
0.031801 0.023478 0.070700
0.031981 0.023478 0.070700
0.032252 0.023545 0.070900
0.032525 0.023611 0.071100
0.032752 0.023645 0.071200
0.032980 0.023678 0.071300
0.033255 0.023744 0.071500
0.033484 0.023777 0.071600
0.033713 0.023811 0.071700
0.033943 0.023844 0.071800
0.034174 0.023877 0.071900
0.034405 0.023910 0.072000
0.034636 0.023943 0.072100
0.034868 0.023977 0.072200
0.025592 0.021752 0.065000
0.025837 0.021819 0.065200
0.026083 0.021886 0.065400
0.026330 0.021952 0.065600
0.026618 0.022053 0.065900
0.026867 0.022120 0.066100
0.027159 0.022220 0.066400
0.027451 0.022321 0.066700
0.027704 0.022387 0.066900
0.027958 0.022454 0.067100
0.028171 0.022488 0.067200
0.028385 0.022521 0.067300
0.028556 0.022521 0.067300
0.028770 0.022555 0.067400
0.028942 0.022555 0.067400
0.029114 0.022555 0.067400
0.029373 0.022622 0.067600
0.029589 0.022655 0.067700
0.029805 0.022689 0.067800
0.031801 0.023659 0.070700
0.031981 0.023659 0.070700
0.032252 0.023726 0.070900
0.032479 0.023760 0.071000
0.032752 0.023826 0.071200
0.032980 0.023860 0.071300
0.033208 0.023893 0.071400
0.033437 0.023927 0.071500
0.033713 0.023994 0.071700
0.033896 0.023994 0.071700
0.034126 0.024027 0.071800
0.034357 0.024061 0.071900
0.025260 0.021918 0.065000
0.025465 0.021951 0.065100
0.025631 0.021951 0.065100
0.025876 0.022019 0.065300
0.026123 0.022086 0.065500
0.026370 0.022154 0.065700
0.026659 0.022255 0.066000
0.026908 0.022322 0.066200
0.027200 0.022424 0.066500
0.027451 0.022491 0.066700
0.027746 0.022592 0.067000
0.028000 0.022660 0.067200
0.028213 0.022693 0.067300
0.028385 0.022693 0.067300
0.028599 0.022727 0.067400
0.028770 0.022727 0.067400
0.028942 0.022727 0.067400
0.029157 0.022761 0.067500
0.029373 0.022794 0.067600
0.029589 0.022828 0.067700
0.029849 0.022896 0.067900
0.030553 0.023300 0.069100
0.030729 0.023300 0.069100
0.031174 0.023503 0.069700
0.031621 0.023705 0.070300
0.031981 0.023840 0.070700
0.032252 0.023907 0.070900
0.032479 0.023941 0.071000
0.032706 0.023975 0.071100
0.032933 0.024008 0.071200
0.033161 0.024042 0.071300
0.033390 0.024076 0.071400
0.033666 0.024143 0.071600
0.033896 0.024177 0.071700
0.034126 0.024211 0.071800
0.034357 0.024244 0.071900
0.025095 0.022084 0.065000
0.025299 0.022118 0.065100
0.025504 0.022152 0.065200
0.025671 0.022152 0.065200
0.025916 0.022220 0.065400
0.026162 0.022288 0.065600
0.026410 0.022356 0.065800
0.026699 0.022458 0.066100
0.026949 0.022526 0.066300
0.027240 0.022627 0.066600
0.027493 0.022695 0.066800
0.027746 0.022763 0.067000
0.028000 0.022831 0.067200
0.028213 0.022865 0.067300
0.028427 0.022899 0.067400
0.028599 0.022899 0.067400
0.028770 0.022899 0.067400
0.028942 0.022899 0.067400
0.029200 0.022967 0.067600
0.029373 0.022967 0.067600
0.029632 0.023035 0.067800
0.029893 0.023103 0.068000
0.030464 0.023409 0.068900
0.030729 0.023477 0.069100
0.031174 0.023681 0.069700
0.031621 0.023885 0.070300
0.031981 0.024020 0.070700
0.032207 0.024054 0.070800
0.032479 0.024122 0.071000
0.032706 0.024156 0.071100
0.032887 0.024156 0.071100
0.033115 0.024190 0.071200
0.033390 0.024258 0.071400
0.033619 0.024292 0.071500
0.033896 0.024360 0.071700
0.024891 0.022216 0.064900
0.025095 0.022250 0.065000
0.025338 0.022318 0.065200
0.025504 0.022318 0.065200
0.025671 0.022318 0.065200
0.025956 0.022421 0.065500
0.026202 0.022490 0.065700
0.026490 0.022592 0.066000
0.026739 0.022661 0.066200
0.027030 0.022763 0.066500
0.027281 0.022832 0.066700
0.027534 0.022900 0.066900
0.027787 0.022969 0.067100
0.028041 0.023037 0.067300
0.028213 0.023037 0.067300
0.028427 0.023071 0.067400
0.028599 0.023071 0.067400
0.028770 0.023071 0.067400
0.028985 0.023106 0.067500
0.029200 0.023140 0.067600
0.029416 0.023174 0.067700
0.029632 0.023208 0.067800
0.030289 0.023585 0.068900
0.030464 0.023585 0.068900
0.030862 0.023756 0.069400
0.031263 0.023927 0.069900
0.031666 0.024098 0.070400
0.031981 0.024201 0.070700
0.032207 0.024235 0.070800
0.032433 0.024270 0.070900
0.032660 0.024304 0.071000
0.032887 0.024338 0.071100
0.033115 0.024372 0.071200
0.033343 0.024406 0.071300
0.033619 0.024475 0.071500
0.036985 0.026495 0.077400
0.037182 0.026495 0.077400
0.024929 0.022416 0.065000
0.025133 0.022450 0.065100
0.025338 0.022485 0.065200
0.025543 0.022519 0.065300
0.025710 0.022519 0.065300
0.025956 0.022588 0.065500
0.026242 0.022692 0.065800
0.026530 0.022795 0.066100
0.026780 0.022864 0.066300
0.027071 0.022968 0.066600
0.027322 0.023037 0.066800
0.027575 0.023106 0.067000
0.027787 0.023140 0.067100
0.028041 0.023209 0.067300
0.028255 0.023244 0.067400
0.028427 0.023244 0.067400
0.028599 0.023244 0.067400
0.028813 0.023278 0.067500
0.028985 0.023278 0.067500
0.029200 0.023313 0.067600
0.029460 0.023382 0.067800
0.029676 0.023416 0.067900
0.030421 0.023864 0.069200
0.030597 0.023864 0.069200
0.030996 0.024037 0.069700
0.031397 0.024209 0.070200
0.031756 0.024347 0.070600
0.032027 0.024416 0.070800
0.032252 0.024451 0.070900
0.032433 0.024451 0.070900
0.032660 0.024485 0.071000
0.032887 0.024520 0.071100
0.033115 0.024554 0.071200
0.033343 0.024589 0.071300
0.036496 0.026623 0.077200
0.036693 0.026623 0.077200
0.036890 0.026623 0.077200
0.037182 0.026692 0.077400
0.037428 0.026727 0.077500
0.024929 0.022582 0.065000
0.025133 0.022617 0.065100
0.025338 0.022652 0.065200
0.025583 0.022721 0.065400
0.025749 0.022721 0.065400
0.025995 0.022791 0.065600
0.026282 0.022895 0.065900
0.026571 0.022999 0.066200
0.026820 0.023068 0.066400
0.027111 0.023173 0.066700
0.027363 0.023242 0.066900
0.027575 0.023277 0.067000
0.027828 0.023346 0.067200
0.028083 0.023416 0.067400
0.028255 0.023416 0.067400
0.028469 0.023451 0.067500
0.028641 0.023451 0.067500
0.028856 0.023485 0.067600
0.029028 0.023485 0.067600
0.029287 0.023555 0.067800
0.029503 0.023590 0.067900
0.030553 0.024145 0.069500
0.030730 0.024145 0.069500
0.031485 0.024597 0.070800
0.031666 0.024597 0.070800
0.031846 0.024597 0.070800
0.032027 0.024597 0.070800
0.032252 0.024632 0.070900
0.032479 0.024667 0.071000
0.036496 0.026821 0.077200
0.036693 0.026821 0.077200
0.036890 0.026821 0.077200
0.037182 0.026890 0.077400
0.024929 0.022748 0.065000
0.025133 0.022783 0.065100
0.025377 0.022853 0.065300
0.025583 0.022888 0.065400
0.025749 0.022888 0.065400
0.026035 0.022993 0.065700
0.026322 0.023098 0.066000
0.026651 0.023238 0.066400
0.026901 0.023308 0.066600
0.027193 0.023413 0.066900
0.027404 0.023448 0.067000
0.027657 0.023518 0.067200
0.027911 0.023588 0.067400
0.028125 0.023623 0.067500
0.028339 0.023658 0.067600
0.028511 0.023658 0.067600
0.028726 0.023693 0.067700
0.028898 0.023693 0.067700
0.029114 0.023728 0.067800
0.029330 0.023763 0.067900
0.029590 0.023833 0.068100
0.030684 0.024428 0.069800
0.030862 0.024428 0.069800
0.031485 0.024778 0.070800
0.031666 0.024778 0.070800
0.031846 0.024778 0.070800
0.032072 0.024813 0.070900
0.032252 0.024813 0.070900
0.035315 0.027018 0.077200
0.035512 0.027018 0.077200
0.035755 0.027053 0.077300
0.035952 0.027053 0.077300
0.036149 0.027053 0.077300
0.036346 0.027053 0.077300
0.036496 0.027018 0.077200
0.036693 0.027018 0.077200
0.036937 0.027053 0.077300
0.024929 0.022914 0.065000
0.025133 0.022950 0.065100
0.025338 0.022985 0.065200
0.025583 0.023055 0.065400
0.025749 0.023055 0.065400
0.026075 0.023196 0.065800
0.026362 0.023302 0.066100
0.026691 0.023443 0.066500
0.026941 0.023514 0.066700
0.027355 0.023725 0.067300
0.027527 0.023725 0.067300
0.027739 0.023760 0.067400
0.027994 0.023831 0.067600
0.028208 0.023866 0.067700
0.028423 0.023901 0.067800
0.028595 0.023901 0.067800
0.028811 0.023937 0.067900
0.028984 0.023937 0.067900
0.029200 0.023972 0.068000
0.029416 0.024007 0.068100
0.031124 0.024959 0.070800
0.031305 0.024959 0.070800
0.031530 0.024994 0.070900
0.031710 0.024994 0.070900
0.031891 0.024994 0.070900
0.032117 0.025029 0.071000
0.035164 0.027250 0.077300
0.035315 0.027215 0.077200
0.035512 0.027215 0.077200
0.035755 0.027250 0.077300
0.035952 0.027250 0.077300
0.036149 0.027250 0.077300
0.036346 0.027250 0.077300
0.036543 0.027250 0.077300
0.036740 0.027250 0.077300
0.036937 0.027250 0.077300
0.024891 0.023045 0.064900
0.025133 0.023116 0.065100
0.025338 0.023151 0.065200
0.025583 0.023222 0.065400
0.025749 0.023222 0.065400
0.027224 0.023933 0.067400
0.027396 0.023933 0.067400
0.027609 0.023968 0.067500
0.027863 0.024039 0.067700
0.028077 0.024075 0.067800
0.028250 0.024075 0.067800
0.028465 0.024110 0.067900
0.028638 0.024110 0.067900
0.028853 0.024146 0.068000
0.029069 0.024181 0.068100
0.029543 0.024430 0.068800
0.029935 0.024607 0.069300
0.030242 0.024714 0.069600
0.031212 0.025211 0.071000
0.031393 0.025211 0.071000
0.031574 0.025211 0.071000
0.031800 0.025246 0.071100
0.032026 0.025282 0.071200
0.034922 0.027412 0.077200
0.035164 0.027448 0.077300
0.035315 0.027412 0.077200
0.035512 0.027412 0.077200
0.035755 0.027448 0.077300
0.035952 0.027448 0.077300
0.036149 0.027448 0.077300
0.036346 0.027448 0.077300
0.036543 0.027448 0.077300
0.036740 0.027448 0.077300
0.024891 0.023211 0.064900
0.025095 0.023246 0.065000
0.025416 0.023389 0.065400
0.025583 0.023389 0.065400
0.025749 0.023389 0.065400
0.027386 0.024248 0.067800
0.027558 0.024248 0.067800
0.027772 0.024284 0.067900
0.027945 0.024284 0.067900
0.028160 0.024319 0.068000
0.028458 0.024427 0.068300
0.028590 0.024391 0.068200
0.028764 0.024391 0.068200
0.029023 0.024462 0.068400
0.029283 0.024534 0.068600
0.029543 0.024605 0.068800
0.029935 0.024784 0.069300
0.030242 0.024892 0.069600
0.030856 0.025249 0.070600
0.031168 0.025356 0.070900
0.031437 0.025428 0.071100
0.031618 0.025428 0.071100
0.034725 0.027610 0.077200
0.034922 0.027610 0.077200
0.035164 0.027645 0.077300
0.035315 0.027610 0.077200
0.035512 0.027610 0.077200
0.035755 0.027645 0.077300
0.035952 0.027645 0.077300
0.036149 0.027645 0.077300
0.036346 0.027645 0.077300
0.036543 0.027645 0.077300
0.024891 0.023376 0.064900
0.025095 0.023413 0.065000
0.027333 0.024529 0.068100
0.027466 0.024493 0.068000
0.027640 0.024493 0.068000
0.027854 0.024529 0.068100
0.028069 0.024565 0.068200
0.028284 0.024601 0.068300
0.028458 0.024601 0.068300
0.028674 0.024637 0.068400
0.028891 0.024673 0.068500
0.029193 0.024781 0.068800
0.029453 0.024853 0.069000
0.029715 0.024925 0.069200
0.030237 0.025213 0.070000
0.030416 0.025213 0.070000
0.030856 0.025430 0.070600
0.031168 0.025538 0.070900
0.031437 0.025610 0.071100
0.034573 0.027843 0.077300
0.034770 0.027843 0.077300
0.034967 0.027843 0.077300
0.035164 0.027843 0.077300
0.035361 0.027843 0.077300
0.035558 0.027843 0.077300
0.035755 0.027843 0.077300
0.035952 0.027843 0.077300
0.036149 0.027843 0.077300
0.036346 0.027843 0.077300
0.024891 0.023542 0.064900
0.025095 0.023579 0.065000
0.027333 0.024703 0.068100
0.027507 0.024703 0.068100
0.027802 0.024812 0.068400
0.028018 0.024848 0.068500
0.028233 0.024884 0.068600
0.028408 0.024884 0.068600
0.028625 0.024921 0.068700
0.028842 0.024957 0.068800
0.029059 0.024993 0.068900
0.029362 0.025102 0.069200
0.029624 0.025175 0.069400
0.029887 0.025247 0.069600
0.030237 0.025392 0.070000
0.030546 0.025501 0.070300
0.030900 0.025646 0.070700
0.034573 0.028040 0.077300
0.034770 0.028040 0.077300
0.034967 0.028040 0.077300
0.035164 0.028040 0.077300
0.035361 0.028040 0.077300
0.035558 0.028040 0.077300
0.035755 0.028040 0.077300
0.035952 0.028040 0.077300
0.036149 0.028040 0.077300
0.036393 0.028077 0.077400
0.024891 0.023708 0.064900
0.025095 0.023745 0.065000
0.027574 0.025096 0.068700
0.027749 0.025096 0.068700
0.027965 0.025133 0.068800
0.028140 0.025133 0.068800
0.028357 0.025169 0.068900
0.028532 0.025169 0.068900
0.028750 0.025206 0.069000
0.028968 0.025242 0.069100
0.029228 0.025315 0.069300
0.029659 0.025535 0.069900
0.029837 0.025535 0.069900
0.030102 0.025608 0.070100
0.030496 0.025790 0.070600
0.030676 0.025790 0.070600
0.030900 0.025827 0.070700
0.034420 0.028274 0.077400
0.034573 0.028238 0.077300
0.034770 0.028238 0.077300
0.034967 0.028238 0.077300
0.035209 0.028274 0.077400
0.035407 0.028274 0.077400
0.035604 0.028274 0.077400
0.035801 0.028274 0.077400
0.035952 0.028238 0.077300
0.036149 0.028238 0.077300
0.024891 0.023874 0.064900
0.025095 0.023911 0.065000
0.027830 0.025345 0.068900
0.028006 0.025345 0.068900
0.028181 0.025345 0.068900
0.028357 0.025345 0.068900
0.028574 0.025382 0.069000
0.028791 0.025419 0.069100
0.029051 0.025493 0.069300
0.029355 0.025603 0.069600
0.029617 0.025676 0.069800
0.029837 0.025713 0.069900
0.030102 0.025787 0.070100
0.030453 0.025934 0.070500
0.030676 0.025971 0.070600
0.034420 0.028472 0.077400
0.034617 0.028472 0.077400
0.034815 0.028472 0.077400
0.035012 0.028472 0.077400
0.035209 0.028472 0.077400
0.035407 0.028472 0.077400
0.035604 0.028472 0.077400
0.035801 0.028472 0.077400
0.035999 0.028472 0.077400
0.024891 0.024040 0.064900
0.025095 0.024077 0.065000
0.028046 0.025559 0.069000
0.028222 0.025559 0.069000
0.028439 0.025596 0.069100
0.028615 0.025596 0.069100
0.028833 0.025633 0.069200
0.029135 0.025744 0.069500
0.029355 0.025781 0.069600
0.029617 0.025855 0.069800
0.029880 0.025929 0.070000
0.030230 0.026077 0.070400
0.030453 0.026114 0.070500
0.034420 0.028670 0.077400
0.034617 0.028670 0.077400
0.034815 0.028670 0.077400
0.035012 0.028670 0.077400
0.035209 0.028670 0.077400
0.035407 0.028670 0.077400
0.035604 0.028670 0.077400
0.035801 0.028670 0.077400
0.036045 0.028707 0.077500
0.025095 0.024243 0.065000
0.028739 0.025884 0.069400
0.028916 0.025884 0.069400
0.029135 0.025921 0.069500
0.029397 0.025996 0.069700
0.029659 0.026070 0.069900
0.030051 0.026257 0.070400
0.030230 0.026257 0.070400
0.030539 0.026369 0.070700
0.034420 0.028868 0.077400
0.034617 0.028868 0.077400
0.034815 0.028868 0.077400
0.035012 0.028868 0.077400
0.035255 0.028905 0.077500
0.035452 0.028905 0.077500
0.035650 0.028905 0.077500
0.035848 0.028905 0.077500
0.028781 0.026099 0.069500
0.028958 0.026099 0.069500
0.029219 0.026174 0.069700
0.030359 0.026550 0.070700
0.030539 0.026550 0.070700
0.034950 0.029178 0.077700
0.035148 0.029178 0.077700
0.035346 0.029178 0.077700
0.035544 0.029178 0.077700
0.035742 0.029178 0.077700
0.029041 0.026352 0.069700
0.029219 0.026352 0.069700
0.035085 0.029490 0.078000
0.035283 0.029490 0.078000
0.035482 0.029490 0.078000
0.035681 0.029490 0.078000
0.035265 0.029842 0.078400
0.035464 0.029842 0.078400
0.035664 0.029842 0.078400
0.033551 0.030119 0.078600
0.033752 0.030119 0.078600
0.033952 0.030119 0.078600
0.034152 0.030119 0.078600
0.034353 0.030119 0.078600
0.034597 0.030157 0.078700
0.034842 0.030195 0.078800
0.035043 0.030195 0.078800
0.035288 0.030234 0.078900
0.035399 0.030157 0.078700
0.035600 0.030157 0.078700
0.035801 0.030157 0.078700
0.032992 0.030358 0.078700
0.033193 0.030358 0.078700
0.033393 0.030358 0.078700
0.033551 0.030320 0.078600
0.033752 0.030320 0.078600
0.033952 0.030320 0.078600
0.034152 0.030320 0.078600
0.034353 0.030320 0.078600
0.034597 0.030358 0.078700
0.034842 0.030397 0.078800
0.035043 0.030397 0.078800
0.035288 0.030435 0.078900
0.035489 0.030435 0.078900
0.035691 0.030435 0.078900
0.032992 0.030559 0.078700
0.033193 0.030559 0.078700
0.033393 0.030559 0.078700
0.033594 0.030559 0.078700
0.033752 0.030520 0.078600
0.033952 0.030520 0.078600
0.034152 0.030520 0.078600
0.034396 0.030559 0.078700
0.034597 0.030559 0.078700
0.034842 0.030598 0.078800
0.035087 0.030637 0.078900
0.035333 0.030676 0.079000
0.035534 0.030676 0.079000
0.033193 0.030760 0.078700
0.033393 0.030760 0.078700
0.033594 0.030760 0.078700
0.033794 0.030760 0.078700
0.033995 0.030760 0.078700
0.034196 0.030760 0.078700
0.034396 0.030760 0.078700
0.034641 0.030799 0.078800
0.034842 0.030799 0.078800
0.035087 0.030838 0.078900
