ply
format ascii 1.0
element vertex 3452
property float x
property float y
property float z
end_header
-0.028463 0.031232 0.117300
-0.028463 0.031531 0.117300
-0.028488 0.031857 0.117400
-0.028690 0.030854 0.117000
-0.028690 0.031152 0.117000
-0.028739 0.031504 0.117200
-0.028763 0.031830 0.117300
-0.028837 0.032211 0.117600
-0.028837 0.032511 0.117600
-0.028886 0.032867 0.117800
-0.028886 0.033167 0.117800
-0.028910 0.033496 0.117900
-0.028964 0.030828 0.116900
-0.028964 0.031126 0.116900
-0.028989 0.031451 0.117000
-0.029038 0.031803 0.117200
-0.029112 0.032184 0.117500
-0.029137 0.032511 0.117600
-0.029187 0.032867 0.117800
-0.029187 0.033167 0.117800
-0.029212 0.033496 0.117900
-0.029236 0.033825 0.118000
-0.029237 0.030801 0.116800
-0.029237 0.031099 0.116800
-0.029287 0.031451 0.117000
-0.029338 0.031803 0.117200
-0.029413 0.032184 0.117500
-0.029463 0.032539 0.117700
-0.029488 0.032867 0.117800
-0.029488 0.033167 0.117800
-0.029513 0.033496 0.117900
-0.029538 0.033825 0.118000
-0.028196 0.029404 0.111500
-0.029435 0.030993 0.116400
-0.029511 0.031370 0.116700
-0.029612 0.031776 0.117100
-0.029713 0.032184 0.117500
-0.029763 0.032539 0.117700
-0.029814 0.032895 0.117900
-0.029814 0.033195 0.117900
-0.029839 0.033524 0.118000
-0.029865 0.033854 0.118100
-0.028481 0.029404 0.111500
-0.029579 0.030833 0.115800
-0.029783 0.031343 0.116600
-0.029885 0.031749 0.117000
-0.030013 0.032184 0.117500
-0.030064 0.032539 0.117700
-0.030090 0.032867 0.117800
-0.030090 0.033167 0.117800
-0.030141 0.033524 0.118000
-0.030192 0.033882 0.118200
-0.027991 0.028336 0.108500
-0.028869 0.029509 0.111900
-0.029875 0.030833 0.115800
-0.029978 0.031236 0.116200
-0.030159 0.031722 0.116900
-0.030313 0.032184 0.117500
-0.030391 0.032567 0.117800
-0.030391 0.032867 0.117800
-0.030391 0.033167 0.117800
-0.030442 0.033524 0.118000
-0.030494 0.033882 0.118200
-0.028425 0.028493 0.109100
-0.029259 0.029615 0.112300
-0.030249 0.030913 0.116100
-0.030249 0.031209 0.116100
-0.030405 0.031667 0.116700
-0.030588 0.032157 0.117400
-0.030692 0.032567 0.117800
-0.030692 0.032867 0.117800
-0.030692 0.033167 0.117800
-0.030744 0.033524 0.118000
-0.030796 0.033882 0.118200
-0.028941 0.028728 0.110000
-0.029519 0.029588 0.112200
-0.030467 0.030833 0.115800
-0.030467 0.031128 0.115800
-0.030624 0.031586 0.116400
-0.030861 0.032129 0.117300
-0.030966 0.032539 0.117700
-0.030993 0.032867 0.117800
-0.030993 0.033167 0.117800
-0.031045 0.033524 0.118000
-0.031098 0.033882 0.118200
-0.029089 0.028318 0.109500
-0.029461 0.028963 0.110900
-0.029806 0.029588 0.112200
-0.030630 0.030700 0.115300
-0.030630 0.030994 0.115300
-0.030895 0.031559 0.116300
-0.031055 0.032020 0.116900
-0.031214 0.032484 0.117500
-0.031267 0.032839 0.117700
-0.031267 0.033139 0.117700
-0.031320 0.033496 0.117900
-0.031400 0.033882 0.118200
-0.029342 0.028013 0.109400
-0.029530 0.028473 0.110100
-0.029878 0.029093 0.111400
-0.030146 0.029641 0.112400
-0.030897 0.030673 0.115200
-0.030897 0.030967 0.115200
-0.031112 0.031477 0.116000
-0.031300 0.031965 0.116700
-0.031487 0.032456 0.117400
-0.031514 0.032783 0.117500
-0.031514 0.033083 0.117500
-0.031595 0.033467 0.117800
-0.029730 0.028116 0.109800
-0.030000 0.028654 0.110800
-0.030271 0.029198 0.111800
-0.030623 0.029826 0.113100
-0.030921 0.030407 0.114200
-0.031138 0.030913 0.115000
-0.031354 0.031423 0.115800
-0.031571 0.031938 0.116600
-0.031706 0.032373 0.117100
-0.031760 0.032727 0.117300
-0.031760 0.033026 0.117300
-0.031869 0.033439 0.117700
-0.031923 0.033796 0.117900
-0.029983 0.027810 0.109700
-0.030120 0.028218 0.110200
-0.030366 0.028732 0.111100
-0.030639 0.029276 0.112100
-0.030912 0.029826 0.113100
-0.031213 0.030407 0.114200
-0.031431 0.030913 0.115000
-0.031650 0.031423 0.115800
-0.031814 0.031883 0.116400
-0.031951 0.032318 0.116900
-0.032005 0.032672 0.117100
-0.032005 0.032970 0.117100
-0.032115 0.033382 0.117500
-0.032169 0.033739 0.117700
-0.030236 0.027506 0.109600
-0.030374 0.027912 0.110100
-0.030539 0.028346 0.110700
-0.030760 0.028835 0.111500
-0.031008 0.029354 0.112400
-0.031256 0.029878 0.113300
-0.031505 0.030407 0.114200
-0.031725 0.030913 0.115000
-0.031946 0.031423 0.115800
-0.032112 0.031883 0.116400
-0.032249 0.032318 0.116900
-0.032305 0.032672 0.117100
-0.032305 0.032970 0.117100
-0.032415 0.033382 0.117500
-0.032470 0.033739 0.117700
-0.030627 0.027606 0.110000
-0.030766 0.028013 0.110500
-0.030961 0.028474 0.111200
-0.031184 0.028964 0.112000
-0.031434 0.029485 0.112900
-0.031657 0.029984 0.113700
-0.031852 0.030460 0.114400
-0.032047 0.030940 0.115100
-0.032270 0.031450 0.115900
-0.032437 0.031910 0.116500
-0.032548 0.032318 0.116900
-0.032799 0.033467 0.117800
-0.032799 0.033768 0.117800
-0.030880 0.027301 0.109900
-0.031020 0.027706 0.110400
-0.031217 0.028165 0.111100
-0.031414 0.028628 0.111800
-0.031611 0.029094 0.112500
-0.031807 0.029563 0.113200
-0.032032 0.030063 0.114000
-0.032201 0.030513 0.114600
-0.032397 0.030994 0.115300
-0.032594 0.031477 0.116000
-0.032791 0.031965 0.116700
-0.032847 0.032318 0.116900
-0.031132 0.026996 0.109800
-0.031303 0.027425 0.110400
-0.031444 0.027832 0.110900
-0.031643 0.028292 0.111600
-0.031870 0.028781 0.112400
-0.032068 0.029249 0.113100
-0.032210 0.029668 0.113600
-0.032408 0.030142 0.114300
-0.032522 0.030540 0.114700
-0.032720 0.031020 0.115400
-0.032919 0.031505 0.116100
-0.033089 0.031965 0.116700
-0.033174 0.032345 0.117000
-0.031384 0.026692 0.109700
-0.031527 0.027094 0.110200
-0.031728 0.027549 0.110900
-0.031899 0.027982 0.111500
-0.032071 0.028419 0.112100
-0.032271 0.028884 0.112800
-0.032443 0.029327 0.113400
-0.032586 0.029746 0.113900
-0.032758 0.030195 0.114500
-0.032872 0.030593 0.114900
-0.033044 0.031047 0.115500
-0.033244 0.031532 0.116200
-0.033416 0.031992 0.116800
-0.033530 0.032401 0.117200
-0.033702 0.032867 0.117800
-0.033845 0.033308 0.118300
-0.033845 0.033609 0.118300
-0.034045 0.034112 0.119000
-0.031751 0.026765 0.110000
-0.032040 0.027291 0.111000
-0.032098 0.027624 0.111200
-0.032329 0.028108 0.112000
-0.032531 0.028571 0.112700
-0.032675 0.028986 0.113200
-0.032819 0.029404 0.113700
-0.032964 0.029825 0.114200
-0.033108 0.030248 0.114700
-0.033195 0.030620 0.115000
-0.033368 0.031074 0.115600
-0.033599 0.031586 0.116400
-0.033772 0.032047 0.117000
-0.034003 0.032567 0.117800
-0.034003 0.032867 0.117800
-0.034147 0.033308 0.118300
-0.034147 0.033609 0.118300
-0.034349 0.034112 0.119000
-0.032149 0.026862 0.110400
-0.032324 0.027291 0.111000
-0.032527 0.027748 0.111700
-0.032731 0.028208 0.112400
-0.032935 0.028672 0.113100
-0.033081 0.029089 0.113600
-0.033226 0.029508 0.114100
-0.033343 0.029903 0.114500
-0.033459 0.030300 0.114900
-0.033547 0.030673 0.115200
-0.033721 0.031128 0.115800
-0.033954 0.031640 0.116600
-0.034129 0.032102 0.117200
-0.034333 0.032594 0.117900
-0.034391 0.032951 0.118100
-0.034537 0.033392 0.118600
-0.034537 0.033695 0.118600
-0.032519 0.026935 0.110700
-0.032725 0.027389 0.111400
-0.032930 0.027847 0.112100
-0.033136 0.028309 0.112800
-0.033342 0.028774 0.113500
-0.033459 0.029166 0.113900
-0.033606 0.029585 0.114400
-0.033694 0.029955 0.114700
-0.033812 0.030353 0.115100
-0.033900 0.030726 0.115400
-0.034105 0.031209 0.116100
-0.034282 0.031667 0.116700
-0.034517 0.032184 0.117500
-0.034634 0.032594 0.117900
-0.034752 0.033006 0.118300
-0.034928 0.033477 0.118900
-0.034928 0.033780 0.118900
-0.032683 0.026557 0.110300
-0.032891 0.027008 0.111000
-0.033098 0.027463 0.111700
-0.033306 0.027922 0.112400
-0.033513 0.028384 0.113100
-0.033720 0.028850 0.113800
-0.033839 0.029242 0.114200
-0.033958 0.029637 0.114600
-0.034046 0.030007 0.114900
-0.034165 0.030406 0.115300
-0.034254 0.030780 0.115600
-0.034432 0.031236 0.116200
-0.034669 0.031749 0.117000
-0.034876 0.032239 0.117700
-0.035054 0.032705 0.118300
-0.035113 0.033062 0.118500
-0.035291 0.033533 0.119100
-0.035291 0.033837 0.119100
-0.033025 0.026605 0.110500
-0.033234 0.027057 0.111200
-0.033443 0.027512 0.111900
-0.033682 0.027996 0.112700
-0.033862 0.028434 0.113300
-0.034071 0.028901 0.114000
-0.034220 0.029319 0.114500
-0.034310 0.029689 0.114800
-0.034370 0.030033 0.115000
-0.034489 0.030432 0.115400
-0.034579 0.030806 0.115700
-0.034788 0.031289 0.116400
-0.035027 0.031803 0.117200
-0.035237 0.032294 0.117900
-0.035356 0.032705 0.118300
-0.035476 0.033118 0.118700
-0.035625 0.033561 0.119200
-0.033337 0.026629 0.110600
-0.033579 0.027105 0.111400
-0.033759 0.027537 0.112000
-0.034001 0.028021 0.112800
-0.034212 0.028484 0.113500
-0.034392 0.028926 0.114100
-0.034513 0.029319 0.114500
-0.034634 0.029714 0.114900
-0.034724 0.030086 0.115200
-0.034814 0.030459 0.115500
-0.034905 0.030833 0.115800
-0.035146 0.031343 0.116600
-0.035327 0.031803 0.117200
-0.035538 0.032294 0.117900
-0.035658 0.032705 0.118300
-0.035809 0.033146 0.118800
-0.035930 0.033561 0.119200
-0.033681 0.026677 0.110800
-0.033894 0.027130 0.111500
-0.034106 0.027586 0.112200
-0.034319 0.028046 0.112900
-0.034532 0.028510 0.113600
-0.034714 0.028951 0.114200
-0.034836 0.029345 0.114600
-0.034958 0.029740 0.115000
-0.035049 0.030112 0.115300
-0.035110 0.030459 0.115500
-0.035231 0.030859 0.115900
-0.035444 0.031343 0.116600
-0.035657 0.031830 0.117300
-0.035870 0.032321 0.118000
-0.035961 0.032705 0.118300
-0.036082 0.033118 0.118700
-0.036234 0.033561 0.119200
-0.033841 0.026299 0.110400
-0.034025 0.026725 0.111000
-0.034209 0.027154 0.111600
-0.034454 0.027635 0.112400
-0.034669 0.028096 0.113100
-0.034822 0.028510 0.113600
-0.035006 0.028951 0.114200
-0.035159 0.029370 0.114700
-0.035251 0.029740 0.115000
-0.035343 0.030112 0.115300
-0.035435 0.030485 0.115600
-0.035558 0.030886 0.116000
-0.035773 0.031370 0.116700
-0.035987 0.031857 0.117400
-0.036171 0.032321 0.118000
-0.036263 0.032705 0.118300
-0.036386 0.033118 0.118700
-0.036539 0.033561 0.119200
-0.034185 0.026347 0.110600
-0.034371 0.026773 0.111200
-0.034587 0.027227 0.111900
-0.034773 0.027660 0.112500
-0.034989 0.028121 0.113200
-0.035174 0.028560 0.113800
-0.035360 0.029002 0.114400
-0.035453 0.029370 0.114700
-0.035607 0.029792 0.115200
-0.035669 0.030138 0.115400
-0.035762 0.030511 0.115700
-0.035916 0.030939 0.116200
-0.036133 0.031424 0.116900
-0.036287 0.031857 0.117400
-0.036473 0.032321 0.118000
-0.036596 0.032732 0.118400
-0.036720 0.033146 0.118800
-0.034312 0.025947 0.110100
-0.034530 0.026395 0.110800
-0.034717 0.026821 0.111400
-0.034935 0.027276 0.112100
-0.035153 0.027734 0.112800
-0.035372 0.028195 0.113500
-0.035527 0.028610 0.114000
-0.035683 0.029027 0.114500
-0.035808 0.029422 0.114900
-0.035933 0.029818 0.115300
-0.035995 0.030164 0.115500
-0.036088 0.030538 0.115800
-0.036244 0.030966 0.116300
-0.036462 0.031451 0.117000
-0.036618 0.031885 0.117500
-0.036774 0.032321 0.118000
-0.036899 0.032732 0.118400
-0.037023 0.033146 0.118800
-0.034562 0.025643 0.110000
-0.034719 0.026041 0.110500
-0.034908 0.026466 0.111100
-0.035128 0.026918 0.111800
-0.035316 0.027349 0.112400
-0.035473 0.027758 0.112900
-0.035693 0.028220 0.113600
-0.035850 0.028635 0.114100
-0.036007 0.029053 0.114600
-0.036133 0.029447 0.115000
-0.036227 0.029818 0.115300
-0.036321 0.030190 0.115600
-0.036384 0.030538 0.115800
-0.036573 0.030993 0.116400
-0.036761 0.031451 0.117000
-0.036950 0.031912 0.117600
-0.037107 0.032348 0.118100
-0.037201 0.032732 0.118400
-0.037327 0.033146 0.118800
-0.034811 0.025340 0.109900
-0.034970 0.025736 0.110400
-0.035128 0.026136 0.110900
-0.035318 0.026561 0.111500
-0.035508 0.026990 0.112100
-0.035698 0.027422 0.112700
-0.035857 0.027832 0.113200
-0.036047 0.028270 0.113800
-0.036173 0.028660 0.114200
-0.036332 0.029078 0.114700
-0.036458 0.029473 0.115100
-0.036553 0.029844 0.115400
-0.036617 0.030190 0.115600
-0.036680 0.030538 0.115800
-0.036870 0.030993 0.116400
-0.037060 0.031451 0.117000
-0.037250 0.031912 0.117600
-0.037409 0.032348 0.118100
-0.037504 0.032732 0.118400
-0.035156 0.025105 0.110100
-0.035252 0.025455 0.110400
-0.035380 0.025830 0.110800
-0.035539 0.026230 0.111300
-0.035731 0.026657 0.111900
-0.035890 0.027062 0.112400
-0.036050 0.027470 0.112900
-0.036242 0.027906 0.113500
-0.036401 0.028319 0.114000
-0.036529 0.028710 0.114400
-0.036657 0.029103 0.114800
-0.036784 0.029498 0.115200
-0.036880 0.029870 0.115500
-0.036944 0.030216 0.115700
-0.037008 0.030564 0.115900
-0.037200 0.031019 0.116500
-0.037391 0.031477 0.117100
-0.037583 0.031939 0.117700
-0.037710 0.032348 0.118100
-0.037806 0.032732 0.118400
-0.035437 0.024544 0.110100
-0.035502 0.024870 0.110300
-0.035566 0.025196 0.110500
-0.035695 0.025570 0.110900
-0.035791 0.025923 0.111200
-0.035952 0.026324 0.111700
-0.036145 0.026752 0.112300
-0.036274 0.027134 0.112700
-0.036435 0.027543 0.113200
-0.036564 0.027930 0.113600
-0.036757 0.028369 0.114200
-0.036854 0.028735 0.114500
-0.036982 0.029129 0.114900
-0.037079 0.029498 0.115200
-0.037175 0.029870 0.115500
-0.037272 0.030242 0.115800
-0.037369 0.030617 0.116100
-0.037562 0.031072 0.116700
-0.037755 0.031531 0.117300
-0.037884 0.031939 0.117700
-0.038044 0.032376 0.118200
-0.035492 0.021878 0.109400
-0.035492 0.022157 0.109400
-0.035556 0.022477 0.109600
-0.035589 0.022777 0.109700
-0.035621 0.023077 0.109800
-0.035654 0.023379 0.109900
-0.035686 0.023680 0.110000
-0.035751 0.024004 0.110200
-0.035784 0.024307 0.110300
-0.035848 0.024633 0.110500
-0.035946 0.024982 0.110800
-0.036011 0.025310 0.111000
-0.036076 0.025639 0.111200
-0.036205 0.026016 0.111600
-0.036368 0.026418 0.112100
-0.036497 0.026800 0.112500
-0.036659 0.027207 0.113000
-0.036789 0.027592 0.113400
-0.036919 0.027979 0.113800
-0.037049 0.028369 0.114200
-0.037179 0.028760 0.114600
-0.037276 0.029129 0.114900
-0.037406 0.029524 0.115300
-0.037503 0.029895 0.115600
-0.037568 0.030242 0.115800
-0.037665 0.030617 0.116100
-0.037860 0.031072 0.116700
-0.038087 0.031558 0.117400
-0.038217 0.031966 0.117800
-0.038444 0.032458 0.118500
-0.035771 0.021320 0.109400
-0.035804 0.021619 0.109500
-0.035869 0.021938 0.109700
-0.035902 0.022238 0.109800
-0.035935 0.022538 0.109900
-0.035967 0.022839 0.110000
-0.036033 0.023161 0.110200
-0.036065 0.023464 0.110300
-0.036098 0.023766 0.110400
-0.036163 0.024091 0.110600
-0.036229 0.024417 0.110800
-0.036262 0.024722 0.110900
-0.036360 0.025072 0.111200
-0.036425 0.025402 0.111400
-0.036556 0.025778 0.111800
-0.036621 0.026109 0.112000
-0.036752 0.026489 0.112400
-0.036916 0.026895 0.112900
-0.037046 0.027279 0.113300
-0.037144 0.027641 0.113600
-0.037275 0.028029 0.114000
-0.037373 0.028394 0.114300
-0.037471 0.028760 0.114600
-0.037602 0.029154 0.115000
-0.037700 0.029524 0.115300
-0.037798 0.029895 0.115600
-0.037896 0.030269 0.115900
-0.037995 0.030643 0.116200
-0.038191 0.031099 0.116800
-0.038387 0.031558 0.117400
-0.038518 0.031966 0.117800
-0.036084 0.021060 0.109500
-0.036117 0.021359 0.109600
-0.036182 0.021678 0.109800
-0.036215 0.021978 0.109900
-0.036248 0.022278 0.110000
-0.036347 0.022620 0.110300
-0.036380 0.022922 0.110400
-0.036413 0.023225 0.110500
-0.036479 0.023549 0.110700
-0.036512 0.023852 0.110800
-0.036545 0.024157 0.110900
-0.036611 0.024483 0.111100
-0.036677 0.024811 0.111300
-0.036776 0.025163 0.111600
-0.036874 0.025516 0.111900
-0.036940 0.025847 0.112100
-0.037039 0.026203 0.112400
-0.037171 0.026583 0.112800
-0.037303 0.026966 0.113200
-0.037402 0.027327 0.113500
-0.037501 0.027689 0.113800
-0.037632 0.028078 0.114200
-0.037731 0.028443 0.114500
-0.037797 0.028786 0.114700
-0.037896 0.029154 0.115000
-0.037995 0.029524 0.115300
-0.038094 0.029895 0.115600
-0.038226 0.030295 0.116000
-0.038324 0.030669 0.116300
-0.038522 0.031126 0.116900
-0.038720 0.031585 0.117500
-0.038852 0.031993 0.117900
-0.036895 0.005791 0.111100
-0.036862 0.006069 0.111000
-0.036363 0.020502 0.109500
-0.036397 0.020800 0.109600
-0.036463 0.021118 0.109800
-0.036496 0.021417 0.109900
-0.036529 0.021717 0.110000
-0.036596 0.022038 0.110200
-0.036662 0.022359 0.110400
-0.036695 0.022661 0.110500
-0.036762 0.022984 0.110700
-0.036828 0.023309 0.110900
-0.036862 0.023613 0.111000
-0.036895 0.023917 0.111100
-0.036994 0.024266 0.111400
-0.037028 0.024572 0.111500
-0.037094 0.024900 0.111700
-0.037194 0.025253 0.112000
-0.037293 0.025607 0.112300
-0.037360 0.025939 0.112500
-0.037459 0.026296 0.112800
-0.037559 0.026654 0.113100
-0.037659 0.027014 0.113400
-0.037758 0.027375 0.113700
-0.037858 0.027738 0.114000
-0.037924 0.028078 0.114200
-0.038024 0.028443 0.114500
-0.038090 0.028786 0.114700
-0.038190 0.029154 0.115000
-0.038289 0.029524 0.115300
-0.038389 0.029895 0.115600
-0.038489 0.030269 0.115900
-0.038655 0.030696 0.116400
-0.038821 0.031126 0.116900
-0.039020 0.031585 0.117500
-0.037379 0.005253 0.111700
-0.037312 0.005528 0.111500
-0.037212 0.005796 0.111200
-0.037179 0.006074 0.111100
-0.037145 0.006352 0.111000
-0.037145 0.006635 0.111000
-0.036610 0.019368 0.109400
-0.036643 0.019665 0.109500
-0.036677 0.019962 0.109600
-0.036677 0.020241 0.109600
-0.036710 0.020540 0.109700
-0.036777 0.020857 0.109900
-0.036811 0.021157 0.110000
-0.036844 0.021456 0.110100
-0.036911 0.021777 0.110300
-0.036978 0.022098 0.110500
-0.037045 0.022420 0.110700
-0.037112 0.022743 0.110900
-0.037179 0.023067 0.111100
-0.037212 0.023372 0.111200
-0.037279 0.023698 0.111400
-0.037312 0.024003 0.111500
-0.037379 0.024331 0.111700
-0.037446 0.024660 0.111900
-0.037513 0.024990 0.112100
-0.037614 0.025343 0.112400
-0.037681 0.025675 0.112600
-0.037747 0.026008 0.112800
-0.037848 0.026366 0.113100
-0.037915 0.026701 0.113300
-0.038015 0.027062 0.113600
-0.038082 0.027399 0.113800
-0.038149 0.027738 0.114000
-0.038249 0.028102 0.114300
-0.038316 0.028443 0.114500
-0.038417 0.028811 0.114800
-0.038484 0.029154 0.115000
-0.038584 0.029524 0.115300
-0.038684 0.029895 0.115600
-0.038785 0.030269 0.115900
-0.038952 0.030696 0.116400
-0.039153 0.031152 0.117000
-0.039354 0.031612 0.117600
-0.037935 0.005291 0.112500
-0.037732 0.005548 0.111900
-0.037597 0.005812 0.111500
-0.037462 0.006074 0.111100
-0.037462 0.006358 0.111100
-0.037429 0.006635 0.111000
-0.037429 0.006918 0.111000
-0.037429 0.007201 0.111000
-0.036957 0.018844 0.109600
-0.036990 0.019141 0.109700
-0.036990 0.019421 0.109700
-0.036990 0.019701 0.109700
-0.037024 0.019998 0.109800
-0.037058 0.020297 0.109900
-0.037092 0.020596 0.110000
-0.037125 0.020895 0.110100
-0.037193 0.021214 0.110300
-0.037226 0.021515 0.110400
-0.037294 0.021836 0.110600
-0.037361 0.022158 0.110800
-0.037429 0.022481 0.111000
-0.037496 0.022805 0.111200
-0.037564 0.023130 0.111400
-0.037631 0.023456 0.111600
-0.037699 0.023783 0.111800
-0.037732 0.024089 0.111900
-0.037800 0.024418 0.112100
-0.037867 0.024748 0.112300
-0.037935 0.025079 0.112500
-0.038002 0.025411 0.112700
-0.038069 0.025744 0.112900
-0.038137 0.026077 0.113100
-0.038204 0.026412 0.113300
-0.038272 0.026748 0.113500
-0.038339 0.027085 0.113700
-0.038407 0.027423 0.113900
-0.038474 0.027762 0.114100
-0.038542 0.028102 0.114300
-0.038643 0.028468 0.114600
-0.038710 0.028811 0.114800
-0.038778 0.029154 0.115000
-0.038879 0.029524 0.115300
-0.038980 0.029895 0.115600
-0.039148 0.030321 0.116100
-0.039283 0.030722 0.116500
-0.039486 0.031179 0.117100
-0.038630 0.005347 0.113700
-0.038630 0.005637 0.113700
-0.038392 0.005890 0.113000
-0.037780 0.006080 0.111200
-0.037780 0.006363 0.111200
-0.037746 0.006641 0.111100
-0.037712 0.006918 0.111000
-0.037712 0.007201 0.111000
-0.037712 0.007484 0.111000
-0.037712 0.007767 0.111000
-0.037305 0.018599 0.109800
-0.037305 0.018879 0.109800
-0.037339 0.019176 0.109900
-0.037339 0.019456 0.109900
-0.037373 0.019754 0.110000
-0.037407 0.020053 0.110100
-0.037407 0.020334 0.110100
-0.037475 0.020652 0.110300
-0.037509 0.020952 0.110400
-0.037543 0.021253 0.110500
-0.037610 0.021573 0.110700
-0.037678 0.021895 0.110900
-0.037746 0.022218 0.111100
-0.037814 0.022541 0.111300
-0.037882 0.022866 0.111500
-0.037984 0.023213 0.111800
-0.038052 0.023540 0.112000
-0.038086 0.023847 0.112100
-0.038154 0.024175 0.112300
-0.038222 0.024505 0.112500
-0.038256 0.024814 0.112600
-0.038324 0.025146 0.112800
-0.038358 0.025456 0.112900
-0.038426 0.025789 0.113100
-0.038494 0.026124 0.113300
-0.038528 0.026436 0.113400
-0.038596 0.026772 0.113600
-0.038664 0.027109 0.113800
-0.038698 0.027423 0.113900
-0.038800 0.027787 0.114200
-0.038834 0.028102 0.114300
-0.038935 0.028468 0.114600
-0.039037 0.028836 0.114900
-0.039071 0.029154 0.115000
-0.039173 0.029524 0.115300
-0.039343 0.029947 0.115800
-0.039445 0.030321 0.116100
-0.039615 0.030749 0.116600
-0.039819 0.031206 0.117200
-0.040221 0.005526 0.117500
-0.038030 0.006641 0.111100
-0.038030 0.006924 0.111100
-0.038030 0.007207 0.111100
-0.038064 0.007497 0.111200
-0.038064 0.007781 0.111200
-0.038030 0.008057 0.111100
-0.038030 0.008340 0.111100
-0.037996 0.008616 0.111000
-0.037619 0.018336 0.109900
-0.037654 0.018633 0.110000
-0.037654 0.018913 0.110000
-0.037688 0.019211 0.110100
-0.037722 0.019509 0.110200
-0.037756 0.019808 0.110300
-0.037791 0.020108 0.110400
-0.037791 0.020389 0.110400
-0.037825 0.020689 0.110500
-0.037893 0.021009 0.110700
-0.037928 0.021310 0.110800
-0.037996 0.021632 0.111000
-0.038064 0.021954 0.111200
-0.038133 0.022278 0.111400
-0.038201 0.022602 0.111600
-0.038270 0.022928 0.111800
-0.038338 0.023254 0.112000
-0.038407 0.023582 0.112200
-0.038441 0.023889 0.112300
-0.038509 0.024218 0.112500
-0.038578 0.024549 0.112700
-0.038612 0.024858 0.112800
-0.038646 0.025168 0.112900
-0.038715 0.025501 0.113100
-0.038749 0.025812 0.113200
-0.038818 0.026147 0.113400
-0.038852 0.026459 0.113500
-0.038920 0.026796 0.113700
-0.038989 0.027133 0.113900
-0.039023 0.027447 0.114000
-0.039091 0.027787 0.114200
-0.039194 0.028152 0.114500
-0.039228 0.028468 0.114600
-0.039331 0.028836 0.114900
-0.039434 0.029205 0.115200
-0.039536 0.029575 0.115500
-0.039639 0.029947 0.115800
-0.039776 0.030347 0.116200
-0.039947 0.030775 0.116700
-0.040797 0.005865 0.118300
-0.040797 0.006166 0.118300
-0.038349 0.006930 0.111200
-0.038349 0.007214 0.111200
-0.038418 0.007511 0.111400
-0.038452 0.007802 0.111500
-0.038452 0.008086 0.111500
-0.038452 0.008370 0.111500
-0.038452 0.008654 0.111500
-0.038418 0.008931 0.111400
-0.038314 0.009190 0.111100
-0.038314 0.009473 0.111100
-0.037969 0.018369 0.110100
-0.038004 0.018667 0.110200
-0.038038 0.018965 0.110300
-0.038073 0.019263 0.110400
-0.038107 0.019563 0.110500
-0.038142 0.019862 0.110600
-0.038142 0.020144 0.110600
-0.038211 0.020463 0.110800
-0.038245 0.020764 0.110900
-0.038280 0.021066 0.111000
-0.038314 0.021368 0.111100
-0.038349 0.021671 0.111200
-0.038418 0.021994 0.111400
-0.038487 0.022318 0.111600
-0.038556 0.022643 0.111800
-0.038624 0.022969 0.112000
-0.038659 0.023275 0.112100
-0.038728 0.023603 0.112300
-0.038762 0.023910 0.112400
-0.038831 0.024240 0.112600
-0.038900 0.024571 0.112800
-0.038935 0.024880 0.112900
-0.039004 0.025213 0.113100
-0.039038 0.025523 0.113200
-0.039073 0.025835 0.113300
-0.039142 0.026170 0.113500
-0.039176 0.026482 0.113600
-0.039245 0.026819 0.113800
-0.039280 0.027133 0.113900
-0.039349 0.027472 0.114100
-0.039418 0.027811 0.114300
-0.039487 0.028152 0.114500
-0.039556 0.028493 0.114700
-0.039625 0.028836 0.114900
-0.039728 0.029205 0.115200
-0.039832 0.029575 0.115500
-0.039935 0.029947 0.115800
-0.040073 0.030347 0.116200
-0.040245 0.030775 0.116700
-0.041099 0.005865 0.118300
-0.041099 0.006166 0.118300
-0.041412 0.006517 0.119200
-0.041447 0.006827 0.119300
-0.041516 0.007143 0.119500
-0.041551 0.007454 0.119600
-0.041551 0.007759 0.119600
-0.038841 0.007538 0.111800
-0.038806 0.007816 0.111700
-0.038772 0.008093 0.111600
-0.038772 0.008378 0.111600
-0.038911 0.008693 0.112000
-0.038911 0.008979 0.112000
-0.038911 0.009264 0.112000
-0.038841 0.009533 0.111800
-0.038737 0.009791 0.111500
-0.038702 0.010066 0.111400
-0.038667 0.010341 0.111300
-0.038563 0.010596 0.111000
-0.038529 0.010869 0.110900
-0.038494 0.011142 0.110800
-0.038424 0.011404 0.110600
-0.038355 0.011665 0.110400
-0.038355 0.011946 0.110400
-0.038320 0.012217 0.110300
-0.038320 0.012498 0.110300
-0.038285 0.012767 0.110200
-0.038251 0.013036 0.110100
-0.038251 0.013317 0.110100
-0.038320 0.018121 0.110300
-0.038355 0.018419 0.110400
-0.038390 0.018717 0.110500
-0.038424 0.019016 0.110600
-0.038459 0.019316 0.110700
-0.038494 0.019616 0.110800
-0.038529 0.019916 0.110900
-0.038563 0.020217 0.111000
-0.038563 0.020500 0.111000
-0.038598 0.020802 0.111100
-0.038633 0.021104 0.111200
-0.038702 0.021426 0.111400
-0.038737 0.021729 0.111500
-0.038772 0.022033 0.111600
-0.038841 0.022358 0.111800
-0.038911 0.022683 0.112000
-0.038945 0.022989 0.112100
-0.039015 0.023317 0.112300
-0.039050 0.023624 0.112400
-0.039119 0.023953 0.112600
-0.039154 0.024261 0.112700
-0.039223 0.024592 0.112900
-0.039258 0.024902 0.113000
-0.039328 0.025235 0.113200
-0.039362 0.025546 0.113300
-0.039432 0.025880 0.113500
-0.039467 0.026193 0.113600
-0.039536 0.026529 0.113800
-0.039571 0.026843 0.113900
-0.039640 0.027181 0.114100
-0.039710 0.027520 0.114300
-0.039779 0.027860 0.114500
-0.039849 0.028201 0.114700
-0.039918 0.028543 0.114900
-0.039988 0.028886 0.115100
-0.040057 0.029230 0.115300
-0.040161 0.029601 0.115600
-0.040231 0.029947 0.115800
-0.040405 0.030373 0.116300
-0.041647 0.006203 0.119000
-0.041717 0.006517 0.119200
-0.041752 0.006827 0.119300
-0.041822 0.007143 0.119500
-0.041857 0.007454 0.119600
-0.041857 0.007759 0.119600
-0.041857 0.008063 0.119600
-0.041787 0.008354 0.119400
-0.041752 0.008652 0.119300
-0.040667 0.008723 0.116200
-0.040667 0.009019 0.116200
-0.039302 0.009003 0.112300
-0.039302 0.009289 0.112300
-0.039232 0.009558 0.112100
-0.039232 0.009844 0.112100
-0.039267 0.010139 0.112200
-0.039232 0.010416 0.112100
-0.039127 0.010673 0.111800
-0.039022 0.010928 0.111500
-0.038952 0.011192 0.111300
-0.038882 0.011455 0.111100
-0.038812 0.011718 0.110900
-0.038777 0.011989 0.110800
-0.038707 0.012250 0.110600
-0.038672 0.012520 0.110500
-0.038672 0.012802 0.110500
-0.038672 0.013084 0.110500
-0.038637 0.013353 0.110400
-0.038637 0.013635 0.110400
-0.038602 0.013904 0.110300
-0.038602 0.014185 0.110300
-0.038637 0.017856 0.110400
-0.038672 0.018154 0.110500
-0.038707 0.018452 0.110600
-0.038777 0.018768 0.110800
-0.038812 0.019068 0.110900
-0.038847 0.019368 0.111000
-0.038882 0.019669 0.111100
-0.038917 0.019970 0.111200
-0.038952 0.020272 0.111300
-0.038987 0.020574 0.111400
-0.039022 0.020877 0.111500
-0.039057 0.021180 0.111600
-0.039092 0.021483 0.111700
-0.039127 0.021788 0.111800
-0.039162 0.022092 0.111900
-0.039197 0.022398 0.112000
-0.039232 0.022703 0.112100
-0.039302 0.023030 0.112300
-0.039337 0.023337 0.112400
-0.039372 0.023645 0.112500
-0.039442 0.023974 0.112700
-0.039477 0.024283 0.112800
-0.039547 0.024614 0.113000
-0.039617 0.024946 0.113200
-0.039652 0.025257 0.113300
-0.039722 0.025591 0.113500
-0.039757 0.025903 0.113600
-0.039827 0.026239 0.113800
-0.039862 0.026552 0.113900
-0.039932 0.026890 0.114100
-0.040002 0.027228 0.114300
-0.040072 0.027568 0.114500
-0.040107 0.027884 0.114600
-0.040212 0.028250 0.114900
-0.040247 0.028568 0.115000
-0.040352 0.028936 0.115300
-0.040422 0.029281 0.115500
-0.040562 0.029678 0.115900
-0.040667 0.030051 0.116200
-0.040807 0.030451 0.116600
-0.042162 0.006539 0.119600
-0.042197 0.006850 0.119700
-0.042233 0.007161 0.119800
-0.042233 0.007466 0.119800
-0.042197 0.007765 0.119700
-0.042162 0.008063 0.119600
-0.042092 0.008354 0.119400
-0.042021 0.008644 0.119200
-0.040964 0.008723 0.116200
-0.040964 0.009019 0.116200
-0.040928 0.009307 0.116100
-0.040752 0.009562 0.115600
-0.040752 0.009857 0.115600
-0.040082 0.009984 0.113700
-0.039941 0.010238 0.113300
-0.039800 0.010490 0.112900
-0.039659 0.010739 0.112500
-0.039589 0.011007 0.112300
-0.039483 0.011263 0.112000
-0.039377 0.011517 0.111700
-0.039272 0.011770 0.111400
-0.039201 0.012033 0.111200
-0.039131 0.012294 0.111000
-0.039095 0.012566 0.110900
-0.039095 0.012848 0.110900
-0.039060 0.013119 0.110800
-0.039060 0.013402 0.110800
-0.039025 0.013672 0.110700
-0.038989 0.013941 0.110600
-0.038989 0.014223 0.110600
-0.038989 0.014505 0.110600
-0.038954 0.014774 0.110500
-0.038954 0.015056 0.110500
-0.038954 0.017309 0.110500
-0.038989 0.017607 0.110600
-0.039060 0.017921 0.110800
-0.039095 0.018220 0.110900
-0.039095 0.018503 0.110900
-0.039166 0.018819 0.111100
-0.039201 0.019120 0.111200
-0.039236 0.019420 0.111300
-0.039272 0.019722 0.111400
-0.039307 0.020024 0.111500
-0.039342 0.020326 0.111600
-0.039377 0.020629 0.111700
-0.039413 0.020933 0.111800
-0.039448 0.021237 0.111900
-0.039483 0.021541 0.112000
-0.039483 0.021827 0.112000
-0.039518 0.022132 0.112100
-0.039589 0.022458 0.112300
-0.039589 0.022744 0.112300
-0.039659 0.023071 0.112500
-0.039695 0.023379 0.112600
-0.039730 0.023687 0.112700
-0.039765 0.023995 0.112800
-0.039836 0.024326 0.113000
-0.039871 0.024636 0.113100
-0.039941 0.024968 0.113300
-0.040012 0.025302 0.113500
-0.040047 0.025614 0.113600
-0.040118 0.025949 0.113800
-0.040188 0.026285 0.114000
-0.040259 0.026622 0.114200
-0.040294 0.026937 0.114300
-0.040364 0.027276 0.114500
-0.040400 0.027592 0.114600
-0.040505 0.027957 0.114900
-0.040541 0.028275 0.115000
-0.040646 0.028642 0.115300
-0.040752 0.029011 0.115600
-0.040823 0.029357 0.115800
-0.040964 0.029754 0.116200
-0.041246 0.030258 0.117000
-0.042539 0.006855 0.119800
-0.042574 0.007167 0.119900
-0.042574 0.007472 0.119900
-0.042539 0.007772 0.119800
-0.042468 0.008063 0.119600
-0.042432 0.008361 0.119500
-0.042326 0.008644 0.119200
-0.042290 0.008941 0.119100
-0.041687 0.009112 0.117400
-0.041225 0.009307 0.116100
-0.041048 0.009562 0.115600
-0.041048 0.009857 0.115600
-0.041083 0.010160 0.115700
-0.040586 0.010329 0.114300
-0.040444 0.010583 0.113900
-0.040302 0.010835 0.113500
-0.040195 0.011095 0.113200
-0.040089 0.011353 0.112900
-0.039982 0.011610 0.112600
-0.039876 0.011865 0.112300
-0.039769 0.012119 0.112000
-0.039698 0.012383 0.111800
-0.039627 0.012645 0.111600
-0.039592 0.012918 0.111500
-0.039556 0.013190 0.111400
-0.039485 0.013450 0.111200
-0.039485 0.013734 0.111200
-0.039450 0.014004 0.111100
-0.039414 0.014275 0.111000
-0.039414 0.014558 0.111000
-0.039379 0.014827 0.110900
-0.039379 0.015110 0.110900
-0.039379 0.015393 0.110900
-0.039343 0.015661 0.110800
-0.039343 0.015944 0.110800
-0.039343 0.016226 0.110800
-0.039379 0.016524 0.110900
-0.039379 0.016806 0.110900
-0.039379 0.017089 0.110900
-0.039379 0.017372 0.110900
-0.039414 0.017670 0.111000
-0.039450 0.017969 0.111100
-0.039485 0.018269 0.111200
-0.039521 0.018569 0.111300
-0.039556 0.018870 0.111400
-0.039592 0.019171 0.111500
-0.039627 0.019473 0.111600
-0.039698 0.019793 0.111800
-0.039698 0.020078 0.111800
-0.039734 0.020381 0.111900
-0.039769 0.020685 0.112000
-0.039769 0.020970 0.112000
-0.039805 0.021275 0.112100
-0.039840 0.021580 0.112200
-0.039876 0.021885 0.112300
-0.039911 0.022191 0.112400
-0.039911 0.022478 0.112400
-0.039947 0.022784 0.112500
-0.040018 0.023112 0.112700
-0.040053 0.023420 0.112800
-0.040089 0.023729 0.112900
-0.040124 0.024038 0.113000
-0.040195 0.024369 0.113200
-0.040231 0.024679 0.113300
-0.040302 0.025012 0.113500
-0.040373 0.025346 0.113700
-0.040444 0.025681 0.113900
-0.040479 0.025994 0.114000
-0.040550 0.026331 0.114200
-0.040586 0.026646 0.114300
-0.040657 0.026984 0.114500
-0.040728 0.027324 0.114700
-0.040799 0.027664 0.114900
-0.040834 0.027981 0.115000
-0.040941 0.028348 0.115300
-0.041012 0.028692 0.115500
-0.041119 0.029062 0.115800
-0.041225 0.029433 0.116100
-0.041403 0.029857 0.116600
-0.041545 0.030258 0.117000
-0.042881 0.006861 0.119900
-0.042916 0.007173 0.120000
-0.042881 0.007472 0.119900
-0.042881 0.007778 0.119900
-0.042845 0.008077 0.119800
-0.042773 0.008368 0.119600
-0.042702 0.008659 0.119400
-0.042630 0.008948 0.119200
-0.042523 0.009229 0.118900
-0.042165 0.009452 0.117900
-0.041736 0.009653 0.116700
-0.041557 0.009908 0.116200
-0.041379 0.010160 0.115700
-0.041236 0.010419 0.115300
-0.041093 0.010676 0.114900
-0.040949 0.010930 0.114500
-0.040842 0.011193 0.114200
-0.040735 0.011454 0.113900
-0.040592 0.011703 0.113500
-0.040485 0.011961 0.113200
-0.040377 0.012217 0.112900
-0.040306 0.012482 0.112700
-0.040234 0.012747 0.112500
-0.040163 0.013011 0.112300
-0.040055 0.013261 0.112000
-0.040020 0.013535 0.111900
-0.039984 0.013808 0.111800
-0.039912 0.014067 0.111600
-0.039877 0.014339 0.111500
-0.039841 0.014610 0.111400
-0.039841 0.014894 0.111400
-0.039769 0.015151 0.111200
-0.039769 0.015434 0.111200
-0.039769 0.015718 0.111200
-0.039769 0.016001 0.111200
-0.039769 0.016285 0.111200
-0.039769 0.016568 0.111200
-0.039769 0.016852 0.111200
-0.039805 0.017151 0.111300
-0.039805 0.017434 0.111300
-0.039841 0.017734 0.111400
-0.039877 0.018034 0.111500
-0.039877 0.018318 0.111500
-0.039912 0.018619 0.111600
-0.039984 0.018938 0.111800
-0.039984 0.019223 0.111800
-0.040020 0.019525 0.111900
-0.040055 0.019828 0.112000
-0.040091 0.020132 0.112100
-0.040091 0.020417 0.112100
-0.040127 0.020722 0.112200
-0.040163 0.021026 0.112300
-0.040163 0.021313 0.112300
-0.040198 0.021618 0.112400
-0.040234 0.021924 0.112500
-0.040270 0.022231 0.112600
-0.040306 0.022538 0.112700
-0.040342 0.022845 0.112800
-0.040377 0.023153 0.112900
-0.040413 0.023462 0.113000
-0.040449 0.023771 0.113100
-0.040520 0.024102 0.113300
-0.040556 0.024412 0.113400
-0.040628 0.024745 0.113600
-0.040699 0.025078 0.113800
-0.040735 0.025391 0.113900
-0.040771 0.025704 0.114000
-0.040842 0.026040 0.114200
-0.040914 0.026377 0.114400
-0.040985 0.026715 0.114600
-0.041021 0.027031 0.114700
-0.041093 0.027371 0.114900
-0.041164 0.027712 0.115100
-0.041200 0.028030 0.115200
-0.041271 0.028373 0.115400
-0.041379 0.028742 0.115700
-0.041522 0.029137 0.116100
-0.041665 0.029534 0.116500
-0.041808 0.029934 0.116900
-0.043223 0.007173 0.120000
-0.043223 0.007479 0.120000
-0.043223 0.007785 0.120000
-0.043151 0.008077 0.119800
-0.043079 0.008368 0.119600
-0.043007 0.008659 0.119400
-0.042935 0.008948 0.119200
-0.042863 0.009236 0.119000
-0.042755 0.009516 0.118700
-0.042467 0.009752 0.117900
-0.042251 0.010002 0.117300
-0.042034 0.010248 0.116700
-0.041890 0.010509 0.116300
-0.041746 0.010769 0.115900
-0.041602 0.011026 0.115500
-0.041458 0.011281 0.115100
-0.041386 0.011554 0.114900
-0.041242 0.011806 0.114500
-0.041134 0.012066 0.114200
-0.041026 0.012325 0.113900
-0.040918 0.012582 0.113600
-0.040810 0.012838 0.113300
-0.040738 0.013103 0.113100
-0.040630 0.013356 0.112800
-0.040522 0.013607 0.112500
-0.040486 0.013882 0.112400
-0.040414 0.014143 0.112200
-0.040342 0.014403 0.112000
-0.040306 0.014676 0.111900
-0.040306 0.014961 0.111900
-0.040270 0.015233 0.111800
-0.040234 0.015504 0.111700
-0.040197 0.015774 0.111600
-0.040197 0.016059 0.111600
-0.040197 0.016343 0.111600
-0.040234 0.016643 0.111700
-0.040234 0.016928 0.111700
-0.040234 0.017212 0.111700
-0.040234 0.017497 0.111700
-0.040270 0.017798 0.111800
-0.040270 0.018083 0.111800
-0.040306 0.018384 0.111900
-0.040342 0.018686 0.112000
-0.040342 0.018972 0.112000
-0.040378 0.019274 0.112100
-0.040414 0.019577 0.112200
-0.040450 0.019881 0.112300
-0.040486 0.020185 0.112400
-0.040486 0.020472 0.112400
-0.040486 0.020759 0.112400
-0.040522 0.021064 0.112500
-0.040558 0.021370 0.112600
-0.040594 0.021676 0.112700
-0.040630 0.021983 0.112800
-0.040630 0.022270 0.112800
-0.040666 0.022578 0.112900
-0.040738 0.022906 0.113100
-0.040774 0.023215 0.113200
-0.040810 0.023524 0.113300
-0.040810 0.023813 0.113300
-0.040882 0.024144 0.113500
-0.040918 0.024455 0.113600
-0.040990 0.024788 0.113800
-0.041026 0.025101 0.113900
-0.041098 0.025435 0.114100
-0.041170 0.025771 0.114300
-0.041242 0.026108 0.114500
-0.041278 0.026423 0.114600
-0.041386 0.026785 0.114900
-0.041422 0.027102 0.115000
-0.041494 0.027443 0.115200
-0.041530 0.027760 0.115300
-0.041566 0.028079 0.115400
-0.041638 0.028422 0.115600
-0.041746 0.028791 0.115900
-0.041890 0.029187 0.116300
-0.042034 0.029585 0.116700
-0.043602 0.007491 0.120200
-0.043530 0.007785 0.120000
-0.043493 0.008084 0.119900
-0.043385 0.008368 0.119600
-0.043348 0.008666 0.119500
-0.043276 0.008956 0.119300
-0.043167 0.009236 0.119000
-0.043058 0.009516 0.118700
-0.042913 0.009785 0.118300
-0.042768 0.010053 0.117900
-0.042623 0.010318 0.117500
-0.042514 0.010591 0.117200
-0.042369 0.010852 0.116800
-0.042260 0.011121 0.116500
-0.042115 0.011379 0.116100
-0.042006 0.011645 0.115800
-0.041897 0.011909 0.115500
-0.041789 0.012172 0.115200
-0.041680 0.012433 0.114900
-0.041571 0.012693 0.114600
-0.041462 0.012951 0.114300
-0.041317 0.013196 0.113900
-0.041208 0.013451 0.113600
-0.041099 0.013704 0.113300
-0.041027 0.013968 0.113100
-0.040918 0.014219 0.112800
-0.040845 0.014481 0.112600
-0.040809 0.014754 0.112500
-0.040773 0.015028 0.112400
-0.040737 0.015301 0.112300
-0.040664 0.015559 0.112100
-0.040664 0.015845 0.112100
-0.040664 0.016131 0.112100
-0.040664 0.016417 0.112100
-0.040664 0.016702 0.112100
-0.040664 0.016988 0.112100
-0.040664 0.017274 0.112100
-0.040664 0.017560 0.112100
-0.040700 0.017861 0.112200
-0.040737 0.018164 0.112300
-0.040737 0.018450 0.112300
-0.040737 0.018736 0.112300
-0.040773 0.019039 0.112400
-0.040773 0.019326 0.112400
-0.040809 0.019630 0.112500
-0.040809 0.019917 0.112500
-0.040845 0.020221 0.112600
-0.040882 0.020527 0.112700
-0.040882 0.020814 0.112700
-0.040918 0.021120 0.112800
-0.040918 0.021407 0.112800
-0.040954 0.021714 0.112900
-0.040991 0.022022 0.113000
-0.041027 0.022329 0.113100
-0.041063 0.022638 0.113200
-0.041099 0.022947 0.113300
-0.041136 0.023256 0.113400
-0.041172 0.023566 0.113500
-0.041208 0.023876 0.113600
-0.041281 0.024208 0.113800
-0.041317 0.024520 0.113900
-0.041353 0.024832 0.114000
-0.041426 0.025167 0.114200
-0.041498 0.025502 0.114400
-0.041535 0.025817 0.114500
-0.041607 0.026154 0.114700
-0.041680 0.026493 0.114900
-0.041716 0.026809 0.115000
-0.041789 0.027149 0.115200
-0.041861 0.027490 0.115400
-0.041897 0.027809 0.115500
-0.041934 0.028127 0.115600
-0.042006 0.028471 0.115800
-0.042115 0.028841 0.116100
-0.042260 0.029237 0.116500
-0.042405 0.029636 0.116900
-0.044019 0.007510 0.120500
-0.043946 0.007804 0.120300
-0.043836 0.008090 0.120000
-0.043763 0.008382 0.119800
-0.043654 0.008666 0.119500
-0.043581 0.008956 0.119300
-0.043508 0.009244 0.119100
-0.043435 0.009532 0.118900
-0.043288 0.009802 0.118500
-0.043179 0.010078 0.118200
-0.043069 0.010353 0.117900
-0.042996 0.010636 0.117700
-0.042887 0.010908 0.117400
-0.042740 0.011169 0.117000
-0.042667 0.011448 0.116800
-0.042558 0.011715 0.116500
-0.042412 0.011971 0.116100
-0.042302 0.012235 0.115800
-0.042229 0.012509 0.115600
-0.042083 0.012759 0.115200
-0.041973 0.013019 0.114900
-0.041827 0.013265 0.114500
-0.041718 0.013522 0.114200
-0.041608 0.013777 0.113900
-0.041535 0.014042 0.113700
-0.041425 0.014294 0.113400
-0.041352 0.014558 0.113200
-0.041279 0.014820 0.113000
-0.041243 0.015095 0.112900
-0.041206 0.015369 0.112800
-0.041170 0.015643 0.112700
-0.041170 0.015930 0.112700
-0.041133 0.016203 0.112600
-0.041133 0.016490 0.112600
-0.041133 0.016777 0.112600
-0.041133 0.017064 0.112600
-0.041133 0.017351 0.112600
-0.041133 0.017638 0.112600
-0.041133 0.017925 0.112600
-0.041133 0.018212 0.112600
-0.041170 0.018516 0.112700
-0.041170 0.018803 0.112700
-0.041170 0.019090 0.112700
-0.041206 0.019395 0.112800
-0.041206 0.019682 0.112800
-0.041206 0.019970 0.112800
-0.041243 0.020275 0.112900
-0.041243 0.020563 0.112900
-0.041243 0.020851 0.112900
-0.041279 0.021157 0.113000
-0.041316 0.021464 0.113100
-0.041352 0.021772 0.113200
-0.041352 0.022061 0.113200
-0.041389 0.022369 0.113300
-0.041462 0.022698 0.113500
-0.041498 0.023007 0.113600
-0.041498 0.023297 0.113600
-0.041571 0.023628 0.113800
-0.041608 0.023939 0.113900
-0.041645 0.024251 0.114000
-0.041681 0.024563 0.114100
-0.041754 0.024897 0.114300
-0.041827 0.025233 0.114500
-0.041864 0.025547 0.114600
-0.041900 0.025862 0.114700
-0.041973 0.026200 0.114900
-0.042046 0.026539 0.115100
-0.042119 0.026879 0.115300
-0.042192 0.027220 0.115500
-0.042229 0.027538 0.115600
-0.042302 0.027881 0.115800
-0.042339 0.028200 0.115900
-0.042412 0.028545 0.116100
-0.042485 0.028891 0.116300
-0.042631 0.029287 0.116700
-0.044327 0.007817 0.120500
-0.044217 0.008104 0.120200
-0.044106 0.008389 0.119900
-0.043996 0.008673 0.119600
-0.043922 0.008963 0.119400
-0.043849 0.009252 0.119200
-0.043775 0.009540 0.119000
-0.043665 0.009818 0.118700
-0.043554 0.010095 0.118400
-0.043481 0.010380 0.118200
-0.043407 0.010663 0.118000
-0.043297 0.010936 0.117700
-0.043187 0.011207 0.117400
-0.043113 0.011487 0.117200
-0.043003 0.011755 0.116900
-0.042892 0.012023 0.116600
-0.042782 0.012288 0.116300
-0.042672 0.012552 0.116000
-0.042598 0.012826 0.115800
-0.042414 0.013064 0.115300
-0.042304 0.013323 0.115000
-0.042230 0.013593 0.114800
-0.042120 0.013849 0.114500
-0.042009 0.014104 0.114200
-0.041899 0.014357 0.113900
-0.041862 0.014635 0.113800
-0.041789 0.014899 0.113600
-0.041752 0.015175 0.113500
-0.041678 0.015437 0.113300
-0.041642 0.015712 0.113200
-0.041642 0.016001 0.113200
-0.041642 0.016289 0.113200
-0.041605 0.016563 0.113100
-0.041605 0.016851 0.113100
-0.041605 0.017140 0.113100
-0.041605 0.017428 0.113100
-0.041605 0.017716 0.113100
-0.041605 0.018005 0.113100
-0.041568 0.018277 0.113000
-0.041568 0.018565 0.113000
-0.041568 0.018853 0.113000
-0.041568 0.019141 0.113000
-0.041605 0.019446 0.113100
-0.041605 0.019735 0.113100
-0.041605 0.020023 0.113100
-0.041605 0.020311 0.113100
-0.041642 0.020618 0.113200
-0.041642 0.020906 0.113200
-0.041642 0.021195 0.113200
-0.041678 0.021502 0.113300
-0.041715 0.021810 0.113400
-0.041752 0.022119 0.113500
-0.041789 0.022428 0.113600
-0.041825 0.022738 0.113700
-0.041862 0.023048 0.113800
-0.041899 0.023358 0.113900
-0.041936 0.023670 0.114000
-0.041973 0.023981 0.114100
-0.042009 0.024293 0.114200
-0.042083 0.024627 0.114400
-0.042157 0.024963 0.114600
-0.042193 0.025277 0.114700
-0.042230 0.025592 0.114800
-0.042304 0.025929 0.115000
-0.042377 0.026268 0.115200
-0.042414 0.026585 0.115300
-0.042488 0.026925 0.115500
-0.042561 0.027267 0.115700
-0.042598 0.027586 0.115800
-0.042635 0.027905 0.115900
-0.042672 0.028225 0.116000
-0.042745 0.028570 0.116200
-0.042855 0.028940 0.116500
-0.044746 0.007836 0.120800
-0.044598 0.008117 0.120400
-0.044450 0.008396 0.120000
-0.044376 0.008688 0.119800
-0.044264 0.008971 0.119500
-0.044227 0.009268 0.119400
-0.044079 0.009540 0.119000
-0.044005 0.009827 0.118800
-0.043931 0.010112 0.118600
-0.043820 0.010388 0.118300
-0.043783 0.010681 0.118200
-0.043709 0.010964 0.118000
-0.043635 0.011245 0.117800
-0.043524 0.011516 0.117500
-0.043412 0.011786 0.117200
-0.043338 0.012064 0.117000
-0.043227 0.012330 0.116700
-0.043116 0.012595 0.116400
-0.043005 0.012859 0.116100
-0.042894 0.013121 0.115800
-0.042783 0.013381 0.115500
-0.042672 0.013640 0.115200
-0.042560 0.013898 0.114900
-0.042486 0.014166 0.114700
-0.042375 0.014420 0.114400
-0.042301 0.014686 0.114200
-0.042227 0.014951 0.114000
-0.042190 0.015228 0.113900
-0.042153 0.015505 0.113800
-0.042116 0.015781 0.113700
-0.042079 0.016057 0.113600
-0.042079 0.016347 0.113600
-0.042079 0.016636 0.113600
-0.042042 0.016911 0.113500
-0.042042 0.017200 0.113500
-0.042042 0.017490 0.113500
-0.042042 0.017779 0.113500
-0.042005 0.018052 0.113400
-0.041968 0.018325 0.113300
-0.041968 0.018614 0.113300
-0.041968 0.018903 0.113300
-0.041968 0.019192 0.113300
-0.041968 0.019481 0.113300
-0.041968 0.019769 0.113300
-0.041968 0.020058 0.113300
-0.042005 0.020365 0.113400
-0.042005 0.020654 0.113400
-0.042042 0.020962 0.113500
-0.042042 0.021251 0.113500
-0.042079 0.021559 0.113600
-0.042079 0.021849 0.113600
-0.042153 0.022177 0.113800
-0.042153 0.022468 0.113800
-0.042190 0.022778 0.113900
-0.042227 0.023088 0.114000
-0.042301 0.023420 0.114200
-0.042301 0.023711 0.114200
-0.042375 0.024044 0.114400
-0.042412 0.024357 0.114500
-0.042449 0.024671 0.114600
-0.042523 0.025006 0.114800
-0.042560 0.025321 0.114900
-0.042598 0.025636 0.115000
-0.042672 0.025974 0.115200
-0.042709 0.026291 0.115300
-0.042783 0.026631 0.115500
-0.042820 0.026949 0.115600
-0.042894 0.027290 0.115800
-0.042931 0.027609 0.115900
-0.043005 0.027953 0.116100
-0.043042 0.028273 0.116200
-0.043042 0.028570 0.116200
-0.043190 0.028965 0.116600
-0.044980 0.008131 0.120600
-0.044831 0.008410 0.120200
-0.044719 0.008695 0.119900
-0.044607 0.008978 0.119600
-0.044570 0.009275 0.119500
-0.044458 0.009556 0.119200
-0.044383 0.009843 0.119000
-0.044271 0.010121 0.118700
-0.044197 0.010406 0.118500
-0.044122 0.010690 0.118300
-0.044085 0.010982 0.118200
-0.043973 0.011255 0.117900
-0.043936 0.011546 0.117800
-0.043824 0.011816 0.117500
-0.043749 0.012095 0.117300
-0.043637 0.012362 0.117000
-0.043563 0.012639 0.116800
-0.043451 0.012903 0.116500
-0.043339 0.013166 0.116200
-0.043227 0.013428 0.115900
-0.043115 0.013688 0.115600
-0.043003 0.013946 0.115300
-0.042929 0.014215 0.115100
-0.042854 0.014483 0.114900
-0.042779 0.014751 0.114700
-0.042705 0.015017 0.114500
-0.042668 0.015295 0.114400
-0.042593 0.015560 0.114200
-0.042593 0.015851 0.114200
-0.042556 0.016128 0.114100
-0.042518 0.016404 0.114000
-0.042518 0.016695 0.114000
-0.042481 0.016971 0.113900
-0.042481 0.017261 0.113900
-0.042444 0.017536 0.113800
-0.042444 0.017826 0.113800
-0.042444 0.018116 0.113800
-0.042444 0.018406 0.113800
-0.042369 0.018663 0.113600
-0.042369 0.018953 0.113600
-0.042369 0.019243 0.113600
-0.042369 0.019532 0.113600
-0.042369 0.019822 0.113600
-0.042369 0.020111 0.113600
-0.042407 0.020419 0.113700
-0.042407 0.020709 0.113700
-0.042444 0.021017 0.113800
-0.042444 0.021307 0.113800
-0.042481 0.021616 0.113900
-0.042481 0.021907 0.113900
-0.042518 0.022216 0.114000
-0.042556 0.022527 0.114100
-0.042593 0.022838 0.114200
-0.042630 0.023149 0.114300
-0.042668 0.023461 0.114400
-0.042705 0.023773 0.114500
-0.042742 0.024086 0.114600
-0.042779 0.024400 0.114700
-0.042854 0.024735 0.114900
-0.042891 0.025050 0.115000
-0.042966 0.025387 0.115200
-0.043003 0.025703 0.115300
-0.043041 0.026019 0.115400
-0.043078 0.026336 0.115500
-0.043152 0.026677 0.115700
-0.043190 0.026995 0.115800
-0.043264 0.027338 0.116000
-0.043302 0.027657 0.116100
-0.043339 0.027977 0.116200
-0.043339 0.028273 0.116200
-0.043414 0.028619 0.116400
-0.045213 0.008424 0.120400
-0.045100 0.008710 0.120100
-0.044988 0.008993 0.119800
-0.044913 0.009283 0.119600
-0.044838 0.009572 0.119400
-0.044725 0.009851 0.119100
-0.044650 0.010138 0.118900
-0.044575 0.010424 0.118700
-0.044500 0.010708 0.118500
-0.044424 0.010992 0.118300
-0.044387 0.011284 0.118200
-0.044312 0.011565 0.118000
-0.044237 0.011846 0.117800
-0.044124 0.012115 0.117500
-0.044049 0.012394 0.117300
-0.043936 0.012660 0.117000
-0.043861 0.012936 0.116800
-0.043749 0.013200 0.116500
-0.043636 0.013462 0.116200
-0.043561 0.013735 0.116000
-0.043486 0.014006 0.115800
-0.043373 0.014265 0.115500
-0.043298 0.014534 0.115300
-0.043223 0.014802 0.115100
-0.043148 0.015069 0.114900
-0.043110 0.015349 0.114800
-0.043073 0.015628 0.114700
-0.043035 0.015906 0.114600
-0.042997 0.016184 0.114500
-0.042960 0.016462 0.114400
-0.042922 0.016739 0.114300
-0.042922 0.017030 0.114300
-0.042885 0.017306 0.114200
-0.042885 0.017598 0.114200
-0.042885 0.017889 0.114200
-0.042847 0.018164 0.114100
-0.042810 0.018439 0.114000
-0.042810 0.018729 0.114000
-0.042810 0.019020 0.114000
-0.042810 0.019310 0.114000
-0.042772 0.019584 0.113900
-0.042772 0.019874 0.113900
-0.042810 0.020182 0.114000
-0.042810 0.020473 0.114000
-0.042810 0.020763 0.114000
-0.042810 0.021054 0.114000
-0.042847 0.021363 0.114100
-0.042847 0.021654 0.114100
-0.042885 0.021964 0.114200
-0.042922 0.022275 0.114300
-0.042922 0.022566 0.114300
-0.042997 0.022898 0.114500
-0.043035 0.023210 0.114600
-0.043073 0.023522 0.114700
-0.043073 0.023815 0.114700
-0.043148 0.024149 0.114900
-0.043185 0.024463 0.115000
-0.043223 0.024778 0.115100
-0.043260 0.025093 0.115200
-0.043335 0.025431 0.115400
-0.043373 0.025748 0.115500
-0.043411 0.026065 0.115600
-0.043448 0.026382 0.115700
-0.043523 0.026723 0.115900
-0.043523 0.027019 0.115900
-0.043561 0.027338 0.116000
-0.043598 0.027657 0.116100
-0.043673 0.028001 0.116300
-0.043673 0.028298 0.116300
-0.043711 0.028619 0.116400
-0.045558 0.008431 0.120500
-0.045407 0.008710 0.120100
-0.045332 0.009001 0.119900
-0.045256 0.009291 0.119700
-0.045143 0.009572 0.119400
-0.045067 0.009860 0.119200
-0.044991 0.010147 0.119000
-0.044954 0.010441 0.118900
-0.044878 0.010726 0.118700
-0.044840 0.011019 0.118600
-0.044765 0.011303 0.118400
-0.044689 0.011585 0.118200
-0.044613 0.011866 0.118000
-0.044538 0.012146 0.117800
-0.044462 0.012425 0.117600
-0.044386 0.012704 0.117400
-0.044273 0.012970 0.117100
-0.044197 0.013246 0.116900
-0.044084 0.013509 0.116600
-0.044008 0.013782 0.116400
-0.043895 0.014043 0.116100
-0.043819 0.014314 0.115900
-0.043744 0.014584 0.115700
-0.043668 0.014853 0.115500
-0.043592 0.015122 0.115300
-0.043555 0.015402 0.115200
-0.043479 0.015669 0.115000
-0.043441 0.015948 0.114900
-0.043441 0.016241 0.114900
-0.043366 0.016505 0.114700
-0.043366 0.016797 0.114700
-0.043328 0.017075 0.114600
-0.043290 0.017352 0.114500
-0.043290 0.017644 0.114500
-0.043290 0.017936 0.114500
-0.043252 0.018212 0.114400
-0.043214 0.018487 0.114300
-0.043214 0.018778 0.114300
-0.043177 0.019053 0.114200
-0.043177 0.019344 0.114200
-0.043177 0.019635 0.114200
-0.043177 0.019926 0.114200
-0.043177 0.020218 0.114200
-0.043177 0.020509 0.114200
-0.043214 0.020818 0.114300
-0.043214 0.021109 0.114300
-0.043214 0.021401 0.114300
-0.043252 0.021711 0.114400
-0.043290 0.022022 0.114500
-0.043328 0.022333 0.114600
-0.043328 0.022626 0.114600
-0.043366 0.022938 0.114700
-0.043403 0.023250 0.114800
-0.043441 0.023563 0.114900
-0.043479 0.023877 0.115000
-0.043555 0.024212 0.115200
-0.043555 0.024506 0.115200
-0.043592 0.024821 0.115300
-0.043668 0.025159 0.115500
-0.043706 0.025475 0.115600
-0.043706 0.025770 0.115600
-0.043782 0.026110 0.115800
-0.043782 0.026405 0.115800
-0.043857 0.026746 0.116000
-0.043857 0.027042 0.116000
-0.043895 0.027361 0.116100
-0.043933 0.027681 0.116200
-0.043971 0.028001 0.116300
-0.044008 0.028322 0.116400
-0.045790 0.008724 0.120300
-0.045638 0.009001 0.119900
-0.045562 0.009291 0.119700
-0.045486 0.009580 0.119500
-0.045372 0.009860 0.119200
-0.045334 0.010155 0.119100
-0.045295 0.010450 0.119000
-0.045257 0.010744 0.118900
-0.045181 0.011029 0.118700
-0.045143 0.011322 0.118600
-0.045105 0.011614 0.118500
-0.045029 0.011896 0.118300
-0.044915 0.012167 0.118000
-0.044839 0.012447 0.117800
-0.044763 0.012725 0.117600
-0.044686 0.013003 0.117400
-0.044610 0.013280 0.117200
-0.044496 0.013544 0.116900
-0.044420 0.013818 0.116700
-0.044344 0.014091 0.116500
-0.044230 0.014351 0.116200
-0.044192 0.014635 0.116100
-0.044077 0.014892 0.115800
-0.044039 0.015174 0.115700
-0.043963 0.015442 0.115500
-0.043925 0.015723 0.115400
-0.043887 0.016003 0.115300
-0.043849 0.016283 0.115200
-0.043811 0.016563 0.115100
-0.043773 0.016841 0.115000
-0.043735 0.017120 0.114900
-0.043735 0.017412 0.114900
-0.043659 0.017675 0.114700
-0.043659 0.017967 0.114700
-0.043659 0.018259 0.114700
-0.043621 0.018536 0.114600
-0.043621 0.018828 0.114600
-0.043583 0.019103 0.114500
-0.043583 0.019395 0.114500
-0.043583 0.019687 0.114500
-0.043583 0.019979 0.114500
-0.043583 0.020271 0.114500
-0.043583 0.020563 0.114500
-0.043621 0.020873 0.114600
-0.043621 0.021165 0.114600
-0.043621 0.021457 0.114600
-0.043659 0.021768 0.114700
-0.043659 0.022060 0.114700
-0.043735 0.022392 0.114900
-0.043735 0.022685 0.114900
-0.043773 0.022998 0.115000
-0.043811 0.023311 0.115100
-0.043849 0.023625 0.115200
-0.043887 0.023939 0.115300
-0.043887 0.024233 0.115300
-0.043963 0.024570 0.115500
-0.044001 0.024886 0.115600
-0.044001 0.025180 0.115600
-0.044077 0.025519 0.115800
-0.044077 0.025814 0.115800
-0.044077 0.026110 0.115800
-0.044154 0.026450 0.116000
-0.044192 0.026769 0.116100
-0.044192 0.027065 0.116100
-0.044268 0.027408 0.116300
-0.044306 0.027729 0.116400
-0.044306 0.028025 0.116400
-0.046098 0.008724 0.120300
-0.045983 0.009008 0.120000
-0.045906 0.009299 0.119800
-0.045829 0.009588 0.119600
-0.045753 0.009876 0.119400
-0.045676 0.010164 0.119200
-0.045600 0.010450 0.119000
-0.045600 0.010753 0.119000
-0.045561 0.011047 0.118900
-0.045485 0.011331 0.118700
-0.045446 0.011624 0.118600
-0.045370 0.011906 0.118400
-0.045331 0.012198 0.118300
-0.045216 0.012468 0.118000
-0.045140 0.012747 0.117800
-0.045063 0.013025 0.117600
-0.044986 0.013302 0.117400
-0.044910 0.013578 0.117200
-0.044833 0.013853 0.117000
-0.044718 0.014115 0.116700
-0.044680 0.014400 0.116600
-0.044603 0.014673 0.116400
-0.044527 0.014944 0.116200
-0.044488 0.015227 0.116100
-0.044412 0.015496 0.115900
-0.044373 0.015778 0.115800
-0.044297 0.016045 0.115600
-0.044258 0.016326 0.115500
-0.044220 0.016606 0.115400
-0.044182 0.016885 0.115300
-0.044143 0.017164 0.115200
-0.044143 0.017458 0.115200
-0.044105 0.017736 0.115100
-0.044105 0.018030 0.115100
-0.044067 0.018307 0.115000
-0.044067 0.018600 0.115000
-0.044028 0.018877 0.114900
-0.044028 0.019170 0.114900
-0.044028 0.019463 0.114900
-0.044028 0.019756 0.114900
-0.044028 0.020049 0.114900
-0.044028 0.020342 0.114900
-0.044028 0.020634 0.114900
-0.044028 0.020927 0.114900
-0.044028 0.021220 0.114900
-0.044067 0.021532 0.115000
-0.044067 0.021825 0.115000
-0.044067 0.022118 0.115000
-0.044143 0.022450 0.115200
-0.044143 0.022744 0.115200
-0.044182 0.023058 0.115300
-0.044220 0.023372 0.115400
-0.044258 0.023687 0.115500
-0.044258 0.023981 0.115500
-0.044297 0.024296 0.115600
-0.044335 0.024612 0.115700
-0.044373 0.024929 0.115800
-0.044412 0.025246 0.115900
-0.044450 0.025563 0.116000
-0.044488 0.025881 0.116100
-0.044488 0.026177 0.116100
-0.044488 0.026473 0.116100
-0.044527 0.026792 0.116200
-0.044565 0.027112 0.116300
-0.044603 0.027432 0.116400
-0.044680 0.027776 0.116600
-0.044680 0.028073 0.116600
-0.046328 0.009016 0.120100
-0.046212 0.009299 0.119800
-0.046174 0.009596 0.119700
-0.046096 0.009885 0.119500
-0.046058 0.010181 0.119400
-0.045981 0.010467 0.119200
-0.045981 0.010771 0.119200
-0.045942 0.011066 0.119100
-0.045904 0.011360 0.119000
-0.045826 0.011644 0.118800
-0.045788 0.011937 0.118700
-0.045711 0.012218 0.118500
-0.045634 0.012499 0.118300
-0.045556 0.012779 0.118100
-0.045479 0.013058 0.117900
-0.045402 0.013336 0.117700
-0.045325 0.013613 0.117500
-0.045209 0.013877 0.117200
-0.045132 0.014152 0.117000
-0.045094 0.014438 0.116900
-0.045016 0.014710 0.116700
-0.044939 0.014982 0.116500
-0.044901 0.015266 0.116400
-0.044823 0.015536 0.116200
-0.044785 0.015819 0.116100
-0.044708 0.016087 0.115900
-0.044708 0.016382 0.115900
-0.044669 0.016663 0.115800
-0.044592 0.016929 0.115600
-0.044592 0.017224 0.115600
-0.044553 0.017503 0.115500
-0.044553 0.017798 0.115500
-0.044553 0.018092 0.115500
-0.044515 0.018371 0.115400
-0.044476 0.018649 0.115300
-0.044476 0.018943 0.115300
-0.044438 0.019220 0.115200
-0.044438 0.019514 0.115200
-0.044438 0.019807 0.115200
-0.044438 0.020101 0.115200
-0.044438 0.020395 0.115200
-0.044438 0.020688 0.115200
-0.044438 0.020982 0.115200
-0.044438 0.021276 0.115200
-0.044476 0.021588 0.115300
-0.044476 0.021882 0.115300
-0.044515 0.022195 0.115400
-0.044553 0.022509 0.115500
-0.044553 0.022803 0.115500
-0.044592 0.023118 0.115600
-0.044592 0.023412 0.115600
-0.044631 0.023728 0.115700
-0.044669 0.024043 0.115800
-0.044708 0.024359 0.115900
-0.044708 0.024655 0.115900
-0.044785 0.024993 0.116100
-0.044785 0.025289 0.116100
-0.044823 0.025607 0.116200
-0.044823 0.025904 0.116200
-0.044862 0.026222 0.116300
-0.044901 0.026542 0.116400
-0.044901 0.026838 0.116400
-0.044939 0.027158 0.116500
-0.044978 0.027479 0.116600
-0.044978 0.027776 0.116600
-0.046674 0.009023 0.120200
-0.046557 0.009306 0.119900
-0.046518 0.009604 0.119800
-0.046441 0.009893 0.119600
-0.046402 0.010189 0.119500
-0.046402 0.010494 0.119500
-0.046363 0.010789 0.119400
-0.046324 0.011084 0.119300
-0.046285 0.011379 0.119200
-0.046246 0.011673 0.119100
-0.046169 0.011957 0.118900
-0.046091 0.012239 0.118700
-0.046052 0.012531 0.118600
-0.045975 0.012812 0.118400
-0.045897 0.013091 0.118200
-0.045819 0.013370 0.118000
-0.045742 0.013648 0.117800
-0.045625 0.013913 0.117500
-0.045586 0.014200 0.117400
-0.045509 0.014475 0.117200
-0.045431 0.014748 0.117000
-0.045392 0.015034 0.116900
-0.045315 0.015305 0.116700
-0.045276 0.015589 0.116600
-0.045198 0.015859 0.116400
-0.045159 0.016142 0.116300
-0.045120 0.016425 0.116200
-0.045082 0.016706 0.116100
-0.045004 0.016973 0.115900
-0.045004 0.017269 0.115900
-0.044965 0.017549 0.115800
-0.044965 0.017844 0.115800
-0.044965 0.018139 0.115800
-0.044926 0.018419 0.115700
-0.044926 0.018713 0.115700
-0.044887 0.018992 0.115600
-0.044887 0.019287 0.115600
-0.044887 0.019581 0.115600
-0.044887 0.019876 0.115600
-0.044887 0.020171 0.115600
-0.044887 0.020465 0.115600
-0.044887 0.020760 0.115600
-0.044887 0.021055 0.115600
-0.044887 0.021350 0.115600
-0.044887 0.021644 0.115600
-0.044887 0.021939 0.115600
-0.044926 0.022253 0.115700
-0.044965 0.022567 0.115800
-0.044965 0.022862 0.115800
-0.045004 0.023178 0.115900
-0.045004 0.023473 0.115900
-0.045043 0.023789 0.116000
-0.045082 0.024106 0.116100
-0.045120 0.024423 0.116200
-0.045120 0.024719 0.116200
-0.045159 0.025036 0.116300
-0.045198 0.025355 0.116400
-0.045276 0.025696 0.116600
-0.045276 0.025993 0.116600
-0.045276 0.026290 0.116600
-0.045276 0.026587 0.116600
-0.045315 0.026908 0.116700
-0.045315 0.027205 0.116700
-0.046863 0.009306 0.119900
-0.046863 0.009612 0.119900
-0.046824 0.009909 0.119800
-0.046824 0.010215 0.119800
-0.046746 0.010503 0.119600
-0.046746 0.010807 0.119600
-0.046707 0.011103 0.119500
-0.046707 0.011408 0.119500
-0.046629 0.011693 0.119300
-0.046590 0.011987 0.119200
-0.046551 0.012280 0.119100
-0.046473 0.012563 0.118900
-0.046394 0.012844 0.118700
-0.046316 0.013125 0.118500
-0.046238 0.013404 0.118300
-0.046160 0.013683 0.118100
-0.046082 0.013960 0.117900
-0.046004 0.014236 0.117700
-0.045925 0.014512 0.117500
-0.045886 0.014799 0.117400
-0.045808 0.015072 0.117200
-0.045730 0.015345 0.117000
-0.045691 0.015630 0.116900
-0.045613 0.015900 0.116700
-0.045574 0.016184 0.116600
-0.045535 0.016467 0.116500
-0.045495 0.016750 0.116400
-0.045456 0.017032 0.116300
-0.045417 0.017313 0.116200
-0.045378 0.017594 0.116100
-0.045378 0.017890 0.116100
-0.045378 0.018186 0.116100
-0.045339 0.018466 0.116000
-0.045300 0.018746 0.115900
-0.045300 0.019041 0.115900
-0.045300 0.019337 0.115900
-0.045300 0.019632 0.115900
-0.045300 0.019928 0.115900
-0.045300 0.020223 0.115900
-0.045300 0.020519 0.115900
-0.045300 0.020814 0.115900
-0.045300 0.021109 0.115900
-0.045300 0.021405 0.115900
-0.045300 0.021700 0.115900
-0.045300 0.021996 0.115900
-0.045339 0.022311 0.116000
-0.045378 0.022626 0.116100
-0.045378 0.022922 0.116100
-0.045417 0.023238 0.116200
-0.045417 0.023534 0.116200
-0.045456 0.023851 0.116300
-0.045495 0.024168 0.116400
-0.045535 0.024486 0.116500
-0.045574 0.024804 0.116600
-0.045613 0.025123 0.116700
-0.045652 0.025442 0.116800
-0.045691 0.025762 0.116900
-0.045691 0.026060 0.116900
-0.045691 0.026358 0.116900
-0.045730 0.026678 0.117000
-0.045730 0.026977 0.117000
-0.045769 0.027298 0.117100
-0.047249 0.009322 0.120100
-0.047249 0.009628 0.120100
-0.047209 0.009926 0.120000
-0.047170 0.010223 0.119900
-0.047170 0.010529 0.119900
-0.047170 0.010835 0.119900
-0.047170 0.011140 0.119900
-0.047130 0.011436 0.119800
-0.047091 0.011732 0.119700
-0.047052 0.012027 0.119600
-0.046973 0.012311 0.119400
-0.046894 0.012595 0.119200
-0.046855 0.012888 0.119100
-0.046776 0.013169 0.118900
-0.046698 0.013449 0.118700
-0.046619 0.013729 0.118500
-0.046540 0.014007 0.118300
-0.046462 0.014285 0.118100
-0.046344 0.014549 0.117800
-0.046304 0.014836 0.117700
-0.046226 0.015111 0.117500
-0.046186 0.015397 0.117400
-0.046108 0.015670 0.117200
-0.046068 0.015955 0.117100
-0.045990 0.016226 0.116900
-0.045950 0.016509 0.116800
-0.045911 0.016793 0.116700
-0.045872 0.017076 0.116600
-0.045832 0.017358 0.116500
-0.045793 0.017640 0.116400
-0.045793 0.017937 0.116400
-0.045793 0.018233 0.116400
-0.045754 0.018514 0.116300
-0.045714 0.018794 0.116200
-0.045714 0.019091 0.116200
-0.045714 0.019387 0.116200
-0.045714 0.019683 0.116200
-0.045714 0.019979 0.116200
-0.045714 0.020275 0.116200
-0.045714 0.020572 0.116200
-0.045714 0.020868 0.116200
-0.045714 0.021164 0.116200
-0.045714 0.021460 0.116200
-0.045714 0.021757 0.116200
-0.045714 0.022053 0.116200
-0.045754 0.022368 0.116300
-0.045793 0.022684 0.116400
-0.045793 0.022981 0.116400
-0.045832 0.023298 0.116500
-0.045872 0.023615 0.116600
-0.045872 0.023912 0.116600
-0.045911 0.024230 0.116700
-0.045990 0.024570 0.116900
-0.045990 0.024868 0.116900
-0.046029 0.025187 0.117000
-0.046068 0.025507 0.117100
-0.046108 0.025828 0.117200
-0.046147 0.026149 0.117300
-0.046186 0.026470 0.117400
-0.046186 0.026770 0.117400
-0.046186 0.027069 0.117400
-0.047555 0.009934 0.120100
-0.047555 0.010240 0.120100
-0.047595 0.010555 0.120200
-0.047595 0.010862 0.120200
-0.047595 0.011168 0.120200
-0.047595 0.011475 0.120200
-0.047555 0.011771 0.120100
-0.047516 0.012067 0.120000
-0.047476 0.012363 0.119900
-0.047397 0.012647 0.119700
-0.047357 0.012942 0.119600
-0.047239 0.013213 0.119300
-0.047199 0.013506 0.119200
-0.047080 0.013775 0.118900
-0.047001 0.014055 0.118700
-0.046922 0.014333 0.118500
-0.046843 0.014610 0.118300
-0.046763 0.014887 0.118100
-0.046684 0.015162 0.117900
-0.046605 0.015436 0.117700
-0.046565 0.015723 0.117600
-0.046486 0.015996 0.117400
-0.046447 0.016281 0.117300
-0.046407 0.016566 0.117200
-0.046328 0.016836 0.117000
-0.046288 0.017120 0.116900
-0.046288 0.017418 0.116900
-0.046209 0.017685 0.116700
-0.046209 0.017983 0.116700
-0.046170 0.018265 0.116600
-0.046170 0.018562 0.116600
-0.046170 0.018859 0.116600
-0.046170 0.019156 0.116600
-0.046130 0.019437 0.116500
-0.046130 0.019734 0.116500
-0.046130 0.020031 0.116500
-0.046130 0.020328 0.116500
-0.046130 0.020625 0.116500
-0.046130 0.020922 0.116500
-0.046130 0.021219 0.116500
-0.046130 0.021516 0.116500
-0.046170 0.021831 0.116600
-0.046170 0.022129 0.116600
-0.046170 0.022426 0.116600
-0.046209 0.022743 0.116700
-0.046209 0.023040 0.116700
-0.046288 0.023378 0.116900
-0.046288 0.023676 0.116900
-0.046328 0.023994 0.117000
-0.046367 0.024313 0.117100
-0.046407 0.024633 0.117200
-0.046447 0.024953 0.117300
-0.046486 0.025273 0.117400
-0.046526 0.025594 0.117500
-0.046565 0.025916 0.117600
-0.046605 0.026238 0.117700
-0.046605 0.026538 0.117700
-0.046605 0.026838 0.117700
-0.046645 0.027161 0.117800
-0.048062 0.010283 0.120600
-0.048062 0.010590 0.120600
-0.048062 0.010898 0.120600
-0.048101 0.011215 0.120700
-0.048101 0.011522 0.120700
-0.048022 0.011810 0.120500
-0.048022 0.012118 0.120500
-0.047942 0.012404 0.120300
-0.047902 0.012700 0.120200
-0.047822 0.012985 0.120000
-0.047743 0.013269 0.119800
-0.047663 0.013551 0.119600
-0.047583 0.013833 0.119400
-0.047504 0.014114 0.119200
-0.047424 0.014394 0.119000
-0.047344 0.014672 0.118800
-0.047225 0.014937 0.118500
-0.047145 0.015214 0.118300
-0.047105 0.015502 0.118200
-0.047025 0.015777 0.118000
-0.046946 0.016050 0.117800
-0.046906 0.016337 0.117700
-0.046826 0.016608 0.117500
-0.046786 0.016893 0.117400
-0.046746 0.017178 0.117300
-0.046707 0.017462 0.117200
-0.046667 0.017746 0.117100
-0.046627 0.018029 0.117000
-0.046627 0.018327 0.117000
-0.046627 0.018625 0.117000
-0.046587 0.018908 0.116900
-0.046587 0.019206 0.116900
-0.046587 0.019504 0.116900
-0.046587 0.019802 0.116900
-0.046587 0.020100 0.116900
-0.046587 0.020398 0.116900
-0.046587 0.020696 0.116900
-0.046587 0.020994 0.116900
-0.046587 0.021292 0.116900
-0.046587 0.021590 0.116900
-0.046587 0.021888 0.116900
-0.046587 0.022186 0.116900
-0.046627 0.022503 0.117000
-0.046667 0.022821 0.117100
-0.046707 0.023139 0.117200
-0.046707 0.023438 0.117200
-0.046746 0.023757 0.117300
-0.046786 0.024076 0.117400
-0.046826 0.024396 0.117500
-0.046826 0.024696 0.117500
-0.046906 0.025038 0.117700
-0.046946 0.025359 0.117800
-0.046866 0.025616 0.117600
-0.046866 0.025916 0.117600
-0.046906 0.026238 0.117700
-0.046906 0.026538 0.117700
-0.046906 0.026838 0.117700
-0.048650 0.010343 0.121300
-0.048650 0.010652 0.121300
-0.048610 0.010952 0.121200
-0.048610 0.011261 0.121200
-0.048610 0.011570 0.121200
-0.048570 0.011869 0.121100
-0.048530 0.012168 0.121000
-0.048490 0.012466 0.120900
-0.048410 0.012753 0.120700
-0.048330 0.013039 0.120500
-0.048249 0.013324 0.120300
-0.048169 0.013608 0.120100
-0.048089 0.013891 0.119900
-0.048009 0.014173 0.119700
-0.047888 0.014442 0.119400
-0.047808 0.014722 0.119200
-0.047728 0.015000 0.119000
-0.047648 0.015278 0.118800
-0.047527 0.015541 0.118500
-0.047447 0.015817 0.118300
-0.047407 0.016105 0.118200
-0.047327 0.016378 0.118000
-0.047287 0.016665 0.117900
-0.047247 0.016951 0.117800
-0.047166 0.017222 0.117600
-0.047126 0.017507 0.117500
-0.047126 0.017806 0.117500
-0.047086 0.018091 0.117400
-0.047086 0.018390 0.117400
-0.047086 0.018689 0.117400
-0.047046 0.018972 0.117300
-0.047046 0.019271 0.117300
-0.047046 0.019570 0.117300
-0.047006 0.019852 0.117200
-0.047006 0.020151 0.117200
-0.047006 0.020450 0.117200
-0.047006 0.020749 0.117200
-0.047006 0.021047 0.117200
-0.047046 0.021364 0.117300
-0.047046 0.021663 0.117300
-0.047086 0.021981 0.117400
-0.047086 0.022280 0.117400
-0.047086 0.022580 0.117400
-0.047126 0.022899 0.117500
-0.047166 0.023218 0.117600
-0.047207 0.023538 0.117700
-0.047207 0.023838 0.117700
-0.047126 0.024097 0.117500
-0.047126 0.024396 0.117500
-0.047126 0.024696 0.117500
-0.047207 0.025038 0.117700
-0.047247 0.025359 0.117800
-0.047247 0.025660 0.117800
-0.047327 0.026004 0.118000
-0.047327 0.026305 0.118000
-0.047367 0.026628 0.118100
-0.047407 0.026952 0.118200
-0.049122 0.010377 0.121700
-0.049081 0.010678 0.121600
-0.049081 0.010988 0.121600
-0.049081 0.011298 0.121600
-0.049081 0.011608 0.121600
-0.049041 0.011908 0.121500
-0.049001 0.012208 0.121400
-0.048960 0.012507 0.121300
-0.048920 0.012806 0.121200
-0.048799 0.013082 0.120900
-0.048718 0.013368 0.120700
-0.048637 0.013653 0.120500
-0.048557 0.013937 0.120300
-0.048476 0.014220 0.120100
-0.048395 0.014502 0.119900
-0.048315 0.014783 0.119700
-0.048193 0.015051 0.119400
-0.048113 0.015329 0.119200
-0.048032 0.015607 0.119000
-0.047951 0.015884 0.118800
-0.047871 0.016159 0.118600
-0.047790 0.016434 0.118400
-0.047709 0.016707 0.118200
-0.047669 0.016994 0.118100
-0.047628 0.017281 0.118000
-0.047548 0.017552 0.117800
-0.047548 0.017852 0.117800
-0.047507 0.018137 0.117700
-0.047507 0.018437 0.117700
-0.047507 0.018737 0.117700
-0.047507 0.019037 0.117700
-0.047507 0.019337 0.117700
-0.047467 0.019620 0.117600
-0.047467 0.019920 0.117600
-0.047467 0.020220 0.117600
-0.047467 0.020520 0.117600
-0.047507 0.020837 0.117700
-0.047507 0.021137 0.117700
-0.047507 0.021437 0.117700
-0.047507 0.021737 0.117700
-0.047507 0.022037 0.117700
-0.047548 0.022356 0.117800
-0.047427 0.022599 0.117500
-0.047427 0.022899 0.117500
-0.047467 0.023218 0.117600
-0.047507 0.023538 0.117700
-0.047507 0.023838 0.117700
-0.047548 0.024158 0.117800
-0.047548 0.024458 0.117800
-0.047628 0.024801 0.118000
-0.047628 0.025102 0.118000
-0.047709 0.025445 0.118200
-0.047749 0.025769 0.118300
-0.047749 0.026070 0.118300
-0.047790 0.026394 0.118400
-0.047830 0.026718 0.118500
-0.049677 0.010428 0.122300
-0.049595 0.010722 0.122100
-0.049595 0.011033 0.122100
-0.049595 0.011345 0.122100
-0.049555 0.011646 0.122000
-0.049514 0.011948 0.121900
-0.049473 0.012248 0.121800
-0.049433 0.012548 0.121700
-0.049392 0.012848 0.121600
-0.049311 0.013136 0.121400
-0.049230 0.013424 0.121200
-0.049108 0.013699 0.120900
-0.049027 0.013984 0.120700
-0.048945 0.014268 0.120500
-0.048864 0.014551 0.120300
-0.048783 0.014833 0.120100
-0.048661 0.015101 0.119800
-0.048580 0.015381 0.119600
-0.048499 0.015659 0.119400
-0.048417 0.015937 0.119200
-0.048336 0.016214 0.119000
-0.048255 0.016489 0.118800
-0.048174 0.016764 0.118600
-0.048133 0.017052 0.118500
-0.048052 0.017325 0.118300
-0.048011 0.017611 0.118200
-0.048011 0.017913 0.118200
-0.047971 0.018198 0.118100
-0.047930 0.018484 0.118000
-0.047930 0.018785 0.118000
-0.047930 0.019085 0.118000
-0.047930 0.019386 0.118000
-0.047930 0.019687 0.118000
-0.047930 0.019988 0.118000
-0.047930 0.020289 0.118000
-0.047930 0.020590 0.118000
-0.047930 0.020890 0.118000
-0.047930 0.021191 0.118000
-0.047808 0.021437 0.117700
-0.047808 0.021737 0.117700
-0.047808 0.022037 0.117700
-0.047849 0.022356 0.117800
-0.047849 0.022657 0.117800
-0.047889 0.022976 0.117900
-0.047930 0.023297 0.118000
-0.047930 0.023598 0.118000
-0.047971 0.023919 0.118100
-0.048011 0.024240 0.118200
-0.048052 0.024562 0.118300
-0.048052 0.024864 0.118300
-0.048133 0.025208 0.118500
-0.048174 0.025532 0.118600
-0.048214 0.025856 0.118700
-0.048255 0.026180 0.118800
-0.048295 0.026505 0.118900
-0.048336 0.026831 0.119000
-0.050153 0.010462 0.122700
-0.050153 0.010775 0.122700
-0.050112 0.011079 0.122600
-0.050071 0.011382 0.122500
-0.050071 0.011694 0.122500
-0.050071 0.012006 0.122500
-0.049989 0.012299 0.122300
-0.049948 0.012600 0.122200
-0.049907 0.012901 0.122100
-0.049785 0.013180 0.121800
-0.049703 0.013468 0.121600
-0.049621 0.013755 0.121400
-0.049539 0.014042 0.121200
-0.049417 0.014315 0.120900
-0.049335 0.014599 0.120700
-0.049253 0.014882 0.120500
-0.049131 0.015151 0.120200
-0.049049 0.015432 0.120000
-0.048967 0.015712 0.119800
-0.048885 0.015991 0.119600
-0.048804 0.016268 0.119400
-0.048722 0.016545 0.119200
-0.048640 0.016820 0.119000
-0.048558 0.017095 0.118800
-0.048518 0.017383 0.118700
-0.048436 0.017656 0.118500
-0.048395 0.017943 0.118400
-0.048354 0.018229 0.118300
-0.048354 0.018531 0.118300
-0.048354 0.018832 0.118300
-0.048354 0.019134 0.118300
-0.048354 0.019436 0.118300
-0.048354 0.019737 0.118300
-0.048231 0.019988 0.118000
-0.048231 0.020289 0.118000
-0.048231 0.020590 0.118000
-0.048231 0.020890 0.118000
-0.048231 0.021191 0.118000
-0.048231 0.021492 0.118000
-0.048272 0.021811 0.118100
-0.048313 0.022131 0.118200
-0.048313 0.022432 0.118200
-0.048354 0.022753 0.118300
-0.048354 0.023054 0.118300
-0.048395 0.023376 0.118400
-0.048436 0.023698 0.118500
-0.048436 0.024000 0.118500
-0.048477 0.024322 0.118600
-0.048518 0.024645 0.118700
-0.048558 0.024969 0.118800
-0.048599 0.025293 0.118900
-0.048640 0.025618 0.119000
-0.048681 0.025943 0.119100
-0.048722 0.026269 0.119200
-0.048763 0.026595 0.119300
-0.050631 0.010496 0.123100
-0.050631 0.010810 0.123100
-0.050631 0.011124 0.123100
-0.050631 0.011438 0.123100
-0.050548 0.011732 0.122900
-0.050548 0.012046 0.122900
-0.050507 0.012349 0.122800
-0.050425 0.012641 0.122600
-0.050384 0.012943 0.122500
-0.050302 0.013234 0.122300
-0.050178 0.013512 0.122000
-0.050096 0.013801 0.121800
-0.049972 0.014076 0.121500
-0.049890 0.014362 0.121300
-0.049808 0.014648 0.121100
-0.049726 0.014932 0.120900
-0.049602 0.015202 0.120600
-0.049520 0.015484 0.120400
-0.049438 0.015764 0.120200
-0.049314 0.016031 0.119900
-0.049273 0.016323 0.119800
-0.049191 0.016600 0.119600
-0.049109 0.016877 0.119400
-0.049026 0.017153 0.119200
-0.048944 0.017427 0.119000
-0.048903 0.017716 0.118900
-0.048862 0.018003 0.118800
-0.048656 0.018229 0.118300
-0.048656 0.018531 0.118300
-0.048656 0.018832 0.118300
-0.048656 0.019134 0.118300
-0.048656 0.019436 0.118300
-0.048656 0.019737 0.118300
-0.048656 0.020039 0.118300
-0.048656 0.020340 0.118300
-0.048656 0.020642 0.118300
-0.048656 0.020943 0.118300
-0.048697 0.021263 0.118400
-0.048739 0.021583 0.118500
-0.048739 0.021885 0.118500
-0.048739 0.022187 0.118500
-0.048780 0.022508 0.118600
-0.048821 0.022830 0.118700
-0.048862 0.023152 0.118800
-0.048903 0.023474 0.118900
-0.048903 0.023778 0.118900
-0.048944 0.024101 0.119000
-0.048985 0.024425 0.119100
-0.049026 0.024749 0.119200
-0.049068 0.025074 0.119300
-0.049109 0.025399 0.119400
-0.049109 0.025704 0.119400
-0.049191 0.026052 0.119600
-0.049232 0.026379 0.119700
-0.049273 0.026706 0.119800
-0.051111 0.010845 0.123500
-0.051111 0.011160 0.123500
-0.051111 0.011475 0.123500
-0.051111 0.011790 0.123500
-0.051111 0.012104 0.123500
-0.051028 0.012399 0.123300
-0.050986 0.012703 0.123200
-0.050904 0.012996 0.123000
-0.050780 0.013277 0.122700
-0.050697 0.013568 0.122500
-0.050614 0.013857 0.122300
-0.050448 0.014123 0.121900
-0.050324 0.014398 0.121600
-0.050242 0.014684 0.121400
-0.050159 0.014969 0.121200
-0.050035 0.015240 0.120900
-0.049952 0.015522 0.120700
-0.049869 0.015804 0.120500
-0.049786 0.016084 0.120300
-0.049704 0.016364 0.120100
-0.049497 0.016600 0.119600
-0.049414 0.016877 0.119400
-0.049331 0.017153 0.119200
-0.049248 0.017427 0.119000
-0.049207 0.017716 0.118900
-0.049166 0.018003 0.118800
-0.049124 0.018291 0.118700
-0.049124 0.018594 0.118700
-0.049124 0.018896 0.118700
-0.049083 0.019183 0.118600
-0.049083 0.019485 0.118600
-0.049083 0.019787 0.118600
-0.049124 0.020106 0.118700
-0.049124 0.020409 0.118700
-0.049124 0.020712 0.118700
-0.049124 0.021014 0.118700
-0.049207 0.021353 0.118900
-0.049207 0.021656 0.118900
-0.049207 0.021959 0.118900
-0.049248 0.022281 0.119000
-0.049290 0.022603 0.119100
-0.049290 0.022907 0.119100
-0.049331 0.023230 0.119200
-0.049372 0.023553 0.119300
-0.049414 0.023878 0.119400
-0.049455 0.024202 0.119500
-0.049497 0.024527 0.119600
-0.049538 0.024853 0.119700
-0.049538 0.025158 0.119700
-0.049579 0.025485 0.119800
-0.049621 0.025811 0.119900
-0.049662 0.026139 0.120000
-0.049704 0.026467 0.120100
-0.051718 0.011223 0.124200
-0.051718 0.011540 0.124200
-0.051718 0.011856 0.124200
-0.051634 0.012153 0.124000
-0.051634 0.012469 0.124000
-0.051593 0.012775 0.123900
-0.051509 0.013070 0.123700
-0.051385 0.013353 0.123400
-0.051260 0.013634 0.123100
-0.051135 0.013914 0.122800
-0.050968 0.014181 0.122400
-0.050802 0.014445 0.122000
-0.050718 0.014732 0.121800
-0.050635 0.015018 0.121600
-0.050344 0.015240 0.120900
-0.050260 0.015522 0.120700
-0.050177 0.015804 0.120500
-0.050094 0.016084 0.120300
-0.050010 0.016364 0.120100
-0.049927 0.016642 0.119900
-0.049885 0.016933 0.119800
-0.049802 0.017210 0.119600
-0.049719 0.017486 0.119400
-0.049677 0.017775 0.119300
-0.049636 0.018064 0.119200
-0.049594 0.018353 0.119100
-0.049552 0.018641 0.119000
-0.049552 0.018944 0.119000
-0.049552 0.019247 0.119000
-0.049552 0.019551 0.119000
-0.049552 0.019854 0.119000
-0.049552 0.020157 0.119000
-0.049594 0.020478 0.119100
-0.049594 0.020781 0.119100
-0.049636 0.021103 0.119200
-0.049677 0.021425 0.119300
-0.049677 0.021729 0.119300
-0.049719 0.022051 0.119400
-0.049719 0.022356 0.119400
-0.049802 0.022698 0.119600
-0.049802 0.023003 0.119600
-0.049844 0.023327 0.119700
-0.049885 0.023652 0.119800
-0.049927 0.023978 0.119900
-0.049927 0.024283 0.119900
-0.050010 0.024630 0.120100
-0.050010 0.024936 0.120100
-0.050094 0.025284 0.120300
-0.050094 0.025591 0.120300
-0.050177 0.025941 0.120500
-0.050177 0.026248 0.120500
-0.052286 0.011914 0.124800
-0.052245 0.012222 0.124700
-0.052203 0.012530 0.124600
-0.052161 0.012837 0.124500
-0.052119 0.013144 0.124400
-0.051993 0.013429 0.124100
-0.051867 0.013712 0.123800
-0.051448 0.013914 0.122800
-0.051281 0.014181 0.122400
-0.051113 0.014445 0.122000
-0.051030 0.014732 0.121800
-0.050946 0.015018 0.121600
-0.050862 0.015303 0.121400
-0.050778 0.015587 0.121200
-0.050694 0.015869 0.121000
-0.050611 0.016151 0.120800
-0.050527 0.016432 0.120600
-0.050443 0.016711 0.120400
-0.050359 0.016990 0.120200
-0.050275 0.017268 0.120000
-0.050192 0.017544 0.119800
-0.050150 0.017835 0.119700
-0.050108 0.018125 0.119600
-0.050066 0.018414 0.119500
-0.050024 0.018703 0.119400
-0.050024 0.019008 0.119400
-0.050024 0.019312 0.119400
-0.050024 0.019616 0.119400
-0.050024 0.019921 0.119400
-0.050066 0.020242 0.119500
-0.050108 0.020564 0.119600
-0.050108 0.020869 0.119600
-0.050150 0.021191 0.119700
-0.050192 0.021514 0.119800
-0.050192 0.021820 0.119800
-0.050233 0.022144 0.119900
-0.050233 0.022449 0.119900
-0.050275 0.022774 0.120000
-0.050317 0.023099 0.120100
-0.050317 0.023405 0.120100
-0.050401 0.023751 0.120300
-0.050401 0.024058 0.120300
-0.050485 0.024405 0.120500
-0.050527 0.024732 0.120600
-0.050527 0.025040 0.120600
-0.050569 0.025368 0.120700
-0.050611 0.025697 0.120800
-0.050652 0.026027 0.120900
-0.050694 0.026357 0.121000
-0.052816 0.011961 0.125300
-0.052563 0.012222 0.124700
-0.052521 0.012530 0.124600
-0.052479 0.012837 0.124500
-0.052437 0.013144 0.124400
-0.052310 0.013429 0.124100
-0.052184 0.013712 0.123800
-0.052057 0.013993 0.123500
-0.051889 0.014262 0.123100
-0.051720 0.014528 0.122700
-0.051636 0.014817 0.122500
-0.051509 0.015092 0.122200
-0.051425 0.015378 0.122000
-0.051299 0.015651 0.121700
-0.051214 0.015935 0.121500
-0.051130 0.016218 0.121300
-0.051046 0.016500 0.121100
-0.050961 0.016781 0.120900
-0.050877 0.017061 0.120700
-0.050793 0.017340 0.120500
-0.050708 0.017617 0.120300
-0.050624 0.017894 0.120100
-0.050582 0.018185 0.120000
-0.050540 0.018476 0.119900
-0.050540 0.018781 0.119900
-0.050540 0.019087 0.119900
-0.050540 0.019393 0.119900
-0.050540 0.019698 0.119900
-0.050540 0.020004 0.119900
-0.050540 0.020310 0.119900
-0.050540 0.020615 0.119900
-0.050624 0.020956 0.120100
-0.050624 0.021262 0.120100
-0.050666 0.021586 0.120200
-0.050708 0.021911 0.120300
-0.050708 0.022218 0.120300
-0.050751 0.022543 0.120400
-0.050793 0.022869 0.120500
-0.050793 0.023176 0.120500
-0.050877 0.023522 0.120700
-0.050877 0.023830 0.120700
-0.050961 0.024178 0.120900
-0.050961 0.024486 0.120900
-0.051004 0.024814 0.121000
-0.051004 0.025123 0.121000
-0.051046 0.025452 0.121100
-0.051130 0.025804 0.121300
-0.051130 0.026113 0.121300
-0.053136 0.011961 0.125300
-0.053136 0.012281 0.125300
-0.053094 0.012590 0.125200
-0.053051 0.012899 0.125100
-0.053009 0.013207 0.125000
-0.052924 0.013504 0.124800
-0.052797 0.013789 0.124500
-0.052670 0.014073 0.124200
-0.052458 0.014331 0.123700
-0.052330 0.014611 0.123400
-0.052203 0.014889 0.123100
-0.052076 0.015166 0.122800
-0.051949 0.015441 0.122500
-0.051864 0.015728 0.122300
-0.051737 0.016000 0.122000
-0.051652 0.016285 0.121800
-0.051567 0.016568 0.121600
-0.051482 0.016850 0.121400
-0.051398 0.017131 0.121200
-0.051270 0.017397 0.120900
-0.051228 0.017691 0.120800
-0.051143 0.017969 0.120600
-0.051101 0.018261 0.120500
-0.051058 0.018553 0.120400
-0.051016 0.018844 0.120300
-0.051016 0.019151 0.120300
-0.051016 0.019457 0.120300
-0.051016 0.019764 0.120300
-0.051016 0.020071 0.120300
-0.051058 0.020394 0.120400
-0.051058 0.020701 0.120400
-0.051101 0.021026 0.120500
-0.051101 0.021333 0.120500
-0.051143 0.021658 0.120600
-0.051185 0.021984 0.120700
-0.051228 0.022310 0.120800
-0.051228 0.022618 0.120800
-0.051270 0.022945 0.120900
-0.051313 0.023272 0.121000
-0.051355 0.023600 0.121100
-0.051398 0.023929 0.121200
-0.051440 0.024258 0.121300
-0.051482 0.024587 0.121400
-0.051482 0.024896 0.121400
-0.051525 0.025227 0.121500
-0.051525 0.025536 0.121500
-0.051567 0.025867 0.121600
-0.053670 0.012009 0.125800
-0.053670 0.012330 0.125800
-0.053627 0.012640 0.125700
-0.053584 0.012951 0.125600
-0.053584 0.013271 0.125600
-0.053499 0.013569 0.125400
-0.053371 0.013856 0.125100
-0.053243 0.014141 0.124800
-0.053072 0.014412 0.124400
-0.052902 0.014682 0.124000
-0.052774 0.014962 0.123700
-0.052646 0.015240 0.123400
-0.052518 0.015517 0.123100
-0.052432 0.015805 0.122900
-0.052304 0.016079 0.122600
-0.052176 0.016352 0.122300
-0.052091 0.016636 0.122100
-0.051963 0.016906 0.121800
-0.051878 0.017188 0.121600
-0.051835 0.017483 0.121500
-0.051750 0.017764 0.121300
-0.051665 0.018043 0.121100
-0.051579 0.018322 0.120900
-0.051537 0.018615 0.120800
-0.051537 0.018922 0.120800
-0.051537 0.019230 0.120800
-0.051537 0.019538 0.120800
-0.051537 0.019846 0.120800
-0.051537 0.020154 0.120800
-0.051537 0.020462 0.120800
-0.051579 0.020787 0.120900
-0.051579 0.021096 0.120900
-0.051579 0.021404 0.120900
-0.051622 0.021730 0.121000
-0.051665 0.022057 0.121100
-0.051665 0.022365 0.121100
-0.051707 0.022693 0.121200
-0.051750 0.023021 0.121300
-0.051793 0.023349 0.121400
-0.051835 0.023678 0.121500
-0.051878 0.024008 0.121600
-0.051878 0.024318 0.121600
-0.051963 0.024668 0.121800
-0.051963 0.024979 0.121800
-0.051963 0.025289 0.121800
-0.052006 0.025621 0.121900
-0.054249 0.012066 0.126400
-0.054249 0.012389 0.126400
-0.054249 0.012711 0.126400
-0.054206 0.013023 0.126300
-0.054163 0.013334 0.126200
-0.054120 0.013645 0.126100
-0.054034 0.013944 0.125900
-0.053905 0.014231 0.125600
-0.053691 0.014494 0.125100
-0.053562 0.014777 0.124800
-0.053347 0.015035 0.124300
-0.053219 0.015314 0.124000
-0.053090 0.015593 0.123700
-0.053004 0.015882 0.123500
-0.052875 0.016158 0.123200
-0.052746 0.016432 0.122900
-0.052661 0.016718 0.122700
-0.052575 0.017003 0.122500
-0.052446 0.017273 0.122200
-0.052360 0.017555 0.122000
-0.052274 0.017837 0.121800
-0.052189 0.018118 0.121600
-0.052146 0.018413 0.121500
-0.052060 0.018692 0.121300
-0.052060 0.019001 0.121300
-0.052060 0.019310 0.121300
-0.052060 0.019619 0.121300
-0.052060 0.019928 0.121300
-0.052060 0.020238 0.121300
-0.052060 0.020547 0.121300
-0.052060 0.020856 0.121300
-0.052060 0.021165 0.121300
-0.052103 0.021492 0.121400
-0.052146 0.021820 0.121500
-0.052146 0.022129 0.121500
-0.052146 0.022439 0.121500
-0.052189 0.022768 0.121600
-0.052231 0.023097 0.121700
-0.052274 0.023426 0.121800
-0.052274 0.023737 0.121800
-0.052360 0.024087 0.122000
-0.052360 0.024398 0.122000
-0.052403 0.024729 0.122100
-0.052446 0.025061 0.122200
-0.052489 0.025393 0.122300
-0.052532 0.025726 0.122400
-0.054787 0.012114 0.126900
-0.054831 0.012447 0.127000
-0.054874 0.012781 0.127100
-0.054831 0.013095 0.127000
-0.054787 0.013408 0.126900
-0.054744 0.013721 0.126800
-0.054658 0.014022 0.126600
-0.054528 0.014311 0.126300
-0.054399 0.014598 0.126000
-0.054226 0.014872 0.125600
-0.054010 0.015131 0.125100
-0.053924 0.015426 0.124900
-0.053751 0.015694 0.124500
-0.053622 0.015972 0.124200
-0.053449 0.016236 0.123800
-0.053363 0.016525 0.123600
-0.053233 0.016800 0.123300
-0.053104 0.017072 0.123000
-0.052974 0.017343 0.122700
-0.052931 0.017642 0.122600
-0.052845 0.017925 0.122400
-0.052758 0.018207 0.122200
-0.052672 0.018488 0.122000
-0.052586 0.018769 0.121800
-0.052542 0.019063 0.121700
-0.052542 0.019374 0.121700
-0.052542 0.019684 0.121700
-0.052499 0.019978 0.121600
-0.052499 0.020288 0.121600
-0.052499 0.020598 0.121600
-0.052499 0.020908 0.121600
-0.052542 0.021235 0.121700
-0.052586 0.021563 0.121800
-0.052586 0.021874 0.121800
-0.052586 0.022184 0.121800
-0.052629 0.022513 0.121900
-0.052672 0.022842 0.122000
-0.052672 0.023153 0.122000
-0.052758 0.023503 0.122200
-0.052801 0.023834 0.122300
-0.052801 0.024146 0.122300
-0.052888 0.024498 0.122500
-0.052888 0.024810 0.122500
-0.052931 0.025143 0.122600
-0.052974 0.025476 0.122700
-0.055372 0.012496 0.127500
-0.055416 0.012831 0.127600
-0.055416 0.013157 0.127600
-0.055329 0.013461 0.127400
-0.055329 0.013786 0.127400
-0.055242 0.014088 0.127200
-0.055155 0.014390 0.127000
-0.055025 0.014679 0.126700
-0.054851 0.014955 0.126300
-0.054764 0.015252 0.126100
-0.054547 0.015512 0.125600
-0.054417 0.015794 0.125300
-0.054287 0.016075 0.125000
-0.054113 0.016341 0.124600
-0.053983 0.016619 0.124300
-0.053852 0.016895 0.124000
-0.053722 0.017169 0.123700
-0.053592 0.017442 0.123400
-0.053505 0.017728 0.123200
-0.053418 0.018013 0.123000
-0.053331 0.018297 0.122800
-0.053201 0.018564 0.122500
-0.053157 0.018861 0.122400
-0.053114 0.019157 0.122300
-0.053114 0.019469 0.122300
-0.053114 0.019781 0.122300
-0.053071 0.020076 0.122200
-0.053071 0.020388 0.122200
-0.053071 0.020699 0.122200
-0.053071 0.021011 0.122200
-0.053071 0.021322 0.122200
-0.053071 0.021634 0.122200
-0.053114 0.021963 0.122300
-0.053114 0.022275 0.122300
-0.053114 0.022587 0.122300
-0.053157 0.022917 0.122400
-0.053201 0.023248 0.122500
-0.053244 0.023580 0.122600
-0.053288 0.023912 0.122700
-0.053288 0.024225 0.122700
-0.053331 0.024558 0.122800
-0.053375 0.024891 0.122900
-0.053418 0.025225 0.123000
-0.055873 0.012536 0.127900
-0.055917 0.012872 0.128000
-0.055917 0.013198 0.128000
-0.055873 0.013514 0.127900
-0.055873 0.013840 0.127900
-0.055785 0.014144 0.127700
-0.055742 0.014458 0.127600
-0.055654 0.014760 0.127400
-0.055523 0.015049 0.127100
-0.055392 0.015337 0.126800
-0.055261 0.015623 0.126500
-0.055086 0.015895 0.126100
-0.054955 0.016178 0.125800
-0.054824 0.016459 0.125500
-0.054693 0.016739 0.125200
-0.054562 0.017018 0.124900
-0.054388 0.017280 0.124500
-0.054300 0.017570 0.124300
-0.054169 0.017843 0.124000
-0.054125 0.018145 0.123900
-0.054038 0.018431 0.123700
-0.053907 0.018701 0.123400
-0.053820 0.018984 0.123200
-0.053776 0.019283 0.123100
-0.053732 0.019581 0.123000
-0.053732 0.019894 0.123000
-0.053689 0.020191 0.122900
-0.053689 0.020505 0.122900
-0.053645 0.020801 0.122800
-0.053601 0.021097 0.122700
-0.053601 0.021410 0.122700
-0.053601 0.021722 0.122700
-0.053601 0.022035 0.122700
-0.053601 0.022348 0.122700
-0.053645 0.022679 0.122800
-0.053689 0.023011 0.122900
-0.053776 0.023362 0.123100
-0.053776 0.023676 0.123100
-0.053863 0.024029 0.123300
-0.053863 0.024343 0.123300
-0.053907 0.024677 0.123400
-0.053951 0.025012 0.123500
-0.053951 0.025327 0.123500
-0.056463 0.012922 0.128500
-0.056463 0.013250 0.128500
-0.056463 0.013577 0.128500
-0.056463 0.013905 0.128500
-0.056419 0.014221 0.128400
-0.056331 0.014526 0.128200
-0.056288 0.014841 0.128100
-0.056156 0.015132 0.127800
-0.056024 0.015422 0.127500
-0.055892 0.015710 0.127200
-0.055760 0.015996 0.126900
-0.055628 0.016281 0.126600
-0.055497 0.016564 0.126300
-0.055321 0.016833 0.125900
-0.055189 0.017113 0.125600
-0.055101 0.017405 0.125400
-0.054969 0.017683 0.125100
-0.054881 0.017973 0.124900
-0.054750 0.018247 0.124600
-0.054706 0.018550 0.124500
-0.054574 0.018822 0.124200
-0.054530 0.019123 0.124100
-0.054486 0.019424 0.124000
-0.054398 0.019708 0.123800
-0.054398 0.020024 0.123800
-0.054354 0.020323 0.123700
-0.054354 0.020638 0.123700
-0.054310 0.020936 0.123600
-0.054266 0.021234 0.123500
-0.054222 0.021532 0.123400
-0.054222 0.021846 0.123400
-0.054266 0.022179 0.123500
-0.054266 0.022494 0.123500
-0.054266 0.022809 0.123500
-0.054310 0.023142 0.123600
-0.054398 0.023495 0.123800
-0.054442 0.023830 0.123900
-0.054442 0.024146 0.123900
-0.054486 0.024481 0.124000
-0.054486 0.024797 0.124000
-0.054530 0.025134 0.124100
-0.057013 0.013301 0.129000
-0.057013 0.013630 0.129000
-0.057013 0.013959 0.129000
-0.056968 0.014277 0.128900
-0.056924 0.014594 0.128800
-0.056836 0.014899 0.128600
-0.056747 0.015203 0.128400
-0.056615 0.015494 0.128100
-0.056482 0.015784 0.127800
-0.056350 0.016072 0.127500
-0.056217 0.016358 0.127200
-0.056129 0.016656 0.127000
-0.055996 0.016940 0.126700
-0.055863 0.017222 0.126400
-0.055775 0.017516 0.126200
-0.055687 0.017810 0.126000
-0.055554 0.018088 0.125700
-0.055466 0.018379 0.125500
-0.055422 0.018684 0.125400
-0.055289 0.018958 0.125100
-0.055201 0.019246 0.124900
-0.055201 0.019565 0.124900
-0.055112 0.019851 0.124700
-0.055112 0.020169 0.124700
-0.055068 0.020471 0.124600
-0.054980 0.020755 0.124400
-0.054980 0.021072 0.124400
-0.054935 0.021372 0.124300
-0.054891 0.021671 0.124200
-0.054891 0.021988 0.124200
-0.054891 0.022305 0.124200
-0.054891 0.022621 0.124200
-0.054935 0.022956 0.124300
-0.054980 0.023292 0.124400
-0.055024 0.023628 0.124500
-0.055024 0.023945 0.124500
-0.055068 0.024282 0.124600
-0.055068 0.024600 0.124600
-0.055068 0.024917 0.124600
-0.057564 0.013683 0.129500
-0.057609 0.014024 0.129600
-0.057564 0.014343 0.129500
-0.057520 0.014662 0.129400
-0.057476 0.014980 0.129300
-0.057387 0.015286 0.129100
-0.057253 0.015579 0.128800
-0.057120 0.015870 0.128500
-0.056987 0.016160 0.128200
-0.056853 0.016448 0.127900
-0.056764 0.016748 0.127700
-0.056631 0.017033 0.127400
-0.056542 0.017331 0.127200
-0.056453 0.017627 0.127000
-0.056364 0.017923 0.126800
-0.056275 0.018217 0.126600
-0.056142 0.018496 0.126300
-0.056098 0.018803 0.126200
-0.056009 0.019095 0.126000
-0.055920 0.019385 0.125800
-0.055831 0.019674 0.125600
-0.055786 0.019979 0.125500
-0.055786 0.020299 0.125500
-0.055742 0.020602 0.125400
-0.055698 0.020905 0.125300
-0.055653 0.021208 0.125200
-0.055609 0.021509 0.125100
-0.055609 0.021828 0.125100
-0.055564 0.022130 0.125000
-0.055564 0.022448 0.125000
-0.055564 0.022767 0.125000
-0.055609 0.023104 0.125100
-0.055609 0.023423 0.125100
-0.055653 0.023761 0.125200
-0.055609 0.024061 0.125100
-0.055609 0.024380 0.125100
-0.055653 0.024718 0.125200
-0.058164 0.013746 0.130100
-0.058208 0.014089 0.130200
-0.058119 0.014398 0.130000
-0.058119 0.014730 0.130000
-0.058029 0.015038 0.129800
-0.057940 0.015345 0.129600
-0.057806 0.015639 0.129300
-0.057717 0.015944 0.129100
-0.057582 0.016236 0.128800
-0.057448 0.016525 0.128500
-0.057359 0.016827 0.128300
-0.057314 0.017140 0.128200
-0.057180 0.017426 0.127900
-0.057091 0.017725 0.127700
-0.057001 0.018022 0.127500
-0.056957 0.018332 0.127400
-0.056822 0.018613 0.127100
-0.056778 0.018922 0.127000
-0.056688 0.019216 0.126800
-0.056599 0.019508 0.126600
-0.056554 0.019815 0.126500
-0.056465 0.020106 0.126300
-0.056465 0.020428 0.126300
-0.056822 0.020881 0.127100
-0.056375 0.021039 0.126100
-0.056375 0.021360 0.126100
-0.056331 0.021664 0.126000
-0.056286 0.021968 0.125900
-0.056241 0.022271 0.125800
-0.056241 0.022592 0.125800
-0.056241 0.022913 0.125800
-0.056241 0.023233 0.125800
-0.056286 0.023573 0.125900
-0.056286 0.023894 0.125900
-0.056286 0.024215 0.125900
-0.056241 0.024516 0.125800
-0.056241 0.024837 0.125800
-0.058721 0.014132 0.130600
-0.058721 0.014465 0.130600
-0.058721 0.014798 0.130600
-0.058631 0.015108 0.130400
-0.058541 0.015416 0.130200
-0.058406 0.015712 0.129900
-0.058316 0.016018 0.129700
-0.058181 0.016311 0.129400
-0.058046 0.016602 0.129100
-0.058001 0.016918 0.129000
-0.057912 0.017221 0.128800
-0.057822 0.017522 0.128600
-0.057777 0.017836 0.128500
-0.057642 0.018121 0.128200
-0.057597 0.018433 0.128100
-0.057507 0.018730 0.127900
-0.057417 0.019027 0.127700
-0.057372 0.019337 0.127600
-0.057282 0.019632 0.127400
-0.057237 0.019941 0.127300
-0.057147 0.020233 0.127100
-0.057147 0.020557 0.127100
-0.057147 0.020881 0.127100
-0.057057 0.021172 0.126900
-0.057057 0.021495 0.126900
-0.057012 0.021802 0.126800
-0.056967 0.022108 0.126700
-0.056922 0.022413 0.126600
-0.056922 0.022736 0.126600
-0.056922 0.023058 0.126600
-0.056922 0.023381 0.126600
-0.056967 0.023722 0.126700
-0.056922 0.024027 0.126600
-0.056922 0.024349 0.126600
-0.056922 0.024672 0.126600
-0.059326 0.014531 0.131200
-0.059235 0.014843 0.131000
-0.059235 0.015177 0.131000
-0.059100 0.015476 0.130700
-0.059009 0.015784 0.130500
-0.058919 0.016092 0.130300
-0.058783 0.016387 0.130000
-0.058693 0.016692 0.129800
-0.058648 0.017010 0.129700
-0.058557 0.017314 0.129500
-0.058512 0.017631 0.129400
-0.058376 0.017919 0.129100
-0.058331 0.018234 0.129000
-0.058241 0.018534 0.128800
-0.058195 0.018848 0.128700
-0.058105 0.019146 0.128500
-0.058015 0.019443 0.128300
-0.057969 0.019755 0.128200
-0.057924 0.020066 0.128100
-0.057834 0.020361 0.127900
-0.057834 0.020687 0.127900
-0.057834 0.021013 0.127900
-0.057788 0.021322 0.127800
-0.057743 0.021631 0.127700
-0.057698 0.021939 0.127600
-0.057698 0.022265 0.127600
-0.057653 0.022572 0.127500
-0.057608 0.022879 0.127400
-0.057608 0.023204 0.127400
-0.057608 0.023529 0.127400
-0.057653 0.023872 0.127500
-0.057608 0.024178 0.127400
-0.057608 0.024503 0.127400
-0.059752 0.014888 0.131400
-0.059707 0.015212 0.131300
-0.059616 0.015523 0.131100
-0.059525 0.015833 0.130900
-0.059434 0.016142 0.130700
-0.059388 0.016462 0.130600
-0.059252 0.016757 0.130300
-0.059206 0.017076 0.130200
-0.059161 0.017394 0.130100
-0.059115 0.017712 0.130000
-0.059070 0.018030 0.129900
-0.058979 0.018333 0.129700
-0.058934 0.018649 0.129600
-0.058843 0.018950 0.129400
-0.058797 0.019265 0.129300
-0.058706 0.019564 0.129100
-0.058706 0.019894 0.129100
-0.058615 0.020191 0.128900
-0.058570 0.020504 0.128800
-0.058570 0.020832 0.128800
-0.058570 0.021161 0.128800
-0.058479 0.021456 0.128600
-0.058433 0.021766 0.128500
-0.058433 0.022094 0.128500
-0.058433 0.022422 0.128500
-0.058388 0.022732 0.128400
-0.058342 0.023041 0.128300
-0.058297 0.023350 0.128200
-0.058297 0.023677 0.128200
-0.058297 0.024003 0.128200
-0.058297 0.024330 0.128200
-0.060225 0.015258 0.131700
-0.060134 0.015570 0.131500
-0.060042 0.015881 0.131300
-0.059951 0.016191 0.131100
-0.059859 0.016500 0.130900
-0.059768 0.016808 0.130700
-0.059722 0.017128 0.130600
-0.059676 0.017448 0.130500
-0.059630 0.017767 0.130400
-0.059585 0.018085 0.130300
-0.059585 0.018418 0.130300
-0.059493 0.018721 0.130100
-0.059448 0.019038 0.130000
-0.059402 0.019354 0.129900
-0.059402 0.019686 0.129900
-0.059310 0.019986 0.129700
-0.059310 0.020317 0.129700
-0.059265 0.020631 0.129600
-0.059219 0.020946 0.129500
-0.059219 0.021276 0.129500
-0.059219 0.021606 0.129500
-0.059173 0.021919 0.129400
-0.059173 0.022249 0.129400
-0.059082 0.022544 0.129200
-0.059082 0.022873 0.129200
-0.059036 0.023185 0.129100
-0.059036 0.023514 0.129100
-0.058990 0.023824 0.129000
-0.058990 0.024153 0.129000
-0.060561 0.015594 0.131700
-0.060516 0.015918 0.131600
-0.060424 0.016228 0.131400
-0.060378 0.016551 0.131300
-0.060286 0.016860 0.131100
-0.060240 0.017181 0.131000
-0.060240 0.017515 0.131000
-0.060194 0.017835 0.130900
-0.060148 0.018155 0.130800
-0.060056 0.018460 0.130600
-0.060056 0.018793 0.130600
-0.060010 0.019111 0.130500
-0.059918 0.019414 0.130300
-0.059918 0.019746 0.130300
-0.059872 0.020063 0.130200
-0.059872 0.020395 0.130200
-0.059826 0.020711 0.130100
-0.059780 0.021026 0.130000
-0.059780 0.021358 0.130000
-0.059780 0.021689 0.130000
-0.059780 0.022021 0.130000
-0.059780 0.022352 0.130000
-0.059734 0.022666 0.129900
-0.059734 0.022997 0.129900
-0.059642 0.023292 0.129700
-0.059642 0.023623 0.129700
-0.059642 0.023954 0.129700
-0.060898 0.015930 0.131700
-0.060898 0.016265 0.131700
-0.060852 0.016588 0.131600
-0.060806 0.016911 0.131500
-0.060713 0.017220 0.131300
-0.060713 0.017555 0.131300
-0.060713 0.017890 0.131300
-0.060667 0.018210 0.131200
-0.060621 0.018531 0.131100
-0.060574 0.018850 0.131000
-0.060528 0.019170 0.130900
-0.060528 0.019503 0.130900
-0.060482 0.019822 0.130800
-0.060436 0.020140 0.130700
-0.060389 0.020458 0.130600
-0.060389 0.020791 0.130600
-0.060389 0.021123 0.130600
-0.060389 0.021456 0.130600
-0.060343 0.021773 0.130500
-0.060343 0.022105 0.130500
-0.060297 0.022421 0.130400
-0.060251 0.022736 0.130300
-0.060251 0.023068 0.130300
-0.060251 0.023400 0.130300
-0.060204 0.023714 0.130200
-0.061281 0.016614 0.131800
-0.061235 0.016937 0.131700
-0.061235 0.017273 0.131700
-0.061235 0.017608 0.131700
-0.061188 0.017930 0.131600
-0.061142 0.018252 0.131500
-0.061095 0.018573 0.131400
-0.061049 0.018894 0.131300
-0.061049 0.019228 0.131300
-0.061049 0.019563 0.131300
-0.061002 0.019883 0.131200
-0.060956 0.020202 0.131100
-0.060956 0.020536 0.131100
-0.060956 0.020870 0.131100
-0.060909 0.021188 0.131000
-0.060909 0.021522 0.131000
-0.060909 0.021856 0.131000
-0.060909 0.022190 0.131000
-0.060909 0.022524 0.131000
-0.060909 0.022858 0.131000
-0.060863 0.023174 0.130900
-0.060863 0.023508 0.130900
-0.061711 0.016975 0.132000
-0.061711 0.017312 0.132000
-0.061665 0.017635 0.131900
-0.061665 0.017971 0.131900
-0.061665 0.018308 0.131900
-0.061618 0.018630 0.131800
-0.061571 0.018951 0.131700
-0.061571 0.019287 0.131700
-0.061571 0.019623 0.131700
-0.061524 0.019943 0.131600
-0.061524 0.020279 0.131600
-0.061478 0.020599 0.131500
-0.061478 0.020934 0.131500
-0.061478 0.021269 0.131500
-0.061524 0.021621 0.131600
-0.061478 0.021939 0.131500
-0.061478 0.022275 0.131500
-0.061524 0.022627 0.131600
-0.061524 0.022963 0.131600
-0.061478 0.023280 0.131500
-0.062143 0.017338 0.132200
-0.062143 0.017675 0.132200
-0.062143 0.018012 0.132200
-0.062143 0.018349 0.132200
-0.062096 0.018672 0.132100
-0.062096 0.019009 0.132100
-0.062049 0.019331 0.132000
-0.062049 0.019667 0.132000
-0.062049 0.020004 0.132000
-0.062049 0.020340 0.132000
-0.062049 0.020677 0.132000
-0.062049 0.021013 0.132000
-0.062049 0.021350 0.132000
-0.062049 0.021686 0.132000
-0.062049 0.022023 0.132000
-0.062049 0.022359 0.132000
-0.062096 0.022713 0.132100
-0.062096 0.023050 0.132100
-0.062764 0.018094 0.132800
-0.062717 0.018419 0.132700
-0.062717 0.018757 0.132700
-0.062669 0.019081 0.132600
-0.062622 0.019404 0.132500
-0.062622 0.019742 0.132500
-0.062669 0.020095 0.132600
-0.062669 0.020433 0.132600
-0.062622 0.020755 0.132500
-0.062622 0.021093 0.132500
-0.062669 0.021447 0.132600
-0.062717 0.021801 0.132700
-0.062717 0.022140 0.132700
-0.062717 0.022478 0.132700
-0.062764 0.022833 0.132800
-0.063293 0.018828 0.133200
-0.063246 0.019153 0.133100
-0.063151 0.019463 0.132900
-0.063151 0.019801 0.132900
-0.063198 0.020155 0.133000
-0.063198 0.020494 0.133000
-0.063198 0.020834 0.133000
-0.063198 0.021173 0.133000
-0.063198 0.021512 0.133000
-0.063246 0.021867 0.133100
-0.063246 0.022206 0.133100
