ply
format ascii 1.0
element vertex 1071
property float x
property float y
property float z
end_header
-0.135455 0.029534 -0.231990
-0.135474 0.029418 -0.231900
-0.134646 0.029940 -0.232423
-0.134961 0.029859 -0.232388
-0.134980 0.029742 -0.232298
-0.135529 0.029455 -0.232123
-0.135647 0.029353 -0.232053
-0.135666 0.029237 -0.231964
-0.134622 0.029847 -0.232538
-0.134937 0.029766 -0.232502
-0.135153 0.029674 -0.232449
-0.135172 0.029558 -0.232359
-0.135506 0.029364 -0.232237
-0.135722 0.029274 -0.232185
-0.136035 0.029199 -0.232154
-0.136152 0.029098 -0.232085
-0.136172 0.028983 -0.231996
-0.134913 0.029674 -0.232617
-0.135228 0.029595 -0.232582
-0.135247 0.029478 -0.232492
-0.135581 0.029285 -0.232369
-0.135796 0.029196 -0.232318
-0.136012 0.029108 -0.232267
-0.136129 0.029007 -0.232197
-0.136246 0.028907 -0.232128
-0.136364 0.028806 -0.232060
-0.136383 0.028692 -0.231972
-0.136617 0.028493 -0.231835
-0.136636 0.028379 -0.231747
-0.134889 0.029581 -0.232732
-0.135204 0.029503 -0.232696
-0.135223 0.029386 -0.232606
-0.135557 0.029194 -0.232483
-0.135871 0.029119 -0.232449
-0.136087 0.029031 -0.232398
-0.136204 0.028931 -0.232329
-0.136223 0.028816 -0.232241
-0.136340 0.028716 -0.232172
-0.136457 0.028616 -0.232103
-0.136477 0.028502 -0.232015
-0.136594 0.028403 -0.231947
-0.136613 0.028289 -0.231859
-0.136632 0.028175 -0.231771
-0.134433 0.029674 -0.232957
-0.134452 0.029556 -0.232867
-0.134866 0.029489 -0.232847
-0.135180 0.029411 -0.232810
-0.135200 0.029295 -0.232721
-0.135946 0.029042 -0.232581
-0.136161 0.028955 -0.232530
-0.136181 0.028840 -0.232441
-0.136200 0.028726 -0.232353
-0.136317 0.028626 -0.232284
-0.136434 0.028526 -0.232215
-0.136453 0.028412 -0.232127
-0.136570 0.028313 -0.232059
-0.136589 0.028199 -0.231971
-0.136609 0.028085 -0.231883
-0.134409 0.029581 -0.233073
-0.134428 0.029463 -0.232982
-0.134940 0.029409 -0.232979
-0.135255 0.029332 -0.232942
-0.135274 0.029216 -0.232852
-0.135922 0.028951 -0.232694
-0.136138 0.028864 -0.232642
-0.136157 0.028750 -0.232554
-0.136176 0.028635 -0.232465
-0.136294 0.028535 -0.232396
-0.136411 0.028436 -0.232327
-0.136430 0.028322 -0.232239
-0.136547 0.028223 -0.232171
-0.136566 0.028109 -0.232083
-0.136585 0.027995 -0.231995
-0.134917 0.029317 -0.233093
-0.135231 0.029240 -0.233056
-0.135251 0.029124 -0.232966
-0.135899 0.028860 -0.232806
-0.136115 0.028774 -0.232754
-0.136134 0.028659 -0.232666
-0.136251 0.028559 -0.232596
-0.136271 0.028445 -0.232508
-0.136388 0.028346 -0.232439
-0.136407 0.028232 -0.232351
-0.136524 0.028133 -0.232282
-0.136543 0.028019 -0.232195
-0.136562 0.027905 -0.232107
-0.132998 0.029709 -0.233457
-0.133019 0.029589 -0.233364
-0.134991 0.029238 -0.233225
-0.135208 0.029149 -0.233170
-0.135227 0.029032 -0.233080
-0.135876 0.028769 -0.232919
-0.136092 0.028683 -0.232867
-0.136111 0.028569 -0.232779
-0.136228 0.028469 -0.232709
-0.136346 0.028370 -0.232639
-0.136365 0.028256 -0.232551
-0.136384 0.028141 -0.232463
-0.136501 0.028043 -0.232394
-0.136618 0.027945 -0.232326
-0.136637 0.027831 -0.232238
-0.133073 0.029626 -0.233591
-0.133389 0.029543 -0.233546
-0.133409 0.029424 -0.233454
-0.134850 0.029250 -0.233413
-0.134968 0.029146 -0.233339
-0.135184 0.029057 -0.233284
-0.135204 0.028941 -0.233194
-0.135852 0.028678 -0.233032
-0.136068 0.028593 -0.232979
-0.136087 0.028478 -0.232891
-0.136205 0.028379 -0.232821
-0.136322 0.028279 -0.232751
-0.136341 0.028165 -0.232663
-0.136360 0.028051 -0.232575
-0.136478 0.027953 -0.232506
-0.136693 0.027871 -0.232456
-0.136712 0.027757 -0.232369
-0.133048 0.029532 -0.233708
-0.133760 0.029499 -0.233727
-0.134175 0.029431 -0.233700
-0.134194 0.029313 -0.233609
-0.134609 0.029248 -0.233584
-0.134826 0.029157 -0.233527
-0.134944 0.029054 -0.233454
-0.135161 0.028965 -0.233398
-0.135180 0.028849 -0.233308
-0.135495 0.028775 -0.233270
-0.135613 0.028674 -0.233199
-0.135829 0.028588 -0.233145
-0.136045 0.028502 -0.233092
-0.136064 0.028388 -0.233003
-0.136182 0.028288 -0.232933
-0.136299 0.028189 -0.232863
-0.136318 0.028075 -0.232775
-0.136337 0.027961 -0.232687
-0.136553 0.027879 -0.232636
-0.136670 0.027781 -0.232567
-0.136689 0.027668 -0.232480
-0.137647 0.027368 -0.232306
-0.137666 0.027256 -0.232219
-0.133597 0.029630 -0.234011
-0.133617 0.029511 -0.233920
-0.133736 0.029405 -0.233844
-0.134151 0.029338 -0.233816
-0.134171 0.029220 -0.233725
-0.134585 0.029155 -0.233699
-0.134605 0.029038 -0.233609
-0.134822 0.028948 -0.233552
-0.134841 0.028832 -0.233462
-0.135472 0.028684 -0.233384
-0.135589 0.028583 -0.233312
-0.135806 0.028497 -0.233258
-0.135923 0.028397 -0.233186
-0.136041 0.028297 -0.233116
-0.136158 0.028198 -0.233045
-0.136276 0.028099 -0.232975
-0.136393 0.028001 -0.232905
-0.136412 0.027887 -0.232817
-0.136530 0.027789 -0.232748
-0.136745 0.027708 -0.232697
-0.136764 0.027594 -0.232610
-0.137508 0.027374 -0.232482
-0.137624 0.027279 -0.232415
-0.137741 0.027185 -0.232349
-0.137760 0.027074 -0.232263
-0.133573 0.029536 -0.234128
-0.133593 0.029417 -0.234037
-0.134463 0.029049 -0.233798
-0.134581 0.028946 -0.233724
-0.134798 0.028856 -0.233666
-0.134817 0.028739 -0.233576
-0.135349 0.028578 -0.233480
-0.135467 0.028477 -0.233408
-0.135684 0.028391 -0.233353
-0.135900 0.028306 -0.233299
-0.136018 0.028207 -0.233228
-0.136135 0.028108 -0.233157
-0.136253 0.028009 -0.233087
-0.136370 0.027911 -0.233017
-0.136389 0.027797 -0.232929
-0.136605 0.027715 -0.232878
-0.136722 0.027618 -0.232809
-0.137036 0.027555 -0.232777
-0.137055 0.027442 -0.232690
-0.137368 0.027381 -0.232659
-0.137485 0.027286 -0.232592
-0.137602 0.027191 -0.232525
-0.137718 0.027097 -0.232458
-0.137737 0.026986 -0.232372
-0.137756 0.026874 -0.232286
-0.134439 0.028957 -0.233913
-0.134557 0.028853 -0.233839
-0.134675 0.028750 -0.233765
-0.134794 0.028647 -0.233691
-0.135011 0.028559 -0.233634
-0.135227 0.028472 -0.233577
-0.135444 0.028386 -0.233521
-0.135660 0.028300 -0.233466
-0.135877 0.028216 -0.233412
-0.135994 0.028116 -0.233340
-0.136112 0.028017 -0.233270
-0.136230 0.027919 -0.233199
-0.136445 0.027837 -0.233146
-0.136464 0.027723 -0.233059
-0.136582 0.027626 -0.232989
-0.136896 0.027562 -0.232956
-0.137111 0.027483 -0.232906
-0.137130 0.027370 -0.232819
-0.137443 0.027309 -0.232788
-0.137560 0.027215 -0.232720
-0.137677 0.027121 -0.232653
-0.137696 0.027009 -0.232567
-0.137714 0.026898 -0.232482
-0.137733 0.026786 -0.232396
-0.137752 0.026674 -0.232310
-0.134059 0.029176 -0.234254
-0.134178 0.029072 -0.234179
-0.134296 0.028968 -0.234103
-0.134415 0.028864 -0.234028
-0.134533 0.028761 -0.233954
-0.134652 0.028658 -0.233879
-0.134770 0.028555 -0.233805
-0.134987 0.028467 -0.233748
-0.135105 0.028366 -0.233675
-0.135322 0.028280 -0.233618
-0.135538 0.028194 -0.233563
-0.135755 0.028110 -0.233507
-0.135873 0.028010 -0.233436
-0.136089 0.027927 -0.233382
-0.136206 0.027829 -0.233311
-0.136422 0.027747 -0.233258
-0.136441 0.027633 -0.233170
-0.136460 0.027519 -0.233083
-0.136873 0.027473 -0.233067
-0.137088 0.027394 -0.233016
-0.137304 0.027315 -0.232966
-0.137519 0.027238 -0.232916
-0.137538 0.027126 -0.232830
-0.137654 0.027032 -0.232763
-0.137673 0.026921 -0.232677
-0.137692 0.026809 -0.232591
-0.137710 0.026698 -0.232505
-0.137729 0.026586 -0.232419
-0.133778 0.029412 -0.234613
-0.133798 0.029293 -0.234522
-0.133817 0.029175 -0.234431
-0.134035 0.029083 -0.234370
-0.134154 0.028979 -0.234294
-0.134272 0.028875 -0.234219
-0.134391 0.028771 -0.234144
-0.134411 0.028654 -0.234053
-0.134529 0.028551 -0.233978
-0.134647 0.028448 -0.233904
-0.134864 0.028361 -0.233846
-0.135081 0.028274 -0.233789
-0.135200 0.028173 -0.233716
-0.135416 0.028088 -0.233659
-0.135633 0.028003 -0.233604
-0.135849 0.027920 -0.233548
-0.136065 0.027837 -0.233494
-0.136085 0.027722 -0.233406
-0.137379 0.027244 -0.233094
-0.137496 0.027150 -0.233026
-0.137515 0.027038 -0.232940
-0.137632 0.026944 -0.232872
-0.137650 0.026833 -0.232786
-0.137669 0.026721 -0.232700
-0.137786 0.026628 -0.232633
-0.137804 0.026517 -0.232548
-0.137823 0.026406 -0.232462
-0.133754 0.029318 -0.234729
-0.133774 0.029200 -0.234638
-0.133892 0.029095 -0.234562
-0.134011 0.028990 -0.234486
-0.134130 0.028886 -0.234410
-0.134150 0.028768 -0.234319
-0.134268 0.028664 -0.234243
-0.134387 0.028561 -0.234168
-0.134406 0.028444 -0.234078
-0.134525 0.028341 -0.234003
-0.134742 0.028254 -0.233945
-0.134860 0.028152 -0.233871
-0.134880 0.028036 -0.233781
-0.135727 0.027813 -0.233644
-0.136042 0.027746 -0.233606
-0.136061 0.027632 -0.233518
-0.137455 0.027173 -0.233222
-0.137473 0.027062 -0.233135
-0.137590 0.026968 -0.233068
-0.137609 0.026856 -0.232982
-0.137628 0.026745 -0.232896
-0.137646 0.026633 -0.232810
-0.137763 0.026540 -0.232743
-0.137782 0.026429 -0.232657
-0.137800 0.026318 -0.232571
-0.133749 0.029106 -0.234754
-0.133868 0.029001 -0.234678
-0.133987 0.028897 -0.234601
-0.134007 0.028779 -0.234510
-0.134126 0.028675 -0.234434
-0.134145 0.028557 -0.234344
-0.134264 0.028454 -0.234268
-0.134383 0.028351 -0.234193
-0.134501 0.028249 -0.234118
-0.134619 0.028147 -0.234044
-0.134837 0.028060 -0.233985
-0.134856 0.027944 -0.233895
-0.136019 0.027656 -0.233718
-0.136038 0.027542 -0.233630
-0.137432 0.027085 -0.233331
-0.137549 0.026991 -0.233263
-0.137568 0.026880 -0.233177
-0.137586 0.026768 -0.233091
-0.137605 0.026657 -0.233005
-0.137624 0.026545 -0.232919
-0.137741 0.026452 -0.232852
-0.137759 0.026341 -0.232766
-0.137778 0.026230 -0.232680
-0.133706 0.029131 -0.234962
-0.133725 0.029013 -0.234871
-0.133844 0.028908 -0.234794
-0.133864 0.028790 -0.234703
-0.133983 0.028686 -0.234626
-0.134003 0.028568 -0.234535
-0.134121 0.028464 -0.234459
-0.134240 0.028361 -0.234384
-0.134260 0.028244 -0.234293
-0.134378 0.028141 -0.234218
-0.134497 0.028039 -0.234143
-0.134615 0.027937 -0.234068
-0.134635 0.027820 -0.233978
-0.135897 0.027549 -0.233814
-0.135916 0.027435 -0.233726
-0.137391 0.027108 -0.233527
-0.137508 0.027014 -0.233458
-0.137526 0.026903 -0.233372
-0.137545 0.026791 -0.233286
-0.137564 0.026680 -0.233201
-0.137582 0.026568 -0.233115
-0.137699 0.026476 -0.233047
-0.137718 0.026364 -0.232961
-0.137736 0.026253 -0.232875
-0.137755 0.026142 -0.232790
-0.133682 0.029038 -0.235078
-0.133701 0.028919 -0.234987
-0.133721 0.028801 -0.234896
-0.133840 0.028697 -0.234819
-0.133860 0.028578 -0.234728
-0.133979 0.028475 -0.234651
-0.134097 0.028371 -0.234575
-0.134117 0.028254 -0.234484
-0.134236 0.028151 -0.234408
-0.134255 0.028033 -0.234318
-0.134374 0.027931 -0.234243
-0.134493 0.027829 -0.234168
-0.134512 0.027712 -0.234077
-0.137368 0.027020 -0.233637
-0.137485 0.026926 -0.233568
-0.137504 0.026815 -0.233482
-0.137522 0.026703 -0.233396
-0.137639 0.026610 -0.233328
-0.137658 0.026499 -0.233242
-0.137677 0.026388 -0.233156
-0.137695 0.026276 -0.233070
-0.137714 0.026165 -0.232985
-0.137732 0.026054 -0.232899
-0.133558 0.028931 -0.235180
-0.133578 0.028812 -0.235089
-0.133697 0.028707 -0.235012
-0.133717 0.028589 -0.234921
-0.133737 0.028471 -0.234829
-0.133856 0.028367 -0.234753
-0.133875 0.028249 -0.234662
-0.133994 0.028146 -0.234585
-0.134113 0.028043 -0.234509
-0.134133 0.027925 -0.234418
-0.134152 0.027807 -0.234328
-0.134271 0.027705 -0.234252
-0.134389 0.027604 -0.234177
-0.134409 0.027487 -0.234087
-0.137247 0.026914 -0.233729
-0.137364 0.026820 -0.233660
-0.137481 0.026727 -0.233591
-0.137500 0.026615 -0.233505
-0.137617 0.026522 -0.233437
-0.137635 0.026411 -0.233351
-0.137654 0.026300 -0.233265
-0.133435 0.028823 -0.235284
-0.133554 0.028718 -0.235206
-0.133574 0.028600 -0.235114
-0.133594 0.028481 -0.235023
-0.133713 0.028377 -0.234946
-0.133732 0.028259 -0.234854
-0.133851 0.028156 -0.234777
-0.133970 0.028053 -0.234701
-0.133990 0.027935 -0.234610
-0.134109 0.027832 -0.234534
-0.134128 0.027714 -0.234443
-0.134148 0.027597 -0.234352
-0.134366 0.027511 -0.234292
-0.134385 0.027394 -0.234202
-0.137107 0.026920 -0.233909
-0.137224 0.026826 -0.233839
-0.137341 0.026732 -0.233770
-0.137458 0.026639 -0.233701
-0.137477 0.026527 -0.233615
-0.137594 0.026434 -0.233546
-0.137613 0.026323 -0.233460
-0.137631 0.026212 -0.233375
-0.133291 0.028835 -0.235479
-0.133411 0.028729 -0.235400
-0.133431 0.028611 -0.235309
-0.133550 0.028506 -0.235231
-0.133570 0.028388 -0.235139
-0.133689 0.028284 -0.235062
-0.133708 0.028166 -0.234970
-0.133728 0.028047 -0.234879
-0.133847 0.027944 -0.234802
-0.133966 0.027841 -0.234726
-0.133986 0.027724 -0.234635
-0.134124 0.027504 -0.234468
-0.134342 0.027418 -0.234407
-0.134361 0.027301 -0.234317
-0.136849 0.027020 -0.234159
-0.136868 0.026907 -0.234073
-0.137084 0.026831 -0.234019
-0.137201 0.026737 -0.233949
-0.137318 0.026644 -0.233879
-0.137436 0.026551 -0.233810
-0.137454 0.026439 -0.233724
-0.137473 0.026328 -0.233638
-0.133267 0.028741 -0.235595
-0.133387 0.028636 -0.235517
-0.133406 0.028517 -0.235425
-0.133426 0.028398 -0.235334
-0.133446 0.028280 -0.235242
-0.133565 0.028176 -0.235164
-0.133684 0.028072 -0.235087
-0.133704 0.027954 -0.234995
-0.133823 0.027851 -0.234918
-0.133843 0.027733 -0.234827
-0.133863 0.027615 -0.234736
-0.134100 0.027411 -0.234584
-0.134318 0.027326 -0.234522
-0.134338 0.027208 -0.234432
-0.135800 0.026982 -0.234288
-0.136017 0.026903 -0.234231
-0.136826 0.026931 -0.234270
-0.136845 0.026819 -0.234183
-0.137061 0.026742 -0.234129
-0.137080 0.026630 -0.234042
-0.133243 0.028647 -0.235712
-0.133263 0.028528 -0.235620
-0.133382 0.028423 -0.235542
-0.133402 0.028304 -0.235450
-0.133422 0.028186 -0.235359
-0.133541 0.028082 -0.235281
-0.133561 0.027963 -0.235189
-0.133680 0.027860 -0.235112
-0.133700 0.027742 -0.235020
-0.133819 0.027639 -0.234943
-0.133839 0.027521 -0.234852
-0.135777 0.026892 -0.234400
-0.135993 0.026813 -0.234343
-0.136309 0.026753 -0.234302
-0.136328 0.026639 -0.234215
-0.136544 0.026562 -0.234159
-0.136563 0.026449 -0.234072
-0.133219 0.028553 -0.235829
-0.133239 0.028434 -0.235737
-0.133358 0.028329 -0.235658
-0.133378 0.028211 -0.235567
-0.133398 0.028092 -0.235475
-0.133418 0.027973 -0.235384
-0.133537 0.027870 -0.235306
-0.133557 0.027751 -0.235214
-0.133676 0.027648 -0.235137
-0.133795 0.027546 -0.235059
-0.133815 0.027428 -0.234968
-0.135772 0.026687 -0.234425
-0.135989 0.026609 -0.234367
-0.136008 0.026494 -0.234279
-0.136027 0.026380 -0.234191
-0.133195 0.028459 -0.235945
-0.133215 0.028340 -0.235854
-0.133334 0.028236 -0.235775
-0.133354 0.028117 -0.235683
-0.133374 0.027998 -0.235592
-0.133394 0.027879 -0.235500
-0.133513 0.027776 -0.235422
-0.133533 0.027658 -0.235331
-0.133652 0.027555 -0.235253
-0.133870 0.027469 -0.235189
-0.133890 0.027351 -0.235098
-0.134306 0.027299 -0.235062
-0.134326 0.027182 -0.234972
-0.134841 0.027149 -0.234953
-0.135158 0.027084 -0.234906
-0.135177 0.026968 -0.234817
-0.135197 0.026853 -0.234728
-0.133190 0.028246 -0.235970
-0.133310 0.028142 -0.235891
-0.133330 0.028023 -0.235800
-0.133350 0.027904 -0.235708
-0.133369 0.027786 -0.235617
-0.133389 0.027667 -0.235525
-0.133608 0.027580 -0.235460
-0.133727 0.027477 -0.235382
-0.133945 0.027392 -0.235318
-0.133965 0.027274 -0.235227
-0.134382 0.027223 -0.235191
-0.134600 0.027139 -0.235129
-0.134917 0.027074 -0.235081
-0.135134 0.026992 -0.235020
-0.135154 0.026877 -0.234931
-0.135272 0.026779 -0.234856
-0.135291 0.026664 -0.234767
-0.135410 0.026566 -0.234693
-0.135429 0.026451 -0.234605
-0.135448 0.026336 -0.234516
-0.135467 0.026221 -0.234427
-0.135586 0.026125 -0.234354
-0.135605 0.026010 -0.234265
-0.133166 0.028152 -0.236087
-0.133186 0.028033 -0.235996
-0.133306 0.027929 -0.235916
-0.133325 0.027811 -0.235825
-0.133345 0.027692 -0.235733
-0.133465 0.027589 -0.235655
-0.133584 0.027486 -0.235576
-0.133802 0.027400 -0.235511
-0.134021 0.027315 -0.235446
-0.134040 0.027198 -0.235356
-0.134358 0.027130 -0.235306
-0.134576 0.027047 -0.235243
-0.134893 0.026982 -0.235195
-0.135111 0.026901 -0.235133
-0.135130 0.026786 -0.235044
-0.135249 0.026688 -0.234969
-0.135268 0.026573 -0.234881
-0.135386 0.026475 -0.234806
-0.135406 0.026360 -0.234718
-0.135425 0.026245 -0.234629
-0.135444 0.026130 -0.234540
-0.135562 0.026034 -0.234467
-0.135581 0.025919 -0.234378
-0.133142 0.028058 -0.236204
-0.133162 0.027939 -0.236112
-0.133281 0.027835 -0.236033
-0.133301 0.027717 -0.235941
-0.133321 0.027598 -0.235850
-0.133440 0.027495 -0.235771
-0.133659 0.027409 -0.235705
-0.133878 0.027323 -0.235640
-0.133997 0.027222 -0.235562
-0.134017 0.027105 -0.235471
-0.134751 0.026990 -0.235384
-0.134870 0.026891 -0.235308
-0.134988 0.026792 -0.235233
-0.135107 0.026694 -0.235157
-0.135225 0.026597 -0.235083
-0.135244 0.026481 -0.234994
-0.135264 0.026366 -0.234905
-0.135283 0.026251 -0.234816
-0.135302 0.026136 -0.234727
-0.135421 0.026039 -0.234653
-0.135440 0.025924 -0.234564
-0.135459 0.025809 -0.234476
-0.133118 0.027964 -0.236321
-0.133138 0.027845 -0.236229
-0.133257 0.027742 -0.236149
-0.133277 0.027623 -0.236058
-0.133297 0.027504 -0.235966
-0.133416 0.027402 -0.235887
-0.133635 0.027316 -0.235821
-0.133854 0.027230 -0.235755
-0.133874 0.027113 -0.235664
-0.134727 0.026898 -0.235498
-0.134846 0.026799 -0.235422
-0.134965 0.026701 -0.235346
-0.134984 0.026585 -0.235257
-0.135103 0.026488 -0.235182
-0.135221 0.026390 -0.235107
-0.135240 0.026275 -0.235018
-0.135260 0.026160 -0.234929
-0.135279 0.026044 -0.234840
-0.135298 0.025929 -0.234752
-0.135317 0.025814 -0.234663
-0.135337 0.025699 -0.234574
-0.133114 0.027751 -0.236346
-0.133133 0.027632 -0.236254
-0.133611 0.027222 -0.235937
-0.133830 0.027137 -0.235871
-0.133850 0.027020 -0.235780
-0.134585 0.026905 -0.235689
-0.134803 0.026823 -0.235625
-0.134822 0.026708 -0.235536
-0.134941 0.026610 -0.235460
-0.134960 0.026494 -0.235371
-0.135079 0.026396 -0.235295
-0.135098 0.026281 -0.235206
-0.135217 0.026184 -0.235131
-0.135236 0.026069 -0.235042
-0.135255 0.025953 -0.234954
-0.135275 0.025838 -0.234865
-0.135294 0.025723 -0.234776
-0.135313 0.025607 -0.234687
-0.134561 0.026813 -0.235803
-0.134779 0.026732 -0.235739
-0.134799 0.026616 -0.235650
-0.134918 0.026518 -0.235573
-0.134937 0.026402 -0.235484
-0.135056 0.026305 -0.235409
-0.135075 0.026190 -0.235320
-0.135193 0.026093 -0.235244
-0.135213 0.025978 -0.235156
-0.135232 0.025862 -0.235067
-0.135251 0.025747 -0.234978
-0.135271 0.025632 -0.234889
-0.135290 0.025516 -0.234800
-0.134538 0.026721 -0.235917
-0.134756 0.026640 -0.235853
-0.134775 0.026524 -0.235763
-0.134894 0.026427 -0.235687
-0.134913 0.026311 -0.235598
-0.134933 0.026195 -0.235509
-0.135051 0.026098 -0.235433
-0.135071 0.025983 -0.235344
-0.135090 0.025867 -0.235255
-0.135209 0.025771 -0.235180
-0.135228 0.025656 -0.235091
-0.135247 0.025540 -0.235002
-0.135266 0.025425 -0.234913
-0.134514 0.026629 -0.236031
-0.134732 0.026549 -0.235966
-0.134752 0.026433 -0.235877
-0.134771 0.026317 -0.235788
-0.134890 0.026219 -0.235711
-0.134909 0.026104 -0.235622
-0.135028 0.026007 -0.235546
-0.135047 0.025891 -0.235457
-0.135067 0.025776 -0.235368
-0.135185 0.025680 -0.235293
-0.135204 0.025565 -0.235204
-0.135224 0.025449 -0.235115
-0.135243 0.025334 -0.235027
-0.134709 0.026457 -0.236080
-0.134728 0.026341 -0.235991
-0.134748 0.026225 -0.235902
-0.134866 0.026128 -0.235825
-0.134886 0.026012 -0.235736
-0.135004 0.025916 -0.235660
-0.135024 0.025800 -0.235571
-0.135043 0.025685 -0.235482
-0.135162 0.025589 -0.235406
-0.135181 0.025474 -0.235317
-0.134685 0.026366 -0.236194
-0.134705 0.026250 -0.236105
-0.134823 0.026152 -0.236028
-0.134843 0.026037 -0.235939
-0.134962 0.025940 -0.235862
-0.134981 0.025824 -0.235773
-0.135000 0.025709 -0.235684
-0.135119 0.025613 -0.235608
-0.135138 0.025498 -0.235519
-0.135257 0.025402 -0.235444
-0.135276 0.025287 -0.235355
-0.135295 0.025172 -0.235267
-0.134662 0.026274 -0.236308
-0.134781 0.026177 -0.236230
-0.134800 0.026061 -0.236141
-0.134919 0.025964 -0.236064
-0.134938 0.025849 -0.235975
-0.135057 0.025753 -0.235899
-0.135076 0.025637 -0.235810
-0.135195 0.025542 -0.235734
-0.135313 0.025447 -0.235659
-0.135333 0.025332 -0.235570
-0.135253 0.025196 -0.235468
-0.135272 0.025081 -0.235380
-0.134638 0.026182 -0.236422
-0.134757 0.026085 -0.236344
-0.134876 0.025988 -0.236267
-0.134995 0.025892 -0.236190
-0.135014 0.025777 -0.236101
-0.135133 0.025681 -0.236025
-0.135152 0.025566 -0.235936
-0.135271 0.025471 -0.235860
-0.135390 0.025376 -0.235784
-0.135409 0.025261 -0.235696
-0.134833 0.026013 -0.236469
-0.134952 0.025916 -0.236392
-0.134971 0.025801 -0.236303
-0.135090 0.025705 -0.236226
-0.135209 0.025610 -0.236150
-0.135328 0.025515 -0.236074
-0.135347 0.025400 -0.235985
-0.135466 0.025306 -0.235910
-0.135485 0.025191 -0.235822
-0.134810 0.025921 -0.236583
-0.135028 0.025844 -0.236517
-0.135048 0.025729 -0.236428
-0.135067 0.025614 -0.236339
-0.135285 0.025539 -0.236275
-0.135404 0.025444 -0.236199
-0.135423 0.025330 -0.236110
-0.135542 0.025236 -0.236035
-0.135561 0.025121 -0.235947
-0.135580 0.025007 -0.235859
-0.135599 0.024893 -0.235770
-0.135105 0.025773 -0.236641
-0.135224 0.025678 -0.236564
-0.135243 0.025563 -0.236476
-0.135362 0.025468 -0.236399
-0.135381 0.025354 -0.236311
-0.135499 0.025260 -0.236235
-0.135618 0.025166 -0.236159
-0.135637 0.025052 -0.236071
-0.135656 0.024938 -0.235983
-0.135675 0.024824 -0.235895
-0.135081 0.025682 -0.236754
-0.135200 0.025587 -0.236677
-0.135319 0.025492 -0.236600
-0.135338 0.025378 -0.236512
-0.135457 0.025284 -0.236435
-0.135476 0.025169 -0.236347
-0.135595 0.025076 -0.236271
-0.135614 0.024962 -0.236183
-0.135633 0.024847 -0.236095
-0.135752 0.024755 -0.236020
-0.135771 0.024641 -0.235932
-0.135277 0.025516 -0.236800
-0.135296 0.025402 -0.236712
-0.135415 0.025308 -0.236635
-0.135434 0.025193 -0.236547
-0.135553 0.025100 -0.236471
-0.135572 0.024986 -0.236383
-0.135690 0.024893 -0.236307
-0.135709 0.024779 -0.236220
-0.135728 0.024665 -0.236132
-0.135747 0.024551 -0.236044
-0.135253 0.025426 -0.236913
-0.135372 0.025332 -0.236836
-0.135391 0.025217 -0.236748
-0.135510 0.025124 -0.236671
-0.135529 0.025009 -0.236583
-0.135548 0.024895 -0.236495
-0.135667 0.024803 -0.236419
-0.135686 0.024689 -0.236331
-0.135705 0.024575 -0.236244
-0.135724 0.024461 -0.236156
-0.135111 0.025430 -0.237103
-0.135230 0.025335 -0.237025
-0.135349 0.025241 -0.236948
-0.135368 0.025127 -0.236860
-0.135487 0.025033 -0.236783
-0.135506 0.024919 -0.236695
-0.135525 0.024805 -0.236607
-0.135644 0.024713 -0.236531
-0.135663 0.024599 -0.236443
-0.135682 0.024485 -0.236355
-0.135701 0.024371 -0.236268
-0.135088 0.025339 -0.237215
-0.135207 0.025245 -0.237138
-0.135226 0.025130 -0.237049
-0.135345 0.025037 -0.236972
-0.135364 0.024922 -0.236884
-0.135483 0.024829 -0.236807
-0.135502 0.024715 -0.236719
-0.135621 0.024623 -0.236643
-0.135640 0.024509 -0.236555
-0.135659 0.024395 -0.236467
-0.135678 0.024281 -0.236379
-0.134368 0.025706 -0.237713
-0.134487 0.025609 -0.237634
-0.134507 0.025494 -0.237544
-0.135064 0.025248 -0.237328
-0.135084 0.025134 -0.237240
-0.135203 0.025040 -0.237162
-0.135322 0.024946 -0.237084
-0.135341 0.024832 -0.236996
-0.135360 0.024718 -0.236908
-0.135479 0.024625 -0.236831
-0.135598 0.024533 -0.236755
-0.135617 0.024419 -0.236667
-0.135636 0.024305 -0.236579
-0.135655 0.024191 -0.236491
-0.134225 0.025711 -0.237907
-0.134344 0.025614 -0.237827
-0.134464 0.025518 -0.237747
-0.134483 0.025402 -0.237658
-0.134502 0.025287 -0.237569
-0.134941 0.025137 -0.237431
-0.135060 0.025043 -0.237352
-0.135080 0.024928 -0.237264
-0.135199 0.024835 -0.237186
-0.135318 0.024742 -0.237108
-0.135337 0.024627 -0.237020
-0.135356 0.024513 -0.236932
-0.135574 0.024443 -0.236866
-0.135594 0.024329 -0.236779
-0.135613 0.024215 -0.236691
-0.134182 0.025735 -0.238111
-0.134201 0.025619 -0.238021
-0.134321 0.025523 -0.237941
-0.134440 0.025427 -0.237861
-0.134460 0.025311 -0.237772
-0.134579 0.025215 -0.237692
-0.134698 0.025120 -0.237613
-0.134818 0.025026 -0.237534
-0.134937 0.024932 -0.237455
-0.135056 0.024838 -0.237376
-0.135175 0.024744 -0.237298
-0.135194 0.024630 -0.237210
-0.135313 0.024537 -0.237132
-0.135333 0.024423 -0.237044
-0.135452 0.024330 -0.236967
-0.135471 0.024216 -0.236879
-0.134139 0.025759 -0.238314
-0.134158 0.025643 -0.238225
-0.134177 0.025527 -0.238135
-0.134297 0.025431 -0.238055
-0.134417 0.025335 -0.237974
-0.134436 0.025219 -0.237885
-0.134556 0.025124 -0.237805
-0.134675 0.025029 -0.237726
-0.134694 0.024914 -0.237637
-0.134814 0.024820 -0.237558
-0.134933 0.024726 -0.237479
-0.135052 0.024632 -0.237401
-0.135171 0.024539 -0.237323
-0.135190 0.024425 -0.237234
-0.135309 0.024332 -0.237157
-0.135328 0.024218 -0.237069
-0.134115 0.025668 -0.238428
-0.134134 0.025552 -0.238339
-0.134154 0.025435 -0.238249
-0.134274 0.025339 -0.238168
-0.134293 0.025223 -0.238079
-0.134413 0.025128 -0.237999
-0.134432 0.025012 -0.237910
-0.134551 0.024917 -0.237830
-0.134671 0.024823 -0.237750
-0.134790 0.024729 -0.237671
-0.134809 0.024614 -0.237582
-0.134929 0.024520 -0.237503
-0.135048 0.024427 -0.237425
-0.135067 0.024312 -0.237337
-0.135086 0.024198 -0.237248
-0.133991 0.025556 -0.238534
-0.134010 0.025440 -0.238444
-0.134130 0.025344 -0.238363
-0.134150 0.025228 -0.238274
-0.134269 0.025132 -0.238193
-0.134289 0.025016 -0.238104
-0.134408 0.024921 -0.238023
-0.134428 0.024805 -0.237934
-0.134547 0.024711 -0.237854
-0.134667 0.024616 -0.237774
-0.134786 0.024523 -0.237695
-0.134905 0.024429 -0.237616
-0.134925 0.024314 -0.237528
-0.133867 0.025445 -0.238640
-0.133987 0.025348 -0.238559
-0.134006 0.025232 -0.238469
-0.134026 0.025116 -0.238379
-0.134145 0.025020 -0.238298
-0.134165 0.024904 -0.238209
-0.134285 0.024808 -0.238128
-0.134404 0.024714 -0.238048
-0.134524 0.024619 -0.237967
-0.134543 0.024504 -0.237878
-0.134662 0.024410 -0.237799
-0.134682 0.024295 -0.237710
-0.133522 0.025410 -0.238822
-0.133542 0.025293 -0.238732
-0.133762 0.025216 -0.238657
-0.133882 0.025120 -0.238575
-0.133902 0.025003 -0.238486
-0.134021 0.024907 -0.238404
-0.134141 0.024812 -0.238323
-0.134261 0.024717 -0.238242
-0.134280 0.024601 -0.238152
-0.134400 0.024507 -0.238072
-0.134520 0.024412 -0.237992
-0.134539 0.024297 -0.237903
-0.134558 0.024181 -0.237814
-0.133498 0.025318 -0.238937
-0.133518 0.025201 -0.238847
-0.133638 0.025104 -0.238764
-0.133758 0.025007 -0.238682
-0.133777 0.024890 -0.238592
-0.133897 0.024795 -0.238510
-0.134017 0.024699 -0.238429
-0.134137 0.024604 -0.238347
-0.134257 0.024509 -0.238266
-0.134276 0.024393 -0.238177
-0.134296 0.024278 -0.238088
-0.134515 0.024206 -0.238016
-0.134535 0.024090 -0.237927
-0.133273 0.025185 -0.239038
-0.133293 0.025068 -0.238948
-0.133413 0.024971 -0.238864
-0.133533 0.024874 -0.238781
-0.133653 0.024777 -0.238699
-0.133773 0.024682 -0.238617
-0.133893 0.024586 -0.238535
-0.134013 0.024491 -0.238453
-0.134133 0.024396 -0.238372
-0.134152 0.024280 -0.238282
-0.134392 0.024092 -0.238121
-0.134411 0.023977 -0.238032
-0.133249 0.025092 -0.239153
-0.133269 0.024975 -0.239063
-0.133389 0.024878 -0.238980
-0.133509 0.024781 -0.238896
-0.133529 0.024664 -0.238806
-0.133649 0.024568 -0.238724
-0.133769 0.024473 -0.238641
-0.133889 0.024377 -0.238559
-0.133908 0.024261 -0.238470
-0.132985 0.025195 -0.239437
-0.133004 0.025077 -0.239346
-0.133125 0.024979 -0.239262
-0.133144 0.024861 -0.239171
-0.133265 0.024764 -0.239088
-0.133385 0.024668 -0.239004
-0.133405 0.024550 -0.238914
-0.133625 0.024476 -0.238838
-0.133645 0.024359 -0.238748
-0.132941 0.025219 -0.239644
-0.132961 0.025101 -0.239553
-0.132980 0.024984 -0.239462
-0.133101 0.024886 -0.239378
-0.133120 0.024768 -0.239287
-0.133140 0.024651 -0.239196
-0.133260 0.024554 -0.239112
-0.133381 0.024458 -0.239029
-0.133501 0.024362 -0.238946
-0.133520 0.024245 -0.238856
-0.132917 0.025126 -0.239759
-0.132937 0.025008 -0.239669
-0.132956 0.024890 -0.239578
-0.132976 0.024772 -0.239487
-0.133096 0.024675 -0.239402
-0.133116 0.024558 -0.239312
-0.133136 0.024440 -0.239221
-0.133256 0.024344 -0.239137
-0.133276 0.024226 -0.239047
-0.133737 0.023963 -0.238805
-0.133756 0.023846 -0.238715
-0.132913 0.024915 -0.239784
-0.132932 0.024797 -0.239693
-0.132952 0.024679 -0.239603
-0.132972 0.024561 -0.239512
-0.133092 0.024465 -0.239427
-0.133112 0.024347 -0.239337
-0.133232 0.024251 -0.239253
-0.133353 0.024155 -0.239169
-0.133473 0.024060 -0.239086
-0.133492 0.023943 -0.238995
-0.133713 0.023870 -0.238920
-0.133733 0.023754 -0.238830
-0.132889 0.024822 -0.239900
-0.132908 0.024704 -0.239809
-0.132928 0.024586 -0.239718
-0.132948 0.024468 -0.239628
-0.133068 0.024372 -0.239543
-0.133088 0.024254 -0.239452
-0.133208 0.024158 -0.239368
-0.133329 0.024062 -0.239284
-0.133449 0.023967 -0.239200
-0.133670 0.023895 -0.239124
-0.133790 0.023801 -0.239041
-0.133910 0.023707 -0.238959
-0.134131 0.023636 -0.238884
-0.134351 0.023567 -0.238810
-0.134370 0.023451 -0.238721
-0.132865 0.024729 -0.240016
-0.132884 0.024611 -0.239925
-0.132904 0.024493 -0.239834
-0.133025 0.024396 -0.239749
-0.133044 0.024279 -0.239658
-0.133064 0.024161 -0.239568
-0.133185 0.024065 -0.239483
-0.133305 0.023970 -0.239399
-0.133526 0.023897 -0.239322
-0.133646 0.023803 -0.239239
-0.133766 0.023709 -0.239156
-0.133987 0.023638 -0.239080
-0.134107 0.023545 -0.238998
-0.134328 0.023476 -0.238923
-0.134347 0.023360 -0.238834
-0.132841 0.024636 -0.240132
-0.132961 0.024539 -0.240046
-0.132981 0.024421 -0.239955
-0.133001 0.024303 -0.239865
-0.133020 0.024186 -0.239774
-0.133141 0.024090 -0.239689
-0.133261 0.023994 -0.239605
-0.133382 0.023899 -0.239521
-0.133502 0.023805 -0.239437
-0.133723 0.023733 -0.239360
-0.133843 0.023639 -0.239277
-0.133963 0.023546 -0.239194
-0.134083 0.023453 -0.239112
-0.134203 0.023361 -0.239029
-0.134223 0.023245 -0.238940
-0.132817 0.024542 -0.240247
-0.132937 0.024446 -0.240162
-0.132957 0.024328 -0.240071
-0.132977 0.024210 -0.239980
-0.132996 0.024093 -0.239889
-0.133117 0.023997 -0.239805
-0.133238 0.023902 -0.239720
-0.133358 0.023807 -0.239636
-0.133478 0.023712 -0.239552
-0.133699 0.023641 -0.239474
-0.133820 0.023547 -0.239391
-0.133940 0.023454 -0.239308
-0.134060 0.023362 -0.239225
-0.134180 0.023269 -0.239143
-0.134400 0.023201 -0.239068
-0.134420 0.023086 -0.238979
-0.132914 0.024353 -0.240277
-0.132933 0.024235 -0.240186
-0.132953 0.024117 -0.240096
-0.132973 0.024000 -0.240005
-0.133093 0.023904 -0.239920
-0.133214 0.023809 -0.239835
-0.133334 0.023714 -0.239751
-0.133354 0.023597 -0.239660
-0.133676 0.023549 -0.239589
-0.133796 0.023456 -0.239505
-0.133916 0.023363 -0.239422
-0.134036 0.023270 -0.239339
-0.134156 0.023178 -0.239257
-0.134377 0.023110 -0.239181
-0.134497 0.023019 -0.239100
-0.134516 0.022904 -0.239011
-0.132949 0.023907 -0.240121
-0.133069 0.023811 -0.240035
-0.133190 0.023716 -0.239950
-0.133310 0.023622 -0.239865
-0.133330 0.023505 -0.239775
-0.133652 0.023457 -0.239703
-0.133772 0.023364 -0.239619
-0.133893 0.023271 -0.239536
-0.134113 0.023202 -0.239459
-0.134234 0.023110 -0.239377
-0.134253 0.022995 -0.239288
-0.134473 0.022928 -0.239213
-0.134493 0.022813 -0.239124
-0.133628 0.023365 -0.239817
-0.133749 0.023272 -0.239733
-0.133869 0.023179 -0.239650
-0.134090 0.023111 -0.239573
-0.134210 0.023019 -0.239490
-0.134229 0.022904 -0.239401
-0.133263 0.023437 -0.240095
-0.133383 0.023343 -0.240011
-0.133605 0.023273 -0.239932
-0.133725 0.023180 -0.239848
-0.133845 0.023087 -0.239764
-0.133966 0.022995 -0.239680
-0.134187 0.022928 -0.239603
-0.134206 0.022812 -0.239514
-0.133239 0.023344 -0.240210
-0.133360 0.023250 -0.240125
-0.133379 0.023133 -0.240035
