ply
format ascii 1.0
element vertex 3437
property float x
property float y
property float z
end_header
-0.026390 0.004228 0.114800
-0.026590 0.003922 0.114400
-0.026683 0.004228 0.114800
-0.026939 0.004564 0.115900
-0.027102 0.004889 0.116600
-0.026765 0.003324 0.113900
-0.026836 0.003624 0.114200
-0.026930 0.003929 0.114600
-0.027071 0.004243 0.115200
-0.027235 0.004564 0.115900
-0.027400 0.004889 0.116600
-0.027080 0.003327 0.114000
-0.027199 0.003633 0.114500
-0.027318 0.003942 0.115000
-0.027460 0.004258 0.115600
-0.027793 0.004607 0.117000
-0.027840 0.004914 0.117200
-0.028149 0.005271 0.118500
-0.028268 0.005596 0.119000
-0.028387 0.005924 0.119500
-0.027371 0.003036 0.114000
-0.027491 0.003341 0.114500
-0.027587 0.003646 0.114900
-0.027756 0.003963 0.115600
-0.027924 0.004283 0.116300
-0.028092 0.004607 0.117000
-0.028284 0.004939 0.117800
-0.028452 0.005271 0.118500
-0.028572 0.005596 0.119000
-0.028692 0.005924 0.119500
-0.028764 0.006245 0.119800
-0.028764 0.006550 0.119800
-0.027735 0.003044 0.114300
-0.027881 0.003353 0.114900
-0.028027 0.003665 0.115500
-0.028196 0.003983 0.116200
-0.028415 0.004313 0.117100
-0.028585 0.004639 0.117800
-0.028755 0.004969 0.118500
-0.028876 0.005293 0.119000
-0.028997 0.005620 0.119500
-0.029070 0.005939 0.119800
-0.029070 0.006245 0.119800
-0.029070 0.006550 0.119800
-0.029046 0.006850 0.119700
-0.029046 0.007155 0.119700
-0.028150 0.003057 0.114800
-0.028346 0.003373 0.115600
-0.028518 0.003690 0.116300
-0.028739 0.004018 0.117200
-0.029106 0.004372 0.118700
-0.029106 0.004674 0.118700
-0.029229 0.004998 0.119200
-0.029352 0.005324 0.119700
-0.029401 0.005639 0.119900
-0.029450 0.005954 0.120100
-0.029401 0.006250 0.119900
-0.029401 0.006555 0.119900
-0.029352 0.006850 0.119700
-0.029352 0.007155 0.119700
-0.029254 0.007435 0.119300
-0.029205 0.007726 0.119100
-0.029205 0.008030 0.119100
-0.028592 0.003073 0.115400
-0.028790 0.003391 0.116200
-0.029459 0.004076 0.118900
-0.029459 0.004379 0.118900
-0.029608 0.004706 0.119500
-0.029707 0.005027 0.119900
-0.029757 0.005342 0.120100
-0.029806 0.005657 0.120300
-0.029781 0.005959 0.120200
-0.029757 0.006260 0.120100
-0.029707 0.006555 0.119900
-0.029682 0.006855 0.119800
-0.029657 0.007155 0.119700
-0.029558 0.007435 0.119300
-0.029509 0.007726 0.119100
-0.029459 0.008016 0.118900
-0.029410 0.008305 0.118700
-0.029335 0.008586 0.118400
-0.029335 0.008888 0.118400
-0.029012 0.003087 0.115900
-0.029262 0.003411 0.116900
-0.029913 0.003792 0.119500
-0.029913 0.004097 0.119500
-0.029963 0.004409 0.119700
-0.030063 0.004729 0.120100
-0.030139 0.005048 0.120400
-0.030189 0.005364 0.120600
-0.030164 0.005667 0.120500
-0.030139 0.005969 0.120400
-0.030088 0.006265 0.120200
-0.030063 0.006566 0.120100
-0.030013 0.006861 0.119900
-0.029963 0.007155 0.119700
-0.029888 0.007441 0.119400
-0.029838 0.007733 0.119200
-0.029763 0.008016 0.118900
-0.029713 0.008305 0.118700
-0.029613 0.008579 0.118300
-0.029588 0.008873 0.118200
-0.029538 0.009159 0.118000
-0.029538 0.009460 0.118000
-0.029460 0.003103 0.116500
-0.029865 0.003446 0.118100
-0.030143 0.003782 0.119200
-0.030219 0.004097 0.119500
-0.030421 0.004431 0.120300
-0.030522 0.004753 0.120700
-0.030547 0.005065 0.120800
-0.030573 0.005377 0.120900
-0.030522 0.005676 0.120700
-0.030497 0.005979 0.120600
-0.030446 0.006276 0.120400
-0.030396 0.006572 0.120200
-0.030345 0.006867 0.120000
-0.030294 0.007161 0.119800
-0.030244 0.007454 0.119600
-0.030168 0.007739 0.119300
-0.030067 0.008016 0.118900
-0.030016 0.008305 0.118700
-0.029915 0.008579 0.118300
-0.029890 0.008873 0.118200
-0.029839 0.009159 0.118000
-0.029789 0.009444 0.117800
-0.029738 0.009727 0.117600
-0.029738 0.010027 0.117600
-0.030166 0.003446 0.118100
-0.030447 0.003782 0.119200
-0.030677 0.004117 0.120100
-0.030856 0.004449 0.120800
-0.030933 0.004769 0.121100
-0.030958 0.005082 0.121200
-0.030958 0.005391 0.121200
-0.030907 0.005690 0.121000
-0.030856 0.005989 0.120800
-0.030805 0.006286 0.120600
-0.030754 0.006583 0.120400
-0.030677 0.006873 0.120100
-0.030601 0.007161 0.119800
-0.030550 0.007454 0.119600
-0.030473 0.007739 0.119300
-0.030396 0.008023 0.119000
-0.030320 0.008305 0.118700
-0.030243 0.008586 0.118400
-0.030192 0.008873 0.118200
-0.030141 0.009159 0.118000
-0.030090 0.009444 0.117800
-0.030039 0.009727 0.117600
-0.030013 0.010019 0.117500
-0.029988 0.010309 0.117400
-0.029988 0.010609 0.117400
-0.030597 0.003461 0.118600
-0.030829 0.003792 0.119500
-0.031087 0.004131 0.120500
-0.031294 0.004467 0.121300
-0.031319 0.004781 0.121400
-0.031319 0.005090 0.121400
-0.031319 0.005400 0.121400
-0.031294 0.005704 0.121300
-0.031216 0.005999 0.121000
-0.031165 0.006297 0.120800
-0.031087 0.006588 0.120500
-0.031036 0.006884 0.120300
-0.030932 0.007167 0.119900
-0.030881 0.007460 0.119700
-0.030804 0.007746 0.119400
-0.030700 0.008023 0.119000
-0.030649 0.008312 0.118800
-0.030571 0.008593 0.118500
-0.030494 0.008873 0.118200
-0.030442 0.009159 0.118000
-0.030391 0.009444 0.117800
-0.030365 0.009736 0.117700
-0.030313 0.010019 0.117500
-0.030288 0.010309 0.117400
-0.030288 0.010609 0.117400
-0.031187 0.003798 0.119700
-0.031447 0.004138 0.120700
-0.031630 0.004471 0.121400
-0.031656 0.004785 0.121500
-0.031656 0.005094 0.121500
-0.031656 0.005404 0.121500
-0.031630 0.005709 0.121400
-0.031578 0.006009 0.121200
-0.031525 0.006307 0.121000
-0.031447 0.006599 0.120700
-0.031369 0.006890 0.120400
-0.031291 0.007179 0.120100
-0.031213 0.007466 0.119800
-0.031135 0.007752 0.119500
-0.031004 0.008023 0.119000
-0.030978 0.008319 0.118900
-0.030874 0.008593 0.118500
-0.030822 0.008881 0.118300
-0.030744 0.009159 0.118000
-0.030718 0.009452 0.117900
-0.030666 0.009736 0.117700
-0.030614 0.010019 0.117500
-0.030588 0.010309 0.117400
-0.030561 0.010600 0.117300
-0.030509 0.010880 0.117100
-0.030483 0.011169 0.117000
-0.030483 0.011467 0.117000
-0.031782 0.004141 0.120800
-0.031992 0.004479 0.121600
-0.031992 0.004788 0.121600
-0.031992 0.005098 0.121600
-0.031992 0.005408 0.121600
-0.031966 0.005714 0.121500
-0.031940 0.006019 0.121400
-0.031861 0.006312 0.121100
-0.031808 0.006610 0.120900
-0.031729 0.006901 0.120600
-0.031650 0.007191 0.120300
-0.031545 0.007472 0.119900
-0.031466 0.007759 0.119600
-0.031308 0.008023 0.119000
-0.031282 0.008319 0.118900
-0.031177 0.008593 0.118500
-0.031124 0.008881 0.118300
-0.031045 0.009159 0.118000
-0.031019 0.009452 0.117900
-0.030966 0.009736 0.117700
-0.030914 0.010019 0.117500
-0.030887 0.010309 0.117400
-0.030861 0.010600 0.117300
-0.030809 0.010880 0.117100
-0.030782 0.011169 0.117000
-0.030756 0.011457 0.116900
-0.030730 0.011745 0.116800
-0.030703 0.012033 0.116700
-0.030703 0.012330 0.116700
-0.032091 0.004141 0.120800
-0.032303 0.004479 0.121600
-0.032303 0.004788 0.121600
-0.032330 0.005103 0.121700
-0.032330 0.005413 0.121700
-0.032303 0.005718 0.121600
-0.032250 0.006019 0.121400
-0.032170 0.006312 0.121100
-0.032117 0.006610 0.120900
-0.032038 0.006901 0.120600
-0.031958 0.007191 0.120300
-0.031852 0.007472 0.119900
-0.031772 0.007759 0.119600
-0.031666 0.008037 0.119200
-0.031586 0.008319 0.118900
-0.031480 0.008593 0.118500
-0.031427 0.008881 0.118300
-0.031373 0.009167 0.118100
-0.031320 0.009452 0.117900
-0.031267 0.009736 0.117700
-0.031241 0.010027 0.117600
-0.031214 0.010318 0.117500
-0.031161 0.010600 0.117300
-0.031108 0.010880 0.117100
-0.031081 0.011169 0.117000
-0.031055 0.011457 0.116900
-0.031002 0.011735 0.116700
-0.030975 0.012023 0.116600
-0.030975 0.012320 0.116600
-0.030895 0.012585 0.116300
-0.030895 0.012881 0.116300
-0.030576 0.015389 0.115100
-0.030550 0.015669 0.115000
-0.030550 0.015962 0.115000
-0.030550 0.016255 0.115000
-0.030523 0.016534 0.114900
-0.030523 0.016827 0.114900
-0.032614 0.004479 0.121600
-0.032614 0.004788 0.121600
-0.032641 0.005103 0.121700
-0.032641 0.005413 0.121700
-0.032614 0.005718 0.121600
-0.032587 0.006023 0.121500
-0.032533 0.006323 0.121300
-0.032453 0.006616 0.121000
-0.032373 0.006907 0.120700
-0.032292 0.007197 0.120400
-0.032212 0.007485 0.120100
-0.032104 0.007765 0.119700
-0.032024 0.008050 0.119400
-0.031917 0.008326 0.119000
-0.031836 0.008608 0.118700
-0.031756 0.008888 0.118400
-0.031675 0.009167 0.118100
-0.031648 0.009460 0.118000
-0.031595 0.009744 0.117800
-0.031541 0.010027 0.117600
-0.031514 0.010318 0.117500
-0.031487 0.010609 0.117400
-0.031434 0.010889 0.117200
-0.031380 0.011169 0.117000
-0.031353 0.011457 0.116900
-0.031300 0.011735 0.116700
-0.031273 0.012023 0.116600
-0.031246 0.012309 0.116500
-0.031166 0.012574 0.116200
-0.031139 0.012859 0.116100
-0.031085 0.013132 0.115900
-0.031058 0.013416 0.115800
-0.031031 0.013699 0.115700
-0.030978 0.013970 0.115500
-0.030978 0.014265 0.115500
-0.030924 0.014534 0.115300
-0.030924 0.014828 0.115300
-0.030897 0.015109 0.115200
-0.030871 0.015389 0.115100
-0.030844 0.015669 0.115000
-0.030844 0.015962 0.115000
-0.030817 0.016241 0.114900
-0.030817 0.016534 0.114900
-0.030790 0.016812 0.114800
-0.030763 0.017090 0.114700
-0.030763 0.017382 0.114700
-0.030763 0.017675 0.114700
-0.030763 0.017967 0.114700
-0.032925 0.004788 0.121600
-0.032952 0.005103 0.121700
-0.032952 0.005413 0.121700
-0.032925 0.005718 0.121600
-0.032925 0.006028 0.121600
-0.032843 0.006323 0.121300
-0.032789 0.006621 0.121100
-0.032708 0.006913 0.120800
-0.032627 0.007203 0.120500
-0.032546 0.007491 0.120200
-0.032437 0.007772 0.119800
-0.032356 0.008057 0.119500
-0.032275 0.008340 0.119200
-0.032194 0.008622 0.118900
-0.032085 0.008896 0.118500
-0.032031 0.009182 0.118300
-0.032004 0.009476 0.118200
-0.031896 0.009744 0.117800
-0.031896 0.010044 0.117800
-0.031842 0.010327 0.117600
-0.031787 0.010609 0.117400
-0.031760 0.010899 0.117300
-0.031679 0.011169 0.117000
-0.031652 0.011457 0.116900
-0.031598 0.011735 0.116700
-0.031571 0.012023 0.116600
-0.031544 0.012309 0.116500
-0.031463 0.012574 0.116200
-0.031435 0.012859 0.116100
-0.031381 0.013132 0.115900
-0.031327 0.013404 0.115700
-0.031300 0.013688 0.115600
-0.031273 0.013970 0.115500
-0.031246 0.014252 0.115400
-0.031219 0.014534 0.115300
-0.031219 0.014828 0.115300
-0.031192 0.015109 0.115200
-0.031165 0.015389 0.115100
-0.031138 0.015669 0.115000
-0.031138 0.015962 0.115000
-0.031111 0.016241 0.114900
-0.031111 0.016534 0.114900
-0.031083 0.016812 0.114800
-0.031056 0.017090 0.114700
-0.031056 0.017382 0.114700
-0.031056 0.017675 0.114700
-0.031029 0.017951 0.114600
-0.031029 0.018243 0.114600
-0.031029 0.018536 0.114600
-0.031029 0.018828 0.114600
-0.031029 0.019120 0.114600
-0.031029 0.019412 0.114600
-0.033208 0.004785 0.121500
-0.033235 0.005098 0.121600
-0.033235 0.005408 0.121600
-0.033235 0.005718 0.121600
-0.033235 0.006028 0.121600
-0.033181 0.006328 0.121400
-0.033126 0.006627 0.121200
-0.033044 0.006918 0.120900
-0.032962 0.007209 0.120600
-0.032880 0.007497 0.120300
-0.032771 0.007778 0.119900
-0.032689 0.008063 0.119600
-0.032607 0.008347 0.119300
-0.032525 0.008630 0.119000
-0.032443 0.008911 0.118700
-0.032388 0.009198 0.118500
-0.032333 0.009484 0.118300
-0.032251 0.009760 0.118000
-0.032197 0.010044 0.117800
-0.032169 0.010336 0.117700
-0.032115 0.010618 0.117500
-0.032087 0.010908 0.117400
-0.032033 0.011188 0.117200
-0.031951 0.011457 0.116900
-0.031923 0.011745 0.116800
-0.031869 0.012023 0.116600
-0.031814 0.012299 0.116400
-0.031759 0.012574 0.116200
-0.031732 0.012859 0.116100
-0.031677 0.013132 0.115900
-0.031623 0.013404 0.115700
-0.031595 0.013688 0.115600
-0.031568 0.013970 0.115500
-0.031541 0.014252 0.115400
-0.031513 0.014534 0.115300
-0.031513 0.014828 0.115300
-0.031486 0.015109 0.115200
-0.031459 0.015389 0.115100
-0.031431 0.015669 0.115000
-0.031431 0.015962 0.115000
-0.031404 0.016241 0.114900
-0.031404 0.016534 0.114900
-0.031404 0.016827 0.114900
-0.031349 0.017090 0.114700
-0.031349 0.017382 0.114700
-0.031349 0.017675 0.114700
-0.031322 0.017951 0.114600
-0.031322 0.018243 0.114600
-0.031322 0.018536 0.114600
-0.031322 0.018828 0.114600
-0.031322 0.019120 0.114600
-0.031322 0.019412 0.114600
-0.031349 0.019721 0.114700
-0.031349 0.020014 0.114700
-0.031377 0.020324 0.114800
-0.033518 0.005094 0.121500
-0.033546 0.005408 0.121600
-0.033546 0.005718 0.121600
-0.033518 0.006023 0.121500
-0.033518 0.006333 0.121500
-0.033463 0.006632 0.121300
-0.033353 0.006918 0.120900
-0.033298 0.007215 0.120700
-0.033215 0.007504 0.120400
-0.033105 0.007785 0.120000
-0.033022 0.008070 0.119700
-0.032939 0.008354 0.119400
-0.032884 0.008644 0.119200
-0.032801 0.008926 0.118900
-0.032746 0.009213 0.118700
-0.032691 0.009500 0.118500
-0.032608 0.009777 0.118200
-0.032553 0.010061 0.118000
-0.032498 0.010345 0.117800
-0.032443 0.010627 0.117600
-0.032387 0.010908 0.117400
-0.032332 0.011188 0.117200
-0.032277 0.011467 0.117000
-0.032222 0.011745 0.116800
-0.032167 0.012023 0.116600
-0.032112 0.012299 0.116400
-0.032056 0.012574 0.116200
-0.032029 0.012859 0.116100
-0.031974 0.013132 0.115900
-0.031946 0.013416 0.115800
-0.031891 0.013688 0.115600
-0.031863 0.013970 0.115500
-0.031863 0.014265 0.115500
-0.031808 0.014534 0.115300
-0.031780 0.014815 0.115200
-0.031780 0.015109 0.115200
-0.031780 0.015402 0.115200
-0.031725 0.015669 0.115000
-0.031725 0.015962 0.115000
-0.031698 0.016241 0.114900
-0.031698 0.016534 0.114900
-0.031698 0.016827 0.114900
-0.031698 0.017120 0.114900
-0.031698 0.017412 0.114900
-0.031670 0.017690 0.114800
-0.031643 0.017967 0.114700
-0.031643 0.018259 0.114700
-0.031643 0.018552 0.114700
-0.031643 0.018844 0.114700
-0.031643 0.019137 0.114700
-0.031643 0.019429 0.114700
-0.031643 0.019721 0.114700
-0.031643 0.020014 0.114700
-0.031670 0.020324 0.114800
-0.031698 0.020634 0.114900
-0.031725 0.020946 0.115000
-0.031725 0.021239 0.115000
-0.033773 0.005395 0.121300
-0.033829 0.005714 0.121500
-0.033829 0.006023 0.121500
-0.033773 0.006323 0.121300
-0.033745 0.006627 0.121200
-0.033690 0.006924 0.121000
-0.033606 0.007215 0.120700
-0.033550 0.007510 0.120500
-0.033439 0.007791 0.120100
-0.033383 0.008084 0.119900
-0.033300 0.008368 0.119600
-0.033216 0.008652 0.119300
-0.033133 0.008933 0.119000
-0.033105 0.009229 0.118900
-0.033049 0.009516 0.118700
-0.032966 0.009794 0.118400
-0.032910 0.010078 0.118200
-0.032854 0.010362 0.118000
-0.032799 0.010645 0.117800
-0.032715 0.010917 0.117500
-0.032660 0.011198 0.117300
-0.032576 0.011467 0.117000
-0.032548 0.011755 0.116900
-0.032465 0.012023 0.116600
-0.032437 0.012309 0.116500
-0.032353 0.012574 0.116200
-0.032325 0.012859 0.116100
-0.032270 0.013132 0.115900
-0.032242 0.013416 0.115800
-0.032214 0.013699 0.115700
-0.032158 0.013970 0.115500
-0.032158 0.014265 0.115500
-0.032103 0.014534 0.115300
-0.032075 0.014815 0.115200
-0.032075 0.015109 0.115200
-0.032075 0.015402 0.115200
-0.032047 0.015682 0.115100
-0.032019 0.015962 0.115000
-0.032019 0.016255 0.115000
-0.032019 0.016548 0.115000
-0.031991 0.016827 0.114900
-0.031991 0.017120 0.114900
-0.031991 0.017412 0.114900
-0.031991 0.017705 0.114900
-0.031936 0.017967 0.114700
-0.031936 0.018259 0.114700
-0.031963 0.018568 0.114800
-0.031963 0.018861 0.114800
-0.031936 0.019137 0.114700
-0.031936 0.019429 0.114700
-0.031936 0.019721 0.114700
-0.031936 0.020014 0.114700
-0.031991 0.020342 0.114900
-0.031991 0.020634 0.114900
-0.032019 0.020946 0.115000
-0.032019 0.021239 0.115000
-0.032047 0.021551 0.115100
-0.032075 0.021863 0.115200
-0.032242 0.024338 0.115800
-0.032242 0.024634 0.115800
-0.032270 0.024950 0.115900
-0.032325 0.025289 0.116100
-0.032353 0.025607 0.116200
-0.032409 0.025948 0.116400
-0.032465 0.026290 0.116600
-0.034027 0.005386 0.121100
-0.034055 0.005700 0.121200
-0.034083 0.006014 0.121300
-0.034083 0.006323 0.121300
-0.034055 0.006627 0.121200
-0.033999 0.006924 0.121000
-0.033943 0.007221 0.120800
-0.033858 0.007510 0.120500
-0.033802 0.007804 0.120300
-0.033718 0.008090 0.120000
-0.033662 0.008382 0.119800
-0.033577 0.008666 0.119500
-0.033521 0.008956 0.119300
-0.033437 0.009236 0.119000
-0.033409 0.009532 0.118900
-0.033353 0.009818 0.118700
-0.033268 0.010095 0.118400
-0.033212 0.010380 0.118200
-0.033128 0.010654 0.117900
-0.033072 0.010936 0.117700
-0.032987 0.011207 0.117400
-0.032931 0.011487 0.117200
-0.032847 0.011755 0.116900
-0.032791 0.012033 0.116700
-0.032734 0.012309 0.116500
-0.032678 0.012585 0.116300
-0.032622 0.012859 0.116100
-0.032566 0.013132 0.115900
-0.032538 0.013416 0.115800
-0.032510 0.013699 0.115700
-0.032482 0.013982 0.115600
-0.032453 0.014265 0.115500
-0.032425 0.014546 0.115400
-0.032397 0.014828 0.115300
-0.032369 0.015109 0.115200
-0.032369 0.015402 0.115200
-0.032341 0.015682 0.115100
-0.032313 0.015962 0.115000
-0.032313 0.016255 0.115000
-0.032313 0.016548 0.115000
-0.032285 0.016827 0.114900
-0.032285 0.017120 0.114900
-0.032285 0.017412 0.114900
-0.032285 0.017705 0.114900
-0.032285 0.017998 0.114900
-0.032257 0.018275 0.114800
-0.032257 0.018568 0.114800
-0.032285 0.018877 0.114900
-0.032285 0.019170 0.114900
-0.032285 0.019463 0.114900
-0.032285 0.019756 0.114900
-0.032285 0.020049 0.114900
-0.032285 0.020342 0.114900
-0.032285 0.020634 0.114900
-0.032313 0.020946 0.115000
-0.032313 0.021239 0.115000
-0.032341 0.021551 0.115100
-0.032369 0.021863 0.115200
-0.032397 0.022176 0.115300
-0.032397 0.022470 0.115300
-0.032425 0.022783 0.115400
-0.032425 0.023078 0.115400
-0.032453 0.023392 0.115500
-0.032482 0.023707 0.115600
-0.032482 0.024002 0.115600
-0.032538 0.024338 0.115800
-0.032538 0.024634 0.115800
-0.032566 0.024950 0.115900
-0.032622 0.025289 0.116100
-0.032650 0.025607 0.116200
-0.032706 0.025948 0.116400
-0.032763 0.026290 0.116600
-0.032847 0.026656 0.116900
-0.032931 0.027023 0.117200
-0.032987 0.027368 0.117400
-0.033072 0.027738 0.117700
-0.033128 0.028086 0.117900
-0.033184 0.028435 0.118100
-0.034308 0.005690 0.121000
-0.034336 0.006004 0.121100
-0.034336 0.006312 0.121100
-0.034336 0.006621 0.121100
-0.034336 0.006930 0.121100
-0.034251 0.007221 0.120800
-0.034223 0.007522 0.120700
-0.034138 0.007810 0.120400
-0.034053 0.008097 0.120100
-0.033996 0.008389 0.119900
-0.033939 0.008681 0.119700
-0.033883 0.008971 0.119500
-0.033826 0.009260 0.119300
-0.033741 0.009540 0.119000
-0.033713 0.009835 0.118900
-0.033628 0.010112 0.118600
-0.033542 0.010388 0.118300
-0.033457 0.010663 0.118000
-0.033401 0.010945 0.117800
-0.033316 0.011217 0.117500
-0.033231 0.011487 0.117200
-0.033174 0.011766 0.117000
-0.033089 0.012033 0.116700
-0.033060 0.012320 0.116600
-0.032975 0.012585 0.116300
-0.032919 0.012859 0.116100
-0.032890 0.013144 0.116000
-0.032834 0.013416 0.115800
-0.032805 0.013699 0.115700
-0.032777 0.013982 0.115600
-0.032749 0.014265 0.115500
-0.032720 0.014546 0.115400
-0.032692 0.014828 0.115300
-0.032692 0.015122 0.115300
-0.032664 0.015402 0.115200
-0.032635 0.015682 0.115100
-0.032635 0.015976 0.115100
-0.032607 0.016255 0.115000
-0.032607 0.016548 0.115000
-0.032607 0.016841 0.115000
-0.032578 0.017120 0.114900
-0.032578 0.017412 0.114900
-0.032578 0.017705 0.114900
-0.032578 0.017998 0.114900
-0.032578 0.018291 0.114900
-0.032578 0.018584 0.114900
-0.032578 0.018877 0.114900
-0.032578 0.019170 0.114900
-0.032578 0.019463 0.114900
-0.032578 0.019756 0.114900
-0.032607 0.020066 0.115000
-0.032607 0.020359 0.115000
-0.032607 0.020652 0.115000
-0.032635 0.020964 0.115100
-0.032635 0.021257 0.115100
-0.032664 0.021569 0.115200
-0.032664 0.021863 0.115200
-0.032692 0.022176 0.115300
-0.032692 0.022470 0.115300
-0.032720 0.022783 0.115400
-0.032720 0.023078 0.115400
-0.032749 0.023392 0.115500
-0.032777 0.023707 0.115600
-0.032777 0.024002 0.115600
-0.032834 0.024338 0.115800
-0.032834 0.024634 0.115800
-0.032890 0.024972 0.116000
-0.032919 0.025289 0.116100
-0.032947 0.025607 0.116200
-0.033004 0.025948 0.116400
-0.033060 0.026290 0.116600
-0.033146 0.026656 0.116900
-0.033231 0.027023 0.117200
-0.033287 0.027368 0.117400
-0.033372 0.027738 0.117700
-0.033429 0.028086 0.117900
-0.033486 0.028435 0.118100
-0.033542 0.028784 0.118300
-0.033599 0.029135 0.118500
-0.033684 0.029512 0.118800
-0.033741 0.029865 0.119000
-0.034589 0.005994 0.120900
-0.034617 0.006307 0.121000
-0.034646 0.006621 0.121100
-0.034646 0.006930 0.121100
-0.034589 0.007227 0.120900
-0.034560 0.007529 0.120800
-0.034474 0.007817 0.120500
-0.034417 0.008111 0.120300
-0.034360 0.008403 0.120100
-0.034303 0.008695 0.119900
-0.034245 0.008986 0.119700
-0.034188 0.009275 0.119500
-0.034102 0.009556 0.119200
-0.034045 0.009843 0.119000
-0.033988 0.010129 0.118800
-0.033902 0.010406 0.118500
-0.033816 0.010681 0.118200
-0.033730 0.010954 0.117900
-0.033645 0.011226 0.117600
-0.033587 0.011506 0.117400
-0.033473 0.011766 0.117000
-0.033444 0.012053 0.116900
-0.033358 0.012320 0.116600
-0.033301 0.012595 0.116400
-0.033244 0.012870 0.116200
-0.033215 0.013155 0.116100
-0.033158 0.013428 0.115900
-0.033130 0.013711 0.115800
-0.033101 0.013994 0.115700
-0.033072 0.014277 0.115600
-0.033044 0.014559 0.115500
-0.033015 0.014841 0.115400
-0.032986 0.015122 0.115300
-0.032986 0.015416 0.115300
-0.032958 0.015696 0.115200
-0.032958 0.015990 0.115200
-0.032929 0.016269 0.115100
-0.032929 0.016563 0.115100
-0.032901 0.016841 0.115000
-0.032901 0.017134 0.115000
-0.032901 0.017428 0.115000
-0.032901 0.017721 0.115000
-0.032901 0.018014 0.115000
-0.032901 0.018307 0.115000
-0.032901 0.018600 0.115000
-0.032901 0.018893 0.115000
-0.032901 0.019187 0.115000
-0.032901 0.019480 0.115000
-0.032901 0.019773 0.115000
-0.032929 0.020084 0.115100
-0.032901 0.020359 0.115000
-0.032901 0.020652 0.115000
-0.032958 0.020982 0.115200
-0.032958 0.021276 0.115200
-0.032986 0.021588 0.115300
-0.032986 0.021882 0.115300
-0.033015 0.022195 0.115400
-0.033015 0.022489 0.115400
-0.033044 0.022803 0.115500
-0.033044 0.023098 0.115500
-0.033072 0.023412 0.115600
-0.033101 0.023728 0.115700
-0.033101 0.024022 0.115700
-0.033130 0.024338 0.115800
-0.033158 0.024655 0.115900
-0.033215 0.024993 0.116100
-0.033244 0.025311 0.116200
-0.033301 0.025651 0.116400
-0.033358 0.025993 0.116600
-0.033387 0.026313 0.116700
-0.033444 0.026656 0.116900
-0.033530 0.027023 0.117200
-0.033587 0.027368 0.117400
-0.033673 0.027738 0.117700
-0.033730 0.028086 0.117900
-0.033788 0.028435 0.118100
-0.033845 0.028784 0.118300
-0.033902 0.029135 0.118500
-0.033988 0.029512 0.118800
-0.034045 0.029865 0.119000
-0.034131 0.030244 0.119300
-0.034217 0.030625 0.119600
-0.034388 0.031085 0.120200
-0.034531 0.031522 0.120700
-0.034589 0.031883 0.120900
-0.034674 0.032271 0.121200
-0.034840 0.005984 0.120700
-0.034898 0.006302 0.120900
-0.034926 0.006616 0.121000
-0.034955 0.006930 0.121100
-0.034926 0.007233 0.121000
-0.034898 0.007535 0.120900
-0.034840 0.007830 0.120700
-0.034782 0.008124 0.120500
-0.034724 0.008417 0.120300
-0.034667 0.008710 0.120100
-0.034609 0.009001 0.119900
-0.034580 0.009299 0.119800
-0.034493 0.009580 0.119500
-0.034407 0.009860 0.119200
-0.034320 0.010138 0.118900
-0.034263 0.010424 0.118700
-0.034147 0.010690 0.118300
-0.034060 0.010964 0.118000
-0.033974 0.011236 0.117700
-0.033916 0.011516 0.117500
-0.033830 0.011786 0.117200
-0.033743 0.012053 0.116900
-0.033685 0.012330 0.116700
-0.033627 0.012606 0.116500
-0.033599 0.012892 0.116400
-0.033541 0.013166 0.116200
-0.033512 0.013451 0.116100
-0.033454 0.013723 0.115900
-0.033425 0.014006 0.115800
-0.033397 0.014289 0.115700
-0.033368 0.014572 0.115600
-0.033339 0.014853 0.115500
-0.033310 0.015135 0.115400
-0.033281 0.015416 0.115300
-0.033281 0.015710 0.115300
-0.033281 0.016003 0.115300
-0.033252 0.016283 0.115200
-0.033252 0.016577 0.115200
-0.033252 0.016871 0.115200
-0.033252 0.017164 0.115200
-0.033252 0.017458 0.115200
-0.033252 0.017752 0.115200
-0.033252 0.018045 0.115200
-0.033252 0.018339 0.115200
-0.033252 0.018633 0.115200
-0.033252 0.018926 0.115200
-0.033252 0.019220 0.115200
-0.033252 0.019514 0.115200
-0.033252 0.019807 0.115200
-0.033252 0.020101 0.115200
-0.033252 0.020395 0.115200
-0.033252 0.020688 0.115200
-0.033281 0.021000 0.115300
-0.033281 0.021294 0.115300
-0.033281 0.021588 0.115300
-0.033310 0.021901 0.115400
-0.033310 0.022195 0.115400
-0.033339 0.022509 0.115500
-0.033368 0.022823 0.115600
-0.033368 0.023118 0.115600
-0.033397 0.023433 0.115700
-0.033425 0.023748 0.115800
-0.033425 0.024043 0.115800
-0.033454 0.024359 0.115900
-0.033483 0.024676 0.116000
-0.033512 0.024993 0.116100
-0.033541 0.025311 0.116200
-0.033599 0.025651 0.116400
-0.033656 0.025993 0.116600
-0.033685 0.026313 0.116700
-0.033772 0.026678 0.117000
-0.033830 0.027023 0.117200
-0.033916 0.027392 0.117500
-0.034003 0.027762 0.117800
-0.034060 0.028110 0.118000
-0.034118 0.028459 0.118200
-0.034176 0.028809 0.118400
-0.034234 0.029160 0.118600
-0.034291 0.029512 0.118800
-0.034349 0.029865 0.119000
-0.034436 0.030244 0.119300
-0.034522 0.030625 0.119600
-0.034695 0.031085 0.120200
-0.034840 0.031522 0.120700
-0.034898 0.031883 0.120900
-0.035148 0.006292 0.120700
-0.035206 0.006610 0.120900
-0.035236 0.006924 0.121000
-0.035265 0.007238 0.121100
-0.035236 0.007541 0.121000
-0.035206 0.007843 0.120900
-0.035148 0.008138 0.120700
-0.035090 0.008431 0.120500
-0.035061 0.008731 0.120400
-0.034973 0.009016 0.120100
-0.034915 0.009306 0.119900
-0.034857 0.009596 0.119700
-0.034770 0.009876 0.119400
-0.034682 0.010155 0.119100
-0.034624 0.010441 0.118900
-0.034508 0.010708 0.118500
-0.034420 0.010982 0.118200
-0.034304 0.011245 0.117800
-0.034245 0.011526 0.117600
-0.034187 0.011806 0.117400
-0.034100 0.012074 0.117100
-0.034042 0.012352 0.116900
-0.033983 0.012628 0.116700
-0.033925 0.012903 0.116500
-0.033896 0.013189 0.116400
-0.033838 0.013462 0.116200
-0.033809 0.013747 0.116100
-0.033780 0.014031 0.116000
-0.033750 0.014314 0.115900
-0.033721 0.014597 0.115800
-0.033663 0.014866 0.115600
-0.033663 0.015161 0.115600
-0.033634 0.015442 0.115500
-0.033634 0.015737 0.115500
-0.033605 0.016017 0.115400
-0.033576 0.016297 0.115300
-0.033576 0.016591 0.115300
-0.033576 0.016885 0.115300
-0.033576 0.017179 0.115300
-0.033576 0.017473 0.115300
-0.033576 0.017767 0.115300
-0.033576 0.018061 0.115300
-0.033576 0.018355 0.115300
-0.033576 0.018649 0.115300
-0.033576 0.018943 0.115300
-0.033576 0.019237 0.115300
-0.033576 0.019531 0.115300
-0.033576 0.019824 0.115300
-0.033605 0.020136 0.115400
-0.033605 0.020430 0.115400
-0.033605 0.020724 0.115400
-0.033605 0.021018 0.115400
-0.033605 0.021313 0.115400
-0.033634 0.021625 0.115500
-0.033634 0.021920 0.115500
-0.033663 0.022234 0.115600
-0.033663 0.022528 0.115600
-0.033663 0.022823 0.115600
-0.033692 0.023138 0.115700
-0.033721 0.023453 0.115800
-0.033721 0.023748 0.115800
-0.033750 0.024064 0.115900
-0.033809 0.024401 0.116100
-0.033809 0.024697 0.116100
-0.033838 0.025015 0.116200
-0.033896 0.025355 0.116400
-0.033954 0.025696 0.116600
-0.033983 0.026015 0.116700
-0.034042 0.026358 0.116900
-0.034100 0.026701 0.117100
-0.034158 0.027046 0.117300
-0.034216 0.027392 0.117500
-0.034304 0.027762 0.117800
-0.034362 0.028110 0.118000
-0.034449 0.028483 0.118300
-0.034508 0.028833 0.118500
-0.034566 0.029184 0.118700
-0.034624 0.029537 0.118900
-0.034682 0.029890 0.119100
-0.034741 0.030244 0.119300
-0.034828 0.030625 0.119600
-0.035003 0.031085 0.120200
-0.035119 0.031496 0.120600
-0.035206 0.031883 0.120900
-0.035515 0.006610 0.120900
-0.035545 0.006924 0.121000
-0.035574 0.007238 0.121100
-0.035574 0.007547 0.121100
-0.035545 0.007849 0.121000
-0.035515 0.008151 0.120900
-0.035486 0.008452 0.120800
-0.035427 0.008746 0.120600
-0.035339 0.009031 0.120300
-0.035280 0.009322 0.120100
-0.035222 0.009612 0.119900
-0.035133 0.009893 0.119600
-0.035045 0.010172 0.119300
-0.034957 0.010450 0.119000
-0.034869 0.010726 0.118700
-0.034752 0.010992 0.118300
-0.034663 0.011264 0.118000
-0.034575 0.011536 0.117700
-0.034517 0.011816 0.117500
-0.034428 0.012084 0.117200
-0.034370 0.012362 0.117000
-0.034340 0.012650 0.116900
-0.034282 0.012925 0.116700
-0.034252 0.013212 0.116600
-0.034193 0.013486 0.116400
-0.034164 0.013770 0.116300
-0.034135 0.014055 0.116200
-0.034105 0.014339 0.116100
-0.034047 0.014609 0.115900
-0.034017 0.014892 0.115800
-0.033988 0.015174 0.115700
-0.033958 0.015456 0.115600
-0.033958 0.015750 0.115600
-0.033929 0.016031 0.115500
-0.033929 0.016326 0.115500
-0.033929 0.016620 0.115500
-0.033929 0.016915 0.115500
-0.033929 0.017209 0.115500
-0.033929 0.017503 0.115500
-0.033900 0.017782 0.115400
-0.033900 0.018077 0.115400
-0.033900 0.018371 0.115400
-0.033900 0.018665 0.115400
-0.033929 0.018976 0.115500
-0.033929 0.019270 0.115500
-0.033929 0.019564 0.115500
-0.033929 0.019859 0.115500
-0.033929 0.020153 0.115500
-0.033929 0.020448 0.115500
-0.033929 0.020742 0.115500
-0.033958 0.021055 0.115600
-0.033958 0.021350 0.115600
-0.033958 0.021644 0.115600
-0.033958 0.021939 0.115600
-0.033988 0.022253 0.115700
-0.033988 0.022548 0.115700
-0.034017 0.022862 0.115800
-0.034017 0.023158 0.115800
-0.034047 0.023473 0.115900
-0.034047 0.023769 0.115900
-0.034105 0.024106 0.116100
-0.034135 0.024423 0.116200
-0.034164 0.024740 0.116300
-0.034193 0.025058 0.116400
-0.034252 0.025398 0.116600
-0.034282 0.025718 0.116700
-0.034340 0.026060 0.116900
-0.034370 0.026380 0.117000
-0.034428 0.026724 0.117200
-0.034517 0.027092 0.117500
-0.034575 0.027438 0.117700
-0.034605 0.027762 0.117800
-0.034722 0.028157 0.118200
-0.034752 0.028483 0.118300
-0.034810 0.028833 0.118500
-0.034869 0.029184 0.118700
-0.034957 0.029561 0.119000
-0.035016 0.029915 0.119200
-0.035075 0.030269 0.119400
-0.035163 0.030651 0.119700
-0.035280 0.031059 0.120100
-0.035398 0.031470 0.120500
-0.035824 0.006918 0.120900
-0.035884 0.007238 0.121100
-0.035913 0.007553 0.121200
-0.035884 0.007856 0.121100
-0.035884 0.008165 0.121100
-0.035824 0.008459 0.120900
-0.035795 0.008760 0.120800
-0.035706 0.009046 0.120500
-0.035646 0.009337 0.120300
-0.035558 0.009620 0.120000
-0.035498 0.009909 0.119800
-0.035380 0.010181 0.119400
-0.035321 0.010467 0.119200
-0.035202 0.010735 0.118800
-0.035113 0.011010 0.118500
-0.035024 0.011284 0.118200
-0.034935 0.011556 0.117900
-0.034876 0.011836 0.117700
-0.034787 0.012105 0.117400
-0.034728 0.012383 0.117200
-0.034669 0.012660 0.117000
-0.034639 0.012948 0.116900
-0.034580 0.013223 0.116700
-0.034550 0.013509 0.116600
-0.034521 0.013794 0.116500
-0.034491 0.014079 0.116400
-0.034432 0.014351 0.116200
-0.034402 0.014635 0.116100
-0.034372 0.014918 0.116000
-0.034343 0.015200 0.115900
-0.034313 0.015482 0.115800
-0.034313 0.015778 0.115800
-0.034283 0.016059 0.115700
-0.034254 0.016340 0.115600
-0.034254 0.016634 0.115600
-0.034254 0.016929 0.115600
-0.034254 0.017224 0.115600
-0.034254 0.017519 0.115600
-0.034254 0.017813 0.115600
-0.034254 0.018108 0.115600
-0.034254 0.018403 0.115600
-0.034254 0.018697 0.115600
-0.034254 0.018992 0.115600
-0.034254 0.019287 0.115600
-0.034254 0.019581 0.115600
-0.034254 0.019876 0.115600
-0.034254 0.020171 0.115600
-0.034254 0.020465 0.115600
-0.034283 0.020778 0.115700
-0.034283 0.021073 0.115700
-0.034283 0.021368 0.115700
-0.034313 0.021682 0.115800
-0.034313 0.021977 0.115800
-0.034313 0.022272 0.115800
-0.034343 0.022587 0.115900
-0.034343 0.022882 0.115900
-0.034343 0.023178 0.115900
-0.034402 0.023514 0.116100
-0.034402 0.023810 0.116100
-0.034432 0.024126 0.116200
-0.034491 0.024465 0.116400
-0.034491 0.024761 0.116400
-0.034550 0.025101 0.116600
-0.034580 0.025420 0.116700
-0.034639 0.025762 0.116900
-0.034669 0.026082 0.117000
-0.034728 0.026425 0.117200
-0.034787 0.026770 0.117400
-0.034876 0.027138 0.117700
-0.034906 0.027461 0.117800
-0.034995 0.027832 0.118100
-0.035054 0.028181 0.118300
-0.035113 0.028531 0.118500
-0.035172 0.028882 0.118700
-0.035232 0.029233 0.118900
-0.035261 0.029561 0.119000
-0.035321 0.029915 0.119200
-0.035380 0.030269 0.119400
-0.035469 0.030651 0.119700
-0.035587 0.031059 0.120100
-0.036133 0.006918 0.120900
-0.036193 0.007238 0.121100
-0.036223 0.007553 0.121200
-0.036223 0.007862 0.121200
-0.036223 0.008171 0.121200
-0.036193 0.008473 0.121100
-0.036133 0.008768 0.120900
-0.036073 0.009061 0.120700
-0.036014 0.009353 0.120500
-0.035894 0.009628 0.120100
-0.035834 0.009918 0.119900
-0.035745 0.010198 0.119600
-0.035625 0.010467 0.119200
-0.035535 0.010744 0.118900
-0.035446 0.011019 0.118600
-0.035356 0.011293 0.118300
-0.035266 0.011565 0.118000
-0.035207 0.011846 0.117800
-0.035147 0.012126 0.117600
-0.035087 0.012404 0.117400
-0.035027 0.012682 0.117200
-0.034968 0.012959 0.117000
-0.034938 0.013246 0.116900
-0.034908 0.013532 0.116800
-0.034878 0.013818 0.116700
-0.034848 0.014103 0.116600
-0.034788 0.014376 0.116400
-0.034729 0.014647 0.116200
-0.034699 0.014931 0.116100
-0.034699 0.015227 0.116100
-0.034669 0.015509 0.116000
-0.034639 0.015791 0.115900
-0.034609 0.016073 0.115800
-0.034609 0.016368 0.115800
-0.034609 0.016663 0.115800
-0.034609 0.016958 0.115800
-0.034609 0.017254 0.115800
-0.034609 0.017549 0.115800
-0.034609 0.017844 0.115800
-0.034609 0.018139 0.115800
-0.034609 0.018434 0.115800
-0.034609 0.018730 0.115800
-0.034609 0.019025 0.115800
-0.034609 0.019320 0.115800
-0.034609 0.019615 0.115800
-0.034609 0.019910 0.115800
-0.034609 0.020206 0.115800
-0.034609 0.020501 0.115800
-0.034609 0.020796 0.115800
-0.034639 0.021109 0.115900
-0.034639 0.021405 0.115900
-0.034639 0.021700 0.115900
-0.034639 0.021996 0.115900
-0.034639 0.022291 0.115900
-0.034669 0.022606 0.116000
-0.034699 0.022922 0.116100
-0.034699 0.023218 0.116100
-0.034729 0.023534 0.116200
-0.034758 0.023851 0.116300
-0.034788 0.024168 0.116400
-0.034848 0.024507 0.116600
-0.034878 0.024825 0.116700
-0.034908 0.025144 0.116800
-0.034938 0.025464 0.116900
-0.034998 0.025806 0.117100
-0.035027 0.026127 0.117200
-0.035087 0.026470 0.117400
-0.035177 0.026838 0.117700
-0.035207 0.027161 0.117800
-0.035266 0.027508 0.118000
-0.035356 0.027880 0.118300
-0.035416 0.028229 0.118500
-0.035476 0.028579 0.118700
-0.035535 0.028930 0.118900
-0.035565 0.029258 0.119000
-0.035625 0.029611 0.119200
-0.035685 0.029965 0.119400
-0.035745 0.030320 0.119600
-0.035804 0.030676 0.119800
-0.035924 0.031085 0.120200
-0.036533 0.007244 0.121200
-0.036563 0.007560 0.121300
-0.036563 0.007869 0.121300
-0.036563 0.008178 0.121300
-0.036533 0.008480 0.121200
-0.036502 0.008782 0.121100
-0.036442 0.009076 0.120900
-0.036322 0.009353 0.120500
-0.036261 0.009644 0.120300
-0.036171 0.009926 0.120000
-0.036080 0.010206 0.119700
-0.035990 0.010485 0.119400
-0.035869 0.010753 0.119000
-0.035779 0.011029 0.118700
-0.035719 0.011312 0.118500
-0.035628 0.011585 0.118200
-0.035568 0.011866 0.118000
-0.035508 0.012146 0.117800
-0.035447 0.012425 0.117600
-0.035417 0.012714 0.117500
-0.035357 0.012992 0.117300
-0.035327 0.013280 0.117200
-0.035267 0.013555 0.117000
-0.035236 0.013842 0.116900
-0.035176 0.014115 0.116700
-0.035146 0.014400 0.116600
-0.035116 0.014685 0.116500
-0.035086 0.014969 0.116400
-0.035025 0.015240 0.116200
-0.035025 0.015536 0.116200
-0.034995 0.015819 0.116100
-0.034995 0.016115 0.116100
-0.034965 0.016396 0.116000
-0.034935 0.016678 0.115900
-0.034935 0.016973 0.115900
-0.034935 0.017269 0.115900
-0.034935 0.017564 0.115900
-0.034935 0.017859 0.115900
-0.034935 0.018155 0.115900
-0.034935 0.018450 0.115900
-0.034935 0.018746 0.115900
-0.034935 0.019041 0.115900
-0.034935 0.019337 0.115900
-0.034935 0.019632 0.115900
-0.034935 0.019928 0.115900
-0.034935 0.020223 0.115900
-0.034965 0.020536 0.116000
-0.034965 0.020832 0.116000
-0.034965 0.021128 0.116000
-0.034965 0.021423 0.116000
-0.034995 0.021738 0.116100
-0.034995 0.022034 0.116100
-0.034995 0.022330 0.116100
-0.035025 0.022645 0.116200
-0.035025 0.022941 0.116200
-0.035056 0.023258 0.116300
-0.035086 0.023574 0.116400
-0.035116 0.023892 0.116500
-0.035146 0.024209 0.116600
-0.035176 0.024528 0.116700
-0.035236 0.024868 0.116900
-0.035267 0.025187 0.117000
-0.035327 0.025529 0.117200
-0.035387 0.025872 0.117400
-0.035417 0.026193 0.117500
-0.035478 0.026538 0.117700
-0.035508 0.026861 0.117800
-0.035568 0.027207 0.118000
-0.035628 0.027555 0.118200
-0.035719 0.027927 0.118500
-0.035779 0.028276 0.118700
-0.035839 0.028627 0.118900
-0.035869 0.028955 0.119000
-0.035930 0.029307 0.119200
-0.035990 0.029661 0.119400
-0.036020 0.029990 0.119500
-0.036080 0.030346 0.119700
-0.036141 0.030702 0.119900
-0.036933 0.007572 0.121500
-0.036903 0.007875 0.121400
-0.036903 0.008185 0.121400
-0.036873 0.008487 0.121300
-0.036812 0.008782 0.121100
-0.036781 0.009083 0.121000
-0.036690 0.009368 0.120700
-0.036599 0.009652 0.120400
-0.036508 0.009934 0.120100
-0.036417 0.010215 0.119800
-0.036325 0.010494 0.119500
-0.036234 0.010771 0.119200
-0.036143 0.011047 0.118900
-0.036052 0.011322 0.118600
-0.035991 0.011605 0.118400
-0.035930 0.011886 0.118200
-0.035870 0.012167 0.118000
-0.035809 0.012447 0.117800
-0.035778 0.012736 0.117700
-0.035718 0.013014 0.117500
-0.035687 0.013302 0.117400
-0.035626 0.013578 0.117200
-0.035566 0.013853 0.117000
-0.035535 0.014140 0.116900
-0.035474 0.014413 0.116700
-0.035444 0.014698 0.116600
-0.035444 0.014995 0.116600
-0.035383 0.015266 0.116400
-0.035383 0.015563 0.116400
-0.035353 0.015846 0.116300
-0.035322 0.016128 0.116200
-0.035322 0.016425 0.116200
-0.035292 0.016706 0.116100
-0.035292 0.017002 0.116100
-0.035292 0.017298 0.116100
-0.035292 0.017594 0.116100
-0.035292 0.017890 0.116100
-0.035292 0.018186 0.116100
-0.035292 0.018482 0.116100
-0.035292 0.018778 0.116100
-0.035292 0.019074 0.116100
-0.035292 0.019370 0.116100
-0.035292 0.019666 0.116100
-0.035292 0.019962 0.116100
-0.035292 0.020258 0.116100
-0.035292 0.020554 0.116100
-0.035292 0.020850 0.116100
-0.035322 0.021164 0.116200
-0.035322 0.021460 0.116200
-0.035322 0.021757 0.116200
-0.035322 0.022053 0.116200
-0.035353 0.022368 0.116300
-0.035353 0.022665 0.116300
-0.035383 0.022981 0.116400
-0.035414 0.023298 0.116500
-0.035444 0.023615 0.116600
-0.035474 0.023933 0.116700
-0.035505 0.024251 0.116800
-0.035535 0.024570 0.116900
-0.035596 0.024910 0.117100
-0.035626 0.025230 0.117200
-0.035687 0.025573 0.117400
-0.035718 0.025894 0.117500
-0.035778 0.026238 0.117700
-0.035839 0.026583 0.117900
-0.035870 0.026906 0.118000
-0.035930 0.027253 0.118200
-0.035991 0.027601 0.118400
-0.036052 0.027950 0.118600
-0.036113 0.028300 0.118800
-0.036173 0.028651 0.119000
-0.036234 0.029003 0.119200
-0.036265 0.029332 0.119300
-0.036325 0.029686 0.119500
-0.036356 0.030015 0.119600
-0.036417 0.030371 0.119800
-0.037244 0.007572 0.121500
-0.037244 0.007882 0.121500
-0.037244 0.008192 0.121500
-0.037183 0.008487 0.121300
-0.037183 0.008797 0.121300
-0.037091 0.009083 0.121000
-0.037029 0.009376 0.120800
-0.036937 0.009660 0.120500
-0.036845 0.009942 0.120200
-0.036753 0.010223 0.119900
-0.036692 0.010511 0.119700
-0.036600 0.010789 0.119400
-0.036508 0.011066 0.119100
-0.036416 0.011341 0.118800
-0.036355 0.011624 0.118600
-0.036294 0.011906 0.118400
-0.036232 0.012188 0.118200
-0.036171 0.012468 0.118000
-0.036110 0.012747 0.117800
-0.036079 0.013036 0.117700
-0.036018 0.013313 0.117500
-0.035987 0.013601 0.117400
-0.035926 0.013877 0.117200
-0.035864 0.014152 0.117000
-0.035834 0.014438 0.116900
-0.035803 0.014723 0.116800
-0.035773 0.015008 0.116700
-0.035742 0.015292 0.116600
-0.035742 0.015589 0.116600
-0.035711 0.015873 0.116500
-0.035681 0.016156 0.116400
-0.035681 0.016453 0.116400
-0.035650 0.016735 0.116300
-0.035650 0.017032 0.116300
-0.035619 0.017313 0.116200
-0.035619 0.017609 0.116200
-0.035619 0.017906 0.116200
-0.035619 0.018202 0.116200
-0.035619 0.018498 0.116200
-0.035619 0.018794 0.116200
-0.035619 0.019091 0.116200
-0.035619 0.019387 0.116200
-0.035619 0.019683 0.116200
-0.035619 0.019979 0.116200
-0.035619 0.020275 0.116200
-0.035619 0.020572 0.116200
-0.035650 0.020886 0.116300
-0.035650 0.021182 0.116300
-0.035650 0.021479 0.116300
-0.035681 0.021794 0.116400
-0.035681 0.022091 0.116400
-0.035681 0.022387 0.116400
-0.035711 0.022704 0.116500
-0.035742 0.023020 0.116600
-0.035742 0.023318 0.116600
-0.035773 0.023635 0.116700
-0.035803 0.023953 0.116800
-0.035864 0.024292 0.117000
-0.035895 0.024612 0.117100
-0.035956 0.024953 0.117300
-0.036018 0.025295 0.117500
-0.036048 0.025616 0.117600
-0.036110 0.025960 0.117800
-0.036171 0.026305 0.118000
-0.036232 0.026651 0.118200
-0.036263 0.026975 0.118300
-0.036324 0.027323 0.118500
-0.036386 0.027671 0.118700
-0.036416 0.027997 0.118800
-0.036478 0.028348 0.119000
-0.036539 0.028699 0.119200
-0.036600 0.029052 0.119400
-0.036631 0.029381 0.119500
-0.036692 0.029735 0.119700
-0.036723 0.030065 0.119800
-0.036753 0.030396 0.119900
-0.037585 0.007888 0.121600
-0.037554 0.008192 0.121500
-0.037554 0.008501 0.121500
-0.037493 0.008797 0.121300
-0.037431 0.009091 0.121100
-0.037369 0.009384 0.120900
-0.037276 0.009668 0.120600
-0.037183 0.009951 0.120300
-0.037122 0.010240 0.120100
-0.037029 0.010520 0.119800
-0.036967 0.010807 0.119600
-0.036843 0.011075 0.119200
-0.036782 0.011360 0.119000
-0.036720 0.011644 0.118800
-0.036658 0.011926 0.118600
-0.036596 0.012208 0.118400
-0.036534 0.012489 0.118200
-0.036473 0.012769 0.118000
-0.036411 0.013047 0.117800
-0.036380 0.013336 0.117700
-0.036318 0.013613 0.117500
-0.036287 0.013901 0.117400
-0.036225 0.014176 0.117200
-0.036163 0.014450 0.117000
-0.036163 0.014748 0.117000
-0.036133 0.015034 0.116900
-0.036102 0.015318 0.116800
-0.036071 0.015603 0.116700
-0.036040 0.015887 0.116600
-0.036040 0.016184 0.116600
-0.036040 0.016481 0.116600
-0.036009 0.016764 0.116500
-0.035978 0.017046 0.116400
-0.035978 0.017343 0.116400
-0.035978 0.017640 0.116400
-0.035978 0.017937 0.116400
-0.035978 0.018233 0.116400
-0.035978 0.018530 0.116400
-0.035978 0.018827 0.116400
-0.035978 0.019123 0.116400
-0.035978 0.019420 0.116400
-0.035978 0.019717 0.116400
-0.035978 0.020014 0.116400
-0.035978 0.020310 0.116400
-0.035978 0.020607 0.116400
-0.035978 0.020904 0.116400
-0.035978 0.021201 0.116400
-0.036009 0.021516 0.116500
-0.036009 0.021813 0.116500
-0.036040 0.022129 0.116600
-0.036040 0.022426 0.116600
-0.036040 0.022723 0.116600
-0.036071 0.023040 0.116700
-0.036071 0.023338 0.116700
-0.036133 0.023676 0.116900
-0.036163 0.023994 0.117000
-0.036225 0.024334 0.117200
-0.036256 0.024654 0.117300
-0.036318 0.024995 0.117500
-0.036380 0.025338 0.117700
-0.036411 0.025660 0.117800
-0.036473 0.026004 0.118000
-0.036534 0.026349 0.118200
-0.036596 0.026696 0.118400
-0.036627 0.027020 0.118500
-0.036689 0.027369 0.118700
-0.036751 0.027718 0.118900
-0.036782 0.028045 0.119000
-0.036843 0.028396 0.119200
-0.036874 0.028724 0.119300
-0.036936 0.029076 0.119500
-0.036967 0.029406 0.119600
-0.037060 0.029785 0.119900
-0.037060 0.030091 0.119900
-0.037927 0.007895 0.121700
-0.037896 0.008198 0.121600
-0.037865 0.008501 0.121500
-0.037802 0.008797 0.121300
-0.037740 0.009091 0.121100
-0.037709 0.009392 0.121000
-0.037615 0.009676 0.120700
-0.037553 0.009967 0.120500
-0.037460 0.010249 0.120200
-0.037366 0.010529 0.119900
-0.037335 0.010826 0.119800
-0.037242 0.011103 0.119500
-0.037148 0.011379 0.119200
-0.037086 0.011663 0.119000
-0.037055 0.011957 0.118900
-0.036992 0.012239 0.118700
-0.036930 0.012521 0.118500
-0.036836 0.012790 0.118200
-0.036774 0.013069 0.118000
-0.036712 0.013347 0.117800
-0.036681 0.013636 0.117700
-0.036618 0.013913 0.117500
-0.036587 0.014200 0.117400
-0.036525 0.014475 0.117200
-0.036494 0.014761 0.117100
-0.036462 0.015046 0.117000
-0.036431 0.015332 0.116900
-0.036431 0.015630 0.116900
-0.036400 0.015914 0.116800
-0.036369 0.016198 0.116700
-0.036369 0.016495 0.116700
-0.036369 0.016793 0.116700
-0.036338 0.017076 0.116600
-0.036338 0.017373 0.116600
-0.036338 0.017670 0.116600
-0.036338 0.017967 0.116600
-0.036338 0.018265 0.116600
-0.036338 0.018562 0.116600
-0.036338 0.018859 0.116600
-0.036307 0.019140 0.116500
-0.036307 0.019437 0.116500
-0.036307 0.019734 0.116500
-0.036338 0.020048 0.116600
-0.036338 0.020345 0.116600
-0.036338 0.020642 0.116600
-0.036338 0.020940 0.116600
-0.036338 0.021237 0.116600
-0.036338 0.021534 0.116600
-0.036338 0.021831 0.116600
-0.036369 0.022148 0.116700
-0.036369 0.022445 0.116700
-0.036369 0.022743 0.116700
-0.036400 0.023060 0.116800
-0.036431 0.023378 0.116900
-0.036462 0.023696 0.117000
-0.036525 0.024035 0.117200
-0.036587 0.024375 0.117400
-0.036618 0.024696 0.117500
-0.036681 0.025038 0.117700
-0.036743 0.025381 0.117900
-0.036805 0.025725 0.118100
-0.036868 0.026070 0.118300
-0.036930 0.026416 0.118500
-0.036992 0.026764 0.118700
-0.037023 0.027089 0.118800
-0.037055 0.027415 0.118900
-0.037086 0.027741 0.119000
-0.037148 0.028092 0.119200
-0.037210 0.028443 0.119400
-0.037273 0.028796 0.119600
-0.037304 0.029125 0.119700
-0.037335 0.029455 0.119800
-0.037366 0.029785 0.119900
-0.037428 0.030141 0.120100
-0.038270 0.008212 0.121800
-0.038207 0.008508 0.121600
-0.038175 0.008811 0.121500
-0.038112 0.009106 0.121300
-0.038050 0.009399 0.121100
-0.037955 0.009684 0.120800
-0.037924 0.009984 0.120700
-0.037830 0.010266 0.120400
-0.037735 0.010546 0.120100
-0.037673 0.010835 0.119900
-0.037610 0.011122 0.119700
-0.037547 0.011408 0.119500
-0.037484 0.011693 0.119300
-0.037421 0.011977 0.119100
-0.037358 0.012260 0.118900
-0.037295 0.012542 0.118700
-0.037233 0.012823 0.118500
-0.037138 0.013091 0.118200
-0.037076 0.013370 0.118000
-0.037044 0.013659 0.117900
-0.036981 0.013936 0.117700
-0.036918 0.014212 0.117500
-0.036887 0.014499 0.117400
-0.036856 0.014786 0.117300
-0.036824 0.015072 0.117200
-0.036793 0.015358 0.117100
-0.036761 0.015643 0.117000
-0.036730 0.015928 0.116900
-0.036730 0.016226 0.116900
-0.036730 0.016524 0.116900
-0.036699 0.016807 0.116800
-0.036699 0.017105 0.116800
-0.036667 0.017388 0.116700
-0.036667 0.017685 0.116700
-0.036667 0.017983 0.116700
-0.036667 0.018280 0.116700
-0.036667 0.018578 0.116700
-0.036667 0.018875 0.116700
-0.036667 0.019173 0.116700
-0.036636 0.019454 0.116600
-0.036636 0.019751 0.116600
-0.036636 0.020048 0.116600
-0.036667 0.020363 0.116700
-0.036667 0.020660 0.116700
-0.036667 0.020958 0.116700
-0.036667 0.021255 0.116700
-0.036667 0.021553 0.116700
-0.036667 0.021850 0.116700
-0.036667 0.022148 0.116700
-0.036699 0.022464 0.116800
-0.036730 0.022782 0.116900
-0.036730 0.023080 0.116900
-0.036761 0.023398 0.117000
-0.036824 0.023736 0.117200
-0.036887 0.024076 0.117400
-0.036918 0.024396 0.117500
-0.036981 0.024738 0.117700
-0.037044 0.025080 0.117900
-0.037107 0.025424 0.118100
-0.037170 0.025769 0.118300
-0.037233 0.026114 0.118500
-0.037295 0.026461 0.118700
-0.037358 0.026809 0.118900
-0.037390 0.027134 0.119000
-0.037421 0.027461 0.119100
-0.037484 0.027811 0.119300
-0.037515 0.028139 0.119400
-0.037578 0.028491 0.119600
-0.037610 0.028820 0.119700
-0.037641 0.029149 0.119800
-0.037704 0.029504 0.120000
-0.037735 0.029835 0.120100
-0.038676 0.008232 0.122100
-0.038549 0.008515 0.121700
-0.038486 0.008811 0.121500
-0.038422 0.009106 0.121300
-0.038359 0.009399 0.121100
-0.038327 0.009700 0.121000
-0.038232 0.009984 0.120700
-0.038201 0.010283 0.120600
-0.038137 0.010573 0.120400
-0.038042 0.010853 0.120100
-0.037979 0.011140 0.119900
-0.037947 0.011436 0.119800
-0.037852 0.011712 0.119500
-0.037789 0.011997 0.119300
-0.037725 0.012280 0.119100
-0.037662 0.012563 0.118900
-0.037599 0.012844 0.118700
-0.037535 0.013125 0.118500
-0.037472 0.013404 0.118300
-0.037409 0.013683 0.118100
-0.037345 0.013960 0.117900
-0.037282 0.014236 0.117700
-0.037219 0.014512 0.117500
-0.037187 0.014799 0.117400
-0.037187 0.015098 0.117400
-0.037124 0.015371 0.117200
-0.037124 0.015670 0.117200
-0.037092 0.015955 0.117100
-0.037060 0.016239 0.117000
-0.037060 0.016538 0.117000
-0.037060 0.016836 0.117000
-0.037029 0.017120 0.116900
-0.037029 0.017418 0.116900
-0.037029 0.017716 0.116900
-0.037029 0.018014 0.116900
-0.037029 0.018312 0.116900
-0.037029 0.018610 0.116900
-0.036997 0.018891 0.116800
-0.036997 0.019189 0.116800
-0.036965 0.019470 0.116700
-0.036965 0.019768 0.116700
-0.036965 0.020065 0.116700
-0.036965 0.020363 0.116700
-0.036965 0.020660 0.116700
-0.036997 0.020976 0.116800
-0.036997 0.021273 0.116800
-0.036997 0.021571 0.116800
-0.037029 0.021888 0.116900
-0.037029 0.022186 0.116900
-0.037029 0.022484 0.116900
-0.037060 0.022801 0.117000
-0.037092 0.023119 0.117100
-0.037124 0.023438 0.117200
-0.037187 0.023777 0.117400
-0.037219 0.024097 0.117500
-0.037282 0.024438 0.117700
-0.037345 0.024780 0.117900
-0.037409 0.025123 0.118100
-0.037472 0.025467 0.118300
-0.037535 0.025812 0.118500
-0.037599 0.026158 0.118700
-0.037662 0.026505 0.118900
-0.037694 0.026831 0.119000
-0.037757 0.027180 0.119200
-0.037821 0.027530 0.119400
-0.037821 0.027834 0.119400
-0.037884 0.028186 0.119600
-0.037916 0.028515 0.119700
-0.037979 0.028868 0.119900
-0.037979 0.029174 0.119900
-0.038042 0.029528 0.120100
-0.038892 0.008522 0.121800
-0.038796 0.008811 0.121500
-0.038796 0.009121 0.121500
-0.038732 0.009415 0.121300
-0.038668 0.009708 0.121100
-0.038605 0.010000 0.120900
-0.038573 0.010300 0.120800
-0.038509 0.010590 0.120600
-0.038445 0.010880 0.120400
-0.038381 0.011168 0.120200
-0.038285 0.011446 0.119900
-0.038253 0.011742 0.119800
-0.038189 0.012027 0.119600
-0.038126 0.012311 0.119400
-0.038062 0.012595 0.119200
-0.037966 0.012866 0.118900
-0.037902 0.013147 0.118700
-0.037838 0.013427 0.118500
-0.037774 0.013706 0.118300
-0.037710 0.013984 0.118100
-0.037647 0.014260 0.117900
-0.037615 0.014549 0.117800
-0.037583 0.014836 0.117700
-0.037519 0.015111 0.117500
-0.037487 0.015397 0.117400
-0.037487 0.015696 0.117400
-0.037455 0.015982 0.117300
-0.037423 0.016267 0.117200
-0.037423 0.016566 0.117200
-0.037391 0.016850 0.117100
-0.037391 0.017149 0.117100
-0.037359 0.017432 0.117000
-0.037359 0.017731 0.117000
-0.037359 0.018029 0.117000
-0.037359 0.018327 0.117000
-0.037359 0.018625 0.117000
-0.037327 0.018908 0.116900
-0.037327 0.019206 0.116900
-0.037327 0.019504 0.116900
-0.037327 0.019802 0.116900
-0.037327 0.020100 0.116900
-0.037327 0.020398 0.116900
-0.037327 0.020696 0.116900
-0.037327 0.020994 0.116900
-0.037327 0.021292 0.116900
-0.037327 0.021590 0.116900
-0.037359 0.021906 0.117000
-0.037359 0.022205 0.117000
-0.037391 0.022522 0.117100
-0.037423 0.022840 0.117200
-0.037423 0.023139 0.117200
-0.037487 0.023478 0.117400
-0.037519 0.023797 0.117500
-0.037583 0.024138 0.117700
-0.037647 0.024479 0.117900
-0.037710 0.024822 0.118100
-0.037774 0.025165 0.118300
-0.037838 0.025510 0.118500
-0.037902 0.025856 0.118700
-0.037966 0.026202 0.118900
-0.038030 0.026550 0.119100
-0.038062 0.026876 0.119200
-0.038126 0.027226 0.119400
-0.038158 0.027553 0.119500
-0.038189 0.027881 0.119600
-0.038253 0.028233 0.119800
-0.038253 0.028539 0.119800
-0.038317 0.028892 0.120000
-0.038349 0.029222 0.120100
-0.038381 0.029553 0.120200
-0.039203 0.008833 0.121800
-0.039107 0.009121 0.121500
-0.039107 0.009431 0.121500
-0.039042 0.009724 0.121300
-0.038978 0.010017 0.121100
-0.038946 0.010317 0.121000
-0.038913 0.010617 0.120900
-0.038849 0.010907 0.120700
-0.038785 0.011196 0.120500
-0.038720 0.011484 0.120300
-0.038624 0.011761 0.120000
-0.038559 0.012047 0.119800
-0.038495 0.012332 0.119600
-0.038431 0.012616 0.119400
-0.038366 0.012898 0.119200
-0.038270 0.013169 0.118900
-0.038205 0.013449 0.118700
-0.038141 0.013729 0.118500
-0.038077 0.014007 0.118300
-0.038044 0.014297 0.118200
-0.037980 0.014573 0.118000
-0.037916 0.014849 0.117800
-0.037884 0.015136 0.117700
-0.037884 0.015436 0.117700
-0.037819 0.015710 0.117500
-0.037819 0.016009 0.117500
-0.037787 0.016295 0.117400
-0.037787 0.016594 0.117400
-0.037755 0.016879 0.117300
-0.037723 0.017163 0.117200
-0.037723 0.017462 0.117200
-0.037723 0.017761 0.117200
-0.037723 0.018060 0.117200
-0.037690 0.018343 0.117100
-0.037690 0.018641 0.117100
-0.037690 0.018940 0.117100
-0.037658 0.019222 0.117000
-0.037658 0.019520 0.117000
-0.037658 0.019819 0.117000
-0.037658 0.020117 0.117000
-0.037658 0.020415 0.117000
-0.037658 0.020713 0.117000
-0.037658 0.021012 0.117000
-0.037658 0.021310 0.117000
-0.037690 0.021627 0.117100
-0.037723 0.021944 0.117200
-0.037723 0.022243 0.117200
-0.037755 0.022561 0.117300
-0.037787 0.022879 0.117400
-0.037819 0.023198 0.117500
-0.037851 0.023518 0.117600
-0.037916 0.023858 0.117800
-0.037948 0.024179 0.117900
-0.038012 0.024521 0.118100
-0.038077 0.024864 0.118300
-0.038141 0.025208 0.118500
-0.038205 0.025553 0.118700
-0.038270 0.025899 0.118900
-0.038334 0.026246 0.119100
-0.038399 0.026595 0.119300
-0.038431 0.026921 0.119400
-0.038495 0.027271 0.119600
-0.038559 0.027622 0.119800
-0.038592 0.027951 0.119900
-0.038592 0.028257 0.119900
-0.038656 0.028610 0.120100
-0.038688 0.028940 0.120200
-0.038720 0.029271 0.120300
-0.039514 0.008833 0.121800
-0.039482 0.009136 0.121700
-0.039450 0.009438 0.121600
-0.039417 0.009740 0.121500
-0.039385 0.010042 0.121400
-0.039320 0.010334 0.121200
-0.039287 0.010634 0.121100
-0.039222 0.010925 0.120900
-0.039158 0.011215 0.120700
-0.039093 0.011503 0.120500
-0.039028 0.011791 0.120300
-0.038963 0.012077 0.120100
-0.038866 0.012353 0.119800
-0.038801 0.012637 0.119600
-0.038736 0.012920 0.119400
-0.038671 0.013202 0.119200
-0.038574 0.013472 0.118900
-0.038509 0.013752 0.118700
-0.038444 0.014031 0.118500
-0.038379 0.014309 0.118300
-0.038346 0.014598 0.118200
-0.038314 0.014887 0.118100
-0.038282 0.015175 0.118000
-0.038217 0.015450 0.117800
-0.038217 0.015750 0.117800
-0.038184 0.016037 0.117700
-0.038152 0.016323 0.117600
-0.038119 0.016608 0.117500
-0.038119 0.016908 0.117500
-0.038087 0.017193 0.117400
-0.038087 0.017492 0.117400
-0.038087 0.017791 0.117400
-0.038087 0.018091 0.117400
-0.038087 0.018390 0.117400
-0.038054 0.018673 0.117300
-0.038054 0.018972 0.117300
-0.038022 0.019255 0.117200
-0.038022 0.019554 0.117200
-0.038022 0.019852 0.117200
-0.038022 0.020151 0.117200
-0.038022 0.020450 0.117200
-0.038022 0.020749 0.117200
-0.038022 0.021047 0.117200
-0.038022 0.021346 0.117200
-0.038054 0.021663 0.117300
-0.038087 0.021981 0.117400
-0.038087 0.022280 0.117400
-0.038119 0.022599 0.117500
-0.038152 0.022918 0.117600
-0.038184 0.023238 0.117700
-0.038217 0.023558 0.117800
-0.038282 0.023898 0.118000
-0.038346 0.024240 0.118200
-0.038379 0.024562 0.118300
-0.038444 0.024906 0.118500
-0.038509 0.025251 0.118700
-0.038574 0.025596 0.118900
-0.038638 0.025943 0.119100
-0.038703 0.026291 0.119300
-0.038768 0.026639 0.119500
-0.038833 0.026989 0.119700
-0.038866 0.027317 0.119800
-0.038898 0.027645 0.119900
-0.038963 0.027998 0.120100
-0.039028 0.028351 0.120300
-0.039060 0.028681 0.120400
-0.039093 0.029012 0.120500
-0.039924 0.009166 0.122100
-0.039891 0.009469 0.122000
-0.039858 0.009772 0.121900
-0.039760 0.010058 0.121600
-0.039728 0.010360 0.121500
-0.039662 0.010652 0.121300
-0.039597 0.010943 0.121100
-0.039531 0.011233 0.120900
-0.039466 0.011522 0.120700
-0.039401 0.011810 0.120500
-0.039335 0.012097 0.120300
-0.039270 0.012383 0.120100
-0.039204 0.012668 0.119900
-0.039106 0.012942 0.119600
-0.039041 0.013224 0.119400
-0.038975 0.013506 0.119200
-0.038910 0.013787 0.119000
-0.038845 0.014066 0.118800
-0.038779 0.014345 0.118600
-0.038714 0.014623 0.118400
-0.038681 0.014912 0.118300
-0.038648 0.015201 0.118200
-0.038583 0.015476 0.118000
-0.038583 0.015777 0.118000
-0.038518 0.016050 0.117800
-0.038518 0.016350 0.117800
-0.038485 0.016637 0.117700
-0.038485 0.016937 0.117700
-0.038452 0.017222 0.117600
-0.038452 0.017522 0.117600
-0.038420 0.017806 0.117500
-0.038420 0.018106 0.117500
-0.038420 0.018406 0.117500
-0.038420 0.018705 0.117500
-0.038387 0.018988 0.117400
-0.038387 0.019288 0.117400
-0.038387 0.019587 0.117400
-0.038387 0.019886 0.117400
-0.038387 0.020186 0.117400
-0.038387 0.020485 0.117400
-0.038387 0.020784 0.117400
-0.038387 0.021083 0.117400
-0.038420 0.021401 0.117500
-0.038420 0.021700 0.117500
-0.038420 0.022000 0.117500
-0.038485 0.022337 0.117700
-0.038485 0.022637 0.117700
-0.038518 0.022957 0.117800
-0.038550 0.023277 0.117900
-0.038583 0.023598 0.118000
-0.038648 0.023939 0.118200
-0.038681 0.024261 0.118300
-0.038747 0.024604 0.118500
-0.038812 0.024948 0.118700
-0.038877 0.025293 0.118900
-0.038943 0.025639 0.119100
-0.039008 0.025986 0.119300
-0.039074 0.026335 0.119500
-0.039139 0.026684 0.119700
-0.039172 0.027012 0.119800
-0.039204 0.027340 0.119900
-0.039270 0.027691 0.120100
-0.039335 0.028044 0.120300
-0.039433 0.028422 0.120600
-0.039466 0.028753 0.120700
-0.040302 0.009493 0.122300
-0.040269 0.009796 0.122200
-0.040170 0.010083 0.121900
-0.040104 0.010377 0.121700
-0.040038 0.010669 0.121500
-0.040005 0.010970 0.121400
-0.039939 0.011261 0.121200
-0.039873 0.011551 0.121000
-0.039774 0.011830 0.120700
-0.039708 0.012118 0.120500
-0.039643 0.012404 0.120300
-0.039577 0.012690 0.120100
-0.039511 0.012974 0.119900
-0.039445 0.013258 0.119700
-0.039346 0.013529 0.119400
-0.039280 0.013810 0.119200
-0.039214 0.014090 0.119000
-0.039181 0.014381 0.118900
-0.039115 0.014660 0.118700
-0.039049 0.014937 0.118500
-0.039016 0.015226 0.118400
-0.038983 0.015515 0.118300
-0.038951 0.015803 0.118200
-0.038918 0.016091 0.118100
-0.038885 0.016378 0.118000
-0.038852 0.016665 0.117900
-0.038819 0.016951 0.117800
-0.038819 0.017251 0.117800
-0.038819 0.017552 0.117800
-0.038786 0.017837 0.117700
-0.038786 0.018137 0.117700
-0.038786 0.018437 0.117700
-0.038786 0.018737 0.117700
-0.038786 0.019037 0.117700
-0.038786 0.019337 0.117700
-0.038786 0.019637 0.117700
-0.038753 0.019920 0.117600
-0.038753 0.020220 0.117600
-0.038753 0.020520 0.117600
-0.038753 0.020820 0.117600
-0.038753 0.021119 0.117600
-0.038786 0.021437 0.117700
-0.038786 0.021737 0.117700
-0.038819 0.022056 0.117800
-0.038819 0.022356 0.117800
-0.038852 0.022676 0.117900
-0.038885 0.022996 0.118000
-0.038951 0.023336 0.118200
-0.038983 0.023658 0.118300
-0.039049 0.024000 0.118500
-0.039082 0.024322 0.118600
-0.039148 0.024666 0.118800
-0.039214 0.025011 0.119000
-0.039280 0.025357 0.119200
-0.039346 0.025704 0.119400
-0.039379 0.026030 0.119500
-0.039445 0.026379 0.119700
-0.039511 0.026728 0.119900
-0.039544 0.027057 0.120000
-0.039577 0.027385 0.120100
-0.039643 0.027738 0.120300
-0.039774 0.028138 0.120700
-0.039840 0.028492 0.120900
-0.039873 0.028824 0.121000
-0.040714 0.009516 0.122600
-0.040681 0.009820 0.122500
-0.040614 0.010116 0.122300
-0.040514 0.010402 0.122000
-0.040448 0.010696 0.121800
-0.040348 0.010979 0.121500
-0.040348 0.011289 0.121500
-0.040249 0.011570 0.121200
-0.040182 0.011859 0.121000
-0.040116 0.012148 0.120800
-0.040050 0.012435 0.120600
-0.039950 0.012711 0.120300
-0.039884 0.012996 0.120100
-0.039817 0.013280 0.119900
-0.039784 0.013574 0.119800
-0.039717 0.013856 0.119600
-0.039651 0.014138 0.119400
-0.039585 0.014418 0.119200
-0.039518 0.014697 0.119000
-0.039485 0.014988 0.118900
-0.039419 0.015265 0.118700
-0.039385 0.015554 0.118600
-0.039352 0.015843 0.118500
-0.039286 0.016118 0.118300
-0.039253 0.016406 0.118200
-0.039253 0.016707 0.118200
-0.039219 0.016994 0.118100
-0.039186 0.017281 0.118000
-0.039186 0.017581 0.118000
-0.039186 0.017882 0.118000
-0.039186 0.018183 0.118000
-0.039153 0.018468 0.117900
-0.039153 0.018769 0.117900
-0.039153 0.019069 0.117900
-0.039120 0.019353 0.117800
-0.039120 0.019654 0.117800
-0.039120 0.019954 0.117800
-0.039120 0.020254 0.117800
-0.039120 0.020555 0.117800
-0.039120 0.020855 0.117800
-0.039120 0.021155 0.117800
-0.039153 0.021474 0.117900
-0.039186 0.021793 0.118000
-0.039186 0.022094 0.118000
-0.039219 0.022413 0.118100
-0.039253 0.022734 0.118200
-0.039286 0.023054 0.118300
-0.039319 0.023376 0.118400
-0.039352 0.023698 0.118500
-0.039419 0.024040 0.118700
-0.039485 0.024384 0.118900
-0.039518 0.024708 0.119000
-0.039585 0.025053 0.119200
-0.039651 0.025399 0.119400
-0.039717 0.025747 0.119600
-0.039784 0.026095 0.119800
-0.039817 0.026423 0.119900
-0.039884 0.026773 0.120100
-0.039950 0.027124 0.120300
-0.039950 0.027431 0.120300
-0.040016 0.027784 0.120500
-0.040149 0.028184 0.120900
-0.040216 0.028539 0.121100
-0.041060 0.009836 0.122700
-0.040994 0.010133 0.122500
-0.040927 0.010428 0.122300
-0.040826 0.010713 0.122000
-0.040759 0.011006 0.121800
-0.040692 0.011298 0.121600
-0.040659 0.011599 0.121500
-0.040592 0.011889 0.121300
-0.040525 0.012178 0.121100
-0.040458 0.012466 0.120900
-0.040358 0.012742 0.120600
-0.040291 0.013028 0.120400
-0.040224 0.013313 0.120200
-0.040157 0.013597 0.120000
-0.040090 0.013879 0.119800
-0.040023 0.014161 0.119600
-0.039956 0.014442 0.119400
-0.039923 0.014734 0.119300
-0.039856 0.015013 0.119100
-0.039822 0.015304 0.119000
-0.039789 0.015594 0.118900
-0.039722 0.015870 0.118700
-0.039688 0.016159 0.118600
-0.039655 0.016448 0.118500
-0.039621 0.016736 0.118400
-0.039588 0.017023 0.118300
-0.039588 0.017325 0.118300
-0.039555 0.017611 0.118200
-0.039555 0.017913 0.118200
-0.039555 0.018214 0.118200
-0.039555 0.018515 0.118200
-0.039555 0.018817 0.118200
-0.039521 0.019102 0.118100
-0.039521 0.019403 0.118100
-0.039521 0.019704 0.118100
-0.039521 0.020005 0.118100
-0.039521 0.020306 0.118100
-0.039521 0.020607 0.118100
-0.039521 0.020908 0.118100
-0.039521 0.021209 0.118100
-0.039555 0.021528 0.118200
-0.039555 0.021830 0.118200
-0.039555 0.022131 0.118200
-0.039588 0.022451 0.118300
-0.039621 0.022772 0.118400
-0.039655 0.023093 0.118500
-0.039722 0.023435 0.118700
-0.039755 0.023758 0.118800
-0.039822 0.024101 0.119000
-0.039856 0.024425 0.119100
-0.039923 0.024770 0.119300
-0.039956 0.025095 0.119400
-0.040023 0.025442 0.119600
-0.040090 0.025790 0.119800
-0.040123 0.026117 0.119900
-0.040190 0.026467 0.120100
-0.040257 0.026818 0.120300
-0.040324 0.027169 0.120500
-0.040324 0.027477 0.120500
-0.040391 0.027830 0.120700
-0.040525 0.028231 0.121100
-0.040592 0.028587 0.121300
-0.041374 0.010149 0.122700
-0.041307 0.010445 0.122500
-0.041205 0.010731 0.122200
-0.041138 0.011024 0.122000
-0.041070 0.011317 0.121800
-0.041003 0.011608 0.121600
-0.040969 0.011908 0.121500
-0.040902 0.012198 0.121300
-0.040834 0.012487 0.121100
-0.040767 0.012774 0.120900
-0.040700 0.013061 0.120700
-0.040632 0.013346 0.120500
-0.040565 0.013631 0.120300
-0.040497 0.013914 0.120100
-0.040430 0.014197 0.119900
-0.040396 0.014490 0.119800
-0.040329 0.014771 0.119600
-0.040261 0.015051 0.119400
-0.040194 0.015329 0.119200
-0.040160 0.015620 0.119100
-0.040126 0.015910 0.119000
-0.040093 0.016200 0.118900
-0.040059 0.016489 0.118800
-0.040025 0.016778 0.118700
-0.039991 0.017066 0.118600
-0.039958 0.017354 0.118500
-0.039958 0.017656 0.118500
-0.039924 0.017943 0.118400
-0.039924 0.018245 0.118400
-0.039924 0.018547 0.118400
-0.039890 0.018832 0.118300
-0.039890 0.019134 0.118300
-0.039890 0.019436 0.118300
-0.039890 0.019737 0.118300
-0.039890 0.020039 0.118300
-0.039890 0.020340 0.118300
-0.039890 0.020642 0.118300
-0.039890 0.020943 0.118300
-0.039890 0.021245 0.118300
-0.039890 0.021547 0.118300
-0.039924 0.021867 0.118400
-0.039958 0.022187 0.118500
-0.039991 0.022508 0.118600
-0.040025 0.022830 0.118700
-0.040059 0.023152 0.118800
-0.040093 0.023474 0.118900
-0.040160 0.023818 0.119100
-0.040194 0.024141 0.119200
-0.040261 0.024486 0.119400
-0.040329 0.024832 0.119600
-0.040362 0.025158 0.119700
-0.040396 0.025485 0.119800
-0.040464 0.025833 0.120000
-0.040497 0.026161 0.120100
-0.040565 0.026511 0.120300
-0.040632 0.026862 0.120500
-0.040700 0.027214 0.120700
-0.040700 0.027522 0.120700
-0.040767 0.027876 0.120900
-0.040902 0.028277 0.121300
-0.041003 0.028657 0.121600
-0.041823 0.010182 0.123100
-0.041721 0.010471 0.122800
-0.041620 0.010757 0.122500
-0.041518 0.011042 0.122200
-0.041450 0.011335 0.122000
-0.041416 0.011637 0.121900
-0.041348 0.011928 0.121700
-0.041280 0.012218 0.121500
-0.041212 0.012507 0.121300
-0.041144 0.012795 0.121100
-0.041076 0.013082 0.120900
-0.041008 0.013368 0.120700
-0.040940 0.013653 0.120500
-0.040872 0.013937 0.120300
-0.040838 0.014232 0.120200
-0.040770 0.014514 0.120000
-0.040702 0.014796 0.119800
-0.040668 0.015088 0.119700
-0.040634 0.015381 0.119600
-0.040566 0.015659 0.119400
-0.040498 0.015937 0.119200
-0.040464 0.016227 0.119100
-0.040430 0.016517 0.119000
-0.040396 0.016806 0.118900
-0.040396 0.017109 0.118900
-0.040362 0.017398 0.118800
-0.040328 0.017686 0.118700
-0.040328 0.017988 0.118700
-0.040328 0.018291 0.118700
-0.040328 0.018594 0.118700
-0.040328 0.018896 0.118700
-0.040294 0.019183 0.118600
-0.040294 0.019485 0.118600
-0.040294 0.019787 0.118600
-0.040294 0.020090 0.118600
-0.040294 0.020392 0.118600
-0.040294 0.020694 0.118600
-0.040294 0.020997 0.118600
-0.040294 0.021299 0.118600
-0.040328 0.021619 0.118700
-0.040328 0.021922 0.118700
-0.040362 0.022243 0.118800
-0.040396 0.022565 0.118900
-0.040430 0.022888 0.119000
-0.040430 0.023191 0.119000
-0.040498 0.023534 0.119200
-0.040566 0.023878 0.119400
-0.040600 0.024202 0.119500
-0.040634 0.024527 0.119600
-0.040702 0.024874 0.119800
-0.040736 0.025200 0.119900
-0.040804 0.025548 0.120100
-0.040838 0.025876 0.120200
-0.040906 0.026226 0.120400
-0.040974 0.026577 0.120600
-0.041008 0.026907 0.120700
-0.041042 0.027237 0.120800
-0.041076 0.027568 0.120900
-0.041144 0.027922 0.121100
-0.041314 0.028347 0.121600
-0.042172 0.010505 0.123200
-0.042069 0.010792 0.122900
-0.041967 0.011079 0.122600
-0.041898 0.011373 0.122400
-0.041796 0.011656 0.122100
-0.041761 0.011957 0.122000
-0.041693 0.012248 0.121800
-0.041624 0.012538 0.121600
-0.041556 0.012827 0.121400
-0.041488 0.013115 0.121200
-0.041453 0.013413 0.121100
-0.041385 0.013699 0.120900
-0.041316 0.013984 0.120700
-0.041248 0.014268 0.120500
-0.041179 0.014551 0.120300
-0.041111 0.014833 0.120100
-0.041043 0.015114 0.119900
-0.041008 0.015406 0.119800
-0.040940 0.015686 0.119600
-0.040906 0.015977 0.119500
-0.040871 0.016268 0.119400
-0.040837 0.016559 0.119300
-0.040803 0.016849 0.119200
-0.040769 0.017138 0.119100
-0.040734 0.017427 0.119000
-0.040734 0.017730 0.119000
-0.040700 0.018019 0.118900
-0.040700 0.018322 0.118900
-0.040700 0.018625 0.118900
-0.040700 0.018928 0.118900
-0.040700 0.019231 0.118900
-0.040700 0.019534 0.118900
-0.040700 0.019837 0.118900
-0.040700 0.020140 0.118900
-0.040700 0.020443 0.118900
-0.040700 0.020747 0.118900
-0.040700 0.021050 0.118900
-0.040700 0.021353 0.118900
-0.040700 0.021656 0.118900
-0.040734 0.021977 0.119000
-0.040734 0.022281 0.119000
-0.040769 0.022603 0.119100
-0.040803 0.022926 0.119200
-0.040837 0.023249 0.119300
-0.040871 0.023573 0.119400
-0.040940 0.023918 0.119600
-0.040974 0.024243 0.119700
-0.041043 0.024589 0.119900
-0.041077 0.024915 0.120000
-0.041111 0.025242 0.120100
-0.041179 0.025591 0.120300
-0.041214 0.025919 0.120400
-0.041282 0.026270 0.120600
-0.041351 0.026621 0.120800
-0.041385 0.026951 0.120900
-0.041419 0.027282 0.121000
-0.041453 0.027613 0.121100
-0.041522 0.027968 0.121300
-0.042521 0.010827 0.123300
-0.042383 0.011106 0.122900
-0.042280 0.011391 0.122600
-0.042211 0.011685 0.122400
-0.042177 0.011987 0.122300
-0.042108 0.012278 0.122100
-0.042039 0.012569 0.121900
-0.041970 0.012859 0.121700
-0.041901 0.013147 0.121500
-0.041832 0.013435 0.121300
-0.041763 0.013721 0.121100
-0.041694 0.014007 0.120900
-0.041625 0.014291 0.120700
-0.041556 0.014575 0.120500
-0.041487 0.014857 0.120300
-0.041452 0.015151 0.120200
-0.041383 0.015432 0.120000
-0.041349 0.015725 0.119900
-0.041314 0.016017 0.119800
-0.041245 0.016295 0.119600
-0.041245 0.016600 0.119600
-0.041176 0.016877 0.119400
-0.041176 0.017181 0.119400
-0.041142 0.017471 0.119300
-0.041108 0.017760 0.119200
-0.041108 0.018064 0.119200
-0.041108 0.018368 0.119200
-0.041108 0.018672 0.119200
-0.041073 0.018960 0.119100
-0.041073 0.019263 0.119100
-0.041073 0.019567 0.119100
-0.041073 0.019871 0.119100
-0.041073 0.020174 0.119100
-0.041073 0.020478 0.119100
-0.041073 0.020781 0.119100
-0.041073 0.021085 0.119100
-0.041108 0.021407 0.119200
-0.041108 0.021711 0.119200
-0.041108 0.022014 0.119200
-0.041142 0.022337 0.119300
-0.041176 0.022660 0.119400
-0.041211 0.022984 0.119500
-0.041245 0.023308 0.119600
-0.041280 0.023632 0.119700
-0.041314 0.023958 0.119800
-0.041349 0.024283 0.119900
-0.041418 0.024630 0.120100
-0.041452 0.024957 0.120200
-0.041487 0.025284 0.120300
-0.041556 0.025633 0.120500
-0.041625 0.025984 0.120700
-0.041659 0.026313 0.120800
-0.041728 0.026665 0.121000
-0.041763 0.026996 0.121100
-0.041832 0.027350 0.121300
-0.041832 0.027659 0.121300
-0.041901 0.028014 0.121500
-0.042975 0.010863 0.123700
-0.042836 0.011142 0.123300
-0.042732 0.011428 0.123000
-0.042628 0.011713 0.122700
-0.042559 0.012006 0.122500
-0.042489 0.012299 0.122300
-0.042454 0.012600 0.122200
-0.042385 0.012890 0.122000
-0.042315 0.013180 0.121800
-0.042246 0.013468 0.121600
-0.042176 0.013755 0.121400
-0.042107 0.014042 0.121200
-0.042037 0.014327 0.121000
-0.041968 0.014611 0.120800
-0.041898 0.014894 0.120600
-0.041864 0.015189 0.120500
-0.041794 0.015471 0.120300
-0.041725 0.015751 0.120100
-0.041690 0.016044 0.120000
-0.041655 0.016336 0.119900
-0.041621 0.016628 0.119800
-0.041586 0.016919 0.119700
-0.041551 0.017210 0.119600
-0.041516 0.017500 0.119500
-0.041516 0.017805 0.119500
-0.041482 0.018094 0.119400
-0.041482 0.018399 0.119400
-0.041482 0.018703 0.119400
-0.041482 0.019008 0.119400
-0.041482 0.019312 0.119400
-0.041482 0.019616 0.119400
-0.041482 0.019921 0.119400
-0.041482 0.020225 0.119400
-0.041482 0.020529 0.119400
-0.041482 0.020834 0.119400
-0.041482 0.021138 0.119400
-0.041482 0.021443 0.119400
-0.041482 0.021747 0.119400
-0.041482 0.022051 0.119400
-0.041551 0.022393 0.119600
-0.041551 0.022698 0.119600
-0.041586 0.023022 0.119700
-0.041621 0.023347 0.119800
-0.041655 0.023672 0.119900
-0.041690 0.023998 0.120000
-0.041725 0.024324 0.120100
-0.041794 0.024671 0.120300
-0.041829 0.024998 0.120400
-0.041864 0.025326 0.120500
-0.041933 0.025676 0.120700
-0.042003 0.026027 0.120900
-0.042037 0.026357 0.121000
-0.042072 0.026687 0.121100
-0.042142 0.027041 0.121300
-0.042176 0.027372 0.121400
-0.042211 0.027705 0.121500
-0.043257 0.011169 0.123600
-0.043152 0.011456 0.123300
-0.043047 0.011742 0.123000
-0.042977 0.012036 0.122800
-0.042907 0.012329 0.122600
-0.042837 0.012621 0.122400
-0.042802 0.012922 0.122300
-0.042697 0.013201 0.122000
-0.042627 0.013490 0.121800
-0.042557 0.013778 0.121600
-0.042522 0.014076 0.121500
-0.042452 0.014362 0.121300
-0.042382 0.014648 0.121100
-0.042312 0.014932 0.120900
-0.042242 0.015215 0.120700
-0.042172 0.015496 0.120500
-0.042137 0.015791 0.120400
-0.042102 0.016084 0.120300
-0.042032 0.016364 0.120100
-0.041997 0.016656 0.120000
-0.041962 0.016948 0.119900
-0.041927 0.017239 0.119800
-0.041927 0.017544 0.119800
-0.041927 0.017850 0.119800
-0.041892 0.018140 0.119700
-0.041857 0.018430 0.119600
-0.041857 0.018735 0.119600
-0.041857 0.019039 0.119600
-0.041857 0.019344 0.119600
-0.041857 0.019649 0.119600
-0.041857 0.019954 0.119600
-0.041857 0.020259 0.119600
-0.041857 0.020564 0.119600
-0.041857 0.020869 0.119600
-0.041857 0.021174 0.119600
-0.041857 0.021478 0.119600
-0.041892 0.021802 0.119700
-0.041892 0.022107 0.119700
-0.041927 0.022431 0.119800
-0.041962 0.022755 0.119900
-0.041962 0.023061 0.119900
-0.041997 0.023386 0.120000
-0.042032 0.023711 0.120100
-0.042102 0.024058 0.120300
-0.042102 0.024364 0.120300
-0.042172 0.024712 0.120500
-0.042207 0.025040 0.120600
-0.042242 0.025368 0.120700
-0.042312 0.025719 0.120900
-0.042312 0.026027 0.120900
-0.042382 0.026379 0.121100
-0.042452 0.026731 0.121300
-0.042522 0.027085 0.121500
-0.042522 0.027395 0.121500
-0.043537 0.011475 0.123500
-0.043467 0.011770 0.123300
-0.043361 0.012055 0.123000
-0.043326 0.012359 0.122900
-0.043255 0.012652 0.122700
-0.043185 0.012943 0.122500
-0.043114 0.013234 0.122300
-0.043044 0.013523 0.122100
-0.042973 0.013812 0.121900
-0.042903 0.014100 0.121700
-0.042832 0.014386 0.121500
-0.042797 0.014684 0.121400
-0.042726 0.014969 0.121200
-0.042656 0.015252 0.121000
-0.042621 0.015548 0.120900
-0.042550 0.015830 0.120700
-0.042480 0.016111 0.120500
-0.042444 0.016404 0.120400
-0.042409 0.016697 0.120300
-0.042374 0.016990 0.120200
-0.042339 0.017282 0.120100
-0.042303 0.017574 0.120000
-0.042268 0.017865 0.119900
-0.042268 0.018170 0.119900
-0.042268 0.018476 0.119900
-0.042268 0.018781 0.119900
-0.042268 0.019087 0.119900
-0.042268 0.019393 0.119900
-0.042268 0.019698 0.119900
-0.042268 0.020004 0.119900
-0.042268 0.020310 0.119900
-0.042268 0.020615 0.119900
-0.042268 0.020921 0.119900
-0.042268 0.021227 0.119900
-0.042268 0.021532 0.119900
-0.042268 0.021838 0.119900
-0.042268 0.022144 0.119900
-0.042303 0.022468 0.120000
-0.042339 0.022793 0.120100
-0.042339 0.023099 0.120100
-0.042409 0.023444 0.120300
-0.042409 0.023751 0.120300
-0.042480 0.024098 0.120500
-0.042480 0.024405 0.120500
-0.042550 0.024753 0.120700
-0.042550 0.025061 0.120700
-0.042621 0.025410 0.120900
-0.042656 0.025740 0.121000
-0.042691 0.026070 0.121100
-0.042762 0.026422 0.121300
-0.042832 0.026775 0.121500
-0.042867 0.027107 0.121600
-0.042867 0.027417 0.121600
-0.043853 0.011790 0.123500
-0.043782 0.012085 0.123300
-0.043711 0.012379 0.123100
-0.043604 0.012662 0.122800
-0.043533 0.012954 0.122600
-0.043498 0.013255 0.122500
-0.043462 0.013557 0.122400
-0.043356 0.013835 0.122100
-0.043320 0.014134 0.122000
-0.043249 0.014422 0.121800
-0.043178 0.014708 0.121600
-0.043142 0.015006 0.121500
-0.043071 0.015290 0.121300
-0.043000 0.015574 0.121100
-0.042965 0.015869 0.121000
-0.042929 0.016164 0.120900
-0.042858 0.016445 0.120700
-0.042823 0.016739 0.120600
-0.042787 0.017032 0.120500
-0.042752 0.017325 0.120400
-0.042716 0.017617 0.120300
-0.042681 0.017909 0.120200
-0.042681 0.018216 0.120200
-0.042645 0.018507 0.120100
-0.042645 0.018813 0.120100
-0.042645 0.019119 0.120100
-0.042645 0.019425 0.120100
-0.042645 0.019731 0.120100
-0.042645 0.020037 0.120100
-0.042645 0.020344 0.120100
-0.042645 0.020650 0.120100
-0.042645 0.020956 0.120100
-0.042645 0.021262 0.120100
-0.042645 0.021568 0.120100
-0.042645 0.021874 0.120100
-0.042645 0.022181 0.120100
-0.042681 0.022505 0.120200
-0.042716 0.022831 0.120300
-0.042716 0.023138 0.120300
-0.042787 0.023483 0.120500
-0.042787 0.023790 0.120500
-0.042823 0.024118 0.120600
-0.042858 0.024445 0.120700
-0.042894 0.024773 0.120800
-0.042929 0.025102 0.120900
-0.042965 0.025431 0.121000
-0.043036 0.025782 0.121200
-0.043071 0.026113 0.121300
-0.043142 0.026466 0.121500
-0.043178 0.026797 0.121600
-0.043249 0.027152 0.121800
-0.044240 0.011809 0.123700
-0.044132 0.012095 0.123400
-0.044061 0.012389 0.123200
-0.043989 0.012682 0.123000
-0.043954 0.012985 0.122900
-0.043882 0.013277 0.122700
-0.043846 0.013579 0.122600
-0.043775 0.013869 0.122400
-0.043739 0.014169 0.122300
-0.043632 0.014445 0.122000
-0.043596 0.014744 0.121900
-0.043560 0.015043 0.121800
-0.043489 0.015328 0.121600
-0.043453 0.015625 0.121500
-0.043381 0.015909 0.121300
-0.043310 0.016191 0.121100
-0.043274 0.016486 0.121000
-0.043238 0.016781 0.120900
-0.043167 0.017061 0.120700
-0.043167 0.017368 0.120700
-0.043131 0.017661 0.120600
-0.043095 0.017954 0.120500
-0.043095 0.018261 0.120500
-0.043060 0.018553 0.120400
-0.043060 0.018860 0.120400
-0.043060 0.019167 0.120400
-0.043024 0.019457 0.120300
-0.043024 0.019764 0.120300
-0.043024 0.020071 0.120300
-0.043024 0.020378 0.120300
-0.043024 0.020684 0.120300
-0.043024 0.020991 0.120300
-0.043024 0.021298 0.120300
-0.043024 0.021604 0.120300
-0.043024 0.021911 0.120300
-0.043060 0.022236 0.120400
-0.043095 0.022562 0.120500
-0.043095 0.022869 0.120500
-0.043095 0.023176 0.120500
-0.043131 0.023503 0.120600
-0.043167 0.023830 0.120700
-0.043203 0.024158 0.120800
-0.043238 0.024486 0.120900
-0.043238 0.024794 0.120900
-0.043310 0.025144 0.121100
-0.043346 0.025473 0.121200
-0.043417 0.025825 0.121400
-0.043453 0.026156 0.121500
-0.043524 0.026509 0.121700
-0.043560 0.026841 0.121800
-0.043596 0.027174 0.121900
-0.044484 0.012104 0.123500
-0.044448 0.012409 0.123400
-0.044412 0.012713 0.123300
-0.044340 0.013007 0.123100
-0.044304 0.013310 0.123000
-0.044232 0.013601 0.122800
-0.044160 0.013891 0.122600
-0.044124 0.014192 0.122500
-0.044052 0.014481 0.122300
-0.044016 0.014781 0.122200
-0.043943 0.015067 0.122000
-0.043871 0.015353 0.121800
-0.043835 0.015651 0.121700
-0.043799 0.015948 0.121600
-0.043727 0.016231 0.121400
-0.043691 0.016527 0.121300
-0.043619 0.016808 0.121100
-0.043583 0.017103 0.121000
-0.043547 0.017397 0.120900
-0.043547 0.017705 0.120900
-0.043511 0.017999 0.120800
-0.043475 0.018291 0.120700
-0.043475 0.018599 0.120700
-0.043475 0.018907 0.120700
-0.043475 0.019214 0.120700
-0.043439 0.019506 0.120600
-0.043439 0.019813 0.120600
-0.043403 0.020104 0.120500
-0.043403 0.020411 0.120500
-0.043403 0.020719 0.120500
-0.043403 0.021026 0.120500
-0.043403 0.021333 0.120500
-0.043403 0.021640 0.120500
-0.043439 0.021965 0.120600
-0.043439 0.022273 0.120600
-0.043475 0.022599 0.120700
-0.043475 0.022907 0.120700
-0.043511 0.023234 0.120800
-0.043547 0.023561 0.120900
-0.043547 0.023869 0.120900
-0.043583 0.024198 0.121000
-0.043619 0.024526 0.121100
-0.043655 0.024855 0.121200
-0.043691 0.025185 0.121300
-0.043727 0.025515 0.121400
-0.043763 0.025846 0.121500
-0.043799 0.026177 0.121600
-0.043907 0.026553 0.121900
-0.043943 0.026886 0.122000
-0.044799 0.012419 0.123500
-0.044763 0.012724 0.123400
-0.044727 0.013028 0.123300
-0.044654 0.013320 0.123100
-0.044618 0.013623 0.123000
-0.044545 0.013914 0.122800
-0.044509 0.014215 0.122700
-0.044437 0.014505 0.122500
-0.044400 0.014805 0.122400
-0.044364 0.015104 0.122300
-0.044292 0.015391 0.122100
-0.044255 0.015689 0.122000
-0.044183 0.015974 0.121800
-0.044110 0.016258 0.121600
-0.044074 0.016554 0.121500
-0.044038 0.016850 0.121400
-0.044001 0.017145 0.121300
-0.043965 0.017440 0.121200
-0.043929 0.017735 0.121100
-0.043892 0.018028 0.121000
-0.043892 0.018337 0.121000
-0.043856 0.018630 0.120900
-0.043856 0.018938 0.120900
-0.043856 0.019246 0.120900
-0.043856 0.019555 0.120900
-0.043820 0.019846 0.120800
-0.043820 0.020154 0.120800
-0.043820 0.020462 0.120800
-0.043820 0.020770 0.120800
-0.043820 0.021078 0.120800
-0.043820 0.021386 0.120800
-0.043820 0.021694 0.120800
-0.043820 0.022002 0.120800
-0.043820 0.022310 0.120800
-0.043856 0.022637 0.120900
-0.043856 0.022945 0.120900
-0.043892 0.023272 0.121000
-0.043929 0.023600 0.121100
-0.043929 0.023909 0.121100
-0.043965 0.024238 0.121200
-0.044001 0.024567 0.121300
-0.044038 0.024896 0.121400
-0.044074 0.025227 0.121500
-0.044074 0.025536 0.121500
-0.044183 0.025910 0.121800
-0.044183 0.026220 0.121800
-0.044292 0.026596 0.122100
-0.044364 0.026952 0.122300
-0.045151 0.012429 0.123600
-0.045115 0.012734 0.123500
-0.045078 0.013038 0.123400
-0.045005 0.013331 0.123200
-0.044969 0.013634 0.123100
-0.044932 0.013937 0.123000
-0.044896 0.014239 0.122900
-0.044859 0.014540 0.122800
-0.044823 0.014841 0.122700
-0.044750 0.015129 0.122500
-0.044713 0.015429 0.122400
-0.044640 0.015715 0.122200
-0.044567 0.016000 0.122000
-0.044530 0.016298 0.121900
-0.044494 0.016595 0.121800
-0.044421 0.016878 0.121600
-0.044384 0.017174 0.121500
-0.044384 0.017483 0.121500
-0.044311 0.017764 0.121300
-0.044311 0.018073 0.121300
-0.044275 0.018367 0.121200
-0.044275 0.018676 0.121200
-0.044275 0.018985 0.121200
-0.044238 0.019278 0.121100
-0.044238 0.019587 0.121100
-0.044238 0.019896 0.121100
-0.044202 0.020188 0.121000
-0.044202 0.020496 0.121000
-0.044202 0.020805 0.121000
-0.044202 0.021113 0.121000
-0.044202 0.021421 0.121000
-0.044202 0.021730 0.121000
-0.044202 0.022038 0.121000
-0.044238 0.022365 0.121100
-0.044238 0.022674 0.121100
-0.044238 0.022983 0.121100
-0.044275 0.023311 0.121200
-0.044311 0.023639 0.121300
-0.044348 0.023968 0.121400
-0.044384 0.024298 0.121500
-0.044384 0.024607 0.121500
-0.044421 0.024937 0.121600
-0.044457 0.025268 0.121700
-0.044494 0.025599 0.121800
-0.044530 0.025931 0.121900
-0.044603 0.026285 0.122100
-0.044677 0.026640 0.122300
-0.045430 0.012734 0.123500
-0.045394 0.013038 0.123400
-0.045394 0.013353 0.123400
-0.045357 0.013656 0.123300
-0.045283 0.013948 0.123100
-0.045283 0.014262 0.123100
-0.045247 0.014564 0.123000
-0.045210 0.014865 0.122900
-0.045136 0.015154 0.122700
-0.045099 0.015454 0.122600
-0.045063 0.015754 0.122500
-0.044989 0.016040 0.122300
-0.044952 0.016338 0.122200
-0.044879 0.016622 0.122000
-0.044842 0.016920 0.121900
-0.044805 0.017216 0.121800
-0.044732 0.017498 0.121600
-0.044732 0.017808 0.121600
-0.044695 0.018103 0.121500
-0.044695 0.018413 0.121500
-0.044658 0.018707 0.121400
-0.044658 0.019016 0.121400
-0.044658 0.019326 0.121400
-0.044621 0.019619 0.121300
-0.044621 0.019928 0.121300
-0.044621 0.020238 0.121300
-0.044621 0.020547 0.121300
-0.044621 0.020856 0.121300
-0.044621 0.021165 0.121300
-0.044621 0.021475 0.121300
-0.044621 0.021784 0.121300
-0.044621 0.022093 0.121300
-0.044621 0.022402 0.121300
-0.044621 0.022711 0.121300
-0.044658 0.023040 0.121400
-0.044695 0.023368 0.121500
-0.044695 0.023678 0.121500
-0.044732 0.024008 0.121600
-0.044768 0.024338 0.121700
-0.044805 0.024668 0.121800
-0.044842 0.024999 0.121900
-0.044842 0.025310 0.121900
-0.044879 0.025642 0.122000
-0.044989 0.026016 0.122300
-0.045026 0.026350 0.122400
-0.045063 0.026683 0.122500
-0.045783 0.013059 0.123600
-0.045746 0.013364 0.123500
-0.045709 0.013667 0.123400
-0.045672 0.013971 0.123300
-0.045672 0.014285 0.123300
-0.045598 0.014576 0.123100
-0.045598 0.014889 0.123100
-0.045524 0.015179 0.122900
-0.045487 0.015479 0.122800
-0.045450 0.015779 0.122700
-0.045376 0.016066 0.122500
-0.045339 0.016365 0.122400
-0.045302 0.016663 0.122300
-0.045265 0.016961 0.122200
-0.045190 0.017244 0.122000
-0.045153 0.017541 0.121900
-0.045116 0.017837 0.121800
-0.045116 0.018148 0.121800
-0.045079 0.018443 0.121700
-0.045042 0.018738 0.121600
-0.045042 0.019048 0.121600
-0.045042 0.019358 0.121600
-0.045005 0.019652 0.121500
-0.045005 0.019961 0.121500
-0.045005 0.020271 0.121500
-0.045005 0.020581 0.121500
-0.045005 0.020891 0.121500
-0.045005 0.021200 0.121500
-0.045005 0.021510 0.121500
-0.045005 0.021820 0.121500
-0.045005 0.022129 0.121500
-0.045005 0.022439 0.121500
-0.045042 0.022768 0.121600
-0.045042 0.023078 0.121600
-0.045079 0.023407 0.121700
-0.045116 0.023737 0.121800
-0.045116 0.024047 0.121800
-0.045190 0.024398 0.122000
-0.045190 0.024709 0.122000
-0.045265 0.025061 0.122200
-0.045302 0.025393 0.122300
-0.045302 0.025705 0.122300
-0.045376 0.026059 0.122500
-0.045376 0.026371 0.122500
-0.045450 0.026727 0.122700
-0.046099 0.013374 0.123600
-0.046062 0.013679 0.123500
-0.046062 0.013993 0.123500
-0.046024 0.014297 0.123400
-0.045987 0.014599 0.123300
-0.045987 0.014914 0.123300
-0.045912 0.015203 0.123100
-0.045875 0.015504 0.123000
-0.045838 0.015805 0.122900
-0.045763 0.016092 0.122700
-0.045726 0.016392 0.122600
-0.045689 0.016691 0.122500
-0.045651 0.016989 0.122400
-0.045614 0.017287 0.122300
-0.045577 0.017584 0.122200
-0.045539 0.017881 0.122100
-0.045502 0.018177 0.122000
-0.045502 0.018488 0.122000
-0.045465 0.018784 0.121900
-0.045428 0.019079 0.121800
-0.045428 0.019390 0.121800
-0.045428 0.019700 0.121800
-0.045390 0.019994 0.121700
-0.045390 0.020304 0.121700
-0.045390 0.020615 0.121700
-0.045390 0.020925 0.121700
-0.045390 0.021235 0.121700
-0.045390 0.021545 0.121700
-0.045390 0.021856 0.121700
-0.045390 0.022166 0.121700
-0.045428 0.022495 0.121800
-0.045428 0.022805 0.121800
-0.045465 0.023135 0.121900
-0.045502 0.023465 0.122000
-0.045502 0.023776 0.122000
-0.045539 0.024106 0.122100
-0.045614 0.024458 0.122300
-0.045614 0.024769 0.122300
-0.045614 0.025081 0.122300
-0.045689 0.025434 0.122500
-0.045726 0.025768 0.122600
-0.045763 0.026101 0.122700
-0.045801 0.026436 0.122800
-0.046490 0.013396 0.123800
-0.046452 0.013701 0.123700
-0.046452 0.014016 0.123700
-0.046377 0.014308 0.123500
-0.046377 0.014623 0.123500
-0.046340 0.014926 0.123400
-0.046302 0.015228 0.123300
-0.046265 0.015530 0.123200
-0.046227 0.015831 0.123100
-0.046152 0.016118 0.122900
-0.046114 0.016418 0.122800
-0.046077 0.016718 0.122700
-0.046039 0.017017 0.122600
-0.046002 0.017315 0.122500
-0.045964 0.017613 0.122400
-0.045927 0.017910 0.122300
-0.045927 0.018222 0.122300
-0.045889 0.018519 0.122200
-0.045851 0.018815 0.122100
-0.045814 0.019110 0.122000
-0.045814 0.019421 0.122000
-0.045814 0.019732 0.122000
-0.045814 0.020043 0.122000
-0.045814 0.020354 0.122000
-0.045814 0.020665 0.122000
-0.045776 0.020959 0.121900
-0.045776 0.021270 0.121900
-0.045776 0.021581 0.121900
-0.045814 0.021909 0.122000
-0.045814 0.022220 0.122000
-0.045814 0.022531 0.122000
-0.045851 0.022861 0.122100
-0.045889 0.023191 0.122200
-0.045927 0.023522 0.122300
-0.045927 0.023834 0.122300
-0.045964 0.024165 0.122400
-0.046002 0.024498 0.122500
-0.046039 0.024830 0.122600
-0.046077 0.025163 0.122700
-0.046114 0.025497 0.122800
-0.046152 0.025831 0.122900
-0.046152 0.026144 0.122900
-0.046189 0.026479 0.123000
-0.046844 0.013723 0.123900
-0.046806 0.014027 0.123800
-0.046806 0.014343 0.123800
-0.046768 0.014647 0.123700
-0.046731 0.014950 0.123600
-0.046693 0.015253 0.123500
-0.046655 0.015555 0.123400
-0.046579 0.015844 0.123200
-0.046542 0.016145 0.123100
-0.046504 0.016445 0.123000
-0.046466 0.016745 0.122900
-0.046428 0.017044 0.122800
-0.046390 0.017343 0.122700
-0.046352 0.017642 0.122600
-0.046315 0.017940 0.122500
-0.046315 0.018252 0.122500
-0.046277 0.018549 0.122400
-0.046239 0.018846 0.122300
-0.046239 0.019157 0.122300
-0.046239 0.019469 0.122300
-0.046239 0.019781 0.122300
-0.046201 0.020076 0.122200
-0.046201 0.020388 0.122200
-0.046201 0.020699 0.122200
-0.046201 0.021011 0.122200
-0.046201 0.021322 0.122200
-0.046201 0.021634 0.122200
-0.046201 0.021945 0.122200
-0.046239 0.022275 0.122300
-0.046239 0.022587 0.122300
-0.046239 0.022899 0.122300
-0.046277 0.023229 0.122400
-0.046315 0.023561 0.122500
-0.046352 0.023892 0.122600
-0.046390 0.024225 0.122700
-0.046428 0.024558 0.122800
-0.046466 0.024891 0.122900
-0.046504 0.025225 0.123000
-0.046542 0.025559 0.123100
-0.046542 0.025873 0.123100
-0.046579 0.026208 0.123200
-0.047199 0.014050 0.124000
-0.047199 0.014366 0.124000
-0.047161 0.014670 0.123900
-0.047122 0.014974 0.123800
-0.047084 0.015277 0.123700
-0.047008 0.015567 0.123500
-0.046970 0.015869 0.123400
-0.046932 0.016171 0.123300
-0.046856 0.016458 0.123100
-0.046856 0.016772 0.123100
-0.046818 0.017072 0.123000
-0.046780 0.017372 0.122900
-0.046742 0.017671 0.122800
-0.046704 0.017969 0.122700
-0.046704 0.018282 0.122700
-0.046666 0.018579 0.122600
-0.046666 0.018892 0.122600
-0.046628 0.019189 0.122500
-0.046628 0.019501 0.122500
-0.046628 0.019813 0.122500
-0.046628 0.020126 0.122500
-0.046590 0.020421 0.122400
-0.046590 0.020733 0.122400
-0.046590 0.021045 0.122400
-0.046590 0.021357 0.122400
-0.046590 0.021669 0.122400
-0.046590 0.021981 0.122400
-0.046628 0.022312 0.122500
-0.046628 0.022624 0.122500
-0.046666 0.022955 0.122600
-0.046704 0.023286 0.122700
-0.046704 0.023599 0.122700
-0.046742 0.023931 0.122800
-0.046780 0.024264 0.122900
-0.046856 0.024617 0.123100
-0.046856 0.024931 0.123100
-0.046894 0.025266 0.123200
-0.046932 0.025600 0.123300
-0.046932 0.025915 0.123300
-0.046970 0.026250 0.123400
-0.047669 0.014412 0.124400
-0.047592 0.014706 0.124200
-0.047515 0.014998 0.124000
-0.047515 0.015314 0.124000
-0.047401 0.015593 0.123700
-0.047362 0.015895 0.123600
-0.047286 0.016184 0.123400
-0.047247 0.016485 0.123300
-0.047209 0.016786 0.123200
-0.047171 0.017086 0.123100
-0.047171 0.017400 0.123100
-0.047132 0.017699 0.123000
-0.047094 0.017998 0.122900
-0.047094 0.018312 0.122900
-0.047056 0.018610 0.122800
-0.047056 0.018923 0.122800
-0.047017 0.019220 0.122700
-0.047017 0.019533 0.122700
-0.047017 0.019846 0.122700
-0.047017 0.020158 0.122700
-0.046979 0.020455 0.122600
-0.046979 0.020767 0.122600
-0.046979 0.021080 0.122600
-0.046979 0.021392 0.122600
-0.046979 0.021705 0.122600
-0.047017 0.022035 0.122700
-0.047017 0.022348 0.122700
-0.047017 0.022661 0.122700
-0.047056 0.022992 0.122800
-0.047094 0.023324 0.122900
-0.047094 0.023638 0.122900
-0.047171 0.023990 0.123100
-0.047171 0.024304 0.123100
-0.047209 0.024637 0.123200
-0.047247 0.024972 0.123300
-0.047286 0.025307 0.123400
-0.047324 0.025642 0.123500
-0.047324 0.025957 0.123500
-0.047987 0.014730 0.124400
-0.047948 0.015035 0.124300
-0.047909 0.015339 0.124200
-0.047832 0.015630 0.124000
-0.047755 0.015921 0.123800
-0.047678 0.016210 0.123600
-0.047639 0.016512 0.123500
-0.047639 0.016827 0.123500
-0.047562 0.017114 0.123300
-0.047562 0.017428 0.123300
-0.047562 0.017742 0.123300
-0.047524 0.018042 0.123200
-0.047485 0.018341 0.123100
-0.047485 0.018655 0.123100
-0.047447 0.018954 0.123000
-0.047408 0.019251 0.122900
-0.047408 0.019565 0.122900
-0.047408 0.019878 0.122900
-0.047408 0.020191 0.122900
-0.047369 0.020488 0.122800
-0.047369 0.020801 0.122800
-0.047369 0.021114 0.122800
-0.047408 0.021445 0.122900
-0.047408 0.021758 0.122900
-0.047408 0.022071 0.122900
-0.047408 0.022384 0.122900
-0.047408 0.022698 0.122900
-0.047447 0.023030 0.123000
-0.047485 0.023362 0.123100
-0.047485 0.023676 0.123100
-0.047524 0.024009 0.123200
-0.047562 0.024343 0.123300
-0.047601 0.024677 0.123400
-0.047639 0.025012 0.123500
-0.047678 0.025348 0.123600
-0.047717 0.025683 0.123700
-0.048460 0.014777 0.124800
-0.048382 0.015071 0.124600
-0.048304 0.015364 0.124400
-0.048227 0.015656 0.124200
-0.048149 0.015947 0.124000
-0.048110 0.016250 0.123900
-0.048033 0.016539 0.123700
-0.048033 0.016854 0.123700
-0.047994 0.017155 0.123600
-0.047955 0.017456 0.123500
-0.047955 0.017771 0.123500
-0.047916 0.018071 0.123400
-0.047877 0.018371 0.123300
-0.047877 0.018685 0.123300
-0.047839 0.018984 0.123200
-0.047800 0.019283 0.123100
-0.047800 0.019597 0.123100
-0.047800 0.019910 0.123100
-0.047800 0.020224 0.123100
-0.047800 0.020538 0.123100
-0.047800 0.020852 0.123100
-0.047800 0.021166 0.123100
-0.047800 0.021479 0.123100
-0.047800 0.021793 0.123100
-0.047800 0.022107 0.123100
-0.047800 0.022421 0.123100
-0.047800 0.022735 0.123100
-0.047839 0.023067 0.123200
-0.047877 0.023400 0.123300
-0.047877 0.023715 0.123300
-0.047916 0.024048 0.123400
-0.047955 0.024383 0.123500
-0.047955 0.024697 0.123500
-0.047994 0.025033 0.123600
-0.048033 0.025368 0.123700
-0.048033 0.025683 0.123700
-0.048779 0.015095 0.124800
-0.048700 0.015388 0.124600
-0.048622 0.015681 0.124400
-0.048583 0.015985 0.124300
-0.048505 0.016276 0.124100
-0.048466 0.016579 0.124000
-0.048466 0.016895 0.124000
-0.048427 0.017197 0.123900
-0.048388 0.017499 0.123800
-0.048349 0.017800 0.123700
-0.048349 0.018115 0.123700
-0.048310 0.018416 0.123600
-0.048271 0.018716 0.123500
-0.048271 0.019031 0.123500
-0.048231 0.019330 0.123400
-0.048231 0.019644 0.123400
-0.048192 0.019943 0.123300
-0.048192 0.020257 0.123300
-0.048192 0.020571 0.123300
-0.048192 0.020886 0.123300
-0.048192 0.021200 0.123300
-0.048192 0.021514 0.123300
-0.048153 0.021811 0.123200
-0.048153 0.022125 0.123200
-0.048192 0.022457 0.123300
-0.048192 0.022772 0.123300
-0.048192 0.023086 0.123300
-0.048231 0.023419 0.123400
-0.048271 0.023753 0.123500
-0.048271 0.024068 0.123500
-0.048310 0.024402 0.123600
-0.048349 0.024737 0.123700
-0.048388 0.025073 0.123800
-0.048466 0.025430 0.124000
-0.049137 0.015426 0.124900
-0.049019 0.015706 0.124600
-0.048980 0.016011 0.124500
-0.048901 0.016302 0.124300
-0.048861 0.016606 0.124200
-0.048861 0.016922 0.124200
-0.048861 0.017239 0.124200
-0.048822 0.017541 0.124100
-0.048783 0.017843 0.124000
-0.048783 0.018159 0.124000
-0.048743 0.018461 0.123900
-0.048665 0.018746 0.123700
-0.048665 0.019061 0.123700
-0.048625 0.019361 0.123600
-0.048625 0.019676 0.123600
-0.048586 0.019975 0.123500
-0.048586 0.020290 0.123500
-0.048586 0.020605 0.123500
-0.048586 0.020920 0.123500
-0.048547 0.021217 0.123400
-0.048547 0.021532 0.123400
-0.048547 0.021846 0.123400
-0.048547 0.022161 0.123400
-0.048547 0.022475 0.123400
-0.048547 0.022790 0.123400
-0.048586 0.023123 0.123500
-0.048586 0.023438 0.123500
-0.048625 0.023772 0.123600
-0.048665 0.024107 0.123700
-0.048665 0.024422 0.123700
-0.048704 0.024757 0.123800
-0.048783 0.025114 0.124000
-0.049456 0.015744 0.124900
-0.049337 0.016024 0.124600
-0.049298 0.016328 0.124500
-0.049258 0.016632 0.124400
-0.049258 0.016949 0.124400
-0.049258 0.017267 0.124400
-0.049218 0.017570 0.124300
-0.049179 0.017872 0.124200
-0.049179 0.018189 0.124200
-0.049139 0.018490 0.124100
-0.049100 0.018792 0.124000
-0.049100 0.019108 0.124000
-0.049060 0.019408 0.123900
-0.049060 0.019724 0.123900
-0.049020 0.020024 0.123800
-0.048981 0.020323 0.123700
-0.048981 0.020638 0.123700
-0.048941 0.020936 0.123600
-0.048941 0.021252 0.123600
-0.048941 0.021567 0.123600
-0.048902 0.021864 0.123500
-0.048902 0.022179 0.123500
-0.048902 0.022494 0.123500
-0.048941 0.022827 0.123600
-0.048941 0.023142 0.123600
-0.048981 0.023476 0.123700
-0.048981 0.023791 0.123700
-0.049020 0.024126 0.123800
-0.049020 0.024442 0.123800
-0.049100 0.024797 0.124000
-0.049735 0.016049 0.124800
-0.049695 0.016355 0.124700
-0.049656 0.016659 0.124600
-0.049656 0.016977 0.124600
-0.049616 0.017280 0.124500
-0.049616 0.017598 0.124500
-0.049576 0.017901 0.124400
-0.049576 0.018218 0.124400
-0.049536 0.018520 0.124300
-0.049496 0.018822 0.124200
-0.049496 0.019138 0.124200
-0.049456 0.019439 0.124100
-0.049456 0.019756 0.124100
-0.049417 0.020056 0.124000
-0.049417 0.020372 0.124000
-0.049377 0.020671 0.123900
-0.049337 0.020970 0.123800
-0.049337 0.021286 0.123800
-0.049297 0.021584 0.123700
-0.049297 0.021899 0.123700
-0.049297 0.022215 0.123700
-0.049297 0.022530 0.123700
-0.049297 0.022845 0.123700
-0.049297 0.023161 0.123700
-0.049297 0.023476 0.123700
-0.049377 0.023830 0.123900
-0.049377 0.024146 0.123900
-0.049417 0.024481 0.124000
-0.050094 0.016381 0.124900
-0.050094 0.016699 0.124900
-0.050054 0.017004 0.124800
-0.050014 0.017308 0.124700
-0.049974 0.017612 0.124600
-0.049974 0.017930 0.124600
-0.049974 0.018247 0.124600
-0.049934 0.018550 0.124500
-0.049894 0.018852 0.124400
-0.049894 0.019169 0.124400
-0.049854 0.019471 0.124300
-0.049854 0.019788 0.124300
-0.049814 0.020088 0.124200
-0.049814 0.020405 0.124200
-0.049773 0.020705 0.124100
-0.049773 0.021021 0.124100
-0.049733 0.021320 0.124000
-0.049733 0.021636 0.124000
-0.049733 0.021953 0.124000
-0.049693 0.022251 0.123900
-0.049693 0.022567 0.123900
-0.049733 0.022901 0.124000
-0.049733 0.023217 0.124000
-0.049733 0.023533 0.124000
-0.049773 0.023868 0.124100
-0.049773 0.024185 0.124100
-0.050494 0.016726 0.125100
-0.050494 0.017045 0.125100
-0.050454 0.017350 0.125000
-0.050454 0.017668 0.125000
-0.050413 0.017973 0.124900
-0.050373 0.018276 0.124800
-0.050333 0.018580 0.124700
-0.050292 0.018882 0.124600
-0.050292 0.019200 0.124600
-0.050252 0.019502 0.124500
-0.050252 0.019819 0.124500
-0.050212 0.020121 0.124400
-0.050212 0.020438 0.124400
-0.050212 0.020755 0.124400
-0.050171 0.021055 0.124300
-0.050171 0.021372 0.124300
-0.050131 0.021671 0.124200
-0.050131 0.021988 0.124200
-0.050131 0.022305 0.124200
-0.050131 0.022621 0.124200
-0.050131 0.022938 0.124200
-0.050050 0.023217 0.124000
-0.050050 0.023533 0.124000
-0.050091 0.023868 0.124100
-0.050936 0.017405 0.125400
-0.050895 0.017711 0.125300
-0.050854 0.018016 0.125200
-0.050814 0.018320 0.125100
-0.050773 0.018624 0.125000
-0.050733 0.018928 0.124900
-0.050733 0.019246 0.124900
-0.050692 0.019549 0.124800
-0.050651 0.019851 0.124700
-0.050651 0.020169 0.124700
-0.050611 0.020471 0.124600
-0.050611 0.020788 0.124600
-0.050570 0.021089 0.124500
-0.050570 0.021406 0.124500
-0.050448 0.021671 0.124200
-0.050448 0.021988 0.124200
-0.050448 0.022305 0.124200
-0.050448 0.022621 0.124200
-0.050448 0.022938 0.124200
-0.050448 0.023254 0.124200
-0.050448 0.023571 0.124200
-0.051338 0.017753 0.125600
-0.051297 0.018059 0.125500
-0.051256 0.018364 0.125400
-0.051215 0.018669 0.125300
-0.051133 0.018958 0.125100
-0.051133 0.019277 0.125100
-0.051093 0.019580 0.125000
-0.050970 0.019851 0.124700
-0.050970 0.020169 0.124700
-0.050929 0.020471 0.124600
-0.050929 0.020788 0.124600
-0.050888 0.021089 0.124500
-0.050888 0.021406 0.124500
-0.050847 0.021706 0.124400
-0.050847 0.022023 0.124400
-0.050847 0.022340 0.124400
-0.050847 0.022658 0.124400
-0.050847 0.022975 0.124400
-0.050847 0.023292 0.124400
-0.051577 0.018364 0.125400
-0.051535 0.018669 0.125300
-0.051453 0.018958 0.125100
-0.051453 0.019277 0.125100
-0.051412 0.019580 0.125000
-0.051371 0.019883 0.124900
-0.051371 0.020202 0.124900
-0.051371 0.020520 0.124900
-0.051289 0.020805 0.124700
-0.051289 0.021123 0.124700
-0.051247 0.021424 0.124600
-0.051247 0.021741 0.124600
-0.051206 0.022041 0.124500
-0.051206 0.022358 0.124500
-0.051206 0.022676 0.124500
-0.051897 0.019004 0.125400
-0.051814 0.019293 0.125200
-0.051773 0.019596 0.125100
-0.051731 0.019899 0.125000
-0.051731 0.020218 0.125000
-0.051690 0.020520 0.124900
-0.051649 0.020822 0.124800
-0.051649 0.021140 0.124800
-0.051607 0.021441 0.124700
-0.051607 0.021759 0.124700
-0.051607 0.022076 0.124700
