ply
format ascii 1.0
element vertex 127
property float x
property float y
property float z
end_header
-0.023146 0.021891 0.402196
-0.022895 0.022370 0.402334
-0.022644 0.022850 0.402472
-0.020759 0.023601 0.401417
-0.019645 0.024218 0.400923
-0.018438 0.024848 0.400356
-0.016945 0.025519 0.399577
-0.015743 0.026138 0.399008
-0.014543 0.026754 0.398438
-0.013727 0.027306 0.398148
-0.026690 0.020323 0.403313
-0.026243 0.020842 0.403313
-0.024924 0.021510 0.402684
-0.023608 0.022174 0.402054
-0.023357 0.022653 0.402192
-0.021080 0.023470 0.400860
-0.019578 0.024151 0.400085
-0.018368 0.024780 0.399519
-0.017065 0.025419 0.398882
-0.015860 0.026038 0.398314
-0.014657 0.026653 0.397745
-0.013648 0.027235 0.397315
-0.012833 0.027783 0.397025
-0.012019 0.028329 0.396734
-0.027860 0.019605 0.403030
-0.027606 0.020090 0.403169
-0.027157 0.020609 0.403169
-0.026029 0.021245 0.402681
-0.025388 0.021794 0.402541
-0.023003 0.022637 0.401144
-0.022754 0.023114 0.401281
-0.020473 0.023926 0.399949
-0.018874 0.024619 0.399105
-0.017760 0.025227 0.398609
-0.016359 0.025878 0.397902
-0.015153 0.026494 0.397334
-0.013949 0.027105 0.396764
-0.013324 0.027624 0.396615
-0.012508 0.028170 0.396325
-0.011885 0.028685 0.396175
-0.011072 0.029226 0.395883
-0.010260 0.029764 0.395591
-0.029520 0.018797 0.403092
-0.029070 0.019318 0.403093
-0.028327 0.019891 0.402886
-0.028073 0.020376 0.403025
-0.027624 0.020895 0.403025
-0.026494 0.021530 0.402538
-0.024977 0.022227 0.401771
-0.023074 0.022983 0.400723
-0.021563 0.023668 0.399952
-0.019959 0.024363 0.399110
-0.018261 0.025067 0.398196
-0.017243 0.025657 0.397770
-0.015840 0.026304 0.397063
-0.014827 0.026886 0.396635
-0.013815 0.027465 0.396206
-0.012997 0.028011 0.395917
-0.012373 0.028526 0.395767
-0.011750 0.029039 0.395617
-0.010936 0.029578 0.395325
-0.010410 0.030073 0.395245
-0.009599 0.030608 0.394952
-0.031384 0.017948 0.403290
-0.030637 0.018526 0.403084
-0.029989 0.019084 0.402947
-0.029538 0.019605 0.402949
-0.028989 0.020143 0.402880
-0.028540 0.020662 0.402881
-0.028090 0.021181 0.402882
-0.026958 0.021815 0.402395
-0.025438 0.022510 0.401629
-0.023143 0.023329 0.400303
-0.021435 0.024043 0.399393
-0.020411 0.024640 0.398971
-0.018710 0.025342 0.398058
-0.017690 0.025931 0.397632
-0.016286 0.026577 0.396926
-0.015270 0.027158 0.396499
-0.014256 0.027736 0.396070
-0.013437 0.028281 0.395781
-0.012813 0.028795 0.395632
-0.012189 0.029308 0.395482
-0.011373 0.029846 0.395191
-0.010847 0.030341 0.395110
-0.010034 0.030875 0.394818
-0.028557 0.021467 0.402738
-0.027423 0.022099 0.402252
-0.027170 0.022582 0.402391
-0.023600 0.023609 0.400162
-0.021890 0.024321 0.399253
-0.021643 0.024793 0.399389
-0.013252 0.029064 0.395496
-0.012627 0.029576 0.395346
-0.012004 0.030087 0.395196
-0.011284 0.030609 0.394975
-0.011047 0.031062 0.395106
-0.129107 -0.003554 0.465168
-0.128744 -0.002861 0.465367
-0.130137 -0.003838 0.464763
-0.129774 -0.003146 0.464962
-0.129411 -0.002453 0.465161
-0.131933 -0.004895 0.464430
-0.131166 -0.004122 0.464358
-0.130804 -0.003430 0.464557
-0.130441 -0.002737 0.464756
-0.130078 -0.002044 0.464956
-0.134890 -0.005560 0.465314
-0.134524 -0.004863 0.465515
-0.133653 -0.004067 0.465376
-0.132885 -0.003293 0.465304
-0.132520 -0.002597 0.465504
-0.132156 -0.001901 0.465704
-0.135968 -0.005228 0.465378
-0.135196 -0.004451 0.465308
-0.134324 -0.003656 0.465169
-0.133959 -0.002960 0.465370
-0.133595 -0.002263 0.465570
-0.133230 -0.001566 0.465770
-0.137923 -0.005695 0.465579
-0.137557 -0.004995 0.465780
-0.137190 -0.004294 0.465982
-0.136823 -0.003594 0.466184
-0.136050 -0.002817 0.466114
-0.135684 -0.002117 0.466315
-0.139476 -0.006083 0.465507
-0.139619 -0.005481 0.466047
